<?xml version="1.0" standalone="no"?>
<!DOCTYPE svg PUBLIC "-//W3C//DTD SVG 20010904//EN"
 "http://www.w3.org/TR/2001/REC-SVG-20010904/DTD/svg10.dtd">
<svg version="1.0" xmlns="http://www.w3.org/2000/svg"
 width="225.000000pt" height="225.000000pt" viewBox="0 0 225.000000 225.000000"
 preserveAspectRatio="xMidYMid meet">

<g transform="translate(0.000000,225.000000) scale(0.100000,-0.100000)"
fill="#000000" stroke="none">
<path d="M278 2046 c-26 -7 -55 -19 -65 -26 -52 -39 -78 -70 -99 -115 l-24
-50 0 -730 0 -730 24 -50 c12 -27 41 -67 64 -87 78 -71 51 -69 968 -66 906 3
849 -1 928 68 20 18 47 52 59 74 l22 41 0 750 0 750 -22 41 c-12 22 -39 56
-59 74 -79 69 -22 65 -929 67 -639 2 -830 -1 -867 -11z m1702 -111 c21 -12 44
-39 58 -65 l22 -44 0 -706 0 -705 -23 -39 c-12 -22 -38 -49 -57 -60 -35 -21
-46 -21 -855 -21 -809 0 -820 0 -855 21 -19 11 -45 38 -57 60 l-23 39 0 708
c0 761 -1 746 50 792 49 44 51 44 900 42 788 -2 806 -2 840 -22z"/>
<path d="M796 1525 c-51 -18 -102 -69 -122 -122 -51 -133 48 -273 193 -273
191 0 274 230 130 357 -58 51 -128 64 -201 38z m125 -108 c88 -59 46 -187 -62
-187 -40 0 -99 56 -99 94 0 41 28 86 63 101 44 20 59 18 98 -8z"/>
<path d="M1768 1256 c-150 -61 -236 -139 -353 -317 -85 -128 -118 -164 -164
-176 -47 -12 -132 15 -225 71 -112 66 -153 80 -236 80 -52 0 -78 -6 -130 -30
-82 -39 -167 -103 -247 -187 l-63 -65 0 -75 c0 -55 4 -80 16 -91 14 -14 96
-16 759 -16 663 0 745 2 759 16 14 13 16 64 16 399 0 335 -2 386 -16 399 -21
22 -49 20 -116 -8z m32 -401 l0 -305 -675 0 c-655 0 -675 1 -675 19 0 11 37
53 85 99 155 147 261 176 387 107 153 -85 204 -106 276 -112 63 -5 77 -3 125
20 60 30 86 59 179 203 78 121 152 198 233 241 33 18 61 33 63 33 1 0 2 -137
2 -305z"/>
</g>
</svg>
