<svg width="16" height="16" viewBox="0 0 16 16" fill="none" xmlns="http://www.w3.org/2000/svg">
<g clip-path="url(#clip0_7601_51156)">
<path d="M16 7.99905C16 12.4167 12.4183 15.9983 7.99983 15.9983C3.58133 15.9983 0 12.4167 0 7.99905C0 3.58138 3.58144 0 7.99983 0C12.4182 0 16 3.58116 16 7.99905Z" fill="#F2F3F5"/>
<path d="M8.0009 0C3.58396 0 -0.00363338 3.58664 0.00195966 7.99894C0.00319012 8.88175 0.143799 9.73091 0.408126 10.5253H2.8015V3.79602L8.00101 8.99472L13.2003 3.79602V10.5253H15.594C15.8588 9.73091 15.9988 8.88175 16.0002 7.99894C16.0079 3.58194 12.4182 0.00111848 8.0009 0.00111848V0Z" fill="#F16822"/>
<path d="M6.80486 10.189L4.53588 7.92003V12.1545H2.80103L1.16406 12.1547C2.56825 14.458 5.10592 15.9989 8.00066 15.9989C10.8954 15.9989 13.4332 14.4577 14.8375 12.1543H13.1998L11.6481 12.1544H11.4649V7.91992L9.19555 10.1889L8.00032 11.3841L6.80498 10.1889H6.80486V10.189Z" fill="#4D4D4D"/>
</g>
<defs>
<clipPath id="clip0_7601_51156">
<rect width="16" height="16" fill="white"/>
</clipPath>
</defs>
</svg>
