<?xml version="1.0" standalone="no"?>
<!DOCTYPE svg PUBLIC "-//W3C//DTD SVG 20010904//EN"
 "http://www.w3.org/TR/2001/REC-SVG-20010904/DTD/svg10.dtd">
<svg version="1.0" xmlns="http://www.w3.org/2000/svg"
 width="66.000000pt" height="45.000000pt" viewBox="0 0 66.000000 45.000000"
 preserveAspectRatio="xMidYMid meet">

<g transform="translate(0.000000,45.000000) scale(0.100000,-0.100000)"
fill="#000000" stroke="none">
<path d="M366 424 c-241 -31 -231 -24 -303 -218 -29 -78 -53 -145 -53 -151 0
-5 19 18 41 53 24 35 51 64 63 67 12 2 82 11 156 20 74 8 152 18 172 21 36 5
37 5 63 -46 15 -29 23 -56 18 -60 -4 -4 -116 -20 -248 -35 -132 -15 -246 -31
-254 -35 -9 -5 1 -12 28 -23 39 -16 52 -16 238 7 196 25 196 25 229 58 24 24
47 72 88 182 31 82 55 150 54 151 -10 6 -90 35 -96 34 -4 -1 -92 -12 -196 -25z"/>
</g>
</svg>
