<svg width="72" height="72" viewBox="0 0 72 72" fill="none" xmlns="http://www.w3.org/2000/svg">
<path d="M67.9869 25.5183L48.9562 14.5996H22.0405L3.00977 25.5183V40.9604L22.0405 51.879H48.9562L67.9901 40.9604L67.9869 25.5183Z" fill="#88E478"/>
<path d="M48.9502 51.8592H22.0508L35.5021 5L48.9502 51.8592Z" fill="#4A6DF2"/>
<path d="M67.9899 40.9594L35.498 5.00586L48.9559 51.8781L67.9899 40.9594Z" fill="#4055DD"/>
<path d="M68.0003 25.5277V40.9731L66.5908 39.3743H66.5515L60.2265 32.3714L57.7704 29.6482L55.4353 27.0485H55.396L35.502 5L68.0003 25.5277Z" fill="#3547B8"/>
<path d="M3.00977 40.9594L35.4983 5.00586L22.0405 51.8781L3.00977 40.9594Z" fill="#4055DD"/>
<path d="M35.5016 5L23.4991 18.2844L22.1288 19.8052L20.6408 21.4462L16.8143 25.687L3 40.9731V25.5277L6.98667 23.006L12.8277 19.3242L15.1235 17.8847L17.2166 16.5231L35.5016 5Z" fill="#3547B8"/>
<path d="M48.9559 51.8789L35.498 68.0002V51.8789H48.9559Z" fill="#4566E2"/>
<path d="M67.9899 40.9609L35.498 68.0009L48.9559 51.8796L67.9899 40.9609Z" fill="#3547B8"/>
<path d="M22.041 51.8789L35.4989 68.0002V51.8789H22.041Z" fill="#4566E2"/>
<path d="M3.00977 40.9609L35.4983 68.0009L22.0405 51.8796L3.00977 40.9609Z" fill="#3547B8"/>
</svg>
