<svg width="24" height="24" viewBox="0 0 24 24" fill="none" xmlns="http://www.w3.org/2000/svg">
<g clip-path="url(#clip0_8_6)">
<path d="M22 4H2C0.896 4 0 4.896 0 6V18C0 19.104 0.896 20 2 20H22C23.104 20 24 19.104 24 18V6C24 4.896 23.104 4 22 4ZM22 17.5C22 17.776 21.776 18 21.5 18H2.5C2.224 18 2 17.776 2 17.5V11H22V17.5ZM22 8H2V6.5C2 6.224 2.224 6 2.5 6H21.5C21.776 6 22 6.224 22 6.5V8Z" fill="white"/>
</g>
<defs>
<clipPath id="clip0_8_6">
<rect width="24" height="24" fill="white"/>
</clipPath>
</defs>
</svg>
