<svg width="980" height="818" viewBox="0 0 980 818" fill="none" xmlns="http://www.w3.org/2000/svg">
<path d="M980 667.8C980 705.6 952.7 736.1 907.6 735.3C885 735.2 886.7 735.7 866.1 735.3C829.9 734.5 832.3 712.6 820.5 667.8C791.6 557.5 669.1 413.1 641.2 396.4C567.6 352.4 661 381.7 661 240.1C661 203.8 652.7 158.1 637.9 127.4C626.3 103.4 616.7 81.1 661 82.6C749 85.4 820.4 153.2 820.4 240.1C820.4 294.7 792.4 342.7 749.7 371C758 372.9 766.5 374.9 775.9 377.4C893.1 411.5 980 550.9 980 667.8ZM746.6 745C746.3 781.1 730.7 817.1 669.4 817.1C531.3 817 144.1 817.6 77.2 817.1C2.39999 816.6 0 779.7 0 745C0 578.2 113.8 428.7 266.6 385.7C199.4 349.7 165.7 282.9 165.7 205.5C165.7 92.6 258.8 0.700012 373.2 0.700012C487.6 0.700012 580.7 92.6 580.7 205.5C580.7 282.9 543.8 349.7 476.5 385.7C629.5 428.7 748.3 579.7 746.6 745Z" fill="white"/>
</svg>
