<svg width="60" height="75" viewBox="0 0 60 75" fill="none" xmlns="http://www.w3.org/2000/svg">
<path fill-rule="evenodd" clip-rule="evenodd" d="M18.7 33.5L29.8 0.199997L0.100006 29.8L18.7 33.5Z" fill="white"/>
<path fill-rule="evenodd" clip-rule="evenodd" d="M29.8 0.199997L18.7 33.5H29.8H40.9L29.8 0.199997Z" fill="white"/>
<path fill-rule="evenodd" clip-rule="evenodd" d="M40.9 33.5L29.8 0.199997L59.4 29.8L40.9 33.5Z" fill="white"/>
<path fill-rule="evenodd" clip-rule="evenodd" d="M0.100006 29.8L29.8 74.3L18.7 33.5L0.100006 29.8Z" fill="white"/>
<path fill-rule="evenodd" clip-rule="evenodd" d="M59.4 29.8L29.8 74.3L40.9 33.5L59.4 29.8Z" fill="white"/>
<path fill-rule="evenodd" clip-rule="evenodd" d="M29.8 74.3L40.9 33.5H29.8H18.7L29.8 74.3Z" fill="white"/>
<path fill-rule="evenodd" clip-rule="evenodd" d="M18.7 33.5L29.8 0.199997L0.100006 29.8L18.7 33.5Z" fill="white"/>
<path fill-rule="evenodd" clip-rule="evenodd" d="M29.8 0.199997L18.7 33.5H29.8H40.9L29.8 0.199997Z" fill="white"/>
<path fill-rule="evenodd" clip-rule="evenodd" d="M40.9 33.5L29.8 0.199997L59.4 29.8L40.9 33.5Z" fill="white"/>
<path fill-rule="evenodd" clip-rule="evenodd" d="M0.100006 29.8L29.8 74.3L18.7 33.5L0.100006 29.8Z" fill="white"/>
<path fill-rule="evenodd" clip-rule="evenodd" d="M59.4 29.8L29.8 74.3L40.9 33.5L59.4 29.8Z" fill="white"/>
<path fill-rule="evenodd" clip-rule="evenodd" d="M29.8 74.3L40.9 33.5H29.8H18.7L29.8 74.3Z" fill="white"/>
</svg>
