<svg width="37" height="29" viewBox="0 0 37 29" fill="none" xmlns="http://www.w3.org/2000/svg">
<path d="M11.6314 27.9008C10.3421 27.5744 9.83802 26.8534 9.35032 24.6376C8.88075 22.5042 8.62154 21.7711 8.05962 20.9869C7.60833 20.3571 7.02296 20.0753 6.16626 20.0753C5.10165 20.0753 4.54694 19.6624 4.1834 18.5992C3.79391 17.4602 3.72128 15.4098 4.03811 14.4984C4.24235 13.9108 4.7702 13.2411 5.33944 12.8472C5.6242 12.6502 6.63598 12.1908 7.74912 11.7532C9.87757 10.9164 11.3109 10.2156 12.7357 9.31505C14.5819 8.14819 16.6882 6.51056 17.9974 5.22436C18.8329 4.40356 18.8683 4.35043 19.0451 3.65537C19.2162 2.98236 19.4506 2.53862 19.835 2.16041C20.1187 1.88121 20.2215 1.84044 20.7237 1.80767C21.6622 1.74646 22.2498 2.14669 23.0656 3.40255C24.2322 5.19873 25.4089 8.65079 25.944 11.8471C26.7435 16.6236 26.1466 21.3198 24.6589 21.9567C24.0873 22.2013 23.7848 22.1115 22.6501 21.3603C22.3527 21.1634 21.836 20.8953 21.5019 20.7645C19.5912 20.0166 15.1084 19.2561 12.5959 19.2536C11.6642 19.2527 11.5876 19.2663 11.458 19.4558C11.2387 19.7766 11.2864 20.4924 11.585 21.3598C11.7313 21.7848 11.8518 22.2271 11.8527 22.3428C11.855 22.6119 12.0494 22.9966 12.3007 23.2297C12.6204 23.526 12.7694 23.9016 12.7055 24.2503C12.6554 24.5238 12.6992 24.6324 13.0546 25.1168C13.4915 25.7121 13.5445 25.968 13.3387 26.4869C13.2043 26.8258 13.2273 26.9614 13.4743 27.2875C13.7062 27.5937 13.6828 27.8343 13.4105 27.9403C13.1025 28.0603 12.1801 28.0399 11.6314 27.901L11.6314 27.9008ZM20.9145 18.6811C19.1288 15.025 18.0821 9.3864 18.6049 6.23979L18.6632 5.88928L17.9558 6.61392C16.9701 7.6236 16.1202 8.2439 13.5817 9.80613C10.3729 11.7808 9.8749 12.3411 9.81679 14.0415C9.75082 15.9698 10.4834 17.5441 11.713 18.1164C12.1087 18.3005 12.396 18.3396 13.9519 18.4208C14.9337 18.472 16.1983 18.5803 16.7623 18.6613C17.9822 18.8367 19.8481 19.3191 20.7793 19.6998C21.1475 19.8502 21.4717 19.9758 21.4997 19.9787C21.5278 19.9817 21.2644 19.3978 20.9145 18.6812L20.9145 18.6811ZM21.5374 17.2869C21.7498 16.2316 21.8075 14.7496 21.6752 13.7479C21.4231 11.8384 20.5826 9.96561 19.6509 9.23775L19.325 8.98308L19.3868 9.56943C19.5152 10.7887 19.907 13.2186 20.1668 14.407C20.4815 15.8467 21.218 18.2008 21.32 18.0927C21.3586 18.0518 21.4564 17.6892 21.5374 17.2869L21.5374 17.2869ZM32.6678 20.4639C33.1158 19.3265 33.4916 17.8371 33.6795 16.4544C33.9078 14.7743 33.8245 11.5917 33.5078 9.90197C32.77 5.96396 31.13 2.92943 28.9519 1.47134C28.5771 1.22043 28.3111 1.00124 28.3609 0.984236C28.4974 0.937649 29.3918 1.30043 30.1947 1.72803C32.7246 3.07532 34.3838 5.29982 35.2192 8.46437C35.4351 9.28207 35.4489 9.46405 35.4544 11.5728C35.4597 13.592 35.4396 13.9119 35.2504 14.8184C34.9648 16.187 34.5131 17.5467 33.9443 18.7496C33.4675 19.758 32.5113 21.3553 32.3844 21.3553C32.3472 21.3553 32.4747 20.9541 32.6678 20.4639L32.6678 20.4639ZM30.0257 19.2296C31.4063 15.7268 31.2234 10.919 29.5721 7.30997C28.8876 5.81413 28.0638 4.76964 26.9958 4.04343C26.7115 3.8501 26.4954 3.67496 26.5156 3.65425C26.5833 3.58493 27.3106 3.88925 28.1247 4.32741C29.5295 5.08361 30.7337 6.40472 31.4845 8.01342C32.0668 9.26118 32.2201 10.0053 32.2695 11.8224C32.3336 14.1818 31.9977 15.8869 31.0849 17.8351C30.6746 18.7107 29.9117 19.9836 29.7972 19.9836C29.7594 19.9836 29.8622 19.6442 30.0257 19.2293L30.0257 19.2296ZM3.44968 19.7989C1.64629 19.4872 0.956909 18.7417 0.956909 17.1032C0.956909 16.1623 1.06091 15.7429 1.4356 15.1731C1.68631 14.7919 1.88349 14.646 2.92933 14.0681C4.1581 13.389 4.51179 13.2531 4.24798 13.5612C3.78574 14.1013 3.55615 15.0039 3.55615 16.2811C3.55615 17.7542 3.83098 18.6391 4.54753 19.4729L4.90793 19.8924L4.38717 19.8816C4.10075 19.8757 3.67889 19.8384 3.4497 19.7988L3.44968 19.7989ZM3.42337 18.9096C3.03518 17.883 2.89947 17.1472 2.89223 16.0298C2.88481 14.8873 2.80385 14.6202 2.63764 15.1901C2.59459 15.3376 2.5554 15.8698 2.55054 16.3726C2.54282 17.1711 2.57807 17.3998 2.82894 18.1782C3.06863 18.9221 3.14659 19.0696 3.30002 19.0696C3.43866 19.0696 3.46899 19.0303 3.42337 18.9096L3.42337 18.9096ZM2.1968 18.0411C1.95411 17.2734 1.93303 17.1099 1.9681 16.2671C2.00021 15.4952 1.98553 15.3471 1.88104 15.3882C1.67573 15.4689 1.59041 15.8363 1.59265 16.6299C1.59428 17.2044 1.6439 17.5006 1.8063 17.9051C2.2965 19.1262 2.56994 19.2215 2.1968 18.041L2.1968 18.0411ZM27.5332 18.4982C28.0324 17.2427 28.2044 16.304 28.2523 14.5736C28.2872 13.313 28.2638 12.7496 28.1457 12.0137C27.9595 10.8533 27.5009 9.41072 27.0127 8.44947C26.6065 7.64965 25.635 6.50954 25.1156 6.22293C24.9391 6.12552 24.7946 6.01126 24.7946 5.96902C24.7946 5.75 26.3054 6.51291 26.9892 7.07714C28.4586 8.2898 29.2952 10.0825 29.4072 12.2585C29.4961 13.986 29.1863 15.6337 28.4875 17.1497C28.0797 18.0344 27.4764 19.0674 27.3667 19.0689C27.3333 19.0694 27.4083 18.8126 27.5332 18.4983L27.5332 18.4982Z" fill="white"/>
</svg>
