<svg width="44" height="44" viewBox="0 0 44 44" fill="none" xmlns="http://www.w3.org/2000/svg">
<g clip-path="url(#clip0_25_217)">
<path d="M11.9976 12.6109L14.0293 10.8101L31.8226 30.8845C34.0011 33.3423 31.7337 34.8774 29.7908 32.6854L11.9976 12.6109Z" fill="white"/>
<path d="M12.1129 12.78L14.2878 10.8522L35.0343 34.2585C37.5745 37.1243 35.1248 38.7422 32.8594 36.1863L12.1129 12.78Z" fill="white"/>
<path d="M28.4994 5.81408C29.3033 6.72101 21.5914 8.84634 15.1939 14.5169C8.79635 20.1874 6.14386 27.3279 5.34 26.421C4.53613 25.5141 5.8853 16.9031 12.2828 11.2326C18.6804 5.56208 27.6955 4.90716 28.4994 5.81408Z" fill="white"/>
<path d="M6.0158 25.7385C7.93026 21.7638 10.3167 18.2509 13.0499 15.384C13.7733 14.6252 14.143 14.2716 15.1036 13.4201C16.2662 12.3895 16.9335 11.8589 18.0711 11.0605C20.9818 9.01763 24.3637 7.38473 27.9593 6.28598L28.4733 6.1289L28.3225 6.27412C28.2395 6.35399 28.0642 6.48781 27.9328 6.5715C27.4929 6.85178 27.1548 7.03162 24.7289 8.27537C21.3839 9.99043 19.1345 11.3799 16.7512 13.2035C16.2397 13.5949 14.685 14.9503 14.1569 15.4654C12.8906 16.7005 11.801 17.9292 10.6277 19.4453C9.67769 20.6729 8.87283 21.8285 7.56683 23.84C6.38553 25.6594 6.11382 26.0421 5.83072 26.2854L5.697 26.4003L6.0158 25.7385Z" fill="white"/>
<path d="M6.02241 25.7621C7.90439 21.8435 10.2575 18.3632 12.963 15.4967C13.71 14.7052 13.9256 14.4996 15.1047 13.4538C16.3315 12.3657 16.6282 12.1225 17.5445 11.4554C20.4551 9.33621 23.6234 7.72769 27.2484 6.52895C27.5846 6.41777 27.9828 6.29057 28.1332 6.24629L28.4068 6.16579L28.2436 6.31243C27.927 6.597 27.7686 6.68622 25.3909 7.91959C23.0189 9.15001 22.1329 9.63351 20.9254 10.3565C19.6262 11.1343 18.474 11.9063 17.1471 12.8881C16.3953 13.4443 14.5554 15.0448 13.8442 15.7612C12.296 17.3208 10.9147 18.9694 9.52507 20.9163C9.0238 21.6186 8.51719 22.37 7.4983 23.9226C6.35258 25.6684 6.11707 26.0015 5.89022 26.1967L5.75977 26.309L6.02241 25.7621L6.02241 25.7621Z" fill="white"/>
<path d="M5.45091 26.4757C5.41429 26.4629 5.38378 26.4409 5.38312 26.4269C5.38245 26.413 5.43828 26.166 5.50718 25.8781C6.78778 20.5271 8.90642 16.2594 11.8846 13.0315C13.2023 11.6034 14.7296 10.364 16.4155 9.35473C19.5981 7.44951 23.5429 6.28578 27.8999 5.96675C28.5583 5.91854 28.5286 5.91918 28.5305 5.95335C28.5314 5.97005 28.3528 6.03742 28.1243 6.1066C23.9908 7.35799 20.3771 9.15736 17.1458 11.5731C15.7184 12.6402 14.2944 13.9022 13.0325 15.2183C10.2419 18.1291 7.84 21.6606 5.87659 25.7395C5.69508 26.1166 5.54002 26.4418 5.53202 26.4621C5.52241 26.4866 5.49489 26.4912 5.4509 26.4757L5.45091 26.4757Z" fill="white"/>
<g clip-path="url(#clip1_25_217)">
<path d="M31.9908 11.8371L33.958 13.7083L15.4705 33.1452C13.207 35.525 11.4846 33.3965 13.5033 31.2741L31.9908 11.8371Z" fill="white"/>
<path d="M31.8321 11.9664L33.938 13.9695L12.382 36.6325C9.74273 39.4073 7.9223 37.1041 10.2761 34.6294L31.8321 11.9664Z" fill="white"/>
<path d="M40.1672 27.7008C39.332 28.5789 36.5581 21.0758 30.3637 15.1841C24.1694 9.29226 16.8291 7.25701 17.6643 6.37889C18.4995 5.50076 27.194 6.1123 33.3884 12.0041C39.5827 17.8959 41.0024 26.8226 40.1672 27.7008Z" fill="white"/>
<path d="M18.4018 6.99419C22.525 8.56348 26.2282 10.6423 29.3173 13.1217C30.1348 13.7778 30.5186 14.1162 31.4488 15.0008C32.5746 16.0715 33.1601 16.6912 34.0524 17.7568C36.3355 20.4831 38.2503 23.7137 39.651 27.2028L39.8513 27.7016L39.6937 27.5637C39.6071 27.4878 39.4588 27.3245 39.3643 27.2007C39.0476 26.7863 38.8396 26.4646 37.3939 24.1535C35.4005 20.9665 33.8246 18.8435 31.8049 16.624C31.3714 16.1476 29.8885 14.714 29.3304 14.2316C27.992 13.075 26.675 12.0939 25.0646 11.0539C23.7606 10.2117 22.5407 9.50814 20.4254 8.37804C18.512 7.35585 18.1076 7.11769 17.8411 6.85632L17.7152 6.73287L18.4018 6.99419Z" fill="white"/>
<path d="M18.3788 7.00279C22.4433 8.5445 26.1113 10.5929 29.1976 13.0447C30.0498 13.7216 30.273 13.9189 31.4154 15.0047C32.6039 16.1345 32.8714 16.4095 33.6141 17.2656C35.9733 19.9853 37.8456 23.0053 39.3484 26.5151C39.4878 26.8406 39.6485 27.2266 39.7054 27.3727L39.8089 27.6385L39.6489 27.4883C39.3384 27.197 39.236 27.0468 37.8048 24.7827C36.377 22.5241 35.8199 21.6824 34.9968 20.5408C34.1112 19.3125 33.244 18.2302 32.1529 16.9916C31.5346 16.2899 29.7834 14.5928 29.0091 13.9452C27.3234 12.5353 25.5633 11.2993 23.5052 10.0804C22.7628 9.64069 21.9709 9.19987 20.3373 8.31679C18.5003 7.32379 18.1484 7.11747 17.9345 6.90805L17.8116 6.78763L18.3788 7.00279L18.3788 7.00279Z" fill="white"/>
<path d="M17.6192 6.49405C17.6289 6.45647 17.6482 6.42421 17.662 6.42235C17.6759 6.4205 17.9267 6.45511 18.2194 6.49926C23.66 7.31988 28.0925 9.06767 31.5621 11.7604C33.0972 12.9517 34.462 14.368 35.6111 15.962C37.7802 18.9709 39.2754 22.8023 39.964 27.1164C40.0681 27.7683 40.0649 27.7388 40.031 27.7435C40.0145 27.7459 39.9322 27.5737 39.8438 27.3519C38.2452 23.3399 36.1449 19.8924 33.4629 16.8784C32.2782 15.547 30.8996 14.2355 29.4809 13.0902C26.3432 10.5575 22.6201 8.46474 18.3889 6.85555C17.9977 6.70678 17.6605 6.57995 17.6396 6.57372C17.6144 6.56622 17.6075 6.53919 17.6192 6.49404L17.6192 6.49405Z" fill="white"/>
</g>
</g>
<defs>
<clipPath id="clip0_25_217">
<rect width="31" height="30" fill="white" transform="translate(0.854858 21.3609) rotate(-41.5526)"/>
</clipPath>
<clipPath id="clip1_25_217">
<rect width="31" height="30" fill="white" transform="translate(22.3243 1.47948) rotate(43.5659)"/>
</clipPath>
</defs>
</svg>
