<svg width="24" height="24" viewBox="0 0 24 24" fill="none" xmlns="http://www.w3.org/2000/svg">
<path d="M12.1259 12.6109C12.0525 12.6704 11.9475 12.6704 11.8741 12.6109L0.453508 3.35538C0.307123 3.23674 0.39101 3 0.579433 3H23.4206C23.609 3 23.6929 3.23674 23.5465 3.35538L12.1259 12.6109ZM12.1259 15.1849C12.0525 15.2444 11.9475 15.2444 11.8741 15.1849L0.325923 5.82613C0.195178 5.72018 0 5.81322 0 5.98151V20.8C0 20.9105 0.0895431 21 0.2 21H23.8C23.9105 21 24 20.9105 24 20.8V5.98151C24 5.81322 23.8048 5.72018 23.6741 5.82613L12.1259 15.1849Z" fill="white" fill-opacity="0.8"/>
</svg>
