<svg width="44" height="44" viewBox="0 0 44 44" fill="none" xmlns="http://www.w3.org/2000/svg">
<path d="M36.4542 15.1072C36.008 14.2586 34.9594 13.9306 34.1104 14.3766C33.2615 14.8226 32.9334 15.8707 33.3795 16.7193C34.2337 18.3471 34.5445 19.7735 34.5271 21.9792V22.0069C34.5549 25.318 33.2615 28.4521 30.8848 30.833C28.5028 33.2191 25.3501 34.5293 22.0011 34.5293C21.9734 34.5293 21.9438 34.5293 21.9143 34.5293C18.5706 34.5067 15.4282 33.1688 13.0637 30.7601C10.7078 28.3601 9.43349 25.1931 9.47342 21.8386C9.55501 15.0325 15.1661 9.4846 21.9838 9.47072C24.1105 9.4603 25.6487 9.81952 27.4681 10.7289C28.3257 11.1575 29.3691 10.8104 29.798 9.95315C30.2268 9.09588 29.8796 8.05293 29.0219 7.62429C26.7459 6.4859 24.6504 6 22.0202 6H21.9768C13.272 6.01735 6.10711 13.1046 6.00121 21.797C5.94913 26.0816 7.57759 30.1267 10.5863 33.1913C13.6019 36.2629 17.6175 37.9705 21.8918 38C21.9282 38 21.9647 38 22.0011 38C26.2789 38 30.3014 36.3288 33.3413 33.285C36.3778 30.2464 38.0306 26.236 37.9993 21.9931C38.0201 19.2321 37.5722 17.2364 36.4542 15.1072Z" fill="#4D79FF"/>
<path d="M20.7847 25.0571C20.6721 25.2531 20.5846 25.3721 20.3532 25.1566C18.9508 23.8514 17.5328 22.5597 16.1319 21.2515C15.6785 20.828 15.1579 20.617 14.5279 20.6306C13.6961 20.6471 13.0567 21.25 13.0051 22.0563C12.9613 22.7557 13.2005 23.3359 13.7196 23.8197C15.061 25.0707 16.3993 26.3247 17.7391 27.5771C18.4349 28.2282 19.115 28.8959 19.8326 29.5244C20.7112 30.2945 21.9463 30.1031 22.5545 29.14C23.7693 27.2154 24.9778 25.2877 26.2082 23.3721C28.0922 20.4392 31.9445 14.8475 34.3771 12.1301C34.3771 12.1301 34.9009 11.5785 34.9822 11.0058C35.0963 10.1949 34.6539 9.42776 33.8831 9.13537C33.1905 8.87162 32.5292 9.00123 31.946 9.45489C31.7178 9.63274 31.2565 10.011 31.0814 10.2386C29.1428 12.2899 25.5641 17.4203 24.057 19.7383C22.9219 21.4851 21.8197 23.253 20.7847 25.0586V25.0571Z" fill="#4D79FF"/>
</svg>
