<svg width="44" height="44" viewBox="0 0 44 44" fill="none" xmlns="http://www.w3.org/2000/svg">
<rect width="44" height="44" fill="#0F141F"/>
<path d="M36.7956 12.5495C36.7926 10.4834 35.3574 9.00274 33.353 9.00117C26.0521 8.99961 18.7498 8.99961 11.449 9.00117C9.44302 9.00274 8.00933 10.485 8.00629 12.5511C8.00172 14.7346 8.02151 16.2888 8.0002 18.4707C7.97889 20.6354 9.66066 22.4605 12.4215 21.9878V16.2826C12.4215 16.2826 11.3972 16.2826 11.3972 15.4436C11.3972 14.6641 12.4215 14.697 12.4215 14.697C18.9507 14.697 32.388 14.7017 32.388 14.7017C32.388 14.7017 33.4382 14.6422 33.4686 15.4436C33.5006 16.2826 32.388 16.2826 32.388 16.2826V22.041C32.7305 22.041 33.0501 22.0426 33.3712 22.041C35.3543 22.03 36.7895 20.5525 36.7956 18.5067C36.8002 16.3123 36.8002 14.7455 36.7956 12.5511V12.5495Z" fill="#EAEAEA"/>
<path d="M13.9941 16.2812C13.9941 16.4503 13.9941 23.5376 13.9941 30.0833C13.9941 32.4562 15.5298 34.0402 17.831 34.0418C20.8703 34.0418 23.9097 34.0418 26.949 34.0418C29.2792 34.0418 30.8057 32.4687 30.8057 30.0661C30.8057 23.6769 30.8057 16.4378 30.8057 16.2812H13.9941ZM25.5138 26.0999C24.6661 26.9873 23.7773 27.8999 22.8732 28.8155C22.5871 29.1035 22.2188 29.1019 21.9311 28.8108C21.0286 27.8936 20.1413 26.9795 19.2906 26.0952C19.0242 25.8181 19.0181 25.4174 19.2769 25.1435C19.4077 25.0042 19.5721 24.9353 19.738 24.9353C19.9039 24.9353 20.0759 25.0058 20.2189 25.1466C20.4701 25.3971 20.7197 25.6569 20.983 25.9339C21.1032 26.0592 21.2265 26.1891 21.3574 26.3237L21.7485 26.7291V24.7146C21.7485 23.8334 21.7485 22.9538 21.7485 22.0726C21.7485 21.8346 21.814 21.6343 21.9372 21.495C22.0529 21.3619 22.2158 21.2915 22.406 21.2915C22.8048 21.2915 23.062 21.5999 23.062 22.0772C23.062 23.4061 23.062 26.1578 23.062 26.1578V26.7338L23.4531 26.3221C23.4607 26.3143 24.2597 25.4738 24.5717 25.1639C24.8563 24.8821 25.2536 24.8759 25.5169 25.1482C25.7756 25.4174 25.7741 25.8259 25.5123 26.0983L25.5138 26.0999Z" fill="#EAEAEA"/>
</svg>
