<svg width="44" height="44" viewBox="0 0 44 44" fill="none" xmlns="http://www.w3.org/2000/svg">
<rect width="44" height="44" fill="#0F141F"/>
<path d="M33.6661 12.2666C33.9722 11.9292 33.9871 11.5351 33.684 11.1992C33.3345 10.8125 32.9702 10.4378 32.5924 10.078C32.2892 9.78983 31.9174 9.78386 31.5963 10.0466C31.3932 10.2123 31.214 10.4079 31.002 10.6124C31.7158 11.3499 32.3997 12.0561 33.1195 12.7981C33.3241 12.601 33.5063 12.4443 33.6661 12.2681V12.2666Z" fill="#EAEAEA"/>
<path d="M21.694 18.7017C16.2284 24.1659 10.7613 29.6315 5.29719 35.0986C4.89698 35.4987 4.90295 35.9003 5.30316 36.3049C5.90946 36.9185 6.52322 37.5261 7.1325 38.1367C7.75074 38.7548 8.05836 38.7578 8.66914 38.1457C14.0272 32.789 19.3838 27.4324 24.7419 22.0743C24.8315 21.9847 24.9166 21.8891 24.9853 21.816C23.9176 20.7485 22.8663 19.6975 21.7896 18.6211C21.7657 18.642 21.7268 18.6689 21.694 18.7002V18.7017Z" fill="#EAEAEA"/>
<path d="M33.3146 15.388C33.3146 15.1327 33.11 14.9476 32.9622 14.7983C31.5839 13.4024 30.1966 12.0169 28.8063 10.6345C28.427 10.2568 27.9969 10.2583 27.622 10.633C25.8734 12.3752 24.1276 14.122 22.3849 15.8702C22.0056 16.2509 22.0071 16.6674 22.3894 17.0511C23.7722 18.441 25.1595 19.828 26.5498 21.2104C26.9306 21.5896 27.3532 21.5941 27.7326 21.2164C29.4827 19.4741 31.2299 17.7289 32.9667 15.9762C33.1145 15.8269 33.3161 15.6403 33.3161 15.3865L33.3146 15.388Z" fill="#EAEAEA"/>
<path d="M16.106 6.49093C18.2699 8.65419 20.4337 10.8175 22.5975 12.9807C22.6797 13.0628 22.7663 13.1405 22.8096 13.1808C23.8758 12.1178 24.9092 11.0862 25.9545 10.0441C23.9356 8.29439 21.7224 6.78056 19.1897 5.78626C18.3819 5.46976 17.5277 5.26224 16.6869 5.03531C16.2763 4.92334 15.9477 5.08607 15.779 5.40407C15.6087 5.72356 15.6759 6.04454 15.9821 6.36552C16.0224 6.40882 16.0657 6.44912 16.1075 6.49093H16.106Z" fill="#EAEAEA"/>
<path d="M38.5759 26.9467C38.452 26.3958 38.334 25.8389 38.1518 25.3044C37.1737 22.435 35.5415 19.9523 33.5763 17.6725C33.5568 17.6502 33.518 17.6427 33.5061 17.6367C32.4697 18.6728 31.4423 19.6985 30.3984 20.742C30.4089 20.7644 30.4149 20.7898 30.4298 20.8047C32.7161 23.0934 35.0024 25.3836 37.2932 27.6692C37.5664 27.9425 37.9024 27.9828 38.2026 27.82C38.5087 27.6543 38.664 27.3318 38.5774 26.9452L38.5759 26.9467Z" fill="#EAEAEA"/>
</svg>
