<svg width="44" height="44" viewBox="0 0 44 44" fill="none" xmlns="http://www.w3.org/2000/svg">
<rect width="44" height="44" fill="#080A0F"/>
<path d="M9.51765 24.2944C9.51765 23.9014 9.36271 23.7364 8.95768 23.7458C8.17344 23.7619 7.38921 23.7686 6.60634 23.7431C6.13471 23.727 5.99471 23.9188 6.00015 24.3628C6.01918 25.8328 6.00695 27.3028 6.00695 28.7728C6.00695 30.2817 6.01646 31.7906 6.00151 33.2994C5.99743 33.7246 6.1551 33.8896 6.58867 33.8775C7.37154 33.8561 8.15713 33.8587 8.94137 33.8762C9.33145 33.8842 9.52037 33.7581 9.51901 33.3477C9.51085 30.3299 9.51221 27.3122 9.51901 24.2944H9.51765Z" fill="#EAEAEA"/>
<path d="M37.9047 26.8285C37.7539 26.4329 37.4358 26.1941 37.0457 26.2719C36.6937 26.343 36.3471 26.3014 36.0005 26.3604C32.8337 26.8996 29.6628 27.4254 26.4946 27.9578C25.4779 28.1295 24.4627 28.3119 23.3672 28.5037C23.6608 28.8095 23.8932 29.0429 24.1161 29.2843C24.4939 29.6934 24.7576 30.1642 24.831 30.7195C24.9751 31.8045 24.43 32.8225 23.4202 33.3791C22.5517 33.8566 21.5609 33.748 20.6951 33.0197C19.5439 32.0513 18.534 30.9394 17.4915 29.8611C17.2292 29.5888 16.9927 29.3031 17.3298 28.9651C17.7009 28.5923 17.9958 28.8766 18.2717 29.1475C19.2326 30.0891 20.1908 31.032 21.1585 31.9655C21.8694 32.6508 22.7053 32.6803 23.3427 32.0607C23.9353 31.4853 23.8918 30.635 23.2041 29.9469C21.5228 28.2663 19.8279 26.5992 18.1412 24.9226C17.8354 24.6195 17.4847 24.4572 17.043 24.4586C15.0804 24.4653 13.1191 24.4693 11.1565 24.4532C10.7895 24.4505 10.6523 24.5283 10.6563 24.9253C10.6754 27.5193 10.674 30.1146 10.6563 32.7085C10.6536 33.0867 10.7556 33.2061 11.1416 33.1914C12.483 33.1404 13.7172 33.4663 14.9078 34.1114C16.71 35.0879 18.5694 35.9597 20.4029 36.8798C21.0362 37.1976 21.6465 37.2647 22.2948 36.8757C27.1851 33.9438 32.1433 31.1272 37.1055 28.3173C37.2917 28.2113 37.4956 28.1255 37.6574 27.99C38.0352 27.6735 38.0692 27.2698 37.902 26.8299L37.9047 26.8285Z" fill="#EAEAEA"/>
<path fill-rule="evenodd" clip-rule="evenodd" d="M35 16.0248C34.9926 21.5938 30.5081 26.0257 24.9107 25.9999V25.998C19.376 25.9722 14.9725 21.5016 15.0001 15.9345C15.0278 10.3841 19.4736 5.98346 25.0378 6.00005C30.5836 6.01663 35.0092 10.4707 35 16.0248ZM26.4052 14.1664C26.1352 14.6524 26.0002 15.2074 26.0002 15.8314C26.0002 16.4554 26.1352 17.0104 26.4052 17.4964C26.6752 17.9824 27.0502 18.3634 27.5302 18.6394C28.0162 18.9094 28.5652 19.0444 29.1772 19.0444C29.9272 19.0444 30.5692 18.8494 31.1032 18.4594C31.6372 18.0634 31.9942 17.5234 32.1742 16.8394H30.4822C30.3562 17.1034 30.1762 17.3044 29.9422 17.4424C29.7142 17.5804 29.4532 17.6494 29.1592 17.6494C28.6852 17.6494 28.3012 17.4844 28.0072 17.1544C27.7132 16.8244 27.5662 16.3834 27.5662 15.8314C27.5662 15.2794 27.7132 14.8384 28.0072 14.5084C28.3012 14.1784 28.6852 14.0134 29.1592 14.0134C29.4532 14.0134 29.7142 14.0824 29.9422 14.2204C30.1762 14.3584 30.3562 14.5594 30.4822 14.8234H32.1742C31.9942 14.1394 31.6372 13.5994 31.1032 13.2034C30.5692 12.8074 29.9272 12.6094 29.1772 12.6094C28.5652 12.6094 28.0162 12.7474 27.5302 13.0234C27.0502 13.2934 26.6752 13.6744 26.4052 14.1664ZM25.1545 18.9994V12.6814H23.3455L21.5905 17.0554L19.8175 12.6814H17.9995V18.9994H19.5385V15.2014L20.9605 18.9994H22.2025L23.6155 15.2104V18.9994H25.1545Z" fill="#EAEAEA"/>
</svg>
