<svg width="174" height="174" viewBox="0 0 174 174" fill="none" xmlns="http://www.w3.org/2000/svg">
<path d="M87 0C38.8962 0 0 38.9543 0 87.1088C0 96.7875 1.653 106.009 4.4805 114.731H30.4138V41.5353L87 98.2013L143.586 41.5425V114.731H169.519C172.34 106.009 174 96.7875 174 87.1088C174 38.9688 135.104 0 87 0ZM74.037 110.976L49.2638 86.1735V132.218H12.7455C28.0575 157.245 55.6655 174 87 174C118.335 174 146.175 157.245 161.276 132.211H124.736V86.1663L100.188 110.968L87.2248 123.946L74.0733 110.968H74.037V110.976Z" fill="#999999"/>
</svg>
