<svg width="200" height="127" fill="none" xmlns="http://www.w3.org/2000/svg">
<g clip-path="url(#a)">
<path d="M101.444 126.065H33.389c-8.103 0-16.203.025-24.306.014-1.535 0-3.089-.037-4.52-.722-3.22-1.537-4.456-4.237-4.456-7.649 0-12.106.016-24.212 0-36.319C.082 61.681.025 41.973 0 22.265c-.006-4.88.062-9.756.11-14.636C.15 3.417 3.24.46 7.45.357 20.28.046 33.111.382 45.938.205 59.603.016 73.267.15 86.933.1 111.505.011 136.08.007 160.655 0c10.675-.002 21.35.073 32.023.118 3.906.016 6.986 3.171 7.07 7.093.405 18.607.191 37.217.232 55.824.025 12.18.007 24.362-.007 36.545-.009 6.204-.052 12.409-.084 18.612-.023 4.591-3.105 7.643-7.734 7.65-7.686.011-15.373-.057-23.057.032-22.899.261-45.801.098-67.654.189v.002Zm26.311-77.313c-.134-5.958.071-11.064-.188-16.167-.453-8.91-5.316-15.29-13.812-17.956-8.494-2.666-16.986-2.411-25.316.523-8.252 2.905-13.493 8.676-15.297 17.358-.387 1.866.457 3.044 2.315 3.244 3.913.42 7.83.808 11.743 1.24 1.132.125 1.903-.337 2.424-1.285.18-.328.344-.685.414-1.047 1.15-5.857 6.383-8.241 11.381-7.823 4.499.378 6.915 2.65 7.713 7.089.357 1.98.112 4.003.273 5.996.096 1.198-.38 1.419-1.43 1.515-6.333.58-12.668 1.162-18.833 2.852-5.355 1.467-10.006 4.088-13.534 8.46-5.96 7.39-6.229 19.71-1.163 27.258a15.467 15.467 0 0 0 6.212 5.388c3.983 1.918 8.174 2.391 12.5 2.127 4.022-.243 7.891-1.062 11.39-3.207 2.536-1.556 4.747-3.5 6.824-5.605.559-.566.825-.525 1.235.141 1.669 2.723 3.639 5.2 6.114 7.259 1.613 1.342 2.732 1.396 4.313.036 3.098-2.663 6.181-5.345 9.258-8.034 1.254-1.094 1.422-2.193.53-3.621-.518-.833-1.126-1.613-1.719-2.396-2.35-3.1-3.426-6.583-3.362-10.48.075-4.574.018-9.148.018-12.867l-.003.002Zm-25.492 63.294c12.037-.266 24.093-4.338 34.562-12.841.76-.616 1.494-1.285 2.138-2.02.575-.655.626-1.467.07-2.193-.564-.737-1.294-.655-2.04-.277a52.15 52.15 0 0 0-.605.311c-6.23 3.274-12.773 5.73-19.667 7.141-12.25 2.504-24.36 1.863-36.31-1.843a79.733 79.733 0 0 1-16.96-7.538 82.085 82.085 0 0 1-6.446-4.231c-.466-.34-.996-.685-1.515-.128-.469.503-.262 1.058.054 1.565a3.5 3.5 0 0 0 .426.53c2.743 2.928 5.582 5.749 8.737 8.244 10.605 8.385 22.57 13.041 37.553 13.278l.003.002Zm34.116-20.939c1.435-.143 2.791-.086 4.149.06 1.974.21 2.573.907 2.391 2.904-.162 1.783-.683 3.483-1.281 5.16-.507 1.423-1.06 2.829-1.581 4.248-.141.387-.321.842.112 1.135.425.289.784-.034 1.112-.293a5.73 5.73 0 0 0 .594-.528c3.651-3.815 5.343-8.428 5.536-13.644.043-1.194-.552-1.874-1.708-2.19-2.832-.774-5.682-.75-8.551-.3-2.345.368-4.554 1.107-6.537 2.436-.401.268-.894.587-.669 1.171.221.576.767.348 1.194.296 1.765-.214 3.528-.439 5.237-.457l.002.002Z" fill="#131214"/>
<path d="M127.754 48.752c0 3.719.057 8.296-.018 12.868-.063 3.896 1.013 7.38 3.362 10.48.594.782 1.201 1.562 1.72 2.395.892 1.428.723 2.525-.53 3.621-3.075 2.689-6.16 5.37-9.258 8.034-1.581 1.36-2.7 1.306-4.313-.036-2.475-2.056-4.445-4.533-6.114-7.258-.41-.667-.678-.708-1.236-.142-2.076 2.105-4.287 4.05-6.824 5.605-3.498 2.145-7.365 2.962-11.39 3.208-4.326.261-8.516-.21-12.499-2.127a15.452 15.452 0 0 1-6.212-5.389c-5.066-7.547-4.797-19.87 1.162-27.258 3.528-4.374 8.18-6.992 13.535-8.46 6.164-1.69 12.502-2.272 18.832-2.852 1.051-.096 1.529-.319 1.431-1.515-.161-1.993.084-4.017-.273-5.996-.798-4.438-3.214-6.71-7.713-7.088-4.998-.419-10.232 1.965-11.38 7.822-.071.364-.235.722-.415 1.047-.523.948-1.292 1.41-2.425 1.285-3.912-.432-7.83-.819-11.742-1.24-1.86-.2-2.704-1.378-2.316-3.243 1.804-8.683 7.043-14.454 15.298-17.359 8.332-2.932 16.824-3.189 25.315-.523 8.494 2.668 13.36 9.047 13.812 17.957.26 5.104.057 10.209.189 16.166l.002-.002Zm-18.382 7.984c0-1.399-.02-2.798.012-4.197.013-.58-.157-.798-.769-.773-3.373.127-6.715.418-9.963 1.447-7.848 2.484-9.479 8.998-8.112 15.047.837 3.71 3.244 5.755 6.742 6.055 2.111.182 4.054-.387 5.794-1.592 2.734-1.893 4.342-4.58 5.33-7.682.86-2.704.978-5.496.966-8.305Z" fill="#F2F1F3"/>
<path d="M102.262 112.045c-14.986-.237-26.95-4.893-37.553-13.278-3.155-2.495-5.994-5.316-8.737-8.243a3.493 3.493 0 0 1-.426-.53c-.316-.507-.523-1.063-.054-1.565.518-.558 1.046-.212 1.515.127a82.745 82.745 0 0 0 6.446 4.231 79.763 79.763 0 0 0 16.96 7.539c11.95 3.705 24.062 4.349 36.31 1.842 6.894-1.41 13.436-3.867 19.667-7.14.2-.105.402-.21.605-.312.744-.375 1.476-.46 2.04.278.555.725.505 1.535-.07 2.192-.644.733-1.379 1.402-2.139 2.02-10.468 8.503-22.524 12.575-34.562 12.841l-.002-.002Z" fill="#F99A05"/>
<path d="M136.382 91.107c-1.709.018-3.472.24-5.237.457-.428.052-.973.277-1.194-.296-.225-.584.271-.905.669-1.171 1.983-1.329 4.192-2.07 6.537-2.436 2.869-.45 5.719-.474 8.551.3 1.155.316 1.751.996 1.708 2.19-.193 5.216-1.886 9.83-5.536 13.644a5.73 5.73 0 0 1-.594.528c-.328.259-.687.582-1.113.293-.432-.293-.252-.748-.111-1.135.521-1.419 1.074-2.825 1.581-4.249.598-1.677 1.119-3.376 1.281-5.16.182-1.996-.417-2.692-2.391-2.904-1.358-.146-2.716-.202-4.149-.06l-.002-.001Z" fill="#F99A05"/>
<path d="M109.374 56.734c.011 2.807-.107 5.6-.967 8.305-.987 3.102-2.595 5.789-5.329 7.681-1.741 1.206-3.683 1.775-5.794 1.593-3.5-.303-5.905-2.346-6.742-6.056-1.365-6.048.263-12.563 8.111-15.047 3.249-1.028 6.59-1.32 9.964-1.447.611-.022.782.194.768.774-.031 1.399-.011 2.798-.011 4.197Z" fill="#131214"/>
<path d="M160.411 7.946c.205-.535.578-.84 1.16-.846.592-.01.944.325 1.17.86.082-.153.145-.282.234-.396.562-.714 1.815-.576 2.156.243.13.314.116.649.114.978 0 .048-.009.096-.009.146v2.96c0 .168-.043.21-.216.21h-.769c-.164 0-.218-.051-.218-.213v-3.02a1.12 1.12 0 0 0-.039-.276.435.435 0 0 0-.325-.339.603.603 0 0 0-.63.178c-.157.168-.191.382-.191.595-.005.938-.003 1.877-.003 2.814 0 .216-.045.262-.261.262h-.733c-.175 0-.22-.043-.22-.22v-2.79c0-.157-.007-.313-.055-.466-.075-.246-.225-.384-.43-.398-.387-.027-.537.152-.619.357a1.648 1.648 0 0 0-.097.58c-.005.906 0 1.81 0 2.716 0 .173-.05.22-.223.223h-.781c-.147 0-.197-.05-.197-.19v-4.52c0-.14.056-.194.2-.194h.744c.141 0 .209.064.209.205.002.177 0 .354 0 .534.009.002.02.007.029.01v-.003ZM158.161 9.442c0 .373.007.664 0 .957-.009.294.084.544.262.771.177.23.173.255-.048.437a22.11 22.11 0 0 0-.505.44c-.13.113-.198.115-.325.008a1.836 1.836 0 0 1-.344-.391c-.104-.157-.102-.155-.245-.02-.207.195-.433.366-.712.443-.417.112-.835.134-1.24-.04-.419-.183-.626-.529-.701-.96a1.664 1.664 0 0 1 .13-1.015c.218-.464.61-.717 1.087-.851a5.677 5.677 0 0 1 1.069-.17c.089-.007.176-.032.267-.028.036 0 .07-.016.07-.066 0-.173.014-.35-.023-.52-.082-.39-.439-.488-.723-.444-.319.047-.539.213-.612.546-.02.09-.073.166-.187.152-.272-.032-.545-.064-.816-.098-.109-.014-.153-.089-.128-.2.153-.687.599-1.078 1.263-1.247.587-.147 1.165-.136 1.722.121.441.205.669.555.721 1.037.043.405.002.81.023 1.135l-.005.003Zm-1.24.564c0-.062-.004-.123 0-.182.01-.082-.013-.112-.104-.112-.134 0-.269.005-.398.03-.196.034-.385.086-.546.21-.296.222-.35.566-.278.902.048.214.166.362.387.414.275.064.546-.059.726-.32.195-.287.218-.61.213-.94v-.002ZM169.931 8.442v2.02c0 .284.111.523.282.74a.926.926 0 0 1 .079.12c.039.073.025.139-.041.193-.214.182-.425.364-.637.546-.109.094-.191.091-.298-.004a1.814 1.814 0 0 1-.377-.441c-.055-.096-.096-.105-.175-.021-.235.246-.505.441-.844.514-.414.089-.826.1-1.215-.098-.33-.168-.525-.446-.605-.803-.107-.486-.064-.955.236-1.371.255-.355.621-.542 1.035-.644.401-.098.81-.137 1.22-.17.047-.005.104.002.1-.071-.009-.162.004-.32-.016-.485-.052-.398-.441-.523-.733-.475-.327.052-.541.225-.614.56-.018.081-.075.147-.175.136-.277-.032-.553-.061-.83-.098-.107-.014-.15-.093-.121-.22a1.57 1.57 0 0 1 .391-.751c.285-.291.642-.441 1.031-.514.496-.094.989-.073 1.463.118.55.22.809.628.839 1.217l.005.002Zm-1.24 1.608c0-.084-.005-.17 0-.254.004-.066-.023-.08-.084-.082a2.432 2.432 0 0 0-.53.05c-.562.109-.847.534-.721 1.094.065.293.338.49.655.416.254-.059.414-.223.53-.436.132-.246.154-.512.148-.785l.002-.003ZM180.769 8.026l.157-.307c.242-.464.71-.671 1.263-.603.553.068.955.494 1.028 1.094.034.294.046.59.046.883v2.789c0 .17-.051.22-.226.22h-.769c-.175 0-.209-.036-.209-.216V9.123c0-.167-.016-.333-.059-.492-.075-.275-.227-.4-.48-.416-.243-.016-.466.136-.575.384-.121.273-.141.562-.144.851-.007.817 0 1.633-.002 2.448 0 .154-.048.204-.2.204h-.805c-.139 0-.198-.061-.198-.2V7.396c0-.139.061-.2.198-.2h.755c.136 0 .186.052.186.193v.628a.168.168 0 0 1 .034.01ZM178.896 9.442c.009.876-.132 1.47-.517 1.988-.423.57-1.008.83-1.708.762-.824-.08-1.329-.58-1.611-1.328a3.307 3.307 0 0 1-.2-1.122c-.009-.519.055-1.017.273-1.492.273-.598.717-1.006 1.376-1.12.883-.152 1.686.224 2.093 1.1.221.473.294.866.294 1.212Zm-2.732.123c0 .154-.007.31 0 .464.016.298.047.596.172.869.085.186.212.339.433.366.264.034.475-.06.614-.293.157-.264.193-.562.207-.858a8.668 8.668 0 0 0 0-.853 2.917 2.917 0 0 0-.143-.842c-.128-.361-.464-.464-.783-.364-.232.073-.334.266-.405.478-.111.334-.107.682-.1 1.03l.005.003Z" fill="#F2F1F3"/>
<path d="M166.655 15.785c-.178.009-.357 0-.535 0-1.728.004-3.382-.341-4.949-1.076a10.876 10.876 0 0 1-2.603-1.704c-.043-.039-.086-.073-.129-.112-.066-.056-.112-.13-.057-.211.061-.091.143-.046.214-.007.273.157.55.307.832.446 1.117.546 2.282.95 3.499 1.212.521.114 1.044.2 1.574.262.377.043.757.07 1.139.082.378.011.756.011 1.131 0 .45-.016.896-.061 1.342-.118a14.925 14.925 0 0 0 2.404-.517c.503-.15.997-.325 1.477-.534a.384.384 0 0 1 .213-.023.189.189 0 0 1 .16.161c.018.094-.03.166-.103.216-.184.13-.368.264-.562.38-1.021.617-2.124 1.02-3.289 1.272-.582.125-1.167.234-1.76.266l.002.005Z" fill="#F99A05"/>
<path d="M172.677 7.186h1.403c.187 0 .232.045.232.225 0 .113-.009.227 0 .341a.634.634 0 0 1-.136.439c-.51.723-1.017 1.449-1.524 2.175-.028.038-.084.082-.066.12.025.053.093.02.143.023.482.016.949.095 1.392.296.203.093.298.232.287.452-.009.17 0 .341 0 .512-.003.182-.105.243-.266.164a3.386 3.386 0 0 0-1.759-.341 3.12 3.12 0 0 0-1.264.352c-.126.066-.226.03-.233-.098a4.804 4.804 0 0 1 .014-.92c.016-.115.082-.208.148-.301.546-.783 1.092-1.565 1.636-2.348.022-.031.07-.063.052-.102-.023-.048-.08-.02-.121-.02h-1.342c-.182 0-.225-.044-.225-.228v-.523c0-.17.043-.216.216-.216h1.415l-.002-.002ZM191.832 11.336c-.064.022-.075.075-.098.113-.293.49-.732.717-1.296.73-.396.012-.762-.065-1.079-.313-.316-.25-.461-.59-.495-.983-.03-.32.02-.625.166-.912.239-.473.648-.708 1.146-.819.498-.111 1.006-.1 1.511-.096.106 0 .136-.025.134-.131-.005-.255 0-.508-.096-.751-.125-.325-.373-.473-.703-.526a1.572 1.572 0 0 0-.705.05.92.92 0 0 0-.625.592c-.071.193-.085.2-.292.166-.1-.018-.2-.027-.295-.052-.087-.023-.13-.078-.105-.182.127-.544.48-.872.994-1.038.482-.154.978-.17 1.472-.07.544.109.835.484.964.998.055.214.078.437.078.66v2.461c0 .235.02.469.054.699.016.104-.032.147-.116.152a3.79 3.79 0 0 1-.425 0c-.087-.002-.125-.06-.132-.143-.016-.198-.036-.394-.057-.6v-.005Zm-.016-1.42c0-.077-.004-.154 0-.232.005-.066-.013-.093-.086-.09-.38 0-.758.008-1.135.072-.571.098-.89.391-.981.95-.059.36.098.772.514.924.43.157.928.025 1.245-.348a1.85 1.85 0 0 0 .443-1.278v.002ZM188.015 8.887h-.011c-.194 0-.313-.094-.357-.284-.071-.303-.203-.573-.464-.753-.403-.277-.901-.18-1.206.234-.207.278-.293.603-.346.938a3.83 3.83 0 0 0-.025 1.014c.053.444.125.88.428 1.235.384.45 1.03.396 1.374-.109.132-.193.205-.41.257-.632.027-.116.095-.162.205-.164h.279c.16.002.216.07.185.225-.103.514-.305.976-.731 1.308-.348.273-.748.344-1.178.287-.728-.098-1.128-.58-1.365-1.222a3.782 3.782 0 0 1-.204-1.64c.041-.462.134-.903.348-1.315.236-.457.582-.798 1.103-.903.712-.14 1.383.084 1.779.815.132.24.216.5.248.773.016.134-.032.186-.164.189h-.159l.004.004Z" fill="#F2F1F3"/>
<path d="M172.21 12.908c-.38.014-.76.039-1.136.091-.07.01-.172.046-.202-.052-.025-.077.052-.127.114-.168.316-.214.671-.33 1.044-.394a3.724 3.724 0 0 1 1.101-.023 2 2 0 0 1 .398.091c.145.048.193.148.198.294.011.332-.053.65-.153.964-.161.507-.395.971-.798 1.335-.066.06-.141.15-.228.09-.086-.062-.004-.158.023-.23.164-.424.33-.847.423-1.295.014-.068.03-.134.034-.202.021-.353-.084-.417-.395-.474a1.403 1.403 0 0 0-.426-.027h.003Z" fill="#F99A05"/>
<path d="M184.276 12.152c-.236 0-.441-.177-.432-.398.009-.253.205-.41.437-.414a.412.412 0 0 1 .423.416c0 .228-.182.396-.425.396h-.003Z" fill="#F2F1F3"/>
</g>
<defs>
<clipPath id="a">
<rect width="200" height="126.083" rx="7" fill="#fff"/>
</clipPath>
</defs>
</svg>