<svg width="46" height="46" viewBox="0 0 46 46" fill="none" xmlns="http://www.w3.org/2000/svg">
<g clip-path="url(#clip0_3799_109885)">
<path d="M17.5274 0.00195312C14.9559 0.00195312 12.3865 0.00195312 9.81507 0.00195312C8.42165 0.00195312 7.94531 0.490657 7.94531 1.92086C7.94531 8.94623 7.94531 15.9736 7.94531 23.001C7.94531 30.0283 7.94531 37.0936 7.94531 44.1409C7.94531 45.4813 8.45129 46 9.75776 46.002C12.3489 46.002 14.9381 46.002 17.5293 46.002C18.822 46.002 19.3378 45.4893 19.3378 44.2007C19.3378 30.0682 19.3378 15.9357 19.3378 1.80118C19.3378 0.510604 18.8259 0.00394783 17.5274 0.00195312Z" fill="#FF8B40"/>
<path d="M36.5769 0.00199471C33.966 0 31.357 0.00199471 28.746 0.00199471C27.4336 0.00199471 26.9336 0.514635 26.9336 1.85707C26.9336 8.90239 26.9336 15.9497 26.9336 22.995C26.9336 30.0403 26.9336 37.0876 26.9336 44.1329C26.9336 45.4953 27.4376 45.996 28.8014 45.996C31.3926 45.996 33.9818 45.998 36.5729 45.996C37.7786 45.996 38.3241 45.4554 38.3241 44.2566C38.3241 30.0842 38.3241 15.9118 38.3241 1.73939C38.3241 0.528598 37.7924 0 36.5769 0V0.00199471Z" fill="#FF8B40"/>
</g>
<defs>
<clipPath id="clip0_3799_109885">
<rect width="46" height="46" fill="white"/>
</clipPath>
</defs>
</svg>
