<svg width="144" height="144" viewBox="0 0 144 144" fill="none" xmlns="http://www.w3.org/2000/svg">
<g clip-path="url(#clip0_2714_92744)">
<path d="M72.0006 0C111.764 0 143.999 32.2367 143.999 72.0013C143.999 111.766 111.764 144.003 72.0006 144.003C32.2375 144.003 0.00195312 111.766 0.00195312 72.0013C0.00195312 32.2367 32.2375 0 72.0006 0Z" fill="url(#paint0_linear_2714_92744)"/>
<path fill-rule="evenodd" clip-rule="evenodd" d="M50.0343 78.6287C50.5056 78.6287 50.969 78.6445 51.4324 78.6761L68.4914 53.6777C68.4914 38.5138 80.7821 26.2227 95.9454 26.2227C111.109 26.2227 123.399 38.5138 123.399 53.6777C123.399 68.8415 111.109 81.1327 95.9454 81.1327C95.7348 81.1327 95.5242 81.1301 95.3135 81.1248L70.9638 98.4399C70.9848 98.819 70.9954 99.2035 70.9954 99.5905C70.9954 111.168 61.6115 120.552 50.0343 120.552C39.7393 120.552 31.1769 113.13 29.4075 103.343L2.93825 92.4286C0.510648 84.1581 -0.468818 75.5427 0.210489 66.4612L38.0042 82.4282C41.4086 80.0374 45.5582 78.6313 50.0369 78.6313L50.0343 78.6287ZM96.0271 39.7198C103.689 39.7198 109.9 45.9312 109.9 53.5934C109.9 61.2557 103.689 67.4671 96.0271 67.4671C88.3651 67.4671 82.1539 61.2557 82.1539 53.5934C82.1539 45.9312 88.3651 39.7198 96.0271 39.7198ZM96.0271 35.4305C106.059 35.4305 114.192 43.5641 114.192 53.5961C114.192 63.6281 106.059 71.7616 96.0271 71.7616C85.9954 71.7616 77.8622 63.6281 77.8622 53.5961C77.8622 43.5641 85.9954 35.4305 96.0271 35.4305ZM50.0343 84.1555C58.5598 84.1555 65.4688 91.0673 65.4688 99.5905C65.4688 108.114 58.5572 115.026 50.0343 115.026C43.8204 115.026 38.465 111.352 36.0189 106.063C39.5893 107.532 45.9084 110.784 49.5551 110.784C55.8663 110.784 60.9848 105.668 60.9848 99.3536C60.9848 89.7165 51.5693 88.1577 44.5103 85.1745C46.227 84.5162 48.0885 84.1555 50.0369 84.1555H50.0343Z" fill="#FDFDFD"/>
</g>
<defs>
<linearGradient id="paint0_linear_2714_92744" x1="72.0006" y1="144" x2="72.0006" y2="0" gradientUnits="userSpaceOnUse">
<stop stop-color="#4085B5"/>
<stop offset="0.25" stop-color="#25497A"/>
<stop offset="0.5" stop-color="#12214D"/>
<stop offset="0.75" stop-color="#07173B"/>
<stop offset="1" stop-color="#131B2D"/>
</linearGradient>
<clipPath id="clip0_2714_92744">
<rect width="144" height="144" fill="white"/>
</clipPath>
</defs>
</svg>
