<svg width="88" height="88" viewBox="0 0 88 88" fill="none" xmlns="http://www.w3.org/2000/svg">
<g clip-path="url(#clip0_2697_131044)">
<path d="M33.493 0.00390625C28.5737 0.00390625 23.6583 0.00390625 18.739 0.00390625C16.0734 0.00390625 15.1621 0.938818 15.1621 3.67487C15.1621 17.1147 15.1621 30.5583 15.1621 44.002C15.1621 57.4456 15.1621 70.9618 15.1621 84.4436C15.1621 87.0079 16.1301 88.0001 18.6294 88.0039C23.5864 88.0039 28.5397 88.0039 33.4967 88.0039C35.9696 88.0039 36.9565 87.0232 36.9565 84.5581C36.9565 57.522 36.9565 30.4858 36.9565 3.44591C36.9565 0.976978 35.9772 0.00772222 33.493 0.00390625Z" fill="#FF8B40"/>
<path d="M69.9363 0.00381597C64.9415 0 59.9504 0.00381597 54.9556 0.00381597C52.4449 0.00381597 51.4883 0.984519 51.4883 3.55266C51.4883 17.0307 51.4883 30.5125 51.4883 43.9905C51.4883 57.4685 51.4883 70.9503 51.4883 84.4283C51.4883 87.0346 52.4525 87.9924 55.0614 87.9924C60.0185 87.9924 64.9717 87.9962 69.9288 87.9924C72.2353 87.9924 73.2789 86.9582 73.2789 84.6648C73.2789 57.5524 73.2789 30.44 73.2789 3.32752C73.2789 1.01123 72.2617 0 69.9363 0V0.00381597Z" fill="#FF8B40"/>
</g>
<defs>
<clipPath id="clip0_2697_131044">
<rect width="88" height="88" fill="white"/>
</clipPath>
</defs>
</svg>
