<svg width="72" height="72" viewBox="0 0 72 72" fill="none" xmlns="http://www.w3.org/2000/svg">
<path d="M69 17.5352L14.5333 24.1387L3 55.3224L57.4701 48.7189L69 17.5352Z" fill="#E13122"/>
<path d="M59.7921 14L20.5242 18.7594L12.2109 41.241L51.4754 36.4782L59.7921 14Z" fill="#1DC47A"/>
<path d="M59.7932 14L69.001 17.5344L57.471 48.7181L51.4766 36.4782L59.7932 14Z" fill="#0DAB65"/>
<path d="M51.4756 36.4785L12.2111 41.2413L3 55.322L57.4701 48.7184L51.4756 36.4785Z" fill="#11DE83"/>
<path d="M20.5244 18.7598L14.5333 24.1383L3 55.3221L12.2111 41.2414L20.5244 18.7598Z" fill="#0DAB65"/>
<path d="M51.4756 54.2412L57.4701 48.7188L3 55.3223L12.2111 59.0006L51.4756 54.2412Z" fill="#0DAB65"/>
</svg>
