<svg width="512" height="512" viewBox="0 0 512 512" fill="none" xmlns="http://www.w3.org/2000/svg">
<path d="M256 512C397.385 512 512 397.385 512 256C512 114.615 397.385 0 256 0C114.615 0 0 114.615 0 256C0 397.385 114.615 512 256 512Z" fill="#22BCE0"/>
<path d="M413.748 236.735V343.092C413.748 400.851 366.93 447.658 309.181 447.658H202.814C145.065 447.658 98.247 400.851 98.247 343.092V236.735C98.247 178.986 145.065 132.168 202.814 132.168H309.181C366.931 132.168 413.748 178.986 413.748 236.735Z" fill="#C17E62"/>
<path d="M413.748 236.735V343.092C413.748 400.851 366.93 447.658 309.181 447.658H255.997V132.168H309.181C366.931 132.168 413.748 178.986 413.748 236.735Z" fill="#D48D77"/>
<path d="M410.599 210.886L335.42 135.707L371.223 99.904C386.58 84.547 411.478 84.547 426.835 99.904L446.402 119.471C461.759 134.828 461.759 159.726 446.402 175.083L410.599 210.886Z" fill="#D48D77"/>
<path d="M385.195 185.481L360.824 161.11C354.238 154.524 354.238 143.846 360.824 137.259L373.738 124.345C382.998 115.085 398.01 115.085 407.27 124.345L421.959 139.034C431.219 148.294 431.219 163.306 421.959 172.566L409.045 185.48C402.46 192.068 391.781 192.068 385.195 185.481Z" fill="#C17E62"/>
<path d="M445.67 133.385L412.921 100.636C408.867 96.582 402.295 96.582 398.241 100.636C394.187 104.69 394.187 111.262 398.241 115.316L430.99 148.065C435.044 152.119 441.616 152.119 445.67 148.065C449.724 144.011 449.724 137.439 445.67 133.385Z" fill="#EEA47D"/>
<path d="M176.647 135.707L101.468 210.886L65.665 175.083C50.308 159.726 50.308 134.828 65.665 119.471L85.232 99.904C100.589 84.547 125.487 84.547 140.844 99.904L176.647 135.707Z" fill="#C17E62"/>
<path d="M151.243 161.111L126.872 185.482C120.286 192.068 109.608 192.068 103.021 185.482L90.107 172.568C80.847 163.308 80.847 148.296 90.107 139.036L104.796 124.347C114.056 115.087 129.068 115.087 138.328 124.347L151.242 137.261C157.829 143.846 157.829 154.525 151.243 161.111Z" fill="#A26D5A"/>
<path d="M99.147 100.636L66.398 133.385C62.344 137.439 62.344 144.011 66.398 148.065C70.452 152.119 77.024 152.119 81.078 148.065L113.827 115.316C117.881 111.262 117.881 104.69 113.827 100.636C109.773 96.582 103.2 96.582 99.147 100.636Z" fill="#D48D77"/>
<path d="M355.539 289.396C345.658 299.277 329.608 299.277 319.727 289.396C309.833 279.502 309.846 263.465 319.727 253.584C322.406 250.905 325.534 248.949 328.873 247.728C337.857 244.426 348.324 246.37 355.539 253.584C362.741 260.786 364.698 271.266 361.395 280.25C360.175 283.589 358.218 286.717 355.539 289.396Z" fill="#C17E62"/>
<path d="M355.311 271.49C355.311 279.103 350.483 285.605 343.727 288.097C341.819 288.778 339.775 289.168 337.633 289.168C327.86 289.168 319.955 281.244 319.955 271.49C319.955 261.716 327.86 253.812 337.633 253.812C339.775 253.812 341.819 254.201 343.727 254.883C350.483 257.374 355.311 263.858 355.311 271.49Z" fill="#DD5E26"/>
<path d="M349.248 271.49C349.248 276.492 346.076 280.764 341.637 282.402C340.383 282.85 339.04 283.106 337.633 283.106C331.211 283.106 326.018 277.9 326.018 271.491C326.018 265.069 331.212 259.876 337.633 259.876C339.04 259.876 340.383 260.132 341.637 260.58C346.076 262.215 349.248 266.475 349.248 271.49Z" fill="#2E3140"/>
<path d="M349.248 265.917C349.248 268.519 347.598 270.742 345.288 271.594C344.636 271.827 343.937 271.96 343.205 271.96C339.864 271.96 337.162 269.251 337.162 265.917C337.162 262.576 339.864 259.874 343.205 259.874C343.937 259.874 344.636 260.007 345.288 260.24C347.598 261.092 349.248 263.309 349.248 265.917Z" fill="white"/>
<path d="M156.457 289.396C166.338 299.277 182.388 299.277 192.269 289.396C202.163 279.502 202.15 263.465 192.269 253.584C189.59 250.905 186.462 248.949 183.123 247.728C174.139 244.426 163.672 246.37 156.457 253.584C149.255 260.786 147.298 271.266 150.601 280.25C151.821 283.589 153.778 286.717 156.457 289.396Z" fill="#A26D5A"/>
<path d="M192.044 271.49C192.044 279.103 187.216 285.605 180.46 288.097C178.552 288.778 176.508 289.168 174.366 289.168C164.593 289.168 156.688 281.244 156.688 271.49C156.688 261.716 164.593 253.812 174.366 253.812C176.508 253.812 178.552 254.201 180.46 254.883C187.216 257.374 192.044 263.858 192.044 271.49Z" fill="#DD5E26"/>
<path d="M185.982 271.49C185.982 276.492 182.81 280.764 178.371 282.402C177.117 282.85 175.774 283.106 174.367 283.106C167.946 283.106 162.752 277.9 162.752 271.491C162.752 265.069 167.946 259.876 174.367 259.876C175.774 259.876 177.117 260.132 178.371 260.58C182.809 262.215 185.982 266.475 185.982 271.49Z" fill="#2E3140"/>
<path d="M185.982 265.917C185.982 268.519 184.332 270.742 182.022 271.594C181.37 271.827 180.671 271.96 179.939 271.96C176.598 271.96 173.896 269.251 173.896 265.917C173.896 262.576 176.598 259.874 179.939 259.874C180.671 259.874 181.37 260.007 182.022 260.24C184.331 261.092 185.982 263.309 185.982 265.917Z" fill="white"/>
<path d="M320.547 386.445C320.547 403.626 309.425 419.207 292.605 424.503C280.699 428.263 268.349 430.138 255.998 430.138C243.647 430.138 231.297 428.263 219.391 424.503C200.664 418.603 189.002 399.971 191.883 380.556L203.492 302.343C206.119 284.612 221.34 271.488 239.262 271.488H272.733C290.655 271.488 305.876 284.612 308.503 302.343L320.112 380.556C320.409 382.526 320.547 384.496 320.547 386.445Z" fill="#D48D77"/>
<path d="M320.547 386.445C320.547 403.626 309.425 419.207 292.605 424.503C280.699 428.263 268.349 430.138 255.998 430.138V271.488H272.734C290.656 271.488 305.877 284.612 308.504 302.343L320.113 380.556C320.409 382.526 320.547 384.496 320.547 386.445Z" fill="#EEA47D"/>
<path d="M271.242 283.105H255.998V341.979H271.242C282.149 341.979 290.991 333.137 290.991 322.23V302.853C290.991 291.947 282.149 283.105 271.242 283.105Z" fill="#F5B890"/>
<path d="M240.753 341.979H255.997V283.105H240.753C229.846 283.105 221.004 291.947 221.004 302.854V322.231C221.004 333.137 229.846 341.979 240.753 341.979Z" fill="#EEA47D"/>
<path d="M288.273 366.104V373.951C288.273 387.274 279.248 398.089 268.116 398.089H243.88C232.748 398.089 223.723 387.275 223.723 373.951V366.104C223.723 352.78 232.748 341.979 243.88 341.979H268.115C279.248 341.979 288.273 352.78 288.273 366.104Z" fill="#2E3140"/>
<path d="M288.273 366.104V373.951C288.273 387.274 279.248 398.089 268.116 398.089H255.998V341.979H268.116C279.248 341.979 288.273 352.78 288.273 366.104Z" fill="#334353"/>
<path d="M264.724 373.351L262.039 376.036C259.53 378.545 259.53 382.614 262.039 385.123L267.778 390.862C270.287 393.371 274.356 393.371 276.865 390.862L279.55 388.177C282.059 385.668 282.059 381.599 279.55 379.09L273.811 373.351C271.302 370.841 267.234 370.841 264.724 373.351Z" fill="#2E3140"/>
<path d="M249.957 376.036L247.272 373.351C244.763 370.842 240.694 370.842 238.185 373.351L232.446 379.09C229.937 381.599 229.937 385.668 232.446 388.177L235.131 390.862C237.64 393.371 241.709 393.371 244.218 390.862L249.957 385.123C252.466 382.614 252.466 378.545 249.957 376.036Z" fill="#151516"/>
<path d="M255.998 350.813H269.792C274.205 350.813 277.783 354.391 277.783 358.804C277.783 363.217 274.205 366.795 269.792 366.795H255.998V350.813V350.813Z" fill="#3F5D77"/>
<path d="M255.998 366.795H242.204C237.791 366.795 234.213 363.217 234.213 358.804C234.213 354.391 237.791 350.813 242.204 350.813H255.998V366.795V366.795Z" fill="#334353"/>
<path d="M307.436 412.774C306.328 410.067 303.236 408.77 300.528 409.879C296.75 411.425 291.593 413.239 290.236 413.369C286.079 413.731 278.682 412.511 272.156 411.435C268.309 410.8 264.6 410.19 261.294 409.825V395.261C261.294 392.336 258.923 389.965 255.998 389.965C253.073 389.965 250.702 392.336 250.702 395.261V409.825C247.396 410.189 243.687 410.8 239.84 411.435C233.315 412.511 225.919 413.733 221.761 413.369C220.536 413.252 215.726 411.621 211.468 409.879C208.765 408.773 205.67 410.068 204.561 412.775C203.454 415.482 204.749 418.574 207.456 419.682C209.693 420.598 217.271 423.61 220.84 423.921C226.33 424.398 234.073 423.121 241.564 421.885C246.955 420.996 252.53 420.076 255.999 420.076C259.467 420.076 265.042 420.996 270.434 421.885C276.823 422.939 283.397 424.024 288.597 424.024C289.494 424.024 290.351 423.991 291.158 423.921C294.727 423.61 302.305 420.598 304.543 419.682C307.248 418.574 308.544 415.481 307.436 412.774Z" fill="#151516"/>
<path d="M337.139 325.466V384.363C337.139 394.743 349.689 399.942 357.029 392.602L374.142 375.489C385.494 364.137 391.871 348.741 391.871 332.688V313.64C391.871 305.499 383.736 299.868 376.116 302.735L344.687 314.561C340.146 316.269 337.139 320.614 337.139 325.466Z" fill="#EEA47D"/>
<path d="M174.857 325.466V384.363C174.857 394.743 162.307 399.942 154.967 392.602L137.854 375.489C126.502 364.137 120.125 348.741 120.125 332.688V313.64C120.125 305.499 128.261 299.868 135.88 302.735L167.309 314.561C171.85 316.269 174.857 320.614 174.857 325.466Z" fill="#D48D77"/>
<path d="M308.181 229.871H255.998V145.884H299.162C311.701 145.884 322.955 153.576 327.51 165.258L336.53 188.39C344.308 208.34 329.594 229.871 308.181 229.871Z" fill="#EEA47D"/>
<path d="M203.814 229.871H255.997V145.884H212.833C200.294 145.884 189.04 153.576 184.485 165.258L175.465 188.39C167.687 208.34 182.401 229.871 203.814 229.871Z" fill="#D48D77"/>
<path d="M74.3022 213.119H133.719C139.961 213.119 145.021 218.241 145.021 224.56C145.021 230.878 139.961 236 133.719 236H74.3022C68.0602 236 63.0001 230.878 63.0001 224.56C63.0001 218.241 68.0602 213.119 74.3022 213.119Z" fill="#F9A824"/>
<path d="M68.1569 215.941L87.8201 201.076L92.8439 207.886L73.1807 222.75L68.1569 215.941Z" fill="#F9A824"/>
<path d="M135.01 219.003H177.635C180.667 219.003 183.125 221.49 183.125 224.559C183.125 227.628 180.667 230.116 177.635 230.116H135.01C131.979 230.116 129.521 227.628 129.521 224.559C129.521 221.49 131.979 219.003 135.01 219.003Z" fill="#FDD835"/>
<path d="M298.083 208.543H139.854C138.071 208.543 136.625 210.007 136.625 211.811V236H298.083V208.543Z" fill="#FDD835"/>
<path d="M346.521 203.313H413.688V236H346.521V203.313Z" fill="#FDEF59"/>
<path d="M132.427 230.116H206.052C207.657 230.116 208.958 231.433 208.958 233.058C208.958 234.683 207.657 236 206.052 236H132.427C130.822 236 129.521 234.683 129.521 233.058C129.521 231.433 130.822 230.116 132.427 230.116Z" fill="#F9A824"/>
<path d="M83.0209 208.543H139.208V215.734H83.0209V208.543Z" fill="#F9A824"/>
<path d="M131.085 219.896L136.945 210.226C137.749 208.9 139.463 208.484 140.773 209.298C142.084 210.111 142.494 211.846 141.69 213.172L135.831 222.842C135.027 224.168 133.313 224.584 132.003 223.77C130.692 222.957 130.282 221.222 131.085 219.896Z" fill="#FDD835"/>
<path d="M291.948 208.543H410.781C412.386 208.543 413.688 209.86 413.688 211.485C413.688 213.109 412.386 214.426 410.781 214.426H291.948C290.343 214.426 289.042 213.109 289.042 211.485C289.042 209.86 290.343 208.543 291.948 208.543Z" fill="#FDEF59"/>
<path d="M370.417 224.233C370.417 218.817 366.079 214.426 360.729 214.426H270.958V236H370.417V224.233Z" fill="#FDD835"/>
<path d="M396.056 180.114C396.511 174.513 401.365 170.346 406.898 170.806C412.431 171.267 416.548 176.181 416.093 181.781L413.606 212.401C413.151 218.002 408.297 222.169 402.764 221.709C397.231 221.248 393.114 216.334 393.569 210.734L396.056 180.114Z" fill="#FDEF59"/>
<path d="M395.927 214.426H424.344C430.229 214.426 435 219.256 435 225.213C435 231.17 430.229 236 424.344 236H395.927C390.042 236 385.271 231.17 385.271 225.213C385.271 219.256 390.042 214.426 395.927 214.426Z" fill="#FDEF59"/>
<path d="M404.656 214.175L413.623 203.019L430.875 217.228L421.908 228.384L404.656 214.175Z" fill="#FDEF59"/>
<path d="M112.083 203.313H411.104C412.531 203.313 413.688 204.484 413.688 205.928C413.688 207.372 412.531 208.543 411.104 208.543H112.083C110.657 208.543 109.5 207.372 109.5 205.928C109.5 204.484 110.657 203.313 112.083 203.313Z" fill="#F9A824"/>
<path d="M82.9406 182.164C82.4859 176.563 86.6027 171.65 92.1359 171.189C97.669 170.729 102.523 174.896 102.978 180.497L105.464 211.117C105.919 216.718 101.802 221.631 96.2685 222.092C90.7354 222.552 85.8813 218.385 85.4266 212.784L82.9406 182.164Z" fill="#F9A824"/>
<path d="M95.2917 171.607C95.2917 151.217 99.2676 131.028 106.992 112.19C114.717 93.3527 126.039 76.2365 140.312 61.819L249 171.607H95.2917Z" fill="#F9A824"/>
<path d="M140.312 61.8187C153.3 48.6995 168.51 38.0378 185.223 30.3395L249 171.606L140.312 61.8187Z" fill="#FDD835"/>
<path d="M185.062 40.532C152.248 40.532 125.646 67.4595 125.646 100.676L125.646 170.626H185.062V40.532Z" fill="#FDD835"/>
<path d="M95.2917 170.626H193.458V208.543H95.2917V170.626Z" fill="#F9A824"/>
<path d="M185.062 176.51H125.646V186.97C125.646 195.996 132.875 203.313 141.792 203.313H185.062V176.51Z" fill="#FDD835"/>
<path d="M357.688 61.8188C371.961 76.2363 383.284 93.3525 391.008 112.19C398.733 131.028 402.708 151.217 402.708 171.606H249L357.688 61.8188Z" fill="#FDEF59"/>
<path d="M311.862 29.9212C327.908 37.1855 342.602 47.1773 355.304 59.4618L249 171.607L311.862 29.9212Z" fill="#FDD835"/>
<path d="M227.687 0C204.146 0 185.062 19.3175 185.062 43.1468L185.062 203.313H227.687L227.687 0Z" fill="#F9A824"/>
<path d="M313.583 43.1468C313.583 19.3175 294.5 0 270.958 0L270.958 203.313H313.583L313.583 43.1468Z" fill="#F9A824"/>
<path d="M227.687 16.3435H270.958V203.313H227.687V16.3435Z" fill="#FDD835"/>
<path d="M370.417 89.5623C370.417 68.6211 353.646 51.6454 332.958 51.6454H313.583V170.626H370.417V89.5623Z" fill="#FDD835"/>
<path d="M332.958 171.934H404.646V203.313H332.958V171.934Z" fill="#FDEF59"/>
<path d="M370.417 187.623C370.417 184.373 367.815 181.739 364.604 181.739H313.583V203.313H370.417V187.623Z" fill="#FDD835"/>
<path d="M313.583 171.934H332.958V201.352H313.583V171.934Z" fill="#FDD835"/>
<path d="M404.646 172.559C404.646 171.13 403.502 169.972 402.091 169.972H313.583V176.51H400.742C402.898 176.51 404.646 174.741 404.646 172.559Z" fill="#F9A824"/>
<path d="M249 192.853C204.771 192.853 168.917 156.56 168.917 111.79C168.917 67.0193 204.771 30.7259 249 30.7259C293.229 30.7259 329.083 67.0193 329.083 111.79C329.083 156.56 293.229 192.853 249 192.853Z" fill="#FDEF59"/>
<path d="M249 155.59C225.459 155.59 206.375 136.272 206.375 112.443C206.375 88.6137 225.459 69.2963 249 69.2963C272.541 69.2963 291.625 88.6137 291.625 112.443C291.625 136.272 272.541 155.59 249 155.59Z" fill="#E2F4FF"/>
<path d="M258.365 146.438C232.862 146.438 212.188 125.51 212.188 99.6954C212.188 73.8803 232.862 52.953 258.365 52.953C283.868 52.953 304.542 73.8803 304.542 99.6954C304.542 125.51 283.868 146.438 258.365 146.438Z" fill="white"/>
<path d="M179.896 113.424C179.896 152.598 211.269 184.354 249.969 184.354C288.669 184.354 320.042 152.598 320.042 113.424C320.042 74.2496 288.669 42.4929 249.969 42.4929C211.269 42.4929 179.896 74.2496 179.896 113.424ZM300.99 113.424C300.99 141.946 278.147 165.069 249.969 165.069C221.791 165.069 198.948 141.946 198.948 113.424C198.948 84.901 221.791 61.7782 249.969 61.7782C278.147 61.7782 300.99 84.901 300.99 113.424Z" fill="#F9A824"/>
<path d="M195.396 112.443C195.396 142.049 219.106 166.05 248.354 166.05C277.602 166.05 301.312 142.049 301.312 112.443C301.312 82.8373 277.602 58.8366 248.354 58.8366C219.106 58.8366 195.396 82.8373 195.396 112.443ZM290.333 112.443C290.333 135.912 271.539 154.936 248.354 154.936C225.169 154.936 206.375 135.912 206.375 112.443C206.375 88.9746 225.169 69.9502 248.354 69.9502C271.539 69.9502 290.333 88.9746 290.333 112.443Z" fill="#F17F16"/>
<path d="M218.965 0.957581C207.244 4.03536 195.933 8.53394 185.277 14.3558L186.685 16.9979C197.132 11.2908 208.22 6.88089 219.71 3.86375L218.965 0.957581Z" fill="#F9A824"/>
<path d="M185.062 14.3824H199.271V40.532H185.062V14.3824Z" fill="#F9A824"/>
<path d="M299.375 14.3824H313.583V40.532H299.375V14.3824Z" fill="#F9A824"/>
<path d="M204.437 8.49875H199.271C194.277 8.49875 190.229 12.5964 190.229 17.6511V34.6483H204.437V8.49875Z" fill="#F9A824"/>
<path d="M308.417 16.9972C308.417 13.0257 305.236 9.80609 301.312 9.80609C297.389 9.80609 294.208 13.0257 294.208 16.9972V35.9557H308.417V16.9972Z" fill="#F9A824"/>
<path d="M313.744 13.2639C304.315 8.73859 294.521 5.03895 284.469 2.20538L283.568 5.47938C293.436 8.26084 303.05 11.8926 312.305 16.3348L313.744 13.2639Z" fill="#F9A824"/>
<path d="M333.604 176.51H376.229C377.656 176.51 378.812 177.681 378.812 179.125C378.812 180.569 377.656 181.74 376.229 181.74H333.604C332.177 181.74 331.021 180.569 331.021 179.125C331.021 177.681 332.177 176.51 333.604 176.51Z" fill="#FDEF59"/>
</svg>
