<svg width="512" height="512" viewBox="0 0 512 512" fill="none" xmlns="http://www.w3.org/2000/svg">
<path d="M256 510.17C396.374 510.17 510.17 396.374 510.17 256C510.17 115.626 396.374 1.83 256 1.83C115.626 1.83 1.82999 115.626 1.82999 256C1.82999 396.374 115.626 510.17 256 510.17Z" fill="#EE6781"/>
<path d="M287.626 352.17H224.375L205.347 425.436C199.88 443.614 213.49 461.919 232.472 461.919H279.529C298.511 461.919 312.121 443.614 306.654 425.436L287.626 352.17Z" fill="#F9C744"/>
<path d="M250.212 419.627V437.36C250.212 443.573 243.704 447.639 238.12 444.916L223.214 437.646C219.661 435.913 217.796 431.939 218.732 428.098L222.665 411.973C223.955 406.686 229.851 403.999 234.687 406.495L245.66 412.158C248.456 413.599 250.212 416.482 250.212 419.627Z" fill="#FAD98F"/>
<path d="M261.788 419.627V437.36C261.788 443.573 268.296 447.639 273.88 444.916L288.786 437.646C292.339 435.913 294.204 431.939 293.268 428.098L289.335 411.973C288.045 406.686 282.149 403.999 277.313 406.495L266.34 412.158C263.544 413.599 261.788 416.482 261.788 419.627Z" fill="#FAD98F"/>
<path d="M256 404.508C272.471 404.508 286.861 396.272 291.001 384.476L300.799 356.561C305.634 344.665 293.597 332.685 276.809 332.685H235.19C218.402 332.685 206.365 344.664 211.2 356.561L220.998 384.476C225.139 396.273 239.529 404.508 256 404.508Z" fill="#528F66"/>
<path d="M392.667 209.337C387.939 230.16 366.276 305.571 365.583 307.936C362.781 322.309 350.197 332.685 335.547 332.685C318.76 332.704 304.955 319.068 304.957 302.095C306.14 291.92 312.472 217.564 312.872 203.496C313.545 186.614 326.564 172.906 343.462 172.906H362.639C381.88 172.906 397.06 190.611 392.667 209.337Z" fill="#F9C744"/>
<path d="M383.542 244.184C375.422 273.832 365.584 307.936 365.584 307.936C362.782 322.309 350.198 332.685 335.548 332.685C328.33 332.685 321.69 330.184 316.458 325.997L338.642 272.495L383.542 244.184Z" fill="#3F5D77"/>
<path d="M323.223 208.408C319.421 208.464 317.767 203.326 320.993 201.178L353.741 178.902C358.119 176.08 362.441 182.395 358.193 185.446L325.445 207.722C324.764 208.186 323.989 208.408 323.223 208.408Z" fill="#3F5D77"/>
<path d="M325.962 227.12C322.163 227.175 320.504 222.04 323.732 219.89L374.591 185.294C378.959 182.473 383.296 188.782 379.043 191.838L328.184 226.434C327.503 226.898 326.728 227.12 325.962 227.12Z" fill="#3F5D77"/>
<path d="M327.286 247.243C323.488 247.297 321.827 242.163 325.056 240.013L380.145 202.539C384.512 199.72 388.851 206.025 384.597 209.083L329.508 246.557C328.826 247.021 328.052 247.243 327.286 247.243Z" fill="#3F5D77"/>
<path d="M320.271 272.991C316.473 273.045 314.812 267.911 318.041 265.761L373.13 228.287C377.497 225.468 381.836 231.773 377.582 234.831L322.493 272.305C321.811 272.769 321.037 272.991 320.271 272.991Z" fill="#3F5D77"/>
<path d="M119.333 209.337C124.061 230.16 145.724 305.571 146.417 307.936C149.219 322.309 161.803 332.685 176.453 332.685C193.24 332.704 207.045 319.068 207.043 302.095C205.86 291.92 199.528 217.564 199.128 203.496C198.455 186.614 185.436 172.906 168.538 172.906H149.36C130.12 172.906 114.94 190.611 119.333 209.337Z" fill="#F9C744"/>
<path d="M128.458 244.184C136.578 273.832 146.416 307.936 146.416 307.936C149.218 322.309 161.802 332.685 176.452 332.685C183.67 332.685 190.31 330.184 195.542 325.997L173.358 272.495L128.458 244.184Z" fill="#3F5D77"/>
<path d="M188.776 208.408C188.01 208.408 187.236 208.186 186.554 207.722L153.807 185.446C149.575 182.414 153.858 176.071 158.259 178.902L191.006 201.178C194.222 203.317 192.589 208.467 188.776 208.408Z" fill="#3F5D77"/>
<path d="M186.037 227.12C185.271 227.12 184.497 226.898 183.815 226.434L132.956 191.838C128.729 188.813 133.001 182.46 137.408 185.294L188.267 219.89C191.48 222.026 189.852 227.181 186.037 227.12Z" fill="#3F5D77"/>
<path d="M184.715 247.243C183.949 247.243 183.175 247.021 182.493 246.557L127.404 209.083C123.178 206.06 127.447 199.705 131.856 202.539L186.945 240.013C190.157 242.148 188.53 247.304 184.715 247.243Z" fill="#3F5D77"/>
<path d="M191.729 272.991C190.963 272.991 190.189 272.769 189.507 272.305L134.418 234.831C130.192 231.808 134.461 225.453 138.87 228.287L193.959 265.761C197.171 267.896 195.545 273.052 191.729 272.991Z" fill="#3F5D77"/>
<path d="M346.518 223.33C343.127 244.49 335.274 293.559 331.971 314.189C327.816 340.085 305.473 359.144 279.244 359.144H232.762C206.533 359.144 184.183 340.086 180.035 314.189L174.962 282.515L165.48 223.33C160.288 190.888 185.346 161.486 218.207 161.486H293.799C326.652 161.485 351.718 190.888 346.518 223.33Z" fill="#53B976"/>
<path d="M346.518 223.33L337.329 280.71C290.346 300.843 222.738 301.567 174.962 282.514L165.48 223.329C160.288 190.887 185.346 161.485 218.207 161.485H293.799C326.652 161.485 351.718 190.888 346.518 223.33Z" fill="#78C795"/>
<path d="M292.285 179.565H219.717C175.547 181.343 175.523 244.384 219.717 246.172H292.284C336.456 244.394 336.479 181.352 292.285 179.565Z" fill="#9ACDAE"/>
<path d="M266.229 196.666H245.775C214.65 196.666 189.962 174.913 191.837 149.147L196.345 87.071C197.022 77.777 201.077 69.282 207.491 62.397C217.398 51.754 232.933 44.946 250.283 44.946H261.722C288.479 45.148 313.078 60.9 315.661 87.07L320.168 149.146C322.041 174.913 297.354 196.666 266.229 196.666Z" fill="#F9C744"/>
<path d="M276.118 118.589C276.118 123.367 273.265 131.61 269.955 139.583C265.342 150.679 259.833 161.253 259.833 161.253C258.493 164.773 253.51 164.773 252.171 161.253C252.171 161.253 246.662 150.678 242.049 139.583C238.739 131.61 235.886 123.367 235.886 118.589C235.886 105.898 238.071 105.898 244.623 105.898H267.381C273.932 105.897 276.118 105.897 276.118 118.589Z" fill="#B26E2B"/>
<path d="M269.955 139.582C265.342 150.678 259.833 161.252 259.833 161.252C258.493 164.772 253.51 164.772 252.171 161.252C252.171 161.252 246.662 150.677 242.049 139.582C246.657 128.486 252.171 117.907 252.171 117.907C253.511 114.387 258.494 114.387 259.833 117.907C259.833 117.907 265.346 128.487 269.955 139.582Z" fill="#DD8C29"/>
<path d="M256.002 146.937C253.775 146.937 251.97 145.132 251.97 142.905V124.838C251.97 122.611 253.775 120.806 256.002 120.806C258.229 120.806 260.034 122.611 260.034 124.838V142.905C260.034 145.132 258.229 146.937 256.002 146.937Z" fill="#F9C744"/>
<path d="M256.002 132.586C253.775 132.586 251.97 130.781 251.97 128.554V124.838C252.134 119.509 259.871 119.508 260.035 124.838V128.554C260.034 130.781 258.229 132.586 256.002 132.586Z" fill="#FAEFDC"/>
<path d="M257.945 92.758C257.933 93.739 257.998 100.117 257.881 100.951C257.218 107.763 251.48 113.089 244.49 113.089C237.058 113.086 231.04 107.063 231.04 99.634V92.758C231.037 85.274 237.147 79.291 244.49 79.308C251.924 79.308 257.945 85.329 257.945 92.758Z" fill="#22A8B9"/>
<path d="M280.964 92.758C280.952 93.739 281.017 100.117 280.9 100.951C280.237 107.763 274.499 113.089 267.514 113.089C260.083 113.087 254.061 107.065 254.059 99.634V92.758C254.055 85.272 260.171 79.29 267.514 79.308C274.943 79.308 280.964 85.329 280.964 92.758Z" fill="#22A8B9"/>
<path d="M254.059 99.634C254.059 100.654 254.173 101.646 254.393 102.597C245.965 105.294 236.864 98.617 237.016 89.727C237.037 88.786 236.957 82.34 237.08 81.534C243.119 77.262 252.457 79.478 256.003 85.79C254.769 87.82 254.06 90.206 254.06 92.757V99.634H254.059Z" fill="#22BCE0"/>
<path d="M280.964 92.758C280.942 93.747 281.024 100.112 280.9 100.951C272.178 106.861 259.925 100.351 260.034 89.727C260.055 88.785 259.975 82.34 260.098 81.535C268.756 75.607 281.124 82.174 280.964 92.758Z" fill="#22BCE0"/>
<path d="M276.862 88.248C276.862 84.094 273.494 80.726 269.34 80.726C259.383 81.07 259.385 95.428 269.34 95.77C273.494 95.77 276.862 92.403 276.862 88.248Z" fill="#83D5EF"/>
<path d="M253.843 88.248C253.843 84.094 250.475 80.726 246.321 80.726C236.364 81.07 236.366 95.428 246.321 95.77C250.475 95.77 253.843 92.403 253.843 88.248Z" fill="#83D5EF"/>
<path d="M271.23 89.373C271.106 94.278 263.916 94.277 263.793 89.373C263.917 84.468 271.106 84.469 271.23 89.373Z" fill="#3F5D77"/>
<path d="M248.211 89.373C248.087 94.278 240.897 94.277 240.774 89.373C240.898 84.468 248.087 84.469 248.211 89.373Z" fill="#3F5D77"/>
<path d="M306.154 90.481C306.13 91.32 306.252 101.95 306.04 102.441C305.372 106.518 301.84 109.564 297.646 109.564C292.946 109.564 289.138 105.756 289.138 101.056V90.481C289.579 79.176 305.752 79.253 306.154 90.481Z" fill="#334353"/>
<path d="M306.154 90.481C306.112 91.328 306.265 101.945 306.04 102.441C300.619 104.975 293.949 100.689 294.089 94.66C294.121 93.844 293.989 83.179 294.199 82.705C299.615 80.17 306.295 84.455 306.154 90.481Z" fill="#2D2C33"/>
<path d="M303.138 87.808C304.804 87.808 306.154 89.158 306.154 90.824V93.182C306.053 97.159 300.222 97.16 300.121 93.182V90.825C300.122 89.159 301.472 87.808 303.138 87.808Z" fill="white"/>
<path d="M205.849 90.481C205.873 91.32 205.751 101.95 205.963 102.441C206.631 106.518 210.163 109.564 214.357 109.564C219.057 109.564 222.865 105.756 222.865 101.056V90.481C222.425 79.176 206.251 79.253 205.849 90.481Z" fill="#334353"/>
<path d="M205.849 90.481C205.891 91.328 205.738 101.945 205.963 102.441C211.384 104.975 218.054 100.689 217.914 94.66C217.882 93.844 218.014 83.179 217.804 82.705C212.388 80.17 205.709 84.455 205.849 90.481Z" fill="#2D2C33"/>
<path d="M208.865 87.808C207.199 87.808 205.849 89.158 205.849 90.824V93.182C205.95 97.159 211.781 97.16 211.882 93.182V90.825C211.881 89.159 210.531 87.808 208.865 87.808Z" fill="white"/>
<path d="M268.966 170.728C268.966 168.817 269.399 166.931 270.231 165.211L279.181 146.725C282.986 138.866 293.418 137.127 299.566 143.329L305.184 148.995C309.642 153.492 310.092 160.592 306.237 165.615L301.966 171.18C297.784 176.629 292.043 180.674 285.505 182.779C277.331 185.41 268.966 179.314 268.966 170.728Z" fill="#FAD98F"/>
<path d="M243.037 170.728C243.037 168.817 242.604 166.931 241.772 165.211L232.822 146.725C229.017 138.866 218.585 137.127 212.437 143.329L206.819 148.995C202.361 153.492 201.911 160.592 205.766 165.615L210.037 171.18C214.219 176.629 219.96 180.674 226.498 182.779C234.672 185.41 243.037 179.314 243.037 170.728Z" fill="#FAD98F"/>
<path d="M291.882 130.843H285.938C282.754 130.843 280.173 133.424 280.173 136.608V142.552C280.173 145.736 282.754 148.317 285.938 148.317H291.882C295.066 148.317 297.647 145.736 297.647 142.552V136.608C297.646 133.424 295.065 130.843 291.882 130.843Z" fill="#3F5D77"/>
<path d="M300.972 152.022H296.496C294.098 152.022 292.155 153.966 292.155 156.363V160.839C292.155 163.237 294.099 165.18 296.496 165.18H300.972C303.369 165.18 305.313 163.236 305.313 160.839V156.363C305.313 153.966 303.369 152.022 300.972 152.022Z" fill="#3F5D77"/>
<path d="M289.324 167.913H285.928C284.109 167.913 282.634 169.388 282.634 171.207V174.603C282.634 176.422 284.109 177.897 285.928 177.897H289.324C291.143 177.897 292.618 176.422 292.618 174.603V171.207C292.618 169.388 291.143 167.913 289.324 167.913Z" fill="#3F5D77"/>
<path d="M274.967 175.732H272.359C270.962 175.732 269.83 176.864 269.83 178.261V180.869C269.83 182.266 270.962 183.398 272.359 183.398H274.967C276.364 183.398 277.496 182.266 277.496 180.869V178.261C277.495 176.864 276.363 175.732 274.967 175.732Z" fill="#3F5D77"/>
<path d="M220.122 130.843H226.066C229.25 130.843 231.831 133.424 231.831 136.608V142.552C231.831 145.736 229.25 148.317 226.066 148.317H220.122C216.938 148.317 214.357 145.736 214.357 142.552V136.608C214.357 133.424 216.938 130.843 220.122 130.843Z" fill="#3F5D77"/>
<path d="M211.032 152.022H215.508C217.906 152.022 219.849 153.966 219.849 156.363V160.839C219.849 163.237 217.905 165.18 215.508 165.18H211.032C208.634 165.18 206.691 163.236 206.691 160.839V156.363C206.691 153.966 208.634 152.022 211.032 152.022Z" fill="#3F5D77"/>
<path d="M222.679 167.913H226.075C227.894 167.913 229.369 169.388 229.369 171.207V174.603C229.369 176.422 227.894 177.897 226.075 177.897H222.679C220.86 177.897 219.385 176.422 219.385 174.603V171.207C219.385 169.388 220.86 167.913 222.679 167.913Z" fill="#3F5D77"/>
<path d="M237.037 175.732H239.645C241.042 175.732 242.174 176.864 242.174 178.261V180.869C242.174 182.266 241.042 183.398 239.645 183.398H237.037C235.64 183.398 234.508 182.266 234.508 180.869V178.261C234.508 176.864 235.64 175.732 237.037 175.732Z" fill="#3F5D77"/>
<path d="M304.513 62.396C276.111 77.628 235.892 77.628 207.49 62.396C217.397 51.753 232.932 44.945 250.282 44.945H261.721C279.071 44.946 294.606 51.753 304.513 62.396Z" fill="#FAD98F"/>
<path d="M427.973 371.137H84.027C77.674 371.137 72.524 365.987 72.524 359.634C72.524 353.281 77.674 348.131 84.027 348.131H427.973C443.132 348.698 443.33 370.479 427.973 371.137Z" fill="#B26E2B"/>
<path d="M170.256 362.191H97.476C88.191 361.879 88.154 348.458 97.476 348.132H170.256C179.541 348.443 179.578 361.864 170.256 362.191Z" fill="#DD8C29"/>
<path d="M414.525 362.191H341.745C332.46 361.879 332.423 348.458 341.745 348.132H414.525C423.81 348.443 423.846 361.864 414.525 362.191Z" fill="#DD8C29"/>
<path d="M219.527 342.38V371.608C219.527 375.298 218.034 378.631 215.616 381.039C207.399 389.377 192.803 383.472 192.843 371.608V342.381C192.843 337.169 195.829 332.661 200.184 330.465C208.766 325.935 219.711 332.61 219.527 342.38Z" fill="#DD8C29"/>
<path d="M246.212 342.38V371.608C246.212 375.298 244.719 378.631 242.301 381.039C234.084 389.377 219.488 383.472 219.528 371.608V342.381C219.528 337.169 222.514 332.661 226.869 330.465C235.451 325.935 246.396 332.61 246.212 342.38Z" fill="#DD8C29"/>
<path d="M219.527 342.38V357.061C219.527 359.864 218.39 362.408 216.55 364.247C210.331 370.6 199.143 366.064 199.21 357.06V334.817C199.21 333.256 199.557 331.782 200.183 330.463C208.767 325.931 219.711 332.615 219.527 342.38Z" fill="#F9C744"/>
<path d="M246.212 342.38V357.061C246.212 359.864 245.075 362.408 243.235 364.247C237.018 370.606 225.824 366.054 225.895 357.06V334.817C225.895 333.256 226.242 331.782 226.868 330.463C235.451 325.931 246.396 332.615 246.212 342.38Z" fill="#F9C744"/>
<path d="M292.473 342.38V371.608C292.473 375.298 290.98 378.631 288.562 381.039C280.345 389.377 265.749 383.472 265.789 371.608V342.381C265.789 337.169 268.775 332.661 273.13 330.465C281.712 325.935 292.657 332.61 292.473 342.38Z" fill="#DD8C29"/>
<path d="M319.157 342.38V371.608C319.157 375.298 317.664 378.631 315.246 381.039C307.029 389.377 292.433 383.472 292.473 371.608V342.381C292.473 337.169 295.459 332.661 299.814 330.465C308.396 325.935 319.341 332.61 319.157 342.38Z" fill="#DD8C29"/>
<path d="M292.473 342.38V357.061C292.473 359.864 291.336 362.408 289.496 364.247C283.277 370.6 272.089 366.064 272.156 357.06V334.817C272.156 333.256 272.503 331.782 273.129 330.463C281.712 325.931 292.657 332.615 292.473 342.38Z" fill="#F9C744"/>
<path d="M319.157 342.38V357.061C319.157 359.864 318.02 362.408 316.18 364.247C309.963 370.606 298.769 366.054 298.84 357.06V334.817C298.84 333.256 299.187 331.782 299.813 330.463C308.396 325.931 319.341 332.615 319.157 342.38Z" fill="#F9C744"/>
<path d="M190.162 82.3712H212.044C214.343 82.3712 216.207 84.3028 216.207 86.6856C216.207 89.0684 214.343 91 212.044 91H190.162C187.864 91 186 89.0684 186 86.6856C186 84.3028 187.864 82.3712 190.162 82.3712Z" fill="#F9A824"/>
<path d="M187.899 83.4355L195.141 77.8297L196.991 80.3976L189.749 86.0034L187.899 83.4355Z" fill="#F9A824"/>
<path d="M212.52 84.59H228.218C229.334 84.59 230.24 85.5282 230.24 86.6856C230.24 87.8429 229.334 88.7812 228.218 88.7812H212.52C211.403 88.7812 210.498 87.8429 210.498 86.6856C210.498 85.5282 211.403 84.59 212.52 84.59Z" fill="#FDD835"/>
<path d="M272.576 80.6454H214.304C213.647 80.6454 213.115 81.1974 213.115 81.8781V91H272.576V80.6454Z" fill="#FDD835"/>
<path d="M290.415 78.6731H315.151V91H290.415V78.6731Z" fill="#FDEF59"/>
<path d="M211.569 88.7812H238.683C239.274 88.7812 239.753 89.2779 239.753 89.8906C239.753 90.5033 239.274 91 238.683 91H211.569C210.977 91 210.498 90.5033 210.498 89.8906C210.498 89.2779 210.977 88.7812 211.569 88.7812Z" fill="#F9A824"/>
<path d="M193.373 80.6454H214.066V83.3573H193.373V80.6454Z" fill="#F9A824"/>
<path d="M211.074 84.9268L213.232 81.2802C213.528 80.78 214.16 80.6232 214.642 80.9301C215.125 81.2369 215.276 81.8912 214.98 82.3914L212.822 86.038C212.526 86.5382 211.895 86.6949 211.412 86.3881C210.93 86.0812 210.778 85.427 211.074 84.9268Z" fill="#FDD835"/>
<path d="M270.317 80.6454H314.081C314.672 80.6454 315.151 81.1421 315.151 81.7548C315.151 82.3676 314.672 82.8643 314.081 82.8643H270.317C269.726 82.8643 269.247 82.3676 269.247 81.7548C269.247 81.1421 269.726 80.6454 270.317 80.6454Z" fill="#FDEF59"/>
<path d="M299.215 86.5623C299.215 84.52 297.618 82.8643 295.648 82.8643H262.587V91H299.215V86.5623Z" fill="#FDD835"/>
<path d="M308.658 69.9242C308.825 67.812 310.613 66.2406 312.651 66.4142C314.688 66.5879 316.204 68.4409 316.037 70.5531L315.121 82.1004C314.953 84.2126 313.166 85.784 311.128 85.6104C309.09 85.4367 307.574 83.5837 307.742 81.4715L308.658 69.9242Z" fill="#FDEF59"/>
<path d="M308.61 82.8643H319.076C321.243 82.8643 323 84.6855 323 86.9322C323 89.1788 321.243 91 319.076 91H308.61C306.443 91 304.686 89.1788 304.686 86.9322C304.686 84.6855 306.443 82.8643 308.61 82.8643Z" fill="#FDEF59"/>
<path d="M311.825 82.7693L315.127 78.5622L321.481 83.9207L318.178 88.1278L311.825 82.7693Z" fill="#FDEF59"/>
<path d="M204.076 78.6731H314.2C314.725 78.6731 315.151 79.1146 315.151 79.6593C315.151 80.2039 314.725 80.6454 314.2 80.6454H204.076C203.551 80.6454 203.125 80.2039 203.125 79.6593C203.125 79.1146 203.551 78.6731 204.076 78.6731Z" fill="#F9A824"/>
<path d="M193.344 70.6975C193.176 68.5853 194.692 66.7323 196.73 66.5587C198.768 66.3852 200.556 67.9567 200.723 70.0689L201.639 81.6162C201.806 83.7284 200.29 85.5814 198.252 85.755C196.214 85.9286 194.427 84.357 194.259 82.2448L193.344 70.6975Z" fill="#F9A824"/>
<path d="M197.892 66.7161C197.892 59.0268 199.357 51.413 202.201 44.309C205.046 37.205 209.216 30.7502 214.472 25.3131L254.5 66.7161H197.892Z" fill="#F9A824"/>
<path d="M214.472 25.3131C219.256 20.3655 224.857 16.3448 231.012 13.4416L254.5 66.716L214.472 25.3131Z" fill="#FDD835"/>
<path d="M230.953 17.2853C218.868 17.2853 209.071 27.4402 209.071 39.9667V66.3463H230.953V17.2853Z" fill="#FDD835"/>
<path d="M197.892 66.3463H234.045V80.6454H197.892V66.3463Z" fill="#F9A824"/>
<path d="M230.953 68.5651H209.071V72.5097C209.071 75.9136 211.733 78.6731 215.017 78.6731H230.953V68.5651Z" fill="#FDD835"/>
<path d="M294.528 25.3131C299.784 30.7502 303.954 37.205 306.799 44.309C309.643 51.413 311.108 59.0268 311.108 66.7161H254.5L294.528 25.3131Z" fill="#FDEF59"/>
<path d="M277.651 13.2838C283.56 16.0233 288.972 19.7914 293.649 24.4242L254.5 66.7161L277.651 13.2838Z" fill="#FDD835"/>
<path d="M246.651 2C237.981 2 230.953 9.28498 230.953 18.2715V78.6731H246.651V2Z" fill="#F9A824"/>
<path d="M278.285 18.2715C278.285 9.28498 271.257 2 262.587 2V78.6731H278.285V18.2715Z" fill="#F9A824"/>
<path d="M246.651 8.16342H262.587V78.6731H246.651V8.16342Z" fill="#FDD835"/>
<path d="M299.215 35.7756C299.215 27.8783 293.039 21.4765 285.42 21.4765H278.285V66.3463H299.215V35.7756Z" fill="#FDD835"/>
<path d="M285.42 66.8393H311.821V78.6731H285.42V66.8393Z" fill="#FDEF59"/>
<path d="M299.215 72.7562C299.215 71.5307 298.257 70.5374 297.075 70.5374H278.285V78.6731H299.215V72.7562Z" fill="#FDD835"/>
<path d="M278.285 66.8393H285.42V77.9335H278.285V66.8393Z" fill="#FDD835"/>
<path d="M311.821 67.075C311.821 66.5363 311.4 66.0997 310.88 66.0997H278.285V68.5651H310.384C311.178 68.5651 311.821 67.898 311.821 67.075Z" fill="#F9A824"/>
<path d="M254.5 74.7285C238.211 74.7285 225.007 61.0416 225.007 44.1579C225.007 27.2742 238.211 13.5872 254.5 13.5872C270.789 13.5872 283.993 27.2742 283.993 44.1579C283.993 61.0416 270.789 74.7285 254.5 74.7285Z" fill="#FDEF59"/>
<path d="M254.5 60.6759C245.83 60.6759 238.802 53.3909 238.802 44.4044C238.802 35.418 245.83 28.133 254.5 28.133C263.17 28.133 270.198 35.418 270.198 44.4044C270.198 53.3909 263.17 60.6759 254.5 60.6759Z" fill="#E2F4FF"/>
<path d="M257.949 57.2244C248.557 57.2244 240.943 49.3323 240.943 39.597C240.943 29.8616 248.557 21.9695 257.949 21.9695C267.341 21.9695 274.955 29.8616 274.955 39.597C274.955 49.3323 267.341 57.2244 257.949 57.2244Z" fill="white"/>
<path d="M229.05 44.7742C229.05 59.5475 240.604 71.5236 254.857 71.5236C269.109 71.5236 280.663 59.5475 280.663 44.7742C280.663 30.001 269.109 18.0249 254.857 18.0249C240.604 18.0249 229.05 30.001 229.05 44.7742ZM273.647 44.7742C273.647 55.5307 265.234 64.2507 254.857 64.2507C244.479 64.2507 236.067 55.5307 236.067 44.7742C236.067 34.0178 244.479 25.2978 254.857 25.2978C265.234 25.2978 273.647 34.0178 273.647 44.7742Z" fill="#F9A824"/>
<path d="M234.759 44.4045C234.759 55.5694 243.491 64.6205 254.262 64.6205C265.034 64.6205 273.766 55.5694 273.766 44.4045C273.766 33.2395 265.034 24.1884 254.262 24.1884C243.491 24.1884 234.759 33.2395 234.759 44.4045ZM269.722 44.4045C269.722 53.2549 262.801 60.4294 254.262 60.4294C245.724 60.4294 238.802 53.2549 238.802 44.4045C238.802 35.554 245.724 28.3795 254.262 28.3795C262.801 28.3795 269.722 35.554 269.722 44.4045Z" fill="#F17F16"/>
<path d="M243.439 2.36115C239.122 3.52183 234.957 5.21833 231.032 7.41387L231.551 8.41025C235.398 6.258 239.482 4.59494 243.713 3.45712L243.439 2.36115Z" fill="#F9A824"/>
<path d="M230.953 7.42383H236.186V17.2853H230.953V7.42383Z" fill="#F9A824"/>
<path d="M273.052 7.42383H278.285V17.2853H273.052V7.42383Z" fill="#F9A824"/>
<path d="M238.089 5.20497H236.186C234.347 5.20497 232.856 6.75027 232.856 8.65649V15.0665H238.089V5.20497Z" fill="#F9A824"/>
<path d="M276.382 8.40997C276.382 6.91223 275.211 5.69806 273.766 5.69806C272.321 5.69806 271.149 6.91223 271.149 8.40997V15.5596H276.382V8.40997Z" fill="#F9A824"/>
<path d="M278.344 7.00206C274.871 5.29548 271.264 3.90027 267.563 2.83168L267.231 4.06636C270.865 5.11531 274.405 6.48492 277.814 8.16014L278.344 7.00206Z" fill="#F9A824"/>
<path d="M285.658 68.5651H301.356C301.881 68.5651 302.307 69.0066 302.307 69.5512C302.307 70.0959 301.881 70.5374 301.356 70.5374H285.658C285.133 70.5374 284.707 70.0959 284.707 69.5512C284.707 69.0066 285.133 68.5651 285.658 68.5651Z" fill="#FDEF59"/>
</svg>
