<svg width="512" height="512" viewBox="0 0 512 512" fill="none" xmlns="http://www.w3.org/2000/svg">
<path d="M256 512C397.385 512 512 397.385 512 256C512 114.615 397.385 0 256 0C114.615 0 0 114.615 0 256C0 397.385 114.615 512 256 512Z" fill="#EA792E"/>
<path d="M373.3 64.48V190.261C373.3 197.413 371.058 204.386 366.889 210.198L340.41 247.11C341.541 247.867 273.211 202.45 271.42 201.26L287.04 144.56C289.12 137.01 292.92 130.05 298.15 124.22L357.22 58.29C362.785 52.047 373.35 56.129 373.3 64.48Z" fill="#DECEE5"/>
<path d="M341.93 173.85C346.4 187.44 346.92 201.94 343.54 215.72C342.193 222.077 336.108 236.469 333.83 242.74L271.42 201.26L287.04 144.56C289.12 137.01 292.92 130.05 298.15 124.22L327.1 91.91L357.22 58.29C361.603 53.24 370.27 54.808 372.63 61.04L345.67 117.06C337.14 134.79 335.8 155.15 341.93 173.85Z" fill="#F4E6F4"/>
<path d="M341.93 173.85C346.4 187.44 346.92 201.94 343.54 215.72C317.142 183 309.883 131.314 327.101 91.91C327.1 91.91 357.22 58.29 357.22 58.29C361.607 53.239 370.268 54.808 372.63 61.04L345.67 117.06C337.14 134.79 335.8 155.15 341.93 173.85Z" fill="white"/>
<path d="M138.693 64.48V190.261C138.693 197.413 140.935 204.386 145.104 210.198L171.583 247.111C170.452 247.868 238.782 202.451 240.573 201.261L224.953 144.561C222.873 137.011 219.073 130.051 213.843 124.221L154.773 58.291C149.208 52.047 138.643 56.129 138.693 64.48Z" fill="#C2AACF"/>
<path d="M170.063 173.85C165.593 187.44 165.073 201.94 168.453 215.72C169.8 222.077 175.885 236.469 178.163 242.74L240.573 201.26L224.953 144.56C222.873 137.01 219.073 130.05 213.843 124.22L184.893 91.91L154.773 58.29C150.39 53.24 141.723 54.808 139.363 61.04L166.323 117.06C174.852 134.79 176.193 155.15 170.063 173.85Z" fill="#EBD9EA"/>
<path d="M170.063 173.85C165.593 187.44 165.073 201.94 168.453 215.72C194.851 183 202.11 131.314 184.892 91.91C184.893 91.91 154.773 58.29 154.773 58.29C150.387 53.239 141.725 54.808 139.363 61.04L166.323 117.06C174.852 134.79 176.193 155.15 170.063 173.85Z" fill="#F9F2F9"/>
<path d="M366.39 316.38V339.66C366.555 402.129 312.635 449.65 250.939 444.989C192.76 444.99 145.6 397.83 145.6 339.66V316.38C145.434 253.911 199.356 206.39 261.06 211.051C319.23 211.05 366.39 258.21 366.39 316.38Z" fill="#C2AACF"/>
<path d="M366.39 316.38V339.66C366.554 399.758 315.873 447.634 256 444.99V211.05C315.874 208.407 366.553 256.282 366.39 316.38Z" fill="#DECEE5"/>
<path d="M282.65 450.74H229.35C194.74 450.74 168.35 422.11 173.83 390.52C175.566 380.503 179.098 360.131 180.84 350.07C183.61 334.13 183.61 317.87 180.84 301.93L175.61 271.72C169.19 234.76 200.08 201.26 240.58 201.26H271.42C311.92 201.26 342.81 234.76 336.39 271.72L331.16 301.93C328.39 317.87 328.39 334.13 331.16 350.07L334.85 371.37L338.17 390.52C343.65 422.11 317.26 450.74 282.65 450.74Z" fill="#DECEE5"/>
<path d="M282.65 450.74H256V201.26H271.42C311.92 201.26 342.81 234.76 336.39 271.72L331.16 301.93C328.39 317.87 328.39 334.13 331.16 350.07C332.892 360.101 336.441 380.524 338.17 390.52C343.65 422.11 317.26 450.74 282.65 450.74Z" fill="#EBD9EA"/>
<path d="M330.58 297.358C340.313 299.074 346.834 308.284 345.246 318.011C345.245 318.096 345.231 318.178 345.216 318.26L343.036 330.622C341.307 340.429 331.947 347.01 322.131 345.272C312.262 343.579 305.737 333.989 307.484 324.353L309.664 311.991C311.404 302.175 320.761 295.627 330.58 297.358Z" fill="#3E4E60"/>
<path d="M330.58 297.358C340.313 299.074 346.834 308.284 345.246 318.011C336.798 327.809 320.42 331.644 307.248 326.414C307.203 325.323 309.459 313.367 309.664 311.991C311.404 302.175 320.761 295.627 330.58 297.358Z" fill="#2E3140"/>
<path d="M318.357 309.606L317.046 317.044C316.481 320.247 318.62 323.301 321.822 323.866C325.024 324.431 328.079 322.292 328.644 319.09L329.955 311.652C331.07 303.946 319.944 301.982 318.357 309.606Z" fill="white"/>
<path d="M181.42 297.358C171.687 299.074 165.166 308.284 166.754 318.011C166.755 318.096 166.769 318.178 166.784 318.26L168.964 330.622C170.693 340.429 180.053 347.01 189.869 345.272C199.738 343.579 206.263 333.989 204.516 324.353L202.336 311.991C200.596 302.175 191.239 295.627 181.42 297.358Z" fill="#3E4E60"/>
<path d="M181.42 297.358C171.687 299.074 165.166 308.284 166.754 318.011C175.202 327.809 191.58 331.644 204.752 326.414C204.797 325.323 202.541 313.367 202.336 311.991C200.596 302.175 191.239 295.627 181.42 297.358Z" fill="#2E3140"/>
<path d="M193.643 309.606L194.954 317.044C195.519 320.247 193.38 323.301 190.178 323.866C186.975 324.431 183.921 322.292 183.356 319.09L182.045 311.652C180.93 303.946 192.056 301.982 193.643 309.606Z" fill="white"/>
<path d="M256 219.423C300.962 219.423 313.961 232.422 313.961 250.114C313.961 267.807 303.112 299.581 256 299.581V219.423Z" fill="#F4E6F4"/>
<path d="M256 219.423C211.038 219.423 198.039 232.422 198.039 250.114C198.039 267.807 208.888 299.581 256 299.581V219.423Z" fill="#EBD9EA"/>
<path d="M338.89 398.86C338.89 426.97 314.18 450.74 282.65 450.74H229.35C194.74 450.74 168.35 422.11 173.83 390.52C175.75 379.45 185.348 371.371 196.59 371.37H315.41C330.751 371.584 339.555 384.306 338.89 398.86Z" fill="#EBD9EA"/>
<path d="M338.89 398.86C338.89 426.97 314.18 450.74 282.65 450.74H256V371.37H315.41C330.779 371.591 339.544 384.311 338.89 398.86Z" fill="#F4E6F4"/>
<path d="M337.742 413.534C335.226 412.416 332.273 413.551 331.145 416.065C331.076 416.221 324.011 431.651 311.027 431.651C285.213 431.651 266.874 421.726 261 418.073V399.71C261 396.949 258.762 394.71 256 394.71C253.238 394.71 251 396.949 251 399.71V418.074C245.125 421.727 226.786 431.652 200.973 431.652C187.989 431.652 180.924 416.222 180.861 416.079C179.747 413.554 176.797 412.407 174.269 413.521C171.742 414.635 170.596 417.586 171.71 420.113C172.098 420.992 181.431 441.652 200.973 441.652C229.004 441.652 248.789 431.236 256 426.758C263.212 431.236 282.996 441.652 311.027 441.652C330.569 441.652 339.902 420.993 340.29 420.113C341.401 417.592 340.261 414.653 337.742 413.534Z" fill="#C2AACF"/>
<path d="M275.988 368.643V385.309C275.988 388.094 275.179 390.833 273.673 393.186L269.918 399.02C267.989 402.031 264.667 403.848 261.1 403.848H250.9C247.333 403.848 244.011 402.032 242.082 399.02L238.327 393.186C236.821 390.833 236.012 388.095 236.012 385.309V368.643C236.012 362.846 240.708 358.15 246.505 358.15H265.496C271.292 358.15 275.988 362.846 275.988 368.643Z" fill="#F9F2F9"/>
<path d="M275.988 368.643V385.309C275.988 388.094 275.179 390.833 273.673 393.186L269.918 399.02C267.989 402.031 264.667 403.848 261.1 403.848H256V358.15H265.495C271.292 358.15 275.988 362.846 275.988 368.643Z" fill="white"/>
<path d="M378.356 413.559C361.505 384.735 321.876 387.098 289.074 400.695C287.398 401.369 286.574 403.269 287.239 404.955C287.913 406.631 289.814 407.455 291.499 406.79C309.213 399.749 325.13 396.697 338.5 397.69C355.052 398.497 368.201 408.006 372.421 416.341C374.36 420.215 380.097 417.514 378.356 413.559Z" fill="#F9F2F9"/>
<path d="M378.356 413.559C380.087 417.503 374.383 420.226 372.42 416.34C368.18 407.981 355.036 398.499 338.499 397.69C338.003 395.48 337.591 393.243 337.291 390.968C357.074 391.554 373.221 402.936 378.356 413.559Z" fill="white"/>
<path d="M393.808 373.397C370.281 349.706 332.504 361.911 304.147 383.283C302.693 384.355 302.371 386.401 303.436 387.866C304.508 389.32 306.554 389.642 308.02 388.577C323.409 377.328 338.055 370.39 351.248 368.005C367.475 364.645 382.586 370.561 388.757 377.574C391.604 380.842 396.483 376.791 393.808 373.397Z" fill="#F9F2F9"/>
<path d="M393.808 373.397C396.471 376.783 391.629 380.846 388.757 377.575C382.56 370.542 367.462 364.652 351.248 368.006C350.215 365.991 349.256 363.927 348.396 361.8C367.697 357.418 386.178 364.397 393.808 373.397Z" fill="white"/>
<path d="M135.217 417.922C136.823 418.678 138.801 418.002 139.58 416.34C143.87 407.92 156.991 398.507 173.501 397.69C186.871 396.697 202.787 399.749 220.502 406.79C222.187 407.455 224.088 406.631 224.762 404.955C225.427 403.27 224.603 401.369 222.927 400.695C196.816 390.851 174.965 386.468 152.51 396.359C138.747 402.932 133.85 413.128 133.644 413.559C132.876 415.198 133.578 417.145 135.217 417.922Z" fill="#F9F2F9"/>
<path d="M133.644 413.559C131.913 417.503 137.617 420.226 139.58 416.34C143.82 407.981 156.964 398.499 173.501 397.69C173.997 395.48 174.409 393.243 174.709 390.968C154.926 391.554 138.779 402.936 133.644 413.559Z" fill="white"/>
<path d="M118.623 378.015C119.989 379.149 122.073 378.989 123.243 377.575C129.454 370.517 144.613 364.656 160.752 368.006C173.945 370.39 188.591 377.328 203.98 388.578C205.445 389.643 207.492 389.321 208.564 387.867C209.629 386.402 209.307 384.355 207.853 383.283C185.036 367.219 164.976 357.507 140.761 361.465C125.791 364.385 118.499 373.032 118.191 373.397C117.038 374.792 117.231 376.853 118.623 378.015Z" fill="#F9F2F9"/>
<path d="M118.192 373.397C115.529 376.783 120.371 380.846 123.243 377.575C129.44 370.542 144.538 364.652 160.752 368.006C161.785 365.991 162.744 363.927 163.604 361.8C144.303 357.418 125.822 364.397 118.192 373.397Z" fill="white"/>
<path d="M143.504 255.972H182.956C187.1 255.972 190.46 259.336 190.46 263.486C190.46 267.636 187.1 271 182.956 271H143.504C139.36 271 136 267.636 136 263.486C136 259.336 139.36 255.972 143.504 255.972Z" fill="#F9A824"/>
<path d="M139.424 257.826L152.48 248.063L155.816 252.535L142.76 262.298L139.424 257.826Z" fill="#F9A824"/>
<path d="M183.813 259.837H212.115C214.128 259.837 215.76 261.471 215.76 263.486C215.76 265.502 214.128 267.136 212.115 267.136H183.813C181.8 267.136 180.168 265.502 180.168 263.486C180.168 261.471 181.8 259.837 183.813 259.837Z" fill="#FDD835"/>
<path d="M292.09 252.967H187.03C185.846 252.967 184.885 253.928 184.885 255.114V271H292.09V252.967Z" fill="#FDD835"/>
<path d="M324.252 249.532H368.849V271H324.252V249.532Z" fill="#FDEF59"/>
<path d="M182.098 267.136H230.984C232.049 267.136 232.913 268.001 232.913 269.068C232.913 270.135 232.049 271 230.984 271H182.098C181.032 271 180.168 270.135 180.168 269.068C180.168 268.001 181.032 267.136 182.098 267.136Z" fill="#F9A824"/>
<path d="M149.293 252.967H186.601V257.69H149.293V252.967Z" fill="#F9A824"/>
<path d="M181.207 260.423L185.098 254.072C185.632 253.201 186.77 252.928 187.64 253.462C188.51 253.997 188.782 255.136 188.249 256.007L184.358 262.358C183.824 263.229 182.686 263.502 181.816 262.968C180.946 262.434 180.673 261.294 181.207 260.423Z" fill="#FDD835"/>
<path d="M288.017 252.967H366.919C367.985 252.967 368.849 253.832 368.849 254.899C368.849 255.966 367.985 256.831 366.919 256.831H288.017C286.951 256.831 286.087 255.966 286.087 254.899C286.087 253.832 286.951 252.967 288.017 252.967Z" fill="#FDEF59"/>
<path d="M340.118 263.271C340.118 259.715 337.238 256.831 333.686 256.831H274.08V271H340.118V263.271Z" fill="#FDD835"/>
<path d="M357.142 234.295C357.444 230.616 360.667 227.88 364.341 228.182C368.015 228.484 370.748 231.712 370.446 235.39L368.795 255.501C368.493 259.179 365.27 261.916 361.596 261.614C357.922 261.311 355.189 258.084 355.491 254.405L357.142 234.295Z" fill="#FDEF59"/>
<path d="M357.056 256.831H375.924C379.832 256.831 383 260.003 383 263.916C383 267.828 379.832 271 375.924 271H357.056C353.149 271 349.981 267.828 349.981 263.916C349.981 260.003 353.149 256.831 357.056 256.831Z" fill="#FDEF59"/>
<path d="M362.852 256.666L368.806 249.339L380.261 258.671L374.307 265.998L362.852 256.666Z" fill="#FDEF59"/>
<path d="M168.59 249.532H367.134C368.081 249.532 368.849 250.301 368.849 251.249C368.849 252.198 368.081 252.967 367.134 252.967H168.59C167.643 252.967 166.875 252.198 166.875 251.249C166.875 250.301 167.643 249.532 168.59 249.532Z" fill="#F9A824"/>
<path d="M149.24 235.642C148.938 231.963 151.672 228.736 155.346 228.434C159.019 228.131 162.243 230.868 162.544 234.547L164.195 254.657C164.497 258.336 161.763 261.563 158.09 261.865C154.416 262.168 151.193 259.431 150.891 255.752L149.24 235.642Z" fill="#F9A824"/>
<path d="M157.441 228.708C157.441 215.316 160.081 202.056 165.21 189.684C170.339 177.312 177.856 166.071 187.334 156.601L259.5 228.708H157.441Z" fill="#F9A824"/>
<path d="M187.334 156.601C195.957 147.985 206.057 140.983 217.153 135.926L259.5 228.708L187.334 156.601Z" fill="#FDD835"/>
<path d="M217.047 142.62C195.259 142.62 177.595 160.306 177.595 182.122V228.064H217.047V142.62Z" fill="#FDD835"/>
<path d="M157.441 228.064H222.622V252.967H157.441V228.064Z" fill="#F9A824"/>
<path d="M217.047 231.928H177.595V238.798C177.595 244.726 182.395 249.532 188.316 249.532H217.047V231.928Z" fill="#FDD835"/>
<path d="M331.666 156.601C341.144 166.071 348.661 177.312 353.79 189.684C358.919 202.056 361.559 215.316 361.559 228.708H259.5L331.666 156.601Z" fill="#FDEF59"/>
<path d="M301.239 135.652C311.893 140.423 321.65 146.985 330.083 155.053L259.5 228.708L301.239 135.652Z" fill="#FDD835"/>
<path d="M245.349 116C229.718 116 217.047 128.687 217.047 144.338V249.532H245.349V116Z" fill="#F9A824"/>
<path d="M302.382 144.338C302.382 128.687 289.711 116 274.08 116V249.532H302.382V144.338Z" fill="#F9A824"/>
<path d="M245.349 126.734H274.08V249.532H245.349V126.734Z" fill="#FDD835"/>
<path d="M340.118 174.823C340.118 161.069 328.983 149.92 315.247 149.92H302.382V228.064H340.118V174.823Z" fill="#FDD835"/>
<path d="M315.247 228.922H362.845V249.532H315.247V228.922Z" fill="#FDEF59"/>
<path d="M340.118 239.227C340.118 237.093 338.39 235.363 336.259 235.363H302.382V249.532H340.118V239.227Z" fill="#FDD835"/>
<path d="M302.382 228.922H315.247V248.244H302.382V228.922Z" fill="#FDD835"/>
<path d="M362.845 229.333C362.845 228.395 362.086 227.634 361.149 227.634H302.382V231.928H360.254C361.685 231.928 362.845 230.766 362.845 229.333Z" fill="#F9A824"/>
<path d="M259.5 242.662C230.133 242.662 206.326 218.825 206.326 189.421C206.326 160.017 230.133 136.18 259.5 136.18C288.867 136.18 312.674 160.017 312.674 189.421C312.674 218.825 288.867 242.662 259.5 242.662Z" fill="#FDEF59"/>
<path d="M259.5 218.188C243.869 218.188 231.198 205.501 231.198 189.85C231.198 174.2 243.869 161.512 259.5 161.512C275.131 161.512 287.802 174.2 287.802 189.85C287.802 205.501 275.131 218.188 259.5 218.188Z" fill="#E2F4FF"/>
<path d="M265.718 212.177C248.785 212.177 235.057 198.433 235.057 181.478C235.057 164.523 248.785 150.778 265.718 150.778C282.651 150.778 296.378 164.523 296.378 181.478C296.378 198.433 282.651 212.177 265.718 212.177Z" fill="white"/>
<path d="M213.616 190.494C213.616 216.223 234.447 237.08 260.143 237.08C285.839 237.08 306.67 216.223 306.67 190.494C306.67 164.766 285.839 143.909 260.143 143.909C234.447 143.909 213.616 164.766 213.616 190.494ZM294.02 190.494C294.02 209.228 278.853 224.414 260.143 224.414C241.434 224.414 226.267 209.228 226.267 190.494C226.267 171.761 241.434 156.575 260.143 156.575C278.853 156.575 294.02 171.761 294.02 190.494Z" fill="#F9A824"/>
<path d="M223.908 189.85C223.908 209.295 239.651 225.058 259.071 225.058C278.491 225.058 294.234 209.295 294.234 189.85C294.234 170.406 278.491 154.643 259.071 154.643C239.651 154.643 223.908 170.406 223.908 189.85ZM286.944 189.85C286.944 205.264 274.465 217.759 259.071 217.759C243.677 217.759 231.198 205.264 231.198 189.85C231.198 174.437 243.677 161.942 259.071 161.942C274.465 161.942 286.944 174.437 286.944 189.85Z" fill="#F17F16"/>
<path d="M239.558 116.629C231.775 118.65 224.265 121.605 217.189 125.429L218.124 127.164C225.061 123.416 232.423 120.519 240.052 118.538L239.558 116.629Z" fill="#F9A824"/>
<path d="M217.047 125.446H226.481V142.621H217.047V125.446Z" fill="#F9A824"/>
<path d="M292.948 125.446H302.382V142.621H292.948V125.446Z" fill="#F9A824"/>
<path d="M229.911 121.582H226.481C223.165 121.582 220.477 124.273 220.477 127.593V138.756H229.911V121.582Z" fill="#F9A824"/>
<path d="M298.951 127.163C298.951 124.555 296.839 122.44 294.234 122.44C291.629 122.44 289.517 124.555 289.517 127.163V139.615H298.951V127.163Z" fill="#F9A824"/>
<path d="M302.488 124.711C296.228 121.739 289.725 119.309 283.051 117.448L282.453 119.599C289.004 121.426 295.388 123.811 301.533 126.728L302.488 124.711Z" fill="#F9A824"/>
<path d="M315.675 231.928H343.977C344.925 231.928 345.693 232.697 345.693 233.645C345.693 234.594 344.925 235.363 343.977 235.363H315.675C314.728 235.363 313.96 234.594 313.96 233.645C313.96 232.697 314.728 231.928 315.675 231.928Z" fill="#FDEF59"/>
</svg>
