<svg width="512" height="512" viewBox="0 0 512 512" fill="none" xmlns="http://www.w3.org/2000/svg">
<path d="M256 512C397.385 512 512 397.385 512 256C512 114.615 397.385 0 256 0C114.615 0 0 114.615 0 256C0 397.385 114.615 512 256 512Z" fill="#53B976"/>
<path d="M403.024 219.828L403.047 219.837C403.047 219.837 416.415 178.754 416.415 138.658C416.415 116.505 406.617 97.153 397.847 84.27C391.582 75.067 378.379 74.111 370.85 82.313L286.939 173.73H225.061L141.15 82.313C133.622 74.111 120.418 75.067 114.153 84.27C105.383 97.153 95.585 116.505 95.585 138.658C95.585 178.755 108.953 219.837 108.953 219.837L108.976 219.828C106.537 224.461 104.482 229.354 102.89 234.49C97.92 250.51 95.59 266.56 95.59 282.25C95.59 367.61 164.77 442.27 256 442.27C301.62 442.27 341.72 423.6 370.42 394.27C409.67 354.15 427.59 294.07 409.11 234.49C407.518 229.354 405.463 224.461 403.024 219.828Z" fill="#EA792E"/>
<path d="M225.061 173.73L141.15 82.313C133.622 74.111 120.418 75.067 114.153 84.27C105.383 97.153 95.585 116.505 95.585 138.658C95.585 178.755 108.953 219.837 108.953 219.837L108.976 219.828C106.537 224.461 104.482 229.354 102.89 234.49C97.92 250.51 95.59 266.56 95.59 282.25C95.59 367.61 164.77 442.27 256 442.27V173.73H225.061Z" fill="#DD5E26"/>
<path d="M111.14 158.17C111.14 172.36 113.35 186.71 115.7 198C118.12 209.6 130.39 216.23 141.4 211.85L150.72 208.15L183.79 195.02C196.2 190.09 199.82 174.26 190.79 164.42L160.34 131.25L160.32 131.23L145.76 115.36C140.06 109.16 130.04 109.82 125.3 116.78C118.62 126.56 111.14 141.3 111.14 158.17Z" fill="#BF5E39"/>
<path d="M133.73 195.39L150.72 208.15L183.79 195.02C196.2 190.09 199.82 174.26 190.79 164.42L160.34 131.25L160.32 131.23L143.94 127.74C140.4 126.98 137.75 130.93 139.78 133.92L152.45 147.64C156.24 151.74 152.74 158.32 147.23 157.47L135.22 155.62C131.46 155.62 129.76 160.32 132.66 162.73L152.53 177.25C157.07 180.56 154.83 187.74 149.22 187.9L135.2 188.28C131.9 189.07 131.01 193.35 133.73 195.39Z" fill="#EA792E"/>
<path d="M400.86 158.17C400.86 172.36 398.65 186.71 396.3 198C393.88 209.6 381.61 216.23 370.6 211.85L361.28 208.15L328.21 195.02C315.8 190.09 312.18 174.26 321.21 164.42L351.66 131.25L351.68 131.23L366.24 115.36C371.94 109.16 381.96 109.82 386.7 116.78C393.38 126.56 400.86 141.3 400.86 158.17Z" fill="#DD5E26"/>
<path d="M378.27 195.39L361.28 208.15L328.21 195.02C315.8 190.09 312.18 174.26 321.21 164.42L351.66 131.25L351.68 131.23L368.06 127.74C371.6 126.98 374.25 130.93 372.22 133.92L359.55 147.64C355.76 151.74 359.26 158.32 364.77 157.47L376.78 155.62C380.54 155.62 382.24 160.32 379.34 162.73L359.47 177.25C354.93 180.56 357.17 187.74 362.78 187.9L376.8 188.28C380.1 189.07 380.99 193.35 378.27 195.39Z" fill="#F39E22"/>
<path d="M381.934 82.684L377.915 85.63C375.019 87.753 374.604 92.11 376.987 95.362L397.493 123.338C399.877 126.59 404.157 127.505 407.053 125.382C409.627 123.496 410.283 119.791 408.601 116.637L392.113 85.715C390.004 81.759 385.163 80.317 381.934 82.684Z" fill="#F39E22"/>
<path d="M130.066 82.684L134.085 85.63C136.981 87.753 137.396 92.11 135.013 95.362L114.507 123.338C112.123 126.59 107.843 127.505 104.947 125.382C102.373 123.496 101.717 119.791 103.399 116.637L119.887 85.715C121.996 81.759 126.837 80.317 130.066 82.684Z" fill="#EA792E"/>
<path d="M271.47 277.199C262.926 277.199 256 270.273 256 261.729V203.196C256 194.652 262.926 187.726 271.47 187.726C280.014 187.726 286.94 194.652 286.94 203.196V261.729C286.939 270.273 280.013 277.199 271.47 277.199Z" fill="#F39E22"/>
<path d="M240.53 277.199C231.986 277.199 225.06 270.273 225.06 261.729V203.196C225.06 194.652 231.986 187.726 240.53 187.726C249.074 187.726 256 194.652 256 203.196V261.729C256 270.273 249.074 277.199 240.53 277.199Z" fill="#EA792E"/>
<path d="M331.263 233.234H320.944C312.353 233.234 305.388 240.199 305.388 248.79V262.623C305.388 271.214 312.353 278.179 320.944 278.179H331.263C339.854 278.179 346.819 271.214 346.819 262.623V248.79C346.819 240.199 339.854 233.234 331.263 233.234Z" fill="#DD5E26"/>
<path d="M191.056 233.234H180.737C172.146 233.234 165.181 240.199 165.181 248.79V262.623C165.181 271.214 172.146 278.179 180.737 278.179H191.056C199.647 278.179 206.612 271.214 206.612 262.623V248.79C206.612 240.199 199.647 233.234 191.056 233.234Z" fill="#BF5E39"/>
<path d="M362.562 308C362.562 294.156 336.734 282.933 322.89 282.933C309.046 282.933 297.823 294.156 297.823 308C297.823 321.844 309.046 333.067 322.89 333.067C336.734 333.067 362.562 321.844 362.562 308Z" fill="#FBCB74"/>
<path d="M335.534 296.92V319.08C335.534 321.68 334.474 324.04 332.774 325.75C326.996 331.64 316.611 327.439 316.674 319.08V296.92C317.131 284.466 335.03 284.368 335.534 296.92Z" fill="#3F5D77"/>
<path d="M335.534 296.92V319.08C335.529 321.734 334.438 324.149 332.654 325.86C328.394 324.95 325.204 321.17 325.204 316.64V294.48C325.204 291.82 326.314 289.41 328.094 287.7C332.344 288.61 335.534 292.39 335.534 296.92Z" fill="#2E3140"/>
<path d="M348.069 301.699C348.069 296.763 344.067 292.761 339.131 292.761C327.28 293.219 327.283 310.182 339.131 310.638C344.067 310.638 348.069 306.636 348.069 301.699Z" fill="white"/>
<path d="M149.438 308C149.438 294.156 175.266 282.933 189.11 282.933C202.954 282.933 214.177 294.156 214.177 308C214.177 321.844 202.954 333.067 189.11 333.067C175.267 333.067 149.438 321.844 149.438 308Z" fill="#FBCB74"/>
<path d="M195.326 296.92V319.08C195.326 321.68 194.266 324.04 192.566 325.75C186.788 331.64 176.403 327.439 176.466 319.08V296.92C176.924 284.466 194.823 284.368 195.326 296.92Z" fill="#3F5D77"/>
<path d="M195.326 296.92V319.08C195.321 321.734 194.23 324.149 192.446 325.86C188.186 324.95 184.996 321.17 184.996 316.64V294.48C184.996 291.82 186.106 289.41 187.886 287.7C192.136 288.61 195.326 292.39 195.326 296.92Z" fill="#2E3140"/>
<path d="M189.067 301.699C189.067 296.763 193.069 292.761 198.005 292.761C209.856 293.219 209.853 310.182 198.005 310.638C193.069 310.638 189.067 306.636 189.067 301.699Z" fill="white"/>
<path d="M326.05 382.31C326.05 393.81 323.28 404.66 318.37 414.23C306.76 436.87 283.19 452.36 256 452.36C217.31 452.36 185.95 421 185.95 382.31C185.95 359.12 197.21 338.57 214.57 325.83C226.17 317.3 240.5 312.26 256 312.26C294.69 312.26 326.05 343.62 326.05 382.31Z" fill="#EA792E"/>
<path d="M326.05 382.31C326.05 393.81 323.28 404.66 318.37 414.23C306.77 422.76 292.44 427.8 276.94 427.8C238.25 427.8 206.89 396.44 206.89 357.75C206.89 346.25 209.66 335.4 214.57 325.83C226.17 317.3 240.5 312.26 256 312.26C294.69 312.26 326.05 343.62 326.05 382.31Z" fill="#F39E22"/>
<path d="M268.486 369.707C261.591 369.707 256.002 364.118 256.002 357.223V328.868C256.002 321.973 261.591 316.384 268.486 316.384C275.381 316.384 280.97 321.973 280.97 328.868V357.223C280.97 364.118 275.381 369.707 268.486 369.707Z" fill="#F9C744"/>
<path d="M256 445.908C273.878 445.908 288.371 437.067 288.371 426.16C288.371 415.253 273.878 406.412 256 406.412C238.122 406.412 223.629 415.253 223.629 426.16C223.629 437.067 238.122 445.908 256 445.908Z" fill="#F39E22"/>
<path d="M297.717 407.855C307.269 407.855 315.012 400.112 315.012 390.56C315.012 381.008 307.269 373.265 297.717 373.265C288.165 373.265 280.422 381.008 280.422 390.56C280.422 400.112 288.165 407.855 297.717 407.855Z" fill="#F9C744"/>
<path d="M214.283 407.855C223.835 407.855 231.578 400.112 231.578 390.56C231.578 381.008 223.835 373.265 214.283 373.265C204.731 373.265 196.988 381.008 196.988 390.56C196.988 400.112 204.731 407.855 214.283 407.855Z" fill="#F9C744"/>
<path d="M331.171 377.31C328.41 377.31 326.171 379.549 326.171 382.31C326.171 396.296 322.839 406.559 316.268 412.814C308.971 419.76 300.103 419.409 299.76 419.392L299.446 419.382C290.457 419.382 286.275 415.628 280.979 410.874C276.006 406.41 270.451 401.444 260.832 400.143V394.372C262.174 393.839 263.434 393.093 264.549 392.13C267.427 389.643 269.078 386.036 269.078 382.234V382.007C269.078 381.161 269.766 380.473 270.611 380.473H272.895C275.656 380.473 277.895 378.234 277.895 375.473V365.022C277.895 362.261 275.656 360.022 272.895 360.022H239.11C236.349 360.022 234.11 362.261 234.11 365.022V375.473C234.11 378.234 236.349 380.473 239.11 380.473H241.394C242.239 380.473 242.927 381.161 242.927 382.007C242.927 387.408 246.16 392.184 250.832 394.234V400.143C241.213 401.444 235.658 406.41 230.685 410.874C225.389 415.627 221.206 419.382 212.218 419.382L212 419.387C211.625 419.398 202.872 419.636 195.65 412.674C189.133 406.39 185.828 396.174 185.828 382.31C185.828 379.549 183.589 377.31 180.828 377.31C178.067 377.31 175.828 379.549 175.828 382.31C175.828 399.108 180.219 411.801 188.879 420.036C198.763 429.434 210.694 429.43 212.303 429.383C225.064 429.357 231.598 423.492 237.364 418.317C242.66 413.564 246.843 409.809 255.831 409.809C264.819 409.809 269.002 413.563 274.298 418.317C280.059 423.489 286.588 429.348 299.331 429.383C299.484 429.389 299.716 429.395 300.018 429.395C303.164 429.395 313.93 428.728 322.995 420.216C331.738 412.007 336.17 399.254 336.17 382.311C336.171 379.549 333.933 377.31 331.171 377.31Z" fill="#BF5E39"/>
<path d="M247.927 378.008C247.927 382.041 250.789 385.635 254.78 386.22C259.782 386.953 264.077 383.096 264.077 378.235V378.008C264.077 374.4 267.002 371.474 270.611 371.474H272.895C277.355 371.474 280.97 367.859 280.97 363.399C280.97 358.939 277.355 355.324 272.895 355.324H239.11C234.65 355.324 231.035 358.939 231.035 363.399C231.035 367.859 234.65 371.474 239.11 371.474H241.394C245.002 371.474 247.927 374.399 247.927 378.008Z" fill="#ED72AB"/>
<path d="M269.062 366.385H250.024C246.97 366.385 244.494 363.909 244.494 360.855C244.494 357.801 246.97 355.325 250.024 355.325H269.062C272.116 355.325 274.592 357.801 274.592 360.855C274.592 363.909 272.116 366.385 269.062 366.385Z" fill="#F0A6B3"/>
<path d="M391.78 418.34C391.56 417.88 386.33 406.99 371.63 399.97C364.55 396.59 356.64 394.67 347.92 394.21C333.04 393.43 315.81 396.9 296.42 404.6C294.63 405.32 293.75 407.35 294.46 409.15C295.18 410.94 297.21 411.82 299.01 411.11C317.93 403.59 334.93 400.33 349.21 401.39C356.21 401.91 362.56 403.47 368.16 406.07C380.82 411.95 385.41 421.23 385.44 421.31C386.04 422.58 387.3 423.33 388.61 423.33C389.11 423.33 389.62 423.22 390.1 423C391.85 422.17 392.6 420.09 391.78 418.34ZM431.47 381.95C430.98 381.56 419.21 372.16 396.48 368.2C384.64 366.14 368.36 365.39 348.07 369.35C332.94 372.29 315.58 377.85 296.17 387.42C294.44 388.28 293.72 390.37 294.58 392.11C295.19 393.34 296.43 394.06 297.72 394.06C298.24 394.06 298.77 393.94 299.26 393.7C317.2 384.86 333.25 379.57 347.3 376.64C367.33 372.45 383.29 373.06 394.79 375.01C415.9 378.59 426.95 387.31 427.06 387.39C428.56 388.61 430.76 388.38 431.98 386.88C433.2 385.38 432.97 383.17 431.47 381.95ZM472.27 342.45C471.55 342.14 454.25 335 423.74 334.86C406.72 334.81 383.39 337.01 355.31 345.42C337.37 350.8 317.48 358.71 296.06 370.18C294.36 371.09 293.72 373.21 294.63 374.92C295.26 376.1 296.47 376.77 297.72 376.77C298.28 376.77 298.84 376.63 299.37 376.35C318.22 366.26 335.83 358.98 351.91 353.8C381.18 344.37 405.39 341.86 422.85 341.86H423.26C452.52 341.92 469.39 348.83 469.55 348.9C471.33 349.65 473.39 348.81 474.14 347.03C474.89 345.25 474.05 343.2 472.27 342.45Z" fill="#EBD9EA"/>
<path d="M391.78 418.34C392.6 420.09 391.85 422.17 390.1 423C389.62 423.22 389.11 423.33 388.61 423.33C387.3 423.33 386.04 422.58 385.44 421.31C385.41 421.23 380.82 411.95 368.16 406.07C362.56 403.47 356.21 401.91 349.21 401.39C348.68 399.03 348.24 396.64 347.92 394.21C356.64 394.67 364.55 396.59 371.63 399.97C386.33 406.99 391.56 417.88 391.78 418.34Z" fill="white"/>
<path d="M431.98 386.88C430.76 388.38 428.56 388.61 427.06 387.39C426.95 387.31 415.9 378.59 394.79 375.01C383.29 373.06 367.33 372.45 347.3 376.64C347.45 374.18 347.71 371.75 348.07 369.35C368.36 365.39 384.64 366.14 396.48 368.2C419.21 372.16 430.98 381.56 431.47 381.95C432.97 383.17 433.2 385.38 431.98 386.88Z" fill="white"/>
<path d="M474.14 347.03C473.39 348.81 471.33 349.65 469.55 348.9C469.39 348.83 452.52 341.92 423.26 341.86H422.85C405.39 341.86 381.18 344.37 351.91 353.8C352.89 350.93 354.03 348.14 355.31 345.42C383.39 337.01 406.72 334.81 423.74 334.86C454.25 335 471.55 342.14 472.27 342.45C474.05 343.2 474.89 345.25 474.14 347.03Z" fill="white"/>
<path d="M121.903 423C122.383 423.22 122.893 423.33 123.393 423.33C124.703 423.33 125.963 422.58 126.563 421.31C126.593 421.23 131.183 411.95 143.843 406.07C149.443 403.47 155.793 401.91 162.793 401.39C177.073 400.33 194.073 403.59 212.993 411.11C214.793 411.82 216.823 410.94 217.543 409.15C218.253 407.35 217.373 405.32 215.583 404.6C196.193 396.9 178.963 393.43 164.083 394.21C155.363 394.67 147.453 396.59 140.373 399.97C125.673 406.99 120.443 417.88 120.223 418.34C119.403 420.09 120.153 422.17 121.903 423ZM80.023 386.88C81.243 388.38 83.443 388.61 84.943 387.39C85.053 387.31 96.103 378.59 117.213 375.01C128.713 373.06 144.673 372.45 164.703 376.64C178.753 379.57 194.803 384.86 212.743 393.7C213.233 393.94 213.763 394.06 214.283 394.06C215.573 394.06 216.813 393.34 217.423 392.11C218.283 390.37 217.563 388.28 215.833 387.42C196.423 377.85 179.063 372.29 163.933 369.35C143.643 365.39 127.363 366.14 115.523 368.2C92.793 372.16 81.023 381.56 80.533 381.95C79.033 383.17 78.803 385.38 80.023 386.88ZM37.863 347.03C38.613 348.81 40.673 349.65 42.453 348.9C42.613 348.83 59.483 341.92 88.743 341.86H89.153C106.613 341.86 130.823 344.37 160.093 353.8C176.173 358.98 193.783 366.26 212.633 376.35C213.163 376.63 213.723 376.77 214.283 376.77C215.533 376.77 216.743 376.1 217.373 374.92C218.283 373.21 217.643 371.09 215.943 370.18C194.523 358.71 174.633 350.8 156.693 345.42C128.613 337.01 105.283 334.81 88.263 334.86C57.753 335 40.453 342.14 39.733 342.45C37.953 343.2 37.113 345.25 37.863 347.03Z" fill="#EBD9EA"/>
<path d="M120.223 418.34C119.403 420.09 120.153 422.17 121.903 423C122.383 423.22 122.893 423.33 123.393 423.33C124.703 423.33 125.963 422.58 126.563 421.31C126.593 421.23 131.183 411.95 143.843 406.07C149.443 403.47 155.793 401.91 162.793 401.39C163.323 399.03 163.763 396.64 164.083 394.21C155.363 394.67 147.453 396.59 140.373 399.97C125.673 406.99 120.443 417.88 120.223 418.34Z" fill="white"/>
<path d="M80.023 386.88C81.243 388.38 83.443 388.61 84.943 387.39C85.053 387.31 96.103 378.59 117.213 375.01C128.713 373.06 144.673 372.45 164.703 376.64C164.553 374.18 164.293 371.75 163.933 369.35C143.643 365.39 127.363 366.14 115.523 368.2C92.793 372.16 81.023 381.56 80.533 381.95C79.033 383.17 78.803 385.38 80.023 386.88Z" fill="white"/>
<path d="M37.863 347.03C38.613 348.81 40.673 349.65 42.453 348.9C42.613 348.83 59.483 341.92 88.743 341.86H89.153C106.613 341.86 130.823 344.37 160.093 353.8C159.113 350.93 157.973 348.14 156.693 345.42C128.613 337.01 105.283 334.81 88.263 334.86C57.753 335 40.453 342.14 39.733 342.45C37.953 343.2 37.113 345.25 37.863 347.03Z" fill="white"/>
<path d="M90.9072 210.186H148.248C154.272 210.186 159.155 215.069 159.155 221.093C159.155 227.117 154.272 232 148.248 232H90.9072C84.8833 232 80 227.117 80 221.093C80 215.069 84.8833 210.186 90.9072 210.186Z" fill="#F9A824"/>
<path d="M84.9766 212.876L103.953 198.704L108.801 205.196L89.8249 219.368L84.9766 212.876Z" fill="#F9A824"/>
<path d="M149.494 215.795H190.63C193.556 215.795 195.928 218.167 195.928 221.093C195.928 224.019 193.556 226.391 190.63 226.391H149.494C146.569 226.391 144.197 224.019 144.197 221.093C144.197 218.167 146.569 215.795 149.494 215.795Z" fill="#FDD835"/>
<path d="M306.87 205.823H154.169C152.448 205.823 151.053 207.218 151.053 208.939V232H306.87V205.823Z" fill="#FDD835"/>
<path d="M353.615 200.837H418.435V232H353.615V200.837Z" fill="#FDEF59"/>
<path d="M147.001 226.391H218.054C219.603 226.391 220.859 227.646 220.859 229.195C220.859 230.744 219.603 232 218.054 232H147.001C145.452 232 144.197 230.744 144.197 229.195C144.197 227.646 145.452 226.391 147.001 226.391Z" fill="#F9A824"/>
<path d="M99.3213 205.823H153.546V212.679H99.3213V205.823Z" fill="#F9A824"/>
<path d="M145.706 216.646L151.361 207.427C152.137 206.163 153.791 205.767 155.056 206.542C156.32 207.318 156.717 208.972 155.941 210.237L150.286 219.455C149.51 220.72 147.856 221.116 146.592 220.341C145.327 219.565 144.931 217.911 145.706 216.646Z" fill="#FDD835"/>
<path d="M300.949 205.823H415.63C417.179 205.823 418.435 207.078 418.435 208.627C418.435 210.176 417.179 211.432 415.63 211.432H300.949C299.4 211.432 298.144 210.176 298.144 208.627C298.144 207.078 299.4 205.823 300.949 205.823Z" fill="#FDEF59"/>
<path d="M376.676 220.781C376.676 215.618 372.49 211.432 367.327 211.432H280.693V232H376.676V220.781Z" fill="#FDD835"/>
<path d="M401.419 178.719C401.858 173.379 406.543 169.406 411.883 169.845C417.222 170.284 421.195 174.969 420.756 180.308L418.356 209.501C417.917 214.841 413.233 218.814 407.893 218.375C402.553 217.936 398.58 213.251 399.019 207.911L401.419 178.719Z" fill="#FDEF59"/>
<path d="M401.295 211.432H428.719C434.399 211.432 439.003 216.036 439.003 221.716C439.003 227.396 434.399 232 428.719 232H401.295C395.615 232 391.011 227.396 391.011 221.716C391.011 216.036 395.615 211.432 401.295 211.432Z" fill="#FDEF59"/>
<path d="M409.719 211.192L418.373 200.556L435.022 214.103L426.368 224.739L409.719 211.192Z" fill="#FDEF59"/>
<path d="M127.368 200.837H415.942C417.319 200.837 418.435 201.953 418.435 203.33C418.435 204.707 417.319 205.823 415.942 205.823H127.368C125.992 205.823 124.875 204.707 124.875 203.33C124.875 201.953 125.992 200.837 127.368 200.837Z" fill="#F9A824"/>
<path d="M99.2439 180.673C98.8051 175.334 102.778 170.649 108.118 170.21C113.458 169.771 118.142 173.744 118.581 179.084L120.98 208.277C121.419 213.617 117.446 218.301 112.106 218.74C106.766 219.179 102.082 215.206 101.643 209.866L99.2439 180.673Z" fill="#F9A824"/>
<path d="M111.163 170.608C111.163 151.169 115 131.921 122.455 113.961C129.91 96.0015 140.836 79.6831 154.611 65.9375L259.501 170.608H111.163Z" fill="#F9A824"/>
<path d="M154.611 65.9375C167.145 53.4298 181.824 43.265 197.952 35.9255L259.501 170.608L154.611 65.9375Z" fill="#FDD835"/>
<path d="M197.798 45.6427C166.129 45.6427 140.457 71.3151 140.457 102.983V169.673H197.798V45.6427Z" fill="#FDD835"/>
<path d="M111.163 169.673H205.9V205.823H111.163V169.673Z" fill="#F9A824"/>
<path d="M197.798 175.283H140.457V185.255C140.457 193.86 147.433 200.837 156.039 200.837H197.798V175.283Z" fill="#FDD835"/>
<path d="M364.392 65.9375C378.167 79.6831 389.093 96.0015 396.548 113.961C404.002 131.921 407.839 151.169 407.839 170.608H259.501L364.392 65.9375Z" fill="#FDEF59"/>
<path d="M320.167 35.5266C335.652 42.4523 349.833 51.9784 362.091 63.6903L259.501 170.608L320.167 35.5266Z" fill="#FDD835"/>
<path d="M238.934 7C216.215 7 197.798 25.4171 197.798 48.1357V200.837H238.934V7Z" fill="#F9A824"/>
<path d="M321.828 48.1357C321.828 25.4171 303.411 7 280.693 7V200.837H321.828V48.1357Z" fill="#F9A824"/>
<path d="M238.934 22.5817H280.693V200.837H238.934V22.5817Z" fill="#FDD835"/>
<path d="M376.676 92.3878C376.676 72.4226 360.491 56.2382 340.526 56.2382H321.828V169.673H376.676V92.3878Z" fill="#FDD835"/>
<path d="M340.526 170.92H409.709V200.837H340.526V170.92Z" fill="#FDEF59"/>
<path d="M376.676 185.878C376.676 182.78 374.165 180.269 371.066 180.269H321.828V200.837H376.676V185.878Z" fill="#FDD835"/>
<path d="M321.828 170.92H340.526V198.967H321.828V170.92Z" fill="#FDD835"/>
<path d="M409.709 171.516C409.709 170.154 408.605 169.05 407.243 169.05H321.828V175.283H405.942C408.023 175.283 409.709 173.596 409.709 171.516Z" fill="#F9A824"/>
<path d="M259.501 190.864C216.818 190.864 182.216 156.262 182.216 113.579C182.216 70.8954 216.818 36.2936 259.501 36.2936C302.185 36.2936 336.787 70.8954 336.787 113.579C336.787 156.262 302.185 190.864 259.501 190.864Z" fill="#FDEF59"/>
<path d="M259.501 155.338C236.783 155.338 218.366 136.921 218.366 114.202C218.366 91.4836 236.783 73.0665 259.501 73.0665C282.22 73.0665 300.637 91.4836 300.637 114.202C300.637 136.921 282.22 155.338 259.501 155.338Z" fill="#E2F4FF"/>
<path d="M268.539 146.612C243.927 146.612 223.975 126.66 223.975 102.048C223.975 77.4366 243.927 57.4848 268.539 57.4848C293.151 57.4848 313.102 77.4366 313.102 102.048C313.102 126.66 293.151 146.612 268.539 146.612Z" fill="white"/>
<path d="M192.812 115.137C192.812 152.485 223.088 182.762 260.436 182.762C297.784 182.762 328.061 152.485 328.061 115.137C328.061 77.789 297.784 47.5125 260.436 47.5125C223.088 47.5125 192.812 77.789 192.812 115.137ZM309.675 115.137C309.675 142.33 287.63 164.375 260.436 164.375C233.243 164.375 211.198 142.33 211.198 115.137C211.198 87.9439 233.243 65.8989 260.436 65.8989C287.63 65.8989 309.675 87.9439 309.675 115.137Z" fill="#F9A824"/>
<path d="M207.77 114.202C207.77 142.428 230.652 165.31 258.878 165.31C287.104 165.31 309.986 142.428 309.986 114.202C309.986 85.9762 287.104 63.0942 258.878 63.0942C230.652 63.0942 207.77 85.9762 207.77 114.202ZM299.391 114.202C299.391 136.577 281.253 154.715 258.878 154.715C236.503 154.715 218.366 136.577 218.366 114.202C218.366 91.8275 236.503 73.6897 258.878 73.6897C281.253 73.6897 299.391 91.8275 299.391 114.202Z" fill="#F17F16"/>
<path d="M230.516 7.91299C219.205 10.8473 208.289 15.1362 198.005 20.6867L199.364 23.2057C209.445 17.7646 220.146 13.5602 231.235 10.6837L230.516 7.91299Z" fill="#F9A824"/>
<path d="M197.798 20.7119H211.51V45.6427H197.798V20.7119Z" fill="#F9A824"/>
<path d="M308.116 20.7119H321.828V45.6427H308.116V20.7119Z" fill="#F9A824"/>
<path d="M216.496 15.1025H211.51C206.691 15.1025 202.784 19.0091 202.784 23.8282V40.0332H216.496V15.1025Z" fill="#F9A824"/>
<path d="M316.842 23.205C316.842 19.4186 313.773 16.349 309.986 16.349C306.2 16.349 303.13 19.4186 303.13 23.205V41.2798H316.842V23.205Z" fill="#F9A824"/>
<path d="M321.983 19.6457C312.884 15.3313 303.432 11.8041 293.731 9.1026L292.862 12.224C302.385 14.8758 311.663 18.3383 320.595 22.5734L321.983 19.6457Z" fill="#F9A824"/>
<path d="M341.15 175.283H382.285C383.662 175.283 384.778 176.399 384.778 177.776C384.778 179.153 383.662 180.269 382.285 180.269H341.15C339.773 180.269 338.657 179.153 338.657 177.776C338.657 176.399 339.773 175.283 341.15 175.283Z" fill="#FDEF59"/>
</svg>
