<svg width="512" height="512" viewBox="0 0 512 512" fill="none" xmlns="http://www.w3.org/2000/svg">
<path d="M256 512C397.385 512 512 397.385 512 256C512 114.615 397.385 0 256 0C114.615 0 0 114.615 0 256C0 397.385 114.615 512 256 512Z" fill="#6C53A2"/>
<path d="M434.726 125.555L415.265 96.462C402.216 76.971 374.613 74.262 358.027 90.848L317.492 131.383C312.951 130.702 308.303 130.346 303.571 130.346H208.428C203.697 130.346 199.049 130.702 194.507 131.383L153.972 90.848C137.386 74.262 109.783 76.971 96.734 96.462L77.273 125.555C67.392 140.312 69.319 159.999 81.879 172.558L116.734 207.414C115.833 212.613 115.359 217.958 115.359 223.415V318.558C115.359 369.961 157.024 411.626 208.427 411.626H303.57C354.973 411.626 396.638 369.961 396.638 318.558V223.415C396.638 217.958 396.164 212.613 395.263 207.414L430.119 172.558C442.681 159.998 444.607 140.312 434.726 125.555Z" fill="#EA792E"/>
<path d="M430.121 172.561L395.267 207.415C396.161 212.609 396.64 217.962 396.64 223.411V318.554C396.64 369.957 354.975 411.622 303.572 411.622H256V130.342H303.572C308.308 130.342 312.948 130.704 317.492 131.385L358.029 90.848C374.61 74.256 402.217 76.97 415.264 96.457L434.729 125.554C444.606 140.314 442.679 160.003 430.121 172.561Z" fill="#F39E22"/>
<path d="M340.864 323.901V364.414C340.864 372.216 349.063 377.299 356.051 373.83L370.805 366.505C373.952 364.943 376.111 361.911 376.557 358.426L381.796 317.551C382.808 309.658 375.024 303.547 367.596 306.403L347.603 314.09C343.543 315.65 340.864 319.551 340.864 323.901Z" fill="#F9C744"/>
<path d="M171.136 323.901V364.414C171.136 372.216 162.937 377.299 155.949 373.83L141.195 366.505C138.048 364.943 135.889 361.911 135.443 358.426L130.204 317.551C129.192 309.658 136.976 303.547 144.404 306.403L164.397 314.09C168.457 315.65 171.136 319.551 171.136 323.901Z" fill="#F39E22"/>
<path d="M366.157 335.743L352.4 342.016C345.756 345.046 337.915 342.116 334.885 335.472L332.653 330.577C329.623 323.933 332.553 316.092 339.197 313.062L352.954 306.789C359.598 303.759 367.439 306.689 370.469 313.333L372.701 318.228C375.73 324.872 372.8 332.713 366.157 335.743Z" fill="#3E4E60"/>
<path d="M396.64 265.683V300.622L395.225 301.271C388.573 304.294 380.73 301.367 377.707 294.726L375.472 289.83C372.439 283.178 375.376 275.346 382.017 272.313L395.767 266.045C396.055 265.917 396.342 265.789 396.64 265.683Z" fill="#3E4E60"/>
<path d="M381.632 235.031L367.875 241.304C361.231 244.334 353.39 241.404 350.36 234.76L348.128 229.865C345.098 223.221 348.028 215.38 354.672 212.35L368.429 206.077C375.073 203.047 382.914 205.977 385.944 212.621L388.176 217.516C391.206 224.16 388.276 232.001 381.632 235.031Z" fill="#3E4E60"/>
<path d="M322.686 179.012L308.929 185.285C302.285 188.315 294.444 185.385 291.414 178.741L289.182 173.846C286.152 167.202 289.082 159.361 295.726 156.331L309.483 150.058C316.127 147.028 323.968 149.958 326.998 156.602L329.23 161.497C332.259 168.14 329.329 175.982 322.686 179.012Z" fill="#3E4E60"/>
<path d="M145.843 335.743L159.6 342.016C166.244 345.046 174.085 342.116 177.115 335.472L179.347 330.577C182.377 323.933 179.447 316.092 172.803 313.062L159.046 306.789C152.402 303.759 144.561 306.689 141.531 313.333L139.299 318.228C136.27 324.872 139.199 332.713 145.843 335.743Z" fill="#2E3140"/>
<path d="M115.36 265.683V300.622L116.775 301.271C123.427 304.294 131.27 301.367 134.293 294.726L136.528 289.83C139.561 283.178 136.624 275.346 129.983 272.313L116.233 266.045C115.945 265.917 115.658 265.789 115.36 265.683Z" fill="#2E3140"/>
<path d="M130.368 235.031L144.125 241.304C150.769 244.334 158.61 241.404 161.64 234.76L163.872 229.865C166.902 223.221 163.972 215.38 157.328 212.35L143.571 206.077C136.927 203.047 129.086 205.977 126.056 212.621L123.824 217.516C120.794 224.16 123.724 232.001 130.368 235.031Z" fill="#2E3140"/>
<path d="M189.314 179.012L203.071 185.285C209.715 188.315 217.556 185.385 220.586 178.741L222.818 173.846C225.848 167.202 222.918 159.361 216.274 156.331L202.517 150.058C195.873 147.028 188.032 149.958 185.002 156.602L182.77 161.497C179.741 168.14 182.67 175.982 189.314 179.012Z" fill="#2E3140"/>
<path d="M322.388 336.831V410.732C322.388 434.997 302.71 454.675 278.445 454.675H233.555C209.29 454.675 189.612 434.997 189.612 410.722V336.831C189.612 322.485 196.487 309.746 207.119 301.722C214.303 296.316 218.677 287.972 218.677 278.979V261.749C218.677 251.436 227.031 243.071 237.344 243.071H274.657C284.969 243.071 293.324 251.436 293.324 261.749V278.979C293.324 287.972 297.698 296.316 304.882 301.722C315.513 309.746 322.388 322.485 322.388 336.831Z" fill="#F39E22"/>
<path d="M322.388 336.831V410.732C322.388 434.997 302.71 454.675 278.445 454.675H256V243.071H274.656C284.968 243.071 293.323 251.436 293.323 261.749V278.979C293.323 287.972 297.697 296.316 304.881 301.722C315.513 309.746 322.388 322.485 322.388 336.831Z" fill="#F9C744"/>
<path d="M324.028 407.381C322.186 406.476 319.953 407.238 319.045 409.08C318.948 409.276 309.166 428.732 292.714 428.732C279.743 428.431 265.212 430.194 260.997 419.663C269.728 417.578 276.275 409.156 276.147 400.165C275.936 396.346 278.978 393.063 282.819 393.076H287.012C289.951 393.076 292.333 390.693 292.333 387.755C292.333 384.817 289.951 382.434 287.012 382.434H282.819C273.272 382.434 265.504 390.201 265.504 399.749C265.723 403.952 262.869 408.047 258.833 409.235C257.501 407.489 254.497 407.49 253.166 409.236C249.286 408.008 246.501 404.167 246.501 399.75C246.501 390.202 238.733 382.435 229.186 382.435H224.993C222.054 382.435 219.672 384.818 219.672 387.756C219.672 390.694 222.054 393.077 224.993 393.077H229.186C232.865 393.077 235.858 396.07 235.858 399.749C235.858 409.209 242.24 417.431 250.997 419.68C246.789 430.184 232.249 428.431 219.287 428.733C202.835 428.733 193.053 409.277 192.956 409.08C192.052 407.237 189.823 406.471 187.977 407.375C186.129 408.279 185.363 410.51 186.266 412.357C186.899 414.177 200.028 437.926 221.546 436.185C235.094 436.147 249.112 436.51 256 426.157C263.169 437.089 278.917 436.117 292.713 436.182C313.843 436.182 325.258 413.33 325.734 412.358C326.636 410.512 325.872 408.287 324.028 407.381Z" fill="#DD5E26"/>
<path d="M395.081 413.089C394.847 412.599 389.281 401.01 373.636 393.539C366.101 389.942 357.683 387.899 348.403 387.409C332.567 386.579 314.23 390.272 293.594 398.467C291.689 399.233 290.752 401.394 291.508 403.309C292.274 405.214 294.435 406.151 296.35 405.395C316.485 397.392 334.578 393.922 349.775 395.051C357.225 395.604 363.983 397.265 369.942 400.032C383.415 406.29 388.3 416.166 388.332 416.251C388.971 417.603 390.311 418.401 391.706 418.401C392.238 418.401 392.781 418.284 393.292 418.05C395.155 417.165 395.954 414.952 395.081 413.089Z" fill="#EBD9EA"/>
<path d="M395.081 413.089C395.954 414.951 395.155 417.165 393.293 418.048C392.782 418.282 392.239 418.399 391.707 418.399C390.313 418.399 388.972 417.601 388.333 416.249C388.301 416.164 383.416 406.288 369.943 400.03C363.983 397.263 357.225 395.603 349.776 395.049C349.212 392.537 348.744 389.994 348.403 387.408C357.683 387.898 366.101 389.941 373.636 393.538C389.281 401.01 394.847 412.6 395.081 413.089Z" fill="white"/>
<path d="M412.645 367.438C412.296 367.023 404.007 357.194 386.991 353.876C378.796 352.279 370.134 352.407 361.027 354.255C345.487 357.414 328.658 365.578 310.729 378.675C309.076 379.894 308.71 382.22 309.921 383.885C311.14 385.538 313.466 385.904 315.131 384.693C332.623 371.906 349.272 364.02 364.268 361.309C371.619 359.981 378.578 359.897 385.04 361.085C399.651 363.772 406.851 372.112 406.904 372.186C407.86 373.335 409.358 373.772 410.708 373.423C411.223 373.29 411.719 373.041 412.155 372.686C413.737 371.366 413.956 369.023 412.645 367.438Z" fill="#EBD9EA"/>
<path d="M412.645 367.438C413.956 369.023 413.737 371.366 412.155 372.687C411.719 373.041 411.223 373.291 410.708 373.424C409.358 373.773 407.86 373.336 406.904 372.187C406.852 372.113 399.651 363.773 385.04 361.086C378.577 359.898 371.619 359.982 364.268 361.31C363.093 359.019 362.004 356.674 361.027 354.255C370.135 352.407 378.796 352.279 386.991 353.876C404.007 357.195 412.296 367.023 412.645 367.438Z" fill="white"/>
<path d="M118.707 418.049C119.218 418.283 119.761 418.4 120.293 418.4C121.687 418.4 123.028 417.602 123.667 416.25C123.699 416.165 128.584 406.289 142.057 400.031C148.017 397.264 154.775 395.604 162.224 395.05C177.421 393.922 195.514 397.391 215.649 405.394C217.565 406.15 219.725 405.213 220.491 403.308C221.247 401.392 220.31 399.232 218.405 398.466C197.769 390.271 179.432 386.578 163.596 387.408C154.316 387.898 145.898 389.941 138.363 393.538C122.719 401.009 117.153 412.599 116.918 413.088C116.046 414.952 116.845 417.165 118.707 418.049Z" fill="#EBD9EA"/>
<path d="M116.919 413.089C116.046 414.951 116.845 417.165 118.707 418.048C119.218 418.282 119.761 418.399 120.293 418.399C121.687 418.399 123.028 417.601 123.667 416.249C123.699 416.164 128.584 406.288 142.057 400.03C148.017 397.263 154.775 395.603 162.224 395.049C162.788 392.537 163.256 389.994 163.597 387.408C154.317 387.898 145.899 389.941 138.364 393.538C122.719 401.01 117.153 412.6 116.919 413.089Z" fill="white"/>
<path d="M99.845 372.687C100.281 373.041 100.777 373.291 101.292 373.424C102.642 373.773 104.14 373.336 105.096 372.187C105.148 372.113 112.349 363.773 126.96 361.086C133.423 359.898 140.381 359.982 147.732 361.31C162.728 364.021 179.377 371.907 196.869 384.694C198.535 385.905 200.861 385.539 202.079 383.886C203.29 382.22 202.924 379.894 201.271 378.676C183.342 365.578 166.513 357.414 150.973 354.256C141.865 352.408 133.204 352.28 125.009 353.877C107.993 357.196 99.704 367.024 99.355 367.439C98.044 369.023 98.263 371.366 99.845 372.687Z" fill="#EBD9EA"/>
<path d="M99.355 367.438C98.044 369.023 98.263 371.366 99.845 372.687C100.281 373.041 100.777 373.291 101.292 373.424C102.642 373.773 104.14 373.336 105.096 372.187C105.148 372.113 112.349 363.773 126.96 361.086C133.423 359.898 140.381 359.982 147.732 361.31C148.907 359.019 149.996 356.674 150.973 354.255C141.865 352.407 133.204 352.279 125.009 353.876C107.993 357.195 99.704 367.023 99.355 367.438Z" fill="white"/>
<path d="M241.179 396.556C241.179 403.96 246.434 410.557 253.759 411.631C262.941 412.977 270.825 405.896 270.825 396.973V396.556C270.825 389.932 276.195 384.563 282.818 384.563H287.011C295.198 384.563 301.834 377.926 301.834 369.74C301.834 361.553 295.197 354.917 287.011 354.917H224.992C216.805 354.917 210.169 361.554 210.169 369.74C210.169 377.927 216.806 384.563 224.992 384.563H229.185C235.81 384.563 241.18 389.932 241.179 396.556Z" fill="#C0405C"/>
<path d="M279.975 375.22H245.028C239.421 375.22 234.876 370.675 234.876 365.068C234.876 359.461 239.421 354.916 245.028 354.916H279.975C285.582 354.916 290.127 359.461 290.127 365.068C290.127 370.675 285.581 375.22 279.975 375.22Z" fill="#E9465E"/>
<path d="M287.012 320.783V354.913H256V289.77C273.124 289.77 287.012 303.659 287.012 320.783Z" fill="#F39E22"/>
<path d="M224.99 320.783V354.913H256.002V289.77C238.879 289.77 224.99 303.659 224.99 320.783Z" fill="#EA792E"/>
<path d="M368.885 267.133C366.327 252.624 337.182 245.635 322.673 248.193C308.164 250.751 298.475 264.588 301.034 279.097C303.592 293.606 317.429 303.295 331.938 300.736C346.447 298.178 371.443 281.642 368.885 267.133Z" fill="#53B976"/>
<path d="M338.509 260.515L342.604 283.74C343.084 286.465 342.41 289.134 340.944 291.241C335.977 298.482 324.316 295.999 322.837 287.225L318.742 264C316.92 250.863 335.662 247.453 338.509 260.515Z" fill="#3E4E60"/>
<path d="M338.509 260.515L342.604 283.74C343.089 286.522 342.392 289.255 340.839 291.378C336.206 291.212 332.164 287.839 331.327 283.092L327.232 259.867C326.74 257.079 327.458 254.348 329.008 252.227C333.63 252.395 337.672 255.767 338.509 260.515Z" fill="#2E3140"/>
<path d="M352.531 263.208C351.619 258.034 346.685 254.58 341.511 255.492C329.174 258.162 332.313 275.94 344.815 274.228C349.988 273.315 353.443 268.382 352.531 263.208Z" fill="white"/>
<path d="M143.115 267.133C145.673 252.624 174.818 245.635 189.327 248.193C203.836 250.751 213.525 264.588 210.966 279.097C208.408 293.606 194.571 303.295 180.062 300.736C165.553 298.177 140.557 281.642 143.115 267.133Z" fill="#53B976"/>
<path d="M193.257 264L189.162 287.225C188.682 289.95 187.134 292.228 185.037 293.706C177.893 298.811 167.785 292.49 169.396 283.74L173.491 260.515C176.271 247.547 195.049 250.752 193.257 264Z" fill="#3E4E60"/>
<path d="M193.257 264L189.162 287.225C188.666 290.005 187.077 292.335 184.891 293.799C180.594 292.058 177.95 287.507 178.787 282.759L182.882 259.534C183.374 256.746 184.982 254.425 187.164 252.962C191.45 254.701 194.095 259.253 193.257 264Z" fill="#2E3140"/>
<path d="M185.814 267.853C186.726 262.679 191.66 259.225 196.834 260.137C209.171 262.807 206.032 280.585 193.53 278.873C188.356 277.961 184.902 273.027 185.814 267.853Z" fill="white"/>
<path d="M314.814 193.546H303.832C294.689 193.546 287.277 200.958 287.277 210.101V224.823C287.277 233.966 294.689 241.378 303.832 241.378H314.814C323.957 241.378 331.369 233.966 331.369 224.823V210.101C331.369 200.958 323.957 193.546 314.814 193.546Z" fill="#EA792E"/>
<path d="M208.168 193.546H197.186C188.043 193.546 180.631 200.958 180.631 210.101V224.823C180.631 233.966 188.043 241.378 197.186 241.378H208.168C217.311 241.378 224.723 233.966 224.723 224.823V210.101C224.724 200.958 217.312 193.546 208.168 193.546Z" fill="#DD5E26"/>
<path d="M279.315 159.156V200.377C279.315 213.253 268.877 223.691 256.001 223.691V135.841C268.874 135.841 279.315 146.282 279.315 159.156Z" fill="#F9C744"/>
<path d="M232.688 159.156V200.377C232.688 213.253 243.126 223.691 256.002 223.691V135.841C243.129 135.841 232.688 146.282 232.688 159.156Z" fill="#F39E22"/>
<path d="M430.121 172.558L416.199 186.48C406.777 180.445 397.604 173.107 389.04 164.543C369.008 144.511 355.71 121.189 349.976 98.899L358.028 90.847C374.614 74.261 402.217 76.97 415.266 96.461L434.727 125.554C444.607 140.312 442.681 159.998 430.121 172.558Z" fill="#3E4E60"/>
<path d="M367.031 189.578L336.196 158.743C331.532 154.079 331.532 146.517 336.196 141.854L355.592 122.458C365.885 112.165 383.018 113.847 391.114 125.945L403.193 143.997C409.323 153.158 408.124 165.374 400.33 173.169L383.92 189.579C379.257 194.242 371.695 194.242 367.031 189.578Z" fill="#EA792E"/>
<path d="M81.879 172.558L95.801 186.48C105.223 180.445 114.396 173.107 122.96 164.543C142.992 144.511 156.29 121.189 162.024 98.899L153.972 90.847C137.386 74.261 109.783 76.97 96.734 96.461L77.273 125.554C67.393 140.312 69.319 159.998 81.879 172.558Z" fill="#2E3140"/>
<path d="M144.969 189.578L175.804 158.743C180.468 154.079 180.468 146.517 175.804 141.854L156.408 122.458C146.115 112.165 128.982 113.847 120.886 125.945L108.806 143.997C102.676 153.158 103.875 165.374 111.669 173.169L128.079 189.579C132.743 194.242 140.305 194.242 144.969 189.578Z" fill="#DD5E26"/>
<path d="M94.5122 220.864H149.776C155.582 220.864 160.288 225.596 160.288 231.432C160.288 237.269 155.582 242 149.776 242H94.5122C88.7065 242 84 237.269 84 231.432C84 225.596 88.7065 220.864 94.5122 220.864Z" fill="#F9A824"/>
<path d="M88.7964 223.471L107.085 209.74L111.758 216.03L93.4691 229.761L88.7964 223.471Z" fill="#F9A824"/>
<path d="M150.977 226.299H190.623C193.443 226.299 195.729 228.597 195.729 231.432C195.729 234.267 193.443 236.565 190.623 236.565H150.977C148.158 236.565 145.872 234.267 145.872 231.432C145.872 228.597 148.158 226.299 150.977 226.299Z" fill="#FDD835"/>
<path d="M302.653 216.637H155.483C153.824 216.637 152.479 217.989 152.479 219.657V242H302.653V216.637Z" fill="#FDD835"/>
<path d="M347.705 211.806H410.177V242H347.705V211.806Z" fill="#FDEF59"/>
<path d="M148.575 236.565H217.054C218.547 236.565 219.757 237.782 219.757 239.283C219.757 240.783 218.547 242 217.054 242H148.575C147.082 242 145.872 240.783 145.872 239.283C145.872 237.782 147.082 236.565 148.575 236.565Z" fill="#F9A824"/>
<path d="M102.622 216.637H154.882V223.28H102.622V216.637Z" fill="#F9A824"/>
<path d="M147.327 227.124L152.777 218.192C153.524 216.967 155.119 216.583 156.337 217.334C157.556 218.086 157.938 219.688 157.19 220.914L151.74 229.846C150.993 231.071 149.398 231.455 148.18 230.703C146.961 229.952 146.579 228.349 147.327 227.124Z" fill="#FDD835"/>
<path d="M296.946 216.637H407.474C408.967 216.637 410.177 217.854 410.177 219.355C410.177 220.855 408.967 222.072 407.474 222.072H296.946C295.453 222.072 294.243 220.855 294.243 219.355C294.243 217.854 295.453 216.637 296.946 216.637Z" fill="#FDEF59"/>
<path d="M369.931 231.13C369.931 226.128 365.896 222.072 360.92 222.072H277.424V242H369.931V231.13Z" fill="#FDD835"/>
<path d="M393.778 190.376C394.201 185.203 398.716 181.353 403.862 181.779C409.009 182.204 412.838 186.743 412.414 191.917L410.101 220.201C409.678 225.375 405.163 229.224 400.017 228.799C394.87 228.373 391.041 223.834 391.465 218.661L393.778 190.376Z" fill="#FDEF59"/>
<path d="M393.658 222.072H420.089C425.562 222.072 430 226.533 430 232.036C430 237.539 425.562 242 420.089 242H393.658C388.184 242 383.747 237.539 383.747 232.036C383.747 226.533 388.184 222.072 393.658 222.072Z" fill="#FDEF59"/>
<path d="M401.776 221.839L410.117 211.534L426.163 224.66L417.823 234.965L401.776 221.839Z" fill="#FDEF59"/>
<path d="M129.653 211.806H407.774C409.101 211.806 410.177 212.888 410.177 214.222C410.177 215.556 409.101 216.637 407.774 216.637H129.653C128.326 216.637 127.25 215.556 127.25 214.222C127.25 212.888 128.326 211.806 129.653 211.806Z" fill="#F9A824"/>
<path d="M102.547 192.27C102.124 187.097 105.953 182.558 111.099 182.133C116.246 181.707 120.761 185.557 121.184 190.731L123.496 219.015C123.919 224.189 120.09 228.727 114.943 229.153C109.797 229.578 105.282 225.728 104.859 220.555L102.547 192.27Z" fill="#F9A824"/>
<path d="M114.035 182.518C114.035 163.684 117.733 145.034 124.917 127.633C132.102 110.233 142.633 94.4218 155.909 81.1039L257 182.518H114.035Z" fill="#F9A824"/>
<path d="M155.909 81.1039C167.988 68.9853 182.136 59.1367 197.68 52.0256L257 182.518L155.909 81.1039Z" fill="#FDD835"/>
<path d="M197.531 61.4404C167.01 61.4404 142.267 86.3142 142.267 116.997V181.612H197.531V61.4404Z" fill="#FDD835"/>
<path d="M114.035 181.612H205.34V216.637H114.035V181.612Z" fill="#F9A824"/>
<path d="M197.531 187.047H142.267V196.709C142.267 205.047 148.991 211.806 157.285 211.806H197.531V187.047Z" fill="#FDD835"/>
<path d="M358.091 81.1039C371.367 94.4218 381.898 110.233 389.082 127.633C396.267 145.034 399.965 163.684 399.965 182.518H257L358.091 81.1039Z" fill="#FDEF59"/>
<path d="M315.468 51.6391C330.393 58.3493 344.06 67.5791 355.874 78.9266L257 182.518L315.468 51.6391Z" fill="#FDD835"/>
<path d="M237.177 24C215.281 24 197.531 41.8441 197.531 63.856V211.806H237.177V24Z" fill="#F9A824"/>
<path d="M317.069 63.856C317.069 41.8441 299.32 24 277.424 24V211.806H317.069V63.856Z" fill="#F9A824"/>
<path d="M237.177 39.0969H277.424V211.806H237.177V39.0969Z" fill="#FDD835"/>
<path d="M369.931 106.731C369.931 87.3873 354.332 71.7064 335.09 71.7064H317.069V181.612H369.931V106.731Z" fill="#FDD835"/>
<path d="M335.09 182.82H401.767V211.806H335.09V182.82Z" fill="#FDEF59"/>
<path d="M369.931 197.313C369.931 194.311 367.51 191.878 364.524 191.878H317.069V211.806H369.931V197.313Z" fill="#FDD835"/>
<path d="M317.069 182.82H335.09V209.994H317.069V182.82Z" fill="#FDD835"/>
<path d="M401.767 183.397C401.767 182.078 400.704 181.008 399.391 181.008H317.069V187.047H398.137C400.142 187.047 401.767 185.413 401.767 183.397Z" fill="#F9A824"/>
<path d="M257 202.144C215.862 202.144 182.514 168.619 182.514 127.263C182.514 85.9076 215.862 52.3823 257 52.3823C298.138 52.3823 331.486 85.9076 331.486 127.263C331.486 168.619 298.138 202.144 257 202.144Z" fill="#FDEF59"/>
<path d="M257 167.723C235.104 167.723 217.354 149.879 217.354 127.867C217.354 105.855 235.104 88.0111 257 88.0111C278.896 88.0111 296.646 105.855 296.646 127.867C296.646 149.879 278.896 167.723 257 167.723Z" fill="#E2F4FF"/>
<path d="M265.71 159.269C241.99 159.269 222.76 139.938 222.76 116.091C222.76 92.2453 241.99 72.9141 265.71 72.9141C289.43 72.9141 308.66 92.2453 308.66 116.091C308.66 139.938 289.43 159.269 265.71 159.269Z" fill="white"/>
<path d="M192.726 128.773C192.726 164.959 221.906 194.294 257.901 194.294C293.896 194.294 323.076 164.959 323.076 128.773C323.076 92.5867 293.896 63.2521 257.901 63.2521C221.906 63.2521 192.726 92.5867 192.726 128.773ZM305.356 128.773C305.356 155.12 284.109 176.479 257.901 176.479C231.693 176.479 210.446 155.12 210.446 128.773C210.446 102.426 231.693 81.0665 257.901 81.0665C284.109 81.0665 305.356 102.426 305.356 128.773Z" fill="#F9A824"/>
<path d="M207.142 127.867C207.142 155.215 229.196 177.385 256.399 177.385C283.603 177.385 305.656 155.215 305.656 127.867C305.656 100.519 283.603 78.3491 256.399 78.3491C229.196 78.3491 207.142 100.519 207.142 127.867ZM295.444 127.867C295.444 149.546 277.964 167.119 256.399 167.119C234.835 167.119 217.354 149.546 217.354 127.867C217.354 106.188 234.835 88.615 256.399 88.615C277.964 88.615 295.444 106.188 295.444 127.867Z" fill="#F17F16"/>
<path d="M229.065 24.8846C218.163 27.7276 207.642 31.8831 197.731 37.2609L199.041 39.7015C208.757 34.4297 219.07 30.3561 229.757 27.5691L229.065 24.8846Z" fill="#F9A824"/>
<path d="M197.531 37.2854H210.747V61.4405H197.531V37.2854Z" fill="#F9A824"/>
<path d="M303.854 37.2854H317.069V61.4405H303.854V37.2854Z" fill="#F9A824"/>
<path d="M215.552 31.8504H210.747C206.102 31.8504 202.337 35.6355 202.337 40.3047V56.0055H215.552V31.8504Z" fill="#F9A824"/>
<path d="M312.264 39.7008C312.264 36.0322 309.305 33.0582 305.656 33.0582C302.007 33.0582 299.049 36.0322 299.049 39.7008V57.2133H312.264V39.7008Z" fill="#F9A824"/>
<path d="M317.218 36.2523C308.449 32.0721 299.339 28.6546 289.99 26.0372L289.152 29.0615C298.33 31.6308 307.272 34.9856 315.881 39.0889L317.218 36.2523Z" fill="#F9A824"/>
<path d="M335.691 187.047H375.337C376.664 187.047 377.74 188.129 377.74 189.463C377.74 190.797 376.664 191.878 375.337 191.878H335.691C334.364 191.878 333.288 190.797 333.288 189.463C333.288 188.129 334.364 187.047 335.691 187.047Z" fill="#FDEF59"/>
</svg>
