<svg width="512" height="512" viewBox="0 0 512 512" fill="none" xmlns="http://www.w3.org/2000/svg">
<path d="M256 512C397.385 512 512 397.385 512 256C512 114.615 397.385 0 256 0C114.615 0 0 114.615 0 256C0 397.385 114.615 512 256 512Z" fill="#22BCE0"/>
<path d="M411.172 370.423V393.688C411.172 397.344 410.641 400.881 409.647 404.217C409.647 404.217 409.647 404.217 409.647 404.225C405.107 419.42 391.032 430.505 374.354 430.505H137.646C120.968 430.505 106.885 419.42 102.353 404.216C101.359 400.88 100.828 397.343 100.828 393.687V370.422C100.828 364.349 102.294 358.621 104.896 353.576C108.552 346.484 114.448 340.731 121.65 337.252C126.485 334.919 131.909 333.605 137.646 333.605H374.354C378.995 333.605 383.434 334.464 387.519 336.039C396.001 339.274 402.976 345.574 407.103 353.576C409.706 358.622 411.172 364.35 411.172 370.423Z" fill="#D48D77"/>
<path d="M407.103 353.576C395.85 389.231 362.502 415.09 323.124 415.09H188.876C164.558 415.09 142.549 405.235 126.62 389.298C116.74 379.426 109.201 367.221 104.897 353.575C111.012 341.715 123.386 333.604 137.646 333.604H374.354C388.614 333.605 400.988 341.716 407.103 353.576Z" fill="#EEA47D"/>
<path d="M384.26 361.814C384.26 368.738 378.65 374.348 371.726 374.348H140.274C136.812 374.348 133.679 372.941 131.413 370.676C129.147 368.41 127.74 365.277 127.74 361.815C127.74 358.976 128.683 356.357 130.275 354.251C132.566 351.227 136.188 349.273 140.273 349.273H371.725C375.069 349.273 378.11 350.587 380.35 352.727C380.434 352.794 380.51 352.87 380.586 352.946C382.853 355.219 384.26 358.352 384.26 361.814Z" fill="#F5B890"/>
<path d="M256 392.805C245.588 392.805 237.148 401.245 237.148 411.657V430.509H274.851V411.657C274.852 401.246 266.411 392.805 256 392.805Z" fill="#FBD9A3"/>
<path d="M138.531 411.654V430.505H137.647C120.969 430.505 106.886 419.42 102.354 404.216C105.243 397.503 111.914 392.803 119.68 392.803C130.091 392.803 138.531 401.243 138.531 411.654Z" fill="#FBD9A3"/>
<path d="M165.118 392.805C154.706 392.805 146.266 401.245 146.266 411.657V430.509H183.969V411.657C183.969 401.246 175.529 392.805 165.118 392.805Z" fill="#FBD9A3"/>
<path d="M210.559 392.805C200.147 392.805 191.707 401.245 191.707 411.657V430.509H229.41V411.657C229.41 401.246 220.97 392.805 210.559 392.805Z" fill="#FBD9A3"/>
<path d="M301.441 392.805C291.03 392.805 282.589 401.245 282.589 411.657V430.509H320.292V411.657C320.293 401.246 311.853 392.805 301.441 392.805Z" fill="#FBD9A3"/>
<path d="M346.883 392.805C336.471 392.805 328.031 401.245 328.031 411.657V430.509H365.734V411.657C365.734 401.246 357.294 392.805 346.883 392.805Z" fill="#FBD9A3"/>
<path d="M409.647 404.216C409.647 404.216 409.647 404.216 409.647 404.224C405.107 419.419 391.032 430.504 374.354 430.504H373.47V411.653C373.47 401.242 381.91 392.802 392.321 392.802C400.087 392.803 406.758 397.503 409.647 404.216Z" fill="#FBD9A3"/>
<path d="M274.851 411.654V415.091H237.149V411.654C237.149 401.243 245.589 392.803 256 392.803C266.411 392.803 274.851 401.243 274.851 411.654Z" fill="#FBD9A3"/>
<path d="M183.965 411.654V414.947C170.85 414.231 158.51 410.643 147.552 404.797C150.29 397.772 157.121 392.802 165.114 392.802C175.525 392.803 183.965 401.243 183.965 411.654Z" fill="#FBD9A3"/>
<path d="M229.408 411.654V415.091H191.706V411.654C191.706 401.243 200.146 392.803 210.557 392.803C220.968 392.803 229.408 401.243 229.408 411.654Z" fill="#FBD9A3"/>
<path d="M320.294 411.654V415.091H282.592V411.654C282.592 401.243 291.032 392.803 301.443 392.803C311.854 392.803 320.294 401.243 320.294 411.654Z" fill="#FBD9A3"/>
<path d="M364.448 404.806C353.481 410.643 341.141 414.232 328.035 414.956V411.654C328.035 401.243 336.475 392.803 346.886 392.803C354.88 392.803 361.711 397.781 364.448 404.806Z" fill="#FBD9A3"/>
<path d="M183.965 411.654V414.947C170.85 414.231 158.51 410.643 147.552 404.797C150.29 397.772 157.121 392.802 165.114 392.802C175.525 392.803 183.965 401.243 183.965 411.654Z" fill="#FAEFDC"/>
<path d="M229.408 411.654V415.091H191.706V411.654C191.706 401.243 200.146 392.803 210.557 392.803C220.968 392.803 229.408 401.243 229.408 411.654Z" fill="#FAEFDC"/>
<path d="M274.851 411.654V415.091H237.149V411.654C237.149 401.243 245.589 392.803 256 392.803C266.411 392.803 274.851 401.243 274.851 411.654Z" fill="#FAEFDC"/>
<path d="M320.294 411.654V415.091H282.592V411.654C282.592 401.243 291.032 392.803 301.443 392.803C311.854 392.803 320.294 401.243 320.294 411.654Z" fill="#FAEFDC"/>
<path d="M364.448 404.806C353.481 410.643 341.141 414.232 328.035 414.956V411.654C328.035 401.243 336.475 392.803 346.886 392.803C354.88 392.803 361.711 397.781 364.448 404.806Z" fill="#FAEFDC"/>
<path d="M139.026 288.31V305.848C139.026 308.604 139.426 311.271 140.175 313.785C140.175 313.785 140.175 313.785 140.175 313.791C143.597 325.246 154.208 333.602 166.78 333.602H345.22C357.792 333.602 368.409 325.246 371.825 313.785C372.574 311.27 372.974 308.604 372.974 305.848V288.31C372.974 283.732 371.869 279.414 369.907 275.611C367.151 270.265 362.706 265.928 357.277 263.305C353.632 261.546 349.543 260.556 345.219 260.556H166.78C163.281 260.556 159.935 261.204 156.855 262.391C150.461 264.829 145.203 269.579 142.092 275.611C140.131 279.414 139.026 283.732 139.026 288.31Z" fill="#D48D77"/>
<path d="M142.093 275.61C150.576 302.488 175.715 321.982 205.4 321.982H306.602C324.934 321.982 341.525 314.553 353.533 302.539C360.981 295.097 366.664 285.896 369.909 275.61C365.299 266.67 355.971 260.555 345.221 260.555H166.78C156.03 260.555 146.703 266.67 142.093 275.61Z" fill="#EEA47D"/>
<path d="M159.313 281.82C159.313 287.039 163.542 291.268 168.761 291.268H343.238C345.848 291.268 348.21 290.208 349.918 288.5C351.626 286.792 352.686 284.43 352.686 281.82C352.686 279.68 351.975 277.705 350.775 276.118C349.048 273.838 346.318 272.365 343.238 272.365H168.761C166.24 272.365 163.948 273.356 162.259 274.968C162.196 275.019 162.138 275.076 162.081 275.133C160.373 276.849 159.313 279.211 159.313 281.82Z" fill="#F5B890"/>
<path d="M256 305.183C263.849 305.183 270.211 311.546 270.211 319.394V333.605H241.789V319.394C241.789 311.545 248.151 305.183 256 305.183Z" fill="#FBD9A3"/>
<path d="M344.553 319.392V333.603H345.22C357.792 333.603 368.409 325.247 371.825 313.786C369.647 308.725 364.618 305.182 358.764 305.182C350.915 305.181 344.553 311.543 344.553 319.392Z" fill="#FBD9A3"/>
<path d="M324.511 305.183C332.36 305.183 338.722 311.546 338.722 319.394V333.605H310.3V319.394C310.3 311.545 316.662 305.183 324.511 305.183Z" fill="#FBD9A3"/>
<path d="M290.255 305.183C298.104 305.183 304.466 311.546 304.466 319.394V333.605H276.044V319.394C276.044 311.545 282.407 305.183 290.255 305.183Z" fill="#FBD9A3"/>
<path d="M221.745 305.183C229.594 305.183 235.956 311.546 235.956 319.394V333.605H207.534V319.394C207.534 311.545 213.896 305.183 221.745 305.183Z" fill="#FBD9A3"/>
<path d="M187.489 305.183C195.338 305.183 201.7 311.546 201.7 319.394V333.605H173.278V319.394C173.278 311.545 179.641 305.183 187.489 305.183Z" fill="#FBD9A3"/>
<path d="M140.175 313.785C140.175 313.785 140.175 313.785 140.175 313.791C143.597 325.246 154.208 333.602 166.78 333.602H167.447V319.391C167.447 311.543 161.085 305.18 153.236 305.18C147.382 305.181 142.353 308.724 140.175 313.785Z" fill="#FBD9A3"/>
<path d="M241.789 319.392V321.983H270.21V319.392C270.21 311.544 263.848 305.181 255.999 305.181C248.152 305.181 241.789 311.543 241.789 319.392Z" fill="#FBD9A3"/>
<path d="M310.303 319.392V321.875C320.19 321.335 329.492 318.63 337.753 314.224C335.689 308.928 330.54 305.182 324.514 305.182C316.665 305.181 310.303 311.543 310.303 319.392Z" fill="#FBD9A3"/>
<path d="M276.046 319.392V321.983H304.467V319.392C304.467 311.544 298.105 305.181 290.256 305.181C282.408 305.181 276.046 311.543 276.046 319.392Z" fill="#FBD9A3"/>
<path d="M207.533 319.392V321.983H235.954V319.392C235.954 311.544 229.592 305.181 221.743 305.181C213.895 305.181 207.533 311.543 207.533 319.392Z" fill="#FBD9A3"/>
<path d="M174.248 314.229C182.515 318.629 191.818 321.334 201.698 321.88V319.391C201.698 311.543 195.336 305.18 187.487 305.18C181.461 305.181 176.311 308.934 174.248 314.229Z" fill="#FBD9A3"/>
<path d="M310.303 319.392V321.875C320.19 321.335 329.492 318.63 337.753 314.224C335.689 308.928 330.54 305.182 324.514 305.182C316.665 305.181 310.303 311.543 310.303 319.392Z" fill="#FAEFDC"/>
<path d="M276.046 319.392V321.983H304.467V319.392C304.467 311.544 298.105 305.181 290.256 305.181C282.408 305.181 276.046 311.543 276.046 319.392Z" fill="#FAEFDC"/>
<path d="M241.789 319.392V321.983H270.21V319.392C270.21 311.544 263.848 305.181 255.999 305.181C248.152 305.181 241.789 311.543 241.789 319.392Z" fill="#FAEFDC"/>
<path d="M207.533 319.392V321.983H235.954V319.392C235.954 311.544 229.592 305.181 221.743 305.181C213.895 305.181 207.533 311.543 207.533 319.392Z" fill="#FAEFDC"/>
<path d="M174.248 314.229C182.515 318.629 191.818 321.334 201.698 321.88V319.391C201.698 311.543 195.336 305.18 187.487 305.18C181.461 305.181 176.311 308.934 174.248 314.229Z" fill="#FAEFDC"/>
<path d="M328.85 176.56V176.57C328.58 177.23 328.3 177.89 328.02 178.55L292.61 260.56H219.39L183.98 178.55C183.7 177.89 183.42 177.23 183.15 176.57V176.56C173.03 151.38 175.7 122.59 191.17 100.2C204.77 80.5 227 66.9 253.43 66.08C254.28 66.05 255.14 66.04 256 66.04C256.86 66.04 257.72 66.05 258.57 66.08C285 66.9 307.23 80.5 320.83 100.2C336.3 122.59 338.97 151.38 328.85 176.56Z" fill="#D48D77"/>
<path d="M328.85 176.56V176.57C328.58 177.23 328.3 177.89 328.02 178.55L292.61 260.56H219.39L183.98 178.55C183.7 177.89 183.42 177.23 183.15 176.57V176.56C178.48 155.9 182.27 133.94 194.51 116.22C207.41 97.54 228.5 84.64 253.56 83.86C254.37 83.83 255.18 83.82 256 83.82C256.82 83.82 257.63 83.83 258.44 83.86C283.5 84.64 304.59 97.54 317.49 116.22C329.73 133.94 333.52 155.9 328.85 176.56Z" fill="#FBD9A3"/>
<path d="M328.85 176.56V176.57C328.58 177.23 328.3 177.89 328.02 178.55L292.61 260.56H256V66.04C256.86 66.04 257.72 66.05 258.57 66.08C285 66.9 307.23 80.5 320.83 100.2C336.3 122.59 338.97 151.38 328.85 176.56Z" fill="#EEA47D"/>
<path d="M328.85 176.56V176.57C328.58 177.23 328.3 177.89 328.02 178.55L292.61 260.56H256V83.82C256.82 83.82 257.63 83.83 258.44 83.86C283.5 84.64 304.59 97.54 317.49 116.22C329.73 133.94 333.52 155.9 328.85 176.56Z" fill="#FAEFDC"/>
<path d="M289.54 193.15L279.88 260.56H232.12L222.46 193.15C218.96 168.69 221.8 143.73 230.7 120.67L237.12 104.07C238.59 100.23 241.15 97.05 244.37 94.8C254.778 87.232 270.406 91.912 274.88 104.07C287.421 133.571 294.321 160.907 289.54 193.15Z" fill="#F9C744"/>
<path d="M289.54 193.15L279.88 260.56H256V91.12C264.361 91.123 271.883 96.263 274.88 104.07L281.3 120.67C290.2 143.73 293.04 168.69 289.54 193.15Z" fill="#FBD9A3"/>
<path d="M280.56 195.19C280.56 202.98 274.24 209.3 266.45 209.3H245.55C237.76 209.3 231.44 202.98 231.44 195.19C231.44 191.3 233.02 187.77 235.57 185.21C238.13 182.66 241.66 181.08 245.55 181.08H266.45C274.24 181.08 280.56 187.4 280.56 195.19Z" fill="#FBD9A3"/>
<path d="M277.15 228.65C277.15 236.45 270.83 242.77 263.04 242.77H248.96C241.17 242.77 234.85 236.45 234.85 228.65C234.85 224.76 236.43 221.23 238.98 218.67C241.54 216.12 245.06 214.54 248.96 214.54H263.04C270.83 214.54 277.15 220.86 277.15 228.65Z" fill="#FBD9A3"/>
<path d="M274.78 260.56H237.22C237.58 257.28 239.06 254.35 241.26 252.14C243.81 249.59 247.34 248.01 251.24 248.01H260.76C268.03 248.01 274.01 253.5 274.78 260.56Z" fill="#FBD9A3"/>
<path d="M283.97 161.73C283.97 169.52 277.65 175.84 269.86 175.84H242.14C234.35 175.84 228.03 169.52 228.03 161.73C228.03 157.83 229.61 154.3 232.16 151.75C234.72 149.2 238.24 147.62 242.14 147.62H269.86C277.65 147.62 283.97 153.93 283.97 161.73Z" fill="#FBD9A3"/>
<path d="M274.87 128.26C274.87 136.06 268.56 142.37 260.76 142.37H251.24C243.44 142.37 237.13 136.06 237.13 128.26C237.13 124.36 238.71 120.84 241.26 118.28C243.81 115.73 247.34 114.15 251.24 114.15H260.76C268.56 114.15 274.87 120.47 274.87 128.26Z" fill="#FBD9A3"/>
<path d="M267.63 94.8V97.28C267.63 103.7 262.42 108.91 256 108.91C252.79 108.91 249.88 107.61 247.78 105.5C245.67 103.4 244.37 100.49 244.37 97.28V94.8C247.7 92.45 251.74 91.12 256 91.12C260.26 91.12 264.3 92.45 267.63 94.8Z" fill="#FBD9A3"/>
<path d="M256 108.91V91.12C260.26 91.12 264.3 92.45 267.63 94.8V97.28C267.63 103.7 262.42 108.91 256 108.91Z" fill="#FAEFDC"/>
<path d="M260.76 142.37H256V114.15H260.76C268.56 114.15 274.87 120.47 274.87 128.26C274.87 136.06 268.56 142.37 260.76 142.37Z" fill="#FAEFDC"/>
<path d="M277.15 228.65C277.15 236.45 270.83 242.77 263.04 242.77H256V214.54H263.04C270.83 214.54 277.15 220.86 277.15 228.65Z" fill="#FAEFDC"/>
<path d="M274.78 260.56H256V248.01H260.76C268.03 248.01 274.01 253.5 274.78 260.56Z" fill="#FAEFDC"/>
<path d="M280.56 195.19C280.56 202.98 274.24 209.3 266.45 209.3H256V181.08H266.45C274.24 181.08 280.56 187.4 280.56 195.19Z" fill="#FAEFDC"/>
<path d="M269.86 175.84H256V147.62H269.86C277.65 147.62 283.97 153.93 283.97 161.73C283.97 169.52 277.65 175.84 269.86 175.84Z" fill="#FAEFDC"/>
<path d="M299.17 71.11V74.08C299.17 88.4 287.56 100.02 273.24 100.02H238.76C224.44 100.02 212.83 88.4 212.83 74.08V71.11C212.83 61.98 220.23 54.57 229.37 54.57H282.63C291.77 54.57 299.17 61.98 299.17 71.11Z" fill="#D48D77"/>
<path d="M299.17 71.11V74.08C299.17 88.4 287.56 100.02 273.24 100.02H256V54.57H282.63C291.77 54.57 299.17 61.98 299.17 71.11Z" fill="#EEA47D"/>
<path d="M270.522 66.989H256V58.294H270.522C272.923 58.294 274.87 60.241 274.87 62.642C274.87 65.043 272.923 66.989 270.522 66.989Z" fill="#F5B890"/>
<path d="M241.478 58.294H256V66.989H241.478C239.077 66.989 237.13 65.042 237.13 62.641C237.13 60.24 239.077 58.294 241.478 58.294Z" fill="#EEA47D"/>
<path d="M292.746 80.979C292.669 81.294 292.577 81.609 292.477 81.924C292.07 83.218 291.501 84.421 290.779 85.478C287.451 90.348 282.049 90.348 278.721 85.478C275.393 80.608 275.401 72.712 278.721 67.841C278.867 67.639 279.005 67.436 279.159 67.256C279.958 66.233 280.857 65.468 281.803 64.95C284.823 63.33 288.351 64.286 290.779 67.84C293.2 71.385 293.86 76.547 292.746 80.979Z" fill="#D48D77"/>
<path d="M292.746 80.979C292.669 81.294 292.577 81.609 292.477 81.924C291.739 82.149 290.978 82.273 290.194 82.273C284.353 82.273 279.565 75.659 279.158 67.257C279.957 66.234 280.856 65.469 281.802 64.951C284.822 63.331 288.35 64.287 290.778 67.841C293.2 71.385 293.86 76.547 292.746 80.979Z" fill="#F5B890"/>
<path d="M290.136 76.661C290.136 80.055 288.665 82.954 286.607 84.066C286.026 84.37 285.403 84.543 284.751 84.543C281.774 84.543 279.366 81.01 279.366 76.661C279.366 72.303 281.774 68.779 284.751 68.779C285.403 68.779 286.026 68.953 286.607 69.256C288.665 70.367 290.136 73.258 290.136 76.661Z" fill="#3F5D77"/>
<path d="M286.607 84.066C288.556 84.066 290.136 80.7507 290.136 76.661C290.136 72.5713 288.556 69.256 286.607 69.256C284.658 69.256 283.078 72.5713 283.078 76.661C283.078 80.7507 284.658 84.066 286.607 84.066Z" fill="#2E3140"/>
<path d="M284.748 78.686C286.214 78.686 287.402 76.9466 287.402 74.801C287.402 72.6554 286.214 70.916 284.748 70.916C283.282 70.916 282.094 72.6554 282.094 74.801C282.094 76.9466 283.282 78.686 284.748 78.686Z" fill="#83D5EF"/>
<path d="M235.247 80.979C235.17 81.294 235.078 81.609 234.978 81.924C234.571 83.218 234.002 84.421 233.28 85.478C229.952 90.348 224.55 90.348 221.222 85.478C217.894 80.608 217.902 72.712 221.222 67.841C221.368 67.639 221.506 67.436 221.66 67.256C222.459 66.233 223.358 65.468 224.304 64.95C227.324 63.33 230.852 64.286 233.28 67.84C235.701 71.385 236.362 76.547 235.247 80.979Z" fill="#EEA47D"/>
<path d="M235.247 80.979C235.17 81.294 235.078 81.609 234.978 81.924C234.24 82.149 233.479 82.273 232.695 82.273C226.854 82.273 222.066 75.659 221.659 67.257C222.458 66.234 223.357 65.469 224.303 64.951C227.323 63.331 230.851 64.287 233.279 67.841C235.701 71.385 236.362 76.547 235.247 80.979Z" fill="#F5B890"/>
<path d="M232.637 76.661C232.637 80.055 231.166 82.954 229.108 84.066C228.527 84.37 227.904 84.543 227.252 84.543C224.275 84.543 221.866 81.01 221.866 76.661C221.866 72.303 224.274 68.779 227.252 68.779C227.904 68.779 228.527 68.953 229.108 69.256C231.166 70.367 232.637 73.258 232.637 76.661Z" fill="#3F5D77"/>
<path d="M229.108 84.066C231.057 84.066 232.637 80.7507 232.637 76.661C232.637 72.5713 231.057 69.256 229.108 69.256C227.159 69.256 225.579 72.5713 225.579 76.661C225.579 80.7507 227.159 84.066 229.108 84.066Z" fill="#2E3140"/>
<path d="M227.25 78.686C228.716 78.686 229.904 76.9466 229.904 74.801C229.904 72.6554 228.716 70.916 227.25 70.916C225.784 70.916 224.596 72.6554 224.596 74.801C224.596 76.9466 225.784 78.686 227.25 78.686Z" fill="#83D5EF"/>
<path d="M262.803 91.659C261.667 90.523 261.667 88.682 262.803 87.547L263.853 86.497C264.989 85.361 266.83 85.361 267.965 86.497C269.101 87.633 269.101 89.474 267.965 90.609L266.915 91.659C265.78 92.795 263.938 92.795 262.803 91.659Z" fill="#3F5D77"/>
<path d="M249.197 91.659C248.061 92.795 246.22 92.795 245.085 91.659L244.035 90.609C242.899 89.473 242.899 87.632 244.035 86.497C245.171 85.361 247.012 85.361 248.147 86.497L249.197 87.547C250.333 88.682 250.333 90.523 249.197 91.659Z" fill="#2E3140"/>
<path d="M269.912 132.64L259.5 114.334V97.825C259.5 95.892 257.933 94.325 256 94.325C254.067 94.325 252.5 95.892 252.5 97.825V114.334L242.087 132.64C241.131 134.321 241.719 136.457 243.399 137.412C245.082 138.369 247.217 137.781 248.172 136.1L256 122.339L263.828 136.101C264.473 137.235 265.656 137.872 266.873 137.872C267.46 137.872 268.055 137.724 268.601 137.413C270.281 136.457 270.868 134.32 269.912 132.64Z" fill="#E9465E"/>
<path d="M210.917 57.795H226.25C227.861 57.795 229.167 59.184 229.167 60.8974C229.167 62.6109 227.861 63.9999 226.25 63.9999H210.917C209.306 63.9999 208 62.6109 208 60.8974C208 59.184 209.306 57.795 210.917 57.795Z" fill="#F9A824"/>
<path d="M209.331 58.5603L214.405 54.5292L215.702 56.3758L210.627 60.4069L209.331 58.5603Z" fill="#F9A824"/>
<path d="M226.583 59.3905H237.583C238.366 59.3905 239 60.0652 239 60.8975C239 61.7297 238.366 62.4044 237.583 62.4044H226.583C225.801 62.4044 225.167 61.7297 225.167 60.8975C225.167 60.0652 225.801 59.3905 226.583 59.3905Z" fill="#FDD835"/>
<path d="M268.667 56.554H227.833C227.373 56.554 227 56.951 227 57.4404V64H268.667V56.554Z" fill="#FDD835"/>
<path d="M281.167 55.1357H298.5V64H281.167V55.1357Z" fill="#FDEF59"/>
<path d="M225.917 62.4044H244.917C245.331 62.4044 245.667 62.7615 245.667 63.2021C245.667 63.6427 245.331 63.9999 244.917 63.9999H225.917C225.502 63.9999 225.167 63.6427 225.167 63.2021C225.167 62.7615 225.502 62.4044 225.917 62.4044Z" fill="#F9A824"/>
<path d="M213.167 56.554H227.667V58.5042H213.167V56.554Z" fill="#F9A824"/>
<path d="M225.57 59.6327L227.083 57.0104C227.29 56.6507 227.732 56.538 228.07 56.7587C228.409 56.9793 228.515 57.4498 228.307 57.8095L226.795 60.4317C226.588 60.7914 226.145 60.9042 225.807 60.6835C225.469 60.4629 225.363 59.9924 225.57 59.6327Z" fill="#FDD835"/>
<path d="M267.083 56.554H297.75C298.164 56.554 298.5 56.9112 298.5 57.3518C298.5 57.7924 298.164 58.1496 297.75 58.1496H267.083C266.669 58.1496 266.333 57.7924 266.333 57.3518C266.333 56.9112 266.669 56.554 267.083 56.554Z" fill="#FDEF59"/>
<path d="M287.333 60.8088C287.333 59.3402 286.214 58.1495 284.833 58.1495H261.667V63.9999H287.333V60.8088Z" fill="#FDD835"/>
<path d="M293.95 48.8444C294.067 47.3255 295.32 46.1955 296.748 46.3203C298.176 46.4452 299.238 47.7777 299.121 49.2966L298.479 57.6003C298.362 59.1191 297.109 60.2492 295.681 60.1243C294.253 59.9995 293.191 58.6669 293.308 57.1481L293.95 48.8444Z" fill="#FDEF59"/>
<path d="M293.917 58.1496H301.25C302.769 58.1496 304 59.4592 304 61.0748C304 62.6903 302.769 64 301.25 64H293.917C292.398 64 291.167 62.6903 291.167 61.0748C291.167 59.4592 292.398 58.1496 293.917 58.1496Z" fill="#FDEF59"/>
<path d="M296.169 58.0813L298.483 55.0559L302.936 58.9092L300.621 61.9346L296.169 58.0813Z" fill="#FDEF59"/>
<path d="M220.667 55.1357H297.833C298.202 55.1357 298.5 55.4532 298.5 55.8449C298.5 56.2365 298.202 56.554 297.833 56.554H220.667C220.299 56.554 220 56.2365 220 55.8449C220 55.4532 220.299 55.1357 220.667 55.1357Z" fill="#F9A824"/>
<path d="M213.146 49.4004C213.029 47.8816 214.091 46.5491 215.519 46.4243C216.947 46.2994 218.199 47.4295 218.317 48.9484L218.958 57.2521C219.076 58.771 218.013 60.1035 216.585 60.2283C215.158 60.3531 213.905 59.223 213.787 57.7041L213.146 49.4004Z" fill="#F9A824"/>
<path d="M216.333 46.5374C216.333 41.008 217.359 35.5329 219.353 30.4245C221.346 25.316 224.268 20.6743 227.952 16.7645L256 46.5374H216.333Z" fill="#F9A824"/>
<path d="M227.951 16.7644C231.303 13.2067 235.228 10.3154 239.541 8.22769L256 46.5374L227.951 16.7644Z" fill="#FDD835"/>
<path d="M239.5 10.9917C231.032 10.9917 224.167 18.2941 224.167 27.302V46.2715H239.5V10.9917Z" fill="#FDD835"/>
<path d="M216.333 46.2715H241.667V56.554H216.333V46.2715Z" fill="#F9A824"/>
<path d="M239.5 47.8671H224.167V50.7036C224.167 53.1514 226.032 55.1358 228.333 55.1358H239.5V47.8671Z" fill="#FDD835"/>
<path d="M284.048 16.7644C287.732 20.6743 290.654 25.316 292.647 30.4244C294.641 35.5329 295.667 41.008 295.667 46.5374H256L284.048 16.7644Z" fill="#FDEF59"/>
<path d="M272.222 8.1142C276.363 10.0842 280.155 12.7938 283.433 16.1252L256 46.5374L272.222 8.1142Z" fill="#FDD835"/>
<path d="M250.5 0C244.425 0 239.5 5.23864 239.5 11.7008V55.1357H250.5V0Z" fill="#F9A824"/>
<path d="M272.667 11.7008C272.667 5.23864 267.742 0 261.667 0V55.1357H272.667V11.7008Z" fill="#F9A824"/>
<path d="M250.5 4.43213H261.667V55.1357H250.5V4.43213Z" fill="#FDD835"/>
<path d="M287.333 24.2881C287.333 18.6091 283.006 14.0056 277.667 14.0056H272.667V46.2715H287.333V24.2881Z" fill="#FDD835"/>
<path d="M277.667 46.626H296.167V55.1357H277.667V46.626Z" fill="#FDEF59"/>
<path d="M287.333 50.8808C287.333 49.9996 286.662 49.2853 285.833 49.2853H272.667V55.1357H287.333V50.8808Z" fill="#FDD835"/>
<path d="M272.667 46.626H277.667V54.6039H272.667V46.626Z" fill="#FDD835"/>
<path d="M296.167 46.7955C296.167 46.4082 295.872 46.0942 295.507 46.0942H272.667V47.8671H295.159C295.716 47.8671 296.167 47.3873 296.167 46.7955Z" fill="#F9A824"/>
<path d="M256 52.2992C244.586 52.2992 235.333 42.4569 235.333 30.3158C235.333 18.1747 244.586 8.33243 256 8.33243C267.414 8.33243 276.667 18.1747 276.667 30.3158C276.667 42.4569 267.414 52.2992 256 52.2992Z" fill="#FDEF59"/>
<path d="M256 42.1939C249.925 42.1939 245 36.9552 245 30.4931C245 24.0309 249.925 18.7922 256 18.7922C262.075 18.7922 267 24.0309 267 30.4931C267 36.9552 262.075 42.1939 256 42.1939Z" fill="#E2F4FF"/>
<path d="M258.417 39.7119C251.835 39.7119 246.5 34.0367 246.5 27.036C246.5 20.0353 251.835 14.3601 258.417 14.3601C264.998 14.3601 270.333 20.0353 270.333 27.036C270.333 34.0367 264.998 39.7119 258.417 39.7119Z" fill="white"/>
<path d="M238.167 30.759C238.167 41.3824 246.263 49.9944 256.25 49.9944C266.237 49.9944 274.333 41.3824 274.333 30.759C274.333 20.1355 266.237 11.5235 256.25 11.5235C246.263 11.5235 238.167 20.1355 238.167 30.759ZM269.417 30.759C269.417 38.4939 263.522 44.7645 256.25 44.7645C248.978 44.7645 243.083 38.4939 243.083 30.759C243.083 23.024 248.978 16.7534 256.25 16.7534C263.522 16.7534 269.417 23.024 269.417 30.759Z" fill="#F9A824"/>
<path d="M242.167 30.4931C242.167 38.5218 248.285 45.0305 255.833 45.0305C263.381 45.0305 269.5 38.5218 269.5 30.4931C269.5 22.4644 263.381 15.9557 255.833 15.9557C248.285 15.9557 242.167 22.4644 242.167 30.4931ZM266.667 30.4931C266.667 36.8574 261.816 42.0166 255.833 42.0166C249.85 42.0166 245 36.8574 245 30.4931C245 24.1287 249.85 18.9695 255.833 18.9695C261.816 18.9695 266.667 24.1287 266.667 30.4931Z" fill="#F17F16"/>
<path d="M248.249 0.259705C245.224 1.09436 242.305 2.31431 239.555 3.89312L239.919 4.60962C242.615 3.06194 245.476 1.86603 248.441 1.04782L248.249 0.259705Z" fill="#F9A824"/>
<path d="M239.5 3.9003H243.167V10.9917H239.5V3.9003Z" fill="#F9A824"/>
<path d="M269 3.9003H272.667V10.9917H269V3.9003Z" fill="#F9A824"/>
<path d="M244.5 2.30472H243.167C241.878 2.30472 240.833 3.41594 240.833 4.78671V9.39613H244.5V2.30472Z" fill="#F9A824"/>
<path d="M271.333 4.60944C271.333 3.53241 270.512 2.6593 269.5 2.6593C268.487 2.6593 267.667 3.53241 267.667 4.60944V9.75071H271.333V4.60944Z" fill="#F9A824"/>
<path d="M272.708 3.59701C270.275 2.3698 267.747 1.36651 265.153 0.598083L264.921 1.48595C267.467 2.24024 269.948 3.22513 272.337 4.42979L272.708 3.59701Z" fill="#F9A824"/>
<path d="M277.833 47.8671H288.833C289.202 47.8671 289.5 48.1846 289.5 48.5762C289.5 48.9679 289.202 49.2853 288.833 49.2853H277.833C277.465 49.2853 277.167 48.9679 277.167 48.5762C277.167 48.1846 277.465 47.8671 277.833 47.8671Z" fill="#FDEF59"/>
</svg>
