<svg width="512" height="512" viewBox="0 0 512 512" fill="none" xmlns="http://www.w3.org/2000/svg">
<path d="M256 512C397.385 512 512 397.385 512 256C512 114.615 397.385 0 256 0C114.615 0 0 114.615 0 256C0 397.385 114.615 512 256 512Z" fill="#22BCE0"/>
<path d="M487.919 165.683L489.617 173.793C495.03 199.641 478.461 224.988 452.612 230.401L377.076 246.219C363.502 249.061 350.199 240.365 347.358 226.8C346.119 220.885 347.076 214.956 349.73 209.927C352.392 204.897 356.758 200.764 362.33 198.452L413.768 177.176L467.563 154.926C476.223 151.343 486 156.515 487.919 165.683Z" fill="white"/>
<path d="M487.919 165.683L489.617 173.793C495.03 199.641 478.461 224.988 452.612 230.401L450.336 230.878C432.547 220.51 419.044 202.935 414.491 181.194C414.21 179.854 413.964 178.516 413.767 177.176L467.562 154.926C476.223 151.343 486 156.515 487.919 165.683Z" fill="#3E4E60"/>
<path d="M444.233 218.905L381.793 238.248L379.079 239.086C378.534 239.259 377.99 239.398 377.442 239.513C368.573 241.37 359.579 236.194 356.846 227.366C353.948 217.991 359.192 208.039 368.566 205.132L431.64 185.598L433.712 184.953C434.257 184.78 434.801 184.641 435.349 184.526C444.218 182.669 453.21 187.837 455.945 196.673C458.851 206.047 453.607 215.999 444.233 218.905Z" fill="#F4829B"/>
<path d="M444.233 218.905L381.793 238.248C388.457 216.045 406.708 196.437 431.639 185.597L433.711 184.952C434.256 184.779 434.8 184.64 435.348 184.525C444.217 182.668 453.209 187.836 455.944 196.672C458.851 206.047 453.607 215.999 444.233 218.905Z" fill="#FF9FB4"/>
<path d="M24.081 165.683L22.383 173.793C16.97 199.641 33.539 224.988 59.388 230.401L134.924 246.219C148.498 249.061 161.801 240.365 164.642 226.8C165.881 220.885 164.924 214.956 162.27 209.927C159.608 204.897 155.242 200.764 149.67 198.452L98.232 177.176L44.437 154.926C35.777 151.343 26 156.515 24.081 165.683Z" fill="#EBD9EA"/>
<path d="M24.081 165.683L22.383 173.793C16.97 199.641 33.539 224.988 59.388 230.401L61.664 230.878C79.453 220.51 92.956 202.935 97.509 181.194C97.79 179.854 98.036 178.516 98.233 177.176L44.438 154.926C35.777 151.343 26 156.515 24.081 165.683Z" fill="#2E3140"/>
<path d="M67.767 218.905L130.207 238.248L132.921 239.086C133.466 239.259 134.01 239.398 134.558 239.513C143.427 241.37 152.421 236.194 155.154 227.366C158.052 217.991 152.808 208.039 143.434 205.132L80.36 185.598L78.288 184.953C77.743 184.78 77.199 184.641 76.651 184.526C67.782 182.669 58.79 187.837 56.055 196.673C53.149 206.047 58.393 215.999 67.767 218.905Z" fill="#EE6781"/>
<path d="M67.767 218.905L130.207 238.248C123.543 216.045 105.292 196.437 80.361 185.597L78.289 184.952C77.744 184.779 77.2 184.64 76.652 184.525C67.783 182.668 58.791 187.836 56.056 196.672C53.149 206.047 58.393 215.999 67.767 218.905Z" fill="#F4829B"/>
<path d="M365.972 218.639L334.219 418.784C329.589 447.966 304.425 469.457 274.876 469.457H237.124C207.575 469.457 182.41 447.966 177.781 418.784L146.028 218.639C142.611 197.17 152.85 177.103 169.812 166.508C171.314 165.573 172.772 164.56 174.164 163.481C180.753 158.45 186.14 152.006 190.18 144.694C197.993 130.581 213.029 121.021 230.302 121.021H281.699C298.972 121.021 314.008 130.581 321.821 144.694C325.861 152.006 331.248 158.45 337.837 163.481C339.228 164.561 340.686 165.573 342.189 166.508C349.267 170.938 355.177 177.003 359.407 184.149C365.316 194.098 367.965 206.129 365.972 218.639Z" fill="#EBD9EA"/>
<path d="M365.972 218.639L334.219 418.784C329.589 447.966 304.425 469.457 274.876 469.457H256V221.677C256 200.954 272.806 184.148 293.529 184.148H359.406C365.316 194.098 367.965 206.129 365.972 218.639Z" fill="white"/>
<path d="M276.887 129.23H235.113C226.025 129.23 218.657 136.598 218.657 145.686C218.657 154.774 226.025 162.142 235.113 162.142H276.887C285.975 162.142 293.343 154.774 293.343 145.686C293.343 136.598 285.975 129.23 276.887 129.23Z" fill="white"/>
<path d="M365.972 218.639L334.219 418.784H306.206C293.117 418.784 282.088 409.001 280.541 396.002L270.814 314.65C269.264 301.686 268.487 288.642 268.487 275.586V264.094C268.487 256.96 271.381 250.494 276.055 245.819C280.805 241.08 287.385 238.172 294.636 238.252C308.813 238.41 320.184 226.465 320.184 212.286V187.988C320.184 176.58 327.574 166.897 337.836 163.48C339.227 164.56 340.685 165.572 342.188 166.507C359.15 177.103 369.389 197.17 365.972 218.639Z" fill="#3E4E60"/>
<path d="M243.513 264.093V275.585C243.513 288.641 242.736 301.686 241.186 314.649L231.46 396.001C229.913 409 218.883 418.783 205.795 418.783H177.782L146.029 218.638C142.612 197.169 152.851 177.102 169.813 166.507C171.315 165.572 172.773 164.559 174.165 163.48C184.427 166.897 191.817 176.58 191.817 187.988V212.286C191.817 226.464 203.188 238.41 217.365 238.252C224.616 238.171 231.196 241.08 235.946 245.819C240.619 250.492 243.513 256.959 243.513 264.093Z" fill="#2E3140"/>
<path d="M174.561 398.493H190.095C204.162 398.493 216.009 387.979 217.679 374.012L221.502 342.05C223.48 325.517 210.569 310.969 193.918 310.969H160.675L174.561 398.493Z" fill="#3E4E60"/>
<path d="M337.439 398.493H321.905C307.838 398.493 295.991 387.979 294.321 374.012L290.498 342.05C288.52 325.517 301.431 310.969 318.082 310.969H351.325L337.439 398.493Z" fill="#3F5D77"/>
<path d="M342.054 238.248C335.432 238.248 330.063 232.879 330.063 226.257V197.961C330.063 191.339 335.432 185.97 342.054 185.97C348.676 185.97 354.045 191.339 354.045 197.961V226.257C354.045 232.879 348.676 238.248 342.054 238.248Z" fill="#3F5D77"/>
<path d="M169.946 238.248C163.324 238.248 157.955 232.879 157.955 226.257V197.961C157.955 191.339 163.324 185.97 169.946 185.97C176.568 185.97 181.937 191.339 181.937 197.961V226.257C181.937 232.879 176.569 238.248 169.946 238.248Z" fill="#3E4E60"/>
<path d="M473.994 200.269H469.564C465.906 200.269 462.761 197.676 462.065 194.084L458.283 174.582C457.449 170.279 460.398 166.158 464.74 165.56L472.952 164.428C477.542 163.796 481.634 167.362 481.634 171.996V192.63C481.633 196.849 478.213 200.269 473.994 200.269Z" fill="#3F5D77"/>
<path d="M37.88 200.269H42.31C45.968 200.269 49.113 197.676 49.809 194.084L53.591 174.582C54.425 170.279 51.476 166.158 47.134 165.56L38.922 164.428C34.332 163.796 30.24 167.362 30.24 171.996V192.63C30.241 196.849 33.661 200.269 37.88 200.269Z" fill="#3E4E60"/>
<path d="M390.124 108.9C390.124 127.509 388.655 142.612 383.034 153.652C376 167.464 362.455 174.921 337.102 174.921C312.35 174.921 303.524 164.426 303.524 152.005C303.524 140.92 312.528 132.272 322.812 132.272C327.92 132.272 332.372 131.827 336.234 131.003C375.244 122.723 352.962 75.944 328.621 59.584C306.829 44.949 323.846 39.973 332.327 39.973C340.808 39.974 390.124 67.008 390.124 108.9Z" fill="#B26E2B"/>
<path d="M390.124 108.9C390.124 127.509 388.655 142.612 383.034 153.652C381.876 153.741 380.697 153.786 379.517 153.786C363.123 153.786 348.064 145.25 336.234 131.003C353.797 127.275 358.938 115.744 357.058 102.7C354.765 86.773 342 68.588 328.622 59.584C306.83 44.949 323.847 39.973 332.328 39.973C339.34 39.973 374.22 58.426 386.129 88.476C388.632 94.799 390.124 101.622 390.124 108.9Z" fill="#C68132"/>
<path d="M386.128 88.477C377.803 94.554 367.953 99.417 357.057 102.701C354.764 86.774 341.999 68.589 328.621 59.585C306.829 44.95 323.846 39.974 332.327 39.974C339.339 39.974 374.219 58.427 386.128 88.477Z" fill="#DD8C29"/>
<path d="M373.746 137.983C373.456 137.983 373.162 137.95 372.868 137.882C370.771 137.399 369.463 135.308 369.946 133.212C377.754 99.322 367.668 86.204 349.169 65.934C347.719 64.345 347.831 61.881 349.42 60.431C351.009 58.981 353.474 59.093 354.923 60.682C374.66 82.307 386.031 98.097 377.538 134.96C377.124 136.763 375.52 137.983 373.746 137.983Z" fill="#FBCB74"/>
<path d="M376.368 112.265C374.333 112.265 372.62 110.684 372.485 108.624C371.735 97.172 367.691 87.9 358.525 76.623C357.168 74.954 357.421 72.5 359.091 71.143C360.76 69.787 363.215 70.039 364.571 71.709C372.087 80.956 379.189 91.766 380.26 108.115C380.4 110.262 378.774 112.116 376.627 112.257C376.54 112.263 376.453 112.265 376.368 112.265Z" fill="white"/>
<path d="M121.876 108.9C121.876 127.509 123.345 142.612 128.966 153.652C136 167.464 149.545 174.921 174.898 174.921C199.65 174.921 208.476 164.426 208.476 152.005C208.476 140.92 199.472 132.272 189.188 132.272C184.08 132.272 179.628 131.827 175.766 131.003C136.756 122.723 159.038 75.944 183.379 59.584C205.171 44.949 188.154 39.973 179.673 39.973C171.192 39.973 121.876 67.008 121.876 108.9Z" fill="#B26E2B"/>
<path d="M121.876 108.9C121.876 127.509 123.345 142.612 128.966 153.652C130.124 153.741 131.303 153.786 132.483 153.786C148.877 153.786 163.935 145.25 175.766 131.003C158.203 127.275 153.061 115.744 154.942 102.7C157.235 86.773 170 68.588 183.378 59.584C205.17 44.949 188.153 39.973 179.672 39.973C172.66 39.973 137.78 58.426 125.871 88.476C123.368 94.799 121.876 101.622 121.876 108.9Z" fill="#C68132"/>
<path d="M125.872 88.477C134.197 94.554 144.047 99.417 154.943 102.701C157.236 86.774 170.001 68.589 183.379 59.585C205.171 44.95 188.154 39.974 179.673 39.974C172.661 39.974 137.781 58.427 125.872 88.477Z" fill="#DD8C29"/>
<path d="M138.254 137.983C138.544 137.983 138.838 137.95 139.132 137.882C141.229 137.399 142.537 135.308 142.054 133.212C134.246 99.322 144.332 86.204 162.831 65.934C164.281 64.345 164.169 61.881 162.58 60.431C160.991 58.981 158.526 59.093 157.077 60.682C137.34 82.307 125.969 98.097 134.462 134.96C134.876 136.763 136.48 137.983 138.254 137.983Z" fill="#FBCB74"/>
<path d="M135.632 112.265C137.667 112.265 139.38 110.684 139.515 108.624C140.265 97.172 144.309 87.9 153.475 76.623C154.832 74.954 154.579 72.5 152.909 71.143C151.24 69.787 148.785 70.039 147.429 71.709C139.913 80.956 132.811 91.766 131.74 108.115C131.6 110.262 133.226 112.116 135.373 112.257C135.46 112.263 135.547 112.265 135.632 112.265Z" fill="white"/>
<path d="M315.303 434.034L305.964 444.69C300.02 451.477 292.427 456.853 283.878 460.53C275.315 464.219 265.81 466.208 256 466.208C236.394 466.208 217.924 458.252 206.036 444.69L196.697 434.034C191.224 427.79 196.337 418.785 205.371 418.785H306.63C315.664 418.784 320.776 427.789 315.303 434.034Z" fill="#EE6781"/>
<path d="M315.303 434.034L305.964 444.69C300.02 451.477 292.427 456.853 283.878 460.53C275.315 464.219 265.81 466.208 256 466.208V418.784H306.63C315.664 418.784 320.776 427.789 315.303 434.034Z" fill="#F4829B"/>
<path d="M270.946 418.784H241.054C236.949 418.784 233.622 422.112 233.622 426.216C233.622 430.321 236.95 433.648 241.054 433.648H270.946C275.051 433.648 278.378 430.32 278.378 426.216C278.379 422.112 275.051 418.784 270.946 418.784Z" fill="#FF9FB4"/>
<path d="M292.919 422.985H291.876C287.881 422.985 284.643 426.223 284.643 430.218V437.08C284.643 441.075 287.881 444.313 291.876 444.313H292.919C296.914 444.313 300.152 441.075 300.152 437.08V430.218C300.152 426.223 296.913 422.985 292.919 422.985Z" fill="#3E4E60"/>
<path d="M220.124 422.985H219.081C215.086 422.985 211.848 426.223 211.848 430.218V437.08C211.848 441.075 215.086 444.313 219.081 444.313H220.124C224.119 444.313 227.357 441.075 227.357 437.08V430.218C227.358 426.223 224.119 422.985 220.124 422.985Z" fill="#2E3140"/>
<path d="M319.518 249.372L302.14 254.029C292.672 256.566 287.053 266.298 289.59 275.766L291.867 284.263C294.404 293.731 304.136 299.35 313.604 296.813L330.982 292.156C340.45 289.619 346.069 279.887 343.532 270.419L341.255 261.922C338.718 252.454 328.986 246.835 319.518 249.372Z" fill="white"/>
<path d="M335.371 268.057C337.419 275.701 332.943 283.548 325.347 285.687C325.285 285.715 325.221 285.732 325.156 285.75L315.448 288.351C311.599 289.382 307.688 288.76 304.484 286.91C301.27 285.063 298.778 281.998 297.744 278.139C295.823 270.968 299.646 263.607 306.391 260.958C306.901 260.752 307.429 260.576 307.967 260.432L317.675 257.831C321.534 256.797 325.438 257.433 328.641 259.283C331.845 261.132 334.337 264.197 335.371 268.057Z" fill="#3E4E60"/>
<path d="M335.371 268.057C337.419 275.701 332.943 283.548 325.347 285.687C316.986 283.123 309.901 275.988 307.311 266.323C306.83 264.528 306.522 262.732 306.392 260.958C306.902 260.752 307.43 260.576 307.968 260.432L317.676 257.831C321.535 256.797 325.439 257.433 328.642 259.283C331.845 261.132 334.337 264.197 335.371 268.057Z" fill="#2E3140"/>
<path d="M322.348 263.331L316.507 264.896C313.992 265.57 312.499 268.155 313.173 270.67C313.847 273.185 316.432 274.678 318.947 274.004L324.788 272.439C327.303 271.765 328.796 269.18 328.122 266.665C327.448 264.15 324.863 262.657 322.348 263.331Z" fill="white"/>
<path d="M193.2 249.372L210.578 254.029C220.046 256.566 225.665 266.298 223.128 275.766L220.851 284.263C218.314 293.731 208.582 299.35 199.114 296.813L181.736 292.156C172.268 289.619 166.649 279.887 169.186 270.419L171.463 261.922C174 252.454 183.732 246.835 193.2 249.372Z" fill="white"/>
<path d="M214.973 278.139C212.925 285.783 205.124 290.341 197.476 288.395C197.409 288.388 197.344 288.371 197.28 288.354L187.572 285.753C183.723 284.722 180.647 282.227 178.798 279.023C176.938 275.817 176.312 271.916 177.346 268.057C179.267 260.886 186.259 256.423 193.425 257.502C193.969 257.579 194.515 257.69 195.053 257.835L204.761 260.436C208.62 261.47 211.683 263.973 213.532 267.176C215.382 270.378 216.007 274.279 214.973 278.139Z" fill="#3E4E60"/>
<path d="M214.973 278.139C212.925 285.783 205.124 290.341 197.476 288.395C191.517 281.994 188.949 272.272 191.538 262.607C192.019 260.812 192.65 259.103 193.425 257.501C193.969 257.578 194.515 257.689 195.053 257.834L204.761 260.435C208.62 261.469 211.683 263.972 213.532 267.175C215.382 270.378 216.007 274.279 214.973 278.139Z" fill="#2E3140"/>
<path d="M206.058 267.534L200.217 265.969C197.702 265.295 195.117 266.788 194.443 269.303C193.769 271.818 195.262 274.403 197.777 275.077L203.618 276.642C206.133 277.316 208.718 275.823 209.392 273.308C210.065 270.793 208.573 268.208 206.058 267.534Z" fill="white"/>
<path d="M115.358 228.094H164.552C169.72 228.094 173.91 232.326 173.91 237.547C173.91 242.768 169.72 247 164.552 247H115.358C110.19 247 106 242.768 106 237.547C106 232.326 110.19 228.094 115.358 228.094Z" fill="#F9A824"/>
<path d="M110.27 230.426L126.55 218.144L130.709 223.77L114.429 236.052L110.27 230.426Z" fill="#F9A824"/>
<path d="M165.622 232.956H200.913C203.423 232.956 205.458 235.011 205.458 237.547C205.458 240.083 203.423 242.138 200.913 242.138H165.622C163.111 242.138 161.076 240.083 161.076 237.547C161.076 235.011 163.111 232.956 165.622 232.956Z" fill="#FDD835"/>
<path d="M300.639 224.313H169.632C168.156 224.313 166.958 225.522 166.958 227.014V247H300.639V224.313Z" fill="#FDD835"/>
<path d="M340.743 219.992H396.354V247H340.743V219.992Z" fill="#FDEF59"/>
<path d="M163.483 242.138H224.441C225.77 242.138 226.847 243.227 226.847 244.569C226.847 245.912 225.77 247 224.441 247H163.483C162.154 247 161.076 245.912 161.076 244.569C161.076 243.227 162.154 242.138 163.483 242.138Z" fill="#F9A824"/>
<path d="M122.576 224.313H169.097V230.255H122.576V224.313Z" fill="#F9A824"/>
<path d="M162.372 233.694L167.223 225.704C167.889 224.608 169.308 224.264 170.393 224.937C171.478 225.609 171.818 227.042 171.152 228.138L166.3 236.128C165.635 237.224 164.216 237.568 163.131 236.895C162.046 236.223 161.706 234.789 162.372 233.694Z" fill="#FDD835"/>
<path d="M295.559 224.313H393.948C395.277 224.313 396.354 225.401 396.354 226.744C396.354 228.086 395.277 229.175 393.948 229.175H295.559C294.23 229.175 293.153 228.086 293.153 226.744C293.153 225.401 294.23 224.313 295.559 224.313Z" fill="#FDEF59"/>
<path d="M360.528 237.277C360.528 232.802 356.937 229.175 352.507 229.175H278.181V247H360.528V237.277Z" fill="#FDD835"/>
<path d="M381.756 200.823C382.133 196.195 386.152 192.752 390.733 193.132C395.314 193.513 398.722 197.573 398.346 202.201L396.287 227.501C395.91 232.129 391.891 235.572 387.31 235.191C382.729 234.811 379.32 230.751 379.697 226.123L381.756 200.823Z" fill="#FDEF59"/>
<path d="M381.649 229.175H405.177C410.05 229.175 414 233.165 414 238.087C414 243.01 410.05 247 405.177 247H381.649C376.777 247 372.826 243.01 372.826 238.087C372.826 233.165 376.777 229.175 381.649 229.175Z" fill="#FDEF59"/>
<path d="M388.876 228.966L396.301 219.749L410.585 231.489L403.16 240.707L388.876 228.966Z" fill="#FDEF59"/>
<path d="M146.639 219.992H394.215C395.397 219.992 396.354 220.959 396.354 222.152C396.354 223.346 395.397 224.313 394.215 224.313H146.639C145.458 224.313 144.5 223.346 144.5 222.152C144.5 220.959 145.458 219.992 146.639 219.992Z" fill="#F9A824"/>
<path d="M122.51 202.517C122.133 197.889 125.542 193.829 130.123 193.449C134.704 193.069 138.723 196.512 139.1 201.14L141.158 226.44C141.535 231.068 138.126 235.128 133.545 235.508C128.964 235.888 124.945 232.445 124.568 227.817L122.51 202.517Z" fill="#F9A824"/>
<path d="M132.736 193.794C132.736 176.946 136.028 160.264 142.424 144.7C148.819 129.135 158.193 114.992 170.011 103.079L260 193.794H132.736Z" fill="#F9A824"/>
<path d="M170.011 103.079C180.764 92.2391 193.358 83.4296 207.195 77.0688L260 193.794L170.011 103.079Z" fill="#FDD835"/>
<path d="M207.062 85.4903C179.893 85.4903 157.868 107.74 157.868 135.186V192.983H207.062V85.4903Z" fill="#FDD835"/>
<path d="M132.736 192.983H214.014V224.313H132.736V192.983Z" fill="#F9A824"/>
<path d="M207.062 197.845H157.868V206.488C157.868 213.946 163.853 219.992 171.236 219.992H207.062V197.845Z" fill="#FDD835"/>
<path d="M349.989 103.079C361.807 114.992 371.181 129.135 377.576 144.7C383.972 160.264 387.264 176.946 387.264 193.794H260L349.989 103.079Z" fill="#FDEF59"/>
<path d="M312.047 76.723C325.332 82.7253 337.498 90.9813 348.015 101.132L260 193.794L312.047 76.723Z" fill="#FDD835"/>
<path d="M242.354 52C222.863 52 207.062 67.9615 207.062 87.651V219.992H242.354V52Z" fill="#F9A824"/>
<path d="M313.472 87.651C313.472 67.9615 297.672 52 278.181 52V219.992H313.472V87.651Z" fill="#F9A824"/>
<path d="M242.354 65.5041H278.181V219.992H242.354V65.5041Z" fill="#FDD835"/>
<path d="M360.528 126.003C360.528 108.7 346.643 94.6731 329.514 94.6731H313.472V192.983H360.528V126.003Z" fill="#FDD835"/>
<path d="M329.514 194.064H388.868V219.992H329.514V194.064Z" fill="#FDEF59"/>
<path d="M360.528 207.028C360.528 204.342 358.373 202.166 355.715 202.166H313.472V219.992H360.528V207.028Z" fill="#FDD835"/>
<path d="M313.472 194.064H329.514V218.371H313.472V194.064Z" fill="#FDD835"/>
<path d="M388.868 194.58C388.868 193.4 387.921 192.443 386.753 192.443H313.472V197.845H385.636C387.421 197.845 388.868 196.383 388.868 194.58Z" fill="#F9A824"/>
<path d="M260 211.349C223.38 211.349 193.694 181.361 193.694 144.368C193.694 107.376 223.38 77.3878 260 77.3878C296.62 77.3878 326.306 107.376 326.306 144.368C326.306 181.361 296.62 211.349 260 211.349Z" fill="#FDEF59"/>
<path d="M260 180.56C240.509 180.56 224.708 164.598 224.708 144.909C224.708 125.219 240.509 109.258 260 109.258C279.491 109.258 295.292 125.219 295.292 144.909C295.292 164.598 279.491 180.56 260 180.56Z" fill="#E2F4FF"/>
<path d="M267.753 172.997C246.638 172.997 229.521 155.706 229.521 134.375C229.521 113.045 246.638 95.7535 267.753 95.7535C288.869 95.7535 305.986 113.045 305.986 134.375C305.986 155.706 288.869 172.997 267.753 172.997Z" fill="white"/>
<path d="M202.785 145.719C202.785 178.087 228.76 204.327 260.802 204.327C292.844 204.327 318.819 178.087 318.819 145.719C318.819 113.35 292.844 87.1108 260.802 87.1108C228.76 87.1108 202.785 113.35 202.785 145.719ZM303.045 145.719C303.045 169.286 284.132 188.392 260.802 188.392C237.472 188.392 218.559 169.286 218.559 145.719C218.559 122.151 237.472 103.046 260.802 103.046C284.132 103.046 303.045 122.151 303.045 145.719Z" fill="#F9A824"/>
<path d="M215.618 144.909C215.618 169.371 235.249 189.202 259.465 189.202C283.681 189.202 303.312 169.371 303.312 144.909C303.312 120.446 283.681 100.615 259.465 100.615C235.249 100.615 215.618 120.446 215.618 144.909ZM294.222 144.909C294.222 164.3 278.661 180.019 259.465 180.019C240.269 180.019 224.708 164.3 224.708 144.909C224.708 125.517 240.269 109.798 259.465 109.798C278.661 109.798 294.222 125.517 294.222 144.909Z" fill="#F17F16"/>
<path d="M235.133 52.7913C225.428 55.3344 216.063 59.0514 207.24 63.8619L208.406 66.0449C217.055 61.3293 226.236 57.6855 235.749 55.1926L235.133 52.7913Z" fill="#F9A824"/>
<path d="M207.062 63.8837H218.826V85.4903H207.062V63.8837Z" fill="#F9A824"/>
<path d="M301.708 63.8837H313.472V85.4903H301.708V63.8837Z" fill="#F9A824"/>
<path d="M223.104 59.0221H218.826C214.692 59.0221 211.34 62.4079 211.34 66.5845V80.6288H223.104V59.0221Z" fill="#F9A824"/>
<path d="M309.194 66.0443C309.194 62.7627 306.561 60.1025 303.312 60.1025C300.064 60.1025 297.431 62.7627 297.431 66.0443V81.7091H309.194V66.0443Z" fill="#F9A824"/>
<path d="M313.605 62.9596C305.798 59.2204 297.689 56.1635 289.367 53.8222L288.621 56.5274C296.791 58.8257 304.751 61.8265 312.414 65.497L313.605 62.9596Z" fill="#F9A824"/>
<path d="M330.049 197.845H365.34C366.522 197.845 367.479 198.812 367.479 200.006C367.479 201.199 366.522 202.166 365.34 202.166H330.049C328.867 202.166 327.91 201.199 327.91 200.006C327.91 198.812 328.867 197.845 330.049 197.845Z" fill="#FDEF59"/>
</svg>
