<svg width="512" height="512" viewBox="0 0 512 512" fill="none" xmlns="http://www.w3.org/2000/svg">
<path d="M256 512C397.385 512 512 397.385 512 256C512 114.615 397.385 0 256 0C114.615 0 0 114.615 0 256C0 397.385 114.615 512 256 512Z" fill="#EE6781"/>
<path d="M444.74 160.67L402.03 221.68C392.67 235.05 379.19 244.98 363.65 249.96L339.54 257.68C340.27 263.9 340.1 270.52 338.87 277.24L338.12 281.33L332.75 310.66L325.51 350.19L322.59 366.11L313.86 413.81L305.86 457.48C302.38 476.49 286.45 490.14 268.69 490.14H243.31C225.55 490.14 209.62 476.49 206.14 457.48L198.14 413.81L189.4 366.11L179.25 310.66L173.13 277.24C171.9 270.52 171.73 263.9 172.46 257.68L148.35 249.96C132.81 244.98 119.33 235.05 109.97 221.68L67.26 160.67C62.1 153.3 62.16 143.48 67.4 136.17C73.25 128.02 84.01 125.08 93.19 129.15L154.94 156.48C158.88 158.22 162.11 161.04 164.37 164.5C166.62 167.96 167.89 172.06 167.89 176.37C167.89 191.3 174.1 205.55 185.03 215.72L193.08 223.2C196.76 221.36 200.81 220.34 205.15 220.34H306.85C311.19 220.34 315.24 221.36 318.92 223.2L326.97 215.72C332.44 210.64 336.72 204.53 339.64 197.83C342.56 191.13 344.11 183.84 344.11 176.37C344.11 167.76 349.19 159.96 357.06 156.48L418.81 129.15C427.99 125.08 438.75 128.02 444.6 136.17C449.84 143.48 449.9 153.3 444.74 160.67Z" fill="#A26D5A"/>
<path d="M338.87 277.24L338.12 281.33L325.51 350.19L313.86 413.81L305.86 457.48C305.76 458.01 305.66 458.53 305.54 459.05C305.51 459.21 305.47 459.38 305.43 459.54C305.36 459.84 305.28 460.15 305.19 460.45C305.14 460.67 305.08 460.89 305.02 461.1C304.92 461.49 304.81 461.88 304.68 462.27C304.55 462.69 304.42 463.11 304.27 463.52C304.23 463.67 304.18 463.81 304.12 463.95C303.99 464.33 303.85 464.71 303.7 465.09C303.67 465.2 303.62 465.31 303.57 465.42C303.41 465.84 303.24 466.25 303.05 466.66C303.03 466.73 303 466.8 302.96 466.86C302.79 467.27 302.61 467.67 302.41 468.06C302.36 468.19 302.3 468.31 302.24 468.42C302.08 468.75 301.92 469.07 301.74 469.39C301.54 469.79 301.33 470.18 301.1 470.56C301.09 470.58 301.09 470.6 301.08 470.61C300.85 471.01 300.62 471.4 300.38 471.78C299.73 472.84 299.03 473.86 298.29 474.85C297.62 475.75 296.92 476.61 296.17 477.44C295.8 477.85 295.42 478.26 295.03 478.66C294.27 479.46 293.47 480.23 292.63 480.94C291.39 482.04 290.08 483.04 288.72 483.94C288.26 484.24 287.8 484.54 287.34 484.82C286.41 485.4 285.45 485.92 284.48 486.4C283.98 486.64 283.47 486.88 282.95 487.11C282.47 487.32 281.99 487.52 281.5 487.71C281.04 487.89 280.57 488.06 280.1 488.22C279.96 488.27 279.82 488.32 279.67 488.37C279.36 488.47 279.05 488.57 278.74 488.66C278.52 488.73 278.3 488.79 278.08 488.85C277.7 488.96 277.32 489.06 276.94 489.15C276.88 489.16 276.82 489.18 276.76 489.19C276.36 489.29 275.95 489.38 275.54 489.45C275.37 489.5 275.19 489.53 275.02 489.56C274.75 489.61 274.48 489.66 274.2 489.69C273.9 489.75 273.59 489.79 273.29 489.83C272.85 489.89 272.4 489.94 271.96 489.98C271.42 490.04 270.89 490.07 270.35 490.1C269.8 490.13 269.24 490.14 268.69 490.14H256V220.34H306.85C329.49 220.34 344.25 247.84 338.87 277.24Z" fill="#C17E62"/>
<path d="M313.86 413.81L305.86 457.48C302.38 476.49 286.45 490.14 268.69 490.14H243.31C225.55 490.14 209.62 476.49 206.14 457.48L198.14 413.81C226.23 375.712 285.602 375.549 313.86 413.81Z" fill="#2E3140"/>
<path d="M313.86 413.81L305.86 457.48C305.76 458.01 305.66 458.53 305.54 459.05C304.528 463.531 302.8 467.876 300.38 471.78C294.838 480.847 285.522 487.645 275.02 489.56C270.727 490.555 260.466 490.002 256 490.14V385.02C279.607 385.087 300.322 396.057 313.86 413.81Z" fill="#3E4E60"/>
<path d="M332.75 310.66L325.51 350.19L322.59 366.11H315.52C300.2 366.11 287.79 353.7 287.79 338.39C287.79 330.73 290.89 323.8 295.91 318.78C300.93 313.76 307.86 310.66 315.52 310.66H332.75V310.66Z" fill="white"/>
<path d="M224.21 338.39C224.21 346.04 221.11 352.98 216.09 357.99C211.07 363.01 204.14 366.11 196.48 366.11H189.4L179.25 310.66H196.48C211.8 310.66 224.21 323.07 224.21 338.39Z" fill="#C2AACF"/>
<path d="M307.215 234.092L326.971 215.717C337.9 205.552 344.108 191.299 344.108 176.374C344.108 167.764 349.185 159.964 357.059 156.479L418.812 129.146C427.988 125.084 438.756 128.018 444.603 136.174C449.842 143.481 449.898 153.3 444.741 160.667L402.031 221.681C392.673 235.049 379.192 244.982 363.651 249.959L336.894 258.528L307.215 234.092Z" fill="#C17E62"/>
<path d="M427.536 141.33H427.376C426.376 141.33 425.406 141.54 424.476 141.95L399.006 153.22L362.726 169.28C360.026 170.48 358.236 173.11 358.116 176.04C357.706 185.53 355.746 194.82 352.136 203.35C348.536 211.88 343.286 219.66 336.336 226.13C334.326 227.99 333.336 230.51 333.336 233.02C333.336 235.72 334.486 238.41 336.766 240.28C338.716 241.89 341.356 242.4 343.766 241.63L359.206 236.68C370.566 233.04 380.576 226.18 388.046 216.97V216.96C388.966 215.84 389.836 214.69 390.666 213.5L433.276 152.64C436.606 148.09 433.126 141.33 427.536 141.33Z" fill="white"/>
<path d="M380.57 215.312C383.98 216.068 385.233 220.345 382.702 222.752C376.06 229.07 368.041 233.849 359.205 236.68L343.765 241.63C341.355 242.4 338.715 241.89 336.765 240.28C334.485 238.41 333.335 235.72 333.335 233.02C333.335 230.51 334.325 227.99 336.335 226.13C343.285 219.66 348.535 211.88 352.135 203.35C355.745 194.82 357.705 185.53 358.115 176.04C358.235 173.11 360.025 170.48 362.725 169.28L383.71 159.991C387.445 158.338 390.843 162.875 388.206 165.994L376.028 180.398C374.301 182.441 375.753 185.57 378.428 185.57H387.647C391.326 185.57 392.907 190.237 389.986 192.473L372.383 208.415C370.492 210.128 371.321 213.261 373.812 213.813L380.57 215.312Z" fill="#C2AACF"/>
<path d="M366.768 159.688C368.285 163.301 372.472 164.966 376.055 163.38L407.159 149.613C410.937 147.941 412.452 143.378 410.425 139.778C408.656 136.636 404.79 135.352 401.493 136.812L370.389 150.579C366.902 152.122 365.292 156.172 366.768 159.688Z" fill="#D48D77"/>
<path d="M78.724 152.64L121.334 213.5C122.164 214.69 123.034 215.84 123.954 216.96V216.97C131.424 226.18 141.434 233.04 152.794 236.68L168.234 241.63C170.644 242.4 173.284 241.89 175.234 240.28C177.514 238.41 178.664 235.72 178.664 233.02C178.664 230.51 177.674 227.99 175.664 226.13C168.714 219.66 163.464 211.88 159.864 203.35C156.254 194.82 154.294 185.53 153.884 176.04C153.764 173.11 151.974 170.48 149.274 169.28L112.994 153.22L87.524 141.95C86.594 141.54 85.624 141.33 84.624 141.33H84.464C78.874 141.33 75.394 148.09 78.724 152.64Z" fill="#C2AACF"/>
<path d="M131.43 215.312C128.02 216.068 126.767 220.345 129.298 222.752C135.94 229.07 143.959 233.849 152.795 236.68L168.235 241.63C170.645 242.4 173.285 241.89 175.235 240.28C177.515 238.41 178.665 235.72 178.665 233.02C178.665 230.51 177.675 227.99 175.665 226.13C168.715 219.66 163.465 211.88 159.865 203.35C156.255 194.82 154.295 185.53 153.885 176.04C153.765 173.11 151.975 170.48 149.275 169.28L128.29 159.991C124.555 158.338 121.157 162.875 123.794 165.994L135.972 180.398C137.699 182.441 136.247 185.57 133.572 185.57H124.353C120.674 185.57 119.093 190.237 122.014 192.473L139.617 208.415C141.508 210.128 140.679 213.261 138.188 213.813L131.43 215.312Z" fill="white"/>
<path d="M145.232 159.688C143.715 163.301 139.528 164.966 135.945 163.38L104.841 149.613C101.063 147.941 99.548 143.378 101.575 139.778C103.344 136.636 107.21 135.352 110.507 136.812L141.611 150.579C145.098 152.122 146.708 156.172 145.232 159.688Z" fill="#C17E62"/>
<path d="M304.683 462.273C299.641 478.728 284.96 490.141 268.695 490.141H256V417.573H273.355C272.775 440.347 286.336 458.221 304.683 462.273Z" fill="white"/>
<path d="M207.317 462.273C212.359 478.728 227.04 490.141 243.305 490.141H256V417.573H238.645C239.225 440.347 225.664 458.221 207.317 462.273Z" fill="#C2AACF"/>
<path d="M281.543 414.968L280.652 438.868C280.43 444.827 275.831 449.577 270.374 449.577H241.626C236.169 449.577 231.57 444.827 231.348 438.868L230.457 414.968C229.852 398.751 241.272 385.022 256 385.022C270.728 385.022 282.148 398.751 281.543 414.968Z" fill="#3E4E60"/>
<path d="M281.543 414.968L280.652 438.868C280.43 444.827 275.831 449.577 270.374 449.577H256V385.022C270.728 385.022 282.148 398.751 281.543 414.968Z" fill="#3F5D77"/>
<path d="M304.562 470.623C303.516 468.067 300.597 466.843 298.041 467.89C294.474 469.35 289.606 471.062 288.324 471.185C284.399 471.526 277.416 470.375 271.255 469.359C267.623 468.76 264.121 468.183 261 467.839V459.475C261 456.714 258.761 454.475 256 454.475C253.239 454.475 251 456.714 251 459.475V467.839C247.879 468.183 244.377 468.759 240.745 469.359C234.584 470.375 227.602 471.528 223.677 471.185C222.52 471.074 217.979 469.535 213.959 467.89C211.407 466.846 208.485 468.069 207.438 470.624C206.393 473.18 207.616 476.099 210.171 477.145C212.283 478.01 219.437 480.853 222.807 481.147C227.99 481.598 235.3 480.392 242.372 479.225C247.462 478.386 252.725 477.517 255.999 477.517C259.273 477.517 264.537 478.385 269.626 479.225C275.658 480.22 281.864 481.244 286.773 481.244C287.62 481.244 288.429 481.213 289.191 481.147C292.561 480.854 299.715 478.01 301.828 477.145C304.385 476.098 305.608 473.178 304.562 470.623Z" fill="#151516"/>
<path d="M256 448.8V459.475C255.813 459.722 255.615 459.956 255.404 460.177C252.293 463.444 247.25 463.444 244.081 460.177L241.468 457.488L235.23 451.075C231.936 447.679 231.73 442.105 234.831 438.621C236.397 436.862 238.495 435.979 240.625 435.979C242.755 435.979 244.894 436.862 246.541 438.621L255.392 448.073C255.608 448.309 255.81 448.551 256 448.8Z" fill="#151516"/>
<path d="M276.77 451.075L267.919 460.177C264.75 463.444 259.707 463.444 256.596 460.177C256.385 459.956 256.187 459.722 256 459.475V448.8C256.19 448.551 256.392 448.309 256.607 448.073L265.458 438.621C267.105 436.862 269.244 435.979 271.375 435.979C273.506 435.979 275.603 436.862 277.169 438.621C280.27 442.104 280.064 447.679 276.77 451.075Z" fill="#2E3140"/>
<path d="M345.519 316.001C354.078 320.943 357.056 331.827 352.236 340.425C352.206 340.504 352.165 340.576 352.123 340.649L345.847 351.52C343.359 355.83 339.354 358.734 334.892 359.93C330.423 361.138 325.514 360.631 321.193 358.136C313.163 353.5 310.038 343.622 313.656 335.326C313.924 334.694 314.236 334.072 314.583 333.47L320.859 322.599C323.354 318.277 327.364 315.391 331.826 314.196C336.289 312.999 341.197 313.505 345.519 316.001Z" fill="#3E4E60"/>
<path d="M345.519 316.001C354.078 320.943 357.056 331.827 352.236 340.425C342.587 345.544 330.028 345.5 319.206 339.252C317.196 338.091 315.338 336.778 313.656 335.325C313.924 334.693 314.236 334.071 314.583 333.469L320.859 322.598C323.354 318.276 327.364 315.39 331.826 314.195C336.289 312.999 341.197 313.505 345.519 316.001Z" fill="#2E3140"/>
<path d="M329.844 323.329L326.068 329.87C324.442 332.686 325.407 336.288 328.223 337.914C331.039 339.54 334.641 338.575 336.267 335.759L340.043 329.218C341.669 326.402 340.704 322.8 337.888 321.174C335.071 319.547 331.47 320.512 329.844 323.329Z" fill="white"/>
<path d="M166.481 316.001C157.922 320.943 154.944 331.827 159.764 340.425C159.794 340.504 159.835 340.576 159.877 340.649L166.153 351.52C168.641 355.83 172.646 358.734 177.108 359.93C181.577 361.138 186.486 360.631 190.807 358.136C198.837 353.5 201.962 343.622 198.344 335.326C198.076 334.694 197.764 334.072 197.417 333.47L191.141 322.599C188.646 318.277 184.636 315.391 180.174 314.196C175.711 312.999 170.803 313.505 166.481 316.001Z" fill="#3E4E60"/>
<path d="M166.481 316.001C157.922 320.943 154.944 331.827 159.764 340.425C169.413 345.544 181.972 345.5 192.794 339.252C194.804 338.091 196.662 336.778 198.344 335.325C198.076 334.693 197.764 334.071 197.417 333.469L191.141 322.598C188.646 318.276 184.636 315.39 180.174 314.195C175.711 312.999 170.803 313.505 166.481 316.001Z" fill="#2E3140"/>
<path d="M182.156 323.329L185.932 329.87C187.558 332.686 186.593 336.288 183.777 337.914C180.961 339.54 177.359 338.575 175.733 335.759L171.957 329.218C170.331 326.402 171.296 322.8 174.112 321.174C176.929 319.547 180.53 320.512 182.156 323.329Z" fill="white"/>
<path d="M256 322.297C287.709 322.297 316.726 296.591 316.726 264.882C316.726 246.902 302.151 232.327 284.171 232.327H256V322.297Z" fill="#D48D77"/>
<path d="M256 322.297C224.291 322.297 195.274 296.591 195.274 264.882C195.274 246.902 209.849 232.327 227.829 232.327H256V322.297Z" fill="#C17E62"/>
<path d="M404.246 69.04C404.246 71.42 403.336 73.81 401.516 75.63L303.446 173.69C296.456 180.69 292.526 190.17 292.526 200.06V241.99C292.526 247.11 288.376 251.25 283.266 251.25C278.147 251.261 273.99 247.094 273.996 241.99V104.71C273.996 100.6 276.796 97.15 280.586 96.15C286.086 94.637 291.779 98.978 291.696 104.71V138.74C291.696 142.93 296.756 145.03 299.726 142.07L332.066 109.73C340.576 101.21 345.356 89.67 345.356 77.63V46.16C345.298 38.227 355.175 34.292 360.586 39.85C362.206 41.46 363.206 43.7 363.206 46.16V78.2C363.206 81.65 367.386 83.38 369.826 80.94L388.326 62.44C389.606 61.16 391.176 60.32 392.826 59.95C398.33 58.457 404.472 63.259 404.246 69.04Z" fill="#3E4E60"/>
<path d="M373.858 76.908L388.326 62.44C389.517 61.249 390.96 60.438 392.484 60.034C392.691 59.979 392.92 60.054 393.056 60.22C394.463 61.933 395.166 64.031 395.166 66.12C395.166 68.5 394.256 70.89 392.436 72.71L294.366 170.78C287.376 177.77 283.446 187.26 283.446 197.15V239.07C283.446 243.335 280.568 246.93 276.644 248.011C276.434 248.069 276.202 247.995 276.065 247.826C274.773 246.233 273.996 244.201 273.996 241.99V104.71C273.996 100.734 276.617 97.375 280.22 96.255C280.438 96.187 280.684 96.265 280.822 96.447C281.95 97.93 282.616 99.777 282.616 101.79V135.83C282.616 136.113 282.643 136.384 282.687 136.646C282.645 136.978 282.616 137.314 282.616 137.658V144.835C282.616 144.889 282.617 144.942 282.618 144.996C282.725 150.767 289.928 153.342 293.715 148.985L299.714 142.084C299.722 142.075 299.735 142.061 299.743 142.053L332.067 109.729C340.577 101.209 345.357 89.669 345.357 77.629V46.16C345.357 42.132 348.02 38.741 351.685 37.622C351.901 37.556 352.145 37.633 352.283 37.813C353.441 39.317 354.127 41.196 354.127 43.25V75.28C354.127 75.303 354.132 75.325 354.132 75.348C354.132 75.382 354.127 75.415 354.127 75.45C354.127 75.724 354.138 75.996 354.16 76.264C354.715 83.107 363.09 86.207 368.286 81.72L373.858 76.908Z" fill="#3F5D77"/>
<path d="M107.754 69.04C107.754 71.42 108.664 73.81 110.484 75.63L208.554 173.69C215.544 180.69 219.474 190.17 219.474 200.06V241.99C219.474 247.11 223.624 251.25 228.734 251.25C233.853 251.261 238.01 247.094 238.004 241.99V104.71C238.004 100.6 235.204 97.15 231.414 96.15C225.914 94.637 220.221 98.978 220.304 104.71V138.74C220.304 142.93 215.244 145.03 212.274 142.07L179.934 109.73C171.424 101.21 166.644 89.67 166.644 77.63V46.16C166.702 38.227 156.825 34.292 151.414 39.85C149.794 41.46 148.794 43.7 148.794 46.16V78.2C148.794 81.65 144.614 83.38 142.174 80.94L123.674 62.44C122.394 61.16 120.824 60.32 119.174 59.95C113.67 58.457 107.528 63.259 107.754 69.04Z" fill="#2E3140"/>
<path d="M138.142 76.908L123.674 62.44C122.483 61.249 121.04 60.438 119.516 60.034C119.309 59.979 119.08 60.054 118.944 60.22C117.537 61.933 116.834 64.031 116.834 66.12C116.834 68.5 117.744 70.89 119.564 72.71L217.634 170.78C224.624 177.77 228.554 187.26 228.554 197.15V239.07C228.554 243.335 231.432 246.93 235.356 248.011C235.566 248.069 235.798 247.995 235.935 247.826C237.227 246.233 238.004 244.201 238.004 241.99V104.71C238.004 100.734 235.383 97.375 231.78 96.255C231.562 96.187 231.316 96.265 231.178 96.447C230.05 97.93 229.384 99.777 229.384 101.79V135.83C229.321 136.461 229.345 137.028 229.384 137.658V144.835C229.384 144.889 229.383 144.942 229.382 144.996C229.275 150.767 222.072 153.342 218.285 148.985C218.256 148.954 212.286 142.08 212.257 142.053L179.933 109.729C171.423 101.209 166.643 89.669 166.643 77.629V46.16C166.643 42.132 163.98 38.741 160.315 37.622C160.099 37.556 159.855 37.633 159.717 37.813C158.559 39.317 157.873 41.196 157.873 43.25V75.28C157.872 75.609 157.87 75.94 157.84 76.264C157.285 83.107 148.91 86.207 143.714 81.72L138.142 76.908Z" fill="#3E4E60"/>
<path d="M157.532 275.62H191.872C195.48 275.62 198.405 278.616 198.405 282.31C198.405 286.005 195.48 289 191.872 289H157.532C153.925 289 151 286.005 151 282.31C151 278.616 153.925 275.62 157.532 275.62Z" fill="#F9A824"/>
<path d="M153.98 277.271L165.345 268.578L168.249 272.56L156.884 281.252L153.98 277.271Z" fill="#F9A824"/>
<path d="M192.619 279.061H217.254C219.007 279.061 220.427 280.516 220.427 282.31C220.427 284.105 219.007 285.559 217.254 285.559H192.619C190.867 285.559 189.446 284.105 189.446 282.31C189.446 280.516 190.867 279.061 192.619 279.061Z" fill="#FDD835"/>
<path d="M286.868 272.945H195.418C194.388 272.945 193.552 273.8 193.552 274.856V289H286.868V272.945Z" fill="#FDD835"/>
<path d="M314.863 269.886H353.682V289H314.863V269.886Z" fill="#FDEF59"/>
<path d="M191.126 285.559H233.678C234.606 285.559 235.358 286.33 235.358 287.28C235.358 288.23 234.606 289 233.678 289H191.126C190.198 289 189.446 288.23 189.446 287.28C189.446 286.33 190.198 285.559 191.126 285.559Z" fill="#F9A824"/>
<path d="M162.571 272.945H195.045V277.15H162.571V272.945Z" fill="#F9A824"/>
<path d="M190.35 279.583L193.737 273.929C194.202 273.153 195.192 272.91 195.95 273.386C196.707 273.862 196.944 274.876 196.48 275.652L193.093 281.306C192.628 282.082 191.638 282.325 190.881 281.849C190.123 281.373 189.886 280.359 190.35 279.583Z" fill="#FDD835"/>
<path d="M283.322 272.945H352.003C352.93 272.945 353.682 273.715 353.682 274.665C353.682 275.615 352.93 276.385 352.003 276.385H283.322C282.394 276.385 281.642 275.615 281.642 274.665C281.642 273.715 282.394 272.945 283.322 272.945Z" fill="#FDEF59"/>
<path d="M328.674 282.119C328.674 278.952 326.167 276.385 323.075 276.385H271.191V289H328.674V282.119Z" fill="#FDD835"/>
<path d="M343.492 256.321C343.755 253.046 346.56 250.609 349.758 250.878C352.956 251.148 355.336 254.021 355.073 257.296L353.635 275.201C353.372 278.476 350.567 280.912 347.369 280.643C344.171 280.374 341.792 277.501 342.055 274.226L343.492 256.321Z" fill="#FDEF59"/>
<path d="M343.418 276.385H359.841C363.243 276.385 366 279.209 366 282.692C366 286.176 363.243 289 359.841 289H343.418C340.016 289 337.259 286.176 337.259 282.692C337.259 279.209 340.016 276.385 343.418 276.385Z" fill="#FDEF59"/>
<path d="M348.462 276.238L353.645 269.714L363.616 278.023L358.433 284.546L348.462 276.238Z" fill="#FDEF59"/>
<path d="M179.368 269.886H352.189C353.014 269.886 353.682 270.571 353.682 271.415C353.682 272.26 353.014 272.945 352.189 272.945H179.368C178.544 272.945 177.875 272.26 177.875 271.415C177.875 270.571 178.544 269.886 179.368 269.886Z" fill="#F9A824"/>
<path d="M162.525 257.52C162.262 254.245 164.641 251.371 167.839 251.102C171.037 250.833 173.843 253.27 174.105 256.545L175.542 274.45C175.805 277.725 173.426 280.598 170.228 280.867C167.03 281.136 164.224 278.7 163.962 275.425L162.525 257.52Z" fill="#F9A824"/>
<path d="M169.663 251.346C169.663 239.424 171.961 227.618 176.426 216.603C180.89 205.588 187.434 195.579 195.683 187.148L258.5 251.346H169.663Z" fill="#F9A824"/>
<path d="M195.683 187.148C203.189 179.477 211.98 173.242 221.639 168.741L258.5 251.346L195.683 187.148Z" fill="#FDD835"/>
<path d="M221.547 174.701C202.581 174.701 187.207 190.447 187.207 209.87V250.773H221.547V174.701Z" fill="#FDD835"/>
<path d="M169.663 250.773H226.399V272.944H169.663V250.773Z" fill="#F9A824"/>
<path d="M221.547 254.213H187.207V260.33C187.207 265.608 191.385 269.887 196.538 269.887H221.547V254.213Z" fill="#FDD835"/>
<path d="M321.317 187.148C329.566 195.579 336.11 205.587 340.574 216.603C345.039 227.618 347.337 239.423 347.337 251.346H258.5L321.317 187.148Z" fill="#FDEF59"/>
<path d="M294.831 168.496C304.105 172.744 312.598 178.587 319.939 185.77L258.5 251.346L294.831 168.496Z" fill="#FDD835"/>
<path d="M246.182 151C232.576 151 221.547 162.296 221.547 176.23L221.547 269.886H246.182L246.182 151Z" fill="#F9A824"/>
<path d="M295.826 176.23C295.826 162.296 284.797 151 271.191 151V269.886H295.826V176.23Z" fill="#F9A824"/>
<path d="M246.182 160.557H271.191V269.886H246.182V160.557Z" fill="#FDD835"/>
<path d="M328.674 203.371C328.674 191.126 318.981 181.199 307.024 181.199H295.826V250.773H328.674V203.371Z" fill="#FDD835"/>
<path d="M307.024 251.537H348.457V269.886H307.024V251.537Z" fill="#FDEF59"/>
<path d="M328.674 260.712C328.674 258.812 327.17 257.271 325.314 257.271H295.826V269.886H328.674V260.712Z" fill="#FDD835"/>
<path d="M295.826 251.537H307.024V268.74H295.826V251.537Z" fill="#FDD835"/>
<path d="M348.457 251.903C348.457 251.068 347.796 250.391 346.98 250.391H295.826V254.213H346.201C347.446 254.213 348.457 253.179 348.457 251.903Z" fill="#F9A824"/>
<path d="M258.5 263.77C232.938 263.77 212.215 242.548 212.215 216.368C212.215 190.189 232.938 168.967 258.5 168.967C284.062 168.967 304.785 190.189 304.785 216.368C304.785 242.548 284.062 263.77 258.5 263.77Z" fill="#FDEF59"/>
<path d="M258.5 241.98C244.894 241.98 233.865 230.685 233.865 216.751C233.865 202.817 244.894 191.521 258.5 191.521C272.106 191.521 283.135 202.817 283.135 216.751C283.135 230.685 272.106 241.98 258.5 241.98Z" fill="#E2F4FF"/>
<path d="M263.912 236.629C249.173 236.629 237.224 224.392 237.224 209.296C237.224 194.201 249.173 181.964 263.912 181.964C278.652 181.964 290.601 194.201 290.601 209.296C290.601 224.392 278.652 236.629 263.912 236.629Z" fill="white"/>
<path d="M218.561 217.324C218.561 240.231 236.693 258.8 259.06 258.8C281.427 258.8 299.559 240.231 299.559 217.324C299.559 194.417 281.427 175.848 259.06 175.848C236.693 175.848 218.561 194.417 218.561 217.324ZM288.548 217.324C288.548 234.002 275.345 247.523 259.06 247.523C242.774 247.523 229.572 234.002 229.572 217.324C229.572 200.645 242.774 187.125 259.06 187.125C275.345 187.125 288.548 200.645 288.548 217.324Z" fill="#F9A824"/>
<path d="M227.519 216.751C227.519 234.063 241.223 248.097 258.127 248.097C275.031 248.097 288.734 234.063 288.734 216.751C288.734 199.439 275.031 185.404 258.127 185.404C241.223 185.404 227.519 199.439 227.519 216.751ZM282.389 216.751C282.389 230.474 271.527 241.598 258.127 241.598C244.727 241.598 233.865 230.474 233.865 216.751C233.865 203.028 244.727 191.903 258.127 191.903C271.527 191.903 282.389 203.028 282.389 216.751Z" fill="#F17F16"/>
<path d="M241.141 151.56C234.367 153.36 227.83 155.99 221.671 159.394L222.485 160.939C228.522 157.602 234.931 155.024 241.572 153.259L241.141 151.56Z" fill="#F9A824"/>
<path d="M221.547 159.41H229.759V174.701H221.547V159.41Z" fill="#F9A824"/>
<path d="M287.615 159.41H295.826V174.701H287.615V159.41Z" fill="#F9A824"/>
<path d="M232.745 155.97H229.759C226.873 155.97 224.533 158.366 224.533 161.321V171.26H232.745V155.97Z" fill="#F9A824"/>
<path d="M292.84 160.939C292.84 158.617 291.002 156.734 288.734 156.734C286.467 156.734 284.628 158.617 284.628 160.939V172.025H292.84V160.939Z" fill="#F9A824"/>
<path d="M295.919 158.756C290.47 156.11 284.809 153.946 279 152.29L278.479 154.204C284.182 155.83 289.738 157.954 295.088 160.552L295.919 158.756Z" fill="#F9A824"/>
<path d="M307.398 254.213H332.033C332.858 254.213 333.526 254.898 333.526 255.742C333.526 256.587 332.858 257.272 332.033 257.272H307.398C306.573 257.272 305.904 256.587 305.904 255.742C305.904 254.898 306.573 254.213 307.398 254.213Z" fill="#FDEF59"/>
</svg>
