<svg width="657" height="657" viewBox="0 0 657 657" fill="none" xmlns="http://www.w3.org/2000/svg">
<path d="M328.5 657C509.925 657 657 509.925 657 328.5C657 147.075 509.925 0 328.5 0C147.075 0 0 147.075 0 328.5C0 509.925 147.075 657 328.5 657Z" fill="white"/>
<path fill-rule="evenodd" clip-rule="evenodd" d="M242.224 299.998L328.89 40L97 271.11L242.224 299.998Z" fill="#FFCC00"/>
<path fill-rule="evenodd" clip-rule="evenodd" d="M328.89 40L242.224 299.998H328.89H415.556L328.89 40Z" fill="#EF7C00"/>
<path fill-rule="evenodd" clip-rule="evenodd" d="M415.556 299.998L328.89 40L560 271.11L415.556 299.998Z" fill="#E6370D"/>
<path fill-rule="evenodd" clip-rule="evenodd" d="M97 271.11L328.89 618.555L242.224 299.998L97 271.11Z" fill="#F7A600"/>
<path fill-rule="evenodd" clip-rule="evenodd" d="M560 271.11L328.89 618.555L415.556 299.998L560 271.11Z" fill="#EB5C05"/>
<path fill-rule="evenodd" clip-rule="evenodd" d="M328.89 618.555L415.556 299.998H328.89H242.224L328.89 618.555Z" fill="#F08300"/>
<path fill-rule="evenodd" clip-rule="evenodd" d="M242.224 299.998L328.89 40L97 271.11L242.224 299.998Z" fill="#FFCC00"/>
<path fill-rule="evenodd" clip-rule="evenodd" d="M328.89 40L242.224 299.998H328.89H415.556L328.89 40Z" fill="#EF7C00"/>
<path fill-rule="evenodd" clip-rule="evenodd" d="M415.556 299.998L328.89 40L560 271.11L415.556 299.998Z" fill="#E6370D"/>
<path fill-rule="evenodd" clip-rule="evenodd" d="M97 271.11L328.89 618.555L242.224 299.998L97 271.11Z" fill="#F7A600"/>
<path fill-rule="evenodd" clip-rule="evenodd" d="M560 271.11L328.89 618.555L415.556 299.998L560 271.11Z" fill="#EB5C05"/>
<path fill-rule="evenodd" clip-rule="evenodd" d="M328.89 618.555L415.556 299.998H328.89H242.224L328.89 618.555Z" fill="#F08300"/>
</svg>
