<svg width="512" height="512" viewBox="0 0 512 512" fill="none" xmlns="http://www.w3.org/2000/svg">
<path d="M256 512C397.385 512 512 397.385 512 256C512 114.615 397.385 0 256 0C114.615 0 0 114.615 0 256C0 397.385 114.615 512 256 512Z" fill="#6C53A2"/>
<path d="M473.108 153.895L387.962 68.749C378.849 59.636 364.074 59.636 354.961 68.749L311.164 112.546C303.506 109.555 295.389 107.521 286.94 106.62C283.61 106.26 280.22 106.08 276.8 106.08H235.2C223.094 106.08 211.515 108.374 200.836 112.546L157.039 68.749C147.926 59.636 133.151 59.636 124.038 68.749L38.892 153.895C29.779 163.008 29.779 177.783 38.892 186.896C48.005 196.009 62.78 196.009 71.893 186.896L79.651 179.138C88.764 170.025 103.539 170.025 112.652 179.138L136.903 203.389C128.133 243.144 112.481 309.849 112.481 309.849C104.471 353.609 138.071 393.919 182.551 393.919H329.451C373.931 393.919 407.531 353.609 399.521 309.849C399.521 309.849 383.869 243.144 375.099 203.389L399.35 179.138C408.463 170.025 423.238 170.025 432.351 179.138L440.109 186.896C449.222 196.009 463.997 196.009 473.11 186.896C482.221 177.783 482.221 163.008 473.108 153.895Z" fill="#F39E22"/>
<path d="M235.2 106.08C231.78 106.08 228.39 106.26 225.06 106.62C216.613 107.511 208.47 109.522 200.775 112.485L157.039 68.749C147.926 59.636 133.151 59.636 124.038 68.749L38.892 153.895C29.779 163.008 29.779 177.783 38.892 186.896C48.005 196.009 62.78 196.009 71.893 186.896L79.651 179.138C88.764 170.025 103.539 170.025 112.652 179.138L136.713 203.199L112.48 309.85C104.47 353.61 138.07 393.92 182.55 393.92H256V106.08H235.2Z" fill="#DD8C29"/>
<path d="M308.263 156.234H297.944C289.353 156.234 282.388 163.199 282.388 171.79V185.623C282.388 194.214 289.353 201.179 297.944 201.179H308.263C316.854 201.179 323.819 194.214 323.819 185.623V171.79C323.819 163.199 316.854 156.234 308.263 156.234Z" fill="#DD8C29"/>
<path d="M214.056 156.234H203.737C195.146 156.234 188.181 163.199 188.181 171.79V185.623C188.181 194.214 195.146 201.179 203.737 201.179H214.056C222.647 201.179 229.612 194.214 229.612 185.623V171.79C229.612 163.199 222.647 156.234 214.056 156.234Z" fill="#B26E2B"/>
<path d="M286.94 106.62V136.77C286.94 145.32 280.01 152.24 271.47 152.24C267.2 152.24 263.33 150.51 260.53 147.71C257.73 144.91 256 141.04 256 136.77V106.08H276.8C280.22 106.08 283.61 106.26 286.94 106.62Z" fill="#F9C744"/>
<path d="M256 106.08V136.77C256 145.32 249.07 152.24 240.53 152.24C236.26 152.24 232.39 150.51 229.59 147.71C226.79 144.91 225.06 141.04 225.06 136.77V106.62C228.39 106.26 231.78 106.08 235.2 106.08H256Z" fill="#F39E22"/>
<path d="M365.273 334.454L349.356 336.448C340.584 337.547 332.583 331.327 331.484 322.555L326.951 286.363C325.852 277.591 332.072 269.59 340.844 268.491L351.292 267.182C359.147 266.198 366.542 271.104 368.688 278.724L378.69 314.231C381.345 323.658 374.989 333.237 365.273 334.454Z" fill="#F9C744"/>
<path d="M146.727 334.454L162.644 336.448C171.416 337.547 179.417 331.327 180.516 322.555L185.049 286.363C186.148 277.591 179.928 269.59 171.156 268.491L160.708 267.182C152.853 266.198 145.458 271.104 143.312 278.724L133.31 314.231C130.655 323.658 137.011 333.237 146.727 334.454Z" fill="#F39E22"/>
<path d="M354.344 228.408C353.137 214.617 336.486 204.808 322.695 206.015C308.904 207.222 298.702 219.38 299.909 233.171C301.116 246.962 312.505 248.373 326.296 247.166C340.087 245.96 355.551 242.199 354.344 228.408Z" fill="#BF5E39"/>
<path d="M338.201 222.005L338.897 229.965C339.213 233.581 338.035 236.977 335.88 239.544C334.735 240.909 333.318 242.037 331.691 242.842C330.258 243.56 328.663 244.03 326.97 244.179C319.748 244.811 313.378 239.476 312.747 232.253L312.051 224.293C311.42 217.081 316.765 210.71 323.987 210.079C325.681 209.931 327.333 210.118 328.869 210.575C333.888 212.063 337.718 216.486 338.201 222.005Z" fill="#334353"/>
<path d="M338.201 222.005L338.897 229.965C339.213 233.581 338.035 236.977 335.88 239.544C334.735 240.909 333.318 242.037 331.691 242.842C326.672 241.354 322.843 236.941 322.359 231.412L321.663 223.452C321.18 217.933 324.184 212.912 328.868 210.575C333.888 212.063 337.718 216.486 338.201 222.005Z" fill="#2E3140"/>
<path d="M343.503 222.135C343.175 218.391 339.875 215.622 336.131 215.949C327.173 217.082 328.301 229.947 337.317 229.507C341.061 229.18 343.831 225.879 343.503 222.135Z" fill="white"/>
<path d="M157.656 228.408C158.863 214.617 175.514 204.808 189.305 206.015C203.096 207.222 213.298 219.38 212.091 233.171C210.884 246.962 199.495 248.373 185.704 247.166C171.913 245.96 156.449 242.199 157.656 228.408Z" fill="#BF5E39"/>
<path d="M173.799 222.005L173.103 229.965C172.787 233.581 173.965 236.977 176.12 239.544C177.265 240.909 178.682 242.037 180.309 242.842C181.742 243.56 183.337 244.03 185.03 244.179C192.252 244.811 198.622 239.476 199.253 232.253L199.949 224.293C200.58 217.081 195.235 210.71 188.013 210.079C186.319 209.931 184.667 210.118 183.131 210.575C178.112 212.063 174.282 216.486 173.799 222.005Z" fill="#334353"/>
<path d="M199.951 224.293L199.255 232.253C198.939 235.869 197.188 239.009 194.621 241.163C193.256 242.308 191.665 243.173 189.923 243.683C185.239 241.346 182.234 236.335 182.718 230.806L183.414 222.846C183.897 217.327 187.727 212.904 192.746 211.416C197.43 213.753 200.434 218.774 199.951 224.293Z" fill="#2E3140"/>
<path d="M205.15 225.342C205.478 221.598 202.708 218.298 198.964 217.97C189.946 217.531 188.823 230.396 197.778 231.528C201.522 231.855 204.823 229.086 205.15 225.342Z" fill="white"/>
<path d="M312.28 402.05C303.04 416.99 286.5 427.12 267.34 427.12H244.66C212.78 427.12 188.17 399.09 192.29 367.48L211.98 246.45C213.43 235.33 222.91 227.02 234.12 227.02H277.88C289.09 227.02 298.57 235.33 300.02 246.45L319.71 367.48C321.35 380.09 318.42 392.13 312.28 402.05Z" fill="#F39E22"/>
<path d="M312.28 402.05H249.7C229.49 402.05 213.89 384.28 216.5 364.24L238.3 227.02H277.88C289.09 227.02 298.57 235.33 300.02 246.45L319.71 367.48C321.35 380.09 318.42 392.13 312.28 402.05Z" fill="#F9C744"/>
<path d="M271.151 317.7H240.849C227.212 317.7 217.005 330.211 219.744 343.57L223.25 360.672C225.305 370.694 234.124 377.889 244.355 377.889H267.646C277.877 377.889 286.697 370.694 288.751 360.672L292.257 343.57C294.995 330.211 284.789 317.7 271.151 317.7Z" fill="#2E3140"/>
<path d="M271.997 323.768H240.002C230.902 323.768 223.525 331.145 223.525 340.245V342.195C223.525 351.295 230.902 358.672 240.002 358.672H271.997C281.097 358.672 288.474 351.295 288.474 342.195V340.245C288.474 331.145 281.097 323.768 271.997 323.768Z" fill="#334353"/>
<path d="M277.051 331.735H234.949C231.317 331.735 228.373 334.679 228.373 338.311C228.373 341.943 231.317 344.887 234.949 344.887H277.051C280.683 344.887 283.627 341.943 283.627 338.311C283.626 334.679 280.682 331.735 277.051 331.735Z" fill="#3F5D77"/>
<path d="M268.268 331.735H257.24C253.608 331.735 250.664 334.679 250.664 338.311C250.664 341.943 253.608 344.887 257.24 344.887H268.268C271.9 344.887 274.844 341.943 274.844 338.311C274.844 334.679 271.9 331.735 268.268 331.735Z" fill="white"/>
<path d="M280.601 293.344H268.287C261.501 293.344 256 287.843 256 281.057V253.058C256 246.272 261.501 240.771 268.287 240.771H276.37C282.447 240.771 287.611 245.213 288.519 251.222L292.75 279.221C293.873 286.654 288.118 293.344 280.601 293.344Z" fill="#FAD98F"/>
<path d="M275.07 495.66H236.93C221.38 495.66 209.81 481.28 213.14 466.08L220.75 431.41L226.65 404.51L256 396.51L285.35 404.51L291.26 431.42L298.86 466.08C302.19 481.28 290.62 495.66 275.07 495.66Z" fill="#ED72AB"/>
<path d="M291.26 431.42L285.35 404.51L256 396.51L226.65 404.51L220.75 431.41C228.457 423.07 239.084 417.484 251 416.251V484.932C251 487.693 253.239 489.932 256 489.932C258.761 489.932 261 487.693 261 484.932V416.252C272.916 417.486 283.544 423.08 291.26 431.42Z" fill="#E063A2"/>
<path d="M261 441.28V473.298C261 479.362 265.915 484.277 271.979 484.277H279.005C286.017 484.277 291.232 477.794 289.729 470.945L282.703 438.927C281.871 435.133 279.095 432.062 275.405 430.849C268.305 428.517 261 433.807 261 441.28Z" fill="#F0A6B3"/>
<path d="M251 441.28V473.298C251 479.362 246.085 484.277 240.021 484.277H232.995C225.983 484.277 220.768 477.794 222.271 470.945L229.297 438.927C230.129 435.133 232.904 432.062 236.595 430.849C243.695 428.517 251 433.807 251 441.28Z" fill="#F0A6B3"/>
<path d="M278.755 478.508C274.645 479.187 270.762 476.406 270.083 472.295L266.691 451.769C266.012 447.659 268.793 443.776 272.904 443.097C277.014 442.418 280.897 445.199 281.576 449.31L284.968 469.836C285.647 473.946 282.866 477.829 278.755 478.508Z" fill="white"/>
<path d="M288.474 410.399C283.692 410.399 277.619 408.333 271.189 406.146C265.723 404.287 259.554 402.188 256.129 402.268C253.43 402.337 248.421 404.294 244.002 406.02C238.237 408.272 232.792 410.399 228.373 410.399C220.537 410.399 197.998 400.472 193.56 398.482C191.04 397.352 189.914 394.394 191.043 391.874C192.173 389.354 195.132 388.227 197.651 389.357C209.76 394.784 224.562 400.399 228.374 400.399C230.909 400.399 235.932 398.437 240.364 396.706C246.051 394.484 251.422 392.386 255.871 392.271C261.059 392.129 267.542 394.343 274.41 396.679C279.536 398.423 285.348 400.399 288.475 400.399C291.386 400.352 304.06 394.72 314.07 389.489C316.518 388.211 319.539 389.157 320.817 391.604C322.096 394.051 321.15 397.072 318.702 398.351C313.294 401.177 295.136 410.399 288.474 410.399Z" fill="#B26E2B"/>
<path d="M439.092 168.676L378.88 108.465C372.143 101.728 372.143 90.804 378.88 84.067C385.617 77.33 396.541 77.33 403.278 84.067L463.489 144.278C470.226 151.015 470.226 161.939 463.489 168.676C456.753 175.413 445.83 175.413 439.092 168.676Z" fill="#F9C744"/>
<path d="M396.358 143.147L367.037 113.826C362.09 108.879 354.068 108.879 349.121 113.826L333.303 129.644C328.356 134.591 328.356 142.613 333.303 147.56L362.624 176.881C367.571 181.828 375.593 181.828 380.54 176.881L396.358 161.063C401.305 156.116 401.305 148.094 396.358 143.147Z" fill="#DD8C29"/>
<path d="M72.908 168.676L133.119 108.465C139.856 101.728 139.856 90.804 133.119 84.067C126.382 77.33 115.458 77.33 108.721 84.067L48.51 144.278C41.773 151.015 41.773 161.939 48.51 168.676C55.247 175.413 66.17 175.413 72.908 168.676Z" fill="#F39E22"/>
<path d="M115.642 143.147L144.963 113.826C149.91 108.879 157.932 108.879 162.879 113.826L178.697 129.644C183.644 134.591 183.644 142.613 178.697 147.56L149.376 176.881C144.429 181.828 136.407 181.828 131.46 176.881L115.642 161.063C110.695 156.116 110.695 148.094 115.642 143.147Z" fill="#B26E2B"/>
<path d="M295.319 379.963C293.391 379.963 291.825 378.403 291.819 376.474C291.813 374.541 293.375 372.969 295.308 372.963L329.025 372.859C329.028 372.859 329.032 372.859 329.036 372.859C330.964 372.859 332.53 374.419 332.536 376.348C332.542 378.281 330.98 379.853 329.047 379.859L295.33 379.963C295.326 379.963 295.322 379.963 295.319 379.963Z" fill="#FAD98F"/>
<path d="M218.681 379.963C220.609 379.963 222.175 378.403 222.181 376.474C222.187 374.541 220.625 372.969 218.692 372.963L184.975 372.859C184.972 372.859 184.968 372.859 184.964 372.859C183.036 372.859 181.47 374.419 181.464 376.348C181.458 378.281 183.02 379.853 184.953 379.859L218.67 379.963C218.674 379.963 218.678 379.963 218.681 379.963Z" fill="#F9C744"/>
<path d="M310.192 361.545C308.293 361.88 306.48 360.615 306.139 358.717C305.798 356.814 307.063 354.995 308.966 354.654L342.153 348.697C342.156 348.696 342.16 348.696 342.164 348.695C344.063 348.36 345.876 349.625 346.217 351.523C346.558 353.426 345.293 355.245 343.39 355.586L310.203 361.543C310.199 361.544 310.195 361.544 310.192 361.545Z" fill="#FAD98F"/>
<path d="M203.808 361.545C205.707 361.88 207.52 360.615 207.861 358.717C208.202 356.814 206.937 354.995 205.034 354.654L171.847 348.697C171.844 348.696 171.84 348.696 171.836 348.695C169.937 348.36 168.124 349.625 167.783 351.523C167.442 353.426 168.707 355.245 170.61 355.586L203.797 361.543C203.801 361.544 203.805 361.544 203.808 361.545Z" fill="#F9C744"/>
<path d="M115.902 188.064H162.701C167.617 188.064 171.602 192.079 171.602 197.032C171.602 201.985 167.617 206 162.701 206H115.902C110.986 206 107 201.985 107 197.032C107 192.079 110.986 188.064 115.902 188.064Z" fill="#F9A824"/>
<path d="M111.062 190.276L126.549 178.624L130.506 183.961L115.019 195.614L111.062 190.276Z" fill="#F9A824"/>
<path d="M163.718 192.676H197.291C199.679 192.676 201.615 194.626 201.615 197.032C201.615 199.438 199.679 201.388 197.291 201.388H163.718C161.33 201.388 159.394 199.438 159.394 197.032C159.394 194.626 161.33 192.676 163.718 192.676Z" fill="#FDD835"/>
<path d="M292.16 184.476H167.533C166.129 184.476 164.99 185.624 164.99 187.039V206H292.16V184.476Z" fill="#FDD835"/>
<path d="M330.311 180.377H383.214V206H330.311V180.377Z" fill="#FDEF59"/>
<path d="M161.683 201.388H219.673C220.937 201.388 221.962 202.42 221.962 203.694C221.962 204.968 220.937 206 219.673 206H161.683C160.419 206 159.394 204.968 159.394 203.694C159.394 202.42 160.419 201.388 161.683 201.388Z" fill="#F9A824"/>
<path d="M122.769 184.476H167.024V190.114H122.769V184.476Z" fill="#F9A824"/>
<path d="M160.626 193.376L165.242 185.796C165.875 184.756 167.225 184.43 168.257 185.068C169.289 185.706 169.612 187.066 168.979 188.106L164.364 195.686C163.731 196.725 162.381 197.051 161.349 196.413C160.317 195.776 159.993 194.416 160.626 193.376Z" fill="#FDD835"/>
<path d="M287.327 184.476H380.924C382.189 184.476 383.214 185.509 383.214 186.783C383.214 188.056 382.189 189.089 380.924 189.089H287.327C286.063 189.089 285.038 188.056 285.038 186.783C285.038 185.509 286.063 184.476 287.327 184.476Z" fill="#FDEF59"/>
<path d="M349.132 196.776C349.132 192.53 345.716 189.089 341.502 189.089H270.795V206H349.132V196.776Z" fill="#FDD835"/>
<path d="M369.326 162.191C369.684 157.8 373.508 154.534 377.866 154.895C382.224 155.256 385.466 159.107 385.108 163.498L383.149 187.501C382.791 191.891 378.968 195.158 374.61 194.797C370.252 194.436 367.009 190.584 367.367 186.194L369.326 162.191Z" fill="#FDEF59"/>
<path d="M369.225 189.089H391.607C396.242 189.089 400 192.874 400 197.544C400 202.214 396.242 206 391.607 206H369.225C364.589 206 360.832 202.214 360.832 197.544C360.832 192.874 364.589 189.089 369.225 189.089Z" fill="#FDEF59"/>
<path d="M376.1 188.891L383.163 180.146L396.751 191.285L389.688 200.03L376.1 188.891Z" fill="#FDEF59"/>
<path d="M145.66 180.377H381.179C382.303 180.377 383.214 181.294 383.214 182.427C383.214 183.559 382.303 184.476 381.179 184.476H145.66C144.536 184.476 143.625 183.559 143.625 182.427C143.625 181.294 144.536 180.377 145.66 180.377Z" fill="#F9A824"/>
<path d="M122.706 163.798C122.348 159.408 125.59 155.556 129.948 155.195C134.306 154.834 138.13 158.101 138.488 162.492L140.446 186.494C140.804 190.885 137.562 194.737 133.203 195.097C128.845 195.458 125.022 192.192 124.664 187.801L122.706 163.798Z" fill="#F9A824"/>
<path d="M132.434 155.522C132.434 139.539 135.566 123.712 141.65 108.946C147.734 94.179 156.651 80.7617 167.894 69.4598L253.5 155.522H132.434Z" fill="#F9A824"/>
<path d="M167.894 69.4597C178.123 59.1756 190.104 50.8179 203.267 44.7832L253.5 155.522L167.894 69.4597Z" fill="#FDD835"/>
<path d="M203.141 52.7729C177.295 52.7729 156.342 73.8813 156.342 99.9197V154.753H203.141V52.7729Z" fill="#FDD835"/>
<path d="M132.434 154.753H209.753V184.476H132.434V154.753Z" fill="#F9A824"/>
<path d="M203.141 159.366H156.342V167.565C156.342 174.641 162.036 180.377 169.059 180.377H203.141V159.366Z" fill="#FDD835"/>
<path d="M339.106 69.4598C350.349 80.7617 359.266 94.179 365.35 108.946C371.435 123.712 374.566 139.539 374.566 155.522H253.5L339.106 69.4598Z" fill="#FDEF59"/>
<path d="M303.012 44.4552C315.651 50.1496 327.224 57.9822 337.228 67.612L253.5 155.522L303.012 44.4552Z" fill="#FDD835"/>
<path d="M236.714 21C218.172 21 203.141 36.1429 203.141 54.8227V180.377H236.714V21Z" fill="#F9A824"/>
<path d="M304.368 54.8227C304.368 36.1429 289.337 21 270.795 21V180.377H304.368V54.8227Z" fill="#F9A824"/>
<path d="M236.714 33.8116H270.795V180.377H236.714V33.8116Z" fill="#FDD835"/>
<path d="M349.132 91.2078C349.132 74.792 335.923 61.4848 319.628 61.4848H304.368V154.753H349.132V91.2078Z" fill="#FDD835"/>
<path d="M319.628 155.778H376.092V180.377H319.628V155.778Z" fill="#FDEF59"/>
<path d="M349.132 168.078C349.132 165.53 347.082 163.465 344.554 163.465H304.368V180.377H349.132V168.078Z" fill="#FDD835"/>
<path d="M304.368 155.778H319.628V178.839H304.368V155.778Z" fill="#FDD835"/>
<path d="M376.092 156.268C376.092 155.149 375.191 154.241 374.08 154.241H304.368V159.366H373.018C374.716 159.366 376.092 157.979 376.092 156.268Z" fill="#F9A824"/>
<path d="M253.5 172.177C218.664 172.177 190.424 143.727 190.424 108.632C190.424 73.5362 218.664 45.0859 253.5 45.0859C288.336 45.0859 316.576 73.5362 316.576 108.632C316.576 143.727 288.336 172.177 253.5 172.177Z" fill="#FDEF59"/>
<path d="M253.5 142.967C234.958 142.967 219.927 127.824 219.927 109.144C219.927 90.4643 234.958 75.3213 253.5 75.3213C272.042 75.3213 287.073 90.4643 287.073 109.144C287.073 127.824 272.042 142.967 253.5 142.967Z" fill="#E2F4FF"/>
<path d="M260.876 135.792C240.789 135.792 224.505 119.387 224.505 99.151C224.505 78.9146 240.789 62.5097 260.876 62.5097C280.963 62.5097 297.247 78.9146 297.247 99.151C297.247 119.387 280.963 135.792 260.876 135.792Z" fill="white"/>
<path d="M199.071 109.913C199.071 140.621 223.781 165.515 254.263 165.515C284.745 165.515 309.455 140.621 309.455 109.913C309.455 79.2043 284.745 54.3102 254.263 54.3102C223.781 54.3102 199.071 79.2043 199.071 109.913ZM294.449 109.913C294.449 132.272 276.457 150.397 254.263 150.397C232.069 150.397 214.077 132.272 214.077 109.913C214.077 87.5539 232.069 69.428 254.263 69.428C276.457 69.428 294.449 87.5539 294.449 109.913Z" fill="#F9A824"/>
<path d="M211.28 109.144C211.28 132.352 229.955 151.166 252.991 151.166C276.028 151.166 294.703 132.352 294.703 109.144C294.703 85.936 276.028 67.1219 252.991 67.1219C229.955 67.1219 211.28 85.936 211.28 109.144ZM286.056 109.144C286.056 127.541 271.252 142.454 252.991 142.454C234.73 142.454 219.927 127.541 219.927 109.144C219.927 90.7471 234.73 75.8338 252.991 75.8338C271.252 75.8338 286.056 90.7471 286.056 109.144Z" fill="#F17F16"/>
<path d="M229.844 21.7507C220.612 24.1634 211.703 27.6898 203.31 32.2535L204.419 34.3247C212.647 29.8509 221.38 26.394 230.43 24.0288L229.844 21.7507Z" fill="#F9A824"/>
<path d="M203.141 32.2742H214.332V52.7729H203.141V32.2742Z" fill="#F9A824"/>
<path d="M293.177 32.2742H304.368V52.7729H293.177V32.2742Z" fill="#F9A824"/>
<path d="M218.401 27.662H214.332C210.398 27.662 207.21 30.8742 207.21 34.8365V48.1606H218.401V27.662Z" fill="#F9A824"/>
<path d="M300.299 34.3241C300.299 31.2108 297.793 28.687 294.703 28.687C291.613 28.687 289.108 31.2108 289.108 34.3241V49.1856H300.299V34.3241Z" fill="#F9A824"/>
<path d="M304.494 31.3976C297.068 27.8502 289.354 24.95 281.437 22.7288L280.727 25.2953C288.499 27.4757 296.071 30.3226 303.361 33.8048L304.494 31.3976Z" fill="#F9A824"/>
<path d="M320.137 159.366H353.71C354.834 159.366 355.745 160.283 355.745 161.416C355.745 162.548 354.834 163.465 353.71 163.465H320.137C319.013 163.465 318.102 162.548 318.102 161.416C318.102 160.283 319.013 159.366 320.137 159.366Z" fill="#FDEF59"/>
</svg>
