<svg width="512" height="512" viewBox="0 0 512 512" fill="none" xmlns="http://www.w3.org/2000/svg">
<path d="M256 512C397.385 512 512 397.385 512 256C512 114.615 397.385 0 256 0C114.615 0 0 114.615 0 256C0 397.385 114.615 512 256 512Z" fill="#EA792E"/>
<path d="M493.901 220.17C492.071 227.76 488.191 234.96 482.251 240.9L385.571 337.58C368.381 354.77 340.511 354.77 323.321 337.58L243.191 257.45C239.951 254.21 237.321 250.6 235.301 246.75C226.611 230.14 229.241 209.15 243.191 195.2L339.871 98.52C357.061 81.33 384.931 81.33 402.121 98.52L482.251 178.65C493.511 189.91 497.391 205.75 493.901 220.17Z" fill="#C2AACF"/>
<path d="M493.901 220.17C492.071 227.76 488.191 234.96 482.251 240.9L385.571 337.58C368.381 354.77 340.511 354.77 323.321 337.58L243.191 257.45C239.951 254.21 237.321 250.6 235.301 246.75L286.631 195.42C337.031 145.02 418.751 145.02 469.161 195.42L493.901 220.17Z" fill="#A583BB"/>
<path d="M18.099 220.17C19.929 227.76 23.809 234.96 29.749 240.9L126.429 337.58C143.619 354.77 171.489 354.77 188.679 337.58L268.809 257.45C272.049 254.21 274.679 250.6 276.699 246.75C285.389 230.14 282.759 209.15 268.809 195.2L172.129 98.52C154.939 81.33 127.069 81.33 109.879 98.52L29.749 178.65C18.489 189.91 14.609 205.75 18.099 220.17Z" fill="#A583BB"/>
<path d="M18.099 220.17C19.929 227.76 23.809 234.96 29.749 240.9L126.429 337.58C143.619 354.77 171.489 354.77 188.679 337.58L268.809 257.45C272.049 254.21 274.679 250.6 276.699 246.75L225.369 195.42C174.969 145.02 93.249 145.02 42.839 195.42L18.099 220.17Z" fill="#9175A7"/>
<path d="M371.677 139.631C384.347 139.631 394.618 129.36 394.618 116.69C394.618 104.02 384.347 93.749 371.677 93.749C359.007 93.749 348.736 104.02 348.736 116.69C348.736 129.36 359.007 139.631 371.677 139.631Z" fill="#DECEE5"/>
<path d="M140.323 139.631C152.993 139.631 163.264 129.36 163.264 116.69C163.264 104.02 152.993 93.749 140.323 93.749C127.653 93.749 117.382 104.02 117.382 116.69C117.382 129.36 127.653 139.631 140.323 139.631Z" fill="#C2AACF"/>
<path d="M356.69 202.14L340.99 317.87C338.46 336.54 322.51 350.47 303.67 350.47H208.33C189.49 350.47 173.54 336.54 171.01 317.87L155.31 202.14C153.28 187.22 156.54 172.93 163.55 161.02C174.63 142.19 195.09 129.33 218.9 129.33H293.1C316.91 129.33 337.37 142.19 348.44 161.01C355.46 172.92 358.72 187.21 356.69 202.14Z" fill="#C2AACF"/>
<path d="M356.69 202.14L340.99 317.87C338.46 336.54 322.51 350.47 303.67 350.47H256V129.33H293.1C331.97 129.33 361.92 163.62 356.69 202.14Z" fill="#DECEE5"/>
<path d="M327.974 263.161C319.83 271.305 306.603 271.305 298.459 263.161C290.305 255.007 290.315 241.79 298.459 233.646C300.667 231.438 303.245 229.826 305.997 228.819C313.402 226.097 322.028 227.7 327.974 233.646C333.91 239.582 335.522 248.219 332.801 255.623C331.795 258.375 330.182 260.953 327.974 263.161Z" fill="#C2AACF"/>
<path d="M332.797 255.622C337.533 250.886 335.372 241.047 327.97 233.646C320.569 226.244 310.729 224.083 305.994 228.819C301.258 233.555 303.419 243.394 310.82 250.796C318.222 258.197 328.061 260.358 332.797 255.622Z" fill="#EBD9EA"/>
<path d="M326.404 248.403C326.404 254.082 322.802 258.933 317.762 260.792C316.339 261.3 314.814 261.591 313.216 261.591C305.925 261.591 300.029 255.68 300.029 248.403C300.029 241.112 305.926 235.216 313.216 235.216C314.814 235.216 316.339 235.506 317.762 236.015C322.802 237.873 326.404 242.71 326.404 248.403Z" fill="#3F5D77"/>
<path d="M317.762 260.792C322.535 260.792 326.404 255.245 326.404 248.403C326.404 241.561 322.535 236.014 317.762 236.014C312.989 236.014 309.12 241.561 309.12 248.403C309.12 255.245 312.989 260.792 317.762 260.792Z" fill="#2E3140"/>
<path d="M313.213 251.791C316.803 251.791 319.713 248.881 319.713 245.291C319.713 241.701 316.803 238.791 313.213 238.791C309.623 238.791 306.713 241.701 306.713 245.291C306.713 248.881 309.623 251.791 313.213 251.791Z" fill="#83D5EF"/>
<path d="M212.748 263.161C204.604 271.305 191.377 271.305 183.233 263.161C175.079 255.007 175.089 241.79 183.233 233.646C185.441 231.438 188.019 229.826 190.771 228.819C198.176 226.097 206.802 227.7 212.748 233.646C218.684 239.582 220.296 248.219 217.575 255.623C216.568 258.375 214.956 260.953 212.748 263.161Z" fill="#A583BB"/>
<path d="M217.571 255.622C222.307 250.886 220.146 241.047 212.744 233.645C205.343 226.244 195.503 224.083 190.768 228.819C186.032 233.555 188.193 243.394 195.594 250.795C202.996 258.197 212.835 260.358 217.571 255.622Z" fill="#DECEE5"/>
<path d="M211.177 248.403C211.177 254.082 207.575 258.933 202.536 260.792C201.113 261.3 199.588 261.591 197.99 261.591C190.699 261.591 184.803 255.68 184.803 248.403C184.803 241.112 190.7 235.216 197.99 235.216C199.588 235.216 201.113 235.506 202.536 236.015C207.576 237.873 211.177 242.71 211.177 248.403Z" fill="#3F5D77"/>
<path d="M202.536 260.792C207.309 260.792 211.178 255.245 211.178 248.403C211.178 241.561 207.309 236.014 202.536 236.014C197.763 236.014 193.894 241.561 193.894 248.403C193.894 255.245 197.763 260.792 202.536 260.792Z" fill="#2E3140"/>
<path d="M197.986 251.791C201.576 251.791 204.486 248.881 204.486 245.291C204.486 241.701 201.576 238.791 197.986 238.791C194.396 238.791 191.486 241.701 191.486 245.291C191.486 248.881 194.396 251.791 197.986 251.791Z" fill="#83D5EF"/>
<path d="M377.75 396.51V406.88C377.75 440.65 350.37 468.03 316.6 468.03H256C231.68 468.03 211.97 448.32 211.97 424V338.94C211.972 314.62 231.683 294.91 256 294.91C280.32 294.91 300.03 314.63 300.03 338.94V401.91C300.03 411.6 307.88 419.45 317.57 419.45H325.12C334.81 419.45 342.66 411.6 342.66 401.91V396.51C342.66 391.66 344.62 387.28 347.8 384.11C358.595 373.153 377.809 380.917 377.75 396.51Z" fill="#C2AACF"/>
<path d="M360.2 378.97V395.841C360.2 417.882 342.332 435.75 320.291 435.75H295.908C273.867 435.75 255.999 417.882 255.999 395.841V294.91C280.319 294.91 300.029 314.63 300.029 338.94V401.91C300.029 411.597 307.882 419.45 317.569 419.45H325.119C334.806 419.45 342.659 411.597 342.659 401.91V396.51C342.655 386.82 350.524 378.971 360.2 378.97Z" fill="#DECEE5"/>
<path d="M275.772 408.456L272.127 406.952C266.964 404.818 261.485 403.751 256 403.751C250.514 403.751 245.036 404.818 239.873 406.952L236.228 408.456C232.218 410.117 228.573 405.427 231.172 401.939L238.477 392.157C242.853 386.299 249.427 383.377 256.001 383.377C262.575 383.377 269.149 386.299 273.525 392.157L280.83 401.939C283.428 405.427 279.783 410.117 275.772 408.456Z" fill="#A583BB"/>
<path d="M275.772 408.456L272.127 406.952C266.964 404.818 262.303 403.751 256.817 403.751L256 383.377C262.574 383.377 269.148 386.299 273.524 392.157L280.829 401.939C283.428 405.427 279.783 410.117 275.772 408.456Z" fill="#C2AACF"/>
<path d="M279 377.937L274.76 376.188C268.754 373.706 262.381 372.464 256 372.464C249.619 372.464 243.246 373.705 237.24 376.188L233 377.937C228.335 379.87 224.095 374.413 227.119 370.356L235.616 358.977C240.706 352.163 248.353 348.764 256 348.764C263.647 348.764 271.295 352.163 276.384 358.977L284.881 370.356C287.905 374.413 283.665 379.869 279 377.937Z" fill="#A583BB"/>
<path d="M279 377.937L274.76 376.188C268.754 373.706 262.381 372.464 256 372.464V348.764C263.647 348.764 271.295 352.163 276.384 358.977L284.881 370.356C287.905 374.413 283.665 379.869 279 377.937Z" fill="#C2AACF"/>
<path d="M283.61 345.318L278.52 343.218C271.31 340.238 263.66 338.748 256 338.748C248.34 338.748 240.69 340.238 233.48 343.218L228.39 345.318C222.79 347.638 217.7 341.088 221.33 336.218L231.53 322.558C237.64 314.378 246.82 310.298 256 310.298C265.18 310.298 274.36 314.378 280.47 322.558L290.67 336.218C294.3 341.088 289.21 347.638 283.61 345.318Z" fill="#A583BB"/>
<path d="M283.61 345.318L278.52 343.218C271.31 340.238 263.66 338.748 256 338.748V310.298C265.18 310.298 274.36 314.378 280.47 322.558L290.67 336.218C294.3 341.088 289.21 347.638 283.61 345.318Z" fill="#C2AACF"/>
<path d="M286.59 306.8L280.951 304.473C272.963 301.171 264.487 299.521 256 299.521C247.513 299.521 239.037 301.172 231.049 304.473L225.41 306.8C219.205 309.37 213.566 302.113 217.588 296.718L228.889 281.584C235.658 272.52 245.829 268 256 268C266.171 268 276.342 272.52 283.111 281.583L294.412 296.717C298.434 302.114 292.795 309.371 286.59 306.8Z" fill="#A583BB"/>
<path d="M286.59 306.8L280.951 304.473C272.963 301.171 264.487 299.521 256 299.521V268C266.171 268 276.342 272.52 283.111 281.583L294.412 296.717C298.434 302.114 292.795 309.371 286.59 306.8Z" fill="#C2AACF"/>
<path d="M329.82 325.18C329.82 325.65 329.8 326.13 329.75 326.61L323.9 387.62C323.58 390.97 321.9 393.89 319.43 395.84C317.38 397.48 314.79 398.44 311.99 398.44C305.39 398.44 300.03 393.08 300.03 386.48V325.19C300.03 316.97 306.7 310.3 314.92 310.3C317.65 310.3 320.2 311.03 322.38 312.29C326.85 314.89 329.82 319.72 329.82 325.18Z" fill="white"/>
<path d="M329.82 325.18C329.82 325.65 329.8 326.13 329.75 326.61L323.9 387.62C323.58 390.97 321.9 393.89 319.43 395.84C316.68 393.64 314.92 390.27 314.92 386.48V325.19C314.92 319.68 317.92 314.86 322.38 312.29C326.85 314.89 329.82 319.72 329.82 325.18Z" fill="#F4E6F4"/>
<path d="M182.18 325.18C182.18 325.65 182.2 326.13 182.25 326.61L188.1 387.62C188.42 390.97 190.1 393.89 192.57 395.84C194.62 397.48 197.21 398.44 200.01 398.44C206.61 398.44 211.97 393.08 211.97 386.48V325.19C211.97 316.97 205.3 310.3 197.08 310.3C194.35 310.3 191.8 311.03 189.62 312.29C185.15 314.89 182.18 319.72 182.18 325.18Z" fill="#F4E6F4"/>
<path d="M182.18 325.18C182.18 325.65 182.2 326.13 182.25 326.61L188.1 387.62C188.42 390.97 190.1 393.89 192.57 395.84C195.32 393.64 197.08 390.27 197.08 386.48V325.19C197.08 319.68 194.08 314.86 189.62 312.29C185.15 314.89 182.18 319.72 182.18 325.18Z" fill="#EBD9EA"/>
<path d="M256 129.33H293.1C316.91 129.33 337.37 142.19 348.44 161.01L348.15 161.977C339.799 189.81 314.181 208.87 285.123 208.87H256V129.33Z" fill="#EBD9EA"/>
<path d="M256 129.33H218.9C195.09 129.33 174.63 142.19 163.56 161.01L163.85 161.977C172.201 189.81 197.819 208.87 226.877 208.87H256V129.33Z" fill="#DECEE5"/>
<path d="M136.082 202.809H178.568C183.031 202.809 186.649 206.433 186.649 210.904C186.649 215.375 183.031 219 178.568 219H136.082C131.618 219 128 215.375 128 210.904C128 206.433 131.618 202.809 136.082 202.809Z" fill="#F9A824"/>
<path d="M131.687 204.806L145.748 194.287L149.34 199.106L135.28 209.624L131.687 204.806Z" fill="#F9A824"/>
<path d="M179.491 206.972H209.971C212.138 206.972 213.896 208.733 213.896 210.904C213.896 213.076 212.138 214.837 209.971 214.837H179.491C177.323 214.837 175.566 213.076 175.566 210.904C175.566 208.733 177.323 206.972 179.491 206.972Z" fill="#FDD835"/>
<path d="M296.097 199.571H182.955C181.68 199.571 180.646 200.607 180.646 201.884V219H296.097V199.571Z" fill="#FDD835"/>
<path d="M330.733 195.87H378.76V219H330.733V195.87Z" fill="#FDEF59"/>
<path d="M177.644 214.837H230.29C231.438 214.837 232.368 215.769 232.368 216.918C232.368 218.068 231.438 219 230.29 219H177.644C176.496 219 175.566 218.068 175.566 216.918C175.566 215.769 176.496 214.837 177.644 214.837Z" fill="#F9A824"/>
<path d="M142.316 199.571H182.493V204.659H142.316V199.571Z" fill="#F9A824"/>
<path d="M176.685 207.604L180.875 200.762C181.449 199.823 182.675 199.529 183.612 200.105C184.549 200.681 184.843 201.908 184.268 202.847L180.078 209.689C179.503 210.628 178.277 210.922 177.34 210.346C176.403 209.77 176.11 208.543 176.685 207.604Z" fill="#FDD835"/>
<path d="M291.71 199.571H376.682C377.83 199.571 378.76 200.503 378.76 201.652C378.76 202.802 377.83 203.734 376.682 203.734H291.71C290.562 203.734 289.632 202.802 289.632 201.652C289.632 200.503 290.562 199.571 291.71 199.571Z" fill="#FDEF59"/>
<path d="M347.819 210.673C347.819 206.841 344.718 203.734 340.892 203.734H276.701V219H347.819V210.673Z" fill="#FDD835"/>
<path d="M366.153 179.453C366.478 175.49 369.949 172.541 373.906 172.867C377.862 173.193 380.806 176.67 380.48 180.633L378.702 202.301C378.377 206.264 374.906 209.213 370.949 208.887C366.993 208.561 364.049 205.084 364.375 201.121L366.153 179.453Z" fill="#FDEF59"/>
<path d="M366.061 203.734H386.38C390.589 203.734 394 207.151 394 211.367C394 215.583 390.589 219 386.38 219H366.061C361.852 219 358.441 215.583 358.441 211.367C358.441 207.151 361.852 203.734 366.061 203.734Z" fill="#FDEF59"/>
<path d="M372.302 203.556L378.714 195.662L391.05 205.716L384.638 213.611L372.302 203.556Z" fill="#FDEF59"/>
<path d="M163.097 195.87H376.913C377.933 195.87 378.76 196.698 378.76 197.72C378.76 198.742 377.933 199.571 376.913 199.571H163.097C162.077 199.571 161.25 198.742 161.25 197.72C161.25 196.698 162.077 195.87 163.097 195.87Z" fill="#F9A824"/>
<path d="M142.259 180.904C141.933 176.941 144.877 173.464 148.834 173.138C152.79 172.813 156.261 175.761 156.586 179.725L158.364 201.392C158.689 205.356 155.745 208.833 151.789 209.158C147.832 209.484 144.361 206.535 144.036 202.572L142.259 180.904Z" fill="#F9A824"/>
<path d="M151.09 173.433C151.09 159.005 153.933 144.719 159.457 131.389C164.98 118.059 173.076 105.947 183.282 95.7447L261 173.433H151.09Z" fill="#F9A824"/>
<path d="M183.282 95.7447C192.569 86.4611 203.446 78.9166 215.396 73.4691L261 173.433L183.282 95.7447Z" fill="#FDD835"/>
<path d="M215.281 80.6815C191.817 80.6815 172.795 99.7361 172.795 123.241V172.74H215.281V80.6815Z" fill="#FDD835"/>
<path d="M151.09 172.74H221.285V199.571H151.09V172.74Z" fill="#F9A824"/>
<path d="M215.281 176.903H172.795V184.305C172.795 190.692 177.964 195.87 184.34 195.87H215.281V176.903Z" fill="#FDD835"/>
<path d="M338.718 95.7447C348.924 105.947 357.02 118.059 362.543 131.389C368.067 144.719 370.91 159.005 370.91 173.433H261L338.718 95.7447Z" fill="#FDEF59"/>
<path d="M305.949 73.173C317.423 78.3134 327.93 85.3839 337.013 94.0768L261 173.433L305.949 73.173Z" fill="#FDD835"/>
<path d="M245.76 52C228.927 52 215.281 65.6696 215.281 82.5319V195.87H245.76V52Z" fill="#F9A824"/>
<path d="M307.181 82.5319C307.181 65.6696 293.535 52 276.701 52V195.87H307.181V82.5319Z" fill="#F9A824"/>
<path d="M245.76 63.5651H276.701V195.87H245.76V63.5651Z" fill="#FDD835"/>
<path d="M347.819 115.377C347.819 100.558 335.828 88.5457 321.035 88.5457H307.181V172.74H347.819V115.377Z" fill="#FDD835"/>
<path d="M321.035 173.665H372.295V195.87H321.035V173.665Z" fill="#FDEF59"/>
<path d="M347.819 184.767C347.819 182.468 345.959 180.604 343.663 180.604H307.181V195.87H347.819V184.767Z" fill="#FDD835"/>
<path d="M307.181 173.665H321.035V194.482H307.181V173.665Z" fill="#FDD835"/>
<path d="M372.295 174.107C372.295 173.096 371.477 172.277 370.468 172.277H307.181V176.903H369.504C371.046 176.903 372.295 175.651 372.295 174.107Z" fill="#F9A824"/>
<path d="M261 188.468C229.374 188.468 203.736 162.786 203.736 131.105C203.736 99.4246 229.374 73.7424 261 73.7424C292.626 73.7424 318.264 99.4246 318.264 131.105C318.264 162.786 292.626 188.468 261 188.468Z" fill="#FDEF59"/>
<path d="M261 162.1C244.167 162.1 230.521 148.43 230.521 131.568C230.521 114.706 244.167 101.036 261 101.036C277.833 101.036 291.479 114.706 291.479 131.568C291.479 148.43 277.833 162.1 261 162.1Z" fill="#E2F4FF"/>
<path d="M267.696 155.623C249.46 155.623 234.677 140.815 234.677 122.547C234.677 104.28 249.46 89.4709 267.696 89.4709C285.932 89.4709 300.715 104.28 300.715 122.547C300.715 140.815 285.932 155.623 267.696 155.623Z" fill="white"/>
<path d="M211.587 132.262C211.587 159.982 234.02 182.454 261.693 182.454C289.366 182.454 311.799 159.982 311.799 132.262C311.799 104.541 289.366 82.0692 261.693 82.0692C234.02 82.0692 211.587 104.541 211.587 132.262ZM298.175 132.262C298.175 152.445 281.841 168.807 261.693 168.807C241.544 168.807 225.21 152.445 225.21 132.262C225.21 112.078 241.544 95.7161 261.693 95.7161C281.841 95.7161 298.175 112.078 298.175 132.262Z" fill="#F9A824"/>
<path d="M222.67 131.568C222.67 152.518 239.624 169.501 260.538 169.501C281.452 169.501 298.406 152.518 298.406 131.568C298.406 110.618 281.452 93.6344 260.538 93.6344C239.624 93.6344 222.67 110.618 222.67 131.568ZM290.556 131.568C290.556 148.175 277.117 161.637 260.538 161.637C243.96 161.637 230.521 148.175 230.521 131.568C230.521 114.961 243.96 101.499 260.538 101.499C277.117 101.499 290.556 114.961 290.556 131.568Z" fill="#F17F16"/>
<path d="M239.524 52.6777C231.142 54.8556 223.054 58.0389 215.435 62.1586L216.442 64.0282C223.911 59.9898 231.84 56.8692 240.056 54.7342L239.524 52.6777Z" fill="#F9A824"/>
<path d="M215.281 62.1773H225.441V80.6815H215.281V62.1773Z" fill="#F9A824"/>
<path d="M297.021 62.1773H307.181V80.6815H297.021V62.1773Z" fill="#F9A824"/>
<path d="M229.135 58.0138H225.441C221.87 58.0138 218.976 60.9134 218.976 64.4903V76.518H229.135V58.0138Z" fill="#F9A824"/>
<path d="M303.486 64.0277C303.486 61.2173 301.212 58.9391 298.406 58.9391C295.601 58.9391 293.326 61.2173 293.326 64.0277V77.4432H303.486V64.0277Z" fill="#F9A824"/>
<path d="M307.295 61.3859C300.553 58.1837 293.55 55.5657 286.362 53.5606L285.718 55.8773C292.774 57.8456 299.649 60.4155 306.267 63.5589L307.295 61.3859Z" fill="#F9A824"/>
<path d="M321.497 176.903H351.976C352.996 176.903 353.823 177.732 353.823 178.753C353.823 179.775 352.996 180.604 351.976 180.604H321.497C320.476 180.604 319.649 179.775 319.649 178.753C319.649 177.732 320.476 176.903 321.497 176.903Z" fill="#FDEF59"/>
</svg>
