<svg width="512" height="512" viewBox="0 0 512 512" fill="none" xmlns="http://www.w3.org/2000/svg">
<path d="M256 512C397.385 512 512 397.385 512 256C512 114.615 397.385 0 256 0C114.615 0 0 114.615 0 256C0 397.385 114.615 512 256 512Z" fill="#EA792E"/>
<path d="M426.515 214.61L421.805 236.49L301.305 150.45L345.855 102.25L367.765 78.55C376.825 68.75 391.325 66.21 403.175 72.34C407.245 74.44 410.725 77.43 413.385 81.02C416.045 84.61 417.885 88.8 418.725 93.3L427.355 140.04L427.595 141.36C432.075 165.61 431.715 190.51 426.515 214.61Z" fill="#DD5E26"/>
<path d="M427.355 140.04C419.525 144.12 410.625 146.43 401.185 146.43C374.175 146.43 351.555 127.54 345.855 102.25L367.765 78.55C376.825 68.75 391.325 66.21 403.175 72.34C407.245 74.44 410.725 77.43 413.385 81.02C416.045 84.61 417.885 88.8 418.725 93.3L427.355 140.04Z" fill="#334353"/>
<path d="M345.49 168.714L373.598 98.783C376.649 91.191 384.501 86.676 392.598 87.856C401.167 89.106 407.578 96.366 407.758 105.024L409.733 200.097C409.975 211.732 396.845 218.664 387.373 211.902L350.395 185.5C345.083 181.706 343.056 174.77 345.49 168.714Z" fill="#EA792E"/>
<path d="M85.485 214.61L90.195 236.49L210.695 150.45L166.145 102.25L144.235 78.55C135.175 68.75 120.675 66.21 108.825 72.34C104.755 74.44 101.275 77.43 98.615 81.02C95.955 84.61 94.115 88.8 93.275 93.3L84.645 140.04L84.405 141.36C79.925 165.61 80.285 190.51 85.485 214.61Z" fill="#C44A1A"/>
<path d="M84.645 140.04C92.475 144.12 101.375 146.43 110.815 146.43C137.825 146.43 160.445 127.54 166.145 102.25L144.235 78.55C135.175 68.75 120.675 66.21 108.825 72.34C104.755 74.44 101.275 77.43 98.615 81.02C95.955 84.61 94.115 88.8 93.275 93.3L84.645 140.04Z" fill="#2E3140"/>
<path d="M166.51 168.714L138.402 98.783C135.351 91.191 127.499 86.676 119.402 87.856C110.833 89.106 104.422 96.366 104.242 105.024L102.267 200.097C102.025 211.732 115.155 218.664 124.627 211.902L161.605 185.501C166.917 181.706 168.944 174.77 166.51 168.714Z" fill="#DD5E26"/>
<path d="M428.665 277.8V314.45C428.665 343.93 419.215 371.19 403.175 393.39C386.565 416.38 362.885 433.93 335.325 442.84C322.225 447.09 308.245 449.38 293.735 449.38H218.275C173.235 449.38 133.345 427.31 108.835 393.39C92.795 371.19 83.345 343.93 83.345 314.45V277.8C83.345 207.46 140.365 150.45 210.705 150.45H301.305C371.645 150.45 428.665 207.46 428.665 277.8Z" fill="#9175A7"/>
<path d="M428.665 277.8V314.45C428.665 343.93 419.215 371.19 403.175 393.39C386.565 416.38 362.885 433.93 335.325 442.84H256.005V150.45H301.305C371.645 150.45 428.665 207.46 428.665 277.8Z" fill="#AEA7B9"/>
<path d="M403.175 393.39C378.665 427.31 338.775 449.38 293.735 449.38H218.275C173.235 449.38 133.345 427.31 108.835 393.39C111.065 348.05 148.535 311.98 194.415 311.98H317.595C363.475 311.98 400.945 348.05 403.175 393.39Z" fill="#AEA7B9"/>
<path d="M403.175 393.39C378.665 427.31 338.775 449.38 293.735 449.38H256.005V311.98H317.595C363.475 311.98 400.945 348.05 403.175 393.39Z" fill="#DECEE5"/>
<path d="M268.998 231.772C261.82 231.772 256 225.953 256 218.774V173.25C256 166.072 261.819 160.252 268.998 160.252C276.176 160.252 281.996 166.071 281.996 173.25V218.774C281.995 225.953 276.176 231.772 268.998 231.772Z" fill="#DECEE5"/>
<path d="M243.002 231.772C235.824 231.772 230.004 225.953 230.004 218.774V173.25C230.004 166.072 235.823 160.252 243.002 160.252C250.18 160.252 256 166.071 256 173.25V218.774C256 225.953 250.181 231.772 243.002 231.772Z" fill="#AEA7B9"/>
<path d="M308.268 201.101H297.949C289.358 201.101 282.393 208.066 282.393 216.657V230.49C282.393 239.081 289.358 246.046 297.949 246.046H308.268C316.859 246.046 323.824 239.081 323.824 230.49V216.657C323.824 208.066 316.86 201.101 308.268 201.101Z" fill="#DD5E26"/>
<path d="M214.061 201.101H203.742C195.151 201.101 188.186 208.066 188.186 216.657V230.49C188.186 239.081 195.151 246.046 203.742 246.046H214.061C222.652 246.046 229.617 239.081 229.617 230.49V216.657C229.617 208.066 222.652 201.101 214.061 201.101Z" fill="#C44A1A"/>
<path d="M341.284 269.05C340.238 257.091 325.799 248.585 313.84 249.632C301.881 250.678 293.035 261.221 294.081 273.18C295.127 285.139 305.003 286.362 316.962 285.316C328.921 284.27 342.33 281.009 341.284 269.05Z" fill="#DECEE5"/>
<path d="M327.286 263.497L327.89 270.399C328.164 273.535 327.142 276.479 325.274 278.706C324.281 279.89 323.052 280.868 321.642 281.565C320.399 282.187 319.016 282.596 317.548 282.724C311.285 283.272 305.762 278.646 305.214 272.383L304.61 265.481C304.063 259.227 308.698 253.703 314.961 253.155C316.43 253.027 317.863 253.188 319.194 253.585C323.546 254.876 326.867 258.711 327.286 263.497Z" fill="#334353"/>
<path d="M327.286 263.497L327.89 270.399C328.164 273.535 327.142 276.479 325.274 278.706C324.281 279.89 323.052 280.868 321.642 281.565C317.29 280.275 313.97 276.448 313.55 271.653L312.946 264.751C312.527 259.965 315.132 255.611 319.194 253.585C323.546 254.876 326.867 258.711 327.286 263.497Z" fill="#2E3140"/>
<path d="M331.883 263.611C331.599 260.365 328.737 257.963 325.491 258.247C317.723 259.23 318.702 270.385 326.52 270.003C329.766 269.719 332.167 266.857 331.883 263.611Z" fill="white"/>
<path d="M170.726 269.05C171.772 257.091 186.211 248.585 198.17 249.632C210.129 250.678 218.975 261.221 217.929 273.18C216.883 285.139 207.007 286.362 195.048 285.316C183.09 284.27 169.68 281.009 170.726 269.05Z" fill="#DECEE5"/>
<path d="M184.725 263.497L184.121 270.399C183.847 273.535 184.869 276.479 186.737 278.706C187.73 279.89 188.959 280.868 190.369 281.565C191.612 282.187 192.995 282.596 194.463 282.724C200.726 283.272 206.249 278.646 206.797 272.383L207.401 265.481C207.948 259.227 203.313 253.703 197.05 253.155C195.581 253.027 194.148 253.188 192.817 253.585C188.465 254.876 185.144 258.711 184.725 263.497Z" fill="#334353"/>
<path d="M207.403 265.481L206.799 272.383C206.525 275.519 205.007 278.241 202.78 280.109C201.596 281.102 200.216 281.852 198.707 282.294C194.645 280.267 192.04 275.922 192.459 271.128L193.063 264.226C193.482 259.44 196.803 255.605 201.155 254.314C205.217 256.342 207.822 260.696 207.403 265.481Z" fill="#2E3140"/>
<path d="M211.911 266.391C212.195 263.145 209.794 260.283 206.547 259.999C198.727 259.618 197.753 270.774 205.519 271.755C208.765 272.039 211.627 269.638 211.911 266.391Z" fill="white"/>
<path d="M312.285 449.87C303.045 464.81 286.505 474.94 267.345 474.94H244.665C212.785 474.94 188.175 446.91 192.295 415.3L204.025 343.2L211.985 294.27C213.435 283.15 222.915 274.84 234.125 274.84H277.885C289.095 274.84 298.575 283.15 300.025 294.27L307.785 341.96L307.985 343.2L319.715 415.3C321.355 427.91 318.425 439.95 312.285 449.87Z" fill="#DECEE5"/>
<path d="M312.285 449.87C303.045 464.81 286.505 474.94 267.345 474.94H256.005V341.96H307.785L307.985 343.2L319.715 415.3C321.355 427.91 318.425 439.95 312.285 449.87Z" fill="#F9F2F9"/>
<path d="M307.985 343.2C298.435 356.71 282.685 365.52 264.885 365.52H247.125C229.325 365.52 213.575 356.71 204.025 343.2L211.985 294.27C213.435 283.15 222.915 274.84 234.125 274.84H277.885C289.095 274.84 298.575 283.15 300.025 294.27L307.985 343.2Z" fill="#DD5E26"/>
<path d="M307.985 343.2C298.435 356.71 282.685 365.52 264.885 365.52H256.005V274.84H277.885C289.095 274.84 298.575 283.15 300.025 294.27L307.985 343.2Z" fill="#EA792E"/>
<path d="M271.156 365.517H240.854C227.217 365.517 217.01 378.028 219.749 391.387L223.255 408.489C225.31 418.511 234.129 425.706 244.36 425.706H267.651C277.882 425.706 286.702 418.511 288.756 408.489L292.262 391.387C295 378.028 284.794 365.517 271.156 365.517Z" fill="#2E3140"/>
<path d="M272.003 371.585H240.008C230.908 371.585 223.531 378.962 223.531 388.062V390.012C223.531 399.112 230.908 406.489 240.008 406.489H272.003C281.103 406.489 288.48 399.112 288.48 390.012V388.062C288.479 378.961 281.103 371.585 272.003 371.585Z" fill="#334353"/>
<path d="M277.056 379.552H234.954C231.322 379.552 228.378 382.496 228.378 386.128C228.378 389.76 231.322 392.704 234.954 392.704H277.056C280.688 392.704 283.632 389.76 283.632 386.128C283.632 382.496 280.688 379.552 277.056 379.552Z" fill="#3F5D77"/>
<path d="M268.274 379.552H257.246C253.614 379.552 250.67 382.496 250.67 386.128C250.67 389.76 253.614 392.704 257.246 392.704H268.274C271.906 392.704 274.85 389.76 274.85 386.128C274.849 382.496 271.905 379.552 268.274 379.552Z" fill="white"/>
<path d="M264.73 400.408L262.045 403.093C259.536 405.602 259.536 409.671 262.045 412.18L267.784 417.919C270.293 420.428 274.362 420.428 276.871 417.919L279.556 415.234C282.065 412.725 282.065 408.656 279.556 406.147L273.817 400.408C271.307 397.898 267.239 397.898 264.73 400.408Z" fill="#151516"/>
<path d="M249.962 403.093L247.277 400.408C244.768 397.899 240.699 397.899 238.19 400.408L232.451 406.147C229.942 408.656 229.942 412.725 232.451 415.234L235.136 417.919C237.645 420.428 241.714 420.428 244.223 417.919L249.962 412.18C252.472 409.671 252.472 405.602 249.962 403.093Z" fill="#151516"/>
<path d="M288.479 458.216C283.697 458.216 277.624 456.15 271.194 453.963C265.728 452.104 259.559 450.005 256.134 450.085C253.435 450.154 248.426 452.111 244.007 453.837C238.242 456.089 232.797 458.216 228.378 458.216C220.542 458.216 198.003 448.289 193.565 446.299C191.045 445.169 189.919 442.211 191.048 439.691C192.178 437.171 195.137 436.044 197.656 437.174C209.765 442.601 224.567 448.216 228.379 448.216C230.914 448.216 235.937 446.254 240.369 444.523C246.056 442.301 251.427 440.203 255.876 440.088C261.064 439.946 267.547 442.16 274.415 444.496C279.541 446.24 285.353 448.216 288.48 448.216C291.391 448.169 304.065 442.537 314.075 437.306C316.523 436.028 319.544 436.974 320.822 439.421C322.101 441.868 321.155 444.889 318.707 446.168C313.3 448.994 295.142 458.216 288.479 458.216Z" fill="#334353"/>
<path d="M295.324 431.734C293.396 431.734 291.83 430.174 291.824 428.245C291.818 426.312 293.38 424.74 295.313 424.734L329.03 424.63C329.033 424.63 329.037 424.63 329.041 424.63C330.969 424.63 332.535 426.19 332.541 428.119C332.547 430.052 330.985 431.624 329.052 431.63L295.335 431.734C295.331 431.734 295.328 431.734 295.324 431.734Z" fill="white"/>
<path d="M218.686 431.734C220.614 431.734 222.18 430.174 222.186 428.245C222.192 426.312 220.63 424.74 218.697 424.734L184.98 424.63C184.977 424.63 184.973 424.63 184.969 424.63C183.041 424.63 181.475 426.19 181.469 428.119C181.463 430.052 183.025 431.624 184.958 431.63L218.675 431.734C218.679 431.734 218.683 431.734 218.686 431.734Z" fill="#F4E6F4"/>
<path d="M310.197 413.316C308.298 413.651 306.485 412.386 306.144 410.488C305.803 408.585 307.068 406.766 308.971 406.425L342.158 400.468C342.161 400.467 342.165 400.467 342.169 400.466C344.068 400.131 345.881 401.396 346.222 403.294C346.563 405.197 345.298 407.016 343.395 407.357L310.208 413.314C310.204 413.315 310.2 413.315 310.197 413.316Z" fill="white"/>
<path d="M203.813 413.316C205.712 413.651 207.525 412.386 207.866 410.488C208.207 408.585 206.942 406.766 205.039 406.425L171.852 400.468C171.849 400.467 171.845 400.467 171.841 400.466C169.942 400.131 168.129 401.396 167.788 403.294C167.447 405.197 168.712 407.016 170.615 407.357L203.802 413.314C203.806 413.315 203.81 413.315 203.813 413.316Z" fill="#F4E6F4"/>
<path d="M71.7579 226.343H133.57C140.064 226.343 145.328 231.639 145.328 238.172C145.328 244.704 140.064 250 133.57 250H71.7579C65.2642 250 60.0001 244.704 60.0001 238.172C60.0001 231.639 65.2642 226.343 71.7579 226.343Z" fill="#F9A824"/>
<path d="M65.3648 229.261L85.8209 213.892L91.0473 220.932L70.5912 236.301L65.3648 229.261Z" fill="#F9A824"/>
<path d="M134.914 232.426H179.258C182.412 232.426 184.969 234.999 184.969 238.171C184.969 241.344 182.412 243.917 179.258 243.917H134.914C131.76 243.917 129.203 241.344 129.203 238.171C129.203 234.999 131.76 232.426 134.914 232.426Z" fill="#FDD835"/>
<path d="M304.563 221.612H139.953C138.098 221.612 136.594 223.125 136.594 224.992V250H304.563V221.612Z" fill="#FDD835"/>
<path d="M354.953 216.205H424.828V250H354.953V216.205Z" fill="#FDEF59"/>
<path d="M132.227 243.917H208.82C210.49 243.917 211.844 245.278 211.844 246.958C211.844 248.638 210.49 250 208.82 250H132.227C130.557 250 129.203 248.638 129.203 246.958C129.203 245.278 130.557 243.917 132.227 243.917Z" fill="#F9A824"/>
<path d="M80.8282 221.612H139.281V229.047H80.8282V221.612Z" fill="#F9A824"/>
<path d="M130.831 233.35L136.927 223.352C137.763 221.981 139.546 221.551 140.909 222.392C142.272 223.234 142.7 225.027 141.863 226.399L135.767 236.396C134.931 237.767 133.148 238.197 131.785 237.356C130.422 236.515 129.995 234.721 130.831 233.35Z" fill="#FDD835"/>
<path d="M298.18 221.612H421.805C423.475 221.612 424.828 222.974 424.828 224.654C424.828 226.333 423.475 227.695 421.805 227.695H298.18C296.51 227.695 295.156 226.333 295.156 224.654C295.156 222.974 296.51 221.612 298.18 221.612Z" fill="#FDEF59"/>
<path d="M379.812 237.834C379.812 232.234 375.3 227.695 369.734 227.695H276.344V250H379.812V237.834Z" fill="#FDD835"/>
<path d="M406.486 192.219C406.959 186.429 412.009 182.12 417.765 182.596C423.521 183.072 427.804 188.153 427.331 193.943L424.743 225.601C424.27 231.392 419.22 235.7 413.464 235.224C407.708 234.748 403.425 229.668 403.898 223.877L406.486 192.219Z" fill="#FDEF59"/>
<path d="M406.352 227.695H435.914C442.037 227.695 447 232.688 447 238.847C447 245.007 442.037 250 435.914 250H406.352C400.229 250 395.266 245.007 395.266 238.847C395.266 232.688 400.229 227.695 406.352 227.695Z" fill="#FDEF59"/>
<path d="M415.432 227.435L424.761 215.901L442.709 230.592L433.38 242.126L415.432 227.435Z" fill="#FDEF59"/>
<path d="M111.063 216.205H422.141C423.625 216.205 424.828 217.415 424.828 218.909C424.828 220.402 423.625 221.612 422.141 221.612H111.063C109.578 221.612 108.375 220.402 108.375 218.909C108.375 217.415 109.578 216.205 111.063 216.205Z" fill="#F9A824"/>
<path d="M80.7447 194.339C80.2716 188.548 84.5545 183.468 90.3107 182.992C96.0669 182.517 101.117 186.825 101.59 192.616L104.176 224.274C104.649 230.064 100.366 235.144 94.61 235.62C88.8538 236.096 83.8039 231.788 83.3309 225.997L80.7447 194.339Z" fill="#F9A824"/>
<path d="M93.5938 183.424C93.5938 162.343 97.73 141.469 105.766 121.993C113.802 102.517 125.58 84.8208 140.43 69.9145L253.5 183.424H93.5938Z" fill="#F9A824"/>
<path d="M140.429 69.9143C153.941 56.3504 169.765 45.3272 187.151 37.368L253.5 183.424L140.429 69.9143Z" fill="#FDD835"/>
<path d="M186.984 47.9059C152.846 47.9059 125.172 75.7463 125.172 110.089L125.172 182.41H186.984V47.9059Z" fill="#FDD835"/>
<path d="M93.5938 182.41H195.719V221.612H93.5938V182.41Z" fill="#F9A824"/>
<path d="M186.984 188.493H125.172V199.308C125.172 208.64 132.692 216.205 141.969 216.205H186.984V188.493Z" fill="#FDD835"/>
<path d="M366.57 69.9143C381.42 84.8206 393.198 102.517 401.234 121.993C409.27 141.469 413.406 162.343 413.406 183.424H253.5L366.57 69.9143Z" fill="#FDEF59"/>
<path d="M318.896 36.9355C335.59 44.446 350.876 54.7765 364.09 67.4774L253.5 183.424L318.896 36.9355Z" fill="#FDD835"/>
<path d="M231.328 6C206.838 6 186.984 25.9723 186.984 50.6094L186.984 216.205H231.328L231.328 6Z" fill="#F9A824"/>
<path d="M320.687 50.6094C320.687 25.9723 300.834 6 276.344 6L276.344 216.205H320.687L320.687 50.6094Z" fill="#F9A824"/>
<path d="M231.328 22.8975H276.344V216.205H231.328V22.8975Z" fill="#FDD835"/>
<path d="M379.812 98.5983C379.812 76.9472 362.366 59.3961 340.844 59.3961H320.687V182.41H379.812V98.5983Z" fill="#FDD835"/>
<path d="M340.844 183.762H415.422V216.205H340.844V183.762Z" fill="#FDEF59"/>
<path d="M379.812 199.983C379.812 196.623 377.105 193.9 373.766 193.9H320.687V216.205H379.812V199.983Z" fill="#FDD835"/>
<path d="M320.687 183.762H340.844V214.177H320.687V183.762Z" fill="#FDD835"/>
<path d="M415.422 184.408C415.422 182.931 414.232 181.734 412.764 181.734H320.687V188.493H411.361C413.604 188.493 415.422 186.664 415.422 184.408Z" fill="#F9A824"/>
<path d="M253.5 205.391C207.488 205.391 170.187 167.867 170.187 121.579C170.187 75.2912 207.488 37.7675 253.5 37.7675C299.512 37.7675 336.812 75.2912 336.812 121.579C336.812 167.867 299.512 205.391 253.5 205.391Z" fill="#FDEF59"/>
<path d="M253.5 166.864C229.01 166.864 209.156 146.892 209.156 122.255C209.156 97.6176 229.01 77.6453 253.5 77.6453C277.99 77.6453 297.844 97.6176 297.844 122.255C297.844 146.892 277.99 166.864 253.5 166.864Z" fill="#E2F4FF"/>
<path d="M263.242 157.402C236.711 157.402 215.203 135.765 215.203 109.075C215.203 82.3847 236.711 60.748 263.242 60.748C289.773 60.748 311.281 82.3847 311.281 109.075C311.281 135.765 289.773 157.402 263.242 157.402Z" fill="white"/>
<path d="M181.609 123.268C181.609 163.77 214.247 196.604 254.508 196.604C294.769 196.604 327.406 163.77 327.406 123.268C327.406 82.7665 294.769 49.9333 254.508 49.9333C214.247 49.9333 181.609 82.7665 181.609 123.268ZM307.586 123.268C307.586 152.758 283.822 176.665 254.508 176.665C225.194 176.665 201.43 152.758 201.43 123.268C201.43 93.779 225.194 69.8724 254.508 69.8724C283.822 69.8724 307.586 93.779 307.586 123.268Z" fill="#F9A824"/>
<path d="M197.734 122.255C197.734 152.864 222.401 177.679 252.828 177.679C283.255 177.679 307.922 152.864 307.922 122.255C307.922 91.6454 283.255 66.8311 252.828 66.8311C222.401 66.8311 197.734 91.6454 197.734 122.255ZM296.5 122.255C296.5 146.519 276.948 166.188 252.828 166.188C228.708 166.188 209.156 146.519 209.156 122.255C209.156 97.9907 228.708 78.3214 252.828 78.3214C276.948 78.3214 296.5 97.9907 296.5 122.255Z" fill="#F17F16"/>
<path d="M222.254 6.99005C210.06 10.1722 198.293 14.8232 187.207 20.8425L188.673 23.5741C199.54 17.6736 211.076 13.1142 223.029 9.99474L222.254 6.99005Z" fill="#F9A824"/>
<path d="M186.984 20.8699H201.766V47.9059H186.984V20.8699Z" fill="#F9A824"/>
<path d="M305.906 20.8699H320.687V47.9059H305.906V20.8699Z" fill="#F9A824"/>
<path d="M207.141 14.7868H201.766C196.571 14.7868 192.359 19.0234 192.359 24.2494V41.8228H207.141V14.7868Z" fill="#F9A824"/>
<path d="M315.312 23.5734C315.312 19.4672 312.003 16.1385 307.922 16.1385C303.84 16.1385 300.531 19.4672 300.531 23.5734V43.1745H315.312V23.5734Z" fill="#F9A824"/>
<path d="M320.854 19.7135C311.045 15.0348 300.857 11.2098 290.399 8.28015L289.462 11.6651C299.728 14.5409 309.729 18.2958 319.358 22.8885L320.854 19.7135Z" fill="#F9A824"/>
<path d="M341.516 188.493H385.859C387.344 188.493 388.547 189.704 388.547 191.197C388.547 192.69 387.344 193.9 385.859 193.9H341.516C340.031 193.9 338.828 192.69 338.828 191.197C338.828 189.704 340.031 188.493 341.516 188.493Z" fill="#FDEF59"/>
</svg>
