<svg width="512" height="512" viewBox="0 0 512 512" fill="none" xmlns="http://www.w3.org/2000/svg">
<path d="M256 512C397.385 512 512 397.385 512 256C512 114.615 397.385 0 256 0C114.615 0 0 114.615 0 256C0 397.385 114.615 512 256 512Z" fill="#6C53A2"/>
<path d="M395.198 293.577V324.83C395.198 388.471 343.611 440.071 279.969 440.071H232.037C168.396 440.071 116.808 388.472 116.808 324.83V293.577H395.198Z" fill="#EA792E"/>
<path d="M395.198 293.577V324.83C395.198 358.165 381.05 388.188 358.421 409.232C337.85 428.36 310.276 440.071 279.969 440.071H277.78C238.649 415.206 213.465 376.359 213.465 332.697C213.465 319.105 215.913 305.963 220.456 293.578H395.198V293.577Z" fill="#F39E22"/>
<path d="M395.198 293.577V324.83C395.198 358.165 381.05 388.188 358.421 409.232C323.738 405.163 296.79 374.691 296.79 337.689C296.79 321.069 302.232 305.762 311.376 293.578H395.198V293.577Z" fill="#F9C744"/>
<path d="M406.637 246.614V260.561C406.637 290.075 382.706 314.005 353.192 314.005H158.815C129.301 314.005 105.37 290.074 105.37 260.561V246.614C105.37 231.508 111.758 217.112 122.948 206.986L181.586 153.908C191.416 145.013 204.203 140.092 217.452 140.092H294.555C307.804 140.092 320.591 145.013 330.421 153.908L389.059 206.986C400.249 217.112 406.637 231.508 406.637 246.614Z" fill="#53B976"/>
<path d="M406.637 246.614V260.561C406.637 290.075 382.706 314.005 353.192 314.005H256.003V140.092H294.555C307.804 140.092 320.591 145.013 330.421 153.908L389.059 206.986C400.249 217.112 406.637 231.508 406.637 246.614Z" fill="#78C795"/>
<path d="M330.42 153.913L360.77 123.563C365.809 118.524 372.643 115.693 379.769 115.693C394.608 115.693 406.638 127.723 406.638 142.562V246.611H371.723C348.911 246.611 330.419 228.119 330.419 205.307V153.913H330.42Z" fill="#9ACDAE"/>
<path d="M342.404 164.017C338.194 159.807 338.194 152.981 342.404 148.771L358.987 132.188C363.197 127.978 370.023 127.978 374.233 132.188C378.443 136.398 378.443 143.224 374.233 147.434L357.65 164.017C353.44 168.227 346.614 168.227 342.404 164.017Z" fill="white"/>
<path d="M444.538 173.048V208.713C444.538 219.182 440.292 228.657 433.43 235.518C432.2 236.748 430.887 237.896 429.491 238.949C423.139 243.752 415.213 246.614 406.637 246.614C385.711 246.614 368.748 229.651 368.748 208.713V173.048C368.748 167.299 370.026 161.846 372.32 156.972C378.365 144.078 391.46 135.159 406.637 135.159C427.563 135.159 444.538 152.122 444.538 173.048Z" fill="#F39E22"/>
<path d="M444.538 173.048V208.713C444.538 219.182 440.292 228.657 433.43 235.518C432.2 236.748 430.887 237.896 429.491 238.949C399.338 222.364 377.608 192.353 372.32 156.972C378.365 144.078 391.46 135.159 406.637 135.159C427.563 135.159 444.538 152.122 444.538 173.048Z" fill="#F9C744"/>
<path d="M406.639 145.584C390.485 145.584 377.39 158.679 377.39 174.833V206.94C377.39 223.094 390.485 236.189 406.639 236.189C422.793 236.189 435.888 223.094 435.888 206.94V174.833C435.888 158.679 422.793 145.584 406.639 145.584Z" fill="#F4E6F4"/>
<path d="M435.891 175.071V206.691H400.533C393.861 206.691 388.444 201.285 388.444 194.613V187.161C388.444 180.489 393.862 175.072 400.533 175.072H435.891V175.071Z" fill="#3F5D77"/>
<path d="M435.891 175.071V206.691H408.033C407.122 201.557 406.637 196.281 406.637 190.887C406.637 185.493 407.122 180.205 408.033 175.071H435.891Z" fill="#334353"/>
<path d="M426.83 187.403C434.928 187.403 441.492 180.839 441.492 172.741C441.492 164.643 434.928 158.079 426.83 158.079C418.732 158.079 412.168 164.643 412.168 172.741C412.168 180.839 418.732 187.403 426.83 187.403Z" fill="white"/>
<path d="M181.58 153.913L151.23 123.563C146.191 118.524 139.357 115.693 132.231 115.693C117.392 115.693 105.362 127.723 105.362 142.562V246.611H140.277C163.089 246.611 181.581 228.119 181.581 205.307V153.913H181.58Z" fill="#78C795"/>
<path d="M169.596 164.017C173.806 159.807 173.806 152.981 169.596 148.771L153.013 132.188C148.803 127.978 141.977 127.978 137.767 132.188C133.557 136.398 133.557 143.224 137.767 147.434L154.35 164.017C158.56 168.227 165.386 168.227 169.596 164.017Z" fill="white"/>
<path d="M67.462 173.048V208.713C67.462 219.182 71.709 228.657 78.57 235.518C79.8 236.748 81.113 237.896 82.509 238.949C88.861 243.752 96.787 246.614 105.363 246.614C126.289 246.614 143.252 229.651 143.252 208.713V173.048C143.252 167.299 141.974 161.846 139.68 156.972C133.635 144.078 120.54 135.159 105.363 135.159C84.437 135.159 67.462 152.122 67.462 173.048Z" fill="#EA792E"/>
<path d="M67.462 173.048V208.713C67.462 219.182 71.709 228.657 78.57 235.518C79.8 236.748 81.113 237.896 82.509 238.949C112.662 222.364 134.392 192.353 139.68 156.972C133.635 144.078 120.54 135.159 105.363 135.159C84.437 135.159 67.462 152.122 67.462 173.048Z" fill="#F39E22"/>
<path d="M105.361 145.584C121.515 145.584 134.61 158.679 134.61 174.833V206.94C134.61 223.094 121.515 236.189 105.361 236.189C89.207 236.189 76.112 223.094 76.112 206.94V174.833C76.112 158.679 89.207 145.584 105.361 145.584Z" fill="#F4E6F4"/>
<path d="M76.109 175.071V206.691H111.467C118.139 206.691 123.556 201.285 123.556 194.613V187.161C123.556 180.489 118.138 175.072 111.467 175.072H76.109V175.071Z" fill="#3F5D77"/>
<path d="M76.109 175.071V206.691H103.967C104.878 201.557 105.363 196.281 105.363 190.887C105.363 185.493 104.878 180.205 103.967 175.071H76.109Z" fill="#334353"/>
<path d="M85.17 187.403C93.2676 187.403 99.832 180.839 99.832 172.741C99.832 164.643 93.2676 158.079 85.17 158.079C77.0724 158.079 70.508 164.643 70.508 172.741C70.508 180.839 77.0724 187.403 85.17 187.403Z" fill="white"/>
<path d="M404.153 296.427C392.478 312.988 373.432 322.877 353.192 322.877H158.815C138.575 322.877 119.53 312.988 107.854 296.427C105.027 292.429 105.985 286.893 109.995 284.065C113.993 281.238 119.529 282.196 122.357 286.206C130.709 298.059 144.336 305.133 158.815 305.133H353.193C367.672 305.133 381.299 298.059 389.651 286.206C392.478 282.196 398.014 281.238 402.013 284.065C406.022 286.893 406.98 292.429 404.153 296.427Z" fill="#50755C"/>
<path d="M404.153 296.427C392.478 312.988 373.432 322.877 353.192 322.877H256.003V305.133H353.192C367.671 305.133 381.298 298.059 389.65 286.206C392.477 282.196 398.013 281.238 402.012 284.065C406.022 286.893 406.98 292.429 404.153 296.427Z" fill="#528F66"/>
<path d="M256.004 227.049H303.782C308.471 227.049 312.272 230.85 312.272 235.539C312.272 240.228 308.471 244.029 303.782 244.029H294.455C282.243 244.029 282.562 282.884 256.004 282.884V227.049Z" fill="#9ACDAE"/>
<path d="M256.004 227.049H208.226C203.537 227.049 199.736 230.85 199.736 235.539C199.736 240.228 203.537 244.029 208.226 244.029H217.553C229.765 244.029 229.446 282.884 256.004 282.884V227.049Z" fill="#78C795"/>
<path d="M298.542 235.542C298.542 237.884 297.596 240.002 296.058 241.54C294.52 243.078 292.391 244.024 290.049 244.024H221.96C217.264 244.024 213.467 240.227 213.467 235.542C213.467 233.188 214.413 231.071 215.951 229.533C217.489 227.995 219.618 227.049 221.96 227.049H290.049C294.744 227.049 298.542 230.846 298.542 235.542Z" fill="#9ACDAE"/>
<path d="M298.542 235.542C298.542 237.884 297.596 240.002 296.058 241.54C294.52 243.078 292.391 244.024 290.049 244.024H256.004V227.049H290.049C294.744 227.049 298.542 230.846 298.542 235.542Z" fill="white"/>
<path d="M178.043 142.82H204.557C207.343 142.82 209.601 145.099 209.601 147.91C209.601 150.721 207.343 153 204.557 153H178.043C175.258 153 173 150.721 173 147.91C173 145.099 175.258 142.82 178.043 142.82Z" fill="#F9A824"/>
<path d="M175.301 144.076L184.076 137.462L186.317 140.492L177.543 147.105L175.301 144.076Z" fill="#F9A824"/>
<path d="M205.134 145.438H224.155C225.507 145.438 226.604 146.545 226.604 147.91C226.604 149.275 225.507 150.382 224.155 150.382H205.134C203.781 150.382 202.684 149.275 202.684 147.91C202.684 146.545 203.781 145.438 205.134 145.438Z" fill="#FDD835"/>
<path d="M277.903 140.784H207.295C206.499 140.784 205.854 141.435 205.854 142.238V153H277.903V140.784Z" fill="#FDD835"/>
<path d="M299.517 138.457H329.49V153H299.517V138.457Z" fill="#FDEF59"/>
<path d="M203.981 150.382H236.835C237.551 150.382 238.132 150.968 238.132 151.691C238.132 152.414 237.551 153 236.835 153H203.981C203.265 153 202.684 152.414 202.684 151.691C202.684 150.968 203.265 150.382 203.981 150.382Z" fill="#F9A824"/>
<path d="M181.934 140.784H207.007V143.983H181.934V140.784Z" fill="#F9A824"/>
<path d="M203.382 145.835L205.997 141.533C206.356 140.943 207.12 140.758 207.705 141.12C208.29 141.482 208.473 142.254 208.114 142.844L205.5 147.146C205.141 147.736 204.376 147.921 203.791 147.559C203.207 147.197 203.023 146.425 203.382 145.835Z" fill="#FDD835"/>
<path d="M275.165 140.784H328.193C328.909 140.784 329.49 141.37 329.49 142.093C329.49 142.816 328.909 143.402 328.193 143.402H275.165C274.449 143.402 273.868 142.816 273.868 142.093C273.868 141.37 274.449 140.784 275.165 140.784Z" fill="#FDEF59"/>
<path d="M310.181 147.765C310.181 145.355 308.245 143.402 305.858 143.402H265.799V153H310.181V147.765Z" fill="#FDD835"/>
<path d="M321.622 128.135C321.825 125.643 323.991 123.789 326.46 123.994C328.929 124.199 330.766 126.385 330.563 128.877L329.453 142.5C329.25 144.992 327.084 146.846 324.615 146.641C322.146 146.437 320.309 144.25 320.512 141.759L321.622 128.135Z" fill="#FDEF59"/>
<path d="M321.564 143.402H334.245C336.871 143.402 339 145.55 339 148.201C339 150.851 336.871 153 334.245 153H321.564C318.938 153 316.809 150.851 316.809 148.201C316.809 145.55 318.938 143.402 321.564 143.402Z" fill="#FDEF59"/>
<path d="M325.459 143.29L329.461 138.326L337.159 144.648L333.158 149.611L325.459 143.29Z" fill="#FDEF59"/>
<path d="M194.903 138.457H328.337C328.973 138.457 329.49 138.978 329.49 139.62C329.49 140.263 328.973 140.784 328.337 140.784H194.903C194.266 140.784 193.75 140.263 193.75 139.62C193.75 138.978 194.266 138.457 194.903 138.457Z" fill="#F9A824"/>
<path d="M181.898 129.048C181.695 126.556 183.532 124.37 186.001 124.165C188.471 123.96 190.637 125.814 190.84 128.306L191.949 141.929C192.152 144.421 190.315 146.607 187.846 146.812C185.377 147.017 183.21 145.163 183.008 142.671L181.898 129.048Z" fill="#F9A824"/>
<path d="M187.41 124.35C187.41 115.279 189.184 106.296 192.631 97.9151C196.078 89.534 201.13 81.9188 207.499 75.5042L256 124.35H187.41Z" fill="#F9A824"/>
<path d="M207.499 75.5042C213.295 69.6672 220.083 64.9237 227.54 61.4986L256 124.35L207.499 75.5042Z" fill="#FDD835"/>
<path d="M227.469 66.0333C212.826 66.0333 200.955 78.0137 200.955 92.7923V123.914H227.469V66.0333Z" fill="#FDD835"/>
<path d="M187.41 123.914H231.215V140.784H187.41V123.914Z" fill="#F9A824"/>
<path d="M227.469 126.532H200.955V131.186C200.955 135.201 204.181 138.457 208.16 138.457H227.469V126.532Z" fill="#FDD835"/>
<path d="M304.501 75.5042C310.87 81.9188 315.922 89.534 319.369 97.9151C322.816 106.296 324.59 115.279 324.59 124.35H256L304.501 75.5042Z" fill="#FDEF59"/>
<path d="M284.051 61.3124C291.212 64.5444 297.769 68.9899 303.437 74.4555L256 124.35L284.051 61.3124Z" fill="#FDD835"/>
<path d="M246.49 48C235.985 48 227.469 56.5946 227.469 67.1967V138.457H246.49V48Z" fill="#F9A824"/>
<path d="M284.819 67.1967C284.819 56.5946 276.304 48 265.799 48V138.457H284.819V67.1967Z" fill="#F9A824"/>
<path d="M246.49 55.2715H265.799V138.457H246.49V55.2715Z" fill="#FDD835"/>
<path d="M310.181 87.8477C310.181 78.5306 302.697 70.9778 293.465 70.9778H284.819V123.914H310.181V87.8477Z" fill="#FDD835"/>
<path d="M293.465 124.496H325.455V138.457H293.465V124.496Z" fill="#FDEF59"/>
<path d="M310.181 131.476C310.181 130.031 309.019 128.859 307.587 128.859H284.819V138.457H310.181V131.476Z" fill="#FDD835"/>
<path d="M284.819 124.496H293.465V137.584H284.819V124.496Z" fill="#FDD835"/>
<path d="M325.455 124.774C325.455 124.138 324.944 123.623 324.315 123.623H284.819V126.532H323.713C324.675 126.532 325.455 125.745 325.455 124.774Z" fill="#F9A824"/>
<path d="M256 133.803C236.264 133.803 220.264 117.656 220.264 97.7368C220.264 77.8179 236.264 61.6703 256 61.6703C275.737 61.6703 291.736 77.8179 291.736 97.7368C291.736 117.656 275.737 133.803 256 133.803Z" fill="#FDEF59"/>
<path d="M256 117.224C245.495 117.224 236.979 108.63 236.979 98.0277C236.979 87.4257 245.495 78.831 256 78.831C266.505 78.831 275.021 87.4257 275.021 98.0277C275.021 108.63 266.505 117.224 256 117.224Z" fill="#E2F4FF"/>
<path d="M260.179 113.152C248.798 113.152 239.573 103.842 239.573 92.356C239.573 80.8704 248.798 71.5596 260.179 71.5596C271.559 71.5596 280.785 80.8704 280.785 92.356C280.785 103.842 271.559 113.152 260.179 113.152Z" fill="white"/>
<path d="M225.163 98.464C225.163 115.893 239.163 130.022 256.432 130.022C273.702 130.022 287.701 115.893 287.701 98.464C287.701 81.0349 273.702 66.9058 256.432 66.9058C239.163 66.9058 225.163 81.0349 225.163 98.464ZM279.2 98.464C279.2 111.154 269.006 121.442 256.432 121.442C243.858 121.442 233.665 111.154 233.665 98.464C233.665 85.7738 243.858 75.4862 256.432 75.4862C269.006 75.4862 279.2 85.7738 279.2 98.464Z" fill="#F9A824"/>
<path d="M232.08 98.0277C232.08 111.2 242.66 121.878 255.712 121.878C268.763 121.878 279.344 111.2 279.344 98.0277C279.344 84.8556 268.763 74.1773 255.712 74.1773C242.66 74.1773 232.08 84.8556 232.08 98.0277ZM274.444 98.0277C274.444 108.469 266.058 116.934 255.712 116.934C245.366 116.934 236.979 108.469 236.979 98.0277C236.979 87.5862 245.366 79.1219 255.712 79.1219C266.058 79.1219 274.444 87.5862 274.444 98.0277Z" fill="#F17F16"/>
<path d="M242.598 48.4261C237.367 49.7954 232.32 51.7969 227.564 54.3872L228.193 55.5627C232.855 53.0235 237.803 51.0615 242.93 49.7191L242.598 48.4261Z" fill="#F9A824"/>
<path d="M227.469 54.3989H233.809V66.0333H227.469V54.3989Z" fill="#F9A824"/>
<path d="M278.479 54.3989H284.819V66.0333H278.479V54.3989Z" fill="#F9A824"/>
<path d="M236.115 51.7812H233.809C231.581 51.7812 229.774 53.6043 229.774 55.8532V63.4155H236.115V51.7812Z" fill="#F9A824"/>
<path d="M282.514 55.5623C282.514 53.7953 281.095 52.3629 279.344 52.3629C277.593 52.3629 276.174 53.7953 276.174 55.5623V63.9972H282.514V55.5623Z" fill="#F9A824"/>
<path d="M284.891 53.9013C280.684 51.8879 276.313 50.2419 271.828 48.9812L271.426 50.4379C275.829 51.6754 280.119 53.2912 284.249 55.2676L284.891 53.9013Z" fill="#F9A824"/>
<path d="M293.753 126.532H312.774C313.411 126.532 313.927 127.053 313.927 127.695C313.927 128.338 313.411 128.859 312.774 128.859H293.753C293.117 128.859 292.601 128.338 292.601 127.695C292.601 127.053 293.117 126.532 293.753 126.532Z" fill="#FDEF59"/>
</svg>
