<svg width="512" height="512" viewBox="0 0 512 512" fill="none" xmlns="http://www.w3.org/2000/svg">
<path d="M256 512C397.385 512 512 397.385 512 256C512 114.615 397.385 0 256 0C114.615 0 0 114.615 0 256C0 397.385 114.615 512 256 512Z" fill="#22BCE0"/>
<path d="M464.474 126.126L466.226 134.492C471.81 161.156 454.718 187.302 428.054 192.885L350.136 209.202C336.134 212.134 322.412 203.164 319.481 189.17C318.203 183.068 319.191 176.952 321.928 171.765C324.673 166.576 329.177 162.313 334.925 159.928L387.985 137.981L443.476 115.029C452.409 111.335 462.494 116.67 464.474 126.126Z" fill="#F39E22"/>
<path d="M464.474 126.126L466.226 134.492C471.81 161.156 454.718 187.302 428.054 192.885L425.706 193.377C407.356 182.682 393.427 164.552 388.731 142.126C388.442 140.744 388.187 139.364 387.985 137.981L443.476 115.029C452.409 111.335 462.494 116.67 464.474 126.126Z" fill="#DD5E26"/>
<path d="M450.11 161.804H445.54C441.766 161.804 438.522 159.129 437.804 155.424L433.903 135.307C433.042 130.869 436.085 126.618 440.563 126.001L449.034 124.834C453.769 124.182 457.99 127.861 457.99 132.64V153.925C457.99 158.276 454.462 161.804 450.11 161.804Z" fill="#EA792E"/>
<path d="M419.41 181.028L355 200.98L352.2 201.844C351.638 202.023 351.077 202.166 350.511 202.285C341.362 204.201 332.085 198.862 329.265 189.754C326.275 180.083 331.686 169.817 341.355 166.819L406.418 146.668L408.555 146.003C409.117 145.824 409.678 145.681 410.244 145.562C419.393 143.646 428.669 148.977 431.49 158.093C434.489 167.764 429.079 178.029 419.41 181.028Z" fill="#FBCB74"/>
<path d="M419.41 181.028L355 200.98C361.874 178.077 380.701 157.85 406.418 146.669L408.555 146.004C409.117 145.825 409.678 145.682 410.244 145.563C419.393 143.647 428.669 148.978 431.49 158.094C434.489 167.764 429.079 178.029 419.41 181.028Z" fill="#FBD9A3"/>
<path d="M47.526 126.126L45.774 134.492C40.19 161.156 57.282 187.302 83.946 192.885L161.864 209.202C175.866 212.134 189.588 203.164 192.519 189.17C193.797 183.068 192.809 176.952 190.072 171.765C187.327 166.576 182.823 162.313 177.075 159.928L124.015 137.981L68.524 115.03C59.591 111.335 49.506 116.67 47.526 126.126Z" fill="#EA792E"/>
<path d="M47.526 126.126L45.774 134.492C40.19 161.156 57.282 187.302 83.946 192.885L86.294 193.377C104.644 182.682 118.573 164.552 123.269 142.126C123.558 140.744 123.813 139.364 124.015 137.981L68.524 115.03C59.591 111.335 49.506 116.67 47.526 126.126Z" fill="#BF5E39"/>
<path d="M61.89 161.804H66.46C70.234 161.804 73.478 159.129 74.196 155.424L78.097 135.307C78.958 130.869 75.915 126.618 71.437 126.001L62.966 124.834C58.231 124.182 54.01 127.861 54.01 132.64V153.925C54.01 158.276 57.538 161.804 61.89 161.804Z" fill="#DD5E26"/>
<path d="M92.59 181.028L157 200.98L159.8 201.844C160.362 202.023 160.923 202.166 161.489 202.285C170.638 204.201 179.915 198.862 182.735 189.754C185.725 180.083 180.314 169.817 170.645 166.819L105.582 146.668L103.445 146.003C102.883 145.824 102.322 145.681 101.756 145.562C92.607 143.646 83.331 148.977 80.51 158.093C77.511 167.764 82.921 178.029 92.59 181.028Z" fill="#F9C744"/>
<path d="M92.59 181.028L157 200.98C150.126 178.077 131.299 157.85 105.582 146.669L103.445 146.004C102.883 145.825 102.322 145.682 101.756 145.563C92.607 143.647 83.331 148.978 80.51 158.094C77.511 167.764 82.921 178.029 92.59 181.028Z" fill="#FBCB74"/>
<path d="M357.834 239.249L343.764 337.245C340.628 359.073 329.714 378.094 314.076 391.659C298.427 405.214 278.055 413.321 256 413.321C220.319 413.321 189.012 392.092 175.055 360.857C171.764 353.492 169.433 345.569 168.236 337.245L167.844 334.512L165.874 320.823L162.099 294.477L154.167 239.248C150.319 212.418 155.983 185.082 170.177 161.986L192.324 125.975C196.956 118.435 205.177 113.844 214.017 113.844H297.984C306.824 113.844 315.046 118.434 319.677 125.975L341.824 161.986C356.018 185.083 361.681 212.419 357.834 239.249Z" fill="#F39E22"/>
<path d="M357.834 239.249L349.902 294.478L346.127 320.824L344.157 334.513L343.765 337.246C342.568 345.571 340.237 353.493 336.946 360.858C331.613 372.793 323.742 383.273 314.077 391.66C305.752 398.87 296.087 404.544 285.545 408.278C276.271 411.548 266.317 413.322 256.002 413.322V113.845H297.986C306.826 113.845 315.048 118.435 319.679 125.976L341.826 161.987C349.14 173.881 354.184 186.909 356.835 200.412C359.329 213.11 359.701 226.242 357.834 239.249Z" fill="#F9C744"/>
<path d="M300.425 15.563C312.846 15.563 322.137 26.965 319.629 39.13L314.655 63.255C314.242 65.258 314.145 67.314 314.368 69.348L322.108 140.065C323.378 151.669 314.29 161.806 302.617 161.806H298.234C286.561 161.806 277.473 151.669 278.743 140.065L286.483 69.348C286.706 67.315 286.609 65.259 286.196 63.255L281.222 39.13C278.714 26.965 288.005 15.563 300.425 15.563Z" fill="#DD5E26"/>
<path d="M313.132 37.176C313.132 30.158 307.443 24.469 300.425 24.469C293.407 24.469 287.718 30.158 287.718 37.176C287.718 44.194 293.407 60.774 300.425 60.774C307.443 60.775 313.132 44.194 313.132 37.176Z" fill="#EA792E"/>
<path d="M300.425 80.672C297.336 80.672 294.768 83.049 294.528 86.128L290.618 136.429C290.174 142.144 294.692 147.027 300.424 147.027C306.157 147.027 310.675 142.144 310.23 136.429L306.32 86.128C306.083 83.049 303.514 80.672 300.425 80.672Z" fill="#EA792E"/>
<path d="M211.575 15.563C223.996 15.563 233.287 26.965 230.778 39.13L225.804 63.255C225.391 65.258 225.294 67.314 225.517 69.348L233.257 140.065C234.527 151.669 225.439 161.806 213.766 161.806H209.383C197.71 161.806 188.622 151.669 189.892 140.065L197.632 69.348C197.855 67.315 197.758 65.259 197.345 63.255L192.371 39.13C189.863 26.965 199.154 15.563 211.575 15.563Z" fill="#BF5E39"/>
<path d="M224.281 37.176C224.281 30.158 218.592 24.469 211.574 24.469C204.556 24.469 198.867 30.158 198.867 37.176C198.867 44.194 204.556 60.774 211.574 60.774C218.592 60.775 224.281 44.194 224.281 37.176Z" fill="#DD5E26"/>
<path d="M211.575 80.672C208.486 80.672 205.918 83.049 205.678 86.128L201.768 136.429C201.324 142.144 205.842 147.027 211.574 147.027C217.307 147.027 221.825 142.144 221.38 136.429L217.47 86.128C217.232 83.049 214.663 80.672 211.575 80.672Z" fill="#DD5E26"/>
<path d="M357.834 239.249L349.902 294.478L346.127 320.824L344.157 334.513L343.765 337.246C342.568 345.571 340.237 353.493 336.946 360.858C331.613 372.793 323.742 383.273 314.077 391.66C305.752 398.87 296.087 404.544 285.545 408.278V275.23C285.545 211.182 356.835 200.412 356.835 200.412C359.329 213.11 359.701 226.242 357.834 239.249Z" fill="#FBD9A3"/>
<path d="M349.901 294.478L346.126 320.824H319.997C316.778 320.824 314.169 318.204 314.169 314.986V300.307C314.169 297.089 316.779 294.479 319.997 294.479H349.901V294.478Z" fill="#DD5E26"/>
<path d="M344.155 334.512L343.763 337.245C342.566 345.57 340.235 353.492 336.944 360.857H310.61C307.392 360.857 304.782 358.247 304.782 355.029V340.35C304.782 337.132 307.392 334.512 310.61 334.512H344.155V334.512Z" fill="#DD5E26"/>
<path d="M154.165 239.249L162.097 294.478L165.872 320.824L167.842 334.513L168.234 337.246C169.431 345.571 171.762 353.493 175.053 360.858C180.386 372.793 188.257 383.273 197.922 391.66C206.247 398.87 215.912 404.544 226.454 408.278V275.23C226.454 211.182 155.164 200.412 155.164 200.412C152.669 213.11 152.298 226.242 154.165 239.249Z" fill="#FBCB74"/>
<path d="M197.831 300.306V314.985C197.831 318.203 195.221 320.823 192.003 320.823H165.874L162.099 294.477H192.003C195.222 294.478 197.831 297.088 197.831 300.306Z" fill="#BF5E39"/>
<path d="M207.218 340.351V355.03C207.218 358.249 204.608 360.858 201.39 360.858H175.055C171.764 353.493 169.433 345.57 168.236 337.246L167.844 334.513H201.39C204.609 334.512 207.218 337.133 207.218 340.351Z" fill="#BF5E39"/>
<path d="M322.225 426.753V442.36C322.225 469.51 300.222 491.502 273.082 491.502H238.917C211.777 491.502 189.775 469.51 189.775 442.36V426.753C189.775 411.785 196.47 398.396 207.012 389.38C215.904 381.798 221.516 371.091 222.124 359.424L226.488 274.642C227.303 258.932 240.269 246.605 256 246.615C256.382 246.615 256.743 246.625 257.124 246.636C272.515 247.203 284.749 259.85 285.543 275.23L289.876 359.424C290.484 371.091 296.096 381.798 304.988 389.38C315.53 398.396 322.225 411.785 322.225 426.753Z" fill="#EA792E"/>
<path d="M322.225 426.753V442.36C322.225 469.51 300.222 491.502 273.082 491.502H256V246.615C256.382 246.615 256.743 246.625 257.124 246.636C272.515 247.203 284.749 259.85 285.543 275.23L289.876 359.424C290.484 371.091 296.096 381.798 304.988 389.38C315.53 398.396 322.225 411.785 322.225 426.753Z" fill="#F39E22"/>
<path d="M284.509 450.587C278.524 450.587 273.672 445.735 273.672 439.75V415.408C273.672 409.423 278.524 404.571 284.509 404.571H289.42C296.266 404.571 301.397 410.84 300.043 417.551L295.132 441.893C294.112 446.95 289.668 450.587 284.509 450.587Z" fill="#3E4E60"/>
<path d="M227.491 450.587C233.476 450.587 238.328 445.735 238.328 439.75V415.408C238.328 409.423 233.476 404.571 227.491 404.571H222.58C215.734 404.571 210.603 410.84 211.957 417.551L216.868 441.893C217.888 446.95 222.332 450.587 227.491 450.587Z" fill="#2E3140"/>
<path d="M293.316 476.427H218.684C199.9 476.427 184.617 461.145 184.617 442.36C184.617 439.512 186.926 437.202 189.775 437.202C192.624 437.202 194.933 439.511 194.933 442.36C194.933 455.456 205.588 466.111 218.685 466.111H293.317C306.414 466.111 317.069 455.456 317.069 442.36C317.069 439.512 319.378 437.202 322.227 437.202C325.076 437.202 327.385 439.511 327.385 442.36C327.383 461.144 312.1 476.427 293.316 476.427Z" fill="#BF5E39"/>
<path d="M357.293 254.129C359.919 263.928 354.18 273.989 344.442 276.731C344.363 276.767 344.28 276.789 344.198 276.811L331.753 280.146C326.819 281.468 321.804 280.67 317.698 278.299C313.578 275.932 310.383 272.002 309.057 267.054C306.594 257.861 311.495 248.424 320.142 245.028C320.795 244.764 321.473 244.538 322.162 244.354L334.607 241.019C339.555 239.693 344.559 240.509 348.666 242.88C352.773 245.251 355.967 249.181 357.293 254.129Z" fill="#3E4E60"/>
<path d="M357.293 254.129C359.919 263.928 354.18 273.989 344.442 276.731C333.723 273.443 324.64 264.296 321.32 251.906C320.703 249.604 320.308 247.303 320.142 245.028C320.795 244.764 321.473 244.538 322.162 244.354L334.607 241.019C339.555 239.693 344.559 240.509 348.666 242.88C352.773 245.251 355.967 249.181 357.293 254.129Z" fill="#2E3140"/>
<path d="M340.597 248.07L333.109 250.076C329.885 250.94 327.971 254.254 328.835 257.478C329.699 260.702 333.013 262.616 336.237 261.752L343.725 259.746C346.949 258.882 348.863 255.568 347.999 252.344C347.136 249.12 343.822 247.206 340.597 248.07Z" fill="white"/>
<path d="M202.945 267.054C200.319 276.853 190.319 282.697 180.514 280.202C180.428 280.194 180.345 280.171 180.262 280.149L167.817 276.814C162.883 275.492 158.939 272.293 156.568 268.187C154.183 264.077 153.381 259.076 154.707 254.128C157.17 244.935 166.134 239.213 175.32 240.596C176.018 240.694 176.718 240.838 177.407 241.022L189.852 244.357C194.8 245.683 198.726 248.891 201.097 252.998C203.469 257.105 204.27 262.106 202.945 267.054Z" fill="#3E4E60"/>
<path d="M202.945 267.054C200.319 276.853 190.319 282.697 180.514 280.202C172.875 271.996 169.582 259.532 172.902 247.142C173.519 244.84 174.327 242.649 175.321 240.596C176.019 240.694 176.719 240.838 177.408 241.022L189.853 244.357C194.801 245.683 198.727 248.891 201.098 252.998C203.469 257.105 204.27 262.106 202.945 267.054Z" fill="#2E3140"/>
<path d="M191.515 253.459L184.027 251.453C180.803 250.589 177.488 252.502 176.625 255.727C175.761 258.951 177.674 262.265 180.899 263.129L188.387 265.135C191.611 265.999 194.926 264.086 195.789 260.861C196.652 257.637 194.739 254.323 191.515 253.459Z" fill="white"/>
<path d="M256 338.387H260.034C268.042 338.387 275.015 343.855 276.924 351.632L284.704 383.317C286.277 389.723 282.986 396.336 276.912 398.909C271.938 401.016 265.03 402.833 256 402.833V338.387V338.387Z" fill="#F9C744"/>
<path d="M256 338.387H251.966C243.958 338.387 236.985 343.855 235.076 351.632L227.296 383.317C225.723 389.723 229.014 396.336 235.088 398.909C240.062 401.016 246.97 402.833 256 402.833V338.387Z" fill="#F39E22"/>
<path d="M127.173 212.809H170.138C174.652 212.809 178.311 216.433 178.311 220.904C178.311 225.375 174.652 229 170.138 229H127.173C122.659 229 119 225.375 119 220.904C119 216.433 122.659 212.809 127.173 212.809Z" fill="#F9A824"/>
<path d="M122.729 214.806L136.948 204.287L140.581 209.106L126.362 219.624L122.729 214.806Z" fill="#F9A824"/>
<path d="M171.072 216.972H201.895C204.087 216.972 205.865 218.733 205.865 220.904C205.865 223.076 204.087 224.837 201.895 224.837H171.072C168.88 224.837 167.102 223.076 167.102 220.904C167.102 218.733 168.88 216.972 171.072 216.972Z" fill="#FDD835"/>
<path d="M288.993 209.571H174.575C173.285 209.571 172.24 210.607 172.24 211.884V229H288.993V209.571Z" fill="#FDD835"/>
<path d="M324.019 205.87H372.589V229H324.019V205.87Z" fill="#FDEF59"/>
<path d="M169.204 224.837H222.444C223.604 224.837 224.545 225.769 224.545 226.918C224.545 228.068 223.604 229 222.444 229H169.204C168.043 229 167.102 228.068 167.102 226.918C167.102 225.769 168.043 224.837 169.204 224.837Z" fill="#F9A824"/>
<path d="M133.477 209.571H174.108V214.659H133.477V209.571Z" fill="#F9A824"/>
<path d="M168.234 217.604L172.471 210.762C173.052 209.823 174.292 209.529 175.239 210.105C176.187 210.681 176.484 211.908 175.902 212.847L171.665 219.689C171.084 220.628 169.844 220.922 168.897 220.346C167.949 219.77 167.652 218.543 168.234 217.604Z" fill="#FDD835"/>
<path d="M284.556 209.571H370.487C371.648 209.571 372.589 210.503 372.589 211.652C372.589 212.802 371.648 213.734 370.487 213.734H284.556C283.396 213.734 282.455 212.802 282.455 211.652C282.455 210.503 283.396 209.571 284.556 209.571Z" fill="#FDEF59"/>
<path d="M341.299 220.673C341.299 216.841 338.162 213.734 334.293 213.734H269.378V229H341.299V220.673Z" fill="#FDD835"/>
<path d="M359.839 189.453C360.168 185.49 363.678 182.541 367.679 182.867C371.68 183.193 374.657 186.67 374.328 190.633L372.53 212.301C372.201 216.264 368.691 219.213 364.689 218.887C360.688 218.561 357.711 215.084 358.04 211.121L359.839 189.453Z" fill="#FDEF59"/>
<path d="M359.746 213.734H380.294C384.55 213.734 388 217.151 388 221.367C388 225.583 384.55 229 380.294 229H359.746C355.49 229 352.04 225.583 352.04 221.367C352.04 217.151 355.49 213.734 359.746 213.734Z" fill="#FDEF59"/>
<path d="M366.057 213.556L372.542 205.662L385.017 215.716L378.533 223.611L366.057 213.556Z" fill="#FDEF59"/>
<path d="M154.493 205.87H370.721C371.752 205.87 372.589 206.698 372.589 207.72C372.589 208.742 371.752 209.571 370.721 209.571H154.493C153.461 209.571 152.625 208.742 152.625 207.72C152.625 206.698 153.461 205.87 154.493 205.87Z" fill="#F9A824"/>
<path d="M133.419 190.904C133.091 186.941 136.068 183.464 140.069 183.138C144.07 182.813 147.58 185.761 147.909 189.725L149.706 211.392C150.035 215.356 147.058 218.833 143.057 219.158C139.056 219.484 135.546 216.535 135.217 212.572L133.419 190.904Z" fill="#F9A824"/>
<path d="M142.351 183.433C142.351 169.005 145.226 154.719 150.811 141.389C156.397 128.059 164.584 115.947 174.906 105.745L253.5 183.433H142.351Z" fill="#F9A824"/>
<path d="M174.906 105.745C184.297 96.4611 195.297 88.9166 207.381 83.4691L253.5 183.433L174.906 105.745Z" fill="#FDD835"/>
<path d="M207.266 90.6815C183.537 90.6815 164.3 109.736 164.3 133.241V182.74H207.266V90.6815Z" fill="#FDD835"/>
<path d="M142.351 182.74H213.337V209.571H142.351V182.74Z" fill="#F9A824"/>
<path d="M207.266 186.903H164.3V194.305C164.3 200.692 169.528 205.87 175.976 205.87H207.266V186.903Z" fill="#FDD835"/>
<path d="M332.094 105.745C342.416 115.947 350.603 128.059 356.188 141.389C361.774 154.719 364.649 169.005 364.649 183.433H253.5L332.094 105.745Z" fill="#FDEF59"/>
<path d="M298.956 83.173C310.56 88.3134 321.185 95.3839 330.37 104.077L253.5 183.433L298.956 83.173Z" fill="#FDD835"/>
<path d="M238.089 62C221.065 62 207.266 75.6696 207.266 92.5319V205.87H238.089V62Z" fill="#F9A824"/>
<path d="M300.201 92.5319C300.201 75.6696 286.402 62 269.378 62V205.87H300.201V92.5319Z" fill="#F9A824"/>
<path d="M238.089 73.5651H269.378V205.87H238.089V73.5651Z" fill="#FDD835"/>
<path d="M341.299 125.377C341.299 110.558 329.172 98.5457 314.212 98.5457H300.201V182.74H341.299V125.377Z" fill="#FDD835"/>
<path d="M314.212 183.665H366.05V205.87H314.212V183.665Z" fill="#FDEF59"/>
<path d="M341.299 194.767C341.299 192.468 339.417 190.604 337.096 190.604H300.201V205.87H341.299V194.767Z" fill="#FDD835"/>
<path d="M300.201 183.665H314.212V204.482H300.201V183.665Z" fill="#FDD835"/>
<path d="M366.05 184.107C366.05 183.096 365.223 182.277 364.203 182.277H300.201V186.903H363.228C364.787 186.903 366.05 185.651 366.05 184.107Z" fill="#F9A824"/>
<path d="M253.5 198.468C221.517 198.468 195.59 172.786 195.59 141.105C195.59 109.425 221.517 83.7424 253.5 83.7424C285.483 83.7424 311.41 109.425 311.41 141.105C311.41 172.786 285.483 198.468 253.5 198.468Z" fill="#FDEF59"/>
<path d="M253.5 172.1C236.477 172.1 222.677 158.43 222.677 141.568C222.677 124.706 236.477 111.036 253.5 111.036C270.523 111.036 284.323 124.706 284.323 141.568C284.323 158.43 270.523 172.1 253.5 172.1Z" fill="#E2F4FF"/>
<path d="M260.272 165.623C241.83 165.623 226.88 150.815 226.88 132.547C226.88 114.28 241.83 99.4709 260.272 99.4709C278.713 99.4709 293.663 114.28 293.663 132.547C293.663 150.815 278.713 165.623 260.272 165.623Z" fill="white"/>
<path d="M203.53 142.262C203.53 169.982 226.216 192.454 254.201 192.454C282.185 192.454 304.872 169.982 304.872 142.262C304.872 114.541 282.185 92.0692 254.201 92.0692C226.216 92.0692 203.53 114.541 203.53 142.262ZM291.095 142.262C291.095 162.445 274.576 178.807 254.201 178.807C233.825 178.807 217.306 162.445 217.306 142.262C217.306 122.078 233.825 105.716 254.201 105.716C274.576 105.716 291.095 122.078 291.095 142.262Z" fill="#F9A824"/>
<path d="M214.738 141.568C214.738 162.518 231.883 179.501 253.033 179.501C274.183 179.501 291.328 162.518 291.328 141.568C291.328 120.618 274.183 103.634 253.033 103.634C231.883 103.634 214.738 120.618 214.738 141.568ZM283.389 141.568C283.389 158.175 269.798 171.637 253.033 171.637C236.268 171.637 222.677 158.175 222.677 141.568C222.677 124.961 236.268 111.499 253.033 111.499C269.798 111.499 283.389 124.961 283.389 141.568Z" fill="#F17F16"/>
<path d="M231.782 62.6777C223.306 64.8556 215.126 68.0389 207.421 72.1586L208.439 74.0282C215.993 69.9898 224.011 66.8692 232.32 64.7342L231.782 62.6777Z" fill="#F9A824"/>
<path d="M207.266 72.1773H217.54V90.6815H207.266V72.1773Z" fill="#F9A824"/>
<path d="M289.927 72.1773H300.201V90.6815H289.927V72.1773Z" fill="#F9A824"/>
<path d="M221.276 68.0138H217.54C213.929 68.0138 211.002 70.9134 211.002 74.4903V86.518H221.276V68.0138Z" fill="#F9A824"/>
<path d="M296.465 74.0277C296.465 71.2173 294.165 68.9391 291.328 68.9391C288.491 68.9391 286.191 71.2173 286.191 74.0277V87.4432H296.465V74.0277Z" fill="#F9A824"/>
<path d="M300.317 71.3859C293.499 68.1837 286.417 65.5657 279.148 63.5606L278.497 65.8773C285.632 67.8456 292.584 70.4155 299.277 73.5589L300.317 71.3859Z" fill="#F9A824"/>
<path d="M314.679 186.903H345.502C346.533 186.903 347.37 187.732 347.37 188.753C347.37 189.775 346.533 190.604 345.502 190.604H314.679C313.647 190.604 312.811 189.775 312.811 188.753C312.811 187.732 313.647 186.903 314.679 186.903Z" fill="#FDEF59"/>
</svg>
