<svg width="512" height="512" viewBox="0 0 512 512" fill="none" xmlns="http://www.w3.org/2000/svg">
<path d="M256 512C397.385 512 512 397.385 512 256C512 114.615 397.385 0 256 0C114.615 0 0 114.615 0 256C0 397.385 114.615 512 256 512Z" fill="#EA792E"/>
<path d="M422.853 316.627L393.39 401.19C380.566 437.967 345.877 462.62 306.924 462.62H205.076C166.123 462.62 131.434 437.967 118.61 401.19L89.147 316.627C79.854 289.973 83.375 260.532 98.691 236.819L139.724 157.787C145.956 148.144 150.318 137.419 152.581 126.17L156.233 107.989C160.529 86.605 172.074 68.238 187.992 55.195C203.91 42.164 234.2 34.479 256 34.479C299.61 34.479 347.164 65.232 355.768 107.99L359.42 126.171C361.683 137.421 366.045 148.145 372.277 157.788L413.31 236.82C428.626 260.532 432.146 289.974 422.853 316.627Z" fill="#2D2C33"/>
<path d="M422.853 316.627L393.39 401.19C380.566 437.967 345.877 462.62 306.924 462.62H256V34.479C299.61 34.479 347.164 65.232 355.768 107.99L359.42 126.171C361.683 137.421 366.045 148.145 372.277 157.788L413.31 236.82C428.626 260.532 432.146 289.974 422.853 316.627Z" fill="#2E3140"/>
<path d="M325 405.211L327.634 376.843C329.522 356.51 342.383 338.84 361.151 330.794L366.347 328.566C378.666 323.284 391.46 334.999 387.28 347.735L371.491 395.848C367.406 408.297 357.445 417.932 344.867 421.602C334.318 424.679 323.984 416.154 325 405.211Z" fill="#334353"/>
<path d="M187 405.211L184.366 376.843C182.478 356.51 169.617 338.84 150.849 330.794L145.653 328.566C133.334 323.284 120.54 334.999 124.72 347.735L140.509 395.848C144.594 408.297 154.555 417.932 167.133 421.602C177.682 424.679 188.016 416.154 187 405.211Z" fill="#2E3140"/>
<path d="M256 61.797C256 61.797 282.942 63.595 291.578 65.966C313.119 71.879 326.884 93.265 331.761 115.065L337.439 140.441C340.568 154.427 329.929 167.71 315.597 167.71H256V61.797Z" fill="#334353"/>
<path d="M256 61.797C256 61.797 229.058 63.595 220.422 65.966C198.881 71.879 185.116 93.265 180.239 115.065L174.561 140.441C171.432 154.427 182.071 167.71 196.403 167.71H256V61.797Z" fill="#2E3140"/>
<path d="M366.037 268.706C366.037 290.358 355.088 309.454 338.434 320.764C319.44 333.663 307.682 354.795 307.682 377.747V397.146C307.682 411.417 301.904 424.345 292.544 433.705C283.184 443.05 270.271 448.843 256 448.843C227.458 448.843 204.318 425.689 204.318 397.146V377.747C204.318 354.795 192.56 333.663 173.566 320.764C165.232 315.116 158.342 307.504 153.517 298.621C148.707 289.723 145.963 279.526 145.963 268.707C145.963 233.954 174.13 205.773 208.883 205.773H303.118C320.495 205.773 336.225 212.822 347.607 224.204C358.988 235.6 366.037 251.33 366.037 268.706Z" fill="#334353"/>
<path d="M366.04 268.71C366.04 290.36 355.09 309.45 338.43 320.76C319.44 333.66 307.68 354.79 307.68 377.75V397.15C307.68 411.42 301.9 424.34 292.54 433.7C283.18 443.05 270.27 448.84 256 448.84V205.77H303.12C320.49 205.77 336.22 212.82 347.61 224.2C358.99 235.6 366.04 251.33 366.04 268.71Z" fill="#3E4E60"/>
<path d="M256 373.12C268.611 373.827 280.338 379.82 288.299 389.626L305.763 411.138L256 423.725V373.12Z" fill="#3F5D77"/>
<path d="M256 373.12C243.389 373.827 231.662 379.82 223.701 389.626L206.237 411.138L256 423.725V373.12Z" fill="#3E4E60"/>
<path d="M256 427.236C245.429 427.236 235.433 423.509 226.613 420.222C220.32 417.876 214.375 415.66 209.252 415.162C206.503 414.895 204.492 412.451 204.759 409.702C205.026 406.953 207.474 404.945 210.219 405.209C216.644 405.833 223.183 408.271 230.107 410.852C238.526 413.991 247.233 417.236 256.001 417.236C264.772 417.236 273.481 413.99 281.904 410.851C288.828 408.27 295.367 405.833 301.792 405.208C304.545 404.933 306.985 406.953 307.252 409.701C307.519 412.45 305.508 414.894 302.759 415.161C297.635 415.659 291.69 417.875 285.396 420.221C276.573 423.509 266.574 427.236 256 427.236Z" fill="#2D2C33"/>
<path d="M320.092 246.763H284.175C277.46 246.763 272.017 241.32 272.017 234.605C272.017 227.89 277.46 222.447 284.175 222.447H320.092C326.807 222.447 332.25 227.89 332.25 234.605C332.25 241.319 326.807 246.763 320.092 246.763Z" fill="#3F5D77"/>
<path d="M227.825 246.763H191.908C185.193 246.763 179.75 241.32 179.75 234.605C179.75 227.89 185.193 222.447 191.908 222.447H227.825C234.54 222.447 239.983 227.89 239.983 234.605C239.983 241.319 234.539 246.763 227.825 246.763Z" fill="#3E4E60"/>
<path d="M256 302.315H182.468C174.732 302.315 168.46 296.044 168.46 288.307V277.843C168.46 260.678 182.375 246.763 199.54 246.763H211.388H256V302.315Z" fill="#2E3140"/>
<path d="M256 302.315H329.532C337.268 302.315 343.54 296.044 343.54 288.307V277.843C343.54 260.678 329.625 246.763 312.46 246.763H300.612H256V302.315Z" fill="#334353"/>
<path d="M299.637 259.355L286.813 263.072C278.653 265.437 273.955 273.969 276.32 282.129C278.685 290.289 287.217 294.987 295.377 292.622L308.201 288.905C316.361 286.54 321.059 278.008 318.694 269.848C316.329 261.688 307.797 256.99 299.637 259.355Z" fill="#EA792E"/>
<path d="M311.204 275.99C311.204 279.13 310.144 282.04 308.354 284.35C305.854 287.59 301.924 289.69 297.504 289.69C289.944 289.69 283.804 283.55 283.804 275.99C283.804 269.8 287.914 264.57 293.554 262.87C294.804 262.49 296.134 262.29 297.504 262.29C305.074 262.29 311.204 268.42 311.204 275.99Z" fill="#3E4E60"/>
<path d="M311.204 275.99C311.204 279.13 310.144 282.04 308.354 284.35C307.094 284.74 305.764 284.94 304.384 284.94C296.824 284.94 290.694 278.8 290.694 271.24C290.694 268.09 291.754 265.19 293.554 262.87C294.804 262.49 296.134 262.29 297.504 262.29C305.074 262.29 311.204 268.42 311.204 275.99Z" fill="#2E3140"/>
<path d="M307.5 275.989C311.117 275.989 314.05 273.056 314.05 269.439C314.05 265.822 311.117 262.889 307.5 262.889C303.883 262.889 300.95 265.822 300.95 269.439C300.95 273.056 303.883 275.989 307.5 275.989Z" fill="white"/>
<path d="M212.363 259.355L225.187 263.072C233.347 265.437 238.045 273.969 235.68 282.129C233.315 290.289 224.783 294.987 216.623 292.622L203.799 288.905C195.639 286.54 190.941 278.008 193.306 269.848C195.671 261.688 204.203 256.99 212.363 259.355Z" fill="#EA792E"/>
<path d="M200.796 275.99C200.796 279.13 201.856 282.04 203.646 284.35C206.146 287.59 210.076 289.69 214.496 289.69C222.056 289.69 228.196 283.55 228.196 275.99C228.196 269.8 224.086 264.57 218.446 262.87C217.196 262.49 215.866 262.29 214.496 262.29C206.926 262.29 200.796 268.42 200.796 275.99Z" fill="#3E4E60"/>
<path d="M200.796 275.99C200.796 279.13 201.856 282.04 203.646 284.35C204.906 284.74 206.236 284.94 207.616 284.94C215.176 284.94 221.306 278.8 221.306 271.24C221.306 268.09 220.246 265.19 218.446 262.87C217.196 262.49 215.866 262.29 214.496 262.29C206.926 262.29 200.796 268.42 200.796 275.99Z" fill="#2E3140"/>
<path d="M219.291 275.872C222.908 275.872 225.841 272.939 225.841 269.322C225.841 265.705 222.908 262.772 219.291 262.772C215.674 262.772 212.741 265.705 212.741 269.322C212.741 272.939 215.674 275.872 219.291 275.872Z" fill="white"/>
<path d="M256 356.53V373.12C255.69 373.51 255.36 373.88 255.01 374.23C249.81 379.43 241.39 379.43 236.2 374.23L231.96 369.99L221.98 360.02C216.79 354.82 216.79 346.4 221.98 341.21C224.58 338.61 227.98 337.31 231.39 337.31C234.8 337.31 238.2 338.61 240.8 341.21L255.01 355.42C255.36 355.78 255.69 356.15 256 356.53Z" fill="#2D2C33"/>
<path d="M290.02 360.02L275.8 374.23C270.61 379.43 262.19 379.43 256.99 374.23C256.64 373.88 256.31 373.51 256 373.12V356.53C256.31 356.15 256.64 355.78 256.99 355.42L271.2 341.21C273.8 338.61 277.2 337.31 280.61 337.31C284.02 337.31 287.42 338.61 290.02 341.21C295.21 346.4 295.21 354.82 290.02 360.02Z" fill="#2E3140"/>
<path d="M268.271 332.843C266.023 332.843 263.8 331.836 262.322 329.917C259.796 326.634 260.408 321.925 263.691 319.399C278.798 307.772 290.479 312.937 297.95 317.833C301.414 320.104 302.382 324.753 300.112 328.217C297.841 331.681 293.192 332.648 289.728 330.379C284.603 327.02 280.657 325.269 272.841 331.286C271.477 332.335 269.867 332.843 268.271 332.843Z" fill="#3F5D77"/>
<path d="M243.729 332.843C245.977 332.843 248.2 331.836 249.678 329.917C252.204 326.634 251.592 321.925 248.309 319.399C233.202 307.772 221.521 312.937 214.05 317.833C210.586 320.104 209.618 324.753 211.888 328.217C214.159 331.681 218.808 332.648 222.272 330.379C227.397 327.02 231.343 325.269 239.159 331.286C240.523 332.335 242.133 332.843 243.729 332.843Z" fill="#3E4E60"/>
<path d="M119.115 179.482H167.031C172.065 179.482 176.146 183.627 176.146 188.741C176.146 193.855 172.065 198 167.031 198H119.115C114.081 198 110 193.855 110 188.741C110 183.627 114.081 179.482 119.115 179.482Z" fill="#F9A824"/>
<path d="M114.159 181.766L130.016 169.736L134.068 175.247L118.21 187.277L114.159 181.766Z" fill="#F9A824"/>
<path d="M168.073 184.244H202.448C204.893 184.244 206.875 186.257 206.875 188.741C206.875 191.225 204.893 193.238 202.448 193.238H168.073C165.628 193.238 163.646 191.225 163.646 188.741C163.646 186.257 165.628 184.244 168.073 184.244Z" fill="#FDD835"/>
<path d="M299.583 175.778H171.979C170.541 175.778 169.375 176.963 169.375 178.424V198H299.583V175.778Z" fill="#FDD835"/>
<path d="M338.646 171.546H392.813V198H338.646V171.546Z" fill="#FDEF59"/>
<path d="M165.99 193.238H225.365C226.659 193.238 227.708 194.304 227.708 195.619C227.708 196.934 226.659 198 225.365 198H165.99C164.695 198 163.646 196.934 163.646 195.619C163.646 194.304 164.695 193.238 165.99 193.238Z" fill="#F9A824"/>
<path d="M126.146 175.778H171.458V181.598H126.146V175.778Z" fill="#F9A824"/>
<path d="M164.907 184.966L169.633 177.141C170.281 176.067 171.663 175.731 172.72 176.389C173.777 177.048 174.108 178.452 173.46 179.525L168.734 187.351C168.086 188.425 166.704 188.761 165.647 188.102C164.59 187.444 164.259 186.04 164.907 184.966Z" fill="#FDD835"/>
<path d="M294.635 175.778H390.469C391.763 175.778 392.813 176.844 392.813 178.159C392.813 179.474 391.763 180.54 390.469 180.54H294.635C293.341 180.54 292.292 179.474 292.292 178.159C292.292 176.844 293.341 175.778 294.635 175.778Z" fill="#FDEF59"/>
<path d="M357.917 188.476C357.917 184.094 354.419 180.54 350.104 180.54H277.708V198H357.917V188.476Z" fill="#FDD835"/>
<path d="M378.593 152.77C378.96 148.237 382.875 144.865 387.337 145.237C391.799 145.61 395.119 149.587 394.752 154.12L392.747 178.901C392.38 183.434 388.465 186.806 384.003 186.434C379.541 186.061 376.221 182.084 376.588 177.551L378.593 152.77Z" fill="#FDEF59"/>
<path d="M378.49 180.54H401.406C406.152 180.54 410 184.449 410 189.27C410 194.092 406.152 198 401.406 198H378.49C373.743 198 369.896 194.092 369.896 189.27C369.896 184.449 373.743 180.54 378.49 180.54Z" fill="#FDEF59"/>
<path d="M385.529 180.336L392.76 171.308L406.673 182.807L399.442 191.836L385.529 180.336Z" fill="#FDEF59"/>
<path d="M149.583 171.546H390.729C391.88 171.546 392.813 172.493 392.813 173.662C392.813 174.831 391.88 175.778 390.729 175.778H149.583C148.433 175.778 147.5 174.831 147.5 173.662C147.5 172.493 148.433 171.546 149.583 171.546Z" fill="#F9A824"/>
<path d="M126.081 154.429C125.714 149.897 129.034 145.92 133.497 145.547C137.959 145.175 141.873 148.548 142.24 153.08L144.245 177.862C144.612 182.395 141.292 186.371 136.829 186.744C132.367 187.116 128.453 183.744 128.086 179.211L126.081 154.429Z" fill="#F9A824"/>
<path d="M136.042 145.885C136.042 129.383 139.248 113.044 145.477 97.798C151.707 82.5524 160.838 68.6999 172.348 57.0314L260 145.885H136.042Z" fill="#F9A824"/>
<path d="M172.348 57.0314C182.822 46.4137 195.089 37.7849 208.567 31.5545L260 145.885L172.348 57.0314Z" fill="#FDD835"/>
<path d="M208.437 39.8033C181.974 39.8033 160.521 61.5963 160.521 88.4792V145.091H208.437V39.8033Z" fill="#FDD835"/>
<path d="M136.042 145.091H215.208V175.778H136.042V145.091Z" fill="#F9A824"/>
<path d="M208.437 149.853H160.521V158.319C160.521 165.624 166.35 171.546 173.542 171.546H208.437V149.853Z" fill="#FDD835"/>
<path d="M347.652 57.0314C359.162 68.6999 368.293 82.5524 374.522 97.798C380.752 113.044 383.958 129.383 383.958 145.885H260L347.652 57.0314Z" fill="#FDEF59"/>
<path d="M310.695 31.2159C323.635 37.0951 335.485 45.1817 345.729 55.1238L260 145.885L310.695 31.2159Z" fill="#FDD835"/>
<path d="M242.812 7C223.828 7 208.438 22.6341 208.438 41.9197V171.546H242.812V7Z" fill="#F9A824"/>
<path d="M312.083 41.9197C312.083 22.6341 296.693 7 277.708 7V171.546H312.083V41.9197Z" fill="#F9A824"/>
<path d="M242.812 20.2271H277.708V171.546H242.812V20.2271Z" fill="#FDD835"/>
<path d="M357.917 79.4848C357.917 62.5366 344.392 48.7978 327.708 48.7978H312.083V145.091H357.917V79.4848Z" fill="#FDD835"/>
<path d="M327.708 146.15H385.521V171.546H327.708V146.15Z" fill="#FDEF59"/>
<path d="M357.917 158.848C357.917 156.218 355.818 154.086 353.229 154.086H312.083V171.546H357.917V158.848Z" fill="#FDD835"/>
<path d="M312.083 146.15H327.708V169.958H312.083V146.15Z" fill="#FDD835"/>
<path d="M385.521 146.655C385.521 145.499 384.598 144.562 383.46 144.562H312.083V149.853H382.373C384.111 149.853 385.521 148.421 385.521 146.655Z" fill="#F9A824"/>
<path d="M260 163.08C224.332 163.08 195.417 133.707 195.417 97.4737C195.417 61.2401 224.332 31.867 260 31.867C295.668 31.867 324.583 61.2401 324.583 97.4737C324.583 133.707 295.668 163.08 260 163.08Z" fill="#FDEF59"/>
<path d="M260 132.922C241.015 132.922 225.625 117.288 225.625 98.0028C225.625 78.7172 241.015 63.0831 260 63.0831C278.985 63.0831 294.375 78.7172 294.375 98.0028C294.375 117.288 278.985 132.922 260 132.922Z" fill="#E2F4FF"/>
<path d="M267.552 125.515C246.985 125.515 230.312 108.578 230.312 87.6856C230.312 66.7929 246.985 49.8559 267.552 49.8559C288.119 49.8559 304.792 66.7929 304.792 87.6856C304.792 108.578 288.119 125.515 267.552 125.515Z" fill="white"/>
<path d="M204.271 98.7964C204.271 130.501 229.571 156.202 260.781 156.202C291.991 156.202 317.292 130.501 317.292 98.7964C317.292 67.092 291.991 41.3906 260.781 41.3906C229.571 41.3906 204.271 67.092 204.271 98.7964ZM301.927 98.7964C301.927 121.88 283.505 140.594 260.781 140.594C238.057 140.594 219.635 121.88 219.635 98.7964C219.635 75.7124 238.057 56.9986 260.781 56.9986C283.505 56.9986 301.927 75.7124 301.927 98.7964Z" fill="#F9A824"/>
<path d="M216.771 98.0028C216.771 121.964 235.892 141.388 259.479 141.388C283.066 141.388 302.187 121.964 302.187 98.0028C302.187 74.0421 283.066 54.6178 259.479 54.6178C235.892 54.6178 216.771 74.0421 216.771 98.0028ZM293.333 98.0028C293.333 116.996 278.177 132.393 259.479 132.393C240.782 132.393 225.625 116.996 225.625 98.0028C225.625 79.0091 240.782 63.6122 259.479 63.6122C278.177 63.6122 293.333 79.0091 293.333 98.0028Z" fill="#F17F16"/>
<path d="M235.779 7.77504C226.326 10.266 217.204 13.9068 208.61 18.6185L209.746 20.7568C218.171 16.138 227.113 12.5689 236.379 10.1271L235.779 7.77504Z" fill="#F9A824"/>
<path d="M208.437 18.6399H219.896V39.8034H208.437V18.6399Z" fill="#F9A824"/>
<path d="M300.625 18.6399H312.083V39.8034H300.625V18.6399Z" fill="#F9A824"/>
<path d="M224.062 13.8781H219.896C215.869 13.8781 212.604 17.1944 212.604 21.2853V35.0415H224.062V13.8781Z" fill="#F9A824"/>
<path d="M307.917 20.7562C307.917 17.542 305.352 14.9363 302.187 14.9363C299.023 14.9363 296.458 17.542 296.458 20.7562V36.0997H307.917V20.7562Z" fill="#F9A824"/>
<path d="M312.212 17.7348C304.609 14.0723 296.71 11.0781 288.604 8.78486L287.878 11.4346C295.835 13.6857 303.589 16.625 311.053 20.2201L312.212 17.7348Z" fill="#F9A824"/>
<path d="M328.229 149.853H362.604C363.755 149.853 364.688 150.801 364.688 151.97C364.688 153.138 363.755 154.086 362.604 154.086H328.229C327.079 154.086 326.146 153.138 326.146 151.97C326.146 150.801 327.079 149.853 328.229 149.853Z" fill="#FDEF59"/>
</svg>
