<svg width="592" height="381" viewBox="0 0 592 381" fill="none" xmlns="http://www.w3.org/2000/svg">
<rect width="127" height="35" rx="17.5" transform="matrix(-1 0 0 1 143 333)" fill="#F9A824"/>
<rect width="38" height="13" transform="matrix(-0.801218 0.598373 0.598373 0.801218 54.431 314.579)" fill="#F9A824"/>
<rect width="83" height="17" rx="8.5" transform="matrix(-1 0 0 1 202 342)" fill="#FDD835"/>
<path d="M380 326H135C132.239 326 130 328.239 130 331V368H380V326Z" fill="#FDD835"/>
<rect width="104" height="50" transform="matrix(-1 0 0 1 559 318)" fill="#FDEF59"/>
<rect width="123" height="9" rx="4.5" transform="matrix(-1 0 0 1 242 359)" fill="#F9A824"/>
<rect width="87" height="11" transform="matrix(-1 0 0 1 134 326)" fill="#F9A824"/>
<rect width="25.972" height="8.6197" rx="4.30985" transform="matrix(-0.522883 0.852404 0.852404 0.522883 132.749 324.901)" fill="#FDD835"/>
<rect width="193" height="9" rx="4.5" transform="matrix(-1 0 0 1 559 326)" fill="#FDEF59"/>
<path d="M492 350C492 341.716 485.284 335 477 335H338V368H492V350Z" fill="#FDD835"/>
<rect width="31.13" height="78.1259" rx="15.565" transform="matrix(-0.996637 -0.0819385 -0.0819385 0.996637 564 269.551)" fill="#FDEF59"/>
<rect width="77" height="33" rx="16.5" transform="matrix(-1 0 0 1 592 335)" fill="#FDEF59"/>
<rect width="22" height="34.4381" transform="matrix(-0.631133 0.775675 0.775675 0.631133 558.9 317.55)" fill="#FDEF59"/>
<rect width="471" height="8" rx="4" transform="matrix(-1 0 0 1 559 318)" fill="#F9A824"/>
<rect width="31.13" height="78.1259" rx="15.565" transform="matrix(-0.99664 0.0819062 0.0819062 0.99664 76.6263 267.587)" fill="#F9A824"/>
<path d="M66 269.5C66 238.311 72.1561 207.428 84.1167 178.613C96.0773 149.798 113.608 123.616 135.709 101.562L304 269.5H66Z" fill="#F9A824"/>
<path d="M135.709 101.562C155.819 81.494 179.371 65.1852 205.248 53.4094L304 269.5L135.709 101.562Z" fill="#FDD835"/>
<path d="M205 69V69C154.19 69 113 110.19 113 161V268H205V69Z" fill="#FDD835"/>
<rect width="152" height="58" transform="matrix(-1 0 0 1 218 268)" fill="#F9A824"/>
<path d="M205 277H113V293C113 306.807 124.193 318 138 318H205V277Z" fill="#FDD835"/>
<path d="M472.291 101.562C494.392 123.616 511.923 149.798 523.883 178.613C535.844 207.428 542 238.311 542 269.5L304 269.5L472.291 101.562Z" fill="#FDEF59"/>
<path d="M401.334 52.7693C426.18 63.8812 448.932 79.1653 468.599 97.9564L304 269.5L401.334 52.7693Z" fill="#FDD835"/>
<path d="M271 7V7C234.549 7 205 36.5492 205 73V318H271V7Z" fill="#F9A824"/>
<path d="M404 73C404 36.5492 374.451 7 338 7V7V318H404V73Z" fill="#F9A824"/>
<rect width="67" height="286" transform="matrix(-1 0 0 1 338 32)" fill="#FDD835"/>
<path d="M492 144C492 111.967 466.033 86 434 86H404V268H492V144Z" fill="#FDD835"/>
<rect width="111" height="48" transform="matrix(-1 0 0 1 545 270)" fill="#FDEF59"/>
<path d="M492 294C492 289.029 487.971 285 483 285H404V318H492V294Z" fill="#FDD835"/>
<rect width="30" height="45" transform="matrix(-1 0 0 1 434 270)" fill="#FDD835"/>
<path d="M545 270.956C545 268.771 543.229 267 541.044 267H404V277H538.956C542.294 277 545 274.294 545 270.956V270.956Z" fill="#F9A824"/>
<circle r="124" transform="matrix(-1 0 0 1 304 178)" fill="#FDEF59"/>
<circle r="66" transform="matrix(-1 0 0 1 304 179)" fill="#E2F4FF"/>
<circle r="71.5" transform="matrix(-1 0 0 1 318.5 159.5)" fill="white"/>
<path d="M197 180.5C197 240.423 245.577 289 305.5 289C365.423 289 414 240.423 414 180.5C414 120.577 365.423 72 305.5 72C245.577 72 197 120.577 197 180.5ZM384.5 180.5C384.5 224.13 349.13 259.5 305.5 259.5C261.87 259.5 226.5 224.13 226.5 180.5C226.5 136.87 261.87 101.5 305.5 101.5C349.13 101.5 384.5 136.87 384.5 180.5Z" fill="#F9A824"/>
<path d="M221 179C221 224.287 257.713 261 303 261C348.287 261 385 224.287 385 179C385 133.713 348.287 97 303 97C257.713 97 221 133.713 221 179ZM368 179C368 214.899 338.899 244 303 244C267.101 244 238 214.899 238 179C238 143.101 267.101 114 303 114C338.899 114 368 143.101 368 179Z" fill="#F17F16"/>
<path d="M257.495 8.46484C239.346 13.1728 221.832 20.0541 205.332 28.9596L207.513 33.0011C223.688 24.2712 240.857 17.5255 258.648 12.9103L257.495 8.46484Z" fill="#F9A824"/>
<rect width="22" height="40" transform="matrix(-1 0 0 1 227 29)" fill="#F9A824"/>
<rect width="22" height="40" transform="matrix(-1 0 0 1 404 29)" fill="#F9A824"/>
<path d="M235 20H227C219.268 20 213 26.268 213 34V60H235V20Z" fill="#F9A824"/>
<path d="M396 33C396 26.9249 391.075 22 385 22V22C378.925 22 374 26.9249 374 33V62H396V33Z" fill="#F9A824"/>
<path d="M404.248 27.2893C389.649 20.3671 374.484 14.7079 358.92 10.3735L357.525 15.3816C372.804 19.6363 387.69 25.1917 402.021 31.9867L404.248 27.2893Z" fill="#F9A824"/>
<rect width="74" height="8" rx="4" transform="matrix(-1 0 0 1 505 277)" fill="#FDEF59"/>
</svg>
