<svg width="512" height="512" viewBox="0 0 512 512" fill="none" xmlns="http://www.w3.org/2000/svg">
<path d="M256 512C397.385 512 512 397.385 512 256C512 114.615 397.385 0 256 0C114.615 0 0 114.615 0 256C0 397.385 114.615 512 256 512Z" fill="#22BCE0"/>
<path d="M297.202 293.047L345.042 340.887C347.689 343.517 347.623 347.828 345.047 350.369C342.427 352.989 338.18 352.989 335.56 350.369L287.72 302.529L297.202 293.047Z" fill="#3E4E60"/>
<path d="M291.422 298.827L339.262 346.667C341.223 348.628 344.104 349.12 346.522 348.147C347.495 345.728 347.004 342.848 345.042 340.887L297.202 293.047L291.422 298.827Z" fill="#3F5D77"/>
<path d="M339.319 342.959C338.279 343.999 336.593 343.999 335.554 342.959L319.466 326.871C318.426 325.831 318.426 324.145 319.466 323.106C320.506 322.066 322.192 322.066 323.231 323.106L339.319 339.194C340.358 340.233 340.358 341.919 339.319 342.959Z" fill="#3F6C8E"/>
<path d="M341.289 404.054C339.408 402.173 338.38 399.463 338.789 396.588L345.113 351.784C345.284 350.591 346.301 349.699 347.511 349.705C348.721 349.699 349.738 350.591 349.909 351.785C350.378 355.151 355.614 392.146 356.233 396.588C357.428 404.997 347.063 409.93 341.289 404.054Z" fill="#B26E2B"/>
<path d="M347.986 404.065C346.095 402.187 345.058 399.469 345.469 396.581L348.714 373.563C349.061 371.091 352.64 371.091 352.987 373.563C353.788 379.276 355.442 390.927 356.237 396.587C357.152 401.11 352.633 408.066 347.986 404.065Z" fill="#C68132"/>
<path d="M351.356 399.9C346.959 395.733 348.976 387.835 354.776 386.24L356.236 396.587C356.515 398.57 356.117 400.468 355.225 402.076C353.811 401.73 352.464 401.008 351.356 399.9Z" fill="#DD8C29"/>
<path d="M377.075 442.595C377.836 441.834 377.836 440.599 377.075 439.838L369.085 431.848L366.328 434.605L374.318 442.595C375.08 443.357 376.314 443.357 377.075 442.595Z" fill="#3E4E60"/>
<path d="M372.02 447.651C372.781 446.89 372.781 445.655 372.02 444.894L364.03 436.904L361.273 439.661L369.263 447.651C370.024 448.412 371.258 448.412 372.02 447.651Z" fill="#3E4E60"/>
<path d="M369.36 434.824C368.43 435.763 365.298 438.893 364.313 439.878C362.999 441.192 360.872 441.192 359.558 439.878L357.062 437.383C350.835 430.774 360.129 421.389 366.808 427.637L369.303 430.132C370.598 431.424 370.618 433.51 369.36 434.824Z" fill="#3E4E60"/>
<path d="M359.559 425.14C358.17 426.537 355.973 428.72 354.568 430.131C353.254 431.445 351.127 431.445 349.813 430.131L347.317 427.636C341.091 421.029 350.385 411.645 357.063 417.897L359.558 420.393C360.873 421.699 360.873 423.827 359.559 425.14Z" fill="#3E4E60"/>
<path d="M349.813 415.394C348.423 416.798 346.232 418.977 344.822 420.392C343.508 421.699 341.381 421.699 340.074 420.392L337.571 417.896C331.346 411.288 340.636 401.896 347.317 408.15L349.812 410.645C351.127 411.96 351.127 414.087 349.813 415.394Z" fill="#3E4E60"/>
<path d="M367.957 436.239C366.645 437.542 364.511 437.542 363.209 436.239L360.707 433.737C358.662 431.692 358.166 428.679 359.242 426.167C361.755 425.063 364.851 425.657 366.807 427.637L369.304 430.134C370.606 431.44 370.617 433.561 369.319 434.867C369.318 434.868 367.957 436.239 367.957 436.239Z" fill="#3F5D77"/>
<path d="M359.561 425.14L358.209 426.492C356.901 427.8 354.773 427.804 353.461 426.492L350.964 423.995C348.919 421.95 348.428 418.932 349.494 416.42C352.007 415.333 355.11 415.909 357.064 417.895L359.561 420.392C360.876 421.705 360.864 423.839 359.561 425.14Z" fill="#3F5D77"/>
<path d="M348.472 416.744C347.155 418.043 345.037 418.07 343.714 416.744L341.217 414.247C339.177 412.207 338.686 409.189 339.747 406.672C342.262 405.592 345.364 406.165 347.317 408.147L349.814 410.644C351.124 411.953 351.122 414.088 349.814 415.392L348.472 416.744Z" fill="#3F5D77"/>
<path d="M350.128 414.016C348.55 415.594 345.984 415.594 344.401 414.011C342.195 411.924 343.277 407.957 346.2 407.247C347.061 407.727 349.067 409.952 349.813 410.643C350.709 411.579 351.288 413.116 350.128 414.016Z" fill="#3F6C8E"/>
<path d="M359.871 423.759C358.293 425.337 355.727 425.337 354.149 423.759C351.938 421.666 353.018 417.702 355.943 416.99C356.804 417.47 358.814 419.699 359.561 420.391C360.464 421.335 361.029 422.855 359.871 423.759Z" fill="#3F6C8E"/>
<path d="M369.613 433.501C368.035 435.079 365.474 435.084 363.891 433.501C361.685 431.414 362.767 427.447 365.69 426.737C366.551 427.217 368.557 429.442 369.303 430.133C370.203 431.075 370.771 432.598 369.613 433.501Z" fill="#3F6C8E"/>
<path d="M214.798 293.047L166.958 340.887C164.311 343.517 164.377 347.828 166.953 350.369C169.573 352.989 173.82 352.989 176.44 350.369L224.28 302.529L214.798 293.047Z" fill="#3E4E60"/>
<path d="M220.578 298.827L172.738 346.667C170.777 348.628 167.896 349.12 165.478 348.147C164.505 345.728 164.996 342.848 166.958 340.887L214.798 293.047L220.578 298.827Z" fill="#3F5D77"/>
<path d="M172.681 342.959C173.721 343.999 175.407 343.999 176.446 342.959L192.534 326.871C193.574 325.831 193.574 324.145 192.534 323.106C191.494 322.066 189.808 322.066 188.769 323.106L172.681 339.194C171.642 340.233 171.642 341.919 172.681 342.959Z" fill="#3F6C8E"/>
<path d="M170.711 404.054C172.592 402.173 173.62 399.463 173.211 396.588L166.887 351.784C166.716 350.591 165.699 349.699 164.489 349.705C163.279 349.699 162.262 350.591 162.091 351.785C161.622 355.151 156.386 392.146 155.767 396.588C154.572 404.997 164.937 409.93 170.711 404.054Z" fill="#B26E2B"/>
<path d="M164.014 404.065C165.905 402.187 166.942 399.469 166.531 396.581L163.286 373.563C162.939 371.091 159.36 371.091 159.013 373.563C158.212 379.276 156.558 390.927 155.763 396.587C154.848 401.11 159.367 408.066 164.014 404.065Z" fill="#C68132"/>
<path d="M160.644 399.9C165.041 395.733 163.024 387.835 157.224 386.24L155.764 396.587C155.485 398.57 155.883 400.468 156.775 402.076C158.189 401.73 159.536 401.008 160.644 399.9Z" fill="#DD8C29"/>
<path d="M134.925 442.595C134.164 441.834 134.164 440.599 134.925 439.838L142.915 431.848L145.672 434.605L137.682 442.595C136.92 443.357 135.686 443.357 134.925 442.595Z" fill="#3E4E60"/>
<path d="M139.98 447.651C139.219 446.89 139.219 445.655 139.98 444.894L147.97 436.904L150.727 439.661L142.737 447.651C141.976 448.412 140.742 448.412 139.98 447.651Z" fill="#3E4E60"/>
<path d="M142.64 434.824C143.57 435.763 146.702 438.893 147.687 439.878C149.001 441.192 151.128 441.192 152.442 439.878L154.938 437.383C161.165 430.774 151.871 421.389 145.192 427.637L142.697 430.132C141.402 431.424 141.382 433.51 142.64 434.824Z" fill="#3E4E60"/>
<path d="M152.441 425.14C153.83 426.537 156.027 428.72 157.432 430.131C158.746 431.445 160.873 431.445 162.187 430.131L164.683 427.636C170.909 421.029 161.615 411.645 154.937 417.897L152.442 420.393C151.127 421.699 151.127 423.827 152.441 425.14Z" fill="#3E4E60"/>
<path d="M162.187 415.394C163.577 416.798 165.768 418.977 167.178 420.392C168.492 421.699 170.619 421.699 171.926 420.392L174.429 417.896C180.654 411.288 171.364 401.896 164.683 408.15L162.188 410.645C160.873 411.96 160.873 414.087 162.187 415.394Z" fill="#3E4E60"/>
<path d="M144.043 436.239C145.356 437.542 147.489 437.542 148.791 436.239L151.293 433.737C153.338 431.692 153.834 428.679 152.758 426.167C150.246 425.063 147.149 425.657 145.193 427.637L142.696 430.134C141.394 431.44 141.383 433.561 142.681 434.867C142.682 434.868 144.043 436.239 144.043 436.239Z" fill="#3F5D77"/>
<path d="M152.439 425.14L153.791 426.492C155.099 427.8 157.227 427.804 158.539 426.492L161.036 423.995C163.081 421.95 163.572 418.932 162.506 416.42C159.993 415.333 156.89 415.909 154.936 417.895L152.439 420.392C151.124 421.705 151.136 423.839 152.439 425.14Z" fill="#3F5D77"/>
<path d="M163.528 416.744C164.845 418.043 166.963 418.07 168.286 416.744L170.783 414.247C172.823 412.207 173.314 409.189 172.253 406.672C169.738 405.592 166.636 406.165 164.683 408.147L162.186 410.644C160.876 411.953 160.878 414.088 162.186 415.392C162.186 415.393 163.528 416.744 163.528 416.744Z" fill="#3F5D77"/>
<path d="M161.872 414.016C163.45 415.594 166.016 415.594 167.599 414.011C169.805 411.924 168.723 407.957 165.8 407.247C164.939 407.727 162.933 409.952 162.187 410.643C161.291 411.579 160.712 413.116 161.872 414.016Z" fill="#3F6C8E"/>
<path d="M152.129 423.759C153.707 425.337 156.273 425.337 157.851 423.759C160.062 421.666 158.982 417.702 156.057 416.99C155.196 417.47 153.186 419.699 152.439 420.391C151.536 421.335 150.971 422.855 152.129 423.759Z" fill="#3F6C8E"/>
<path d="M142.387 433.501C143.965 435.079 146.526 435.084 148.109 433.501C150.315 431.414 149.233 427.447 146.31 426.737C145.449 427.217 143.443 429.442 142.697 430.133C141.797 431.075 141.229 432.598 142.387 433.501Z" fill="#3F6C8E"/>
<path d="M284.366 200.501H329.747C333.478 200.489 336.48 203.584 336.455 207.202C336.455 210.907 333.452 213.91 329.747 213.91H284.366V200.501Z" fill="#3E4E60"/>
<path d="M284.366 208.676H329.747C332.521 208.676 334.905 206.987 335.927 204.589C334.905 202.191 332.521 200.502 329.747 200.502H284.366V208.676Z" fill="#3F5D77"/>
<path d="M327.165 206.014C327.165 207.484 325.973 208.677 324.502 208.677H301.75C300.28 208.677 299.087 207.485 299.087 206.014C299.087 204.544 300.279 203.351 301.75 203.351H324.502C325.973 203.351 327.165 204.543 327.165 206.014Z" fill="#3F6C8E"/>
<path d="M371.199 162.471C368.539 162.471 365.895 163.66 364.152 165.983L336.943 202.136C336.22 203.1 336.308 204.45 337.168 205.302C338.02 206.162 339.37 206.25 340.334 205.527C343.046 203.479 372.908 181.022 376.487 178.318C383.278 173.216 379.437 162.4 371.199 162.471Z" fill="#B26E2B"/>
<path d="M375.943 167.2C373.278 167.191 370.623 168.38 368.871 170.712L354.889 189.283C353.386 191.276 355.917 193.807 357.911 192.304C362.517 188.831 371.926 181.762 376.489 178.322C380.334 175.771 382.058 167.657 375.943 167.2Z" fill="#C68132"/>
<path d="M375.38 172.527C369.324 172.365 365.166 179.375 368.14 184.605L376.489 178.321C378.088 177.116 379.149 175.492 379.655 173.725C378.41 172.969 376.947 172.527 375.38 172.527Z" fill="#DD8C29"/>
<path d="M430.09 158.028C430.09 156.951 429.217 156.078 428.14 156.078H416.841V159.977H428.14C429.217 159.977 430.09 159.104 430.09 158.028Z" fill="#3E4E60"/>
<path d="M430.09 165.178C430.09 164.101 429.217 163.228 428.14 163.228H416.841V167.127H428.14C429.217 167.127 430.09 166.254 430.09 165.178Z" fill="#3E4E60"/>
<path d="M419.139 157.988C419.146 159.309 419.144 163.738 419.144 165.13C419.144 166.988 417.64 168.492 415.782 168.492H412.253C403.163 168.189 403.101 155.046 412.253 154.709H415.782C417.61 154.709 419.1 156.169 419.139 157.988Z" fill="#3E4E60"/>
<path d="M405.361 158.071C405.366 160.041 405.357 163.138 405.361 165.129C405.361 166.987 403.857 168.491 401.999 168.491H398.47C389.383 168.189 389.32 155.047 398.475 154.713H402.004C403.857 154.709 405.361 156.213 405.361 158.071Z" fill="#3E4E60"/>
<path d="M391.578 158.071C391.588 160.046 391.579 163.137 391.583 165.134C391.578 166.987 390.074 168.491 388.226 168.491L384.692 168.496C375.618 168.225 375.545 155.015 384.692 154.713H388.221C390.079 154.714 391.583 156.218 391.578 158.071Z" fill="#3E4E60"/>
<path d="M419.147 159.981C419.14 161.83 417.632 163.339 415.789 163.339H412.251C409.359 163.339 406.877 161.559 405.863 159.022C406.859 156.464 409.468 154.695 412.251 154.712H415.782C417.606 154.717 419.095 156.167 419.14 157.986V158.048L419.147 159.981Z" fill="#3F5D77"/>
<path d="M405.363 158.069V159.981C405.363 161.83 403.862 163.339 402.005 163.339H398.474C395.582 163.339 393.1 161.552 392.079 159.022C393.087 156.476 395.689 154.689 398.474 154.712H402.005C403.863 154.711 405.364 156.229 405.363 158.069Z" fill="#3F5D77"/>
<path d="M391.585 159.974C391.573 161.824 390.094 163.341 388.22 163.339H384.689C381.804 163.339 379.322 161.552 378.294 159.022C379.309 156.479 381.907 154.691 384.689 154.712H388.22C390.072 154.711 391.58 156.222 391.578 158.07L391.585 159.974Z" fill="#3F5D77"/>
<path d="M390.827 156.874C390.827 159.105 389.013 160.92 386.774 160.92C383.738 161.004 381.698 157.434 383.264 154.865C384.212 154.596 387.204 154.75 388.22 154.712C389.514 154.74 391.011 155.417 390.827 156.874Z" fill="#3F6C8E"/>
<path d="M404.605 156.874C404.605 159.105 402.791 160.92 400.559 160.92C397.516 161.004 395.476 157.437 397.042 154.865C397.99 154.596 400.987 154.75 402.005 154.712C403.311 154.741 404.785 155.416 404.605 156.874Z" fill="#3F6C8E"/>
<path d="M418.383 156.874C418.383 159.105 416.576 160.92 414.337 160.92C411.301 161.004 409.261 157.434 410.826 154.865C411.774 154.596 414.766 154.75 415.782 154.712C417.084 154.741 418.563 155.416 418.383 156.874Z" fill="#3F6C8E"/>
<path d="M227.634 200.501H182.253C178.522 200.489 175.52 203.584 175.545 207.202C175.545 210.907 178.548 213.91 182.253 213.91H227.634V200.501Z" fill="#3E4E60"/>
<path d="M227.634 208.676H182.253C179.479 208.676 177.095 206.987 176.073 204.589C177.095 202.191 179.479 200.502 182.253 200.502H227.634V208.676Z" fill="#3F5D77"/>
<path d="M184.835 206.014C184.835 207.484 186.027 208.677 187.498 208.677H210.25C211.72 208.677 212.913 207.485 212.913 206.014C212.913 204.544 211.721 203.351 210.25 203.351H187.498C186.027 203.351 184.835 204.543 184.835 206.014Z" fill="#3F6C8E"/>
<path d="M140.801 162.471C143.461 162.471 146.105 163.66 147.848 165.983L175.057 202.136C175.78 203.1 175.692 204.45 174.832 205.302C173.98 206.162 172.63 206.25 171.666 205.527C168.954 203.479 139.092 181.022 135.513 178.318C128.722 173.216 132.563 162.4 140.801 162.471Z" fill="#B26E2B"/>
<path d="M136.057 167.2C138.722 167.191 141.377 168.38 143.129 170.712L157.111 189.283C158.614 191.276 156.083 193.807 154.089 192.304C149.483 188.831 140.074 181.762 135.511 178.322C131.666 175.771 129.942 167.657 136.057 167.2Z" fill="#C68132"/>
<path d="M136.62 172.527C142.676 172.365 146.834 179.375 143.86 184.605L135.511 178.321C133.912 177.116 132.851 175.492 132.345 173.725C133.59 172.969 135.053 172.527 136.62 172.527Z" fill="#DD8C29"/>
<path d="M81.91 158.028C81.91 156.951 82.783 156.078 83.86 156.078H95.159V159.977H83.86C82.783 159.977 81.91 159.104 81.91 158.028Z" fill="#3E4E60"/>
<path d="M81.91 165.178C81.91 164.101 82.783 163.228 83.86 163.228H95.159V167.127H83.86C82.783 167.127 81.91 166.254 81.91 165.178Z" fill="#3E4E60"/>
<path d="M92.861 157.988C92.854 159.309 92.856 163.738 92.856 165.13C92.856 166.988 94.36 168.492 96.218 168.492H99.747C108.837 168.189 108.899 155.046 99.747 154.709H96.218C94.39 154.709 92.9 156.169 92.861 157.988Z" fill="#3E4E60"/>
<path d="M106.639 158.071C106.634 160.041 106.643 163.138 106.639 165.129C106.639 166.987 108.143 168.491 110.001 168.491H113.53C122.617 168.189 122.68 155.047 113.525 154.713H109.996C108.143 154.709 106.639 156.213 106.639 158.071Z" fill="#3E4E60"/>
<path d="M120.422 158.071C120.412 160.046 120.421 163.137 120.417 165.134C120.422 166.987 121.926 168.491 123.774 168.491L127.308 168.496C136.382 168.225 136.455 155.015 127.308 154.713H123.779C121.921 154.714 120.417 156.218 120.422 158.071Z" fill="#3E4E60"/>
<path d="M92.853 159.981C92.86 161.83 94.368 163.339 96.211 163.339H99.749C102.641 163.339 105.123 161.559 106.137 159.022C105.141 156.464 102.532 154.695 99.749 154.712H96.218C94.394 154.717 92.905 156.167 92.86 157.986V158.048L92.853 159.981Z" fill="#3F5D77"/>
<path d="M106.637 158.069V159.981C106.637 161.83 108.139 163.339 109.995 163.339H113.526C116.418 163.339 118.9 161.552 119.921 159.022C118.913 156.476 116.311 154.689 113.526 154.712H109.995C108.137 154.711 106.636 156.229 106.637 158.069Z" fill="#3F5D77"/>
<path d="M120.415 159.974C120.427 161.824 121.906 163.341 123.78 163.339H127.311C130.196 163.339 132.678 161.552 133.706 159.022C132.691 156.479 130.093 154.691 127.311 154.712H123.78C121.928 154.711 120.42 156.222 120.422 158.07L120.415 159.974Z" fill="#3F5D77"/>
<path d="M121.173 156.874C121.173 159.105 122.987 160.92 125.226 160.92C128.262 161.004 130.302 157.434 128.736 154.865C127.788 154.596 124.796 154.75 123.78 154.712C122.486 154.74 120.989 155.417 121.173 156.874Z" fill="#3F6C8E"/>
<path d="M107.395 156.874C107.395 159.105 109.209 160.92 111.441 160.92C114.484 161.004 116.524 157.437 114.958 154.865C114.01 154.596 111.013 154.75 109.995 154.712C108.689 154.741 107.215 155.416 107.395 156.874Z" fill="#3F6C8E"/>
<path d="M93.617 156.874C93.617 159.105 95.424 160.92 97.663 160.92C100.699 161.004 102.739 157.434 101.174 154.865C100.226 154.596 97.234 154.75 96.218 154.712C94.916 154.741 93.437 155.416 93.617 156.874Z" fill="#3F6C8E"/>
<path d="M286.95 177.057H329.747C333.478 177.045 336.48 180.14 336.455 183.758C336.455 187.463 333.452 190.466 329.747 190.466H286.95V177.057Z" fill="#3E4E60"/>
<path d="M286.95 185.232H329.747C332.521 185.232 334.905 183.543 335.927 181.145C334.905 178.747 332.521 177.058 329.747 177.058H286.95V185.232Z" fill="#3F5D77"/>
<path d="M327.165 182.57C327.165 184.04 325.973 185.233 324.502 185.233H301.75C300.28 185.233 299.087 184.041 299.087 182.57C299.087 181.1 300.279 179.907 301.75 179.907H324.502C325.973 179.907 327.165 181.099 327.165 182.57Z" fill="#3F6C8E"/>
<path d="M331.858 126.795C329.977 128.676 328.949 131.386 329.358 134.261L335.682 179.065C335.853 180.258 336.87 181.15 338.08 181.144C339.29 181.15 340.307 180.258 340.478 179.064C340.947 175.698 346.183 138.703 346.802 134.261C347.997 125.852 337.633 120.919 331.858 126.795Z" fill="#B26E2B"/>
<path d="M338.556 126.784C336.665 128.662 335.628 131.38 336.039 134.268L339.284 157.286C339.631 159.758 343.21 159.758 343.557 157.286C344.358 151.573 346.012 139.922 346.807 134.262C347.722 129.739 343.203 122.783 338.556 126.784Z" fill="#C68132"/>
<path d="M341.925 130.949C337.528 135.116 339.545 143.014 345.345 144.609L346.805 134.262C347.084 132.279 346.686 130.381 345.794 128.773C344.38 129.12 343.034 129.841 341.925 130.949Z" fill="#DD8C29"/>
<path d="M374.743 83.545C373.982 82.784 372.747 82.784 371.986 83.545L363.996 91.535L366.753 94.292L374.743 86.302C375.505 85.54 375.505 84.306 374.743 83.545Z" fill="#3E4E60"/>
<path d="M379.799 88.6C379.038 87.839 377.803 87.839 377.042 88.6L369.052 96.59L371.809 99.347L379.799 91.357C380.561 90.596 380.561 89.362 379.799 88.6Z" fill="#3E4E60"/>
<path d="M366.972 91.26C367.911 92.19 371.041 95.322 372.026 96.307C373.34 97.621 373.34 99.748 372.026 101.062L369.531 103.558C362.922 109.785 353.537 100.491 359.785 93.812L362.28 91.317C363.572 90.022 365.658 90.001 366.972 91.26Z" fill="#3E4E60"/>
<path d="M357.289 101.061C358.686 102.45 360.869 104.647 362.28 106.052C363.594 107.366 363.594 109.493 362.28 110.807L359.785 113.303C353.178 119.529 343.794 110.235 350.046 103.557L352.542 101.062C353.847 99.747 355.975 99.747 357.289 101.061Z" fill="#3E4E60"/>
<path d="M347.543 110.807C348.947 112.197 351.126 114.388 352.541 115.798C353.848 117.112 353.848 119.239 352.541 120.546L350.045 123.049C343.437 129.274 334.045 119.984 340.299 113.303L342.794 110.808C344.108 109.493 346.235 109.493 347.543 110.807Z" fill="#3E4E60"/>
<path d="M368.387 92.663C369.69 93.976 369.69 96.109 368.387 97.411L365.885 99.913C363.84 101.958 360.827 102.454 358.315 101.378C357.211 98.865 357.805 95.769 359.785 93.813L362.282 91.316C363.588 90.014 365.709 90.003 367.015 91.301C367.016 91.302 368.387 92.663 368.387 92.663Z" fill="#3F5D77"/>
<path d="M357.288 101.059L358.64 102.411C359.948 103.719 359.952 105.847 358.64 107.159L356.143 109.656C354.098 111.701 351.08 112.192 348.568 111.126C347.481 108.613 348.057 105.51 350.043 103.556L352.54 101.059C353.853 99.744 355.988 99.756 357.288 101.059Z" fill="#3F5D77"/>
<path d="M348.892 112.148C350.191 113.465 350.218 115.583 348.892 116.906L346.395 119.403C344.355 121.443 341.337 121.934 338.82 120.873C337.74 118.358 338.313 115.256 340.295 113.303L342.792 110.806C344.101 109.496 346.236 109.498 347.54 110.806L348.892 112.148Z" fill="#3F5D77"/>
<path d="M346.164 110.491C347.742 112.069 347.742 114.635 346.159 116.218C344.072 118.424 340.105 117.342 339.395 114.419C339.875 113.558 342.1 111.552 342.791 110.806C343.727 109.911 345.264 109.332 346.164 110.491Z" fill="#3F6C8E"/>
<path d="M355.907 100.749C357.485 102.327 357.485 104.893 355.907 106.471C353.814 108.682 349.85 107.602 349.138 104.677C349.618 103.816 351.847 101.806 352.539 101.059C353.484 100.156 355.003 99.591 355.907 100.749Z" fill="#3F6C8E"/>
<path d="M365.649 91.007C367.227 92.585 367.232 95.146 365.649 96.729C363.562 98.935 359.595 97.853 358.885 94.93C359.365 94.069 361.59 92.063 362.281 91.317C363.223 90.417 364.746 89.849 365.649 91.007Z" fill="#3F6C8E"/>
<path d="M225.05 177.057H182.253C178.522 177.045 175.52 180.14 175.545 183.758C175.545 187.463 178.548 190.466 182.253 190.466H225.05V177.057Z" fill="#3E4E60"/>
<path d="M225.05 185.232H182.253C179.479 185.232 177.095 183.543 176.073 181.145C177.095 178.747 179.479 177.058 182.253 177.058H225.05V185.232Z" fill="#3F5D77"/>
<path d="M184.835 182.57C184.835 184.04 186.027 185.233 187.498 185.233H210.25C211.72 185.233 212.913 184.041 212.913 182.57C212.913 181.1 211.721 179.907 210.25 179.907H187.498C186.027 179.907 184.835 181.099 184.835 182.57Z" fill="#3F6C8E"/>
<path d="M180.142 126.795C182.023 128.676 183.051 131.386 182.642 134.261L176.318 179.065C176.147 180.258 175.13 181.15 173.92 181.144C172.71 181.15 171.693 180.258 171.522 179.064C171.053 175.698 165.817 138.703 165.198 134.261C164.003 125.852 174.367 120.919 180.142 126.795Z" fill="#B26E2B"/>
<path d="M173.444 126.784C175.335 128.662 176.372 131.38 175.961 134.268L172.716 157.286C172.369 159.758 168.79 159.758 168.443 157.286C167.642 151.573 165.988 139.922 165.193 134.262C164.278 129.739 168.797 122.783 173.444 126.784Z" fill="#C68132"/>
<path d="M170.075 130.949C174.472 135.116 172.455 143.014 166.655 144.609L165.195 134.262C164.916 132.279 165.314 130.381 166.206 128.773C167.62 129.12 168.966 129.841 170.075 130.949Z" fill="#DD8C29"/>
<path d="M137.257 83.545C138.018 82.784 139.253 82.784 140.014 83.545L148.004 91.535L145.247 94.292L137.257 86.302C136.495 85.54 136.495 84.306 137.257 83.545Z" fill="#3E4E60"/>
<path d="M132.201 88.6C132.962 87.839 134.197 87.839 134.958 88.6L142.948 96.59L140.191 99.347L132.201 91.357C131.439 90.596 131.439 89.362 132.201 88.6Z" fill="#3E4E60"/>
<path d="M145.028 91.26C144.089 92.19 140.959 95.322 139.974 96.307C138.66 97.621 138.66 99.748 139.974 101.062L142.469 103.558C149.078 109.785 158.463 100.491 152.215 93.812L149.72 91.317C148.428 90.022 146.342 90.001 145.028 91.26Z" fill="#3E4E60"/>
<path d="M154.711 101.061C153.314 102.45 151.131 104.647 149.72 106.052C148.406 107.366 148.406 109.493 149.72 110.807L152.215 113.303C158.822 119.529 168.206 110.235 161.954 103.557L159.458 101.062C158.153 99.747 156.025 99.747 154.711 101.061Z" fill="#3E4E60"/>
<path d="M164.457 110.807C163.053 112.197 160.874 114.388 159.459 115.798C158.152 117.112 158.152 119.239 159.459 120.546L161.955 123.049C168.563 129.274 177.955 119.984 171.701 113.303L169.206 110.808C167.892 109.493 165.765 109.493 164.457 110.807Z" fill="#3E4E60"/>
<path d="M143.613 92.663C142.31 93.976 142.31 96.109 143.613 97.411L146.115 99.913C148.16 101.958 151.173 102.454 153.685 101.378C154.789 98.865 154.195 95.769 152.215 93.813L149.718 91.316C148.412 90.014 146.291 90.003 144.984 91.301C144.984 91.302 143.613 92.663 143.613 92.663Z" fill="#3F5D77"/>
<path d="M154.712 101.059L153.36 102.411C152.052 103.719 152.048 105.847 153.36 107.159L155.857 109.656C157.902 111.701 160.92 112.192 163.432 111.126C164.519 108.613 163.943 105.51 161.957 103.556L159.46 101.059C158.147 99.744 156.012 99.756 154.712 101.059Z" fill="#3F5D77"/>
<path d="M163.108 112.148C161.809 113.465 161.782 115.583 163.108 116.906L165.605 119.403C167.645 121.443 170.663 121.934 173.18 120.873C174.26 118.358 173.687 115.256 171.705 113.303L169.208 110.806C167.899 109.496 165.764 109.498 164.46 110.806L163.108 112.148Z" fill="#3F5D77"/>
<path d="M165.836 110.491C164.258 112.069 164.258 114.635 165.841 116.218C167.928 118.424 171.895 117.342 172.605 114.419C172.125 113.558 169.9 111.552 169.209 110.806C168.273 109.911 166.736 109.332 165.836 110.491Z" fill="#3F6C8E"/>
<path d="M156.093 100.749C154.515 102.327 154.515 104.893 156.093 106.471C158.186 108.682 162.15 107.602 162.862 104.677C162.382 103.816 160.153 101.806 159.461 101.059C158.516 100.156 156.997 99.591 156.093 100.749Z" fill="#3F6C8E"/>
<path d="M146.351 91.007C144.773 92.585 144.768 95.146 146.351 96.729C148.438 98.935 152.405 97.853 153.115 94.93C152.635 94.069 150.41 92.063 149.719 91.317C148.777 90.417 147.254 89.849 146.351 91.007Z" fill="#3F6C8E"/>
<path d="M301.892 284.448V368.767C301.774 382.733 296.231 398.16 288.448 410.256C261.054 452.861 225.321 428.544 212.92 386.863C211.104 380.555 210.108 374.344 210.108 368.767V284.448C210.108 267.653 223.721 254.04 240.515 254.04H271.485C288.28 254.041 301.892 267.653 301.892 284.448Z" fill="#F39E22"/>
<path d="M301.892 284.448V368.767C301.977 392.185 282.959 432.173 256 432.739V254.041H271.485C288.28 254.041 301.892 267.653 301.892 284.448Z" fill="#F9C744"/>
<path d="M265.385 413.752C260.199 413.752 255.996 409.548 255.996 404.363V293.02C255.996 287.834 260.2 283.631 265.385 283.631C270.571 283.631 274.774 287.835 274.774 293.02V404.363C274.775 409.549 270.571 413.752 265.385 413.752Z" fill="#FAD98F"/>
<path d="M299.072 386.864C293.606 406.522 277.027 432.731 256 432.74C236.232 432.74 219.381 409.235 212.92 386.864H299.072Z" fill="#3E4E60"/>
<path d="M301.892 348.076H210.108V368.767H301.892V348.076Z" fill="#3E4E60"/>
<path d="M301.892 321.488H210.108V335.076H301.892V321.488Z" fill="#3E4E60"/>
<path d="M301.892 302.235H210.108V312.409H301.892V302.235Z" fill="#3E4E60"/>
<path d="M256 386.86V432.74C277.036 432.723 293.605 406.528 299.07 386.86H256ZM256 348.08V368.77H301.89V348.08H256ZM256 321.49V335.08H301.89V321.49H256ZM256 302.23V312.41H301.89V302.23H256Z" fill="#3F5D77"/>
<path d="M274.77 302.23H256V312.41H274.77V302.23Z" fill="#3F6C8E"/>
<path d="M274.77 321.49H256V335.08H274.77V321.49Z" fill="#3F6C8E"/>
<path d="M274.77 348.08H256V368.77H274.77V348.08Z" fill="#3F6C8E"/>
<path d="M256 386.86H274.77V404.36C274.77 409.55 270.57 413.75 265.39 413.75C260.2 413.75 256 409.55 256 404.36V386.86Z" fill="#3F6C8E"/>
<path d="M296.95 196.221V222.904C296.95 240.099 283.008 254.041 265.806 254.041H246.195C228.993 254.041 215.051 240.099 215.051 222.904V196.221C215.051 179.019 228.993 165.077 246.195 165.077H265.806C283.007 165.077 296.95 179.02 296.95 196.221Z" fill="#B26E2B"/>
<path d="M296.95 196.221V222.904C296.95 240.099 283.008 254.041 265.806 254.041H256V165.076H265.806C283.007 165.077 296.95 179.02 296.95 196.221Z" fill="#C68132"/>
<path d="M279.187 199.635V219.49C279.187 232.285 271.292 242.659 261.552 242.659H250.448C240.708 242.659 232.813 232.285 232.813 219.49V199.635C232.813 186.835 240.708 176.461 250.448 176.461H261.552C271.292 176.461 279.187 186.835 279.187 199.635Z" fill="#3E4E60"/>
<path d="M279.187 199.635V219.49C279.187 232.285 271.292 242.659 261.552 242.659H256V176.461H261.552C271.292 176.461 279.187 186.835 279.187 199.635Z" fill="#3F5D77"/>
<path d="M296.95 134.646V141.935C296.95 154.712 286.584 165.078 273.807 165.078H238.193C225.416 165.078 215.05 154.712 215.05 141.935V134.646C215.05 121.869 225.416 111.503 238.193 111.503H273.807C286.584 111.503 296.95 121.869 296.95 134.646Z" fill="#334353"/>
<path d="M296.95 134.646V141.935C296.95 154.712 286.584 165.078 273.807 165.078H256V111.504H273.807C286.584 111.503 296.95 121.869 296.95 134.646Z" fill="#3E4E60"/>
<path d="M296.95 95.367C296.95 96.926 296.355 98.493 295.158 99.682L271.854 122.994C266.8 127.943 258.825 121.812 262.211 115.69C262.476 115.216 262.814 114.766 263.215 114.356L286.519 91.044C290.221 87.199 297.065 90.048 296.95 95.367Z" fill="#3F5D77"/>
<path d="M296.163 92.378C295.898 92.852 295.56 93.302 295.159 93.704L271.855 117.016C269.081 119.878 264.104 119.176 262.212 115.69C262.477 115.216 262.815 114.766 263.216 114.356L286.52 91.044C289.284 88.195 294.289 88.883 296.163 92.378Z" fill="#3F6C8E"/>
<path d="M248.784 122.994C246.405 125.381 242.532 125.381 240.146 122.994L216.842 99.682C214.431 97.3 214.503 93.352 216.842 91.044C219.233 88.664 223.098 88.666 225.48 91.044L248.784 114.356C251.116 116.673 251.201 120.602 248.784 122.994Z" fill="#3E4E60"/>
<path d="M249.788 115.689C247.893 119.174 242.921 119.878 240.145 117.015L216.841 93.704C216.439 93.302 216.102 92.852 215.837 92.378C217.714 88.883 222.719 88.196 225.48 91.044L248.784 114.355C249.186 114.765 249.523 115.215 249.788 115.689Z" fill="#3F5D77"/>
<path d="M302.696 141.685C302.753 144.704 302.768 148.294 301.386 150.966C299.08 156.061 293.953 159.604 287.999 159.604H284.777C276.661 159.604 270.08 153.023 270.08 144.907V141.685C270.047 133.5 276.849 126.941 284.777 126.996H287.999C296.114 126.996 302.696 133.569 302.696 141.685Z" fill="#3F5D77"/>
<path d="M302.696 141.685C302.766 144.706 302.759 148.292 301.386 150.966C298.912 152.089 295.544 152.014 292.812 151.979C284.696 151.979 278.115 145.398 278.115 137.282C278.052 134.269 278.047 130.669 279.425 128.001C281.902 126.894 285.266 126.958 287.999 126.997C296.114 126.996 302.696 133.569 302.696 141.685Z" fill="#3F6C8E"/>
<path d="M298.342 143.384C296.587 145.139 293.742 145.139 291.987 143.384L286.57 137.967C282.486 133.672 288.628 127.526 292.926 131.612L298.343 137.029C300.097 138.784 300.097 141.629 298.342 143.384Z" fill="#CDE6F6"/>
<path d="M241.921 141.685V144.907C241.921 153.023 235.34 159.604 227.224 159.604H224.002C215.817 159.63 209.264 152.849 209.305 144.907V141.685C209.305 133.569 215.886 126.996 224.002 126.996H227.224C235.152 126.942 241.954 133.5 241.921 141.685Z" fill="#3E4E60"/>
<path d="M233.886 134.059V137.282C233.886 145.398 227.305 151.979 219.189 151.979C216.455 152.012 213.094 152.089 210.615 150.966C209.239 148.301 209.238 144.698 209.305 141.685C209.305 133.569 215.886 126.996 224.002 126.996C226.733 126.965 230.098 126.888 232.576 128C233.42 129.849 233.886 131.897 233.886 134.059Z" fill="#3F5D77"/>
<path d="M213.658 143.384C211.903 141.629 211.903 138.784 213.658 137.029L219.075 131.612C223.37 127.528 229.516 133.67 225.43 137.968L220.013 143.385C218.258 145.139 215.413 145.139 213.658 143.384Z" fill="#83D5EF"/>
<path d="M472.07 229.51C472.07 239.21 466.13 248.37 456.23 252.97L435.85 262.43C410.11 274.38 380.24 276.28 353.08 267.94C351.143 267.704 288.921 243.403 284.97 241.92C274.816 237.845 277.675 224.498 288.32 223.8C295.196 223.354 362.723 218.956 367.26 218.67C383.007 218.244 419.651 207.51 435.35 204.05C453.278 199.546 472.017 211.726 472.07 229.51Z" fill="#CDE6F6"/>
<path d="M398.46 320.12C369.985 336.852 335.641 330.963 309.68 312.96C300.34 306.46 292.61 298.46 287 289.34L266.79 256.5C265.16 253.86 265.74 250.63 268.24 248.37C270.936 245.922 275.271 245.196 278.74 246.5L353.67 274.22L395.59 289.73C410.6 295.28 412.18 312.05 398.46 320.12Z" fill="#CDE6F6"/>
<path d="M398.46 320.12C390.04 325.07 380.45 328.23 370.56 329.47C361.77 312.6 355.92 293.95 353.67 274.22L395.59 289.73C410.6 295.28 412.18 312.05 398.46 320.12Z" fill="white"/>
<path d="M472.07 229.51C472.07 239.21 466.13 248.37 456.23 252.97L435.85 262.43C410.11 274.38 380.24 276.28 353.08 267.94C351.85 251.736 353.208 234.78 356.88 219.34C367.766 218.754 379.519 217.907 390.02 215.17L435.35 204.05C453.278 199.545 472.017 211.726 472.07 229.51Z" fill="white"/>
<path d="M227.03 241.92C222.803 243.435 161.063 267.72 158.92 267.94C131.76 276.28 101.89 274.38 76.15 262.43L55.77 252.97C43.558 247.278 37.344 234.709 40.95 222.6C45.15 208.55 61.14 200.24 76.65 204.05L121.98 215.17C132.449 217.897 144.276 218.762 155.12 219.34L223.68 223.8C234.249 224.476 237.246 237.816 227.03 241.92Z" fill="#83D5EF"/>
<path d="M245.21 256.5L225 289.34C219.39 298.46 211.66 306.46 202.32 312.96C188.113 322.76 169.177 330.144 151.07 330.08C138.003 330.088 124.68 326.686 113.54 320.12C99.82 312.05 101.4 295.28 116.41 289.73C142.277 280.157 206.678 256.334 233.26 246.5C239.491 243.856 249.198 249.445 245.21 256.5Z" fill="#83D5EF"/>
<path d="M116.41 289.73L158.33 274.22C156.08 293.95 150.23 312.6 141.44 329.47C131.55 328.23 121.96 325.07 113.54 320.12C99.82 312.05 101.4 295.28 116.41 289.73Z" fill="#CDE6F6"/>
<path d="M159.36 256C159.36 260.02 159.21 264 158.92 267.94C131.76 276.28 101.89 274.38 76.15 262.43L55.77 252.97C45.87 248.37 39.93 239.21 39.93 229.51C39.987 211.727 58.719 199.546 76.65 204.05L121.98 215.17C132.468 217.899 144.262 218.761 155.12 219.34C157.89 231.11 159.36 243.39 159.36 256Z" fill="#CDE6F6"/>
<path d="M207.221 115.504H224.151C225.93 115.504 227.372 116.958 227.372 118.752C227.372 120.546 225.93 122 224.151 122H207.221C205.442 122 204 120.546 204 118.752C204 116.958 205.442 115.504 207.221 115.504Z" fill="#F9A824"/>
<path d="M205.469 116.305L211.072 112.085L212.504 114.018L206.901 118.238L205.469 116.305Z" fill="#F9A824"/>
<path d="M224.519 117.174H236.665C237.529 117.174 238.229 117.881 238.229 118.752C238.229 119.623 237.529 120.33 236.665 120.33H224.519C223.655 120.33 222.955 119.623 222.955 118.752C222.955 117.881 223.655 117.174 224.519 117.174Z" fill="#FDD835"/>
<path d="M270.986 114.205H225.899C225.391 114.205 224.979 114.621 224.979 115.133V122H270.986V114.205Z" fill="#FDD835"/>
<path d="M284.788 112.72H303.927V122H284.788V112.72Z" fill="#FDEF59"/>
<path d="M223.783 120.33H244.762C245.22 120.33 245.59 120.704 245.59 121.165C245.59 121.626 245.22 122 244.762 122H223.783C223.326 122 222.955 121.626 222.955 121.165C222.955 120.704 223.326 120.33 223.783 120.33Z" fill="#F9A824"/>
<path d="M209.705 114.205H225.715V116.247H209.705V114.205Z" fill="#F9A824"/>
<path d="M223.401 117.428L225.07 114.683C225.299 114.306 225.788 114.188 226.161 114.419C226.535 114.65 226.652 115.143 226.423 115.519L224.753 118.264C224.524 118.641 224.035 118.759 223.662 118.528C223.289 118.297 223.172 117.805 223.401 117.428Z" fill="#FDD835"/>
<path d="M269.238 114.205H303.099C303.556 114.205 303.927 114.579 303.927 115.04C303.927 115.501 303.556 115.875 303.099 115.875H269.238C268.781 115.875 268.41 115.501 268.41 115.04C268.41 114.579 268.781 114.205 269.238 114.205Z" fill="#FDEF59"/>
<path d="M291.597 118.659C291.597 117.122 290.361 115.875 288.837 115.875H263.257V122H291.597V118.659Z" fill="#FDD835"/>
<path d="M298.903 106.134C299.033 104.544 300.416 103.361 301.992 103.492C303.569 103.622 304.742 105.017 304.613 106.607L303.904 115.3C303.774 116.89 302.391 118.073 300.814 117.943C299.238 117.812 298.065 116.417 298.194 114.827L298.903 106.134Z" fill="#FDEF59"/>
<path d="M298.866 115.875H306.964C308.641 115.875 310 117.246 310 118.938C310 120.629 308.641 122 306.964 122H298.866C297.189 122 295.83 120.629 295.83 118.938C295.83 117.246 297.189 115.875 298.866 115.875Z" fill="#FDEF59"/>
<path d="M301.354 115.804L303.909 112.637L308.825 116.671L306.269 119.838L301.354 115.804Z" fill="#FDEF59"/>
<path d="M217.986 112.72H303.191C303.598 112.72 303.927 113.053 303.927 113.463C303.927 113.873 303.598 114.205 303.191 114.205H217.986C217.58 114.205 217.25 113.873 217.25 113.463C217.25 113.053 217.58 112.72 217.986 112.72Z" fill="#F9A824"/>
<path d="M209.682 106.716C209.552 105.126 210.725 103.731 212.302 103.6C213.879 103.47 215.262 104.653 215.392 106.243L216.1 114.936C216.229 116.526 215.056 117.921 213.48 118.051C211.903 118.182 210.52 116.999 210.39 115.409L209.682 106.716Z" fill="#F9A824"/>
<path d="M213.201 103.719C213.201 97.9303 214.334 92.1985 216.535 86.8506C218.736 81.5027 221.963 76.6434 226.03 72.5503L257 103.719H213.201Z" fill="#F9A824"/>
<path d="M226.03 72.5503C229.731 68.8257 234.065 65.7989 238.827 63.6134L257 103.719L226.03 72.5503Z" fill="#FDD835"/>
<path d="M238.781 66.5069C229.431 66.5069 221.851 74.1516 221.851 83.5817V103.44H238.781V66.5069Z" fill="#FDD835"/>
<path d="M213.201 103.44H241.174V114.205H213.201V103.44Z" fill="#F9A824"/>
<path d="M238.781 105.111H221.851V108.08C221.851 110.643 223.911 112.72 226.451 112.72H238.781V105.111Z" fill="#FDD835"/>
<path d="M287.97 72.5502C292.037 76.6434 295.264 81.5026 297.465 86.8506C299.666 92.1985 300.799 97.9302 300.799 103.719H257L287.97 72.5502Z" fill="#FDEF59"/>
<path d="M274.912 63.4945C279.485 65.5569 283.672 68.3935 287.291 71.8811L257 103.719L274.912 63.4945Z" fill="#FDD835"/>
<path d="M250.927 55C244.219 55 238.781 60.4842 238.781 67.2493V112.72H250.927V55Z" fill="#F9A824"/>
<path d="M275.403 67.2493C275.403 60.4842 269.965 55 263.257 55V112.72H275.403V67.2493Z" fill="#F9A824"/>
<path d="M250.927 59.6399H263.257V112.72H250.927V59.6399Z" fill="#FDD835"/>
<path d="M291.597 80.4266C291.597 74.4814 286.819 69.662 280.924 69.662H275.403V103.44H291.597V80.4266Z" fill="#FDD835"/>
<path d="M280.924 103.812H301.351V112.72H280.924V103.812Z" fill="#FDEF59"/>
<path d="M291.597 108.266C291.597 107.343 290.856 106.596 289.941 106.596H275.403V112.72H291.597V108.266Z" fill="#FDD835"/>
<path d="M275.403 103.812H280.924V112.163H275.403V103.812Z" fill="#FDD835"/>
<path d="M301.351 103.989C301.351 103.584 301.025 103.255 300.623 103.255H275.403V105.111H300.238C300.853 105.111 301.351 104.609 301.351 103.989Z" fill="#F9A824"/>
<path d="M257 109.751C244.397 109.751 234.181 99.447 234.181 86.7369C234.181 74.0267 244.397 63.723 257 63.723C269.603 63.723 279.819 74.0267 279.819 86.7369C279.819 99.447 269.603 109.751 257 109.751Z" fill="#FDEF59"/>
<path d="M257 99.1717C250.292 99.1717 244.854 93.6875 244.854 86.9224C244.854 80.1573 250.292 74.6731 257 74.6731C263.708 74.6731 269.146 80.1573 269.146 86.9224C269.146 93.6875 263.708 99.1717 257 99.1717Z" fill="#E2F4FF"/>
<path d="M259.668 96.5734C252.401 96.5734 246.51 90.6322 246.51 83.3033C246.51 75.9745 252.401 70.0333 259.668 70.0333C266.935 70.0333 272.826 75.9745 272.826 83.3033C272.826 90.6322 266.935 96.5734 259.668 96.5734Z" fill="white"/>
<path d="M237.309 87.2008C237.309 98.3222 246.249 107.338 257.276 107.338C268.304 107.338 277.243 98.3222 277.243 87.2008C277.243 76.0793 268.304 67.0637 257.276 67.0637C246.249 67.0637 237.309 76.0793 237.309 87.2008ZM271.814 87.2008C271.814 95.2983 265.305 101.863 257.276 101.863C249.247 101.863 242.738 95.2983 242.738 87.2008C242.738 79.1032 249.247 72.5387 257.276 72.5387C265.305 72.5387 271.814 79.1032 271.814 87.2008Z" fill="#F9A824"/>
<path d="M241.726 86.9224C241.726 95.3275 248.482 102.141 256.816 102.141C265.15 102.141 271.906 95.3275 271.906 86.9224C271.906 78.5174 265.15 71.7036 256.816 71.7036C248.482 71.7036 241.726 78.5174 241.726 86.9224ZM268.778 86.9224C268.778 93.5851 263.422 98.9862 256.816 98.9862C250.21 98.9862 244.854 93.5851 244.854 86.9224C244.854 80.2598 250.21 74.8587 256.816 74.8587C263.422 74.8587 268.778 80.2598 268.778 86.9224Z" fill="#F17F16"/>
<path d="M248.442 55.2719C245.102 56.1457 241.879 57.4228 238.842 59.0756L239.244 59.8257C242.22 58.2055 245.38 56.9535 248.654 56.0969L248.442 55.2719Z" fill="#F9A824"/>
<path d="M238.781 59.0831H242.83V66.5069H238.781V59.0831Z" fill="#F9A824"/>
<path d="M271.354 59.0831H275.403V66.5069H271.354V59.0831Z" fill="#F9A824"/>
<path d="M244.302 57.4128H242.83C241.407 57.4128 240.253 58.5761 240.253 60.0111V64.8366H244.302V57.4128Z" fill="#F9A824"/>
<path d="M273.931 59.8255C273.931 58.698 273.024 57.784 271.906 57.784C270.788 57.784 269.882 58.698 269.882 59.8255V65.2078H273.931V59.8255Z" fill="#F9A824"/>
<path d="M275.448 58.7656C272.762 57.4809 269.971 56.4306 267.107 55.6261L266.85 56.5556C269.662 57.3453 272.401 58.3763 275.039 59.6374L275.448 58.7656Z" fill="#F9A824"/>
<path d="M281.108 105.111H293.253C293.66 105.111 293.99 105.443 293.99 105.853C293.99 106.263 293.66 106.596 293.253 106.596H281.108C280.701 106.596 280.372 106.263 280.372 105.853C280.372 105.443 280.701 105.111 281.108 105.111Z" fill="#FDEF59"/>
</svg>
