<svg width="512" height="512" viewBox="0 0 512 512" fill="none" xmlns="http://www.w3.org/2000/svg">
<path d="M256 512C397.385 512 512 397.385 512 256C512 114.615 397.385 0 256 0C114.615 0 0 114.615 0 256C0 397.385 114.615 512 256 512Z" fill="#6C53A2"/>
<path d="M196.3 135.97V294.21H172.09C152.94 275.05 141.12 260.75 136.83 246.1C129.23 220.15 145.23 193.08 185.9 135.97H196.3V135.97Z" fill="#2E3140"/>
<path d="M192.26 137.07C192.26 188.13 168.98 231.38 136.83 246.1C129.23 220.15 145.23 193.08 185.9 135.97H192.25C192.26 136.33 192.26 136.7 192.26 137.07Z" fill="#3E4E60"/>
<path d="M316.158 135.97V294.21H340.368C359.518 275.05 371.338 260.75 375.628 246.1C383.228 220.15 367.228 193.08 326.558 135.97H316.158V135.97Z" fill="#2E3140"/>
<path d="M320.198 137.07C320.198 188.13 343.478 231.38 375.628 246.1C383.228 220.15 367.228 193.08 326.558 135.97H320.208C320.198 136.33 320.198 136.7 320.198 137.07Z" fill="#3E4E60"/>
<path d="M340.76 278.433V320.964C340.76 340.344 332.833 359.155 318.287 374.283L280.8 413.272H231.597L194.11 374.283C179.564 359.155 171.637 340.344 171.637 320.964V278.433C171.637 239.744 209.148 208.349 255.545 208.069C255.761 208.059 255.977 208.059 256.193 208.059C279.553 208.059 300.684 215.933 315.997 228.666C331.298 241.41 340.76 258.993 340.76 278.433Z" fill="#A26D5A"/>
<path d="M340.76 278.433V320.964C340.76 340.344 332.833 359.155 318.287 374.283L280.8 413.272H255.545V208.069C255.761 208.059 255.977 208.059 256.193 208.059C279.553 208.059 300.684 215.933 315.997 228.666C331.298 241.41 340.76 258.993 340.76 278.433Z" fill="#C17E62"/>
<path d="M331.539 231.63L327.306 237.598C315.65 254.074 307.843 272.226 304.317 291.117L288.931 373.446C286.64 385.7 288.835 398.254 295.239 409.461L301.475 420.368C306.104 428.471 308.095 437.443 307.255 446.394L304.641 473.957C303.754 483.427 294.256 490.732 282.84 490.732H229.51C218.106 490.732 208.608 483.427 207.708 473.967L205.046 446.025C204.206 437.313 206.077 428.561 210.454 420.618L217.565 407.705C223.633 396.698 225.672 384.443 223.429 372.468L207.947 289.63C204.421 270.779 196.638 252.647 185.018 236.201L180.845 230.303C172.271 218.188 170.544 203.549 176.12 190.276L200.44 132.377C205.752 119.753 220.071 111.291 236.14 111.291H276.085C292.227 111.291 306.581 119.823 311.833 132.517L336.357 191.794C341.827 205.016 340.065 219.575 331.539 231.63Z" fill="#C17E62"/>
<path d="M331.539 231.63L327.306 237.598C315.65 254.074 307.843 272.226 304.317 291.117L288.931 373.446C286.64 385.7 288.835 398.254 295.239 409.461L301.475 420.368C306.104 428.471 308.095 437.443 307.255 446.394L304.641 473.957C303.754 483.427 294.256 490.732 282.84 490.732H256.206V111.292H276.089C292.231 111.292 306.585 119.824 311.837 132.518L336.361 191.795C341.827 205.016 340.065 219.575 331.539 231.63Z" fill="#D48D77"/>
<path d="M267.283 270.321H256.204V378.253C265.702 378.253 273.702 372.348 274.835 364.501L285.914 287.8C287.257 278.504 278.535 270.321 267.283 270.321Z" fill="#EEA47D"/>
<path d="M245.116 270.321H256.195V378.253C246.697 378.253 238.697 372.348 237.564 364.501L226.485 287.8C225.142 278.504 233.864 270.321 245.116 270.321Z" fill="#D48D77"/>
<path d="M256.204 130.702H266.649C278.287 130.702 288.673 138.009 292.604 148.963L305.107 183.805C309.006 194.671 303.308 206.594 292.434 210.467C282.967 213.839 270.488 216.868 256.205 216.868V130.702H256.204Z" fill="#EEA47D"/>
<path d="M256.204 130.702H245.76C234.122 130.702 223.736 138.009 219.805 148.963L207.302 183.805C203.403 194.671 209.101 206.594 219.975 210.467C229.442 213.839 241.921 216.868 256.204 216.868V130.702Z" fill="#D48D77"/>
<path d="M336.105 124.996C335.075 126.166 333.965 127.136 332.785 127.886C319.235 136.486 325.995 166.296 326.205 167.246L276.085 111.286C276.085 72.136 295.445 70.386 302.695 51.316C304.375 46.926 305.405 41.606 305.405 34.686C305.405 -2.194 327.255 22.726 339.485 45.156C350.815 65.916 348.955 110.506 336.105 124.996Z" fill="#D48D77"/>
<path d="M336.105 124.996C316.535 108.866 303.485 81.966 302.695 51.316C304.375 46.926 305.405 41.606 305.405 34.686C305.405 -2.194 327.255 22.726 339.485 45.156C350.815 65.916 348.955 110.506 336.105 124.996Z" fill="#EEA47D"/>
<path d="M319.145 126.022C315.24 128.67 309.907 126.313 309.171 121.653C304.256 90.534 306.477 75.929 311.528 61.557C316.972 46.067 306.084 24.598 311.528 22.696C316.972 20.794 347.68 59.383 337.625 94.711C332.252 113.588 324.862 122.145 319.145 126.022Z" fill="#C17E62"/>
<path d="M175.895 124.996C176.925 126.166 178.035 127.136 179.215 127.886C192.765 136.486 186.005 166.296 185.795 167.246L235.915 111.286C235.915 72.136 216.555 70.386 209.305 51.316C207.625 46.926 206.595 41.606 206.595 34.686C206.595 -2.194 184.745 22.726 172.515 45.156C161.185 65.916 163.045 110.506 175.895 124.996Z" fill="#C17E62"/>
<path d="M175.895 124.996C195.465 108.866 208.515 81.966 209.305 51.316C207.625 46.926 206.595 41.606 206.595 34.686C206.595 -2.194 184.745 22.726 172.515 45.156C161.185 65.916 163.045 110.506 175.895 124.996Z" fill="#D48D77"/>
<path d="M192.855 126.022C196.76 128.67 202.093 126.313 202.829 121.653C207.744 90.534 205.523 75.929 200.472 61.557C195.028 46.067 205.916 24.598 200.472 22.696C195.028 20.794 164.32 59.383 174.375 94.711C179.748 113.588 187.138 122.145 192.855 126.022Z" fill="#A26D5A"/>
<path d="M332.959 227.2C340.361 231.474 342.936 240.886 338.768 248.321C338.742 248.389 338.706 248.452 338.67 248.514L333.242 257.915C331.09 261.642 327.627 264.154 323.768 265.188C319.903 266.232 315.658 265.795 311.921 263.637C304.977 259.628 302.275 251.086 305.403 243.911C305.635 243.365 305.904 242.826 306.205 242.306L311.633 232.905C313.791 229.168 317.258 226.672 321.117 225.638C324.977 224.604 329.222 225.042 332.959 227.2Z" fill="#3E4E60"/>
<path d="M332.959 227.2C340.361 231.474 342.936 240.886 338.768 248.321C330.424 252.748 319.563 252.71 310.204 247.307C308.465 246.303 306.859 245.167 305.405 243.911C305.637 243.365 305.906 242.826 306.207 242.306L311.635 232.905C313.793 229.168 317.26 226.672 321.119 225.638C324.977 224.604 329.222 225.042 332.959 227.2Z" fill="#2E3140"/>
<path d="M319.403 233.537L316.137 239.193C314.731 241.629 315.565 244.743 318.001 246.149C320.437 247.555 323.551 246.721 324.957 244.285L328.223 238.629C329.629 236.193 328.795 233.079 326.359 231.673C323.924 230.267 320.81 231.102 319.403 233.537Z" fill="white"/>
<path d="M178.13 227.2C170.728 231.474 168.153 240.886 172.321 248.321C172.347 248.389 172.383 248.452 172.419 248.514L177.847 257.915C179.999 261.642 183.462 264.154 187.321 265.188C191.186 266.232 195.431 265.795 199.168 263.637C206.112 259.628 208.814 251.086 205.686 243.911C205.454 243.365 205.185 242.826 204.884 242.306L199.456 232.905C197.298 229.168 193.831 226.672 189.972 225.638C186.112 224.604 181.868 225.042 178.13 227.2Z" fill="#3E4E60"/>
<path d="M178.13 227.2C170.728 231.474 168.153 240.886 172.321 248.321C180.665 252.748 191.526 252.71 200.885 247.307C202.624 246.303 204.23 245.167 205.685 243.911C205.453 243.365 205.184 242.826 204.883 242.306L199.455 232.905C197.297 229.168 193.83 226.672 189.971 225.638C186.112 224.604 181.868 225.042 178.13 227.2Z" fill="#2E3140"/>
<path d="M191.686 233.537L194.952 239.193C196.358 241.629 195.524 244.743 193.088 246.149C190.652 247.555 187.538 246.721 186.132 244.285L182.866 238.629C181.46 236.193 182.294 233.079 184.73 231.673C187.166 230.267 190.28 231.102 191.686 233.537Z" fill="white"/>
<path d="M244.98 459.835C244.98 465.413 239.859 470.173 233.06 470.662C225.877 471.181 219.545 466.76 218.921 460.783L217.89 450.943L216.643 439.138C216.007 433.16 221.332 427.891 228.515 427.363C235.698 426.844 242.03 431.265 242.654 437.242L243.481 445.096L244.932 458.887C244.968 459.206 244.98 459.526 244.98 459.835Z" fill="#2E3140"/>
<path d="M244.98 459.835C244.98 465.413 239.859 470.173 233.06 470.662C225.877 471.181 219.545 466.76 218.921 460.783L217.89 450.943C225.925 448.069 234.511 446.073 243.481 445.095L244.932 458.886C244.968 459.206 244.98 459.526 244.98 459.835Z" fill="#3E4E60"/>
<path d="M295.394 439.138L294.171 450.814L293.116 460.783C292.516 466.441 286.808 470.702 280.105 470.702C279.733 470.702 279.35 470.692 278.966 470.662C271.783 470.143 266.47 464.864 267.094 458.887L268.545 445.056L269.372 437.242C270.008 431.264 276.339 426.844 283.523 427.363C290.706 427.892 296.018 433.161 295.394 439.138Z" fill="#2E3140"/>
<path d="M294.171 450.814L293.116 460.783C292.516 466.441 286.808 470.702 280.105 470.702C279.733 470.702 279.35 470.692 278.966 470.662C271.783 470.143 266.47 464.864 267.094 458.887L268.545 445.056C277.526 446.004 286.125 447.97 294.171 450.814Z" fill="#3E4E60"/>
<path d="M295.17 161.72H216.83C206.41 161.72 199.68 150.68 204.47 141.41L206.73 137.04L213.1 124.71L223.87 103.84C230.08 91.82 242.47 84.27 256 84.27C269.53 84.27 281.92 91.82 288.13 103.84L298.81 124.52L305.27 137.04L307.53 141.41C312.32 150.68 305.59 161.72 295.17 161.72Z" fill="#2E3140"/>
<path d="M295.17 161.72H216.83C206.41 161.72 199.68 150.68 204.47 141.41L206.73 137.04L213.1 124.71C226.1 119.74 240.73 116.96 256.19 116.96C271.46 116.96 285.92 119.68 298.81 124.52L305.27 137.04L307.53 141.41C312.32 150.68 305.59 161.72 295.17 161.72Z" fill="#3E4E60"/>
<path d="M149.14 193.554H186.674C190.618 193.554 193.814 196.788 193.814 200.777C193.814 204.766 190.618 208 186.674 208H149.14C145.197 208 142 204.766 142 200.777C142 196.788 145.197 193.554 149.14 193.554Z" fill="#F9A824"/>
<path d="M145.258 195.336L157.679 185.951L160.853 190.25L148.431 199.635L145.258 195.336Z" fill="#F9A824"/>
<path d="M187.49 197.269H214.418C216.333 197.269 217.885 198.839 217.885 200.777C217.885 202.715 216.333 204.285 214.418 204.285H187.49C185.575 204.285 184.023 202.715 184.023 200.777C184.023 198.839 185.575 197.269 187.49 197.269Z" fill="#FDD835"/>
<path d="M290.507 190.665H190.55C189.424 190.665 188.51 191.589 188.51 192.729V208H290.507V190.665Z" fill="#FDD835"/>
<path d="M321.106 187.363H363.536V208H321.106V187.363Z" fill="#FDEF59"/>
<path d="M185.859 204.285H232.369C233.383 204.285 234.205 205.117 234.205 206.143C234.205 207.168 233.383 208 232.369 208H185.859C184.845 208 184.023 207.168 184.023 206.143C184.023 205.117 184.845 204.285 185.859 204.285Z" fill="#F9A824"/>
<path d="M154.648 190.665H190.142V195.205H154.648V190.665Z" fill="#F9A824"/>
<path d="M185.011 197.832L188.713 191.728C189.22 190.89 190.303 190.628 191.131 191.141C191.959 191.655 192.218 192.75 191.71 193.588L188.008 199.693C187.501 200.53 186.418 200.793 185.59 200.279C184.762 199.765 184.503 198.67 185.011 197.832Z" fill="#FDD835"/>
<path d="M286.631 190.665H361.701C362.715 190.665 363.536 191.496 363.536 192.522C363.536 193.548 362.715 194.38 361.701 194.38H286.631C285.617 194.38 284.795 193.548 284.795 192.522C284.795 191.496 285.617 190.665 286.631 190.665Z" fill="#FDEF59"/>
<path d="M336.201 200.571C336.201 197.152 333.461 194.38 330.082 194.38H273.372V208H336.201V200.571Z" fill="#FDD835"/>
<path d="M352.398 172.716C352.686 169.18 355.752 166.549 359.247 166.84C362.743 167.13 365.343 170.233 365.056 173.769L363.485 193.101C363.198 196.637 360.131 199.268 356.636 198.977C353.14 198.686 350.54 195.584 350.827 192.048L352.398 172.716Z" fill="#FDEF59"/>
<path d="M352.317 194.38H370.268C373.986 194.38 377 197.429 377 201.19C377 204.951 373.986 208 370.268 208H352.317C348.599 208 345.585 204.951 345.585 201.19C345.585 197.429 348.599 194.38 352.317 194.38Z" fill="#FDEF59"/>
<path d="M357.831 194.221L363.496 187.177L374.394 196.148L368.729 203.192L357.831 194.221Z" fill="#FDEF59"/>
<path d="M173.007 187.363H361.905C362.806 187.363 363.536 188.102 363.536 189.014C363.536 189.926 362.806 190.665 361.905 190.665H173.007C172.106 190.665 171.375 189.926 171.375 189.014C171.375 188.102 172.106 187.363 173.007 187.363Z" fill="#F9A824"/>
<path d="M154.597 174.01C154.31 170.474 156.91 167.372 160.406 167.081C163.901 166.791 166.968 169.422 167.255 172.958L168.825 192.29C169.113 195.826 166.512 198.928 163.016 199.219C159.521 199.51 156.455 196.879 156.167 193.342L154.597 174.01Z" fill="#F9A824"/>
<path d="M162.399 167.345C162.399 154.472 164.911 141.725 169.791 129.832C174.67 117.939 181.823 107.132 190.84 98.0297L259.5 167.345H162.399Z" fill="#F9A824"/>
<path d="M190.84 98.0297C199.044 89.7468 208.653 83.0155 219.211 78.1551L259.5 167.345L190.84 98.0297Z" fill="#FDD835"/>
<path d="M219.109 84.59C198.38 84.59 181.575 101.591 181.575 122.562V166.726H219.109V84.59Z" fill="#FDD835"/>
<path d="M162.399 166.726H224.413V190.665H162.399V166.726Z" fill="#F9A824"/>
<path d="M219.109 170.44H181.575V177.044C181.575 182.743 186.141 187.363 191.774 187.363H219.109V170.44Z" fill="#FDD835"/>
<path d="M328.16 98.0297C337.177 107.132 344.33 117.939 349.209 129.832C354.089 141.725 356.601 154.472 356.601 167.345H259.5L328.16 98.0297Z" fill="#FDEF59"/>
<path d="M299.211 77.8909C309.348 82.4773 318.63 88.7857 326.654 96.5416L259.5 167.345L299.211 77.8909Z" fill="#FDD835"/>
<path d="M246.036 59C231.165 59 219.109 71.1962 219.109 86.241V187.363H246.036V59Z" fill="#F9A824"/>
<path d="M300.299 86.241C300.299 71.1962 288.243 59 273.372 59V187.363H300.299V86.241Z" fill="#F9A824"/>
<path d="M246.036 69.3185H273.372V187.363H246.036V69.3185Z" fill="#FDD835"/>
<path d="M336.201 115.546C336.201 102.324 325.607 91.6067 312.538 91.6067H300.299V166.726H336.201V115.546Z" fill="#FDD835"/>
<path d="M312.538 167.551H357.825V187.363H312.538V167.551Z" fill="#FDEF59"/>
<path d="M336.201 177.457C336.201 175.405 334.558 173.742 332.53 173.742H300.299V187.363H336.201V177.457Z" fill="#FDD835"/>
<path d="M300.299 167.551H312.538V186.125H300.299V167.551Z" fill="#FDD835"/>
<path d="M357.825 167.946C357.825 167.044 357.102 166.313 356.211 166.313H300.299V170.44H355.359C356.721 170.44 357.825 169.324 357.825 167.946Z" fill="#F9A824"/>
<path d="M259.5 180.759C231.56 180.759 208.91 157.845 208.91 129.579C208.91 101.313 231.56 78.3989 259.5 78.3989C287.44 78.3989 310.09 101.313 310.09 129.579C310.09 157.845 287.44 180.759 259.5 180.759Z" fill="#FDEF59"/>
<path d="M259.5 157.233C244.629 157.233 232.573 145.036 232.573 129.992C232.573 114.947 244.629 102.751 259.5 102.751C274.371 102.751 286.427 114.947 286.427 129.992C286.427 145.036 274.371 157.233 259.5 157.233Z" fill="#E2F4FF"/>
<path d="M265.416 151.454C249.305 151.454 236.245 138.242 236.245 121.943C236.245 105.645 249.305 92.4321 265.416 92.4321C281.526 92.4321 294.587 105.645 294.587 121.943C294.587 138.242 281.526 151.454 265.416 151.454Z" fill="white"/>
<path d="M215.845 130.611C215.845 155.344 235.664 175.393 260.112 175.393C284.56 175.393 304.378 155.344 304.378 130.611C304.378 105.878 284.56 85.8283 260.112 85.8283C235.664 85.8283 215.845 105.878 215.845 130.611ZM292.343 130.611C292.343 148.619 277.912 163.217 260.112 163.217C242.312 163.217 227.881 148.619 227.881 130.611C227.881 112.603 242.312 98.0042 260.112 98.0042C277.912 98.0042 292.343 112.603 292.343 130.611Z" fill="#F9A824"/>
<path d="M225.637 129.992C225.637 148.684 240.616 163.837 259.092 163.837C277.568 163.837 292.547 148.684 292.547 129.992C292.547 111.3 277.568 96.1468 259.092 96.1468C240.616 96.1468 225.637 111.3 225.637 129.992ZM285.611 129.992C285.611 144.809 273.738 156.82 259.092 156.82C244.446 156.82 232.573 144.809 232.573 129.992C232.573 115.175 244.446 103.163 259.092 103.163C273.738 103.163 285.611 115.175 285.611 129.992Z" fill="#F17F16"/>
<path d="M240.527 59.6046C233.122 61.5478 225.977 64.388 219.245 68.0637L220.135 69.7318C226.734 66.1286 233.739 63.3443 240.997 61.4394L240.527 59.6046Z" fill="#F9A824"/>
<path d="M219.109 68.0804H228.085V84.59H219.109V68.0804Z" fill="#F9A824"/>
<path d="M291.323 68.0804H300.299V84.59H291.323V68.0804Z" fill="#F9A824"/>
<path d="M231.349 64.3656H228.085C224.931 64.3656 222.373 66.9527 222.373 70.144V80.8753H231.349V64.3656Z" fill="#F9A824"/>
<path d="M297.035 69.7313C297.035 67.2238 295.025 65.1911 292.547 65.1911C290.068 65.1911 288.059 67.2238 288.059 69.7313V81.7008H297.035V69.7313Z" fill="#F9A824"/>
<path d="M300.4 67.3742C294.444 64.5172 288.256 62.1814 281.907 60.3924L281.337 62.4594C287.571 64.2155 293.644 66.5085 299.491 69.3131L300.4 67.3742Z" fill="#F9A824"/>
<path d="M312.946 170.44H339.873C340.775 170.44 341.505 171.18 341.505 172.091C341.505 173.003 340.775 173.742 339.873 173.742H312.946C312.045 173.742 311.314 173.003 311.314 172.091C311.314 171.18 312.045 170.44 312.946 170.44Z" fill="#FDEF59"/>
</svg>
