<svg width="512" height="512" viewBox="0 0 512 512" fill="none" xmlns="http://www.w3.org/2000/svg">
<path d="M256 512C397.385 512 512 397.385 512 256C512 114.615 397.385 0 256 0C114.615 0 0 114.615 0 256C0 397.385 114.615 512 256 512Z" fill="#53B976"/>
<path d="M306.85 214.341C306.85 79.792 294.77 30.809 285.241 13.101C282.872 8.69899 276.165 11.193 277.18 16.087C282.523 41.854 290.401 106.909 267.687 214.341H306.85V214.341Z" fill="#3E4E60"/>
<path d="M306.78 196.59H271.24C272.09 192.08 272.89 187.66 273.63 183.32H306.62C306.69 187.64 306.74 192.06 306.78 196.59Z" fill="#2E3140"/>
<path d="M306.14 161.42H277.03C277.67 156.9 278.24 152.47 278.76 148.15H305.7C305.87 152.44 306.01 156.86 306.14 161.42Z" fill="#2E3140"/>
<path d="M304.68 126.25H281C281.39 121.69 281.71 117.27 281.97 112.98H303.85C304.15 117.24 304.43 121.66 304.68 126.25Z" fill="#2E3140"/>
<path d="M282.87 91.09C282.96 86.48 282.98 82.05 282.94 77.81H300.62C301.12 82 301.6 86.42 302.05 91.09H282.87Z" fill="#2E3140"/>
<path d="M297.5 55.92H282.19C281.9 51.17 281.53 46.74 281.12 42.65H294.95C295.82 46.66 296.68 51.07 297.5 55.92Z" fill="#2E3140"/>
<path d="M288.69 20.75H278.09C277.78 19.07 277.48 17.52 277.18 16.09C276.17 11.19 282.87 8.69999 285.24 13.1C286.36 15.19 287.52 17.71 288.69 20.75Z" fill="#2E3140"/>
<path d="M205.15 214.341C205.15 79.792 217.23 30.809 226.759 13.101C229.128 8.69899 235.835 11.193 234.82 16.087C229.477 41.854 221.599 106.909 244.313 214.341H205.15V214.341Z" fill="#2E3140"/>
<path d="M205.22 196.59H240.76C239.91 192.08 239.11 187.66 238.37 183.32H205.38C205.31 187.64 205.26 192.06 205.22 196.59Z" fill="#151516"/>
<path d="M205.86 161.42H234.97C234.33 156.9 233.76 152.47 233.24 148.15H206.3C206.13 152.44 205.99 156.86 205.86 161.42Z" fill="#151516"/>
<path d="M207.32 126.25H231C230.61 121.69 230.29 117.27 230.03 112.98H208.15C207.85 117.24 207.57 121.66 207.32 126.25Z" fill="#151516"/>
<path d="M229.13 91.09C229.04 86.48 229.02 82.05 229.06 77.81H211.38C210.88 82 210.4 86.42 209.95 91.09H229.13Z" fill="#151516"/>
<path d="M214.5 55.92H229.81C230.1 51.17 230.47 46.74 230.88 42.65H217.05C216.18 46.66 215.32 51.07 214.5 55.92Z" fill="#151516"/>
<path d="M223.31 20.75H233.91C234.22 19.07 234.52 17.52 234.82 16.09C235.83 11.19 229.13 8.69999 226.76 13.1C225.64 15.19 224.48 17.71 223.31 20.75Z" fill="#151516"/>
<path d="M444.602 130.173C438.755 122.017 427.987 119.084 418.811 123.145L357.058 150.478C349.185 153.963 344.107 161.763 344.107 170.373C344.107 185.298 337.899 199.551 326.97 209.716L318.92 217.204C315.243 215.36 311.193 214.34 306.85 214.34H205.15C200.807 214.34 196.757 215.36 193.08 217.204L185.03 209.716C174.101 199.551 167.893 185.298 167.893 170.373C167.893 161.763 162.816 153.963 154.942 150.478L93.189 123.145C84.013 119.083 73.245 122.017 67.398 130.173C62.159 137.48 62.103 147.299 67.26 154.666L109.97 215.68C119.328 229.048 132.809 238.982 148.35 243.958L172.464 251.681C171.735 257.9 171.901 264.52 173.132 271.245L206.142 451.484C209.623 470.489 225.551 484.141 243.306 484.141H268.695C286.45 484.141 302.379 470.489 305.86 451.484L325.514 344.186L338.124 275.326L338.87 271.246C340.101 264.521 340.268 257.902 339.538 251.682L363.652 243.959C379.193 238.982 392.674 229.049 402.032 215.681L444.742 154.667C449.897 147.3 449.841 137.481 444.602 130.173Z" fill="#C68132"/>
<path d="M338.869 271.245L338.123 275.326L325.513 344.186L305.859 451.484C305.557 453.127 305.164 454.723 304.683 456.273C299.641 472.728 284.96 484.141 268.695 484.141H256V214.341H306.85C329.49 214.341 344.252 241.84 338.869 271.245Z" fill="#DD8C29"/>
<path d="M307.215 228.092L326.971 209.717C337.9 199.552 344.108 185.299 344.108 170.374C344.108 161.764 349.185 153.964 357.059 150.479L418.812 123.146C427.988 119.084 438.756 122.018 444.603 130.174C449.842 137.481 449.898 147.3 444.741 154.667L402.031 215.681C392.673 229.049 379.192 238.982 363.651 243.959L336.894 252.528L307.215 228.092Z" fill="#DD8C29"/>
<path d="M427.536 135.33H427.376C426.376 135.33 425.406 135.54 424.476 135.95L399.006 147.22L362.726 163.28C360.026 164.48 358.236 167.11 358.116 170.04C357.706 179.53 355.746 188.82 352.136 197.35C348.536 205.88 343.286 213.66 336.336 220.13C334.326 221.99 333.336 224.51 333.336 227.02C333.336 229.72 334.486 232.41 336.766 234.28C338.716 235.89 341.356 236.4 343.766 235.63L359.206 230.68C370.566 227.04 380.576 220.18 388.046 210.97V210.96C388.966 209.84 389.836 208.69 390.666 207.5L433.276 146.64C436.606 142.09 433.126 135.33 427.536 135.33Z" fill="white"/>
<path d="M380.57 209.312C383.98 210.068 385.233 214.345 382.702 216.752C376.06 223.07 368.041 227.849 359.205 230.68L343.765 235.63C341.355 236.4 338.715 235.89 336.765 234.28C334.485 232.41 333.335 229.72 333.335 227.02C333.335 224.51 334.325 221.99 336.335 220.13C343.285 213.66 348.535 205.88 352.135 197.35C355.745 188.82 357.705 179.53 358.115 170.04C358.235 167.11 360.025 164.48 362.725 163.28L383.71 153.991C387.445 152.338 390.843 156.875 388.206 159.994L376.028 174.398C374.301 176.441 375.753 179.57 378.428 179.57H387.647C391.326 179.57 392.907 184.237 389.986 186.473L372.383 202.415C370.492 204.128 371.321 207.261 373.812 207.813L380.57 209.312Z" fill="#3E4E60"/>
<path d="M366.768 153.688C368.285 157.301 372.472 158.966 376.055 157.38L407.159 143.613C410.937 141.941 412.452 137.378 410.425 133.778C408.656 130.636 404.79 129.352 401.493 130.812L370.389 144.579C366.902 146.122 365.292 150.172 366.768 153.688Z" fill="#F39E22"/>
<path d="M78.724 146.64L121.334 207.5C122.164 208.69 123.034 209.84 123.954 210.96V210.97C131.424 220.18 141.434 227.04 152.794 230.68L168.234 235.63C170.644 236.4 173.284 235.89 175.234 234.28C177.514 232.41 178.664 229.72 178.664 227.02C178.664 224.51 177.674 221.99 175.664 220.13C168.714 213.66 163.464 205.88 159.864 197.35C156.254 188.82 154.294 179.53 153.884 170.04C153.764 167.11 151.974 164.48 149.274 163.28L112.994 147.22L87.524 135.95C86.594 135.54 85.624 135.33 84.624 135.33H84.464C78.874 135.33 75.394 142.09 78.724 146.64Z" fill="#C2AACF"/>
<path d="M131.43 209.312C128.02 210.068 126.767 214.345 129.298 216.752C135.94 223.07 143.959 227.849 152.795 230.68L168.235 235.63C170.645 236.4 173.285 235.89 175.235 234.28C177.515 232.41 178.665 229.72 178.665 227.02C178.665 224.51 177.675 221.99 175.665 220.13C168.715 213.66 163.465 205.88 159.865 197.35C156.255 188.82 154.295 179.53 153.885 170.04C153.765 167.11 151.975 164.48 149.275 163.28L128.29 153.991C124.555 152.338 121.157 156.875 123.794 159.994L135.972 174.398C137.699 176.441 136.247 179.57 133.572 179.57H124.353C120.674 179.57 119.093 184.237 122.014 186.473L139.617 202.415C141.508 204.128 140.679 207.261 138.188 207.813L131.43 209.312Z" fill="#2E3140"/>
<path d="M145.232 153.688C143.715 157.301 139.528 158.966 135.945 157.38L104.841 143.613C101.063 141.941 99.548 137.378 101.575 133.778C103.344 130.636 107.21 129.352 110.507 130.812L141.611 144.579C145.098 146.122 146.708 150.172 145.232 153.688Z" fill="#DD8C29"/>
<path d="M304.683 456.273C299.641 472.728 284.96 484.141 268.695 484.141H256V411.573H273.355C272.775 434.347 286.336 452.221 304.683 456.273Z" fill="white"/>
<path d="M207.317 456.273C212.359 472.728 227.04 484.141 243.305 484.141H256V411.573H238.645C239.225 434.347 225.664 452.221 207.317 456.273Z" fill="#C2AACF"/>
<path d="M338.123 275.325L325.513 344.186L273.36 420.373L254.763 405.106L338.123 275.325Z" fill="white"/>
<path d="M173.882 275.325L186.491 344.186L238.643 420.373L257.241 405.106L173.882 275.325Z" fill="#C2AACF"/>
<path d="M281.543 408.968L280.652 432.868C280.43 438.827 275.831 443.577 270.374 443.577H241.626C236.169 443.577 231.57 438.827 231.348 432.868L230.457 408.968C229.852 392.751 241.272 379.022 256 379.022C270.728 379.022 282.148 392.751 281.543 408.968Z" fill="#DD8C29"/>
<path d="M281.543 408.968L280.652 432.868C280.43 438.827 275.831 443.577 270.374 443.577H256V379.022C270.728 379.022 282.148 392.751 281.543 408.968Z" fill="#F39E22"/>
<path d="M304.562 464.623C303.516 462.067 300.597 460.843 298.041 461.89C294.474 463.35 289.606 465.062 288.324 465.185C284.399 465.526 277.416 464.375 271.255 463.359C267.623 462.76 264.121 462.183 261 461.839V453.475C261 450.714 258.761 448.475 256 448.475C253.239 448.475 251 450.714 251 453.475V461.839C247.879 462.183 244.377 462.759 240.745 463.359C234.584 464.375 227.602 465.528 223.677 465.185C222.52 465.074 217.979 463.535 213.959 461.89C211.407 460.846 208.485 462.069 207.438 464.624C206.393 467.18 207.616 470.099 210.171 471.145C212.283 472.01 219.437 474.853 222.807 475.147C227.99 475.598 235.3 474.392 242.372 473.225C247.462 472.386 252.725 471.517 255.999 471.517C259.273 471.517 264.537 472.385 269.626 473.225C275.658 474.22 281.864 475.244 286.773 475.244C287.62 475.244 288.429 475.213 289.191 475.147C292.561 474.854 299.715 472.01 301.828 471.145C304.385 470.098 305.608 467.178 304.562 464.623Z" fill="#151516"/>
<path d="M256 442.8V453.475C255.813 453.722 255.615 453.956 255.404 454.177C252.293 457.444 247.25 457.444 244.081 454.177L241.468 451.488L235.23 445.075C231.936 441.679 231.73 436.105 234.831 432.621C236.397 430.862 238.495 429.979 240.625 429.979C242.755 429.979 244.894 430.862 246.541 432.621L255.392 442.073C255.608 442.309 255.81 442.551 256 442.8Z" fill="#151516"/>
<path d="M276.77 445.075L267.919 454.177C264.75 457.444 259.707 457.444 256.596 454.177C256.385 453.956 256.187 453.722 256 453.475V442.8C256.19 442.551 256.392 442.309 256.607 442.073L265.458 432.621C267.105 430.862 269.244 429.979 271.375 429.979C273.506 429.979 275.603 430.862 277.169 432.621C280.27 436.104 280.064 441.679 276.77 445.075Z" fill="#2E3140"/>
<path d="M345.519 310.001C354.078 314.943 357.056 325.827 352.236 334.425C352.206 334.504 352.165 334.576 352.123 334.649L345.847 345.52C343.359 349.83 339.354 352.734 334.892 353.93C330.423 355.138 325.514 354.631 321.193 352.136C313.163 347.5 310.038 337.622 313.656 329.326C313.924 328.694 314.236 328.072 314.583 327.47L320.859 316.599C323.354 312.277 327.364 309.391 331.826 308.196C336.289 306.999 341.197 307.505 345.519 310.001Z" fill="#3E4E60"/>
<path d="M345.519 310.001C354.078 314.943 357.056 325.827 352.236 334.425C342.587 339.544 330.028 339.5 319.206 333.252C317.196 332.091 315.338 330.778 313.656 329.325C313.924 328.693 314.236 328.071 314.583 327.469L320.859 316.598C323.354 312.276 327.364 309.39 331.826 308.195C336.289 306.999 341.197 307.505 345.519 310.001Z" fill="#2E3140"/>
<path d="M329.844 317.329L326.068 323.87C324.442 326.686 325.407 330.288 328.223 331.914C331.039 333.54 334.641 332.575 336.267 329.759L340.043 323.218C341.669 320.402 340.704 316.8 337.888 315.174C335.071 313.547 331.47 314.512 329.844 317.329Z" fill="white"/>
<path d="M166.481 310.001C157.922 314.943 154.944 325.827 159.764 334.425C159.794 334.504 159.835 334.576 159.877 334.649L166.153 345.52C168.641 349.83 172.646 352.734 177.108 353.93C181.577 355.138 186.486 354.631 190.807 352.136C198.837 347.5 201.962 337.622 198.344 329.326C198.076 328.694 197.764 328.072 197.417 327.47L191.141 316.599C188.646 312.277 184.636 309.391 180.174 308.196C175.711 306.999 170.803 307.505 166.481 310.001Z" fill="#3E4E60"/>
<path d="M166.481 310.001C157.922 314.943 154.944 325.827 159.764 334.425C169.413 339.544 181.972 339.5 192.794 333.252C194.804 332.091 196.662 330.778 198.344 329.325C198.076 328.693 197.764 328.071 197.417 327.469L191.141 316.598C188.646 312.276 184.636 309.39 180.174 308.195C175.711 306.999 170.803 307.505 166.481 310.001Z" fill="#2E3140"/>
<path d="M182.156 317.329L185.932 323.87C187.558 326.686 186.593 330.288 183.777 331.914C180.961 333.54 177.359 332.575 175.733 329.759L171.957 323.218C170.331 320.402 171.296 316.8 174.112 315.174C176.929 313.547 180.53 314.512 182.156 317.329Z" fill="white"/>
<path d="M256 316.297C287.709 316.297 316.726 290.591 316.726 258.882C316.726 240.902 302.151 226.327 284.171 226.327H256V316.297Z" fill="#F39E22"/>
<path d="M256 316.297C224.291 316.297 195.274 290.591 195.274 258.882C195.274 240.902 209.849 226.327 227.829 226.327H256V316.297Z" fill="#DD8C29"/>
<path d="M149.17 280.748H186.865C190.825 280.748 194.035 283.938 194.035 287.874C194.035 291.81 190.825 295 186.865 295H149.17C145.21 295 142 291.81 142 287.874C142 283.938 145.21 280.748 149.17 280.748Z" fill="#F9A824"/>
<path d="M145.272 282.506L157.746 273.247L160.933 277.488L148.459 286.747L145.272 282.506Z" fill="#F9A824"/>
<path d="M187.684 284.413H214.726C216.649 284.413 218.208 285.962 218.208 287.874C218.208 289.786 216.649 291.335 214.726 291.335H187.684C185.761 291.335 184.201 289.786 184.201 287.874C184.201 285.962 185.761 284.413 187.684 284.413Z" fill="#FDD835"/>
<path d="M291.139 277.898H190.757C189.626 277.898 188.708 278.809 188.708 279.934V295H291.139V277.898Z" fill="#FDD835"/>
<path d="M321.868 274.64H364.479V295H321.868V274.64Z" fill="#FDEF59"/>
<path d="M186.045 291.335H232.753C233.772 291.335 234.597 292.156 234.597 293.168C234.597 294.18 233.772 295 232.753 295H186.045C185.027 295 184.201 294.18 184.201 293.168C184.201 292.156 185.027 291.335 186.045 291.335Z" fill="#F9A824"/>
<path d="M154.701 277.898H190.347V282.377H154.701V277.898Z" fill="#F9A824"/>
<path d="M185.194 284.969L188.911 278.946C189.421 278.12 190.509 277.861 191.34 278.368C192.171 278.874 192.432 279.955 191.922 280.781L188.204 286.804C187.694 287.63 186.607 287.889 185.776 287.383C184.944 286.876 184.684 285.795 185.194 284.969Z" fill="#FDD835"/>
<path d="M287.247 277.898H362.635C363.654 277.898 364.479 278.718 364.479 279.73C364.479 280.742 363.654 281.562 362.635 281.562H287.247C286.228 281.562 285.403 280.742 285.403 279.73C285.403 278.718 286.228 277.898 287.247 277.898Z" fill="#FDEF59"/>
<path d="M337.028 287.67C337.028 284.297 334.276 281.562 330.882 281.562H273.931V295H337.028V287.67Z" fill="#FDD835"/>
<path d="M353.293 260.189C353.582 256.701 356.662 254.105 360.172 254.392C363.682 254.679 366.294 257.739 366.005 261.228L364.428 280.301C364.139 283.789 361.059 286.385 357.549 286.098C354.039 285.811 351.427 282.751 351.716 279.262L353.293 260.189Z" fill="#FDEF59"/>
<path d="M353.212 281.562H371.24C374.973 281.562 378 284.571 378 288.281C378 291.992 374.973 295 371.24 295H353.212C349.478 295 346.451 291.992 346.451 288.281C346.451 284.571 349.478 281.562 353.212 281.562Z" fill="#FDEF59"/>
<path d="M358.749 281.406L364.438 274.457L375.383 283.307L369.694 290.256L358.749 281.406Z" fill="#FDEF59"/>
<path d="M173.139 274.64H362.84C363.745 274.64 364.479 275.369 364.479 276.269C364.479 277.168 363.745 277.897 362.84 277.897H173.139C172.234 277.897 171.5 277.168 171.5 276.269C171.5 275.369 172.234 274.64 173.139 274.64Z" fill="#F9A824"/>
<path d="M154.65 261.467C154.362 257.978 156.974 254.917 160.484 254.631C163.994 254.344 167.074 256.94 167.362 260.428L168.939 279.501C169.228 282.99 166.616 286.05 163.106 286.337C159.596 286.624 156.516 284.028 156.228 280.539L154.65 261.467Z" fill="#F9A824"/>
<path d="M162.486 254.891C162.486 242.19 165.008 229.615 169.909 217.881C174.809 206.148 181.992 195.486 191.047 186.506L260 254.891H162.486Z" fill="#F9A824"/>
<path d="M191.047 186.506C199.287 178.334 208.937 171.693 219.539 166.898L260 254.891L191.047 186.506Z" fill="#FDD835"/>
<path d="M219.437 173.247C198.619 173.247 181.743 190.019 181.743 210.709V254.28H219.437V173.247Z" fill="#FDD835"/>
<path d="M162.486 254.28H224.764V277.898H162.486V254.28Z" fill="#F9A824"/>
<path d="M219.437 257.945H181.743V264.46C181.743 270.082 186.329 274.64 191.986 274.64H219.437V257.945Z" fill="#FDD835"/>
<path d="M328.953 186.506C338.008 195.486 345.191 206.148 350.091 217.881C354.992 229.615 357.514 242.19 357.514 254.891H260L328.953 186.506Z" fill="#FDEF59"/>
<path d="M299.88 166.637C310.06 171.162 319.382 177.386 327.44 185.038L260 254.891L299.88 166.637Z" fill="#FDD835"/>
<path d="M246.479 148C231.544 148 219.438 160.032 219.438 174.875V274.64H246.479V148Z" fill="#F9A824"/>
<path d="M300.972 174.875C300.972 160.032 288.865 148 273.931 148V274.64H300.972V174.875Z" fill="#F9A824"/>
<path d="M246.479 158.18H273.931V274.64H246.479V158.18Z" fill="#FDD835"/>
<path d="M337.028 203.787C337.028 190.743 326.389 180.169 313.264 180.169H300.972V254.28H337.028V203.787Z" fill="#FDD835"/>
<path d="M313.264 255.094H358.743V274.64H313.264V255.094Z" fill="#FDEF59"/>
<path d="M337.028 264.867C337.028 262.843 335.377 261.202 333.34 261.202H300.972V274.64H337.028V264.867Z" fill="#FDD835"/>
<path d="M300.972 255.094H313.264V273.418H300.972V255.094Z" fill="#FDD835"/>
<path d="M358.743 255.484C358.743 254.594 358.017 253.873 357.122 253.873H300.972V257.945H356.267C357.634 257.945 358.743 256.843 358.743 255.484Z" fill="#F9A824"/>
<path d="M260 268.125C231.941 268.125 209.194 245.518 209.194 217.632C209.194 189.745 231.941 167.138 260 167.138C288.059 167.138 310.806 189.745 310.806 217.632C310.806 245.518 288.059 268.125 260 268.125Z" fill="#FDEF59"/>
<path d="M260 244.914C245.065 244.914 232.958 232.882 232.958 218.039C232.958 203.196 245.065 191.163 260 191.163C274.935 191.163 287.042 203.196 287.042 218.039C287.042 232.882 274.935 244.914 260 244.914Z" fill="#E2F4FF"/>
<path d="M265.941 239.213C249.762 239.213 236.646 226.178 236.646 210.098C236.646 194.019 249.762 180.983 265.941 180.983C282.12 180.983 295.236 194.019 295.236 210.098C295.236 226.178 282.12 239.213 265.941 239.213Z" fill="white"/>
<path d="M216.16 218.65C216.16 243.05 236.063 262.831 260.615 262.831C285.166 262.831 305.069 243.05 305.069 218.65C305.069 194.249 285.166 174.468 260.615 174.468C236.063 174.468 216.16 194.249 216.16 218.65ZM292.983 218.65C292.983 236.416 278.491 250.819 260.615 250.819C242.738 250.819 228.247 236.416 228.247 218.65C228.247 200.883 242.738 186.481 260.615 186.481C278.491 186.481 292.983 200.883 292.983 218.65Z" fill="#F9A824"/>
<path d="M225.993 218.039C225.993 236.48 241.035 251.429 259.59 251.429C278.145 251.429 293.188 236.48 293.188 218.039C293.188 199.598 278.145 184.648 259.59 184.648C241.035 184.648 225.993 199.598 225.993 218.039ZM286.222 218.039C286.222 232.657 274.299 244.507 259.59 244.507C244.882 244.507 232.958 232.657 232.958 218.039C232.958 203.421 244.882 191.571 259.59 191.571C274.299 191.571 286.222 203.421 286.222 218.039Z" fill="#F17F16"/>
<path d="M240.946 148.597C233.51 150.514 226.334 153.316 219.574 156.942L220.467 158.588C227.094 155.033 234.129 152.286 241.418 150.407L240.946 148.597Z" fill="#F9A824"/>
<path d="M219.438 156.958H228.451V173.247H219.438V156.958Z" fill="#F9A824"/>
<path d="M291.958 156.958H300.972V173.247H291.958V156.958Z" fill="#F9A824"/>
<path d="M231.729 153.294H228.451C225.283 153.294 222.715 155.846 222.715 158.994V169.582H231.729V153.294Z" fill="#F9A824"/>
<path d="M297.694 158.587C297.694 156.113 295.677 154.108 293.187 154.108C290.698 154.108 288.681 156.113 288.681 158.587V170.396H297.694V158.587Z" fill="#F9A824"/>
<path d="M301.074 156.262C295.092 153.443 288.879 151.139 282.502 149.374L281.93 151.413C288.191 153.146 294.29 155.408 300.161 158.175L301.074 156.262Z" fill="#F9A824"/>
<path d="M313.674 257.945H340.715C341.62 257.945 342.354 258.674 342.354 259.573C342.354 260.473 341.62 261.202 340.715 261.202H313.674C312.768 261.202 312.035 260.473 312.035 259.573C312.035 258.674 312.768 257.945 313.674 257.945Z" fill="#FDEF59"/>
</svg>
