<svg width="512" height="512" viewBox="0 0 512 512" fill="none" xmlns="http://www.w3.org/2000/svg">
<path d="M256 512C397.385 512 512 397.385 512 256C512 114.615 397.385 0 256 0C114.615 0 0 114.615 0 256C0 397.385 114.615 512 256 512Z" fill="#22BCE0"/>
<path d="M353.21 384.93L315.95 442.84C308.93 453.76 296.83 460.36 283.85 460.36H228.15C215.17 460.36 203.07 453.76 196.05 442.84L158.79 384.93C146.84 366.36 142.48 343.9 146.61 322.21L154.89 278.75C156.5 270.3 159.37 262.13 163.39 254.53L187.73 208.6C199.78 185.86 223.41 171.64 249.14 171.64H262.86C288.59 171.64 312.22 185.86 324.27 208.6L348.61 254.53C352.63 262.13 355.5 270.3 357.11 278.75L365.39 322.21C369.52 343.9 365.16 366.36 353.21 384.93Z" fill="#C17E62"/>
<path d="M353.21 384.93L315.95 442.84C308.93 453.76 296.83 460.36 283.85 460.36H256V171.64H262.86C288.59 171.64 312.22 185.86 324.27 208.6L348.61 254.53C352.63 262.13 355.5 270.3 357.11 278.75L365.39 322.21C369.52 343.9 365.16 366.36 353.21 384.93Z" fill="#D48D77"/>
<path d="M327.28 336.86C324.53 338.65 321.32 339.81 317.83 340.11C306.43 341.11 292.66 333 291.66 321.6C290.98 313.73 296.86 309.81 304.32 307.8C307.66 306.91 311.32 306.4 314.85 306.09C326.25 305.1 335.67 306.26 336.66 317.66C337.35 325.57 333.51 332.83 327.28 336.86Z" fill="#3E4E60"/>
<path d="M327.28 336.86C314.26 335.44 304.12 324.41 304.12 311.01C304.12 309.92 304.19 308.85 304.32 307.8C307.66 306.91 311.32 306.4 314.85 306.09C326.25 305.1 335.67 306.26 336.66 317.66C337.35 325.57 333.51 332.83 327.28 336.86Z" fill="#2E3140"/>
<path d="M328.337 319.745C328.066 316.65 325.338 314.361 322.243 314.631C314.838 315.568 315.77 326.203 323.224 325.839C326.318 325.568 328.608 322.84 328.337 319.745Z" fill="white"/>
<path d="M220.34 321.6C219.78 327.96 215.25 333.3 209.37 336.59C204.71 339.21 199.21 340.55 194.17 340.11C182.77 339.12 174.34 329.06 175.34 317.66C176.06 309.33 181.28 306.47 188.49 305.92C191.15 305.71 194.08 305.82 197.15 306.09C208.55 307.09 221.33 310.2 220.34 321.6Z" fill="#3E4E60"/>
<path d="M220.34 321.6C219.78 327.96 215.25 333.3 209.37 336.59C197.21 334.42 187.99 323.79 187.99 311.01C187.99 309.27 188.16 307.57 188.49 305.92C191.15 305.71 194.08 305.82 197.15 306.09C208.55 307.09 221.33 310.2 220.34 321.6Z" fill="#2E3140"/>
<path d="M213.964 322.396C214.235 319.301 211.945 316.573 208.85 316.302C201.395 315.939 200.466 326.574 207.87 327.51C210.964 327.78 213.693 325.491 213.964 322.396Z" fill="white"/>
<path d="M295.53 357.11V421.77C295.53 443.08 278.25 474.21 256.94 474.21H255.06C233.75 474.21 216.47 443.08 216.47 421.77V357.11C216.47 335.28 234.17 305.81 256 305.81C266.92 305.81 276.8 313.18 283.95 323.27C291.1 333.37 295.53 346.2 295.53 357.11Z" fill="#D48D77"/>
<path d="M295.53 357.11V421.77C295.53 443.08 278.25 474.21 256.94 474.21H256V305.81C266.92 305.81 276.8 313.18 283.95 323.27C291.1 333.37 295.53 346.2 295.53 357.11Z" fill="#EEA47D"/>
<path d="M287.87 395.69C287.87 398.34 287.21 401.06 285.77 403.64C281.82 410.7 274.36 415.08 266.27 415.08H245.73C241.68 415.08 237.8 413.98 234.43 412.01C231.06 410.03 228.2 407.17 226.23 403.64C220.14 392.75 228.01 379.33 240.49 379.33H271.51C281.03 379.33 287.87 387.14 287.87 395.69Z" fill="#3E4E60"/>
<path d="M287.87 395.69C287.87 398.34 287.21 401.06 285.77 403.64C281.82 410.7 274.36 415.08 266.27 415.08H256V379.33H271.51C281.03 379.33 287.87 387.14 287.87 395.69Z" fill="#3F5D77"/>
<path d="M295.033 396.886C292.435 397.135 290.526 399.471 290.525 402.082C290.521 439.826 289.359 444.158 279.372 444.158C271.033 444.158 267.728 443.179 264.812 442.316C264.8 442.312 264.788 442.309 264.776 442.305C262.538 441.643 260.999 439.591 260.999 437.257V412.25C260.999 409.639 259.09 407.306 256.491 407.058C253.509 406.773 250.999 409.111 250.999 412.034V437.256C250.999 439.59 249.46 441.642 247.222 442.304C247.21 442.308 247.198 442.311 247.186 442.315C244.27 443.178 240.965 444.157 232.626 444.157C222.639 444.157 221.478 439.826 221.473 402.081C221.473 399.471 219.564 397.134 216.965 396.885C213.982 396.6 211.472 398.938 211.472 401.861C211.472 419.947 211.472 431.895 213.666 439.976C216.292 449.65 222.316 454.156 232.625 454.156C242.413 454.156 246.633 452.907 250.023 451.903C252.082 451.294 253.451 450.89 255.945 450.884C255.963 450.884 255.979 450.889 255.997 450.889C256.015 450.889 256.031 450.884 256.049 450.884C258.544 450.89 259.912 451.293 261.971 451.903C265.362 452.907 269.582 454.156 279.369 454.156C289.678 454.156 295.702 449.65 298.328 439.976C300.522 431.895 300.522 419.947 300.522 401.861C300.526 398.939 298.016 396.601 295.033 396.886Z" fill="#A26D5A"/>
<path d="M256 401.36V412.035C255.813 412.282 255.615 412.516 255.404 412.737C252.293 416.004 247.25 416.004 244.081 412.737L241.468 410.048L235.23 403.635C231.936 400.239 231.73 394.665 234.831 391.181C236.397 389.422 238.495 388.539 240.625 388.539C242.755 388.539 244.894 389.422 246.541 391.181L255.392 400.633C255.608 400.869 255.81 401.111 256 401.36Z" fill="#151516"/>
<path d="M276.77 403.635L267.919 412.737C264.75 416.004 259.707 416.004 256.596 412.737C256.385 412.516 256.187 412.282 256 412.035V401.36C256.19 401.111 256.392 400.869 256.607 400.633L265.458 391.181C267.105 389.422 269.244 388.539 271.375 388.539C273.506 388.539 275.603 389.422 277.169 391.181C280.27 394.664 280.064 400.239 276.77 403.635Z" fill="#2E3140"/>
<path d="M301.16 291.28H210.84C202.27 291.28 195.85 283.42 197.57 275.02L200.69 259.74C203.04 248.22 207.39 237.2 213.53 227.18L222.88 211.93C229.94 200.41 242.48 193.38 256 193.38C269.52 193.38 282.06 200.41 289.12 211.93L298.47 227.18C304.61 237.2 308.96 248.22 311.31 259.74L314.43 275.02C316.15 283.42 309.73 291.28 301.16 291.28Z" fill="#D48D77"/>
<path d="M301.16 291.28H256V193.38C269.52 193.38 282.06 200.41 289.12 211.93L298.47 227.18C304.61 237.2 308.96 248.22 311.31 259.74L314.43 275.02C316.15 283.42 309.73 291.28 301.16 291.28Z" fill="#EEA47D"/>
<path d="M424.43 91.9L420.95 112.51L412 165.5C410.74 172.92 407.95 180 403.81 186.29L376.33 227.96L352.78 263.66L309.55 211.25L293.339 191.591C284.522 180.898 284.126 165.573 292.381 154.439L308.181 133.129C310.061 130.589 312.051 128.139 314.141 125.789C321.031 117.999 329.001 111.229 337.841 105.679L395.451 69.499C402.201 65.259 411.061 66.759 416.031 72.999L421.231 79.519C424.01 83 425.17 87.5 424.43 91.9Z" fill="#C17E62"/>
<path d="M424.43 91.9L420.95 112.51L412 165.5C410.74 172.92 407.95 180 403.81 186.29L376.33 227.96C341.49 211.8 316.33 172.46 314.14 125.79C321.03 118 329 111.23 337.84 105.68L395.45 69.5C402.2 65.26 411.06 66.76 416.03 73L421.23 79.52C424.01 83 425.17 87.5 424.43 91.9Z" fill="#A26D5A"/>
<path d="M420.95 112.51L412 165.5C410.74 172.92 407.95 180 403.81 186.29L352.78 263.66L325.718 230.851C315.528 218.497 311.68 202.099 315.312 186.503L324.666 146.328C327.041 136.129 333.188 127.208 341.872 121.357L393.962 86.263C398.578 83.153 404.863 84.608 407.643 89.43L420.95 112.51Z" fill="white"/>
<path d="M325.718 230.851L344.128 206.39C348.906 200.042 351.489 192.313 351.489 184.368V158.662C351.489 147.344 355.985 136.489 363.989 128.485L381.182 111.292C384.49 107.984 390.147 110.327 390.147 115.005V207.006L352.78 263.66L325.718 230.851Z" fill="#3F5D77"/>
<path d="M87.571 91.9L91.051 112.51L100.001 165.5C101.261 172.92 104.051 180 108.191 186.29L135.671 227.96L159.221 263.66L202.451 211.25L218.662 191.591C227.479 180.898 227.875 165.573 219.62 154.439L203.82 133.129C201.94 130.589 199.95 128.139 197.86 125.789C190.97 117.999 183 111.229 174.16 105.679L116.55 69.499C109.8 65.259 100.94 66.759 95.97 72.999L90.77 79.519C87.991 83 86.831 87.5 87.571 91.9Z" fill="#D48D77"/>
<path d="M87.571 91.9L91.051 112.51L100.001 165.5C101.261 172.92 104.051 180 108.191 186.29L135.671 227.96C170.511 211.8 195.671 172.46 197.861 125.79C190.971 118 183.001 111.23 174.161 105.68L116.551 69.5C109.801 65.26 100.941 66.76 95.971 73L90.771 79.52C87.991 83 86.831 87.5 87.571 91.9Z" fill="#A26D5A"/>
<path d="M91.051 112.51L100.001 165.5C101.261 172.92 104.051 180 108.191 186.29L159.221 263.66L186.283 230.851C196.473 218.497 200.321 202.099 196.689 186.503L187.335 146.328C184.961 136.129 178.813 127.208 170.129 121.357L118.039 86.263C113.423 83.153 107.138 84.608 104.358 89.43L91.051 112.51Z" fill="#C2AACF"/>
<path d="M186.283 230.851L167.873 206.39C163.095 200.042 160.512 192.313 160.512 184.368V158.662C160.512 147.344 156.016 136.489 148.012 128.485L130.819 111.292C127.511 107.984 121.854 110.327 121.854 115.005V207.006L159.22 263.659L186.283 230.851Z" fill="#3E4E60"/>
<path d="M129.99 267.197H171.997C176.41 267.197 179.988 270.734 179.988 275.098C179.988 279.462 176.41 283 171.997 283H129.99C125.577 283 122 279.462 122 275.098C122 270.734 125.577 267.197 129.99 267.197Z" fill="#F9A824"/>
<path d="M125.646 269.146L139.548 258.879L143.099 263.582L129.198 273.849L125.646 269.146Z" fill="#F9A824"/>
<path d="M172.911 271.26H203.046C205.19 271.26 206.927 272.979 206.927 275.098C206.927 277.218 205.19 278.936 203.046 278.936H172.911C170.767 278.936 169.03 277.218 169.03 275.098C169.03 272.979 170.767 271.26 172.911 271.26Z" fill="#FDD835"/>
<path d="M288.201 264.036H176.335C175.074 264.036 174.052 265.047 174.052 266.294V283H288.201V264.036Z" fill="#FDD835"/>
<path d="M322.446 260.424H369.932V283H322.446V260.424Z" fill="#FDEF59"/>
<path d="M171.084 278.936H223.136C224.271 278.936 225.191 279.846 225.191 280.968C225.191 282.09 224.271 283 223.136 283H171.084C169.949 283 169.03 282.09 169.03 280.968C169.03 279.846 169.949 278.936 171.084 278.936Z" fill="#F9A824"/>
<path d="M136.155 264.036H175.878V269.003H136.155V264.036Z" fill="#F9A824"/>
<path d="M170.136 271.877L174.278 265.199C174.847 264.282 176.058 263.995 176.985 264.557C177.911 265.119 178.201 266.318 177.633 267.234L173.49 273.912C172.922 274.828 171.71 275.115 170.784 274.553C169.858 273.992 169.567 272.793 170.136 271.877Z" fill="#FDD835"/>
<path d="M283.864 264.036H367.878C369.012 264.036 369.932 264.946 369.932 266.068C369.932 267.19 369.012 268.1 367.878 268.1H283.864C282.729 268.1 281.809 267.19 281.809 266.068C281.809 264.946 282.729 264.036 283.864 264.036Z" fill="#FDEF59"/>
<path d="M339.34 274.873C339.34 271.132 336.274 268.1 332.491 268.1H269.024V283H339.34V274.873Z" fill="#FDD835"/>
<path d="M357.467 244.401C357.789 240.532 361.22 237.654 365.132 237.972C369.044 238.29 371.955 241.684 371.633 245.552L369.875 266.701C369.553 270.569 366.121 273.447 362.209 273.129C358.298 272.811 355.387 269.417 355.709 265.549L357.467 244.401Z" fill="#FDEF59"/>
<path d="M357.376 268.1H377.466C381.627 268.1 385 271.435 385 275.55C385 279.665 381.627 283 377.466 283H357.376C353.215 283 349.842 279.665 349.842 275.55C349.842 271.435 353.215 268.1 357.376 268.1Z" fill="#FDEF59"/>
<path d="M363.547 267.926L369.887 260.221L382.084 270.035L375.744 277.74L363.547 267.926Z" fill="#FDEF59"/>
<path d="M156.701 260.424H368.106C369.115 260.424 369.932 261.232 369.932 262.23C369.932 263.227 369.115 264.036 368.106 264.036H156.701C155.693 264.036 154.875 263.227 154.875 262.23C154.875 261.232 155.693 260.424 156.701 260.424Z" fill="#F9A824"/>
<path d="M136.098 245.817C135.776 241.948 138.687 238.555 142.599 238.237C146.511 237.919 149.942 240.797 150.264 244.666L152.021 265.814C152.343 269.682 149.432 273.076 145.521 273.394C141.609 273.712 138.177 270.834 137.855 266.965L136.098 245.817Z" fill="#F9A824"/>
<path d="M144.83 238.525C144.83 224.442 147.641 210.498 153.102 197.487C158.563 184.477 166.568 172.655 176.659 162.697L253.5 238.525H144.83Z" fill="#F9A824"/>
<path d="M176.659 162.697C185.841 153.636 196.595 146.272 208.41 140.955L253.5 238.525L176.659 162.697Z" fill="#FDD835"/>
<path d="M208.297 147.995C185.097 147.995 166.29 166.593 166.29 189.535V237.848H208.297V147.995Z" fill="#FDD835"/>
<path d="M144.83 237.848H214.233V264.036H144.83V237.848Z" fill="#F9A824"/>
<path d="M208.297 241.911H166.29V249.136C166.29 255.37 171.401 260.424 177.705 260.424H208.297V241.911Z" fill="#FDD835"/>
<path d="M330.341 162.697C340.432 172.655 348.437 184.477 353.898 197.487C359.359 210.498 362.17 224.442 362.17 238.525H253.5L330.341 162.697Z" fill="#FDEF59"/>
<path d="M297.942 140.666C309.287 145.683 319.676 152.584 328.655 161.069L253.5 238.525L297.942 140.666Z" fill="#FDD835"/>
<path d="M238.432 120C221.789 120 208.297 133.342 208.297 149.801V260.424H238.432V120Z" fill="#F9A824"/>
<path d="M299.16 149.801C299.16 133.342 285.668 120 269.024 120V260.424H299.16V149.801Z" fill="#F9A824"/>
<path d="M238.432 131.288H269.024V260.424H238.432V131.288Z" fill="#FDD835"/>
<path d="M339.34 181.859C339.34 167.395 327.484 155.67 312.858 155.67H299.16V237.848H339.34V181.859Z" fill="#FDD835"/>
<path d="M312.858 238.751H363.54V260.424H312.858V238.751Z" fill="#FDEF59"/>
<path d="M339.34 249.587C339.34 247.343 337.501 245.524 335.231 245.524H299.16V260.424H339.34V249.587Z" fill="#FDD835"/>
<path d="M299.16 238.751H312.858V259.069H299.16V238.751Z" fill="#FDD835"/>
<path d="M363.54 239.182C363.54 238.196 362.731 237.396 361.734 237.396H299.16V241.911H360.78C362.304 241.911 363.54 240.69 363.54 239.182Z" fill="#F9A824"/>
<path d="M253.5 253.199C222.231 253.199 196.882 228.132 196.882 197.211C196.882 166.289 222.231 141.222 253.5 141.222C284.769 141.222 310.118 166.289 310.118 197.211C310.118 228.132 284.769 253.199 253.5 253.199Z" fill="#FDEF59"/>
<path d="M253.5 227.463C236.857 227.463 223.365 214.12 223.365 197.662C223.365 181.204 236.857 167.861 253.5 167.861C270.143 167.861 283.635 181.204 283.635 197.662C283.635 214.12 270.143 227.463 253.5 227.463Z" fill="#E2F4FF"/>
<path d="M260.121 221.141C242.09 221.141 227.474 206.687 227.474 188.857C227.474 171.027 242.09 156.573 260.121 156.573C278.151 156.573 292.767 171.027 292.767 188.857C292.767 206.687 278.151 221.141 260.121 221.141Z" fill="white"/>
<path d="M204.644 198.339C204.644 225.396 226.824 247.33 254.185 247.33C281.546 247.33 303.726 225.396 303.726 198.339C303.726 171.283 281.546 149.349 254.185 149.349C226.824 149.349 204.644 171.283 204.644 198.339ZM290.256 198.339C290.256 218.039 274.106 234.01 254.185 234.01C234.264 234.01 218.114 218.039 218.114 198.339C218.114 178.639 234.264 162.669 254.185 162.669C274.106 162.669 290.256 178.639 290.256 198.339Z" fill="#F9A824"/>
<path d="M215.602 197.662C215.602 218.11 232.365 234.687 253.043 234.687C273.721 234.687 290.484 218.11 290.484 197.662C290.484 177.214 273.721 160.637 253.043 160.637C232.365 160.637 215.602 177.214 215.602 197.662ZM282.722 197.662C282.722 213.871 269.435 227.011 253.043 227.011C236.652 227.011 223.365 213.871 223.365 197.662C223.365 181.453 236.652 168.313 253.043 168.313C269.435 168.313 282.722 181.453 282.722 197.662Z" fill="#F17F16"/>
<path d="M232.266 120.661C223.979 122.787 215.982 125.894 208.448 129.915L209.444 131.74C216.83 127.798 224.669 124.753 232.792 122.669L232.266 120.661Z" fill="#F9A824"/>
<path d="M208.297 129.934H218.342V147.995H208.297V129.934Z" fill="#F9A824"/>
<path d="M289.115 129.934H299.16V147.995H289.115V129.934Z" fill="#F9A824"/>
<path d="M221.995 125.87H218.342C214.812 125.87 211.95 128.7 211.95 132.191V143.931H221.995V125.87Z" fill="#F9A824"/>
<path d="M295.507 131.74C295.507 128.997 293.258 126.773 290.484 126.773C287.711 126.773 285.462 128.997 285.462 131.74V144.834H295.507V131.74Z" fill="#F9A824"/>
<path d="M299.273 129.161C292.607 126.036 285.683 123.48 278.576 121.523L277.939 123.784C284.916 125.706 291.713 128.214 298.256 131.282L299.273 129.161Z" fill="#F9A824"/>
<path d="M313.314 241.911H343.45C344.458 241.911 345.276 242.72 345.276 243.718C345.276 244.715 344.458 245.524 343.45 245.524H313.314C312.306 245.524 311.488 244.715 311.488 243.718C311.488 242.72 312.306 241.911 313.314 241.911Z" fill="#FDEF59"/>
</svg>
