<svg width="512" height="512" viewBox="0 0 512 512" fill="none" xmlns="http://www.w3.org/2000/svg">
<path d="M256 512C397.385 512 512 397.385 512 256C512 114.615 397.385 0 256 0C114.615 0 0 114.615 0 256C0 397.385 114.615 512 256 512Z" fill="#6C53A2"/>
<path d="M50.419 167.66V223.56C50.419 251.07 72.729 273.37 100.239 273.37H124.599C152.109 273.37 174.409 251.07 174.409 223.56V167.66C174.409 140.15 152.109 117.85 124.599 117.85H100.239C72.729 117.85 50.419 140.15 50.419 167.66Z" fill="#9175A7"/>
<path d="M100.239 248.82V273.37H124.599C152.109 273.37 174.409 251.07 174.409 223.56V196.88H152.169C123.489 196.88 100.239 220.13 100.239 248.82Z" fill="#746087"/>
<path d="M135.57 140.498H89.257C76.326 140.498 65.844 150.98 65.844 163.911C65.844 176.842 76.326 187.324 89.257 187.324H135.569C148.5 187.324 158.982 176.842 158.982 163.911C158.983 150.981 148.5 140.498 135.57 140.498Z" fill="#A583BB"/>
<path d="M461.581 167.66V223.56C461.581 251.07 439.271 273.37 411.761 273.37H387.401C359.891 273.37 337.591 251.07 337.591 223.56V167.66C337.591 140.15 359.891 117.85 387.401 117.85H411.761C439.271 117.85 461.581 140.15 461.581 167.66Z" fill="#A583BB"/>
<path d="M411.761 248.82V273.37H387.401C359.891 273.37 337.591 251.07 337.591 223.56V196.88H359.831C388.511 196.88 411.761 220.13 411.761 248.82Z" fill="#9175A7"/>
<path d="M422.743 140.498H376.43C363.499 140.498 353.017 150.98 353.017 163.911C353.017 176.842 363.499 187.324 376.43 187.324H422.742C435.673 187.324 446.155 176.842 446.155 163.911C446.155 150.981 435.673 140.498 422.743 140.498Z" fill="#C2AACF"/>
<path d="M371.04 251.89V333.5C371.04 381.81 331.88 420.97 283.57 420.97H228.43C180.12 420.97 140.96 381.81 140.96 333.5V251.89C140.96 218.2 168.27 190.89 201.96 190.89H310.04C343.73 190.89 371.04 218.2 371.04 251.89Z" fill="#9175A7"/>
<path d="M371.04 251.89V333.5C371.04 381.81 331.88 420.97 283.57 420.97H256V190.89H310.04C343.73 190.89 371.04 218.2 371.04 251.89Z" fill="#A583BB"/>
<path d="M327.431 268.391H256V200.661H290.088C319.103 200.661 342.624 224.182 342.624 253.197C342.624 261.589 335.822 268.391 327.431 268.391Z" fill="#C2AACF"/>
<path d="M184.569 268.391H256V200.661H221.912C192.897 200.661 169.376 224.182 169.376 253.197C169.376 261.589 176.178 268.391 184.569 268.391Z" fill="#A583BB"/>
<path d="M324.974 313.161C316.83 321.305 303.603 321.305 295.459 313.161C287.305 305.007 287.315 291.79 295.459 283.646C297.667 281.438 300.245 279.826 302.997 278.819C310.402 276.098 319.028 277.7 324.974 283.646C330.91 289.582 332.522 298.219 329.801 305.623C328.795 308.375 327.182 310.953 324.974 313.161Z" fill="#C2AACF"/>
<path d="M329.797 305.622C334.533 300.886 332.372 291.047 324.97 283.645C317.568 276.244 307.729 274.083 302.993 278.819C298.257 283.554 300.418 293.394 307.82 300.795C315.222 308.197 325.061 310.358 329.797 305.622Z" fill="#EBD9EA"/>
<path d="M323.404 298.403C323.404 304.082 319.802 308.933 314.762 310.792C313.339 311.3 311.814 311.591 310.216 311.591C302.925 311.591 297.029 305.68 297.029 298.403C297.029 291.112 302.926 285.216 310.216 285.216C311.814 285.216 313.339 285.506 314.762 286.015C319.802 287.874 323.404 292.71 323.404 298.403Z" fill="#3F5D77"/>
<path d="M314.762 310.792C319.535 310.792 323.404 305.245 323.404 298.403C323.404 291.561 319.535 286.014 314.762 286.014C309.989 286.014 306.12 291.561 306.12 298.403C306.12 305.245 309.989 310.792 314.762 310.792Z" fill="#2E3140"/>
<path d="M310.213 301.791C313.803 301.791 316.713 298.881 316.713 295.291C316.713 291.701 313.803 288.791 310.213 288.791C306.623 288.791 303.713 291.701 303.713 295.291C303.713 298.881 306.623 301.791 310.213 301.791Z" fill="#83D5EF"/>
<path d="M215.748 313.161C207.604 321.305 194.377 321.305 186.233 313.161C178.079 305.007 178.089 291.79 186.233 283.646C188.441 281.438 191.019 279.826 193.771 278.819C201.176 276.098 209.802 277.7 215.748 283.646C221.684 289.582 223.296 298.219 220.575 305.623C219.568 308.375 217.956 310.953 215.748 313.161Z" fill="#A583BB"/>
<path d="M220.571 305.622C225.307 300.886 223.146 291.047 215.744 283.645C208.342 276.243 198.503 274.082 193.767 278.818C189.031 283.554 191.192 293.393 198.594 300.795C205.996 308.197 215.835 310.357 220.571 305.622Z" fill="#DECEE5"/>
<path d="M214.177 298.403C214.177 304.082 210.575 308.933 205.536 310.792C204.113 311.3 202.588 311.591 200.99 311.591C193.699 311.591 187.803 305.68 187.803 298.403C187.803 291.112 193.7 285.216 200.99 285.216C202.588 285.216 204.113 285.506 205.536 286.015C210.576 287.874 214.177 292.71 214.177 298.403Z" fill="#3F5D77"/>
<path d="M205.536 310.792C210.309 310.792 214.178 305.245 214.178 298.403C214.178 291.561 210.309 286.014 205.536 286.014C200.763 286.014 196.894 291.561 196.894 298.403C196.894 305.245 200.763 310.792 205.536 310.792Z" fill="#2E3140"/>
<path d="M200.986 301.791C204.576 301.791 207.486 298.881 207.486 295.291C207.486 291.701 204.576 288.791 200.986 288.791C197.396 288.791 194.486 291.701 194.486 295.291C194.486 298.881 197.396 301.791 200.986 301.791Z" fill="#83D5EF"/>
<path d="M283.57 385.52V400.85C283.57 411.96 274.56 420.97 263.45 420.97H248.55C237.44 420.97 228.43 411.96 228.43 400.85V385.52C228.43 374.41 237.44 365.4 248.55 365.4H263.45C274.56 365.4 283.57 374.41 283.57 385.52Z" fill="#A583BB"/>
<path d="M283.57 385.52V400.85C283.57 411.96 274.56 420.97 263.45 420.97H256V365.4H263.45C274.56 365.4 283.57 374.41 283.57 385.52Z" fill="#C2AACF"/>
<path d="M256 394.847C245.429 394.847 235.433 391.12 226.613 387.833C220.32 385.487 214.375 383.271 209.252 382.773C206.503 382.506 204.492 380.062 204.759 377.313C205.026 374.564 207.474 372.556 210.219 372.82C216.644 373.444 223.183 375.882 230.107 378.463C238.526 381.602 247.233 384.847 256.001 384.847C264.772 384.847 273.481 381.601 281.904 378.462C288.828 375.881 295.367 373.444 301.792 372.819C304.545 372.544 306.985 374.564 307.252 377.312C307.519 380.061 305.508 382.505 302.759 382.772C297.635 383.27 291.69 385.486 285.396 387.832C276.573 391.12 266.574 394.847 256 394.847Z" fill="#746087"/>
<path d="M256 273.87H263.82C279.331 273.87 291.95 286.489 291.95 302C291.95 306.971 287.921 311 282.95 311C277.979 311 273.95 306.971 273.95 302C273.95 296.415 269.406 291.87 263.82 291.87H256V273.87Z" fill="#C2AACF"/>
<path d="M256 273.87H248.18C232.669 273.87 220.05 286.489 220.05 302C220.05 306.971 224.079 311 229.05 311C234.021 311 238.05 306.971 238.05 302C238.05 296.415 242.594 291.87 248.18 291.87H256V273.87Z" fill="#A583BB"/>
<path d="M316.28 325.084H282.95V354.69H316.28C324.456 354.69 331.083 348.062 331.083 339.887C331.083 331.711 324.456 325.084 316.28 325.084Z" fill="#C2AACF"/>
<path d="M195.72 354.69H229.05V325.084H195.72C187.544 325.084 180.917 331.712 180.917 339.887C180.917 348.062 187.544 354.69 195.72 354.69Z" fill="#A583BB"/>
<path d="M282.95 302V354.69C282.95 365.26 274.39 373.82 263.82 373.82H248.18C237.61 373.82 229.05 365.26 229.05 354.69V302C229.05 291.43 237.61 282.87 248.18 282.87H263.82C274.39 282.87 282.95 291.43 282.95 302Z" fill="#334353"/>
<path d="M282.95 302V354.69C282.95 365.26 274.39 373.82 263.82 373.82H256V282.87H263.82C274.39 282.87 282.95 291.43 282.95 302Z" fill="#3E4E60"/>
<path d="M282.95 347.48V354.69C282.95 365.26 274.39 373.82 263.82 373.82H248.18C237.61 373.82 229.05 365.26 229.05 354.69V347.48C229.05 336.91 237.61 328.34 248.18 328.34H263.82C274.39 328.34 282.95 336.91 282.95 347.48Z" fill="#2E3140"/>
<path d="M282.95 347.48V354.69C282.95 365.26 274.39 373.82 263.82 373.82H256V328.34H263.82C274.39 328.34 282.95 336.91 282.95 347.48Z" fill="#334353"/>
<path d="M261.339 363.116C259.432 360.484 260.02 356.805 262.651 354.898L267.946 351.061C270.578 349.154 274.257 349.742 276.164 352.373C278.071 355.005 277.483 358.684 274.852 360.591L269.557 364.428C266.926 366.335 263.246 365.747 261.339 363.116Z" fill="#EA7589"/>
<path d="M250.661 363.116C252.568 360.484 251.98 356.805 249.349 354.898L244.054 351.061C241.422 349.154 237.743 349.742 235.836 352.373C233.929 355.005 234.517 358.684 237.148 360.591L242.443 364.428C245.074 366.335 248.754 365.747 250.661 363.116Z" fill="#DD5273"/>
<path d="M126.659 247.452H172.18C176.962 247.452 180.839 251.38 180.839 256.226C180.839 261.072 176.962 265 172.18 265H126.659C121.877 265 118 261.072 118 256.226C118 251.38 121.877 247.452 126.659 247.452Z" fill="#F9A824"/>
<path d="M121.951 249.616L137.015 238.216L140.864 243.438L125.8 254.838L121.951 249.616Z" fill="#F9A824"/>
<path d="M173.169 251.964H205.826C208.148 251.964 210.031 253.872 210.031 256.226C210.031 258.58 208.148 260.488 205.826 260.488H173.169C170.847 260.488 168.964 258.58 168.964 256.226C168.964 253.872 170.847 251.964 173.169 251.964Z" fill="#FDD835"/>
<path d="M298.104 243.942H176.88C175.514 243.942 174.406 245.065 174.406 246.449V265H298.104V243.942Z" fill="#FDD835"/>
<path d="M335.214 239.931H386.672V265H335.214V239.931Z" fill="#FDEF59"/>
<path d="M171.19 260.488H227.596C228.826 260.488 229.823 261.498 229.823 262.744C229.823 263.99 228.826 265 227.596 265H171.19C169.96 265 168.964 263.99 168.964 262.744C168.964 261.498 169.96 260.488 171.19 260.488Z" fill="#F9A824"/>
<path d="M133.339 243.942H176.385V249.457H133.339V243.942Z" fill="#F9A824"/>
<path d="M170.162 252.649L174.651 245.233C175.267 244.216 176.58 243.897 177.584 244.521C178.588 245.145 178.903 246.475 178.287 247.493L173.798 254.909C173.182 255.926 171.869 256.245 170.865 255.621C169.861 254.997 169.546 253.666 170.162 252.649Z" fill="#FDD835"/>
<path d="M293.404 243.942H384.445C385.675 243.942 386.672 244.952 386.672 246.198C386.672 247.444 385.675 248.454 384.445 248.454H293.404C292.174 248.454 291.177 247.444 291.177 246.198C291.177 244.952 292.174 243.942 293.404 243.942Z" fill="#FDEF59"/>
<path d="M353.521 255.975C353.521 251.822 350.198 248.454 346.099 248.454H277.323V265H353.521V255.975Z" fill="#FDD835"/>
<path d="M373.164 222.138C373.512 217.842 377.231 214.647 381.47 215C385.709 215.353 388.863 219.121 388.515 223.417L386.609 246.901C386.261 251.196 382.542 254.392 378.303 254.039C374.064 253.686 370.91 249.917 371.258 245.622L373.164 222.138Z" fill="#FDEF59"/>
<path d="M373.065 248.454H394.836C399.345 248.454 403 252.158 403 256.727C403 261.296 399.345 265 394.836 265H373.065C368.556 265 364.901 261.296 364.901 256.727C364.901 252.158 368.556 248.454 373.065 248.454Z" fill="#FDEF59"/>
<path d="M379.752 248.261L386.622 239.705L399.84 250.603L392.97 259.159L379.752 248.261Z" fill="#FDEF59"/>
<path d="M155.604 239.931H384.693C385.786 239.931 386.672 240.829 386.672 241.936C386.672 243.044 385.786 243.942 384.693 243.942H155.604C154.511 243.942 153.625 243.044 153.625 241.936C153.625 240.829 154.511 239.931 155.604 239.931Z" fill="#F9A824"/>
<path d="M133.277 223.711C132.929 219.415 136.083 215.647 140.322 215.294C144.561 214.941 148.28 218.137 148.628 222.432L150.533 245.916C150.881 250.212 147.727 253.98 143.488 254.333C139.249 254.686 135.53 251.49 135.182 247.195L133.277 223.711Z" fill="#F9A824"/>
<path d="M142.74 215.614C142.74 199.976 145.786 184.492 151.704 170.044C157.622 155.597 166.296 142.469 177.231 131.412L260.5 215.614H142.74Z" fill="#F9A824"/>
<path d="M177.231 131.412C187.181 121.35 198.835 113.173 211.638 107.269L260.5 215.613L177.231 131.412Z" fill="#FDD835"/>
<path d="M211.516 115.086C186.375 115.086 165.995 135.738 165.995 161.213V214.862H211.516V115.086Z" fill="#FDD835"/>
<path d="M142.74 214.862H217.948V243.942H142.74V214.862Z" fill="#F9A824"/>
<path d="M211.516 219.374H165.995V227.396C165.995 234.319 171.533 239.931 178.365 239.931H211.516V219.374Z" fill="#FDD835"/>
<path d="M343.769 131.412C354.704 142.469 363.379 155.597 369.296 170.044C375.214 184.492 378.26 199.976 378.26 215.614H260.5L343.769 131.412Z" fill="#FDEF59"/>
<path d="M308.66 106.948C320.954 112.519 332.211 120.183 341.942 129.604L260.5 215.614L308.66 106.948Z" fill="#FDD835"/>
<path d="M244.172 84C226.136 84 211.516 98.8155 211.516 117.091V239.931H244.172V84Z" fill="#F9A824"/>
<path d="M309.979 117.091C309.979 98.8155 295.359 84 277.323 84V239.931H309.979V117.091Z" fill="#F9A824"/>
<path d="M244.172 96.5347H277.323V239.931H244.172V96.5347Z" fill="#FDD835"/>
<path d="M353.521 152.69C353.521 136.629 340.673 123.609 324.823 123.609H309.979V214.862H353.521V152.69Z" fill="#FDD835"/>
<path d="M324.823 215.864H379.745V239.931H324.823V215.864Z" fill="#FDEF59"/>
<path d="M353.521 227.897C353.521 225.405 351.527 223.385 349.068 223.385H309.979V239.931H353.521V227.897Z" fill="#FDD835"/>
<path d="M309.979 215.864H324.823V238.427H309.979V215.864Z" fill="#FDD835"/>
<path d="M379.745 216.344C379.745 215.248 378.869 214.36 377.787 214.36H309.979V219.374H376.754C378.406 219.374 379.745 218.017 379.745 216.344Z" fill="#F9A824"/>
<path d="M260.5 231.909C226.615 231.909 199.146 204.073 199.146 169.737C199.146 135.4 226.615 107.565 260.5 107.565C294.385 107.565 321.854 135.4 321.854 169.737C321.854 204.073 294.385 231.909 260.5 231.909Z" fill="#FDEF59"/>
<path d="M260.5 203.33C242.464 203.33 227.844 188.514 227.844 170.238C227.844 151.962 242.464 137.147 260.5 137.147C278.536 137.147 293.156 151.962 293.156 170.238C293.156 188.514 278.536 203.33 260.5 203.33Z" fill="#E2F4FF"/>
<path d="M267.674 196.31C248.136 196.31 232.297 180.26 232.297 160.461C232.297 140.662 248.136 124.612 267.674 124.612C287.213 124.612 303.052 140.662 303.052 160.461C303.052 180.26 287.213 196.31 267.674 196.31Z" fill="white"/>
<path d="M207.557 170.99C207.557 201.035 231.593 225.391 261.242 225.391C290.892 225.391 314.927 201.035 314.927 170.99C314.927 140.946 290.892 116.59 261.242 116.59C231.593 116.59 207.557 140.946 207.557 170.99ZM300.331 170.99C300.331 192.866 282.83 210.6 261.242 210.6C239.654 210.6 222.154 192.866 222.154 170.99C222.154 149.115 239.654 131.381 261.242 131.381C282.83 131.381 300.331 149.115 300.331 170.99Z" fill="#F9A824"/>
<path d="M219.432 170.238C219.432 192.945 237.598 211.352 260.005 211.352C282.413 211.352 300.578 192.945 300.578 170.238C300.578 147.532 282.413 129.125 260.005 129.125C237.598 129.125 219.432 147.532 219.432 170.238ZM292.167 170.238C292.167 188.238 277.768 202.828 260.005 202.828C242.243 202.828 227.844 188.238 227.844 170.238C227.844 152.239 242.243 137.648 260.005 137.648C277.768 137.648 292.167 152.239 292.167 170.238Z" fill="#F17F16"/>
<path d="M237.49 84.7345C228.51 87.095 219.844 90.5452 211.68 95.0102L212.759 97.0366C220.762 92.6595 229.257 89.2773 238.06 86.9634L237.49 84.7345Z" fill="#F9A824"/>
<path d="M211.516 95.0305H222.401V115.086H211.516V95.0305Z" fill="#F9A824"/>
<path d="M299.094 95.0305H309.979V115.086H299.094V95.0305Z" fill="#F9A824"/>
<path d="M226.359 90.518H222.401C218.575 90.518 215.474 93.6607 215.474 97.5374V110.573H226.359V90.518Z" fill="#F9A824"/>
<path d="M306.021 97.036C306.021 93.9901 303.584 91.5208 300.578 91.5208C297.572 91.5208 295.135 93.9901 295.135 97.036V111.576H306.021V97.036Z" fill="#F9A824"/>
<path d="M310.102 94.1727C302.878 90.702 295.375 87.8646 287.674 85.6914L286.984 88.2024C294.544 90.3356 301.909 93.121 309 96.5279L310.102 94.1727Z" fill="#F9A824"/>
<path d="M325.318 219.374H357.974C359.067 219.374 359.953 220.272 359.953 221.38C359.953 222.487 359.067 223.385 357.974 223.385H325.318C324.225 223.385 323.339 222.487 323.339 221.38C323.339 220.272 324.225 219.374 325.318 219.374Z" fill="#FDEF59"/>
</svg>
