<svg width="512" height="512" viewBox="0 0 512 512" fill="none" xmlns="http://www.w3.org/2000/svg">
<path d="M256 512C397.385 512 512 397.385 512 256C512 114.615 397.385 0 256 0C114.615 0 0 114.615 0 256C0 397.385 114.615 512 256 512Z" fill="#6C53A2"/>
<path d="M459.2 289.56L367.62 441.65C355.3 462.11 333.16 474.63 309.26 474.63H202.8C178.88 474.63 156.71 462.08 144.39 441.57L52.76 288.92C42.86 272.44 40.39 252.56 45.95 234.16L86.11 101.18C94.79 72.42 121.28 52.75 151.32 52.75H360.64C390.7 52.75 417.2 72.45 425.87 101.23L466.08 234.77C471.62 253.19 469.12 273.08 459.2 289.56Z" fill="#BF5E39"/>
<path d="M459.2 289.56L367.62 441.65C355.3 462.11 333.16 474.63 309.26 474.63H256V52.75H360.64C390.7 52.75 417.2 72.45 425.87 101.23L466.08 234.77C471.62 253.19 469.12 273.08 459.2 289.56Z" fill="#DD5E26"/>
<path d="M413.234 132.601L396.113 107.007C384.633 89.86 360.349 87.477 345.758 102.068L310.097 137.729C304.779 135.96 221.901 137.132 214.148 136.816C209.986 136.816 205.897 137.129 201.901 137.729L166.24 102.068C151.649 87.477 127.365 89.86 115.885 107.007L98.765 132.601C90.072 145.584 91.767 162.903 102.817 173.952L133.481 204.616C131.34 211.935 132.544 292.877 132.271 302.395C132.271 347.617 168.926 384.271 214.148 384.271H297.85C343.072 384.271 379.727 347.616 379.727 302.394C379.414 292.526 380.793 212.376 378.517 204.615L409.181 173.951C420.232 162.903 421.927 145.584 413.234 132.601Z" fill="#F9C744"/>
<path d="M409.183 173.955L378.52 204.618C380.777 211.911 379.37 292.893 379.728 302.393C379.728 347.614 343.073 384.269 297.851 384.269H256V136.813C265.274 137.077 301.594 136.048 310.098 137.731L345.761 102.068C360.348 87.472 384.635 89.859 396.113 107.002L413.237 132.6C421.925 145.586 420.231 162.907 409.183 173.955Z" fill="#FBCB74"/>
<path d="M330.659 307.096V342.737C330.659 349.6 337.872 354.073 344.02 351.021L357 344.577C359.769 343.202 361.668 340.535 362.061 337.469L366.67 301.509C367.56 294.566 360.712 289.189 354.178 291.701L336.589 298.464C333.016 299.837 330.659 303.269 330.659 307.096Z" fill="#FBD9A3"/>
<path d="M181.341 307.096V342.737C181.341 349.6 174.128 354.073 167.98 351.021L155 344.577C152.231 343.202 150.332 340.535 149.939 337.469L145.33 301.509C144.44 294.566 151.288 289.189 157.822 291.701L175.411 298.464C178.984 299.837 181.341 303.269 181.341 307.096Z" fill="#FBCB74"/>
<path d="M314.404 318.471V383.486C314.404 404.833 297.093 422.144 275.746 422.144H236.254C214.907 422.144 197.596 404.832 197.596 383.476V318.471C197.596 305.85 203.644 294.643 212.998 287.584C219.318 282.828 223.166 275.487 223.166 267.576V252.418C223.166 243.346 230.516 235.986 239.588 235.986H272.414C281.486 235.986 288.836 243.345 288.836 252.418V267.576C288.836 275.487 292.684 282.828 299.004 287.584C308.356 294.643 314.404 305.85 314.404 318.471Z" fill="#FBCB74"/>
<path d="M314.404 318.471V383.486C314.404 404.833 297.093 422.144 275.746 422.144H256V235.986H272.413C281.485 235.986 288.835 243.345 288.835 252.418V267.576C288.835 275.487 292.683 282.828 299.003 287.584C308.356 294.643 314.404 305.85 314.404 318.471Z" fill="#FBD9A3"/>
<path d="M315.847 380.537C314.227 379.741 312.262 380.411 311.463 382.032C311.378 382.205 302.772 399.321 288.299 399.321C276.888 399.056 264.104 400.607 260.396 391.342C268.077 389.508 273.837 382.098 273.724 374.189C273.538 370.829 276.214 367.941 279.594 367.952H283.282C285.868 367.952 287.963 365.856 287.963 363.271C287.963 360.686 285.867 358.59 283.282 358.59H279.594C271.195 358.59 264.361 365.423 264.361 373.823C264.554 377.521 262.043 381.123 258.492 382.168C257.32 380.632 254.678 380.633 253.506 382.169C250.092 381.089 247.642 377.71 247.642 373.823C247.642 365.424 240.808 358.59 232.409 358.59H228.721C226.135 358.59 224.04 360.686 224.04 363.271C224.04 365.856 226.136 367.952 228.721 367.952H232.409C235.646 367.952 238.279 370.585 238.279 373.822C238.279 382.144 243.893 389.378 251.597 391.357C247.895 400.598 235.104 399.056 223.7 399.321C209.226 399.321 200.621 382.205 200.535 382.031C199.74 380.409 197.778 379.736 196.154 380.531C194.528 381.326 193.854 383.289 194.649 384.914C195.206 386.515 206.756 407.408 225.687 405.876C237.605 405.843 249.938 406.162 255.998 397.054C262.305 406.672 276.159 405.816 288.297 405.874C306.886 405.874 316.928 385.77 317.347 384.914C318.142 383.292 317.47 381.334 315.847 380.537Z" fill="#F39E22"/>
<path d="M378.356 385.559C361.505 356.735 321.876 359.098 289.074 372.695C287.398 373.369 286.574 375.269 287.239 376.955C287.913 378.631 289.814 379.455 291.499 378.79C309.213 371.749 325.13 368.697 338.5 369.69C355.052 370.497 368.201 380.006 372.421 388.341C374.36 392.215 380.097 389.514 378.356 385.559Z" fill="#F4E6F4"/>
<path d="M378.356 385.559C380.087 389.503 374.383 392.226 372.42 388.34C368.18 379.981 355.036 370.499 338.499 369.69C338.003 367.48 337.591 365.243 337.291 362.968C357.074 363.554 373.221 374.936 378.356 385.559Z" fill="white"/>
<path d="M393.808 345.397C370.281 321.706 332.504 333.911 304.147 355.283C302.693 356.355 302.371 358.401 303.436 359.866C304.508 361.32 306.554 361.642 308.02 360.577C323.409 349.328 338.055 342.39 351.248 340.005C367.475 336.645 382.586 342.561 388.757 349.574C391.604 352.842 396.483 348.791 393.808 345.397Z" fill="#F4E6F4"/>
<path d="M393.808 345.397C396.471 348.783 391.629 352.846 388.757 349.575C382.56 342.542 367.462 336.652 351.248 340.006C350.215 337.991 349.256 335.927 348.396 333.8C367.697 329.418 386.178 336.397 393.808 345.397Z" fill="white"/>
<path d="M135.217 389.922C136.823 390.678 138.801 390.002 139.58 388.34C143.87 379.92 156.991 370.507 173.501 369.69C186.871 368.697 202.787 371.749 220.502 378.79C222.187 379.455 224.088 378.631 224.762 376.955C225.427 375.27 224.603 373.369 222.927 372.695C196.816 362.851 174.965 358.468 152.51 368.359C138.747 374.932 133.85 385.128 133.644 385.559C132.876 387.198 133.578 389.145 135.217 389.922Z" fill="#F4E6F4"/>
<path d="M133.644 385.559C131.913 389.503 137.617 392.226 139.58 388.34C143.82 379.981 156.964 370.499 173.501 369.69C173.997 367.48 174.409 365.243 174.709 362.968C154.926 363.554 138.779 374.936 133.644 385.559Z" fill="white"/>
<path d="M118.623 350.015C119.989 351.149 122.073 350.989 123.243 349.575C129.454 342.517 144.613 336.656 160.752 340.006C173.945 342.39 188.591 349.328 203.98 360.578C205.445 361.643 207.492 361.321 208.564 359.867C209.629 358.402 209.307 356.355 207.853 355.283C185.036 339.219 164.976 329.507 140.761 333.465C125.791 336.385 118.499 345.032 118.191 345.397C117.038 346.792 117.231 348.853 118.623 350.015Z" fill="#F4E6F4"/>
<path d="M118.192 345.397C115.529 348.783 120.371 352.846 123.243 349.575C129.44 342.542 144.538 336.652 160.752 340.006C161.785 337.991 162.744 335.927 163.604 333.8C144.303 329.418 125.822 336.397 118.192 345.397Z" fill="white"/>
<path d="M242.962 371.014C243.6 388.941 268.701 388.677 269.043 371.014C269.043 365.187 273.767 360.463 279.594 360.463H283.283C290.485 360.463 296.324 354.624 296.324 347.422C296.324 340.22 290.486 334.381 283.283 334.381H228.722C221.52 334.381 215.681 340.219 215.681 347.422C215.681 354.624 221.519 360.463 228.722 360.463H232.411C238.238 360.463 242.962 365.187 242.962 371.014Z" fill="#EA792E"/>
<path d="M277.092 352.244H246.347C234.513 351.791 234.501 334.84 246.347 334.381H277.092C288.926 334.835 288.938 351.785 277.092 352.244Z" fill="#F39E22"/>
<path d="M283.283 304.352V334.378H256V277.069C271.065 277.069 283.283 289.288 283.283 304.352Z" fill="#FBCB74"/>
<path d="M228.719 304.352V334.378H256.002V277.069C240.938 277.069 228.719 289.288 228.719 304.352Z" fill="#F9C744"/>
<path d="M347.288 257.994C345.332 246.903 323.055 241.561 311.964 243.516C300.873 245.472 293.468 256.048 295.423 267.139C297.378 278.23 307.955 285.635 319.046 283.68C330.137 281.724 349.243 269.084 347.288 257.994Z" fill="#DD5E26"/>
<path d="M324.069 252.935L327.199 270.688C327.566 272.771 327.05 274.811 325.93 276.422C322.133 281.957 313.22 280.059 312.089 273.353L308.959 255.6C307.567 245.557 321.893 242.95 324.069 252.935Z" fill="#3E4E60"/>
<path d="M324.069 252.935L327.199 270.688C327.569 272.815 327.037 274.904 325.849 276.527C322.308 276.4 319.218 273.822 318.578 270.193L315.448 252.44C315.072 250.309 315.621 248.221 316.805 246.6C320.34 246.728 323.429 249.306 324.069 252.935Z" fill="#2E3140"/>
<path d="M334.787 254.993C334.09 251.038 330.318 248.397 326.364 249.095C316.934 251.136 319.333 264.725 328.889 263.417C332.844 262.719 335.484 258.948 334.787 254.993Z" fill="white"/>
<path d="M165.712 257.994C167.668 246.903 189.945 241.561 201.036 243.516C212.127 245.472 219.532 256.048 217.577 267.139C215.621 278.23 205.045 285.635 193.954 283.68C182.863 281.724 163.757 269.084 165.712 257.994Z" fill="#DD5E26"/>
<path d="M204.04 255.599L200.91 273.352C200.543 275.435 199.36 277.176 197.757 278.306C192.296 282.208 184.57 277.376 185.801 270.688L188.931 252.935C191.056 243.022 205.41 245.472 204.04 255.599Z" fill="#3E4E60"/>
<path d="M204.04 255.599L200.91 273.352C200.531 275.477 199.316 277.258 197.645 278.377C194.361 277.046 192.339 273.567 192.979 269.938L196.109 252.185C196.485 250.054 197.714 248.28 199.382 247.162C202.658 248.491 204.68 251.97 204.04 255.599Z" fill="#2E3140"/>
<path d="M198.35 258.544C199.047 254.589 202.819 251.948 206.773 252.646C216.203 254.687 213.804 268.276 204.248 266.968C200.294 266.27 197.653 262.499 198.35 258.544Z" fill="white"/>
<path d="M307.741 192.416H298.08C290.036 192.416 283.515 198.937 283.515 206.981V219.932C283.515 227.976 290.036 234.497 298.08 234.497H307.741C315.785 234.497 322.306 227.976 322.306 219.932V206.98C322.306 198.937 315.785 192.416 307.741 192.416Z" fill="#F9C744"/>
<path d="M213.92 192.416H204.259C196.215 192.416 189.694 198.937 189.694 206.981V219.932C189.694 227.976 196.215 234.497 204.259 234.497H213.92C221.964 234.497 228.485 227.976 228.485 219.932V206.98C228.485 198.937 221.964 192.416 213.92 192.416Z" fill="#F39E22"/>
<path d="M276.511 162.161V198.425C276.511 209.753 267.328 218.936 256 218.936V141.65C267.326 141.65 276.511 150.836 276.511 162.161Z" fill="#FBD9A3"/>
<path d="M235.491 162.161V198.425C235.491 209.753 244.674 218.936 256.002 218.936V141.65C244.677 141.65 235.491 150.836 235.491 162.161Z" fill="#FBCB74"/>
<path d="M353.679 188.925L326.552 161.798C322.449 157.695 322.449 151.043 326.552 146.939L343.615 129.876C352.67 120.821 367.743 122.3 374.865 132.943L385.492 148.824C390.885 156.883 389.83 167.631 382.973 174.488L368.537 188.924C364.435 193.028 357.782 193.028 353.679 188.925Z" fill="#F9C744"/>
<path d="M158.321 188.925L185.448 161.798C189.551 157.695 189.551 151.043 185.448 146.939L168.385 129.876C159.33 120.821 144.257 122.3 137.135 132.943L126.508 148.824C121.115 156.883 122.17 167.631 129.027 174.488L143.463 188.924C147.565 193.028 154.218 193.028 158.321 188.925Z" fill="#F39E22"/>
<path d="M166.723 80.764C159.293 73.334 155.119 63.257 155.119 52.75H256V144.393V177.807C256 184.725 251.778 190.943 245.348 193.496L135.272 237.184C134.299 237.57 133.295 237.861 132.272 238.061V302.667H110.209C96.192 302.667 83.244 295.178 76.254 283.029L69.38 271.082C65.961 265.139 64.161 258.402 64.161 251.546V221.355H64.169C64.185 219.81 64.409 218.234 64.881 216.659C64.881 210.009 70.272 204.617 76.923 204.617C108.281 204.846 130.447 206.837 155.002 183.098L180.658 157.442C197.985 140.115 197.984 112.024 180.658 94.697L166.723 80.764Z" fill="#DD5E26"/>
<path d="M345.28 80.764C352.71 73.334 356.884 63.257 356.884 52.75H256.003V144.393V177.807C256.003 184.725 260.225 190.943 266.655 193.496L376.731 237.184C377.704 237.57 378.708 237.861 379.731 238.06V302.666H401.795C415.812 302.666 428.76 295.177 435.75 283.028L442.624 271.081C446.043 265.138 447.843 258.401 447.843 251.545V221.354H447.835C447.819 219.809 447.595 218.233 447.123 216.658C447.123 210.008 441.732 204.616 435.081 204.616C403.75 204.853 381.516 206.818 357.002 183.098L331.346 157.442C314.02 140.116 314.02 112.024 331.346 94.697L345.28 80.764Z" fill="#EA792E"/>
<path d="M256 467.256H323.513C333.959 467.256 342.428 458.788 342.428 448.341C342.428 437.895 333.96 429.426 323.513 429.426H256V467.256Z" fill="#EA792E"/>
<path d="M256.003 429.427H188.49C178.044 429.427 169.575 437.895 169.575 448.342C169.575 458.788 178.043 467.257 188.49 467.257H256.003V429.427V429.427Z" fill="#DD5E26"/>
<path d="M117.932 200.773H164.891C169.824 200.773 173.823 204.853 173.823 209.886C173.823 214.92 169.824 219 164.891 219H117.932C112.999 219 109 214.92 109 209.886C109 204.853 112.999 200.773 117.932 200.773Z" fill="#F9A824"/>
<path d="M113.076 203.021L128.616 191.18L132.586 196.604L117.046 208.445L113.076 203.021Z" fill="#F9A824"/>
<path d="M165.911 205.46H199.599C201.995 205.46 203.938 207.442 203.938 209.886C203.938 212.331 201.995 214.313 199.599 214.313H165.911C163.515 214.313 161.573 212.331 161.573 209.886C161.573 207.442 163.515 205.46 165.911 205.46Z" fill="#FDD835"/>
<path d="M294.792 197.128H169.74C168.33 197.128 167.188 198.294 167.188 199.731V219H294.792V197.128Z" fill="#FDD835"/>
<path d="M333.073 192.961H386.156V219H333.073V192.961Z" fill="#FDEF59"/>
<path d="M163.87 214.313H222.057C223.326 214.313 224.354 215.362 224.354 216.656C224.354 217.951 223.326 219 222.057 219H163.87C162.601 219 161.573 217.951 161.573 216.656C161.573 215.362 162.601 214.313 163.87 214.313Z" fill="#F9A824"/>
<path d="M124.823 197.128H169.229V202.856H124.823V197.128Z" fill="#F9A824"/>
<path d="M162.809 206.171L167.44 198.468C168.076 197.412 169.43 197.081 170.466 197.729C171.501 198.377 171.826 199.759 171.191 200.815L166.56 208.518C165.924 209.575 164.57 209.906 163.534 209.258C162.499 208.61 162.174 207.228 162.809 206.171Z" fill="#FDD835"/>
<path d="M289.943 197.128H383.859C385.128 197.128 386.156 198.177 386.156 199.471C386.156 200.765 385.128 201.814 383.859 201.814H289.943C288.674 201.814 287.646 200.765 287.646 199.471C287.646 198.177 288.674 197.128 289.943 197.128Z" fill="#FDEF59"/>
<path d="M351.958 209.626C351.958 205.312 348.53 201.814 344.302 201.814H273.354V219H351.958V209.626Z" fill="#FDD835"/>
<path d="M372.222 174.48C372.581 170.019 376.418 166.699 380.79 167.066C385.163 167.433 388.417 171.347 388.057 175.809L386.092 200.201C385.732 204.662 381.896 207.982 377.523 207.615C373.15 207.248 369.897 203.334 370.256 198.872L372.222 174.48Z" fill="#FDEF59"/>
<path d="M372.12 201.814H394.578C399.229 201.814 403 205.662 403 210.407C403 215.153 399.229 219 394.578 219H372.12C367.469 219 363.698 215.153 363.698 210.407C363.698 205.662 367.469 201.814 372.12 201.814Z" fill="#FDEF59"/>
<path d="M379.018 201.614L386.105 192.727L399.74 204.046L392.653 212.933L379.018 201.614Z" fill="#FDEF59"/>
<path d="M147.792 192.961H384.115C385.242 192.961 386.156 193.894 386.156 195.044C386.156 196.195 385.242 197.127 384.115 197.127H147.792C146.664 197.127 145.75 196.195 145.75 195.044C145.75 193.894 146.664 192.961 147.792 192.961Z" fill="#F9A824"/>
<path d="M124.76 176.114C124.4 171.652 127.654 167.738 132.027 167.371C136.4 167.005 140.236 170.324 140.595 174.786L142.56 199.178C142.92 203.64 139.666 207.554 135.293 207.921C130.92 208.287 127.084 204.968 126.724 200.506L124.76 176.114Z" fill="#F9A824"/>
<path d="M134.521 167.704C134.521 151.461 137.663 135.378 143.768 120.372C149.873 105.366 158.821 91.7308 170.101 80.2456L256 167.704H134.521Z" fill="#F9A824"/>
<path d="M170.101 80.2455C180.366 69.7946 192.387 61.3014 205.595 55.1689L256 167.704L170.101 80.2455Z" fill="#FDD835"/>
<path d="M205.469 63.2881C179.534 63.2881 158.51 84.7389 158.51 111.2V166.922H205.469V63.2881Z" fill="#FDD835"/>
<path d="M134.521 166.922H212.104V197.127H134.521V166.922Z" fill="#F9A824"/>
<path d="M205.469 171.609H158.51V179.942C158.51 187.132 164.223 192.961 171.271 192.961H205.469V171.609Z" fill="#FDD835"/>
<path d="M341.899 80.2456C353.179 91.7308 362.127 105.366 368.232 120.372C374.337 135.378 377.479 151.461 377.479 167.704H256L341.899 80.2456Z" fill="#FDEF59"/>
<path d="M305.681 54.8355C318.363 60.6223 329.976 68.5819 340.014 78.3679L256 167.704L305.681 54.8355Z" fill="#FDD835"/>
<path d="M239.156 31C220.551 31 205.469 46.3885 205.469 65.3712V192.961H239.156V31Z" fill="#F9A824"/>
<path d="M307.042 65.3712C307.042 46.3885 291.959 31 273.354 31V192.961H307.042V65.3712Z" fill="#F9A824"/>
<path d="M239.156 44.0194H273.354V192.961H239.156V44.0194Z" fill="#FDD835"/>
<path d="M351.958 102.346C351.958 85.6643 338.704 72.1413 322.354 72.1413H307.042V166.922H351.958V102.346Z" fill="#FDD835"/>
<path d="M322.354 167.964H379.01V192.961H322.354V167.964Z" fill="#FDEF59"/>
<path d="M351.958 180.463C351.958 177.874 349.902 175.776 347.365 175.776H307.042V192.961H351.958V180.463Z" fill="#FDD835"/>
<path d="M307.042 167.964H322.354V191.399H307.042V167.964Z" fill="#FDD835"/>
<path d="M379.01 168.462C379.01 167.324 378.106 166.402 376.991 166.402H307.042V171.609H375.925C377.629 171.609 379.01 170.2 379.01 168.462Z" fill="#F9A824"/>
<path d="M256 184.629C221.045 184.629 192.708 155.717 192.708 120.053C192.708 84.3882 221.045 55.4764 256 55.4764C290.955 55.4764 319.292 84.3882 319.292 120.053C319.292 155.717 290.955 184.629 256 184.629Z" fill="#FDEF59"/>
<path d="M256 154.945C237.395 154.945 222.312 139.556 222.312 120.573C222.312 101.591 237.395 86.2022 256 86.2022C274.605 86.2022 289.687 101.591 289.687 120.573C289.687 139.556 274.605 154.945 256 154.945Z" fill="#E2F4FF"/>
<path d="M263.401 147.654C243.245 147.654 226.906 130.983 226.906 110.418C226.906 89.8537 243.245 73.1829 263.401 73.1829C283.557 73.1829 299.896 89.8537 299.896 110.418C299.896 130.983 283.557 147.654 263.401 147.654Z" fill="white"/>
<path d="M201.385 121.355C201.385 152.561 226.18 177.859 256.766 177.859C287.351 177.859 312.146 152.561 312.146 121.355C312.146 90.1482 287.351 64.8504 256.766 64.8504C226.18 64.8504 201.385 90.1482 201.385 121.355ZM297.089 121.355C297.089 144.076 279.035 162.496 256.766 162.496C234.496 162.496 216.443 144.076 216.443 121.355C216.443 98.6332 234.496 80.2133 256.766 80.2133C279.035 80.2133 297.089 98.6332 297.089 121.355Z" fill="#F9A824"/>
<path d="M213.635 120.573C213.635 144.158 232.374 163.277 255.49 163.277C278.605 163.277 297.344 144.158 297.344 120.573C297.344 96.9891 278.605 77.8698 255.49 77.8698C232.374 77.8698 213.635 96.9891 213.635 120.573ZM288.667 120.573C288.667 139.269 273.813 154.424 255.49 154.424C237.166 154.424 222.313 139.269 222.313 120.573C222.313 101.878 237.166 86.723 255.49 86.723C273.813 86.723 288.667 101.878 288.667 120.573Z" fill="#F17F16"/>
<path d="M232.263 31.7629C222.999 34.2147 214.06 37.7983 205.638 42.4361L206.751 44.5408C215.007 39.9945 223.771 36.4815 232.852 34.078L232.263 31.7629Z" fill="#F9A824"/>
<path d="M205.469 42.4571H216.698V63.2881H205.469V42.4571Z" fill="#F9A824"/>
<path d="M295.813 42.4571H307.042V63.2881H295.813V42.4571Z" fill="#F9A824"/>
<path d="M220.781 37.7701H216.698C212.751 37.7701 209.552 41.0343 209.552 45.0609V58.6011H220.781V37.7701Z" fill="#F9A824"/>
<path d="M302.958 44.5402C302.958 41.3764 300.444 38.8116 297.344 38.8116C294.243 38.8116 291.729 41.3764 291.729 44.5402V59.6427H302.958V44.5402Z" fill="#F9A824"/>
<path d="M307.168 41.5661C299.717 37.9612 291.976 35.0141 284.032 32.7568L283.32 35.3649C291.119 37.5806 298.717 40.4738 306.032 44.0124L307.168 41.5661Z" fill="#F9A824"/>
<path d="M322.865 171.609H356.552C357.68 171.609 358.594 172.542 358.594 173.693C358.594 174.843 357.68 175.776 356.552 175.776H322.865C321.737 175.776 320.823 174.843 320.823 173.693C320.823 172.542 321.737 171.609 322.865 171.609Z" fill="#FDEF59"/>
</svg>
