<svg width="512" height="512" viewBox="0 0 512 512" fill="none" xmlns="http://www.w3.org/2000/svg">
<path d="M256 512C397.385 512 512 397.385 512 256C512 114.615 397.385 0 256 0C114.615 0 0 114.615 0 256C0 397.385 114.615 512 256 512Z" fill="#22BCE0"/>
<path d="M433.89 440.09C423.104 450.529 411.383 460.002 398.94 468.41H307.51C298.994 468.387 291.157 466.153 284.09 461.92C270.89 453.97 262.06 439.49 262.06 422.96V365.55C261.787 337.269 285.665 313.335 314.01 313.6C314.552 317.362 312.622 414.663 315.34 415.51H315.35C318.647 425.126 327.771 432.039 338.52 432.04H410.15C419.08 432.04 427.31 435.04 433.89 440.09Z" fill="#D15A96"/>
<path d="M422.27 450.66C414.841 457.008 407.042 462.933 398.94 468.41H307.51C298.994 468.387 291.157 466.153 284.09 461.92C270.89 453.97 262.06 439.49 262.06 422.96V365.55C262.064 359.955 262.945 354.413 264.7 349.17C269.716 333.829 282.205 321.32 297.54 316.27V421.14C297.54 433.98 307.95 444.38 320.78 444.38H405.11C411.65 444.38 417.64 446.74 422.27 450.66Z" fill="#ED72AB"/>
<path d="M291.63 379.085V348.11C291.63 342.286 286.909 337.565 281.085 337.565C275.261 337.565 270.54 342.286 270.54 348.11V379.085C271.102 393.068 291.063 393.08 291.63 379.085Z" fill="#FF9FB4"/>
<path d="M284.204 376.816V350.379C283.994 343.465 273.946 343.453 273.732 350.379V376.816C273.943 383.73 283.99 383.742 284.204 376.816Z" fill="#ED72AB"/>
<path d="M291.63 438.091V407.116C291.63 401.292 286.909 396.571 281.085 396.571C275.261 396.571 270.54 401.292 270.54 407.116V438.091C271.102 452.075 291.063 452.086 291.63 438.091Z" fill="#FF9FB4"/>
<path d="M284.204 435.822V409.385C283.994 402.471 273.946 402.459 273.732 409.385V435.822C273.943 442.736 283.99 442.748 284.204 435.822Z" fill="#ED72AB"/>
<path d="M316.9 455.24H292.296C287.67 455.24 283.92 458.99 283.92 463.616C283.92 468.242 287.67 471.992 292.296 471.992H316.9C327.992 471.584 328.002 455.651 316.9 455.24Z" fill="#FF9FB4"/>
<path d="M315.098 461.138H294.099C288.608 461.305 288.598 469.286 294.099 469.456H315.098C320.59 469.289 320.599 461.308 315.098 461.138Z" fill="#ED72AB"/>
<path d="M362.999 455.24H338.395C333.769 455.24 330.019 458.99 330.019 463.616C330.019 468.242 333.769 471.992 338.395 471.992H362.999C374.091 471.584 374.101 455.651 362.999 455.24Z" fill="#FF9FB4"/>
<path d="M361.197 461.138H340.198C334.707 461.305 334.697 469.286 340.198 469.456H361.197C366.689 469.289 366.698 461.308 361.197 461.138Z" fill="#ED72AB"/>
<path d="M409.1 455.24H384.49C373.425 455.62 373.399 471.599 384.49 471.99H393.47C400.693 467.394 407.666 462.42 414.39 457.13C412.95 455.95 411.11 455.24 409.1 455.24Z" fill="#FF9FB4"/>
<path d="M408.79 461.42C405.05 464.193 401.253 466.891 397.36 469.46H386.3C385.24 469.46 384.27 469.06 383.54 468.41C380.698 466.005 382.532 461.058 386.3 461.14H407.3C407.82 461.14 408.33 461.24 408.79 461.42Z" fill="#ED72AB"/>
<path d="M249.94 365.55V422.96C249.919 441.831 238.505 457.974 222.04 464.9C216.64 467.16 210.71 468.41 204.49 468.41H113.06C100.617 460.002 88.896 450.529 78.11 440.09C84.69 435.04 92.92 432.04 101.85 432.04H173.48C184.23 432.04 193.35 425.13 196.65 415.51H196.66C199.325 415.532 197.483 316.694 197.99 313.6C226.34 313.338 250.211 337.267 249.94 365.55Z" fill="#D15A96"/>
<path d="M249.94 365.55V422.96C249.919 441.831 238.505 457.974 222.04 464.9C216.64 467.16 210.71 468.41 204.49 468.41H113.06C104.958 462.933 97.159 457.008 89.73 450.66C94.36 446.74 100.35 444.38 106.89 444.38H191.22C204.05 444.38 214.46 433.98 214.46 421.14V316.27C235.271 322.98 250.215 343.656 249.94 365.55Z" fill="#ED72AB"/>
<path d="M220.37 379.085V348.11C220.37 342.286 225.091 337.565 230.915 337.565C236.739 337.565 241.46 342.286 241.46 348.11V379.085C240.898 393.068 220.937 393.08 220.37 379.085Z" fill="#FF9FB4"/>
<path d="M227.796 376.816V350.379C228.006 343.465 238.054 343.453 238.268 350.379V376.816C238.057 383.73 228.01 383.742 227.796 376.816Z" fill="#ED72AB"/>
<path d="M220.37 438.091V407.116C220.37 401.292 225.091 396.571 230.915 396.571C236.739 396.571 241.46 401.292 241.46 407.116V438.091C240.898 452.075 220.937 452.086 220.37 438.091Z" fill="#FF9FB4"/>
<path d="M227.796 435.822V409.385C228.006 402.471 238.054 402.459 238.268 409.385V435.822C238.057 442.736 228.01 442.748 227.796 435.822Z" fill="#ED72AB"/>
<path d="M195.1 455.24H219.704C224.33 455.24 228.08 458.99 228.08 463.616C228.08 468.242 224.33 471.992 219.704 471.992H195.1C184.008 471.584 183.998 455.651 195.1 455.24Z" fill="#FF9FB4"/>
<path d="M196.902 461.138H217.901C223.393 461.305 223.402 469.286 217.901 469.456H196.902C191.41 469.289 191.401 461.308 196.902 461.138Z" fill="#ED72AB"/>
<path d="M149.001 455.24H173.605C178.231 455.24 181.981 458.99 181.981 463.616C181.981 468.242 178.231 471.992 173.605 471.992H149.001C137.909 471.584 137.899 455.651 149.001 455.24Z" fill="#FF9FB4"/>
<path d="M150.803 461.138H171.802C177.294 461.305 177.303 469.286 171.802 469.456H150.803C145.311 469.289 145.302 461.308 150.803 461.138Z" fill="#ED72AB"/>
<path d="M135.88 463.62C135.894 468.196 132.129 472.005 127.51 471.99H118.53C111.307 467.394 104.334 462.42 97.61 457.13C99.05 455.95 100.89 455.24 102.9 455.24H127.51C132.13 455.24 135.88 458.99 135.88 463.62Z" fill="#FF9FB4"/>
<path d="M129.86 465.3C129.865 467.584 127.991 469.464 125.7 469.46H114.64C110.747 466.891 106.95 464.193 103.21 461.42C103.67 461.24 104.18 461.14 104.7 461.14H125.7C128 461.14 129.86 463 129.86 465.3Z" fill="#ED72AB"/>
<path d="M256 350.38C253.463 357.461 249.285 364.045 243.88 369.44L214.46 398.86C210.201 402.912 201.572 412.448 196.66 415.51H196.65C186.079 422.765 172.499 425.11 160.15 422C160.16 422 160.16 422 160.15 421.99C152.16 419.992 145.054 416.037 139.01 410.03C135.958 406.978 120.565 391.585 117.85 388.87H117.84L99.1 370.13V370.12L94.92 365.95C94.92 365.94 94.92 365.94 94.92 365.94L89.43 360.45C89.43 360.45 89.43 360.45 89.42 360.45L85.25 356.27H85.24C81.904 353.251 70.811 340.902 66.92 339.09C60.872 335.669 53.281 335.467 47.04 338.56C44.98 339.574 43.037 340.89 41.31 342.65L28.88 355.08C26.599 357.367 24.714 359.957 23.29 362.81C19.259 354.072 15.766 345.146 12.74 335.98L36.98 311.74C52.22 296.5 76.92 296.51 92.15 311.74L142.8 362.39C152.37 371.96 167.89 371.96 177.46 362.39L196.93 342.92C203.016 336.764 213.053 326.847 219.07 320.78C226.359 313.534 236.531 303.288 243.88 295.97C258.04 309.874 262.872 331.782 256 350.38Z" fill="#D15A96"/>
<path d="M256 350.38C254.5 354.55 252.44 358.57 249.84 362.32C246.402 367.804 229.947 383.085 225.31 388.01H225.3L214.46 398.85V398.86C210.153 402.961 201.607 412.413 196.66 415.51H196.65C186.079 422.765 172.499 425.11 160.15 422C160.16 422 160.16 422 160.15 421.99C152.16 419.992 145.054 416.037 139.01 410.03C135.958 406.978 120.565 391.585 117.85 388.87H117.84L99.1 370.13V370.12L94.92 365.95C94.92 365.94 94.92 365.94 94.92 365.94L89.43 360.45C89.43 360.45 89.43 360.45 89.42 360.45L85.25 356.27H85.24C81.904 353.251 70.811 340.902 66.92 339.09C60.872 335.669 53.281 335.467 47.04 338.56C44.98 339.574 43.037 340.89 41.31 342.65L28.88 355.08C26.599 357.367 24.714 359.957 23.29 362.81C21.93 359.896 20.664 356.95 19.43 353.98C19.61 353.77 19.8 353.58 20 353.38L49.35 324.03C59.74 313.64 76.6 313.64 86.99 324.03L146.62 383.66C155.69 392.73 170.41 392.73 179.48 383.66C188.158 374.926 205.817 357.363 214.46 348.68C225.432 337.593 242.776 320.447 253.64 309.5C259.962 322.098 260.825 337.1 256 350.38Z" fill="#ED72AB"/>
<path d="M213.401 358.1L235.304 336.197C239.422 332.079 246.098 332.079 250.216 336.197C254.334 340.315 254.334 346.991 250.216 351.109L228.313 373.012C218.029 382.503 203.906 368.397 213.401 358.1Z" fill="#FF9FB4"/>
<path d="M220.256 361.747L238.95 343.053C243.987 338.313 251.101 345.409 246.355 350.458L227.661 369.152C222.624 373.891 215.51 366.796 220.256 361.747Z" fill="#ED72AB"/>
<path d="M171.677 399.824L193.58 377.921C197.698 373.803 204.374 373.803 208.492 377.921C212.61 382.039 212.61 388.715 208.492 392.833L186.589 414.736C176.305 424.227 162.182 410.121 171.677 399.824Z" fill="#FF9FB4"/>
<path d="M178.532 403.47L197.226 384.776C202.263 380.036 209.377 387.132 204.631 392.181L185.937 410.875C180.9 415.615 173.786 408.519 178.532 403.47Z" fill="#ED72AB"/>
<path d="M141.683 394.081L159.08 411.478C166.635 419.609 155.375 430.882 147.235 423.323L129.838 405.926C122.283 397.795 133.542 386.522 141.683 394.081Z" fill="#FF9FB4"/>
<path d="M138.786 399.526L153.635 414.375C155.259 415.999 155.259 418.633 153.635 420.257C152.011 421.881 149.377 421.881 147.753 420.257L132.904 405.408C129.127 401.437 134.806 395.743 138.786 399.526Z" fill="#ED72AB"/>
<path d="M109.086 361.484L126.483 378.881C134.038 387.012 122.778 398.285 114.638 390.726L97.241 373.329C89.686 365.198 100.945 353.925 109.086 361.484Z" fill="#FF9FB4"/>
<path d="M106.189 366.929L121.038 381.778C122.662 383.402 122.662 386.036 121.038 387.66C119.414 389.284 116.78 389.284 115.156 387.66L100.307 372.811C96.53 368.84 102.209 363.146 106.189 366.929Z" fill="#ED72AB"/>
<path d="M76.489 328.887L93.886 346.284C101.441 354.415 90.181 365.688 82.041 358.129L64.644 340.732C57.089 332.601 68.348 321.328 76.489 328.887Z" fill="#FF9FB4"/>
<path d="M73.592 334.332L88.441 349.181C90.065 350.805 90.065 353.439 88.441 355.063C86.817 356.687 84.183 356.687 82.559 355.063L67.71 340.214C63.933 336.243 69.612 330.549 73.592 334.332Z" fill="#ED72AB"/>
<path d="M38.623 342.006L48.988 331.641C53.755 327.107 60.582 333.925 56.045 338.698L45.68 349.063C40.913 353.596 34.086 346.779 38.623 342.006Z" fill="#FF9FB4"/>
<path d="M41.867 343.731L50.713 334.885C53.052 332.623 56.483 336.045 54.217 338.389L45.371 347.235C43.032 349.497 39.601 346.075 41.867 343.731Z" fill="#ED72AB"/>
<path d="M37.2 355.47C37.2 356.75 36.72 358.02 35.75 359L26.07 368.67C24.511 365.486 23.008 362.284 21.59 359.04L28.69 351.94C31.744 348.77 37.317 351.163 37.2 355.47Z" fill="#FF9FB4"/>
<path d="M34.65 356.94C34.65 357.57 34.4 358.2 33.92 358.69L25.37 367.23C24.602 365.647 23.86 364.063 23.13 362.47C23.277 362.315 30.037 355.549 30.41 355.18C31.89 353.613 34.723 354.809 34.65 356.94Z" fill="#ED72AB"/>
<path d="M499.26 335.98C496.234 345.146 492.741 354.072 488.71 362.81C487.287 359.957 485.4 357.367 483.12 355.08L470.69 342.65C467.009 338.953 462.164 336.801 457.07 336.43C450.916 335.963 444.759 338.246 440.38 342.65L426.76 356.27H426.75L422.58 360.45C422.57 360.45 422.57 360.45 422.57 360.45L417.08 365.94C417.08 365.94 417.08 365.94 417.08 365.95L412.9 370.12V370.13L394.16 388.87H394.15C391.534 391.484 375.966 407.055 372.99 410.03C366.946 416.037 359.84 419.992 351.85 421.99C351.84 422 351.84 422 351.85 422C339.506 425.116 325.921 422.753 315.35 415.52V415.51H315.34C315.19 415.42 315.05 415.32 314.91 415.21C314.91 415.21 314.91 415.21 314.9 415.21C310.445 412.368 301.477 402.625 297.54 398.86C292.729 393.68 265.406 367.767 262.16 362.32C247.905 342.304 250.479 313.108 268.12 295.97C275.508 303.3 285.641 313.533 292.93 320.78C298.906 326.814 308.996 336.804 315.07 342.92L334.54 362.39C344.11 371.96 359.63 371.96 369.2 362.39L419.85 311.74C435.08 296.51 459.78 296.5 475.02 311.74L499.26 335.98Z" fill="#D15A96"/>
<path d="M492.57 353.98C491.336 356.95 490.07 359.896 488.71 362.81C487.287 359.957 485.4 357.367 483.12 355.08L470.69 342.65C467.011 338.957 462.163 336.798 457.07 336.43C450.916 335.963 444.759 338.246 440.38 342.65L426.76 356.27H426.75L422.58 360.45C422.57 360.45 422.57 360.45 422.57 360.45L417.08 365.94C417.08 365.94 417.08 365.94 417.08 365.95L412.9 370.12V370.13L394.16 388.87H394.15C391.534 391.484 375.966 407.055 372.99 410.03C366.946 416.037 359.84 419.992 351.85 421.99C351.84 422 351.84 422 351.85 422C339.51 425.11 325.907 422.765 315.35 415.51H315.34V415.5C315.2 415.41 315.05 415.31 314.91 415.21C314.91 415.21 314.91 415.21 314.9 415.21C310.306 412.254 301.576 402.709 297.54 398.86V398.85L286.7 388.01H286.69C281.882 382.911 265.727 367.943 262.16 362.32C251.393 347.006 249.934 326.139 258.36 309.5C269.225 320.362 286.513 337.655 297.54 348.68C306.193 357.336 323.825 374.963 332.52 383.66C341.59 392.73 356.31 392.73 365.38 383.66L425.01 324.03C435.4 313.64 452.26 313.64 462.65 324.03L492 353.38C492.2 353.58 492.39 353.77 492.57 353.98Z" fill="#ED72AB"/>
<path d="M298.599 358.1L276.696 336.197C272.578 332.079 265.902 332.079 261.784 336.197C257.666 340.315 257.666 346.991 261.784 351.109L283.687 373.012C293.971 382.503 308.094 368.397 298.599 358.1Z" fill="#FF9FB4"/>
<path d="M291.744 361.747L273.05 343.053C268.013 338.313 260.899 345.409 265.645 350.458L284.339 369.152C289.376 373.891 296.49 366.796 291.744 361.747Z" fill="#ED72AB"/>
<path d="M340.323 399.824L318.42 377.921C314.302 373.803 307.626 373.803 303.508 377.921C299.39 382.039 299.39 388.715 303.508 392.833L325.411 414.736C335.695 424.227 349.818 410.121 340.323 399.824Z" fill="#FF9FB4"/>
<path d="M333.468 403.47L314.774 384.776C309.737 380.036 302.623 387.132 307.369 392.181L326.063 410.875C331.1 415.615 338.214 408.519 333.468 403.47Z" fill="#ED72AB"/>
<path d="M370.317 394.081L352.92 411.478C345.365 419.609 356.625 430.882 364.765 423.323L382.162 405.926C389.717 397.795 378.458 386.522 370.317 394.081Z" fill="#FF9FB4"/>
<path d="M373.214 399.526L358.365 414.375C356.741 415.999 356.741 418.633 358.365 420.257C359.989 421.881 362.623 421.881 364.247 420.257L379.096 405.408C382.873 401.437 377.194 395.743 373.214 399.526Z" fill="#ED72AB"/>
<path d="M402.914 361.484L385.517 378.881C377.962 387.012 389.222 398.285 397.362 390.726L414.759 373.329C422.314 365.198 411.055 353.925 402.914 361.484Z" fill="#FF9FB4"/>
<path d="M405.811 366.929L390.962 381.778C389.338 383.402 389.338 386.036 390.962 387.66C392.586 389.284 395.22 389.284 396.844 387.66L411.693 372.811C415.47 368.84 409.791 363.146 405.811 366.929Z" fill="#ED72AB"/>
<path d="M435.511 328.887L418.114 346.284C410.559 354.415 421.819 365.688 429.959 358.129L447.356 340.732C454.911 332.601 443.652 321.328 435.511 328.887Z" fill="#FF9FB4"/>
<path d="M438.408 334.332L423.559 349.181C421.935 350.805 421.935 353.439 423.559 355.063C425.183 356.687 427.817 356.687 429.441 355.063L444.29 340.214C448.067 336.243 442.388 330.549 438.408 334.332Z" fill="#ED72AB"/>
<path d="M473.377 342.006L463.012 331.641C458.245 327.107 451.418 333.925 455.955 338.698L466.32 349.063C471.087 353.596 477.914 346.779 473.377 342.006Z" fill="#FF9FB4"/>
<path d="M470.133 343.731L461.287 334.885C458.948 332.623 455.517 336.045 457.783 338.389L466.629 347.235C468.968 349.497 472.399 346.075 470.133 343.731Z" fill="#ED72AB"/>
<path d="M490.41 359.04C488.992 362.284 487.489 365.486 485.93 368.67L476.25 359C475.28 358.02 474.8 356.75 474.8 355.47C474.683 351.163 480.256 348.77 483.31 351.94C483.31 351.94 490.41 359.04 490.41 359.04Z" fill="#FF9FB4"/>
<path d="M488.87 362.47C488.14 364.063 487.398 365.647 486.63 367.23L478.08 358.69C477.6 358.2 477.35 357.57 477.35 356.94C477.279 354.811 480.109 353.612 481.59 355.18C481.983 355.573 488.697 362.282 488.87 362.47Z" fill="#ED72AB"/>
<path d="M492.1 202.58C488.606 204.517 484.195 203.8 481.47 200.81L472.28 190.68C466.53 184.35 458.37 180.74 449.82 180.74H432.24C420.4 180.74 410.81 190.34 410.81 202.18V297.47C410.81 322.57 390.46 342.92 365.35 342.92H307.95C279.033 343.055 255.798 318.96 256 290.97H349.93C363.46 290.97 374.44 280 374.44 266.46V194.83C374.44 173.29 391.9 155.82 413.45 155.82H455.68C465.71 155.82 475.09 160.77 480.74 169.06L495.08 190.07C497.97 194.3 496.58 200.1 492.1 202.58Z" fill="#D15A96"/>
<path d="M492.1 202.58C488.606 204.517 484.195 203.8 481.47 200.81L472.28 190.68C466.53 184.35 458.37 180.74 449.82 180.74H432.24C420.405 180.74 410.81 190.335 410.81 202.17V297.47C410.81 322.571 390.461 342.92 365.36 342.92H307.95C285.02 342.92 265.55 328.06 258.67 307.44H363.54C376.375 307.44 386.78 297.035 386.78 284.2V199.876C386.78 185.177 398.696 173.26 413.396 173.26H454.903C464.217 173.26 472.998 177.6 478.656 184.998L492.1 202.58Z" fill="#ED72AB"/>
<path d="M321.484 313.351H290.509C284.685 313.351 279.964 318.072 279.964 323.896C279.964 329.72 284.685 334.441 290.509 334.441H321.484C335.467 333.879 335.479 313.918 321.484 313.351Z" fill="#FF9FB4"/>
<path d="M319.215 320.777H292.778C285.864 320.987 285.852 331.035 292.778 331.249H319.215C326.129 331.039 326.141 320.991 319.215 320.777Z" fill="#ED72AB"/>
<path d="M380.491 313.351H349.516C343.692 313.351 338.971 318.072 338.971 323.896C338.971 329.72 343.692 334.441 349.516 334.441H380.491C394.474 333.879 394.486 313.918 380.491 313.351Z" fill="#FF9FB4"/>
<path d="M378.222 320.777H351.785C344.871 320.987 344.859 331.035 351.785 331.249H378.222C385.135 331.039 385.148 320.991 378.222 320.777Z" fill="#ED72AB"/>
<path d="M397.639 288.081V312.685C397.639 317.311 401.389 321.061 406.015 321.061C410.641 321.061 414.391 317.311 414.391 312.685V288.081C413.983 276.989 398.05 276.98 397.639 288.081Z" fill="#FF9FB4"/>
<path d="M403.537 289.883V310.882C403.704 316.374 411.685 316.383 411.855 310.882V289.883C411.688 284.392 403.707 284.382 403.537 289.883Z" fill="#ED72AB"/>
<path d="M397.639 241.982V266.586C397.639 271.212 401.389 274.962 406.015 274.962C410.641 274.962 414.391 271.212 414.391 266.586V241.982C413.983 230.89 398.05 230.881 397.639 241.982Z" fill="#FF9FB4"/>
<path d="M403.537 243.784V264.783C403.704 270.274 411.685 270.284 411.855 264.783V243.784C411.688 238.293 403.707 238.283 403.537 243.784Z" fill="#ED72AB"/>
<path d="M397.639 195.883V220.487C397.639 225.113 401.389 228.863 406.015 228.863C410.641 228.863 414.391 225.113 414.391 220.487V195.883C413.983 184.791 398.05 184.782 397.639 195.883Z" fill="#FF9FB4"/>
<path d="M403.537 197.685V218.684C403.704 224.176 411.685 224.185 411.855 218.684V197.685C411.688 192.194 403.707 192.184 403.537 197.685Z" fill="#ED72AB"/>
<path d="M433.69 178.384H419.032C416.276 178.384 414.042 180.618 414.042 183.374C414.042 186.13 416.276 188.364 419.032 188.364H433.69C440.282 188.162 440.288 178.588 433.69 178.384Z" fill="#FF9FB4"/>
<path d="M432.616 181.898H420.106C416.842 181.979 416.836 186.771 420.106 186.854H432.616C435.881 186.772 435.887 181.981 432.616 181.898Z" fill="#ED72AB"/>
<path d="M462.398 178.384H447.74C444.984 178.384 442.75 180.618 442.75 183.374C442.75 186.13 444.984 188.364 447.74 188.364H462.398C468.99 188.162 468.996 178.588 462.398 178.384Z" fill="#FF9FB4"/>
<path d="M461.324 181.898H448.814C445.55 181.979 445.544 186.771 448.814 186.854H461.324C464.589 186.772 464.595 181.981 461.324 181.898Z" fill="#ED72AB"/>
<path d="M19.9 202.58C23.394 204.517 27.805 203.8 30.53 200.81L39.72 190.68C45.47 184.35 53.63 180.74 62.18 180.74H79.76C91.6 180.74 101.19 190.34 101.19 202.18V297.47C101.19 322.57 121.54 342.92 146.65 342.92H204.05C232.967 343.055 256.202 318.96 256 290.97H162.07C148.54 290.97 137.56 280 137.56 266.46V194.83C137.56 173.29 120.1 155.82 98.55 155.82H56.32C46.29 155.82 36.91 160.77 31.26 169.06L16.92 190.07C14.03 194.3 15.42 200.1 19.9 202.58Z" fill="#D15A96"/>
<path d="M19.9 202.58C23.394 204.517 27.805 203.8 30.53 200.81L39.72 190.68C45.47 184.35 53.63 180.74 62.18 180.74H79.76C91.595 180.74 101.19 190.335 101.19 202.17V297.47C101.19 322.571 121.539 342.92 146.64 342.92H204.05C226.98 342.92 246.45 328.06 253.33 307.44H148.46C135.625 307.44 125.22 297.035 125.22 284.2V199.876C125.22 185.177 113.304 173.26 98.604 173.26H57.097C47.783 173.26 39.002 177.6 33.344 184.998L19.9 202.58Z" fill="#ED72AB"/>
<path d="M190.516 313.351H221.491C227.315 313.351 232.036 318.072 232.036 323.896C232.036 329.72 227.315 334.441 221.491 334.441H190.516C176.533 333.879 176.521 313.918 190.516 313.351Z" fill="#FF9FB4"/>
<path d="M192.785 320.777H219.222C226.136 320.987 226.148 331.035 219.222 331.249H192.785C185.871 331.039 185.859 320.991 192.785 320.777Z" fill="#ED72AB"/>
<path d="M131.509 313.351H162.484C168.308 313.351 173.029 318.072 173.029 323.896C173.029 329.72 168.308 334.441 162.484 334.441H131.509C117.526 333.879 117.514 313.918 131.509 313.351Z" fill="#FF9FB4"/>
<path d="M133.778 320.777H160.215C167.129 320.987 167.141 331.035 160.215 331.249H133.778C126.865 331.039 126.852 320.991 133.778 320.777Z" fill="#ED72AB"/>
<path d="M114.361 288.081V312.685C114.361 317.311 110.611 321.061 105.985 321.061C101.359 321.061 97.609 317.311 97.609 312.685V288.081C98.017 276.989 113.95 276.98 114.361 288.081Z" fill="#FF9FB4"/>
<path d="M108.463 289.883V310.882C108.296 316.374 100.315 316.383 100.145 310.882V289.883C100.312 284.392 108.293 284.382 108.463 289.883Z" fill="#ED72AB"/>
<path d="M114.361 241.982V266.586C114.361 271.212 110.611 274.962 105.985 274.962C101.359 274.962 97.609 271.212 97.609 266.586V241.982C98.017 230.89 113.95 230.881 114.361 241.982Z" fill="#FF9FB4"/>
<path d="M108.463 243.784V264.783C108.296 270.274 100.315 270.284 100.145 264.783V243.784C100.312 238.293 108.293 238.283 108.463 243.784Z" fill="#ED72AB"/>
<path d="M114.361 195.883V220.487C114.361 225.113 110.611 228.863 105.985 228.863C101.359 228.863 97.609 225.113 97.609 220.487V195.883C98.017 184.791 113.95 184.782 114.361 195.883Z" fill="#FF9FB4"/>
<path d="M108.463 197.685V218.684C108.296 224.176 100.315 224.185 100.145 218.684V197.685C100.312 192.194 108.293 192.184 108.463 197.685Z" fill="#ED72AB"/>
<path d="M78.31 178.384H92.968C95.724 178.384 97.958 180.618 97.958 183.374C97.958 186.13 95.724 188.364 92.968 188.364H78.31C71.718 188.162 71.712 178.588 78.31 178.384Z" fill="#FF9FB4"/>
<path d="M79.384 181.898H91.894C95.158 181.979 95.164 186.771 91.894 186.854H79.384C76.119 186.772 76.113 181.981 79.384 181.898Z" fill="#ED72AB"/>
<path d="M49.602 178.384H64.26C67.016 178.384 69.25 180.618 69.25 183.374C69.25 186.13 67.016 188.364 64.26 188.364H49.602C43.01 188.162 43.004 178.588 49.602 178.384Z" fill="#FF9FB4"/>
<path d="M50.676 181.898H63.186C66.45 181.979 66.456 186.771 63.186 186.854H50.676C47.411 186.772 47.405 181.981 50.676 181.898Z" fill="#ED72AB"/>
<path d="M334.757 121.091V256.04C334.87 283.996 316.03 308.876 289.322 316.563C283.747 318.175 277.854 319.042 271.764 319.042H240.25C202.218 319.042 172.865 285.607 177.78 247.901L196.942 100.823C200.004 77.364 222.554 61.753 245.448 66.908C245.885 67.002 246.323 67.114 246.76 67.225L304.778 82.313C322.432 86.901 334.757 102.846 334.757 121.091Z" fill="#E063A2"/>
<path d="M334.757 121.091V256.04C334.757 267.465 331.712 278.187 326.394 287.425C318.357 301.398 305.113 311.991 289.322 316.563C283.747 318.175 277.854 319.042 271.764 319.042C257.23 319.042 245.448 307.26 245.448 292.726V66.907C245.885 67.001 246.323 67.113 246.76 67.224L304.778 82.312C322.432 86.901 334.757 102.846 334.757 121.091Z" fill="#ED72AB"/>
<path d="M303.127 217.525C279.21 243.443 314.798 279.019 340.699 255.097C350.914 244.992 351.197 227.96 340.699 217.525C330.277 207.04 313.227 207.305 303.127 217.525Z" fill="#D15A96"/>
<path d="M312.723 211.38C304.906 232.536 325.71 253.322 346.844 245.501C354.667 224.353 333.865 203.566 312.723 211.38Z" fill="#FF9FB4"/>
<path d="M340.464 236.311C340.506 246.627 331.917 254.936 321.917 254.858C297.314 253.884 297.32 218.723 321.917 217.764C331.918 217.693 340.506 225.973 340.464 236.311Z" fill="#9ACDAE"/>
<path d="M330.299 228.926H313.535C310.127 228.926 307.364 231.689 307.364 235.097V237.525C307.364 240.933 310.127 243.696 313.535 243.696H330.299C333.707 243.696 336.47 240.933 336.47 237.525V235.097C336.47 231.689 333.707 228.926 330.299 228.926Z" fill="#2E3140"/>
<path d="M334.103 230.465C333.822 238.881 321.669 238.811 321.423 230.465C321.666 222.115 333.827 222.051 334.103 230.465Z" fill="white"/>
<path d="M171.297 217.525C147.38 243.443 182.968 279.019 208.869 255.097C219.084 244.992 219.367 227.96 208.869 217.525C198.447 207.04 181.397 207.305 171.297 217.525Z" fill="#D15A96"/>
<path d="M180.893 211.38C173.076 232.536 193.88 253.322 215.014 245.501C222.837 224.353 202.035 203.566 180.893 211.38Z" fill="#FF9FB4"/>
<path d="M208.634 236.311C208.676 246.627 200.087 254.936 190.087 254.858C165.484 253.884 165.49 218.723 190.087 217.764C200.088 217.693 208.676 225.973 208.634 236.311Z" fill="#9ACDAE"/>
<path d="M198.469 228.926H181.705C178.297 228.926 175.534 231.689 175.534 235.097V237.525C175.534 240.933 178.297 243.696 181.705 243.696H198.469C201.877 243.696 204.64 240.933 204.64 237.525V235.097C204.639 231.689 201.877 228.926 198.469 228.926Z" fill="#2E3140"/>
<path d="M202.273 230.465C201.992 238.881 189.839 238.811 189.593 230.465C189.836 222.115 201.997 222.051 202.273 230.465Z" fill="white"/>
<path d="M245.449 85.651L297.541 99.177C301.803 100.284 304.779 104.131 304.779 108.534C304.779 114.859 298.805 119.481 292.682 117.891L245.449 105.627V85.651Z" fill="#FF9FB4"/>
<path d="M174.673 114.693L204.034 119.411C207.118 119.906 209.182 123.029 208.642 126.386C208.103 129.744 205.165 132.063 202.081 131.568L172.72 126.85C169.635 126.355 167.572 123.231 168.111 119.874C168.651 116.517 171.588 114.198 174.673 114.693Z" fill="#F9A824"/>
<path d="M171.395 115.705L182.381 109.368L184.282 113.385L173.297 119.722L171.395 115.705Z" fill="#F9A824"/>
<path d="M204.17 122.639L225.233 126.023C226.732 126.264 227.734 127.781 227.472 129.412C227.21 131.042 225.783 132.169 224.285 131.928L203.221 128.544C201.723 128.303 200.721 126.786 200.983 125.156C201.245 123.525 202.672 122.399 204.17 122.639Z" fill="#FDD835"/>
<path d="M285.646 130.029L207.456 117.466C206.575 117.325 205.736 117.988 205.582 118.947L203.517 131.798L283.302 144.618L285.646 130.029Z" fill="#FDD835"/>
<path d="M310.028 131.096L343.219 136.429L340.428 153.796L307.238 148.463L310.028 131.096Z" fill="#FDEF59"/>
<path d="M201.945 128.339L238.327 134.184C239.12 134.312 239.65 135.115 239.512 135.978C239.373 136.842 238.618 137.438 237.825 137.311L201.442 131.465C200.649 131.338 200.119 130.535 200.257 129.671C200.396 128.808 201.152 128.212 201.945 128.339Z" fill="#F9A824"/>
<path d="M179.372 112.954L207.137 117.415L206.523 121.236L178.758 116.775L179.372 112.954Z" fill="#F9A824"/>
<path d="M202.154 122.802L205.875 118.13C206.386 117.489 207.268 117.404 207.846 117.94C208.424 118.477 208.479 119.431 207.969 120.072L204.247 124.744C203.737 125.385 202.855 125.47 202.277 124.934C201.699 124.397 201.644 123.443 202.154 122.802Z" fill="#FDD835"/>
<path d="M282.614 129.542L341.336 138.977C342.129 139.104 342.66 139.907 342.521 140.771C342.382 141.634 341.627 142.23 340.834 142.103L282.112 132.668C281.319 132.541 280.788 131.738 280.927 130.874C281.066 130.011 281.821 129.415 282.614 129.542Z" fill="#FDEF59"/>
<path d="M320.05 144.108C320.513 141.231 318.744 138.554 316.1 138.129L271.74 131.001L269.898 142.464L319.046 150.36L320.05 144.108Z" fill="#FDD835"/>
<path d="M336.486 122.703C337.189 119.763 339.944 117.934 342.639 118.618C345.334 119.302 346.949 122.24 346.246 125.179L342.403 141.251C341.7 144.191 338.945 146.019 336.25 145.335C333.556 144.651 331.941 141.714 332.644 138.774L336.486 122.703Z" fill="#FDEF59"/>
<path d="M333.494 140.924L347.536 143.18C350.444 143.647 352.389 146.592 351.881 149.757C351.372 152.922 348.602 155.109 345.694 154.642L331.652 152.386C328.744 151.919 326.798 148.974 327.307 145.809C327.816 142.643 330.585 140.456 333.494 140.924Z" fill="#FDEF59"/>
<path d="M337.828 141.483L343.212 136.267L350.524 145.187L345.141 150.402L337.828 141.483Z" fill="#FDEF59"/>
<path d="M194.18 112.483L341.942 136.224C342.647 136.337 343.119 137.051 342.996 137.818C342.872 138.585 342.201 139.116 341.496 139.002L193.733 115.261C193.028 115.148 192.557 114.434 192.68 113.667C192.803 112.9 193.475 112.369 194.18 112.483Z" fill="#F9A824"/>
<path d="M181.584 98.9319C181.838 95.92 184.292 93.6362 187.065 93.8309C189.839 94.0257 191.882 96.6252 191.628 99.6372L190.243 116.104C189.989 119.116 187.535 121.399 184.762 121.205C181.988 121.01 179.945 118.41 180.199 115.398L181.584 98.9319Z" fill="#F9A824"/>
<path d="M188.589 94.3032C190.329 83.4698 194.018 73.0584 199.443 63.6629C204.868 54.2674 211.924 46.0721 220.208 39.545L264.544 106.507L188.589 94.3032Z" fill="#F9A824"/>
<path d="M220.208 39.5449C227.746 33.6055 236.173 29.1484 245.088 26.385L264.544 106.507L220.208 39.5449Z" fill="#FDD835"/>
<path d="M244.139 31.7877C227.923 29.1824 212.479 41.3775 209.644 59.0261L203.672 96.1922L233.033 100.91L244.139 31.7877Z" fill="#FDD835"/>
<path d="M188.673 93.7822L237.182 101.576L233.945 121.722L185.436 113.928L188.673 93.7822Z" fill="#F9A824"/>
<path d="M232.531 104.036L203.17 99.3183L202.277 104.876C201.506 109.672 204.454 114.133 208.86 114.841L230.243 118.277L232.531 104.036Z" fill="#FDD835"/>
<path d="M327.625 56.8037C333.448 65.5973 337.582 75.5905 339.79 86.2125C342 96.8346 342.241 107.877 340.5 118.711L264.544 106.507L327.625 56.8037Z" fill="#FDEF59"/>
<path d="M307.703 36.2173C315.012 41.351 321.42 47.8265 326.648 55.362L264.544 106.507L307.703 36.2173Z" fill="#FDD835"/>
<path d="M268.662 13.6365C257.029 11.7674 245.95 20.5161 243.916 33.1771L230.243 118.277L251.306 121.661L268.662 13.6365Z" fill="#F9A824"/>
<path d="M307.425 43.3811C309.459 30.7201 301.678 18.9411 290.045 17.072L272.689 125.097L293.752 128.481L307.425 43.3811Z" fill="#F9A824"/>
<path d="M267.267 22.3202L288.65 25.7557L272.689 125.097L251.306 121.661L267.267 22.3202Z" fill="#FDD835"/>
<path d="M331.547 72.555C333.335 61.4285 326.497 51.0775 316.274 49.4349L306.699 47.8966L296.542 111.114L324.627 115.626L331.547 72.555Z" fill="#FDD835"/>
<path d="M306.005 113.347L341.43 119.038L338.751 135.711L303.326 130.019L306.005 113.347Z" fill="#FDEF59"/>
<path d="M323.176 124.657C323.453 122.93 322.392 121.324 320.806 121.069L295.594 117.018L293.752 128.481L321.836 132.993L323.176 124.657Z" fill="#FDD835"/>
<path d="M296.431 111.808L306.005 113.347L303.494 128.977L293.919 127.439L296.431 111.808Z" fill="#FDD835"/>
<path d="M341.376 119.37C341.498 118.611 341.032 117.905 340.334 117.793L296.598 110.766L296.04 114.24L339.11 121.16C340.175 121.331 341.19 120.53 341.376 119.37Z" fill="#F9A824"/>
<path d="M262.731 117.796C240.875 114.284 226.255 92.1539 230.077 68.3665C233.899 44.5791 254.715 28.1423 276.571 31.6539C298.427 35.1655 313.046 57.2957 309.224 81.0831C305.402 104.87 284.587 121.307 262.731 117.796Z" fill="#FDEF59"/>
<path d="M265.912 97.9969C254.279 96.1279 246.498 84.3489 248.532 71.6879C250.566 59.0268 261.646 50.2782 273.278 52.1473C284.911 54.0163 292.693 65.7953 290.658 78.4564C288.624 91.1174 277.545 99.866 265.912 97.9969Z" fill="#E2F4FF"/>
<path d="M271.321 93.8776C258.718 91.8528 250.289 79.0922 252.492 65.3761C254.696 51.66 266.699 42.1823 279.301 44.2071C291.904 46.232 300.333 58.9925 298.129 72.7087C295.926 86.4248 283.923 95.9024 271.321 93.8776Z" fill="white"/>
<path d="M235.363 70.1065C232.019 90.9206 244.811 110.284 263.935 113.357C283.059 116.43 301.273 102.048 304.617 81.2335C307.961 60.4195 295.169 41.0556 276.045 37.983C256.921 34.9104 238.708 49.2925 235.363 70.1065ZM295.202 79.7209C292.767 94.8756 279.505 105.348 265.581 103.11C251.657 100.873 242.343 86.7739 244.778 71.6192C247.213 56.4645 260.475 45.9925 274.399 48.2297C288.323 50.4669 297.637 64.5662 295.202 79.7209Z" fill="#F9A824"/>
<path d="M243.106 70.8162C240.579 86.5464 250.247 101.181 264.7 103.503C279.153 105.825 292.918 94.9558 295.446 79.2255C297.973 63.4953 288.305 48.8606 273.852 46.5385C259.399 44.2163 245.634 55.0859 243.106 70.8162ZM290.02 78.3538C288.017 90.8232 277.105 99.4391 265.648 97.5983C254.192 95.7576 246.528 84.1572 248.532 71.6879C250.535 59.2185 261.447 50.6026 272.903 52.4434C284.36 54.2841 292.024 65.8844 290.02 78.3538Z" fill="#F17F16"/>
<path d="M264.271 13.4528C258.216 14.1575 252.242 15.6497 246.48 17.8969L246.95 19.4125C252.599 17.2096 258.455 15.7469 264.391 15.0561L264.271 13.4528Z" fill="#F9A824"/>
<path d="M246.371 17.8939L253.392 19.022L251.16 32.9158L244.139 31.7877L246.371 17.8939Z" fill="#F9A824"/>
<path d="M302.859 26.9698L309.88 28.0979L307.648 41.9918L300.627 40.8637L302.859 26.9698Z" fill="#F9A824"/>
<path d="M256.448 16.3061L253.895 15.8958C251.427 15.4994 249.077 17.3551 248.645 20.0408L247.194 29.0718L254.216 30.1999L256.448 16.3061Z" fill="#F9A824"/>
<path d="M307.104 29.0771C307.443 26.9669 306.146 25.0037 304.207 24.6922C302.269 24.3807 300.422 25.8388 300.083 27.949L298.465 38.022L305.486 39.1501L307.104 29.0771Z" fill="#F9A824"/>
<path d="M310.055 27.5164C305.782 24.3634 301.258 21.6201 296.533 19.3165L295.808 20.9845C300.447 23.2458 304.888 25.9388 309.082 29.0338L310.055 27.5164Z" fill="#F9A824"/>
<path d="M305.933 115.829L326.997 119.214C327.702 119.327 328.173 120.041 328.05 120.808C327.927 121.575 327.255 122.106 326.55 121.992L305.487 118.608C304.782 118.495 304.31 117.781 304.434 117.014C304.557 116.246 305.228 115.716 305.933 115.829Z" fill="#FDEF59"/>
</svg>
