<svg width="512" height="512" viewBox="0 0 512 512" fill="none" xmlns="http://www.w3.org/2000/svg">
<path d="M256 512C397.385 512 512 397.385 512 256C512 114.615 397.385 0 256 0C114.615 0 0 114.615 0 256C0 397.385 114.615 512 256 512Z" fill="#EA792E"/>
<path d="M300.12 465.34H211.88C192.55 465.34 177.29 448.91 178.71 429.64L186.08 329.72H325.92L333.29 429.64C334.71 448.91 319.45 465.34 300.12 465.34Z" fill="#2E3140"/>
<path d="M300.12 465.34H256V329.72H325.92L333.29 429.64C334.71 448.91 319.45 465.34 300.12 465.34Z" fill="#334353"/>
<path d="M395.81 197.008V272.628C395.81 304.158 370.25 329.718 338.73 329.718H173.27C141.75 329.718 116.19 304.158 116.19 272.628V197.008C116.19 175.988 127.55 157.628 144.46 147.718C170.91 132.218 194.58 112.398 213.34 88.168L215.4 85.508C225.68 72.238 240.84 65.598 256 65.598C271.16 65.598 286.32 72.238 296.6 85.508L298.66 88.168C317.42 112.398 341.09 132.218 367.54 147.718C384.45 157.628 395.81 175.988 395.81 197.008Z" fill="#334353"/>
<path d="M395.81 197.008V272.628C395.81 304.158 370.25 329.718 338.73 329.718H256V65.598C271.16 65.598 286.32 72.238 296.6 85.508L298.66 88.168C317.42 112.398 341.09 132.218 367.54 147.718C384.45 157.628 395.81 175.988 395.81 197.008Z" fill="#3E4E60"/>
<path d="M379.121 259.822C366.899 272.044 347.048 272.044 334.825 259.822C322.587 247.584 322.603 227.748 334.825 215.526C338.139 212.212 342.007 209.792 346.138 208.282C357.251 204.198 370.197 206.602 379.121 215.526C388.029 224.434 390.449 237.396 386.365 248.509C384.855 252.64 382.435 256.508 379.121 259.822Z" fill="#334353"/>
<path d="M386.36 248.509C393.468 241.401 390.225 226.635 379.117 215.527C368.009 204.419 353.242 201.176 346.135 208.283C339.027 215.391 342.271 230.157 353.378 241.265C364.486 252.373 379.253 255.616 386.36 248.509Z" fill="#3F5D77"/>
<path d="M378.839 237.674C378.839 247.09 372.867 255.133 364.511 258.215C362.151 259.058 359.622 259.539 356.974 259.539C344.885 259.539 335.108 249.738 335.108 237.673C335.108 225.584 344.885 215.807 356.974 215.807C359.623 215.807 362.152 216.289 364.511 217.131C372.867 220.215 378.839 228.234 378.839 237.674Z" fill="#DD5E26"/>
<path d="M371.34 237.674C371.34 243.861 367.416 249.145 361.926 251.17C360.375 251.724 358.714 252.04 356.974 252.04C349.031 252.04 342.607 245.6 342.607 237.673C342.607 229.73 349.031 223.306 356.974 223.306C358.714 223.306 360.376 223.622 361.926 224.176C367.416 226.203 371.34 231.472 371.34 237.674Z" fill="#2E3140"/>
<path d="M371.34 230.782C371.34 234.001 369.299 236.75 366.442 237.804C365.635 238.092 364.771 238.257 363.865 238.257C359.733 238.257 356.391 234.907 356.391 230.783C356.391 226.651 359.733 223.309 363.865 223.309C364.77 223.309 365.635 223.474 366.442 223.762C369.298 224.814 371.34 227.555 371.34 230.782Z" fill="white"/>
<path d="M132.879 259.822C145.101 272.044 164.952 272.044 177.175 259.822C189.413 247.584 189.397 227.748 177.175 215.526C173.861 212.212 169.993 209.792 165.862 208.282C154.749 204.198 141.803 206.602 132.879 215.526C123.971 224.434 121.551 237.396 125.635 248.509C127.145 252.64 129.565 256.508 132.879 259.822Z" fill="#2E3140"/>
<path d="M158.615 241.265C169.723 230.157 172.966 215.391 165.858 208.283C158.751 201.176 143.984 204.419 132.876 215.527C121.768 226.635 118.525 241.401 125.633 248.509C132.74 255.616 147.507 252.373 158.615 241.265Z" fill="#3E4E60"/>
<path d="M176.897 237.674C176.897 247.09 170.925 255.133 162.569 258.215C160.209 259.058 157.68 259.539 155.032 259.539C142.943 259.539 133.166 249.738 133.166 237.673C133.166 225.584 142.943 215.807 155.032 215.807C157.681 215.807 160.21 216.289 162.569 217.131C170.925 220.215 176.897 228.234 176.897 237.674Z" fill="#DD5E26"/>
<path d="M169.398 237.674C169.398 243.861 165.474 249.145 159.984 251.17C158.433 251.724 156.772 252.04 155.032 252.04C147.089 252.04 140.665 245.6 140.665 237.673C140.665 229.73 147.089 223.306 155.032 223.306C156.772 223.306 158.434 223.622 159.984 224.176C165.474 226.203 169.398 231.472 169.398 237.674Z" fill="#2E3140"/>
<path d="M169.398 230.782C169.398 234.001 167.357 236.75 164.5 237.804C163.693 238.092 162.829 238.257 161.923 238.257C157.791 238.257 154.449 234.907 154.449 230.783C154.449 226.651 157.791 223.309 161.923 223.309C162.828 223.309 163.693 223.474 164.5 223.762C167.356 224.814 169.398 227.555 169.398 230.782Z" fill="white"/>
<path d="M356.182 133.587L313.221 148.102C291.649 155.391 280.07 178.787 287.358 200.36L288.407 203.465C295.696 225.037 319.092 236.616 340.665 229.328L383.626 214.813C405.198 207.524 416.777 184.128 409.489 162.555L408.44 159.45C401.151 137.878 377.754 126.298 356.182 133.587Z" fill="#3F5D77"/>
<path d="M155.818 133.587L198.779 148.102C220.351 155.391 231.93 178.787 224.642 200.36L223.593 203.465C216.304 225.037 192.908 236.616 171.335 229.328L128.374 214.813C106.802 207.524 95.223 184.128 102.511 162.555L103.56 159.45C110.849 137.878 134.246 126.298 155.818 133.587Z" fill="#3E4E60"/>
<path d="M395.81 272.308C395.81 273.898 395.35 275.418 394.54 276.708C393.72 277.998 392.54 279.058 391.11 279.728L380.94 284.538C371.83 288.848 364.72 296.508 361.12 305.928L356.28 318.568C351.2 331.838 341.71 342.948 329.41 350.048L264.17 387.698C261.58 388.888 258.79 389.478 256 389.478C253.21 389.478 250.42 388.888 247.83 387.698L182.59 350.048C170.29 342.948 160.8 331.838 155.72 318.568L150.88 305.928C147.28 296.508 140.17 288.848 131.06 284.538L120.89 279.728C118.02 278.378 116.19 275.488 116.19 272.308C116.19 267.698 119.94 264.098 124.38 264.098C124.83 264.098 125.28 264.128 125.74 264.208L176.78 272.658C184.69 273.968 192.23 276.928 198.92 281.338L202.86 283.928C203.43 284.298 204 284.668 204.58 285.018C203.97 282.568 203.65 279.998 203.65 277.368V266.568C203.65 249.038 217.86 234.818 235.4 234.818H276.6C294.14 234.818 308.35 249.038 308.35 266.568V277.368C308.35 279.998 308.03 282.568 307.42 285.018C308 284.668 308.57 284.298 309.14 283.928L313.08 281.338C319.77 276.928 327.31 273.968 335.22 272.658L386.26 264.208C391.26 263.378 395.81 267.238 395.81 272.308Z" fill="#3E4E60"/>
<path d="M395.81 272.308C395.81 273.898 395.35 275.418 394.54 276.708C393.72 277.998 392.54 279.058 391.11 279.728L380.94 284.538C371.83 288.848 364.72 296.508 361.12 305.928L356.28 318.568C351.2 331.838 341.71 342.948 329.41 350.048L264.17 387.698C261.58 388.888 258.79 389.478 256 389.478V234.818H276.6C294.14 234.818 308.35 249.038 308.35 266.568V277.368C308.35 279.998 308.03 282.568 307.42 285.018C308 284.668 308.57 284.298 309.14 283.928L313.08 281.338C319.77 276.928 327.31 273.968 335.22 272.658L386.26 264.208C391.26 263.378 395.81 267.238 395.81 272.308Z" fill="#3F5D77"/>
<path d="M279.808 315.439L284.738 307.061C287.14 302.979 292.67 302.102 296.217 305.24L303.091 311.321C306.142 314.02 306.494 318.657 303.884 321.785L301.968 324.082C300.537 325.797 298.419 326.788 296.186 326.788H286.298C280.473 326.788 276.853 320.458 279.808 315.439Z" fill="#334353"/>
<path d="M232.192 315.439L227.262 307.061C224.86 302.979 219.33 302.102 215.783 305.24L208.909 311.321C205.858 314.02 205.506 318.657 208.116 321.785L210.032 324.082C211.463 325.797 213.581 326.788 215.814 326.788H225.702C231.527 326.788 235.147 320.458 232.192 315.439Z" fill="#2E3140"/>
<path d="M320.236 300.228V289.757C320.236 287.248 321.938 285.059 324.37 284.441L361.941 274.894C365.408 274.013 368.776 276.633 368.776 280.21C368.776 282.236 367.659 284.098 365.87 285.05L328.299 305.067C324.646 307.015 320.236 304.367 320.236 300.228Z" fill="#3F6C8E"/>
<path d="M191.764 300.228V289.757C191.764 287.248 190.062 285.059 187.63 284.441L150.059 274.894C146.592 274.013 143.224 276.633 143.224 280.21C143.224 282.236 144.341 284.098 146.13 285.05L183.701 305.067C187.354 307.015 191.764 304.367 191.764 300.228Z" fill="#3F5D77"/>
<path d="M256 258.343C262.48 258.343 267.733 263.596 267.733 270.076V320.909C267.733 328.634 273.995 334.896 281.72 334.896H313.913C317.405 334.896 320.236 337.727 320.236 341.219C320.236 343.474 319.042 345.555 317.09 346.686C305.603 353.344 266.065 375.826 256 375.826V258.343V258.343Z" fill="#3F6C8E"/>
<path d="M256 258.343C249.52 258.343 244.267 263.596 244.267 270.076V320.909C244.267 328.634 238.005 334.896 230.28 334.896H198.087C194.595 334.896 191.764 337.727 191.764 341.219C191.764 343.474 192.958 345.555 194.91 346.686C206.397 353.344 245.935 375.826 256 375.826V258.343V258.343Z" fill="#3F5D77"/>
<path d="M277.118 93.256C277.039 93.256 276.959 93.255 276.879 93.252C272.739 93.123 269.488 89.661 269.618 85.521L270.985 41.892C271.114 37.752 274.542 34.483 278.716 34.631C282.856 34.76 286.107 38.222 285.977 42.362L284.61 85.991C284.483 90.051 281.152 93.256 277.118 93.256Z" fill="#3F5D77"/>
<path d="M297.078 113.332C296.216 113.332 295.34 113.183 294.483 112.867C290.597 111.434 288.609 107.121 290.042 103.235L305.129 62.33C306.564 58.444 310.876 56.455 314.762 57.889C318.648 59.323 320.636 63.635 319.203 67.521L304.116 108.426C302.998 111.455 300.13 113.332 297.078 113.332Z" fill="#3F5D77"/>
<path d="M317.979 132.137C316.315 132.137 314.64 131.586 313.249 130.453C310.037 127.838 309.553 123.114 312.169 119.902L336.517 90C339.13 86.789 343.854 86.304 347.068 88.919C350.28 91.534 350.764 96.258 348.148 99.47L323.8 129.372C322.318 131.193 320.158 132.137 317.979 132.137Z" fill="#3F5D77"/>
<path d="M234.882 93.256C234.961 93.256 235.041 93.255 235.121 93.252C239.261 93.123 242.512 89.661 242.382 85.521L241.015 41.892C240.886 37.752 237.458 34.483 233.284 34.631C229.144 34.76 225.893 38.222 226.023 42.362L227.39 85.991C227.517 90.051 230.848 93.256 234.882 93.256Z" fill="#3E4E60"/>
<path d="M214.922 113.332C215.784 113.332 216.66 113.183 217.517 112.867C221.403 111.434 223.391 107.121 221.958 103.235L206.871 62.33C205.436 58.444 201.124 56.455 197.238 57.889C193.352 59.323 191.364 63.635 192.797 67.521L207.884 108.426C209.002 111.455 211.87 113.332 214.922 113.332Z" fill="#3E4E60"/>
<path d="M194.021 132.137C195.685 132.137 197.36 131.586 198.751 130.453C201.963 127.838 202.447 123.114 199.831 119.902L175.483 90C172.87 86.789 168.146 86.304 164.932 88.919C161.72 91.534 161.236 96.258 163.852 99.47L188.2 129.372C189.682 131.193 191.842 132.137 194.021 132.137Z" fill="#3E4E60"/>
<rect x="97" y="113" width="322" height="89" fill="#EA792E"/>
<path d="M100.965 196.028H153.354C158.858 196.028 163.319 200.499 163.319 206.014C163.319 211.529 158.858 216 153.354 216H100.965C95.4616 216 91 211.529 91 206.014C91 200.499 95.4616 196.028 100.965 196.028Z" fill="#F9A824"/>
<path d="M95.5469 198.491L112.884 185.516L117.314 191.46L99.9765 204.435L95.5469 198.491Z" fill="#F9A824"/>
<path d="M154.493 201.163H192.076C194.75 201.163 196.917 203.335 196.917 206.014C196.917 208.693 194.75 210.864 192.076 210.864H154.493C151.82 210.864 149.653 208.693 149.653 206.014C149.653 203.335 151.82 201.163 154.493 201.163Z" fill="#FDD835"/>
<path d="M298.278 192.033H158.764C157.192 192.033 155.917 193.311 155.917 194.887V216H298.278V192.033Z" fill="#FDD835"/>
<path d="M340.986 187.468H400.208V216H340.986V187.468Z" fill="#FDEF59"/>
<path d="M152.215 210.864H217.132C218.547 210.864 219.694 212.014 219.694 213.432C219.694 214.85 218.547 216 217.132 216H152.215C150.8 216 149.653 214.85 149.653 213.432C149.653 212.014 150.8 210.864 152.215 210.864Z" fill="#F9A824"/>
<path d="M108.653 192.033H158.194V198.31H108.653V192.033Z" fill="#F9A824"/>
<path d="M151.032 201.943L156.199 193.502C156.908 192.345 158.419 191.982 159.574 192.692C160.729 193.402 161.092 194.917 160.383 196.074L155.216 204.515C154.507 205.673 152.996 206.035 151.841 205.325C150.685 204.615 150.323 203.101 151.032 201.943Z" fill="#FDD835"/>
<path d="M292.868 192.033H397.646C399.061 192.033 400.208 193.183 400.208 194.601C400.208 196.019 399.061 197.169 397.646 197.169H292.868C291.453 197.169 290.306 196.019 290.306 194.601C290.306 193.183 291.453 192.033 292.868 192.033Z" fill="#FDEF59"/>
<path d="M362.056 205.729C362.056 201.001 358.231 197.169 353.514 197.169H274.361V216H362.056V205.729Z" fill="#FDD835"/>
<path d="M384.662 167.218C385.063 162.329 389.343 158.692 394.222 159.094C399.101 159.496 402.73 163.785 402.329 168.673L400.137 195.401C399.735 200.29 395.455 203.927 390.577 203.525C385.698 203.123 382.068 198.834 382.469 193.945L384.662 167.218Z" fill="#FDEF59"/>
<path d="M384.549 197.169H409.604C414.793 197.169 419 201.385 419 206.585C419 211.785 414.793 216 409.604 216H384.549C379.359 216 375.153 211.785 375.153 206.585C375.153 201.385 379.359 197.169 384.549 197.169Z" fill="#FDEF59"/>
<path d="M392.245 196.949L400.151 187.211L415.363 199.614L407.456 209.352L392.245 196.949Z" fill="#FDEF59"/>
<path d="M134.278 187.468H397.931C399.189 187.468 400.208 188.49 400.208 189.751C400.208 191.011 399.189 192.033 397.931 192.033H134.278C133.02 192.033 132 191.011 132 189.751C132 188.49 133.02 187.468 134.278 187.468Z" fill="#F9A824"/>
<path d="M108.582 169.008C108.181 164.119 111.811 159.83 116.69 159.428C121.568 159.026 125.848 162.664 126.249 167.553L128.441 194.28C128.842 199.169 125.212 203.458 120.334 203.86C115.455 204.262 111.175 200.624 110.774 195.735L108.582 169.008Z" fill="#F9A824"/>
<path d="M119.472 159.792C119.472 141.995 122.978 124.372 129.789 107.929C136.6 91.4858 146.582 76.5454 159.168 63.9605L255 159.792H119.472Z" fill="#F9A824"/>
<path d="M159.168 63.9605C170.619 52.5089 184.031 43.2025 198.766 36.4828L255 159.792L159.168 63.9605Z" fill="#FDD835"/>
<path d="M198.625 45.3795C169.691 45.3795 146.236 68.8841 146.236 97.8782V158.936H198.625V45.3795Z" fill="#FDD835"/>
<path d="M119.472 158.936H206.028V192.033H119.472V158.936Z" fill="#F9A824"/>
<path d="M198.625 164.072H146.236V173.202C146.236 181.081 152.61 187.468 160.472 187.468H198.625V164.072Z" fill="#FDD835"/>
<path d="M350.832 63.9605C363.418 76.5454 373.401 91.4858 380.211 107.929C387.022 124.372 390.528 141.995 390.528 159.792H255L350.832 63.9605Z" fill="#FDEF59"/>
<path d="M310.426 36.1176C324.575 42.4585 337.531 51.1802 348.73 61.9031L255 159.792L310.426 36.1176Z" fill="#FDD835"/>
<path d="M236.208 10C215.452 10 198.625 26.8619 198.625 47.6621V187.468H236.208V10Z" fill="#F9A824"/>
<path d="M311.944 47.6621C311.944 26.8619 295.118 10 274.361 10V187.468H311.944V47.6621Z" fill="#F9A824"/>
<path d="M236.208 24.266H274.361V187.468H236.208V24.266Z" fill="#FDD835"/>
<path d="M362.056 88.1773C362.056 69.8981 347.269 55.0804 329.028 55.0804H311.944V158.936H362.056V88.1773Z" fill="#FDD835"/>
<path d="M329.028 160.078H392.236V187.468H329.028V160.078Z" fill="#FDEF59"/>
<path d="M362.056 173.773C362.056 170.936 359.761 168.637 356.931 168.637H311.944V187.468H362.056V173.773Z" fill="#FDD835"/>
<path d="M311.944 160.078H329.028V185.756H311.944V160.078Z" fill="#FDD835"/>
<path d="M392.236 160.623C392.236 159.376 391.228 158.366 389.983 158.366H311.944V164.072H388.794C390.695 164.072 392.236 162.528 392.236 160.623Z" fill="#F9A824"/>
<path d="M255 178.338C216.003 178.338 184.389 146.658 184.389 107.579C184.389 68.4998 216.003 36.8199 255 36.8199C293.997 36.8199 325.611 68.4998 325.611 107.579C325.611 146.658 293.997 178.338 255 178.338Z" fill="#FDEF59"/>
<path d="M255 145.812C234.243 145.812 217.417 128.95 217.417 108.15C217.417 87.3493 234.243 70.4875 255 70.4875C275.757 70.4875 292.583 87.3493 292.583 108.15C292.583 128.95 275.757 145.812 255 145.812Z" fill="#E2F4FF"/>
<path d="M263.257 137.823C240.77 137.823 222.542 119.556 222.542 97.0222C222.542 74.4887 240.77 56.2216 263.257 56.2216C285.743 56.2216 303.972 74.4887 303.972 97.0222C303.972 119.556 285.743 137.823 263.257 137.823Z" fill="white"/>
<path d="M194.069 109.006C194.069 143.2 221.731 170.92 255.854 170.92C289.977 170.92 317.639 143.2 317.639 109.006C317.639 74.8113 289.977 47.0914 255.854 47.0914C221.731 47.0914 194.069 74.8113 194.069 109.006ZM300.84 109.006C300.84 133.902 280.699 154.086 255.854 154.086C231.009 154.086 210.868 133.902 210.868 109.006C210.868 84.1086 231.009 63.9252 255.854 63.9252C280.699 63.9252 300.84 84.1086 300.84 109.006Z" fill="#F9A824"/>
<path d="M207.736 108.15C207.736 133.992 228.642 154.942 254.431 154.942C280.219 154.942 301.125 133.992 301.125 108.15C301.125 82.3072 280.219 61.3574 254.431 61.3574C228.642 61.3574 207.736 82.3072 207.736 108.15ZM291.444 108.15C291.444 128.635 274.873 145.241 254.431 145.241C233.988 145.241 217.417 128.635 217.417 108.15C217.417 87.6643 233.988 71.0582 254.431 71.0582C274.873 71.0582 291.444 87.6643 291.444 108.15Z" fill="#F17F16"/>
<path d="M228.518 10.8359C218.183 13.5225 208.21 17.4492 198.814 22.531L200.056 24.8372C209.267 19.8556 219.044 16.0063 229.175 13.3727L228.518 10.8359Z" fill="#F9A824"/>
<path d="M198.625 22.5541H211.153V45.3796H198.625V22.5541Z" fill="#F9A824"/>
<path d="M299.417 22.5541H311.944V45.3796H299.417V22.5541Z" fill="#F9A824"/>
<path d="M215.708 17.4182H211.153C206.75 17.4182 203.181 20.995 203.181 25.4072V40.2437H215.708V17.4182Z" fill="#F9A824"/>
<path d="M307.389 24.8366C307.389 21.3699 304.584 18.5596 301.125 18.5596C297.666 18.5596 294.861 21.3699 294.861 24.8366V41.385H307.389V24.8366Z" fill="#F9A824"/>
<path d="M312.086 21.5778C303.772 17.6277 295.137 14.3984 286.274 11.925L285.48 14.7828C294.18 17.2107 302.657 20.3808 310.818 24.2583L312.086 21.5778Z" fill="#F9A824"/>
<path d="M329.597 164.072H367.181C368.439 164.072 369.458 165.094 369.458 166.355C369.458 167.615 368.439 168.637 367.181 168.637H329.597C328.339 168.637 327.319 167.615 327.319 166.355C327.319 165.094 328.339 164.072 329.597 164.072Z" fill="#FDEF59"/>
</svg>
