<svg width="512" height="512" viewBox="0 0 512 512" fill="none" xmlns="http://www.w3.org/2000/svg">
<path d="M256 512C397.385 512 512 397.385 512 256C512 114.615 397.385 0 256 0C114.615 0 0 114.615 0 256C0 397.385 114.615 512 256 512Z" fill="#53B976"/>
<path d="M268.339 450.954H243.662C156.475 450.954 87.53 377.123 93.481 290.149L102.093 164.29C105.772 110.653 150.347 69.024 204.115 69.024H307.887C361.654 69.024 406.229 110.654 409.909 164.29L418.521 290.149C424.47 377.123 355.525 450.954 268.339 450.954Z" fill="#DEB36F"/>
<path d="M268.34 450.95H256V69.02H307.89C333.04 69.02 356.18 78.13 374.06 93.32C394.41 110.6 407.95 135.74 409.91 164.29L418.52 290.15C424.47 377.12 355.53 450.95 268.34 450.95Z" fill="#FBCB74"/>
<path d="M374.06 93.32L312.34 118.81L256 137.11V69.02H307.89C333.04 69.02 356.18 78.13 374.06 93.32Z" fill="#F39E22"/>
<path d="M137.94 93.32L199.66 118.81L256 137.11V69.02H204.11C178.96 69.02 155.82 78.13 137.94 93.32Z" fill="#EA792E"/>
<path d="M381.972 288.222L351.031 330.975C334.881 353.297 309.003 366.514 281.459 366.514H256V129.373C274.053 129.373 294.869 124.345 312.344 118.807C334.281 111.841 357.86 123.088 366.457 144.436L391.848 207.507C402.652 234.325 398.914 264.801 381.972 288.222Z" fill="#F9C744"/>
<path d="M256 129.37C237.949 129.37 217.133 124.347 199.656 118.804C177.721 111.847 154.141 123.093 145.546 144.439L120.15 207.508C109.352 234.323 113.084 264.804 130.031 288.222L160.974 330.98C177.124 353.296 202.999 366.511 230.546 366.511H256V129.37Z" fill="#F39E22"/>
<path d="M316.888 425.537H258.014C256.902 425.537 256 424.635 256 423.523V378.529C256 377.417 256.902 376.515 258.014 376.515H316.888C330.425 376.515 341.399 387.489 341.399 401.026C341.4 414.563 330.426 425.537 316.888 425.537Z" fill="#FBD9A3"/>
<path d="M195.112 376.514H253.986C255.098 376.514 256 377.416 256 378.528V423.522C256 424.634 255.098 425.536 253.986 425.536H195.112C181.575 425.536 170.601 414.562 170.601 401.025C170.6 387.488 181.574 376.514 195.112 376.514Z" fill="#FBCB74"/>
<path d="M367.23 282.77L339.94 320.47L339.91 320.52C325.65 340.23 302.8 351.9 278.48 351.9H256V142.51C271.94 142.51 290.32 138.07 305.75 133.18C325.12 127.03 345.94 136.96 353.53 155.81L375.95 211.5C385.49 235.18 382.19 262.09 367.23 282.77Z" fill="#F4E6F4"/>
<path d="M256 142.51V351.9H233.52C209.2 351.9 186.35 340.23 172.09 320.52L144.77 282.77C129.81 262.09 126.51 235.18 136.05 211.5L158.47 155.81C166.06 136.96 186.88 127.03 206.25 133.18C221.68 138.07 240.06 142.51 256 142.51Z" fill="#DECEE5"/>
<path d="M256 285.3V351.9H233.52C209.2 351.9 186.35 340.23 172.09 320.52L190.546 302.069C201.287 291.331 215.852 285.299 231.04 285.299H256V285.3Z" fill="#F4E6F4"/>
<path d="M339.94 320.47L339.91 320.52C325.65 340.23 302.8 351.9 278.48 351.9H256V285.3H281.046C296.236 285.3 310.804 291.334 321.545 302.075L339.94 320.47Z" fill="white"/>
<path d="M318.874 191.32C304.432 191.32 293.754 204.771 297.031 218.837L301.843 239.49C306.161 258.025 292.091 275.75 273.059 275.75H256V142.51C271.94 142.51 290.32 138.07 305.75 133.18C325.12 127.03 345.94 136.96 353.53 155.81L339.482 179.565C335.173 186.851 327.338 191.32 318.874 191.32Z" fill="white"/>
<path d="M193.126 191.32C207.568 191.32 218.246 204.771 214.969 218.837L210.157 239.49C205.839 258.025 219.909 275.75 238.941 275.75H256V142.51C240.06 142.51 221.68 138.07 206.25 133.18C186.88 127.03 166.06 136.96 158.47 155.81L172.518 179.565C176.827 186.851 184.662 191.32 193.126 191.32Z" fill="#F4E6F4"/>
<path d="M334.423 196.258C339.365 204.817 336.501 215.732 328.028 220.768C327.963 220.822 327.89 220.863 327.818 220.905L316.947 227.181C312.637 229.669 307.717 230.183 303.255 228.987C298.781 227.798 294.783 224.906 292.288 220.584C287.652 212.554 289.885 202.437 297.166 197.061C297.714 196.648 298.295 196.265 298.897 195.917L309.768 189.641C314.09 187.146 319.005 186.651 323.467 187.847C327.93 189.044 331.928 191.936 334.423 196.258Z" fill="#3E4E60"/>
<path d="M334.423 196.258C339.365 204.817 336.501 215.732 328.028 220.768C317.112 220.377 306.258 214.06 300.009 203.237C298.848 201.227 297.896 199.16 297.166 197.062C297.714 196.649 298.295 196.266 298.897 195.918L309.768 189.642C314.09 187.147 319.005 186.652 323.467 187.848C327.93 189.044 331.928 191.936 334.423 196.258Z" fill="#2E3140"/>
<path d="M317.184 194.767L310.643 198.543C307.827 200.169 306.862 203.77 308.488 206.587C310.114 209.403 313.715 210.368 316.532 208.742L323.073 204.966C325.889 203.34 326.854 199.739 325.228 196.922C323.601 194.106 320 193.141 317.184 194.767Z" fill="white"/>
<path d="M177.578 196.258C172.636 204.817 175.5 215.732 183.973 220.768C184.038 220.822 184.11 220.863 184.183 220.905L195.054 227.181C199.364 229.669 204.284 230.183 208.746 228.987C213.22 227.798 217.218 224.906 219.713 220.584C224.349 212.554 222.116 202.437 214.835 197.061C214.287 196.648 213.706 196.265 213.104 195.917L202.233 189.641C197.911 187.146 192.996 186.651 188.534 187.847C184.071 189.044 180.074 191.936 177.578 196.258Z" fill="#3E4E60"/>
<path d="M177.578 196.258C172.636 204.817 175.5 215.732 183.973 220.768C194.889 220.377 205.743 214.06 211.992 203.237C213.153 201.227 214.105 199.16 214.835 197.062C214.287 196.649 213.706 196.266 213.104 195.918L202.233 189.642C197.911 187.147 192.996 186.652 188.534 187.848C184.071 189.044 180.074 191.936 177.578 196.258Z" fill="#2E3140"/>
<path d="M194.818 194.767L201.359 198.543C204.175 200.169 205.14 203.77 203.514 206.587C201.888 209.403 198.287 210.368 195.47 208.742L188.929 204.966C186.113 203.34 185.148 199.739 186.774 196.922C188.4 194.106 192.001 193.141 194.818 194.767Z" fill="white"/>
<path d="M256 259.989V333.78C261.428 333.78 266.159 330.083 267.47 324.816L277.122 286.053C280.42 272.809 270.401 259.989 256.752 259.989H256Z" fill="#F0A6B3"/>
<path d="M256 259.989V333.78C250.572 333.78 245.841 330.083 244.53 324.816L234.878 286.053C231.58 272.809 241.599 259.989 255.248 259.989H256Z" fill="#F4829B"/>
<path d="M85.968 179.706H143.628C149.685 179.706 154.596 184.025 154.596 189.353C154.596 194.681 149.685 199 143.628 199H85.968C79.9106 199 75.0001 194.681 75.0001 189.353C75.0001 184.025 79.9106 179.706 85.968 179.706Z" fill="#F9A824"/>
<path d="M80.0043 182.086L99.0861 169.552L103.961 175.293L84.8796 187.828L80.0043 182.086Z" fill="#F9A824"/>
<path d="M144.881 184.667H186.246C189.188 184.667 191.573 186.765 191.573 189.353C191.573 191.941 189.188 194.039 186.246 194.039H144.881C141.939 194.039 139.554 191.941 139.554 189.353C139.554 186.765 141.939 184.667 144.881 184.667Z" fill="#FDD835"/>
<path d="M303.132 175.848H149.582C147.851 175.848 146.448 177.082 146.448 178.604V199H303.132V175.848Z" fill="#FDD835"/>
<path d="M350.137 171.438H415.318V199H350.137V171.438Z" fill="#FDEF59"/>
<path d="M142.374 194.039H213.822C215.38 194.039 216.642 195.149 216.642 196.519C216.642 197.889 215.38 199 213.822 199H142.374C140.817 199 139.554 197.889 139.554 196.519C139.554 195.149 140.817 194.039 142.374 194.039Z" fill="#F9A824"/>
<path d="M94.4289 175.848H148.955V181.911H94.4289V175.848Z" fill="#F9A824"/>
<path d="M141.072 185.42L146.759 177.267C147.539 176.148 149.202 175.798 150.473 176.484C151.745 177.17 152.144 178.633 151.364 179.751L145.677 187.905C144.897 189.023 143.234 189.374 141.962 188.688C140.691 188.002 140.292 186.539 141.072 185.42Z" fill="#FDD835"/>
<path d="M297.178 175.848H412.498C414.055 175.848 415.318 176.958 415.318 178.328C415.318 179.698 414.055 180.809 412.498 180.809H297.178C295.621 180.809 294.358 179.698 294.358 178.328C294.358 176.958 295.621 175.848 297.178 175.848Z" fill="#FDEF59"/>
<path d="M373.326 189.077C373.326 184.511 369.117 180.809 363.925 180.809H276.809V199H373.326V189.077Z" fill="#FDD835"/>
<path d="M398.207 151.876C398.649 147.153 403.36 143.639 408.729 144.027C414.099 144.416 418.094 148.559 417.652 153.282L415.239 179.101C414.797 183.824 410.087 187.337 404.717 186.949C399.348 186.561 395.353 182.418 395.794 177.695L398.207 151.876Z" fill="#FDEF59"/>
<path d="M398.082 180.809H425.659C431.37 180.809 436 184.881 436 189.904C436 194.928 431.37 199 425.659 199H398.082C392.371 199 387.741 194.928 387.741 189.904C387.741 184.881 392.371 180.809 398.082 180.809Z" fill="#FDEF59"/>
<path d="M406.553 180.597L415.255 171.19L431.997 183.171L423.295 192.578L406.553 180.597Z" fill="#FDEF59"/>
<path d="M122.632 171.438H412.811C414.196 171.438 415.318 172.425 415.318 173.643C415.318 174.86 414.196 175.848 412.811 175.848H122.632C121.248 175.848 120.125 174.86 120.125 173.643C120.125 172.425 121.248 171.438 122.632 171.438Z" fill="#F9A824"/>
<path d="M94.351 153.604C93.9097 148.882 97.9048 144.738 103.274 144.35C108.644 143.962 113.354 147.476 113.796 152.199L116.208 178.018C116.649 182.741 112.654 186.884 107.285 187.272C101.915 187.66 97.2048 184.146 96.7635 179.424L94.351 153.604Z" fill="#F9A824"/>
<path d="M106.337 144.702C106.337 127.509 110.195 110.485 117.691 94.6011C125.187 78.7169 136.175 64.2842 150.026 52.127L255.5 144.702H106.337Z" fill="#F9A824"/>
<path d="M150.026 52.1268C162.63 41.0644 177.39 32.0743 193.608 25.5829L255.5 144.702L150.026 52.1268Z" fill="#FDD835"/>
<path d="M193.453 34.1774C161.609 34.1774 135.793 56.8832 135.793 84.892V143.875H193.453V34.1774Z" fill="#FDD835"/>
<path d="M106.337 143.875H201.601V175.847H106.337V143.875Z" fill="#F9A824"/>
<path d="M193.453 148.837H135.793V157.657C135.793 165.268 142.808 171.438 151.462 171.438H193.453V148.837Z" fill="#FDD835"/>
<path d="M360.974 52.1268C374.826 64.284 385.813 78.7167 393.309 94.6009C400.805 110.485 404.663 127.509 404.663 144.702H255.5L360.974 52.1268Z" fill="#FDEF59"/>
<path d="M316.503 25.2301C332.075 31.3555 346.334 39.7808 358.66 50.1394L255.5 144.702L316.503 25.2301Z" fill="#FDD835"/>
<path d="M234.818 0C211.972 0 193.453 16.2889 193.453 36.3823L193.453 171.438H234.818L234.818 0Z" fill="#F9A824"/>
<path d="M318.173 36.3823C318.173 16.2889 299.654 0 276.809 0L276.809 171.438H318.173L318.173 36.3823Z" fill="#F9A824"/>
<path d="M234.818 13.7812H276.809V171.438H234.818V13.7812Z" fill="#FDD835"/>
<path d="M373.326 75.5208C373.326 57.8627 357.052 43.5485 336.976 43.5485H318.174V143.875H373.326V75.5208Z" fill="#FDD835"/>
<path d="M336.976 144.978H406.543V171.438H336.976V144.978Z" fill="#FDEF59"/>
<path d="M373.326 158.208C373.326 155.467 370.801 153.246 367.686 153.246H318.174V171.438H373.326V158.208Z" fill="#FDD835"/>
<path d="M318.174 144.978H336.976V169.784H318.174V144.978Z" fill="#FDD835"/>
<path d="M406.543 145.505C406.543 144.3 405.433 143.324 404.064 143.324H318.174V148.837H402.755C404.847 148.837 406.543 147.345 406.543 145.505Z" fill="#F9A824"/>
<path d="M255.5 162.618C212.579 162.618 177.785 132.014 177.785 94.2632C177.785 56.5121 212.579 25.9087 255.5 25.9087C298.421 25.9087 333.215 56.5121 333.215 94.2632C333.215 132.014 298.421 162.618 255.5 162.618Z" fill="#FDEF59"/>
<path d="M255.5 131.197C232.655 131.197 214.135 114.908 214.135 94.8143C214.135 74.7209 232.655 58.432 255.5 58.432C278.345 58.432 296.864 74.7209 296.864 94.8143C296.864 114.908 278.345 131.197 255.5 131.197Z" fill="#E2F4FF"/>
<path d="M264.588 123.479C239.839 123.479 219.776 105.833 219.776 84.0652C219.776 62.2973 239.839 44.651 264.588 44.651C289.336 44.651 309.399 62.2973 309.399 84.0652C309.399 105.833 289.336 123.479 264.588 123.479Z" fill="white"/>
<path d="M188.439 95.6411C188.439 128.673 218.884 155.451 256.44 155.451C293.996 155.451 324.441 128.673 324.441 95.6411C324.441 62.6088 293.996 35.8309 256.44 35.8309C218.884 35.8309 188.439 62.6088 188.439 95.6411ZM305.952 95.6411C305.952 119.692 283.785 139.19 256.44 139.19C229.096 139.19 206.928 119.692 206.928 95.6411C206.928 71.5902 229.096 52.0926 256.44 52.0926C283.785 52.0926 305.952 71.5902 305.952 95.6411Z" fill="#F9A824"/>
<path d="M203.481 94.8144C203.481 119.779 226.49 140.017 254.873 140.017C283.256 140.017 306.266 119.779 306.266 94.8144C306.266 69.8501 283.256 49.6122 254.873 49.6122C226.49 49.6122 203.481 69.8501 203.481 94.8144ZM295.611 94.8144C295.611 114.604 277.372 130.645 254.873 130.645C232.374 130.645 214.135 114.604 214.135 94.8144C214.135 75.0252 232.374 58.9834 254.873 58.9834C277.372 58.9834 295.611 75.0252 295.611 94.8144Z" fill="#F17F16"/>
<path d="M226.354 0.807449C214.979 3.40269 204.002 7.19599 193.661 12.1051L195.028 14.333C205.165 9.52064 215.926 5.8021 227.076 3.25799L226.354 0.807449Z" fill="#F9A824"/>
<path d="M193.453 12.1275H207.241V34.1774H193.453V12.1275Z" fill="#F9A824"/>
<path d="M304.385 12.1275H318.174V34.1774H304.385V12.1275Z" fill="#F9A824"/>
<path d="M212.255 7.16632H207.241C202.395 7.16632 198.467 10.6215 198.467 14.8838V29.2162H212.255V7.16632Z" fill="#F9A824"/>
<path d="M313.16 14.3324C313.16 10.9835 310.073 8.26868 306.266 8.26868C302.458 8.26868 299.371 10.9835 299.371 14.3324V30.3185H313.16V14.3324Z" fill="#F9A824"/>
<path d="M318.329 11.1844C309.179 7.36858 299.675 4.24897 289.92 1.85965L289.046 4.62035C298.622 6.96573 307.952 10.0281 316.933 13.7738L318.329 11.1844Z" fill="#F9A824"/>
<path d="M337.602 148.837H378.967C380.352 148.837 381.474 149.824 381.474 151.042C381.474 152.259 380.352 153.247 378.967 153.247H337.602C336.218 153.247 335.095 152.259 335.095 151.042C335.095 149.824 336.218 148.837 337.602 148.837Z" fill="#FDEF59"/>
</svg>
