<svg width="512" height="512" viewBox="0 0 512 512" fill="none" xmlns="http://www.w3.org/2000/svg">
<path d="M256 512C397.385 512 512 397.385 512 256C512 114.615 397.385 0 256 0C114.615 0 0 114.615 0 256C0 397.385 114.615 512 256 512Z" fill="#6C53A2"/>
<path d="M431.288 118.396L428.767 95.502C427.741 86.176 418.682 80.546 410.296 82.746C408.816 83.136 407.353 83.766 405.959 84.669L355.625 117.247C338.945 128.042 323.081 140.019 308.148 153.083C308.095 153.083 308.043 153.079 307.991 153.079H204.01C203.957 153.079 203.905 153.083 203.853 153.083C188.92 140.019 173.057 128.042 156.376 117.247L106.042 84.67C104.648 83.767 103.184 83.137 101.705 82.747C93.319 80.546 84.259 86.176 83.234 95.503L80.713 118.397C77.391 148.556 87.94 178.591 109.392 200.043L128.117 218.768C127.601 222.359 127.321 226.026 127.321 229.76V350.24C127.321 384.5 149.791 413.49 180.791 423.33C189.801 426.18 196.861 433.11 200.591 441.8C206.731 456.09 220.941 466.1 237.491 466.1H274.511C291.061 466.1 305.271 456.09 311.411 441.8C315.141 433.11 322.201 426.18 331.211 423.33C362.211 413.49 384.681 384.5 384.681 350.24V229.76C384.681 226.026 384.4 222.359 383.885 218.768L402.61 200.043C424.061 178.591 434.61 148.555 431.288 118.396Z" fill="#EE6781"/>
<path d="M402.61 200.04C424.06 178.59 434.61 148.56 431.29 118.4L428.77 95.5C427.74 86.18 418.68 80.55 410.3 82.75C410.12 82.8 409.93 82.85 409.75 82.91C408.5 83.29 407.27 83.84 406.08 84.59C406.07 84.6 406.06 84.6 406.05 84.61C406.02 84.63 405.99 84.65 405.96 84.67L355.62 117.25C341.685 126.264 328.332 136.12 315.606 146.731L315.592 146.726L314.957 147.268C312.669 149.183 310.395 151.115 308.149 153.08V153.084C308.095 153.084 308.043 153.08 307.989 153.08H256V466.1H274.51C291.06 466.1 305.27 456.09 311.41 441.8C315.14 433.11 322.2 426.18 331.21 423.33C362.21 413.49 384.68 384.5 384.68 350.24V229.76C384.68 226.023 384.399 222.353 383.882 218.759L383.89 218.76L402.61 200.04Z" fill="#F4829B"/>
<path d="M149.07 176.27C138.02 187.61 130.46 202.34 128.11 218.76L109.39 200.04C87.94 178.59 77.39 148.56 80.71 118.4L83.23 95.5C84.26 86.18 93.32 80.55 101.7 82.75C103.15 83.13 104.58 83.74 105.95 84.61C104.1 83.48 101.32 90.92 100.83 102.54C99.96 123.4 119.11 152.07 145.39 173.3L149.07 176.27Z" fill="#F4829B"/>
<path d="M402.61 200.04L383.89 218.76C381.54 202.34 373.98 187.61 362.93 176.27L366.61 173.3C392.89 152.07 412.04 123.4 411.17 102.54C410.68 90.98 407.93 83.56 406.08 84.59C407.27 83.84 408.5 83.29 409.75 82.91C409.93 82.85 410.12 82.8 410.3 82.75C418.68 80.55 427.74 86.18 428.77 95.5L431.29 118.4C434.61 148.56 424.06 178.59 402.61 200.04Z" fill="#FF9FB4"/>
<path d="M308.332 423.432V424.025C308.332 436.787 297.986 447.132 285.225 447.132H226.776C214.014 447.132 203.669 436.786 203.669 424.025V423.432C203.669 394.537 227.095 371.1 256.001 371.1C284.907 371.1 308.332 394.537 308.332 423.432Z" fill="#FF9FB4"/>
<path d="M308.332 423.432V424.025C308.332 436.787 297.986 447.132 285.225 447.132H256V371.1C284.906 371.1 308.332 394.537 308.332 423.432Z" fill="#FFCCD7"/>
<path d="M291.203 401.714C290.111 401.714 289.026 401.251 288.266 400.352C278.761 389.113 267.302 382.922 256 382.922C244.698 382.922 233.238 389.112 223.734 400.352C222.363 401.973 219.937 402.176 218.317 400.805C216.696 399.434 216.493 397.009 217.864 395.388C228.854 382.392 242.397 375.234 256 375.234C269.603 375.234 283.147 382.391 294.136 395.388C295.507 397.009 295.304 399.434 293.683 400.805C292.961 401.416 292.08 401.714 291.203 401.714Z" fill="white"/>
<path d="M275.838 439.392H280.916C288.445 439.392 294.549 433.288 294.549 425.759V425.412C294.549 415.947 290.29 407.477 283.585 401.813C275.726 395.175 263.673 400.911 263.673 411.199V427.226C263.672 433.945 269.119 439.392 275.838 439.392Z" fill="#2E3140"/>
<path d="M236.162 439.392H231.084C223.555 439.392 217.451 433.288 217.451 425.759V425.412C217.451 415.947 221.71 407.477 228.415 401.813C236.274 395.175 248.327 400.911 248.327 411.199V427.226C248.328 433.945 242.881 439.392 236.162 439.392Z" fill="#2E3140"/>
<path d="M283.61 368.82L278.52 366.72C271.31 363.74 263.66 362.25 256 362.25C248.34 362.25 240.69 363.74 233.48 366.72L228.39 368.82C222.79 371.14 217.7 364.59 221.33 359.72L231.53 346.06C237.64 337.88 246.82 333.8 256 333.8C265.18 333.8 274.36 337.88 280.47 346.06L290.67 359.72C294.3 364.59 289.21 371.14 283.61 368.82Z" fill="#F4829B"/>
<path d="M283.61 368.82L278.52 366.72C271.31 363.74 263.66 362.25 256 362.25V333.8C265.18 333.8 274.36 337.88 280.47 346.06L290.67 359.72C294.3 364.59 289.21 371.14 283.61 368.82Z" fill="#FF9FB4"/>
<path d="M283.61 333.318L278.52 331.218C271.31 328.238 263.66 326.748 256 326.748C248.34 326.748 240.69 328.238 233.48 331.218L228.39 333.318C222.79 335.638 217.7 329.088 221.33 324.218L231.53 310.558C237.64 302.378 246.82 298.298 256 298.298C265.18 298.298 274.36 302.378 280.47 310.558L290.67 324.218C294.3 329.088 289.21 335.638 283.61 333.318Z" fill="#F4829B"/>
<path d="M283.61 333.318L278.52 331.218C271.31 328.238 263.66 326.748 256 326.748V298.298C265.18 298.298 274.36 302.378 280.47 310.558L290.67 324.218C294.3 329.088 289.21 335.638 283.61 333.318Z" fill="#FF9FB4"/>
<path d="M256 259.063H287.121C312.194 259.063 332.521 238.737 332.521 213.663C332.521 188.59 312.195 168.263 287.121 168.263H256V259.063Z" fill="#FF9FB4"/>
<path d="M256 168.264H224.879C199.806 168.264 179.479 188.59 179.479 213.664C179.479 238.737 199.805 259.064 224.879 259.064H256V168.264Z" fill="#F4829B"/>
<path d="M337.875 311.908C320.455 311.908 306.333 326.03 306.333 343.45V372.073C306.333 389.493 320.455 403.615 337.875 403.615C355.295 403.615 369.417 389.493 369.417 372.073V343.45C369.417 326.03 355.295 311.908 337.875 311.908Z" fill="#FF9FB4"/>
<path d="M174.845 311.908C157.425 311.908 143.303 326.03 143.303 343.45V372.073C143.303 389.493 157.425 403.615 174.845 403.615C192.265 403.615 206.387 389.493 206.387 372.073V343.45C206.387 326.03 192.265 311.908 174.845 311.908Z" fill="#F4829B"/>
<path d="M256 219.595H297.227C307.37 219.595 315.593 211.372 315.593 201.229C315.593 191.086 307.37 182.863 297.227 182.863H256V219.595Z" fill="#FFCCD7"/>
<path d="M256 182.864H214.773C204.63 182.864 196.408 191.087 196.408 201.23C196.408 211.373 204.631 219.596 214.773 219.596H256V182.864Z" fill="#FF9FB4"/>
<path d="M352.924 280.938C355.427 290.28 349.956 299.871 340.673 302.485C340.598 302.519 340.519 302.54 340.44 302.562L328.576 305.741C323.872 307.001 319.092 306.24 315.177 303.98C311.249 301.723 308.203 297.977 306.939 293.26C304.591 284.496 309.263 275.499 317.507 272.263C318.13 272.012 318.776 271.796 319.433 271.62L331.297 268.441C336.014 267.177 340.785 267.955 344.7 270.215C348.614 272.475 351.66 276.221 352.924 280.938Z" fill="#3E4E60"/>
<path d="M352.924 280.938C355.427 290.28 349.956 299.871 340.673 302.485C330.455 299.351 321.795 290.631 318.63 278.819C318.042 276.625 317.665 274.43 317.507 272.262C318.13 272.011 318.776 271.795 319.433 271.619L331.297 268.44C336.014 267.176 340.785 267.954 344.7 270.214C348.614 272.475 351.66 276.221 352.924 280.938Z" fill="#2E3140"/>
<path d="M337.007 275.163L329.868 277.076C326.794 277.9 324.97 281.059 325.794 284.133C326.618 287.207 329.777 289.031 332.851 288.207L339.99 286.294C343.064 285.47 344.888 282.311 344.064 279.237C343.24 276.163 340.081 274.339 337.007 275.163Z" fill="white"/>
<path d="M205.78 293.26C203.277 302.602 193.743 308.172 184.396 305.795C184.314 305.787 184.235 305.766 184.156 305.745L172.292 302.566C167.588 301.306 163.829 298.256 161.568 294.341C159.295 290.423 158.53 285.655 159.794 280.938C162.142 272.174 170.687 266.719 179.445 268.038C180.11 268.132 180.777 268.268 181.434 268.444L193.298 271.623C198.015 272.887 201.758 275.946 204.018 279.861C206.279 283.776 207.044 288.543 205.78 293.26Z" fill="#3E4E60"/>
<path d="M205.78 293.26C203.277 302.602 193.743 308.172 184.396 305.795C177.114 297.972 173.975 286.09 177.139 274.278C177.727 272.084 178.498 269.995 179.445 268.038C180.11 268.132 180.777 268.268 181.434 268.444L193.298 271.623C198.015 272.887 201.758 275.946 204.018 279.861C206.279 283.776 207.044 288.543 205.78 293.26Z" fill="#2E3140"/>
<path d="M194.883 280.3L187.744 278.387C184.67 277.563 181.511 279.388 180.687 282.461C179.863 285.535 181.688 288.694 184.761 289.518L191.9 291.431C194.974 292.255 198.133 290.43 198.957 287.357C199.781 284.283 197.957 281.123 194.883 280.3Z" fill="white"/>
<path d="M110.358 230.094H159.552C164.72 230.094 168.91 234.326 168.91 239.547C168.91 244.768 164.72 249 159.552 249H110.358C105.19 249 101 244.768 101 239.547C101 234.326 105.19 230.094 110.358 230.094Z" fill="#F9A824"/>
<path d="M105.27 232.426L121.55 220.144L125.709 225.77L109.429 238.052L105.27 232.426Z" fill="#F9A824"/>
<path d="M160.622 234.956H195.913C198.423 234.956 200.458 237.011 200.458 239.547C200.458 242.083 198.423 244.138 195.913 244.138H160.622C158.111 244.138 156.076 242.083 156.076 239.547C156.076 237.011 158.111 234.956 160.622 234.956Z" fill="#FDD835"/>
<path d="M295.639 226.313H164.632C163.156 226.313 161.958 227.522 161.958 229.014V249H295.639V226.313Z" fill="#FDD835"/>
<path d="M335.743 221.992H391.354V249H335.743V221.992Z" fill="#FDEF59"/>
<path d="M158.483 244.138H219.441C220.77 244.138 221.847 245.227 221.847 246.569C221.847 247.912 220.77 249 219.441 249H158.483C157.154 249 156.076 247.912 156.076 246.569C156.076 245.227 157.154 244.138 158.483 244.138Z" fill="#F9A824"/>
<path d="M117.576 226.313H164.097V232.255H117.576V226.313Z" fill="#F9A824"/>
<path d="M157.372 235.694L162.223 227.704C162.889 226.608 164.308 226.264 165.393 226.937C166.478 227.609 166.818 229.042 166.152 230.138L161.3 238.128C160.635 239.224 159.216 239.568 158.131 238.895C157.046 238.223 156.706 236.789 157.372 235.694Z" fill="#FDD835"/>
<path d="M290.559 226.313H388.948C390.277 226.313 391.354 227.401 391.354 228.744C391.354 230.086 390.277 231.175 388.948 231.175H290.559C289.23 231.175 288.153 230.086 288.153 228.744C288.153 227.401 289.23 226.313 290.559 226.313Z" fill="#FDEF59"/>
<path d="M355.528 239.277C355.528 234.802 351.937 231.175 347.507 231.175H273.181V249H355.528V239.277Z" fill="#FDD835"/>
<path d="M376.756 202.823C377.133 198.195 381.152 194.752 385.733 195.132C390.314 195.513 393.722 199.573 393.346 204.201L391.287 229.501C390.91 234.129 386.891 237.572 382.31 237.191C377.729 236.811 374.32 232.751 374.697 228.123L376.756 202.823Z" fill="#FDEF59"/>
<path d="M376.649 231.175H400.177C405.05 231.175 409 235.165 409 240.087C409 245.01 405.05 249 400.177 249H376.649C371.777 249 367.826 245.01 367.826 240.087C367.826 235.165 371.777 231.175 376.649 231.175Z" fill="#FDEF59"/>
<path d="M383.876 230.966L391.301 221.749L405.585 233.489L398.16 242.707L383.876 230.966Z" fill="#FDEF59"/>
<path d="M141.639 221.992H389.215C390.397 221.992 391.354 222.959 391.354 224.152C391.354 225.346 390.397 226.313 389.215 226.313H141.639C140.458 226.313 139.5 225.346 139.5 224.152C139.5 222.959 140.458 221.992 141.639 221.992Z" fill="#F9A824"/>
<path d="M117.51 204.517C117.133 199.889 120.542 195.829 125.123 195.449C129.704 195.069 133.723 198.512 134.1 203.14L136.158 228.44C136.535 233.068 133.126 237.128 128.545 237.508C123.964 237.888 119.945 234.445 119.568 229.817L117.51 204.517Z" fill="#F9A824"/>
<path d="M127.736 195.794C127.736 178.946 131.028 162.264 137.424 146.7C143.819 131.135 153.193 116.992 165.011 105.079L255 195.794H127.736Z" fill="#F9A824"/>
<path d="M165.011 105.079C175.764 94.2391 188.358 85.4296 202.195 79.0688L255 195.794L165.011 105.079Z" fill="#FDD835"/>
<path d="M202.062 87.4903C174.893 87.4903 152.868 109.74 152.868 137.186V194.983H202.062V87.4903Z" fill="#FDD835"/>
<path d="M127.736 194.983H209.014V226.313H127.736V194.983Z" fill="#F9A824"/>
<path d="M202.062 199.845H152.868V208.488C152.868 215.946 158.853 221.992 166.236 221.992H202.062V199.845Z" fill="#FDD835"/>
<path d="M344.989 105.079C356.807 116.992 366.181 131.135 372.576 146.7C378.972 162.264 382.264 178.946 382.264 195.794H255L344.989 105.079Z" fill="#FDEF59"/>
<path d="M307.047 78.723C320.332 84.7253 332.498 92.9813 343.015 103.132L255 195.794L307.047 78.723Z" fill="#FDD835"/>
<path d="M237.354 54C217.863 54 202.062 69.9615 202.062 89.651V221.992H237.354V54Z" fill="#F9A824"/>
<path d="M308.472 89.651C308.472 69.9615 292.672 54 273.181 54V221.992H308.472V89.651Z" fill="#F9A824"/>
<path d="M237.354 67.5041H273.181V221.992H237.354V67.5041Z" fill="#FDD835"/>
<path d="M355.528 128.003C355.528 110.7 341.643 96.6731 324.514 96.6731H308.472V194.983H355.528V128.003Z" fill="#FDD835"/>
<path d="M324.514 196.064H383.868V221.992H324.514V196.064Z" fill="#FDEF59"/>
<path d="M355.528 209.028C355.528 206.342 353.373 204.166 350.715 204.166H308.472V221.992H355.528V209.028Z" fill="#FDD835"/>
<path d="M308.472 196.064H324.514V220.371H308.472V196.064Z" fill="#FDD835"/>
<path d="M383.868 196.58C383.868 195.4 382.921 194.443 381.753 194.443H308.472V199.845H380.636C382.421 199.845 383.868 198.383 383.868 196.58Z" fill="#F9A824"/>
<path d="M255 213.349C218.38 213.349 188.694 183.361 188.694 146.368C188.694 109.376 218.38 79.3878 255 79.3878C291.62 79.3878 321.306 109.376 321.306 146.368C321.306 183.361 291.62 213.349 255 213.349Z" fill="#FDEF59"/>
<path d="M255 182.56C235.509 182.56 219.708 166.598 219.708 146.909C219.708 127.219 235.509 111.258 255 111.258C274.491 111.258 290.292 127.219 290.292 146.909C290.292 166.598 274.491 182.56 255 182.56Z" fill="#E2F4FF"/>
<path d="M262.753 174.997C241.638 174.997 224.521 157.706 224.521 136.375C224.521 115.045 241.638 97.7535 262.753 97.7535C283.869 97.7535 300.986 115.045 300.986 136.375C300.986 157.706 283.869 174.997 262.753 174.997Z" fill="white"/>
<path d="M197.785 147.719C197.785 180.087 223.76 206.327 255.802 206.327C287.844 206.327 313.819 180.087 313.819 147.719C313.819 115.35 287.844 89.1108 255.802 89.1108C223.76 89.1108 197.785 115.35 197.785 147.719ZM298.045 147.719C298.045 171.286 279.132 190.392 255.802 190.392C232.472 190.392 213.559 171.286 213.559 147.719C213.559 124.151 232.472 105.046 255.802 105.046C279.132 105.046 298.045 124.151 298.045 147.719Z" fill="#F9A824"/>
<path d="M210.618 146.909C210.618 171.371 230.249 191.202 254.465 191.202C278.681 191.202 298.312 171.371 298.312 146.909C298.312 122.446 278.681 102.615 254.465 102.615C230.249 102.615 210.618 122.446 210.618 146.909ZM289.222 146.909C289.222 166.3 273.661 182.019 254.465 182.019C235.269 182.019 219.708 166.3 219.708 146.909C219.708 127.517 235.269 111.798 254.465 111.798C273.661 111.798 289.222 127.517 289.222 146.909Z" fill="#F17F16"/>
<path d="M230.133 54.7913C220.428 57.3344 211.063 61.0514 202.24 65.8619L203.406 68.0449C212.055 63.3293 221.236 59.6855 230.749 57.1926L230.133 54.7913Z" fill="#F9A824"/>
<path d="M202.062 65.8837H213.826V87.4903H202.062V65.8837Z" fill="#F9A824"/>
<path d="M296.708 65.8837H308.472V87.4903H296.708V65.8837Z" fill="#F9A824"/>
<path d="M218.104 61.0221H213.826C209.692 61.0221 206.34 64.4079 206.34 68.5845V82.6288H218.104V61.0221Z" fill="#F9A824"/>
<path d="M304.194 68.0443C304.194 64.7627 301.561 62.1025 298.312 62.1025C295.064 62.1025 292.431 64.7627 292.431 68.0443V83.7091H304.194V68.0443Z" fill="#F9A824"/>
<path d="M308.605 64.9596C300.798 61.2204 292.689 58.1635 284.367 55.8222L283.621 58.5274C291.791 60.8257 299.751 63.8265 307.414 67.497L308.605 64.9596Z" fill="#F9A824"/>
<path d="M325.049 199.845H360.34C361.522 199.845 362.479 200.812 362.479 202.006C362.479 203.199 361.522 204.166 360.34 204.166H325.049C323.867 204.166 322.91 203.199 322.91 202.006C322.91 200.812 323.867 199.845 325.049 199.845Z" fill="#FDEF59"/>
</svg>
