<svg width="512" height="512" viewBox="0 0 512 512" fill="none" xmlns="http://www.w3.org/2000/svg">
<path d="M256 512C397.385 512 512 397.385 512 256C512 114.615 397.385 0 256 0C114.615 0 0 114.615 0 256C0 397.385 114.615 512 256 512Z" fill="#53B976"/>
<path d="M385.97 171.81V232.41C385.97 239.79 384.83 247.07 382.61 254.01C380.25 261.48 376.64 268.56 371.9 274.93L319.19 348.77C313.47 356.78 306.38 363.52 298.35 368.73C296.15 370.18 293.87 371.5 291.54 372.7C280.7 378.28 268.54 381.31 256 381.31C240.76 381.31 226.08 376.83 213.65 368.73C205.62 363.52 198.53 356.78 192.81 348.77L140.1 274.93C135.36 268.56 131.75 261.48 129.39 254.01C127.17 247.07 126.03 239.79 126.03 232.41V171.81C126.03 143.54 142.74 117.95 168.61 106.58L218.71 84.56C230.59 79.34 243.3 76.72 256 76.72C268.7 76.72 281.41 79.34 293.29 84.56L343.39 106.58C369.26 117.95 385.97 143.54 385.97 171.81Z" fill="#A26D5A"/>
<path d="M385.97 171.81V232.41C385.97 247.73 381.04 262.64 371.9 274.93L319.19 348.77C311.9 358.98 302.38 367.12 291.54 372.7C280.7 378.28 268.54 381.31 256 381.31V76.72C268.7 76.72 281.41 79.34 293.29 84.56L343.39 106.58C369.26 117.95 385.97 143.54 385.97 171.81Z" fill="#C17E62"/>
<path d="M382.61 254.01C380.25 261.48 376.64 268.56 371.9 274.93L319.19 348.77C313.47 356.78 306.38 363.52 298.35 368.73C284.36 349.55 286.01 322.52 303.32 305.2L340.69 267.83C352.11 256.41 367.77 251.81 382.61 254.01Z" fill="#F3C3B1"/>
<path d="M213.65 368.73C205.62 363.52 198.53 356.78 192.81 348.77L140.1 274.93C135.36 268.56 131.75 261.48 129.39 254.01C131.79 253.66 134.22 253.48 136.64 253.48C149.19 253.48 161.74 258.26 171.31 267.83L208.68 305.2C225.99 322.52 227.64 349.55 213.65 368.73Z" fill="#EEA47D"/>
<path d="M277.885 263.018C269.03 254.163 269.03 239.807 277.885 230.952L295.166 213.671C304.021 204.816 318.377 204.816 327.232 213.671C336.087 222.526 336.087 236.882 327.232 245.737L309.951 263.018C301.096 271.873 286.74 271.873 277.885 263.018Z" fill="#F3C3B1"/>
<path d="M234.115 263.018C225.26 271.873 210.904 271.873 202.049 263.018L184.768 245.737C175.913 236.882 175.913 222.526 184.768 213.671C193.623 204.816 207.979 204.816 216.834 213.671L234.115 230.952C242.969 239.807 242.969 254.164 234.115 263.018Z" fill="#EEA47D"/>
<path d="M287.812 196.03H256V113.086H287.812C310.716 113.086 329.284 131.654 329.284 154.558C329.284 177.462 310.716 196.03 287.812 196.03Z" fill="#D48D77"/>
<path d="M224.188 113.086H256V196.03H224.188C201.284 196.03 182.716 177.462 182.716 154.558C182.716 131.654 201.284 113.086 224.188 113.086Z" fill="#C17E62"/>
<path d="M321.61 322.86V412.8C321.61 447.38 293.58 475.41 259 475.41H253C218.42 475.41 190.39 447.38 190.39 412.8V322.86C190.39 316.56 192.02 310.65 194.89 305.51C198 299.93 199.74 293.69 199.74 287.3V275.62C199.74 267.04 206.7 260.09 215.28 260.09H216.31C220.6 260.09 224.48 258.35 227.29 255.54C230.1 252.72 231.84 248.84 231.84 244.55C231.84 235.97 238.8 229.02 247.38 229.02H264.62C268.91 229.02 272.8 230.76 275.61 233.57C278.42 236.38 280.16 240.26 280.16 244.55C280.16 253.13 287.11 260.09 295.69 260.09H296.72C305.3 260.09 312.26 267.04 312.26 275.62V287.3C312.26 293.69 314 299.93 317.11 305.51C319.98 310.65 321.61 316.56 321.61 322.86Z" fill="#334353"/>
<path d="M321.61 322.86V412.8C321.61 447.38 293.58 475.41 259 475.41H256V229.02H264.62C268.91 229.02 272.8 230.76 275.61 233.57C278.42 236.38 280.16 240.26 280.16 244.55C280.16 253.13 287.11 260.09 295.69 260.09H296.72C305.3 260.09 312.26 267.04 312.26 275.62V287.3C312.26 293.69 314 299.93 317.11 305.51C319.98 310.65 321.61 316.56 321.61 322.86Z" fill="#3E4E60"/>
<path d="M310.91 413.48C310.91 427.89 303.51 440.82 291.83 449.57C282.21 456.77 269.68 461.13 256 461.13V451.13C264.28 451.13 272.04 449.24 278.71 445.95C291.98 439.4 300.91 427.3 300.91 413.48C300.91 410.72 303.15 408.48 305.91 408.48C308.67 408.48 310.91 410.72 310.91 413.48Z" fill="#22A8B9"/>
<path d="M256 451.13V461.13C242.32 461.13 229.79 456.77 220.17 449.57C208.49 440.82 201.09 427.89 201.09 413.48C201.09 410.72 203.33 408.48 206.09 408.48C208.85 408.48 211.09 410.72 211.09 413.48C211.09 427.3 220.02 439.4 233.29 445.95C239.96 449.24 247.72 451.13 256 451.13Z" fill="#3F5D77"/>
<path d="M271.397 415.894C277.471 415.894 282.395 410.97 282.395 404.896C282.395 398.822 277.471 393.898 271.397 393.898C265.323 393.898 260.399 398.822 260.399 404.896C260.399 410.97 265.323 415.894 271.397 415.894Z" fill="#2E3140"/>
<path d="M240.603 415.894C246.677 415.894 251.601 410.97 251.601 404.896C251.601 398.822 246.677 393.898 240.603 393.898C234.529 393.898 229.605 398.822 229.605 404.896C229.605 410.97 234.529 415.894 240.603 415.894Z" fill="#151516"/>
<path d="M266.54 419.894H256V437.003H276.914C283.041 437.003 285.411 429.03 280.278 425.684L275.466 422.547C272.811 420.816 269.71 419.894 266.54 419.894Z" fill="#22A8B9"/>
<path d="M245.46 419.894H256V437.003H235.086C228.959 437.003 226.589 429.03 231.722 425.684L236.534 422.547C239.189 420.816 242.29 419.894 245.46 419.894Z" fill="#3F5D77"/>
<path d="M288.363 267.401H256V295.487H288.363C296.119 295.487 302.406 289.2 302.406 281.444C302.406 273.688 296.119 267.401 288.363 267.401Z" fill="#22A8B9"/>
<path d="M223.637 295.486H256V267.4H223.637C215.881 267.4 209.594 273.687 209.594 281.443C209.594 289.199 215.881 295.486 223.637 295.486Z" fill="#3F5D77"/>
<path d="M269.642 235.473H256V247.312H269.642C272.911 247.312 275.561 244.662 275.561 241.393C275.561 238.123 272.911 235.473 269.642 235.473Z" fill="#22A8B9"/>
<path d="M242.358 247.312H256V235.473H242.358C239.089 235.473 236.439 238.123 236.439 241.392C236.439 244.662 239.089 247.312 242.358 247.312Z" fill="#3F5D77"/>
<path d="M282.279 267.401H256V284.378H282.279C286.967 284.378 290.768 280.577 290.768 275.889C290.768 271.201 286.967 267.401 282.279 267.401Z" fill="white"/>
<path d="M229.721 284.378H256V267.401H229.721C225.033 267.401 221.232 271.202 221.232 275.89C221.232 280.578 225.033 284.378 229.721 284.378Z" fill="#22A8B9"/>
<path d="M256 451.13V461.13C242.32 461.13 229.79 456.77 220.17 449.57C224.37 448.1 228.75 446.89 233.29 445.95C239.96 449.24 247.72 451.13 256 451.13Z" fill="#22A8B9"/>
<path d="M291.83 449.57C282.21 456.77 269.68 461.13 256 461.13V451.13C264.28 451.13 272.04 449.24 278.71 445.95C283.25 446.89 287.63 448.1 291.83 449.57Z" fill="white"/>
<path d="M348.01 206.53C348.01 210.1 346.64 213.67 343.92 216.39L330.68 229.64C329.82 230.5 328.88 231.22 327.88 231.8C322.53 234.94 315.54 234.22 310.96 229.64C308.24 226.92 306.87 223.34 306.87 219.78C306.87 216.21 308.24 212.64 310.96 209.92L324.2 196.67C328.79 192.09 335.78 191.37 341.12 194.5C342.12 195.09 343.06 195.81 343.92 196.67C346.64 199.4 348.01 202.96 348.01 206.53Z" fill="#2E3140"/>
<path d="M348.01 206.53C348.01 210.1 346.64 213.67 343.92 216.39L330.68 229.64C329.82 230.5 328.88 231.22 327.88 231.8C326.88 231.22 325.93 230.5 325.07 229.64C322.34 226.92 320.98 223.34 320.98 219.78C320.98 216.21 322.34 212.64 325.07 209.92L338.31 196.67C339.17 195.81 340.12 195.09 341.12 194.5C342.12 195.09 343.06 195.81 343.92 196.67C346.64 199.4 348.01 202.96 348.01 206.53Z" fill="#3E4E60"/>
<path d="M334.868 214.911C339.77 214.911 343.743 210.938 343.743 206.036C343.743 201.134 339.77 197.161 334.868 197.161C329.966 197.161 325.993 201.134 325.993 206.036C325.993 210.938 329.966 214.911 334.868 214.911Z" fill="white"/>
<path d="M163.676 206.53C163.676 210.1 165.046 213.67 167.766 216.39L181.006 229.64C181.866 230.5 182.806 231.22 183.806 231.8C189.156 234.94 196.146 234.22 200.726 229.64C203.446 226.92 204.816 223.34 204.816 219.78C204.816 216.21 203.446 212.64 200.726 209.92L187.486 196.67C182.896 192.09 175.906 191.37 170.566 194.5C169.566 195.09 168.626 195.81 167.766 196.67C165.046 199.4 163.676 202.96 163.676 206.53Z" fill="#2E3140"/>
<path d="M163.676 206.53C163.676 210.1 165.046 213.67 167.766 216.39L181.006 229.64C181.866 230.5 182.806 231.22 183.806 231.8C184.806 231.22 185.756 230.5 186.616 229.64C189.346 226.92 190.706 223.34 190.706 219.78C190.706 216.21 189.346 212.64 186.616 209.92L173.376 196.67C172.516 195.81 171.566 195.09 170.566 194.5C169.566 195.09 168.626 195.81 167.766 196.67C165.046 199.4 163.676 202.96 163.676 206.53Z" fill="#3E4E60"/>
<path d="M176.819 214.911C181.721 214.911 185.694 210.938 185.694 206.036C185.694 201.134 181.721 197.161 176.819 197.161C171.917 197.161 167.944 201.134 167.944 206.036C167.944 210.938 171.917 214.911 176.819 214.911Z" fill="white"/>
<path d="M113.145 174.288H161.221C166.272 174.288 170.366 178.477 170.366 183.644C170.366 188.811 166.272 193 161.221 193H113.145C108.094 193 104 188.811 104 183.644C104 178.477 108.094 174.288 113.145 174.288Z" fill="#F9A824"/>
<path d="M108.173 176.596L124.083 164.44L128.148 170.008L112.238 182.165L108.173 176.596Z" fill="#F9A824"/>
<path d="M162.267 179.1H196.756C199.209 179.1 201.198 181.134 201.198 183.644C201.198 186.154 199.209 188.188 196.756 188.188H162.267C159.813 188.188 157.825 186.154 157.825 183.644C157.825 181.134 159.813 179.1 162.267 179.1Z" fill="#FDD835"/>
<path d="M294.215 170.546H166.186C164.743 170.546 163.573 171.743 163.573 173.219V193H294.215V170.546Z" fill="#FDD835"/>
<path d="M333.408 166.269H387.755V193H333.408V166.269Z" fill="#FDEF59"/>
<path d="M160.176 188.188H219.749C221.048 188.188 222.101 189.265 222.101 190.594C222.101 191.923 221.048 193 219.749 193H160.176C158.878 193 157.825 191.923 157.825 190.594C157.825 189.265 158.878 188.188 160.176 188.188Z" fill="#F9A824"/>
<path d="M120.2 170.546H165.663V176.427H120.2V170.546Z" fill="#F9A824"/>
<path d="M159.09 179.83L163.832 171.922C164.482 170.837 165.869 170.498 166.929 171.163C167.99 171.828 168.322 173.247 167.671 174.332L162.93 182.24C162.28 183.324 160.893 183.664 159.833 182.999C158.772 182.333 158.44 180.915 159.09 179.83Z" fill="#FDD835"/>
<path d="M289.251 170.546H385.404C386.702 170.546 387.755 171.623 387.755 172.952C387.755 174.28 386.702 175.357 385.404 175.357H289.251C287.952 175.357 286.899 174.28 286.899 172.952C286.899 171.623 287.952 170.546 289.251 170.546Z" fill="#FDEF59"/>
<path d="M352.743 183.377C352.743 178.948 349.233 175.357 344.904 175.357H272.267V193H352.743V183.377Z" fill="#FDD835"/>
<path d="M373.489 147.296C373.857 142.716 377.785 139.308 382.262 139.685C386.739 140.061 390.07 144.08 389.702 148.66L387.689 173.701C387.321 178.281 383.393 181.689 378.916 181.312C374.439 180.936 371.108 176.918 371.476 172.337L373.489 147.296Z" fill="#FDEF59"/>
<path d="M373.385 175.357H396.378C401.14 175.357 405 179.307 405 184.179C405 189.051 401.14 193 396.378 193H373.385C368.623 193 364.762 189.051 364.762 184.179C364.762 179.307 368.623 175.357 373.385 175.357Z" fill="#FDEF59"/>
<path d="M380.447 175.152L387.703 166.028L401.662 177.648L394.406 186.772L380.447 175.152Z" fill="#FDEF59"/>
<path d="M143.715 166.269H385.665C386.819 166.269 387.755 167.226 387.755 168.407C387.755 169.588 386.819 170.546 385.665 170.546H143.715C142.561 170.546 141.625 169.588 141.625 168.407C141.625 167.226 142.561 166.269 143.715 166.269Z" fill="#F9A824"/>
<path d="M120.135 148.973C119.767 144.393 123.098 140.375 127.575 139.998C132.052 139.622 135.98 143.03 136.348 147.61L138.359 172.651C138.727 177.231 135.396 181.25 130.919 181.626C126.442 182.002 122.514 178.594 122.146 174.014L120.135 148.973Z" fill="#F9A824"/>
<path d="M130.128 140.339C130.128 123.665 133.345 107.154 139.596 91.7488C145.846 76.3435 155.007 62.3459 166.556 50.5553L254.5 140.339H130.128Z" fill="#F9A824"/>
<path d="M166.556 50.5552C177.065 39.8263 189.373 31.1072 202.895 24.8116L254.5 140.339L166.556 50.5552Z" fill="#FDD835"/>
<path d="M202.766 33.1469C176.214 33.1469 154.689 55.1681 154.689 82.3325V139.537H202.766V33.1469Z" fill="#FDD835"/>
<path d="M130.129 139.537H209.559V170.546H130.129V139.537Z" fill="#F9A824"/>
<path d="M202.766 144.349H154.689V152.903C154.689 160.285 160.538 166.269 167.753 166.269H202.766V144.349Z" fill="#FDD835"/>
<path d="M342.444 50.5553C353.993 62.3459 363.154 76.3435 369.404 91.7488C375.655 107.154 378.872 123.665 378.872 140.339H254.5L342.444 50.5553Z" fill="#FDEF59"/>
<path d="M305.364 24.4694C318.348 30.4101 330.237 38.5814 340.514 48.6276L254.5 140.339L305.364 24.4694Z" fill="#FDD835"/>
<path d="M237.255 0C218.207 0 202.766 15.7978 202.766 35.2853V166.269H237.255V0Z" fill="#F9A824"/>
<path d="M306.757 35.2853C306.757 15.7978 291.315 0 272.267 0V166.269H306.757V35.2853Z" fill="#F9A824"/>
<path d="M237.255 13.3657H272.267V166.269H237.255V13.3657Z" fill="#FDD835"/>
<path d="M352.743 73.2438C352.743 56.1181 339.174 42.2355 322.434 42.2355H306.757V139.537H352.743V73.2438Z" fill="#FDD835"/>
<path d="M322.434 140.607H380.439V166.269H322.434V140.607Z" fill="#FDEF59"/>
<path d="M352.743 153.438C352.743 150.78 350.638 148.626 348.04 148.626H306.757V166.269H352.743V153.438Z" fill="#FDD835"/>
<path d="M306.757 140.607H322.434V164.665H306.757V140.607Z" fill="#FDD835"/>
<path d="M380.439 141.118C380.439 139.95 379.514 139.003 378.372 139.003H306.757V144.349H377.281C379.025 144.349 380.439 142.902 380.439 141.118Z" fill="#F9A824"/>
<path d="M254.5 157.715C218.713 157.715 189.701 128.034 189.701 91.4211C189.701 54.8081 218.713 25.1274 254.5 25.1274C290.287 25.1274 319.299 54.8081 319.299 91.4211C319.299 128.034 290.287 157.715 254.5 157.715Z" fill="#FDEF59"/>
<path d="M254.5 127.241C235.452 127.241 220.01 111.443 220.01 91.9556C220.01 72.4681 235.452 56.6703 254.5 56.6703C273.548 56.6703 288.99 72.4681 288.99 91.9556C288.99 111.443 273.548 127.241 254.5 127.241Z" fill="#E2F4FF"/>
<path d="M262.077 119.756C241.442 119.756 224.714 102.642 224.714 81.5305C224.714 60.419 241.442 43.3047 262.077 43.3047C282.713 43.3047 299.441 60.419 299.441 81.5305C299.441 102.642 282.713 119.756 262.077 119.756Z" fill="white"/>
<path d="M198.585 92.7576C198.585 124.794 223.97 150.765 255.284 150.765C286.598 150.765 311.983 124.794 311.983 92.7576C311.983 60.7212 286.598 34.7506 255.284 34.7506C223.97 34.7506 198.585 60.7212 198.585 92.7576ZM296.567 92.7576C296.567 116.083 278.084 134.993 255.284 134.993C232.484 134.993 214.001 116.083 214.001 92.7576C214.001 69.4318 232.484 50.5221 255.284 50.5221C278.084 50.5221 296.567 69.4318 296.567 92.7576Z" fill="#F9A824"/>
<path d="M211.127 91.9557C211.127 116.167 230.312 135.795 253.977 135.795C277.643 135.795 296.828 116.167 296.828 91.9557C296.828 67.7441 277.643 48.1164 253.977 48.1164C230.312 48.1164 211.127 67.7441 211.127 91.9557ZM287.944 91.9557C287.944 111.148 272.737 126.706 253.977 126.706C235.218 126.706 220.01 111.148 220.01 91.9557C220.01 72.7632 235.218 57.205 253.977 57.205C272.737 57.205 287.944 72.7632 287.944 91.9557Z" fill="#F17F16"/>
<path d="M230.198 0.783173C220.714 3.30017 211.562 6.97909 202.939 11.7402L204.079 13.9009C212.531 9.23367 221.503 5.62724 230.8 3.15983L230.198 0.783173Z" fill="#F9A824"/>
<path d="M202.766 11.7618H214.262V33.1469H202.766V11.7618Z" fill="#F9A824"/>
<path d="M295.26 11.7618H306.757V33.1469H295.26V11.7618Z" fill="#F9A824"/>
<path d="M218.443 6.95013H214.262C210.222 6.95013 206.946 10.3012 206.946 14.4349V28.3352H218.443V6.95013Z" fill="#F9A824"/>
<path d="M302.576 13.9003C302.576 10.6524 300.003 8.01941 296.828 8.01941C293.653 8.01941 291.08 10.6524 291.08 13.9003V29.4045H302.576V13.9003Z" fill="#F9A824"/>
<path d="M306.887 10.8472C299.258 7.1464 291.333 4.12084 283.2 1.80356L282.471 4.48102C290.455 6.75569 298.234 9.72576 305.723 13.3585L306.887 10.8472Z" fill="#F9A824"/>
<path d="M322.957 144.349H357.446C358.601 144.349 359.536 145.307 359.536 146.488C359.536 147.669 358.601 148.626 357.446 148.626H322.957C321.802 148.626 320.866 147.669 320.866 146.488C320.866 145.307 321.802 144.349 322.957 144.349Z" fill="#FDEF59"/>
</svg>
