<svg width="512" height="512" viewBox="0 0 512 512" fill="none" xmlns="http://www.w3.org/2000/svg">
<path d="M256 512C397.385 512 512 397.385 512 256C512 114.615 397.385 0 256 0C114.615 0 0 114.615 0 256C0 397.385 114.615 512 256 512Z" fill="#6C53A2"/>
<path d="M173.278 37.96V194.76C173.278 203.108 174.859 211.245 177.799 218.028L196.471 261.109L201.111 256.009L245.12 207.597L234.105 131.422C232.638 122.61 229.959 114.487 226.271 107.683L184.617 30.735C182.424 26.72 178.771 26.02 176.084 29.101C175.21 30.116 174.504 31.447 174.025 32.964C173.919 33.279 173.828 33.618 173.75 33.944C173.441 35.206 173.278 36.56 173.278 37.96Z" fill="#F4829B"/>
<path d="M245.12 207.6L201.11 256.01L196.28 235.18C195.47 231.66 194.79 228.09 194.26 224.47C191.88 208.39 192.25 191.47 195.4 175.61C196.83 168.39 197.68 159.86 197.96 150.94C198.54 132.88 196.79 113.18 192.76 99.33L173.75 33.95C173.83 33.62 173.92 33.28 174.03 32.97C174.51 31.45 175.21 30.12 176.08 29.1C178.77 26.02 182.42 26.72 184.62 30.74L205.86 69.969L226.27 107.679C229.96 114.489 232.64 122.609 234.11 131.419L238.12 159.139L245.12 207.6Z" fill="#D48D77"/>
<path d="M212.5 125.61C212.5 134.88 211.98 144.71 210.98 154.6C208.37 180.42 202.52 206.68 194.26 224.47C191.88 208.39 192.25 191.47 195.4 175.61C196.83 168.39 197.68 159.86 197.96 150.94C198.54 132.88 196.79 113.18 192.76 99.33L173.75 33.95C173.83 33.62 173.92 33.28 174.03 32.97C174.51 31.45 175.21 30.12 176.08 29.1C178.77 26.02 182.42 26.72 184.62 30.74L205.86 69.969C210.14 87.12 212.5 105.91 212.5 125.61Z" fill="#EEA47D"/>
<path d="M197.96 150.94C198.54 132.88 196.79 113.18 192.76 99.33L173.75 33.95C173.83 33.62 173.92 33.28 174.03 32.97C174.51 31.45 175.21 30.12 176.08 29.1C178.77 26.02 182.42 26.72 184.62 30.74L205.86 69.969L226.27 107.679C229.96 114.489 232.64 122.609 234.11 131.419L238.12 159.139C224.25 157.84 210.8 155.06 197.96 150.94Z" fill="#2E3140"/>
<path d="M212.5 125.61C212.5 134.88 211.98 144.71 210.98 154.6C206.58 153.53 202.23 152.31 197.96 150.94C198.54 132.88 196.79 113.18 192.76 99.33L173.75 33.95C173.83 33.62 173.92 33.28 174.03 32.97C174.51 31.45 175.21 30.12 176.08 29.1C178.77 26.02 182.42 26.72 184.62 30.74L205.86 69.969C210.14 87.12 212.5 105.91 212.5 125.61Z" fill="#334353"/>
<path d="M338.714 37.96V194.76C338.714 203.108 337.133 211.245 334.193 218.028L315.521 261.109L310.881 256.009L266.872 207.597L277.887 131.422C279.354 122.61 282.033 114.487 285.721 107.683L327.375 30.735C329.568 26.72 333.221 26.02 335.908 29.101C336.782 30.116 337.488 31.447 337.967 32.964C338.073 33.279 338.164 33.618 338.242 33.944C338.552 35.206 338.714 36.56 338.714 37.96Z" fill="#FF9FB4"/>
<path d="M316.59 175.61C319.75 191.47 320.11 208.39 317.73 224.47C317.2 228.09 316.52 231.66 315.71 235.18L310.88 256.01L266.87 207.6L273.88 159.14L277.89 131.42C279.35 122.61 282.03 114.49 285.72 107.68L306.14 69.97L327.38 30.741C329.57 26.72 333.22 26.021 335.91 29.101C336.78 30.121 337.49 31.451 337.97 32.971C338.07 33.281 338.16 33.621 338.24 33.951L319.23 99.331C315.21 113.181 313.45 132.881 314.03 150.941C314.31 159.87 315.16 168.39 316.59 175.61Z" fill="#EEA47D"/>
<path d="M316.59 175.61C319.75 191.47 320.11 208.39 317.73 224.47C309.47 206.68 303.62 180.42 301.02 154.6C300.01 144.71 299.49 134.88 299.49 125.61C299.49 105.91 301.86 87.12 306.14 69.97L327.38 30.741C329.57 26.72 333.22 26.021 335.91 29.101C336.78 30.121 337.49 31.451 337.97 32.971C338.07 33.281 338.16 33.621 338.24 33.951L319.23 99.331C315.21 113.181 313.45 132.881 314.03 150.941C314.31 159.87 315.16 168.39 316.59 175.61Z" fill="#F5B890"/>
<path d="M319.23 99.33C315.21 113.18 313.45 132.88 314.03 150.94C301.19 155.06 287.75 157.84 273.88 159.14L277.89 131.42C279.35 122.61 282.03 114.49 285.72 107.68L306.14 69.97L327.38 30.741C329.57 26.72 333.22 26.021 335.91 29.101C336.78 30.121 337.49 31.451 337.97 32.971C338.07 33.281 338.16 33.621 338.24 33.951L319.23 99.33Z" fill="#334353"/>
<path d="M319.23 99.33C315.21 113.18 313.45 132.88 314.03 150.94C309.76 152.31 305.42 153.53 301.02 154.6C300.01 144.71 299.49 134.88 299.49 125.61C299.49 105.91 301.86 87.12 306.14 69.97L327.38 30.741C329.57 26.72 333.22 26.021 335.91 29.101C336.78 30.121 337.49 31.451 337.97 32.971C338.07 33.281 338.16 33.621 338.24 33.951L319.23 99.33Z" fill="#3E4E60"/>
<path d="M357.979 341.092V359.899C357.979 406.892 314.412 444.991 260.674 444.991H251.325C197.578 444.991 154.011 406.892 154.011 359.899V341.092C154.011 294.099 197.578 247.11 251.325 247.11H260.674C314.412 247.11 357.979 294.099 357.979 341.092Z" fill="#A26D5A"/>
<path d="M357.979 341.092V359.899C357.979 406.892 314.412 444.991 260.674 444.991H256V247.11H260.675C314.412 247.11 357.979 294.099 357.979 341.092Z" fill="#C17E62"/>
<path d="M277.335 450.74H234.666C206.959 450.74 185.832 422.11 190.219 390.52L192.877 371.37L195.831 350.07C198.048 334.13 198.048 317.87 195.831 301.93L191.644 271.72C186.505 234.76 211.234 201.26 243.656 201.26H268.345C300.767 201.26 325.497 234.76 320.357 271.72L316.17 301.93C313.953 317.87 313.953 334.13 316.17 350.07L319.124 371.37L321.782 390.52C326.169 422.11 305.042 450.74 277.335 450.74Z" fill="#C17E62"/>
<path d="M277.335 450.74H256V201.26H268.345C300.767 201.26 325.497 234.76 320.357 271.72L316.17 301.93C313.953 317.87 313.953 334.13 316.17 350.07L319.124 371.37L321.782 390.52C326.169 422.11 305.042 450.74 277.335 450.74Z" fill="#D48D77"/>
<path d="M320.58 307.358C330.313 309.074 336.834 318.284 335.246 328.011C335.245 328.096 335.231 328.178 335.216 328.26L333.036 340.622C332.172 345.523 329.402 349.622 325.618 352.272C321.831 354.935 317.046 356.138 312.131 355.272C303 353.662 296.685 345.448 297.247 336.415C297.283 335.73 297.363 335.038 297.484 334.353L299.664 321.991C300.531 317.076 303.311 312.993 307.096 310.344C310.88 307.695 315.666 306.492 320.58 307.358Z" fill="#3E4E60"/>
<path d="M320.58 307.358C330.313 309.074 336.834 318.284 335.246 328.011C327.93 336.122 316.113 340.376 303.806 338.206C301.52 337.803 299.325 337.204 297.248 336.414C297.284 335.729 297.364 335.037 297.485 334.352L299.665 321.99C300.532 317.075 303.312 312.992 307.097 310.343C310.88 307.695 315.666 306.492 320.58 307.358Z" fill="#2E3140"/>
<path d="M308.357 319.606L307.046 327.044C306.481 330.247 308.62 333.301 311.822 333.866C315.025 334.431 318.079 332.292 318.644 329.09L319.955 321.652C320.52 318.449 318.381 315.395 315.179 314.83C311.976 314.265 308.922 316.403 308.357 319.606Z" fill="white"/>
<path d="M191.42 307.358C181.687 309.074 175.166 318.284 176.754 328.011C176.755 328.096 176.769 328.178 176.784 328.26L178.964 340.622C179.828 345.523 182.598 349.622 186.382 352.272C190.169 354.935 194.954 356.138 199.869 355.272C209 353.662 215.315 345.448 214.753 336.415C214.717 335.73 214.637 335.038 214.516 334.353L212.336 321.991C211.469 317.076 208.689 312.993 204.904 310.344C201.12 307.695 196.334 306.492 191.42 307.358Z" fill="#3E4E60"/>
<path d="M191.42 307.358C181.687 309.074 175.166 318.284 176.754 328.011C184.07 336.122 195.887 340.376 208.194 338.206C210.48 337.803 212.675 337.204 214.752 336.414C214.716 335.729 214.636 335.037 214.515 334.352L212.335 321.99C211.468 317.075 208.688 312.992 204.903 310.343C201.12 307.695 196.334 306.492 191.42 307.358Z" fill="#2E3140"/>
<path d="M203.643 319.606L204.954 327.044C205.519 330.247 203.38 333.301 200.178 333.866C196.975 334.431 193.921 332.292 193.356 329.09L192.045 321.652C191.48 318.449 193.619 315.395 196.821 314.83C200.024 314.265 203.078 316.403 203.643 319.606Z" fill="white"/>
<path d="M256 218.919C292.116 218.919 302.557 235.785 302.557 258.741C302.557 281.697 293.842 322.925 256 322.925V218.919Z" fill="#EEA47D"/>
<path d="M256 218.919C219.884 218.919 209.443 235.785 209.443 258.741C209.443 281.697 218.158 322.925 256 322.925V218.919Z" fill="#D48D77"/>
<path d="M327.051 414.53C327.051 438.625 305.87 459 278.844 459H233.157C203.49 459 180.87 434.459 185.567 407.381C186.39 402.632 188.858 398.535 192.33 395.612C195.793 392.698 200.259 390.966 205.076 390.966H306.925C316.56 390.966 324.788 397.892 326.434 407.381C326.854 409.79 327.051 412.173 327.051 414.53Z" fill="#D48D77"/>
<path d="M327.051 414.53C327.051 438.625 305.87 459 278.844 459H256V390.966H306.924C316.559 390.966 324.787 397.892 326.433 407.381C326.854 409.79 327.051 412.173 327.051 414.53Z" fill="#EEA47D"/>
<path d="M316.067 437.109C313.911 436.151 311.379 437.123 310.413 439.279C310.354 439.413 304.298 452.639 293.168 452.639C276.316 452.639 268.981 441.904 264.217 435.402C261.663 431.917 260.286 427.714 260.286 423.393V415.443C260.286 413.204 258.649 411.205 256.421 410.993C253.865 410.75 251.715 412.753 251.715 415.259V423.393C251.715 427.714 250.338 431.916 247.784 435.402C243.02 441.904 235.685 452.639 218.833 452.639C207.703 452.639 201.648 439.413 201.593 439.291C200.638 437.126 198.109 436.144 195.943 437.098C193.777 438.053 192.795 440.583 193.75 442.749C194.082 443.503 202.082 461.211 218.833 461.211C234.921 461.211 243.356 452.726 249.03 445.966C252.67 441.629 259.331 441.629 262.971 445.966C268.645 452.726 277.08 461.211 293.168 461.211C309.919 461.211 317.919 443.503 318.251 442.749C319.203 440.587 318.226 438.068 316.067 437.109Z" fill="#A26D5A"/>
<path d="M275.988 383.026V399.692C275.988 402.477 275.179 405.216 273.673 407.569L269.918 413.403C267.989 416.414 264.667 418.231 261.1 418.231H250.9C247.333 418.231 244.011 416.415 242.082 413.403L238.327 407.569C236.821 405.216 236.012 402.478 236.012 399.692V383.026C236.012 377.229 240.708 372.533 246.505 372.533H265.496C271.292 372.534 275.988 377.229 275.988 383.026Z" fill="#F4829B"/>
<path d="M275.988 383.026V399.692C275.988 402.477 275.179 405.216 273.673 407.569L269.918 413.403C267.989 416.414 264.667 418.231 261.1 418.231H256V372.534H265.495C271.292 372.534 275.988 377.229 275.988 383.026Z" fill="#FF9FB4"/>
<path d="M352.727 437.081C352.547 436.705 348.276 427.812 336.271 422.079C330.489 419.319 324.029 417.751 316.908 417.375C304.756 416.738 290.685 419.572 274.849 425.86C273.387 426.448 272.668 428.106 273.248 429.576C273.836 431.038 275.494 431.757 276.964 431.177C292.415 425.036 306.299 422.373 317.961 423.239C323.678 423.664 328.864 424.938 333.437 427.061C343.776 431.863 347.525 439.442 347.549 439.507C348.039 440.544 349.068 441.157 350.138 441.157C350.546 441.157 350.963 441.067 351.355 440.888C352.784 440.209 353.396 438.51 352.727 437.081Z" fill="#EEA47D"/>
<path d="M352.727 437.081C353.397 438.51 352.784 440.209 351.355 440.887C350.963 441.067 350.546 441.156 350.138 441.156C349.068 441.156 348.039 440.543 347.549 439.506C347.524 439.441 343.776 431.862 333.437 427.06C328.864 424.937 323.678 423.663 317.961 423.238C317.528 421.311 317.169 419.359 316.907 417.374C324.028 417.75 330.488 419.318 336.27 422.078C348.276 427.811 352.547 436.705 352.727 437.081Z" fill="#F5B890"/>
<path d="M366.205 402.049C365.937 401.73 359.576 394.188 346.519 391.642C340.23 390.416 333.583 390.515 326.595 391.933C314.67 394.357 301.756 400.622 287.998 410.673C286.73 411.608 286.449 413.393 287.378 414.671C288.313 415.939 290.098 416.22 291.376 415.291C304.799 405.479 317.575 399.427 329.082 397.347C334.723 396.328 340.063 396.263 345.022 397.175C356.234 399.237 361.759 405.637 361.8 405.694C362.534 406.576 363.683 406.911 364.719 406.643C365.114 406.541 365.495 406.35 365.83 406.078C367.043 405.063 367.211 403.265 366.205 402.049Z" fill="#EEA47D"/>
<path d="M366.205 402.049C367.211 403.265 367.043 405.063 365.829 406.077C365.494 406.349 365.114 406.54 364.718 406.642C363.682 406.91 362.533 406.574 361.799 405.693C361.759 405.636 356.233 399.236 345.021 397.174C340.062 396.263 334.722 396.327 329.081 397.346C328.18 395.588 327.343 393.788 326.594 391.932C333.583 390.514 340.23 390.415 346.518 391.641C359.576 394.189 365.937 401.73 366.205 402.049Z" fill="#F5B890"/>
<path d="M160.645 440.886C161.037 441.066 161.454 441.155 161.862 441.155C162.932 441.155 163.961 440.542 164.451 439.505C164.476 439.44 168.224 431.861 178.563 427.059C183.136 424.936 188.322 423.662 194.039 423.237C205.701 422.371 219.585 425.034 235.036 431.175C236.506 431.755 238.164 431.036 238.752 429.574C239.332 428.104 238.613 426.446 237.151 425.858C221.316 419.57 207.244 416.736 195.092 417.373C187.971 417.749 181.511 419.317 175.729 422.077C163.724 427.81 159.453 436.704 159.273 437.079C158.604 438.51 159.216 440.209 160.645 440.886Z" fill="#EEA47D"/>
<path d="M159.273 437.081C158.603 438.51 159.216 440.209 160.645 440.887C161.037 441.067 161.454 441.156 161.862 441.156C162.932 441.156 163.961 440.543 164.451 439.506C164.476 439.441 168.224 431.862 178.563 427.06C183.136 424.937 188.322 423.663 194.039 423.238C194.472 421.311 194.831 419.359 195.093 417.374C187.972 417.75 181.512 419.318 175.73 422.078C163.724 427.811 159.453 436.705 159.273 437.081Z" fill="#F5B890"/>
<path d="M146.171 406.077C146.506 406.349 146.886 406.54 147.282 406.642C148.318 406.91 149.467 406.574 150.201 405.693C150.241 405.636 155.767 399.236 166.979 397.174C171.938 396.263 177.278 396.327 182.919 397.346C194.427 399.426 207.202 405.478 220.625 415.29C221.903 416.219 223.688 415.938 224.623 414.67C225.552 413.392 225.271 411.607 224.003 410.672C210.245 400.621 197.331 394.357 185.406 391.932C178.417 390.514 171.77 390.415 165.482 391.641C152.424 394.188 146.064 401.73 145.796 402.048C144.789 403.265 144.957 405.063 146.171 406.077Z" fill="#EEA47D"/>
<path d="M145.795 402.049C144.789 403.265 144.957 405.063 146.171 406.077C146.506 406.349 146.886 406.54 147.282 406.642C148.318 406.91 149.467 406.574 150.201 405.693C150.241 405.636 155.767 399.236 166.979 397.174C171.938 396.263 177.278 396.327 182.919 397.346C183.82 395.588 184.657 393.788 185.406 391.932C178.417 390.514 171.77 390.415 165.482 391.641C152.424 394.189 146.063 401.73 145.795 402.049Z" fill="#F5B890"/>
<path d="M152.775 287.233H188.393C192.135 287.233 195.168 290.315 195.168 294.116C195.168 297.918 192.135 301 188.393 301H152.775C149.033 301 146 297.918 146 294.116C146 290.315 149.033 287.233 152.775 287.233Z" fill="#F9A824"/>
<path d="M149.091 288.931L160.879 279.987L163.89 284.084L152.103 293.028L149.091 288.931Z" fill="#F9A824"/>
<path d="M189.168 290.773H214.72C216.537 290.773 218.01 292.27 218.01 294.116C218.01 295.963 216.537 297.46 214.72 297.46H189.168C187.35 297.46 185.877 295.963 185.877 294.116C185.877 292.27 187.35 290.773 189.168 290.773Z" fill="#FDD835"/>
<path d="M286.924 284.479H192.071C191.002 284.479 190.135 285.36 190.135 286.446V301H286.924V284.479Z" fill="#FDD835"/>
<path d="M315.96 281.332H356.224V301H315.96V281.332Z" fill="#FDEF59"/>
<path d="M187.619 297.46H231.754C232.717 297.46 233.497 298.252 233.497 299.23C233.497 300.207 232.717 301 231.754 301H187.619C186.657 301 185.877 300.207 185.877 299.23C185.877 298.252 186.657 297.46 187.619 297.46Z" fill="#F9A824"/>
<path d="M158.002 284.479H191.684V288.806H158.002V284.479Z" fill="#F9A824"/>
<path d="M186.815 291.31L190.327 285.492C190.809 284.694 191.837 284.444 192.622 284.933C193.408 285.423 193.654 286.467 193.172 287.265L189.659 293.083C189.177 293.881 188.15 294.131 187.364 293.642C186.579 293.152 186.333 292.108 186.815 291.31Z" fill="#FDD835"/>
<path d="M283.246 284.479H354.482C355.444 284.479 356.224 285.272 356.224 286.249C356.224 287.227 355.444 288.019 354.482 288.019H283.246C282.284 288.019 281.504 287.227 281.504 286.249C281.504 285.272 282.284 284.479 283.246 284.479Z" fill="#FDEF59"/>
<path d="M330.285 293.92C330.285 290.661 327.685 288.019 324.477 288.019H270.663V301H330.285V293.92Z" fill="#FDD835"/>
<path d="M345.654 267.374C345.927 264.004 348.837 261.496 352.154 261.773C355.471 262.05 357.939 265.007 357.666 268.377L356.175 286.801C355.902 290.171 352.993 292.678 349.676 292.401C346.359 292.124 343.891 289.167 344.164 285.797L345.654 267.374Z" fill="#FDEF59"/>
<path d="M345.577 288.019H362.612C366.14 288.019 369 290.925 369 294.51C369 298.094 366.14 301 362.612 301H345.577C342.049 301 339.189 298.094 339.189 294.51C339.189 290.925 342.049 288.019 345.577 288.019Z" fill="#FDEF59"/>
<path d="M350.81 287.868L356.185 281.155L366.527 289.705L361.152 296.417L350.81 287.868Z" fill="#FDEF59"/>
<path d="M175.424 281.332H354.675C355.531 281.332 356.224 282.037 356.224 282.906C356.224 283.775 355.531 284.479 354.675 284.479H175.424C174.568 284.479 173.875 283.775 173.875 282.906C173.875 282.037 174.568 281.332 175.424 281.332Z" fill="#F9A824"/>
<path d="M157.954 268.607C157.681 265.237 160.149 262.281 163.466 262.004C166.783 261.727 169.693 264.234 169.965 267.604L171.455 286.028C171.728 289.398 169.26 292.355 165.943 292.631C162.626 292.908 159.716 290.401 159.444 287.031L157.954 268.607Z" fill="#F9A824"/>
<path d="M165.358 262.255C165.358 249.987 167.741 237.839 172.372 226.504C177.002 215.17 183.789 204.871 192.346 196.196L257.5 262.255H165.358Z" fill="#F9A824"/>
<path d="M192.346 196.196C200.131 188.302 209.249 181.887 219.268 177.255L257.5 262.255L192.346 196.196Z" fill="#FDD835"/>
<path d="M219.172 183.388C199.501 183.388 183.554 199.59 183.554 219.576V261.665H219.172V183.388Z" fill="#FDD835"/>
<path d="M165.358 261.665H224.205V284.479H165.358V261.665Z" fill="#F9A824"/>
<path d="M219.172 265.205H183.554V271.499C183.554 276.93 187.887 281.332 193.233 281.332H219.172V265.205Z" fill="#FDD835"/>
<path d="M322.654 196.196C331.211 204.871 337.998 215.17 342.628 226.504C347.259 237.839 349.642 249.986 349.642 262.255H257.5L322.654 196.196Z" fill="#FDEF59"/>
<path d="M295.183 177.003C304.802 181.374 313.611 187.386 321.225 194.778L257.5 262.255L295.183 177.003Z" fill="#FDD835"/>
<path d="M244.724 159C230.612 159 219.172 170.623 219.172 184.961L219.172 281.332H244.724L244.724 159Z" fill="#F9A824"/>
<path d="M296.215 184.961C296.215 170.623 284.775 159 270.663 159L270.663 281.332H296.215V184.961Z" fill="#F9A824"/>
<path d="M244.724 168.834H270.663V281.332H244.724V168.834Z" fill="#FDD835"/>
<path d="M330.285 212.889C330.285 200.289 320.231 190.075 307.83 190.075H296.215V261.665H330.285V212.889Z" fill="#FDD835"/>
<path d="M307.83 262.452H350.804V281.332H307.83V262.452Z" fill="#FDEF59"/>
<path d="M330.285 271.892C330.285 269.936 328.725 268.352 326.8 268.352H296.215V281.332H330.285V271.892Z" fill="#FDD835"/>
<path d="M296.215 262.452H307.83V280.152H296.215V262.452Z" fill="#FDD835"/>
<path d="M350.804 262.828C350.804 261.968 350.118 261.271 349.272 261.271H296.215V265.205H348.464C349.756 265.205 350.804 264.141 350.804 262.828Z" fill="#F9A824"/>
<path d="M257.5 275.039C230.986 275.039 209.493 253.201 209.493 226.263C209.493 199.325 230.986 177.488 257.5 177.488C284.013 177.488 305.507 199.325 305.507 226.263C305.507 253.201 284.013 275.039 257.5 275.039Z" fill="#FDEF59"/>
<path d="M257.5 252.618C243.388 252.618 231.948 240.994 231.948 226.656C231.948 212.318 243.388 200.695 257.5 200.695C271.612 200.695 283.052 212.318 283.052 226.656C283.052 240.994 271.612 252.618 257.5 252.618Z" fill="#E2F4FF"/>
<path d="M263.114 247.111C247.826 247.111 235.432 234.519 235.432 218.986C235.432 203.453 247.826 190.862 263.114 190.862C278.402 190.862 290.795 203.453 290.795 218.986C290.795 234.519 278.402 247.111 263.114 247.111Z" fill="white"/>
<path d="M216.075 227.246C216.075 250.817 234.881 269.925 258.081 269.925C281.28 269.925 300.087 250.817 300.087 227.246C300.087 203.676 281.28 184.568 258.081 184.568C234.881 184.568 216.075 203.676 216.075 227.246ZM288.666 227.246C288.666 244.408 274.972 258.321 258.081 258.321C241.189 258.321 227.496 244.408 227.496 227.246C227.496 210.084 241.189 196.172 258.081 196.172C274.972 196.172 288.666 210.084 288.666 227.246Z" fill="#F9A824"/>
<path d="M225.366 226.657C225.366 244.47 239.58 258.911 257.113 258.911C274.646 258.911 288.859 244.47 288.859 226.657C288.859 208.843 274.646 194.402 257.113 194.402C239.58 194.402 225.366 208.843 225.366 226.657ZM282.278 226.657C282.278 240.777 271.011 252.224 257.113 252.224C243.214 252.224 231.948 240.777 231.948 226.657C231.948 212.536 243.214 201.089 257.113 201.089C271.011 201.089 282.278 212.536 282.278 226.657Z" fill="#F17F16"/>
<path d="M239.495 159.576C232.469 161.428 225.688 164.135 219.3 167.638L220.145 169.228C226.407 165.794 233.054 163.14 239.942 161.325L239.495 159.576Z" fill="#F9A824"/>
<path d="M219.172 167.654H227.689V183.388H219.172V167.654Z" fill="#F9A824"/>
<path d="M287.698 167.654H296.215V183.388H287.698V167.654Z" fill="#F9A824"/>
<path d="M230.786 164.114H227.689C224.696 164.114 222.269 166.579 222.269 169.621V179.848H230.786V164.114Z" fill="#F9A824"/>
<path d="M293.118 169.227C293.118 166.837 291.211 164.9 288.859 164.9C286.507 164.9 284.601 166.837 284.601 169.227V180.634H293.118V169.227Z" fill="#F9A824"/>
<path d="M296.311 166.981C290.659 164.258 284.788 162.032 278.762 160.327L278.222 162.297C284.138 163.971 289.901 166.156 295.449 168.829L296.311 166.981Z" fill="#F9A824"/>
<path d="M308.217 265.205H333.769C334.624 265.205 335.318 265.91 335.318 266.778C335.318 267.647 334.624 268.352 333.769 268.352H308.217C307.362 268.352 306.668 267.647 306.668 266.778C306.668 265.91 307.362 265.205 308.217 265.205Z" fill="#FDEF59"/>
</svg>
