<svg width="512" height="512" viewBox="0 0 512 512" fill="none" xmlns="http://www.w3.org/2000/svg">
<path d="M256 512C397.385 512 512 397.385 512 256C512 114.615 397.385 0 256 0C114.615 0 0 114.615 0 256C0 397.385 114.615 512 256 512Z" fill="#EE6781"/>
<path d="M430.881 189.617C426.54 203.685 417.527 218.574 401.805 233.949L303.33 148.685C321.952 122.547 336.139 105.304 347.591 94.756C371.957 72.293 383.885 80.153 399.748 97.099C417.039 115.579 443.355 149.161 430.881 189.617Z" fill="#FFDAE2"/>
<path d="M430.881 189.617C382.351 177.107 347.377 141.836 347.377 100.274C347.377 98.419 347.448 96.587 347.591 94.756C371.957 72.293 383.885 80.153 399.748 97.099C417.039 115.579 443.355 149.161 430.881 189.617Z" fill="white"/>
<path d="M343.747 169.144C340.588 165.824 339.321 161.122 340.42 156.674C350.756 114.846 366.971 70.541 400.655 113.787C430.58 152.207 420.973 185.844 403.899 209.277C398.941 216.081 389.041 216.751 383.238 210.652L343.747 169.144Z" fill="#F4829B"/>
<path d="M81.111 189.617C85.452 203.685 94.465 218.574 110.187 233.949L208.662 148.685C190.04 122.547 175.853 105.304 164.401 94.756C140.035 72.293 128.107 80.153 112.244 97.099C94.954 115.579 68.637 149.161 81.111 189.617Z" fill="#EAD0FF"/>
<path d="M81.111 189.617C129.641 177.107 164.615 141.836 164.615 100.274C164.615 98.419 164.544 96.587 164.401 94.756C140.035 72.293 128.107 80.153 112.244 97.099C94.954 115.579 68.637 149.161 81.111 189.617Z" fill="white"/>
<path d="M168.246 169.144C171.405 165.824 172.672 161.122 171.573 156.674C161.237 114.846 145.022 70.541 111.338 113.787C81.413 152.207 91.02 185.844 108.094 209.277C113.052 216.081 122.952 216.751 128.755 210.652L168.246 169.144Z" fill="#9175A7"/>
<path d="M407.501 258.625V310.972C407.501 330.879 397.013 349.311 379.9 359.478L311.059 400.386C304.126 404.501 296.218 406.665 288.167 406.665H223.833C215.782 406.665 207.874 404.501 200.941 400.386L132.1 359.478C114.988 349.311 104.499 330.878 104.499 310.972V258.625C104.499 244.141 110.076 230.204 120.077 219.715L173.304 163.836C182.52 154.156 195.304 148.686 208.67 148.686H303.328C316.694 148.686 329.478 154.156 338.694 163.836L391.933 219.715C401.924 230.204 407.501 244.141 407.501 258.625Z" fill="#EAD0FF"/>
<path d="M407.501 258.625V310.972C407.501 330.879 397.013 349.311 379.9 359.478L311.059 400.386C304.126 404.501 296.218 406.665 288.167 406.665H256V148.686H303.329C316.695 148.686 329.479 154.156 338.695 163.836L391.934 219.715C401.924 230.204 407.501 244.141 407.501 258.625Z" fill="#FFDAE2"/>
<path d="M340 162.238V169.517H186V162.238C186 154.927 207.671 149 234.404 149H291.601C318.329 149 340 154.927 340 162.238Z" fill="#334353"/>
<path d="M186 174.461V169.216H340V174.461C340 179.729 318.329 184 291.596 184H234.399C207.671 184 186 179.729 186 174.461Z" fill="#334353"/>
<path d="M407 248.163V262H235V248.163C235 234.266 259.204 223 289.061 223H352.944C382.796 223 407 234.266 407 248.163Z" fill="#334353"/>
<path d="M235.341 275.159V261.5H407V275.159C407 288.879 382.844 300 353.046 300H289.29C259.497 300 235.341 288.879 235.341 275.159Z" fill="#334353"/>
<path d="M262 247.841V261.5H104V247.841C104 234.121 126.234 223 153.661 223H212.344C239.766 223 262 234.121 262 247.841Z" fill="#2E3140"/>
<path d="M104 275.159V261.5H262V275.159C262 288.879 239.767 300 212.339 300H153.656C126.234 300 104 288.879 104 275.159Z" fill="#2E3140"/>
<path d="M256 160.291V166.5H172V160.291C172 154.055 183.82 149 198.402 149H229.6C244.18 149 256 154.055 256 160.291Z" fill="#2E3140"/>
<path d="M172 172.709V166.5H256V172.709C256 178.945 244.18 184 229.598 184H198.4C183.82 184 172 178.945 172 172.709Z" fill="#2E3140"/>
<path d="M407 257.5C407 267.715 404.826 277.815 400.622 287.138C396.417 296.46 390.276 304.795 382.601 311.596C374.927 318.397 365.892 323.511 356.088 326.602C346.285 329.692 335.934 330.691 325.715 329.532C315.496 328.372 305.639 325.081 296.79 319.874C287.941 314.667 280.299 307.662 274.367 299.317C268.434 290.972 264.344 281.477 262.365 271.453C260.385 261.428 260.561 251.102 262.881 241.15L303.3 250.442C302.299 254.738 302.223 259.196 303.078 263.523C303.932 267.85 305.698 271.949 308.258 275.551C310.819 279.153 314.118 282.177 317.938 284.425C321.757 286.672 326.012 288.093 330.424 288.593C334.835 289.094 339.303 288.663 343.535 287.329C347.766 285.994 351.667 283.787 354.979 280.851C358.292 277.916 360.943 274.318 362.758 270.294C364.573 266.269 365.511 261.91 365.511 257.5H407Z" fill="#334353"/>
<path d="M245.287 228.383C249.212 237.649 251.155 247.624 250.99 257.676C250.826 267.727 248.559 277.634 244.333 286.769C240.108 295.903 234.015 304.065 226.443 310.736C218.871 317.407 209.985 322.441 200.349 325.519C190.714 328.596 180.539 329.65 170.471 328.613C160.403 327.577 150.662 324.472 141.867 319.496C133.072 314.52 125.415 307.783 119.383 299.711C113.35 291.639 109.073 282.409 106.825 272.608L147.276 263.453C148.247 267.684 150.093 271.668 152.697 275.152C155.301 278.637 158.606 281.545 162.403 283.693C166.199 285.841 170.404 287.181 174.75 287.629C179.096 288.076 183.488 287.621 187.647 286.293C191.807 284.964 195.643 282.791 198.911 279.912C202.18 277.032 204.81 273.509 206.634 269.566C208.458 265.623 209.437 261.346 209.507 257.007C209.578 252.669 208.74 248.363 207.045 244.363L245.287 228.383Z" fill="#2E3140"/>
<path d="M354.561 279.738C342.879 291.42 323.906 291.42 312.224 279.738C300.528 268.042 300.542 249.083 312.224 237.401C315.391 234.234 319.089 231.921 323.037 230.478C333.658 226.574 346.032 228.872 354.561 237.401C363.076 245.916 365.388 258.304 361.484 268.925C360.041 272.874 357.728 276.571 354.561 279.738Z" fill="#F4829B"/>
<path d="M361.48 268.925C368.273 262.132 365.173 248.018 354.557 237.402C343.94 226.785 329.827 223.685 323.034 230.478C316.24 237.271 319.34 251.385 329.957 262.002C340.573 272.618 354.687 275.718 361.48 268.925Z" fill="#F0A6B3"/>
<path d="M354.291 258.57C354.291 267.569 348.583 275.257 340.596 278.203C338.34 279.009 335.924 279.469 333.392 279.469C321.838 279.469 312.493 270.101 312.493 258.57C312.493 247.016 321.838 237.671 333.392 237.671C335.924 237.671 338.341 238.131 340.596 238.937C348.583 241.883 354.291 249.548 354.291 258.57Z" fill="#2E3140"/>
<path d="M347.124 258.57C347.124 264.483 343.374 269.534 338.126 271.47C336.644 271.999 335.056 272.302 333.393 272.302C325.802 272.302 319.662 266.147 319.662 258.571C319.662 250.98 325.802 244.84 333.393 244.84C335.056 244.84 336.644 245.142 338.126 245.672C343.374 247.606 347.124 252.642 347.124 258.57Z" fill="#3E4E60"/>
<path d="M347.124 251.983C347.124 255.059 345.173 257.687 342.443 258.694C341.672 258.969 340.846 259.127 339.98 259.127C336.031 259.127 332.836 255.925 332.836 251.983C332.836 248.033 336.03 244.839 339.98 244.839C340.845 244.839 341.672 244.996 342.443 245.272C345.173 246.278 347.124 248.898 347.124 251.983Z" fill="white"/>
<path d="M157.44 237.402C145.758 249.084 145.758 268.057 157.44 279.739C169.136 291.435 188.095 291.421 199.777 279.739C202.944 276.572 205.257 272.874 206.7 268.926C210.604 258.305 208.306 245.931 199.777 237.402C191.262 228.887 178.874 226.575 168.253 230.479C164.304 231.922 160.607 234.234 157.44 237.402Z" fill="#9175A7"/>
<path d="M206.696 268.925C213.489 262.132 210.39 248.019 199.773 237.402C189.156 226.785 175.043 223.686 168.25 230.479C161.457 237.272 164.556 251.385 175.173 262.002C185.79 272.619 199.903 275.718 206.696 268.925Z" fill="#F4829B"/>
<path d="M199.511 258.57C199.511 267.569 193.803 275.257 185.816 278.203C183.56 279.009 181.144 279.469 178.612 279.469C167.058 279.469 157.713 270.101 157.713 258.57C157.713 247.016 167.058 237.671 178.612 237.671C181.144 237.671 183.561 238.131 185.816 238.937C193.803 241.883 199.511 249.548 199.511 258.57Z" fill="#2E3140"/>
<path d="M192.343 258.57C192.343 264.483 188.593 269.534 183.345 271.47C181.863 271.999 180.275 272.302 178.612 272.302C171.021 272.302 164.881 266.147 164.881 258.571C164.881 250.98 171.021 244.84 178.612 244.84C180.275 244.84 181.863 245.142 183.345 245.672C188.593 247.606 192.343 252.642 192.343 258.57Z" fill="#3E4E60"/>
<path d="M192.343 251.983C192.343 255.059 190.392 257.687 187.662 258.694C186.891 258.969 186.065 259.127 185.199 259.127C181.25 259.127 178.055 255.925 178.055 251.983C178.055 248.033 181.249 244.839 185.199 244.839C186.064 244.839 186.891 244.996 187.662 245.272C190.392 246.278 192.343 248.898 192.343 251.983Z" fill="white"/>
<path d="M331.977 356.446L308.039 397.9C298.371 414.644 280.498 424.966 261.162 424.966H250.852C231.504 424.966 213.631 414.644 203.963 397.9L180.025 356.446C171.32 341.367 175.245 322.162 189.158 311.709L235.334 277.033C241.458 272.443 248.736 270.136 256.002 270.136C263.28 270.136 270.557 272.443 276.67 277.033L322.846 311.709C336.757 322.162 340.682 341.368 331.977 356.446Z" fill="#F6EAFF"/>
<path d="M331.977 356.446L308.039 397.9C298.371 414.644 280.498 424.966 261.162 424.966H256.001V270.136C263.279 270.136 270.556 272.443 276.669 277.033L322.845 311.709C336.757 322.162 340.682 341.368 331.977 356.446Z" fill="white"/>
<path d="M312.91 384.581C311.05 383.232 308.447 383.648 307.098 385.508C301.052 393.847 292.179 389.861 278.273 382.302C270.421 378.033 263.005 374.001 256 374.001C248.995 374.001 241.579 378.033 233.727 382.302C219.826 389.861 210.947 393.849 204.902 385.508C203.554 383.648 200.951 383.232 199.09 384.581C197.228 385.93 196.813 388.533 198.162 390.394C202.502 396.38 207.679 398.548 213.154 398.548C221.274 398.548 230.047 393.778 237.702 389.616C244.295 386.032 251.112 382.326 255.999 382.326C260.887 382.326 267.704 386.032 274.296 389.616C281.951 393.778 290.724 398.548 298.844 398.548C304.32 398.548 309.498 396.38 313.836 390.394C315.188 388.533 314.772 385.931 312.91 384.581Z" fill="#2E3140"/>
<path d="M284.315 345.078V361.631C284.315 369.04 278.322 375.045 270.913 375.045H241.088C233.691 375.045 227.686 369.04 227.686 361.631V345.078C227.686 330.344 239.625 318.405 254.359 318.405H257.653C272.376 318.405 284.315 330.344 284.315 345.078Z" fill="#2E3140"/>
<path d="M284.315 345.078V361.631C284.315 369.04 278.322 375.045 270.913 375.045H256.001V318.404H257.654C272.376 318.405 284.315 330.344 284.315 345.078Z" fill="#334353"/>
<path d="M271.763 347.551H268.178C264.828 347.551 262.112 350.267 262.112 353.617V361.279C262.112 364.629 264.828 367.345 268.178 367.345H271.763C275.113 367.345 277.829 364.629 277.829 361.279V353.617C277.829 350.267 275.113 347.551 271.763 347.551Z" fill="#2E3140"/>
<path d="M243.824 347.551H240.239C236.889 347.551 234.173 350.267 234.173 353.617V361.279C234.173 364.629 236.889 367.345 240.239 367.345H243.824C247.174 367.345 249.89 364.629 249.89 361.279V353.617C249.89 350.267 247.174 347.551 243.824 347.551Z" fill="#151516"/>
<path d="M256.001 327.905H269.023C273.189 327.905 276.567 331.283 276.567 335.449C276.567 339.615 273.189 342.993 269.023 342.993H256.001V327.905Z" fill="#3F5D77"/>
<path d="M256.001 342.993H242.979C238.813 342.993 235.435 339.615 235.435 335.449C235.435 331.283 238.813 327.905 242.979 327.905H256.001V342.993Z" fill="#334353"/>
<path d="M263.45 328H256V149H263.45C270.934 149 277 174.189 277 205.261V271.744C277 302.811 270.934 328 263.45 328Z" fill="#334353"/>
<path d="M248.55 149H256V328H248.55C241.066 328 235 302.811 235 271.739V205.256C235 174.189 241.066 149 248.55 149Z" fill="#2E3140"/>
<path d="M401.504 374.973C401.259 374.461 395.436 362.336 379.069 354.52C371.186 350.757 362.379 348.619 352.671 348.107C336.104 347.239 316.92 351.102 295.332 359.675C293.339 360.477 292.359 362.737 293.15 364.741C293.952 366.734 296.212 367.714 298.216 366.923C319.281 358.55 338.209 354.921 354.108 356.101C361.902 356.68 368.972 358.417 375.207 361.312C389.303 367.859 394.413 378.191 394.446 378.28C395.114 379.694 396.517 380.529 397.975 380.529C398.532 380.529 399.1 380.407 399.634 380.162C401.581 379.237 402.417 376.921 401.504 374.973Z" fill="#D1E7FF"/>
<path d="M401.504 374.973C402.417 376.921 401.582 379.237 399.633 380.161C399.099 380.406 398.531 380.528 397.974 380.528C396.515 380.528 395.113 379.693 394.445 378.279C394.412 378.19 389.301 367.858 375.206 361.311C368.971 358.416 361.901 356.679 354.107 356.1C353.517 353.472 353.027 350.811 352.671 348.106C362.38 348.618 371.187 350.756 379.069 354.519C395.436 362.336 401.259 374.46 401.504 374.973Z" fill="#A2CBEF"/>
<path d="M419.879 327.213C419.514 326.778 410.842 316.497 393.04 313.025C384.466 311.354 375.405 311.488 365.877 313.422C349.62 316.727 332.013 325.268 313.256 338.97C311.527 340.245 311.144 342.678 312.411 344.421C313.686 346.15 316.119 346.533 317.862 345.266C336.162 331.889 353.579 323.638 369.268 320.802C376.959 319.412 384.238 319.325 390.999 320.567C406.284 323.378 413.817 332.103 413.872 332.181C414.873 333.383 416.44 333.84 417.852 333.475C418.391 333.336 418.91 333.075 419.366 332.704C421.021 331.323 421.25 328.871 419.879 327.213Z" fill="#D1E7FF"/>
<path d="M419.879 327.213C421.25 328.871 421.021 331.322 419.366 332.704C418.91 333.075 418.391 333.336 417.852 333.475C416.44 333.84 414.873 333.383 413.872 332.181C413.817 332.103 406.284 323.378 390.999 320.567C384.238 319.324 376.958 319.412 369.268 320.802C368.039 318.406 366.899 315.952 365.877 313.422C375.405 311.488 384.467 311.354 393.04 313.025C410.842 316.497 419.514 326.779 419.879 327.213Z" fill="#A2CBEF"/>
<path d="M112.368 380.161C112.902 380.406 113.47 380.528 114.027 380.528C115.486 380.528 116.888 379.693 117.556 378.279C117.589 378.19 122.7 367.858 136.795 361.311C143.03 358.416 150.1 356.679 157.894 356.1C173.793 354.92 192.721 358.549 213.786 366.922C215.79 367.713 218.05 366.733 218.852 364.74C219.643 362.736 218.663 360.476 216.67 359.674C195.081 351.101 175.898 347.237 159.331 348.106C149.622 348.618 140.815 350.756 132.933 354.519C116.566 362.335 110.743 374.46 110.498 374.972C109.585 376.921 110.42 379.237 112.368 380.161Z" fill="#D1E7FF"/>
<path d="M110.498 374.973C109.585 376.921 110.42 379.237 112.369 380.161C112.903 380.406 113.471 380.528 114.028 380.528C115.487 380.528 116.889 379.693 117.557 378.279C117.59 378.19 122.701 367.858 136.796 361.311C143.031 358.416 150.101 356.679 157.895 356.1C158.485 353.472 158.975 350.811 159.331 348.106C149.622 348.618 140.815 350.756 132.933 354.519C116.566 362.336 110.743 374.46 110.498 374.973Z" fill="#A2CBEF"/>
<path d="M92.635 332.705C93.091 333.076 93.61 333.337 94.149 333.476C95.561 333.841 97.128 333.384 98.129 332.182C98.184 332.104 105.717 323.379 121.002 320.568C127.763 319.325 135.043 319.413 142.733 320.803C158.422 323.639 175.839 331.889 194.139 345.267C195.882 346.534 198.315 346.151 199.59 344.422C200.857 342.679 200.474 340.246 198.745 338.971C179.988 325.269 162.382 316.728 146.124 313.423C136.596 311.489 127.534 311.355 118.961 313.026C101.159 316.498 92.487 326.78 92.122 327.214C90.751 328.871 90.98 331.323 92.635 332.705Z" fill="#D1E7FF"/>
<path d="M92.123 327.213C90.752 328.871 90.981 331.322 92.636 332.704C93.092 333.075 93.611 333.336 94.15 333.475C95.562 333.84 97.129 333.383 98.13 332.181C98.185 332.103 105.718 323.378 121.003 320.567C127.764 319.324 135.044 319.412 142.734 320.802C143.963 318.406 145.103 315.952 146.125 313.422C136.597 311.488 127.535 311.354 118.962 313.025C101.16 316.497 92.488 326.779 92.123 327.213Z" fill="#A2CBEF"/>
<path d="M97.2995 203.222H151.445C157.134 203.222 161.745 207.649 161.745 213.111C161.745 218.572 157.134 223 151.445 223H97.2995C91.6113 223 87 218.572 87 213.111C87 207.649 91.6113 203.222 97.2995 203.222Z" fill="#F9A824"/>
<path d="M91.6994 205.661L109.618 192.812L114.196 198.698L96.2776 211.547L91.6994 205.661Z" fill="#F9A824"/>
<path d="M152.622 208.307H191.466C194.229 208.307 196.469 210.458 196.469 213.111C196.469 215.764 194.229 217.914 191.466 217.914H152.622C149.86 217.914 147.62 215.764 147.62 213.111C147.62 210.458 149.86 208.307 152.622 208.307Z" fill="#FDD835"/>
<path d="M301.229 199.266H157.036C155.412 199.266 154.094 200.531 154.094 202.092V223H301.229V199.266Z" fill="#FDD835"/>
<path d="M345.37 194.745H406.578V223H345.37V194.745Z" fill="#FDEF59"/>
<path d="M150.268 217.914H217.362C218.825 217.914 220.01 219.053 220.01 220.457C220.01 221.861 218.825 223 217.362 223H150.268C148.806 223 147.62 221.861 147.62 220.457C147.62 219.053 148.806 217.914 150.268 217.914Z" fill="#F9A824"/>
<path d="M105.245 199.266H156.448V205.482H105.245V199.266Z" fill="#F9A824"/>
<path d="M149.045 209.079L154.385 200.721C155.118 199.574 156.68 199.215 157.874 199.918C159.068 200.622 159.442 202.121 158.71 203.268L153.37 211.626C152.637 212.773 151.075 213.132 149.881 212.429C148.687 211.725 148.313 210.226 149.045 209.079Z" fill="#FDD835"/>
<path d="M295.638 199.266H403.93C405.392 199.266 406.578 200.405 406.578 201.809C406.578 203.213 405.392 204.352 403.93 204.352H295.638C294.175 204.352 292.99 203.213 292.99 201.809C292.99 200.405 294.175 199.266 295.638 199.266Z" fill="#FDEF59"/>
<path d="M367.146 212.828C367.146 208.147 363.193 204.352 358.318 204.352H276.51V223H367.146V212.828Z" fill="#FDD835"/>
<path d="M390.511 174.692C390.925 169.85 395.349 166.248 400.391 166.646C405.433 167.044 409.185 171.292 408.77 176.133L406.504 202.601C406.089 207.442 401.666 211.044 396.623 210.646C391.581 210.248 387.83 206.001 388.244 201.159L390.511 174.692Z" fill="#FDEF59"/>
<path d="M390.393 204.352H416.289C421.652 204.352 426 208.526 426 213.676C426 218.826 421.652 223 416.289 223H390.393C385.03 223 380.682 218.826 380.682 213.676C380.682 208.526 385.03 204.352 390.393 204.352Z" fill="#FDEF59"/>
<path d="M398.347 204.134L406.519 194.491L422.241 206.773L414.069 216.417L398.347 204.134Z" fill="#FDEF59"/>
<path d="M131.729 194.745H404.224C405.524 194.745 406.578 195.757 406.578 197.005C406.578 198.254 405.524 199.266 404.224 199.266H131.729C130.429 199.266 129.375 198.254 129.375 197.005C129.375 195.757 130.429 194.745 131.729 194.745Z" fill="#F9A824"/>
<path d="M105.172 176.464C104.757 171.623 108.509 167.375 113.551 166.977C118.594 166.579 123.017 170.182 123.431 175.023L125.697 201.491C126.111 206.333 122.36 210.58 117.317 210.978C112.275 211.376 107.852 207.773 107.437 202.932L105.172 176.464Z" fill="#F9A824"/>
<path d="M116.427 167.338C116.427 149.713 120.05 132.261 127.09 115.978C134.129 99.6947 144.446 84.8993 157.454 72.4367L256.5 167.338H116.427Z" fill="#F9A824"/>
<path d="M157.454 72.4366C169.289 61.0962 183.151 51.8802 198.38 45.2257L256.5 167.338L157.454 72.4366Z" fill="#FDD835"/>
<path d="M198.234 54.036C168.33 54.036 144.088 77.3124 144.088 106.025V166.49H198.234V54.036Z" fill="#FDD835"/>
<path d="M116.427 166.49H205.885V199.266H116.427V166.49Z" fill="#F9A824"/>
<path d="M198.234 171.576H144.088V180.618C144.088 188.42 150.676 194.745 158.802 194.745H198.234V171.576Z" fill="#FDD835"/>
<path d="M355.546 72.4367C368.554 84.8993 378.871 99.6947 385.91 115.978C392.95 132.261 396.573 149.713 396.573 167.338H256.5L355.546 72.4367Z" fill="#FDEF59"/>
<path d="M313.785 44.864C328.408 51.1433 341.798 59.7803 353.373 70.3991L256.5 167.338L313.785 44.864Z" fill="#FDD835"/>
<path d="M237.078 19C215.625 19 198.234 35.6982 198.234 56.2964V194.745H237.078V19Z" fill="#F9A824"/>
<path d="M315.354 56.2964C315.354 35.6982 297.963 19 276.51 19V194.745H315.354V56.2964Z" fill="#F9A824"/>
<path d="M237.078 33.1274H276.51V194.745H237.078V33.1274Z" fill="#FDD835"/>
<path d="M367.146 96.4183C367.146 78.3166 351.863 63.6427 333.01 63.6427H315.354V166.49H367.146V96.4183Z" fill="#FDD835"/>
<path d="M333.01 167.621H398.339V194.745H333.01V167.621Z" fill="#FDEF59"/>
<path d="M367.146 181.183C367.146 178.374 364.775 176.097 361.849 176.097H315.354V194.745H367.146V181.183Z" fill="#FDD835"/>
<path d="M315.354 167.621H333.01V193.05H315.354V167.621Z" fill="#FDD835"/>
<path d="M398.339 168.161C398.339 166.926 397.296 165.925 396.01 165.925H315.354V171.576H394.781C396.746 171.576 398.339 170.047 398.339 168.161Z" fill="#F9A824"/>
<path d="M256.5 185.704C216.195 185.704 183.521 154.331 183.521 115.632C183.521 76.9319 216.195 45.5596 256.5 45.5596C296.805 45.5596 329.479 76.9319 329.479 115.632C329.479 154.331 296.805 185.704 256.5 185.704Z" fill="#FDEF59"/>
<path d="M256.5 153.493C235.047 153.493 217.656 136.795 217.656 116.197C217.656 95.5984 235.047 78.9002 256.5 78.9002C277.953 78.9002 295.344 95.5984 295.344 116.197C295.344 136.795 277.953 153.493 256.5 153.493Z" fill="#E2F4FF"/>
<path d="M265.034 145.582C241.793 145.582 222.953 127.492 222.953 105.177C222.953 82.8625 241.793 64.7729 265.034 64.7729C288.274 64.7729 307.115 82.8625 307.115 105.177C307.115 127.492 288.274 145.582 265.034 145.582Z" fill="white"/>
<path d="M193.526 117.044C193.526 150.907 222.116 178.357 257.383 178.357C292.65 178.357 321.24 150.907 321.24 117.044C321.24 83.182 292.65 55.7313 257.383 55.7313C222.116 55.7313 193.526 83.182 193.526 117.044ZM303.878 117.044C303.878 141.699 283.061 161.687 257.383 161.687C231.705 161.687 210.888 141.699 210.888 117.044C210.888 92.3891 231.705 72.4016 257.383 72.4016C283.061 72.4016 303.878 92.3891 303.878 117.044Z" fill="#F9A824"/>
<path d="M207.651 116.197C207.651 141.788 229.258 162.535 255.911 162.535C282.565 162.535 304.172 141.788 304.172 116.197C304.172 90.6052 282.565 69.8588 255.911 69.8588C229.258 69.8588 207.651 90.6052 207.651 116.197ZM294.167 116.197C294.167 136.483 277.04 152.928 255.911 152.928C234.783 152.928 217.656 136.483 217.656 116.197C217.656 95.9103 234.783 79.4654 255.911 79.4654C277.04 79.4654 294.167 95.9103 294.167 116.197Z" fill="#F17F16"/>
<path d="M229.13 19.8278C218.448 22.4883 208.141 26.3769 198.43 31.4093L199.713 33.6932C209.233 28.7599 219.338 24.948 229.808 22.3399L229.13 19.8278Z" fill="#F9A824"/>
<path d="M198.234 31.4322H211.182V54.0361H198.234V31.4322Z" fill="#F9A824"/>
<path d="M302.406 31.4322H315.354V54.0361H302.406V31.4322Z" fill="#F9A824"/>
<path d="M215.891 26.3463H211.182C206.632 26.3463 202.943 29.8883 202.943 34.2576V48.9501H215.891V26.3463Z" fill="#F9A824"/>
<path d="M310.646 33.6925C310.646 30.2595 307.747 27.4765 304.172 27.4765C300.596 27.4765 297.698 30.2595 297.698 33.6925V50.0803H310.646V33.6925Z" fill="#F9A824"/>
<path d="M315.5 30.4654C306.908 26.5537 297.983 23.3557 288.823 20.9064L288.002 23.7364C296.994 26.1407 305.755 29.2801 314.189 33.1199L315.5 30.4654Z" fill="#F9A824"/>
<path d="M333.599 171.576H372.443C373.743 171.576 374.797 172.588 374.797 173.837C374.797 175.085 373.743 176.097 372.443 176.097H333.599C332.299 176.097 331.245 175.085 331.245 173.837C331.245 172.588 332.299 171.576 333.599 171.576Z" fill="#FDEF59"/>
</svg>
