<svg width="512" height="512" viewBox="0 0 512 512" fill="none" xmlns="http://www.w3.org/2000/svg">
<path d="M256 512C397.385 512 512 397.385 512 256C512 114.615 397.385 0 256 0C114.615 0 0 114.615 0 256C0 397.385 114.615 512 256 512Z" fill="#EE6781"/>
<path d="M420.987 283.102C428.167 290.261 432.604 300.163 432.604 311.102C432.604 332.939 414.897 350.645 393.061 350.645C389.937 350.645 386.898 350.274 383.986 349.586C385.331 352.805 386.083 356.332 386.083 360.038C386.083 375.002 373.947 387.138 358.983 387.138C352.82 387.138 347.143 385.073 342.59 381.61C336.088 376.664 331.883 368.838 331.883 360.038C331.883 345.074 344.019 332.938 358.983 332.938C359.364 332.938 359.745 332.959 360.116 332.97C355.954 326.711 353.518 319.192 353.518 311.102C353.518 298.585 359.343 287.433 368.418 280.179C352.607 270.447 342.07 252.973 342.07 233.043C342.07 204.259 364.034 180.622 392.119 177.964C393.856 177.795 395.624 177.71 397.403 177.71C427.966 177.71 452.736 202.48 452.736 233.043C452.736 255.165 439.753 274.249 420.987 283.102Z" fill="white"/>
<path d="M394.978 279.342C402.158 286.501 406.595 296.403 406.595 307.342C406.595 329.179 388.888 346.885 367.052 346.885C363.928 346.885 360.889 346.504 357.977 345.826C359.322 349.035 360.074 352.572 360.074 356.278C360.074 367.853 352.809 377.733 342.59 381.609C336.088 376.663 331.883 368.837 331.883 360.037C331.883 345.073 344.019 332.937 358.983 332.937C359.364 332.937 359.745 332.958 360.116 332.969C355.954 326.71 353.518 319.191 353.518 311.101C353.518 298.584 359.343 287.432 368.418 280.178C352.607 270.446 342.07 252.972 342.07 233.042C342.07 204.258 364.034 180.621 392.119 177.963C412.409 186.16 426.727 206.048 426.727 229.282C426.727 251.406 413.744 270.489 394.978 279.342Z" fill="#F4E6F4"/>
<path d="M91.013 283.102C83.833 290.261 79.396 300.163 79.396 311.102C79.396 332.939 97.103 350.645 118.939 350.645C122.063 350.645 125.102 350.274 128.014 349.586C126.669 352.805 125.917 356.332 125.917 360.038C125.917 375.002 138.053 387.138 153.017 387.138C159.18 387.138 164.857 385.073 169.41 381.61C175.912 376.664 180.117 368.838 180.117 360.038C180.117 345.074 167.981 332.938 153.017 332.938C152.636 332.938 152.255 332.959 151.884 332.97C156.046 326.711 158.482 319.192 158.482 311.102C158.482 298.585 152.657 287.433 143.582 280.179C159.393 270.447 169.93 252.973 169.93 233.043C169.93 204.259 147.966 180.622 119.881 177.964C118.144 177.795 116.376 177.71 114.597 177.71C84.034 177.71 59.264 202.48 59.264 233.043C59.264 255.165 72.247 274.249 91.013 283.102Z" fill="white"/>
<path d="M117.022 279.342C109.842 286.501 105.405 296.403 105.405 307.342C105.405 329.179 123.112 346.885 144.948 346.885C148.072 346.885 151.111 346.504 154.023 345.826C152.678 349.035 151.926 352.572 151.926 356.278C151.926 367.853 159.191 377.733 169.41 381.609C175.912 376.663 180.117 368.837 180.117 360.037C180.117 345.073 167.981 332.937 153.017 332.937C152.636 332.937 152.255 332.958 151.884 332.969C156.046 326.71 158.482 319.191 158.482 311.101C158.482 298.584 152.657 287.432 143.582 280.178C159.393 270.446 169.93 252.972 169.93 233.042C169.93 204.258 147.966 180.621 119.881 177.963C99.591 186.16 85.273 206.048 85.273 229.282C85.273 251.406 98.256 270.489 117.022 279.342Z" fill="#F4E6F4"/>
<path d="M472.88 141.082L474.313 149.671C478.881 177.045 464.899 203.887 443.087 209.619L379.348 226.37C367.894 229.38 356.669 220.171 354.271 205.805C353.226 199.541 354.033 193.262 356.272 187.937C358.518 182.61 362.202 178.234 366.904 175.785L410.309 153.254L455.702 129.691C463.011 125.896 471.26 131.373 472.88 141.082Z" fill="#C2AACF"/>
<path d="M436.016 197.444L383.327 217.928L381.037 218.815C380.577 218.998 380.118 219.146 379.655 219.267C372.171 221.234 364.582 215.753 362.275 206.403C359.829 196.474 364.255 185.935 372.165 182.857L425.388 162.17L427.137 161.487C427.597 161.304 428.056 161.156 428.519 161.035C436.003 159.068 443.591 164.541 445.899 173.899C448.352 183.827 443.926 194.366 436.016 197.444Z" fill="#EE6781"/>
<path d="M436.016 197.444L383.327 217.928C388.95 194.415 404.351 173.65 425.389 162.171L427.138 161.488C427.598 161.305 428.057 161.157 428.52 161.036C436.004 159.069 443.592 164.542 445.9 173.9C448.352 183.827 443.926 194.366 436.016 197.444Z" fill="#F4829B"/>
<path d="M461.13 177.709H457.392C454.305 177.709 451.651 174.962 451.064 171.159L447.873 150.506C447.169 145.949 449.658 141.585 453.321 140.952L460.251 139.754C464.124 139.084 467.577 142.861 467.577 147.768V169.619C467.576 174.087 464.69 177.709 461.13 177.709Z" fill="#DECEE5"/>
<path d="M39.12 141.082L37.687 149.671C33.12 177.045 47.101 203.887 68.913 209.619L132.652 226.37C144.106 229.38 155.331 220.171 157.729 205.805C158.774 199.541 157.967 193.262 155.728 187.937C153.482 182.61 149.798 178.234 145.096 175.785L101.691 153.254L56.296 129.69C48.989 125.896 40.74 131.373 39.12 141.082Z" fill="#A583BB"/>
<path d="M75.984 197.444L128.673 217.928L130.963 218.815C131.423 218.998 131.882 219.146 132.345 219.267C139.829 221.234 147.418 215.753 149.725 206.403C152.171 196.474 147.745 185.935 139.835 182.857L86.61 162.171L84.861 161.488C84.401 161.305 83.942 161.157 83.479 161.036C75.995 159.069 68.407 164.542 66.099 173.9C63.648 183.827 68.074 194.366 75.984 197.444Z" fill="#DD5273"/>
<path d="M75.984 197.444L128.673 217.928C123.05 194.415 107.649 173.65 86.611 162.171L84.862 161.488C84.402 161.305 83.943 161.157 83.48 161.036C75.996 159.069 68.408 164.542 66.1 173.9C63.648 183.827 68.074 194.366 75.984 197.444Z" fill="#EE6781"/>
<path d="M50.764 177.709H54.502C57.589 177.709 60.243 174.962 60.83 171.159L64.021 150.506C64.725 145.949 62.236 141.585 58.573 140.952L51.643 139.754C47.77 139.084 44.317 142.861 44.317 147.768V169.619C44.318 174.087 47.204 177.709 50.764 177.709Z" fill="#C2AACF"/>
<path d="M375.286 220.324L365.532 321.289C363.149 345.879 349.382 366.826 329.748 379.121C325.639 381.684 322.366 385.242 320.111 389.362C317.855 393.481 316.627 398.173 316.627 403.013C316.627 419.756 309.839 434.91 298.867 445.882C287.896 456.853 272.741 463.642 255.999 463.642C239.257 463.642 224.102 456.854 213.131 445.882C202.16 434.911 195.371 419.756 195.371 403.013C195.371 393.334 190.457 384.258 182.25 379.122C162.616 366.827 148.849 345.88 146.466 321.29L136.712 220.325C132.349 175.116 167.889 135.975 213.31 135.975H298.687C344.109 135.974 379.649 175.115 375.286 220.324Z" fill="#C2AACF"/>
<path d="M375.286 220.324L365.532 321.289C363.149 345.879 349.382 366.826 329.748 379.121C325.639 381.684 322.366 385.242 320.111 389.362C317.855 393.481 316.627 398.173 316.627 403.013C316.627 419.756 309.839 434.91 298.867 445.882C287.896 456.853 272.741 463.642 255.999 463.642V135.974H298.688C344.109 135.974 379.649 175.115 375.286 220.324Z" fill="#DECEE5"/>
<path d="M358.643 235.614C361.294 245.507 355.5 255.664 345.669 258.432C345.589 258.468 345.506 258.491 345.422 258.513L332.858 261.88C327.877 263.215 322.814 262.409 318.668 260.015C314.508 257.625 311.283 253.658 309.944 248.663C307.457 239.382 312.405 229.854 321.136 226.427C321.795 226.161 322.48 225.933 323.176 225.746L335.74 222.379C340.735 221.041 345.788 221.864 349.933 224.258C354.079 226.652 357.304 230.619 358.643 235.614Z" fill="#3E4E60"/>
<path d="M358.643 235.614C361.294 245.507 355.5 255.664 345.669 258.432C334.848 255.113 325.677 245.878 322.326 233.37C321.703 231.046 321.304 228.723 321.136 226.426C321.795 226.16 322.48 225.932 323.176 225.745L335.74 222.378C340.735 221.04 345.788 221.863 349.933 224.257C354.079 226.652 357.304 230.619 358.643 235.614Z" fill="#2E3140"/>
<path d="M341.787 229.498L334.227 231.524C330.972 232.396 329.04 235.742 329.912 238.997C330.784 242.252 334.13 244.184 337.385 243.312L344.945 241.286C348.2 240.414 350.132 237.068 349.26 233.813C348.388 230.557 345.042 228.626 341.787 229.498Z" fill="white"/>
<path d="M202.816 248.663C200.165 258.556 190.069 264.455 180.171 261.937C180.084 261.929 180 261.906 179.917 261.884L167.353 258.517C162.372 257.182 158.39 253.953 155.997 249.807C153.589 245.657 152.78 240.609 154.118 235.614C156.605 226.333 165.654 220.556 174.928 221.952C175.632 222.051 176.339 222.196 177.035 222.382L189.599 225.749C194.594 227.087 198.558 230.327 200.952 234.473C203.345 238.619 204.155 243.668 202.816 248.663Z" fill="#3E4E60"/>
<path d="M202.816 248.663C200.165 258.556 190.069 264.455 180.171 261.937C172.459 253.652 169.135 241.069 172.486 228.561C173.109 226.237 173.925 224.025 174.928 221.953C175.632 222.052 176.339 222.197 177.035 222.383L189.599 225.75C194.594 227.088 198.558 230.328 200.952 234.474C203.345 238.619 204.155 243.668 202.816 248.663Z" fill="#2E3140"/>
<path d="M191.277 234.938L183.717 232.912C180.462 232.04 177.116 233.972 176.244 237.227C175.372 240.482 177.304 243.828 180.559 244.7L188.119 246.726C191.374 247.598 194.72 245.666 195.592 242.411C196.464 239.156 194.532 235.81 191.277 234.938Z" fill="white"/>
<path d="M271.598 335.535H256V258.433H271.598C284.17 258.433 294.361 268.624 294.361 281.196V312.771C294.361 325.343 284.17 335.535 271.598 335.535Z" fill="#F4E6F4"/>
<path d="M240.402 335.535H256V258.433H240.402C227.83 258.433 217.639 268.624 217.639 281.196V312.771C217.639 325.343 227.83 335.535 240.402 335.535Z" fill="#DECEE5"/>
<path d="M256 397.825C264.95 397.825 272.205 373.83 272.205 364.88C272.205 355.93 264.95 348.675 256 348.675V397.825Z" fill="#F4E6F4"/>
<path d="M256 348.675C247.05 348.675 239.795 355.93 239.795 364.88C239.795 373.83 247.05 397.825 256 397.825V348.675Z" fill="#DECEE5"/>
<path d="M329.089 278.659C319.677 278.659 312.047 286.289 312.047 295.701V334.269C312.047 343.681 319.677 351.311 329.089 351.311C338.501 351.311 346.131 343.681 346.131 334.269V295.701C346.131 286.289 338.501 278.659 329.089 278.659Z" fill="#F4E6F4"/>
<path d="M182.911 278.659C173.499 278.659 165.869 286.289 165.869 295.701V334.269C165.869 343.681 173.499 351.311 182.911 351.311C192.323 351.311 199.953 343.681 199.953 334.269V295.701C199.952 286.289 192.323 278.659 182.911 278.659Z" fill="#DECEE5"/>
<path d="M271.633 408.589C271.633 406.311 272.538 404.126 274.149 402.515L287.006 389.658C291.811 384.853 300.03 387.266 301.474 393.907L304.27 406.764C305.434 412.118 301.356 417.179 295.876 417.179H280.223C275.478 417.179 271.633 413.333 271.633 408.589Z" fill="#F4E6F4"/>
<path d="M240.367 408.589C240.367 406.311 239.462 404.126 237.851 402.515L224.994 389.658C220.189 384.853 211.97 387.266 210.526 393.907L207.73 406.764C206.566 412.118 210.644 417.179 216.124 417.179H231.777C236.522 417.179 240.367 413.333 240.367 408.589Z" fill="#DECEE5"/>
<path d="M207.68 183.138H198.479C189.704 183.138 182.59 190.252 182.59 199.027V208.228C182.59 217.003 189.704 224.117 198.479 224.117H207.68C216.455 224.117 223.569 217.003 223.569 208.228V199.027C223.568 190.252 216.455 183.138 207.68 183.138Z" fill="#A583BB"/>
<path d="M313.521 183.138H304.32C295.545 183.138 288.431 190.252 288.431 199.027V208.228C288.431 217.003 295.545 224.117 304.32 224.117H313.521C322.296 224.117 329.41 217.003 329.41 208.228V199.027C329.41 190.252 322.297 183.138 313.521 183.138Z" fill="#C2AACF"/>
<path d="M315.962 425.737C314.567 423.167 311.353 422.21 308.783 423.607C308.697 423.654 299.928 428.261 290.127 428.261C282.139 428.261 272.923 426.215 266.195 424.721C264.36 424.314 262.738 423.955 261.295 423.667V406.266L293.949 372.196C295.973 370.085 295.902 366.732 293.791 364.709C291.679 362.686 288.327 362.757 286.305 364.868L256 396.487L225.695 364.869C223.672 362.757 220.32 362.686 218.209 364.71C216.098 366.733 216.027 370.086 218.051 372.197L250.705 406.267V423.668C249.262 423.956 247.639 424.314 245.805 424.722C239.077 426.216 229.861 428.262 221.873 428.262C212.038 428.262 203.333 423.669 203.207 423.602C200.636 422.216 197.431 423.172 196.038 425.738C194.644 428.308 195.597 431.523 198.168 432.917C198.615 433.159 209.255 438.853 221.873 438.853C231.022 438.853 240.894 436.662 248.1 435.061C251.274 434.357 254.872 433.558 256 433.558C257.128 433.558 260.726 434.357 263.9 435.061C271.106 436.661 280.977 438.853 290.127 438.853C302.744 438.853 313.385 433.16 313.832 432.917C316.403 431.521 317.356 428.307 315.962 425.737Z" fill="#9175A7"/>
<path d="M397.706 146.533C392.51 136.764 380.759 130.637 369.261 132.618C378.618 100.785 347.691 70.799 315.824 81.86V81.871C314.087 82.464 312.403 83.174 310.783 84C289.731 36.469 222.253 36.492 201.218 84C168.658 67.789 132.801 98.205 142.74 132.619C126.191 129.77 110.663 143.275 110.917 159.74C110.917 174.915 123.222 187.221 138.387 187.221C153.794 187.247 166.305 174.441 165.847 159.03C181.251 166.281 201.835 161.833 212.835 149.467C235.301 173.832 276.707 173.825 299.165 149.467C310.162 161.832 330.752 166.28 346.153 159.03C345.696 174.441 358.206 187.246 373.613 187.221C394.211 187.517 407.821 164.331 397.706 146.533Z" fill="#F4E6F4"/>
<path d="M373.613 132.268C372.13 132.268 370.68 132.384 369.26 132.617C378.617 100.784 347.69 70.797 315.823 81.859V81.87C314.086 82.463 312.402 83.173 310.782 83.999C289.73 36.468 222.252 36.491 201.217 83.999C168.656 67.788 132.801 98.205 142.739 132.618C131.24 130.637 119.492 136.764 114.294 146.533C128.437 171.479 166.133 161.565 165.846 132.618C181.35 139.763 201.401 135.659 212.834 123.055C235.687 147.485 276.317 147.48 299.164 123.055C310.594 135.658 330.652 139.763 346.152 132.618C345.869 161.584 383.579 171.465 397.705 146.533C393.035 138.029 383.991 132.268 373.613 132.268Z" fill="white"/>
<path d="M102.813 185.222H154.404C159.823 185.222 164.217 189.649 164.217 195.111C164.217 200.572 159.823 205 154.404 205H102.813C97.3936 205 93 200.572 93 195.111C93 189.649 97.3936 185.222 102.813 185.222Z" fill="#F9A824"/>
<path d="M97.4776 187.661L114.551 174.812L118.913 180.698L101.84 193.547L97.4776 187.661Z" fill="#F9A824"/>
<path d="M155.525 190.307H192.536C195.168 190.307 197.302 192.458 197.302 195.111C197.302 197.764 195.168 199.914 192.536 199.914H155.525C152.893 199.914 150.759 197.764 150.759 195.111C150.759 192.458 152.893 190.307 155.525 190.307Z" fill="#FDD835"/>
<path d="M297.118 181.266H159.731C158.183 181.266 156.927 182.531 156.927 184.091V205H297.118V181.266Z" fill="#FDD835"/>
<path d="M339.175 176.745H397.495V205H339.175V176.745Z" fill="#FDEF59"/>
<path d="M153.282 199.914H217.209C218.603 199.914 219.733 201.053 219.733 202.457C219.733 203.861 218.603 205 217.209 205H153.282C151.888 205 150.759 203.861 150.759 202.457C150.759 201.053 151.888 199.914 153.282 199.914Z" fill="#F9A824"/>
<path d="M110.384 181.266H159.17V187.482H110.384V181.266Z" fill="#F9A824"/>
<path d="M152.117 191.079L157.205 182.721C157.903 181.574 159.391 181.215 160.529 181.918C161.666 182.622 162.023 184.121 161.325 185.268L156.237 193.626C155.539 194.773 154.051 195.132 152.913 194.429C151.776 193.726 151.419 192.226 152.117 191.079Z" fill="#FDD835"/>
<path d="M291.791 181.266H394.971C396.365 181.266 397.495 182.404 397.495 183.809C397.495 185.213 396.365 186.352 394.971 186.352H291.791C290.397 186.352 289.267 185.213 289.267 183.809C289.267 182.404 290.397 181.266 291.791 181.266Z" fill="#FDEF59"/>
<path d="M359.924 194.828C359.924 190.147 356.158 186.352 351.512 186.352H273.566V205H359.924V194.828Z" fill="#FDD835"/>
<path d="M382.186 156.692C382.581 151.85 386.795 148.248 391.6 148.646C396.404 149.044 399.978 153.292 399.583 158.133L397.424 184.601C397.029 189.442 392.814 193.044 388.01 192.646C383.206 192.248 379.631 188.001 380.026 183.159L382.186 156.692Z" fill="#FDEF59"/>
<path d="M382.074 186.352H406.747C411.857 186.352 416 190.526 416 195.676C416 200.825 411.857 205 406.747 205H382.074C376.964 205 372.821 200.825 372.821 195.676C372.821 190.526 376.964 186.352 382.074 186.352Z" fill="#FDEF59"/>
<path d="M389.653 186.134L397.439 176.491L412.418 188.773L404.632 198.417L389.653 186.134Z" fill="#FDEF59"/>
<path d="M135.618 176.745H395.252C396.491 176.745 397.495 177.757 397.495 179.006C397.495 180.254 396.491 181.266 395.252 181.266H135.618C134.379 181.266 133.375 180.254 133.375 179.006C133.375 177.757 134.379 176.745 135.618 176.745Z" fill="#F9A824"/>
<path d="M110.314 158.464C109.919 153.623 113.494 149.375 118.298 148.977C123.102 148.579 127.317 152.182 127.712 157.023L129.87 183.491C130.265 188.333 126.691 192.58 121.886 192.978C117.082 193.376 112.867 189.773 112.473 184.932L110.314 158.464Z" fill="#F9A824"/>
<path d="M121.038 149.338C121.038 131.713 124.49 114.261 131.197 97.978C137.904 81.6947 147.735 66.8993 160.128 54.4367L254.5 149.338H121.038Z" fill="#F9A824"/>
<path d="M160.128 54.4367C171.405 43.0963 184.613 33.8802 199.123 27.2258L254.5 149.338L160.128 54.4367Z" fill="#FDD835"/>
<path d="M198.984 36.036C170.492 36.036 147.394 59.3123 147.394 88.0249V148.49H198.984V36.036Z" fill="#FDD835"/>
<path d="M121.038 148.49H206.274V181.266H121.038V148.49Z" fill="#F9A824"/>
<path d="M198.984 153.576H147.394V162.618C147.394 170.42 153.671 176.745 161.413 176.745H198.984V153.576Z" fill="#FDD835"/>
<path d="M348.871 54.4367C361.265 66.8993 371.096 81.6947 377.802 97.978C384.51 114.261 387.962 131.713 387.962 149.338H254.5L348.871 54.4367Z" fill="#FDEF59"/>
<path d="M309.081 26.8641C323.014 33.1434 335.773 41.7804 346.801 52.3992L254.5 149.338L309.081 26.8641Z" fill="#FDD835"/>
<path d="M235.995 1C215.554 1 198.984 17.6982 198.984 38.2964V176.745H235.995V1Z" fill="#F9A824"/>
<path d="M310.576 38.2964C310.576 17.6982 294.006 1 273.566 1V176.745H310.576V38.2964Z" fill="#F9A824"/>
<path d="M235.995 15.1274H273.566V176.745H235.995V15.1274Z" fill="#FDD835"/>
<path d="M359.924 78.4183C359.924 60.3165 345.362 45.6427 327.399 45.6427H310.576V148.49H359.924V78.4183Z" fill="#FDD835"/>
<path d="M327.399 149.62H389.644V176.745H327.399V149.62Z" fill="#FDEF59"/>
<path d="M359.924 163.183C359.924 160.374 357.664 158.097 354.877 158.097H310.576V176.745H359.924V163.183Z" fill="#FDD835"/>
<path d="M310.576 149.62H327.399V175.05H310.576V149.62Z" fill="#FDD835"/>
<path d="M389.644 150.161C389.644 148.926 388.651 147.925 387.426 147.925H310.576V153.576H386.255C388.127 153.576 389.644 152.047 389.644 150.161Z" fill="#F9A824"/>
<path d="M254.5 167.704C216.097 167.704 184.965 136.331 184.965 97.6316C184.965 58.9319 216.097 27.5596 254.5 27.5596C292.903 27.5596 324.035 58.9319 324.035 97.6316C324.035 136.331 292.903 167.704 254.5 167.704Z" fill="#FDEF59"/>
<path d="M254.5 135.493C234.06 135.493 217.49 118.795 217.49 98.1967C217.49 77.5984 234.06 60.9003 254.5 60.9003C274.94 60.9003 291.51 77.5984 291.51 98.1967C291.51 118.795 274.94 135.493 254.5 135.493Z" fill="#E2F4FF"/>
<path d="M262.631 127.582C240.487 127.582 222.536 109.492 222.536 87.1773C222.536 64.8625 240.487 46.7729 262.631 46.7729C284.775 46.7729 302.726 64.8625 302.726 87.1773C302.726 109.492 284.775 127.582 262.631 127.582Z" fill="white"/>
<path d="M194.498 99.0443C194.498 132.907 221.739 160.357 255.341 160.357C288.944 160.357 316.184 132.907 316.184 99.0443C316.184 65.182 288.944 37.7313 255.341 37.7313C221.739 37.7313 194.498 65.182 194.498 99.0443ZM299.642 99.0443C299.642 123.7 279.807 143.687 255.341 143.687C230.875 143.687 211.041 123.7 211.041 99.0443C211.041 74.3892 230.875 54.4017 255.341 54.4017C279.807 54.4017 299.642 74.3892 299.642 99.0443Z" fill="#F9A824"/>
<path d="M207.957 98.1967C207.957 123.788 228.544 144.535 253.939 144.535C279.335 144.535 299.922 123.788 299.922 98.1967C299.922 72.6052 279.335 51.8588 253.939 51.8588C228.544 51.8588 207.957 72.6052 207.957 98.1967ZM290.389 98.1967C290.389 118.483 274.07 134.928 253.939 134.928C233.808 134.928 217.49 118.483 217.49 98.1967C217.49 77.9103 233.808 61.4654 253.939 61.4654C274.07 61.4654 290.389 77.9103 290.389 98.1967Z" fill="#F17F16"/>
<path d="M228.422 1.82779C218.244 4.48824 208.423 8.37685 199.171 13.4093L200.394 15.6932C209.464 10.7599 219.092 6.94794 229.068 4.33991L228.422 1.82779Z" fill="#F9A824"/>
<path d="M198.984 13.4322H211.321V36.036H198.984V13.4322Z" fill="#F9A824"/>
<path d="M298.24 13.4322H310.576V36.036H298.24V13.4322Z" fill="#F9A824"/>
<path d="M215.807 8.34624H211.321C206.985 8.34624 203.47 11.8883 203.47 16.2576V30.9501H215.807V8.34624Z" fill="#F9A824"/>
<path d="M306.09 15.6925C306.09 12.2595 303.328 9.47644 299.922 9.47644C296.515 9.47644 293.753 12.2595 293.753 15.6925V32.0803H306.09V15.6925Z" fill="#F9A824"/>
<path d="M310.715 12.4654C302.529 8.5537 294.025 5.3557 285.297 2.90634L284.515 5.7364C293.083 8.14072 301.43 11.2801 309.467 15.1199L310.715 12.4654Z" fill="#F9A824"/>
<path d="M327.96 153.576H364.97C366.209 153.576 367.214 154.588 367.214 155.837C367.214 157.085 366.209 158.097 364.97 158.097H327.96C326.721 158.097 325.717 157.085 325.717 155.837C325.717 154.588 326.721 153.576 327.96 153.576Z" fill="#FDEF59"/>
</svg>
