<svg width="512" height="512" viewBox="0 0 512 512" fill="none" xmlns="http://www.w3.org/2000/svg">
<g clip-path="url(#clip0_2_2294)">
<path d="M256 512C397.385 512 512 397.385 512 256C512 114.615 397.385 0 256 0C114.615 0 0 114.615 0 256C0 397.385 114.615 512 256 512Z" fill="#53B976"/>
<path d="M417.21 215.18C414.91 213.65 412.34 212.87 409.77 212.77C409.402 209.208 408.335 205.473 406.71 202.25C409.71 199.59 411.61 195.72 411.61 191.39C411.33 175.29 389.64 171.49 383.68 185.98C381.154 185.537 367.968 185.81 365.17 185.74C360.71 173.42 342.6 173.42 338.14 185.74H321.57C321.272 176.536 311.559 169.906 302.83 172.76L297.79 157.23C309.654 148.626 302.766 130.438 289.25 130.96C288.602 129.09 284.304 115.386 283.59 113.92C289.26 109.5 291.45 100.96 286.9 94.32C279.37 83.74 265.93 87.36 261.65 96.25C257.933 95.532 253.811 95.553 250.1 96.3C245.46 86.82 230.45 84.2 224.05 96.13C220.68 102.57 223.03 110.15 228.28 114.22C227.761 115.26 223.164 129.781 222.65 131.26C209.103 130.75 202.268 148.932 214.12 157.53L209.09 172.98C200.39 169.964 190.496 176.747 190.2 185.74H173.55C169.09 173.42 150.98 173.42 146.52 185.74C143.419 185.821 130.859 185.506 128.02 186.02C125.87 180.71 120.67 176.96 114.59 176.96C101.247 176.864 94.947 193.977 105.18 202.5C103.556 205.752 102.529 209.512 102.19 213.08C97.81 213.32 93.54 215.42 90.98 219.44C81.804 233.63 99.957 249.3 112.49 238.46C113.509 239.438 124.896 247.554 126.29 248.61C120.058 262.928 137.638 275.854 149.3 265.33L162.17 274.68C155.552 281.824 158.521 294.789 168.47 297.99L163.44 313.5C149.903 312.986 143.038 331.165 154.9 339.77C153.874 343.239 150.14 353.468 149.75 356.91C143.81 356.84 137.82 360.23 135.67 367.83C132.348 381.019 147.737 391.162 158.49 382.91C160.92 385.26 163.71 387.17 166.72 388.59C163.63 397.27 169.56 408.02 180.38 408.05C190.446 408.277 197.978 397.124 193.68 387.79C196.175 386.591 205.254 379.633 207.68 377.96C219.384 388.545 236.916 375.49 230.68 361.25L243.61 351.85C249 361.247 263.051 361.275 268.48 351.92L281.57 361.43C275.337 375.674 292.866 388.72 304.57 378.14C307.213 379.967 315.837 386.62 318.58 387.94C314.43 397.21 321.64 408.34 331.92 408.17C341.998 408.327 349.09 397.658 345.51 388.48C348.51 387.03 351.28 385.09 353.69 382.72C363.659 390.358 378.289 381.603 376.63 369.34C375.37 360.73 368.77 356.6 362.21 356.63C361.816 353.432 357.964 342.723 357 339.48C368.611 331.125 362.421 312.839 348.47 313.21L348.25 312.53L343.45 297.75C353.462 294.692 356.58 281.684 350.05 274.52L362.95 265.15C374.627 275.671 392.189 262.749 385.96 248.43C387.636 247.158 398.431 239.513 399.73 238.26C415.544 250.876 433.695 227.3 417.21 215.18ZM398.75 217.16C395.38 220.62 394.24 225 394.81 229.11C393.033 231.379 381.236 239.347 378.8 241.27C368.489 236.425 356.777 245.251 358.38 256.11L339.9 269.54C324.585 268.358 318.194 289.536 332.69 297.02C334.215 301.705 337.613 312.15 339.1 316.74C329.733 324.456 334.323 340.966 347.34 342.11C348.338 345.661 352.539 356.617 352.58 360.16C349.167 362.896 346.853 368.931 348.04 374.11C345.46 377.19 341.98 379.5 338.12 380.66C334.39 378.9 329.96 378.62 326.04 380.35C322.127 379.267 312.621 371.401 309.15 369.1C310.761 358.171 298.938 349.431 288.71 354.26L270.19 340.8C266.406 326.488 245.883 326.404 241.97 340.68L223.53 354.08C213.305 349.255 201.478 358.015 203.1 368.93C199.64 371.22 189.99 379.158 186.13 380.29C182.25 378.63 177.69 378.58 173.76 380.62C169.95 379.46 166.52 377.17 163.96 374.12C165.021 368.555 162.792 363.328 159.39 360.51C159.361 356.813 163.53 346.076 164.56 342.4C177.588 341.251 182.177 324.736 172.8 317.04L179.17 297.43C193.822 290.168 187.771 268.96 172.5 269.82L153.87 256.29C155.47 245.434 143.741 236.605 133.45 241.45C131.121 239.616 119.108 231.436 117.4 229.34C118.228 224.695 116.014 219.12 112.07 216.13C112.04 212.58 112.94 209.06 114.65 205.96C120.87 205.97 126.39 201.83 128.33 196.07C130.831 195.46 143.587 195.837 146.37 195.74C150.923 208.567 169.149 208.567 173.7 195.74H193.28C204.74 209.55 225.295 195.508 217.39 179.8L223.77 160.16C236.808 159.01 241.381 142.499 232.02 134.79C232.648 133.047 237.181 118.379 237.94 117.12C243.816 116.807 249.594 112.357 250.99 106.35C254.242 105.52 257.669 105.519 260.93 106.32C262.437 112.223 268.006 116.527 273.93 116.84C274.837 118.343 279.184 132.55 279.89 134.5C270.505 142.21 275.114 158.721 288.13 159.87L294.48 179.41C286.145 195.125 306.963 209.27 318.32 195.74H337.99C342.543 208.567 360.769 208.567 365.32 195.74C367.963 195.828 381.038 195.496 383.38 196.01C385.352 201.683 390.843 206.101 397.31 205.88C399.04 208.99 399.95 212.52 399.93 216.08C399.52 216.42 399.12 216.77 398.75 217.16Z" fill="#FBCB74"/>
<path d="M409.17 241.76C405.4 241.77 402.18 240.41 399.73 238.26C398.485 239.472 387.574 247.204 385.96 248.43C392.189 262.762 374.618 275.665 362.95 265.15L350.05 274.52C356.585 281.691 353.455 294.695 343.45 297.75L348.25 312.53C251.184 284.347 171.227 242.861 132.45 185.74H146.52C150.98 173.42 169.09 173.42 173.55 185.74H190.2C190.497 176.742 200.393 169.965 209.09 172.98L214.12 157.53C202.258 148.921 209.118 130.746 222.65 131.26C223.186 129.714 227.742 115.317 228.28 114.22C223.03 110.15 220.68 102.57 224.05 96.13C230.45 84.2 245.46 86.82 250.1 96.3C253.811 95.553 257.933 95.532 261.65 96.25C265.93 87.36 279.37 83.74 286.9 94.32C291.45 100.96 289.26 109.5 283.59 113.92C284.282 115.321 288.627 129.164 289.25 130.96C302.781 130.442 309.645 148.637 297.79 157.23L302.83 172.76C311.563 169.905 321.272 176.54 321.57 185.74H338.14C342.6 173.42 360.71 173.42 365.17 185.74C368.05 185.811 381.079 185.535 383.68 185.98C389.64 171.49 411.33 175.29 411.61 191.39C411.61 195.72 409.71 199.59 406.71 202.25C408.336 205.473 409.402 209.208 409.77 212.77C428.499 213.936 427.898 241.298 409.17 241.76Z" fill="#FBD9A3"/>
<path d="M391.66 231.93L338.61 270.47C331.59 275.57 328.66 284.6 331.34 292.84L351.6 355.21C354.66 364.62 350.65 373.22 343.91 377.87C337.46 382.33 328.48 383.15 320.81 377.58L267.76 339.04C260.75 333.94 251.25 333.94 244.24 339.04L191.19 377.58C183.52 383.15 174.54 382.33 168.09 377.87C161.35 373.22 157.34 364.62 160.4 355.21L180.66 292.84C183.34 284.6 180.41 275.57 173.39 270.47L120.34 231.93C112.059 225.869 110.381 216.25 113.56 208.21H113.57C116.38 201.22 122.99 195.74 132.1 195.74H197.68C206.35 195.74 214.03 190.15 216.71 181.91L236.97 119.55C239.97 110.3 248.04 105.69 256.08 105.72C264.07 105.75 272.05 110.36 275.03 119.55L295.29 181.91C297.97 190.15 305.65 195.74 314.32 195.74H379.9C399.288 195.744 407.331 220.546 391.66 231.93Z" fill="#F39E22"/>
<path d="M398.97 209.71V209.76L279.03 241.17C267.43 244.21 256.08 235.46 256.08 223.46V105.72C264.07 105.75 272.05 110.36 275.03 119.55L295.29 181.91C297.97 190.15 305.65 195.74 314.32 195.74H379.9C389.65 195.74 396.54 202.02 398.97 209.71Z" fill="#F9C744"/>
<path d="M391.66 231.93L338.61 270.47C331.59 275.57 328.66 284.6 331.34 292.84L351.6 355.21C354.66 364.62 350.65 373.22 343.91 377.87H343.89L269.28 267.53C262.82 257.97 267.7 244.89 278.85 241.9L398.97 209.71C401.38 217.3 399.45 226.27 391.66 231.93Z" fill="#EA792E"/>
<path d="M242.69 267.53L168.09 377.87C161.35 373.22 157.34 364.62 160.4 355.21L180.66 292.84C183.34 284.6 180.41 275.57 173.39 270.47L120.34 231.93C112.55 226.27 110.62 217.3 113.03 209.71L233.13 241.9C244.28 244.89 249.16 257.97 242.69 267.53Z" fill="#EA792E"/>
<path d="M189.187 125.886H211.197C213.51 125.886 215.384 127.926 215.384 130.443C215.384 132.96 213.51 135 211.197 135H189.187C186.874 135 185 132.96 185 130.443C185 127.926 186.874 125.886 189.187 125.886Z" fill="#F9A824"/>
<path d="M186.91 127.011L194.194 121.09L196.055 123.802L188.771 129.723L186.91 127.011Z" fill="#F9A824"/>
<path d="M211.676 128.23H227.466C228.589 128.23 229.499 129.221 229.499 130.443C229.499 131.666 228.589 132.656 227.466 132.656H211.676C210.553 132.656 209.642 131.666 209.642 130.443C209.642 129.221 210.553 128.23 211.676 128.23Z" fill="#FDD835"/>
<path d="M272.085 124.064H213.47C212.809 124.064 212.274 124.647 212.274 125.366V135H272.085V124.064Z" fill="#FDD835"/>
<path d="M290.028 121.981H314.91V135H290.028V121.981Z" fill="#FDEF59"/>
<path d="M210.719 132.656H237.993C238.587 132.656 239.069 133.181 239.069 133.828C239.069 134.475 238.587 135 237.993 135H210.719C210.124 135 209.642 134.475 209.642 133.828C209.642 133.181 210.124 132.656 210.719 132.656Z" fill="#F9A824"/>
<path d="M192.417 124.064H213.231V126.928H192.417V124.064Z" fill="#F9A824"/>
<path d="M210.222 128.586L212.392 124.734C212.69 124.206 213.325 124.04 213.81 124.364C214.296 124.688 214.448 125.379 214.15 125.908L211.979 129.759C211.682 130.287 211.047 130.453 210.561 130.129C210.076 129.805 209.924 129.114 210.222 128.586Z" fill="#FDD835"/>
<path d="M269.812 124.064H313.833C314.427 124.064 314.91 124.588 314.91 125.235C314.91 125.883 314.427 126.407 313.833 126.407H269.812C269.217 126.407 268.735 125.883 268.735 125.235C268.735 124.588 269.217 124.064 269.812 124.064Z" fill="#FDEF59"/>
<path d="M298.88 130.313C298.88 128.156 297.273 126.407 295.291 126.407H262.037V135H298.88V130.313Z" fill="#FDD835"/>
<path d="M308.378 112.74C308.546 110.509 310.345 108.85 312.394 109.033C314.444 109.216 315.969 111.174 315.801 113.404L314.879 125.6C314.711 127.831 312.913 129.491 310.863 129.308C308.813 129.124 307.288 127.167 307.457 124.936L308.378 112.74Z" fill="#FDEF59"/>
<path d="M308.33 126.407H318.857C321.037 126.407 322.805 128.331 322.805 130.704C322.805 133.076 321.037 135 318.857 135H308.33C306.15 135 304.383 133.076 304.383 130.704C304.383 128.331 306.15 126.407 308.33 126.407Z" fill="#FDEF59"/>
<path d="M311.564 126.307L314.886 121.863L321.276 127.523L317.955 131.966L311.564 126.307Z" fill="#FDEF59"/>
<path d="M203.183 121.981H313.953C314.481 121.981 314.91 122.447 314.91 123.022C314.91 123.597 314.481 124.064 313.953 124.064H203.183C202.654 124.064 202.226 123.597 202.226 123.022C202.226 122.447 202.654 121.981 203.183 121.981Z" fill="#F9A824"/>
<path d="M192.387 113.557C192.218 111.326 193.743 109.369 195.793 109.186C197.843 109.002 199.641 110.662 199.809 112.893L200.73 125.089C200.899 127.32 199.374 129.277 197.324 129.46C195.274 129.644 193.476 127.984 193.308 125.753L192.387 113.557Z" fill="#F9A824"/>
<path d="M196.962 109.352C196.962 101.231 198.435 93.189 201.297 85.6859C204.158 78.1829 208.352 71.3654 213.64 65.6228L253.902 109.352H196.962Z" fill="#F9A824"/>
<path d="M213.64 65.6228C218.451 60.3973 224.086 56.1507 230.276 53.0844L253.902 109.352L213.64 65.6228Z" fill="#FDD835"/>
<path d="M230.217 57.1441C218.061 57.1441 208.207 67.8694 208.207 81.0997V108.961H230.217V57.1441Z" fill="#FDD835"/>
<path d="M196.962 108.961H233.327V124.064H196.962V108.961Z" fill="#F9A824"/>
<path d="M230.217 111.305H208.207V115.471C208.207 119.066 210.884 121.981 214.188 121.981H230.217V111.305Z" fill="#FDD835"/>
<path d="M294.165 65.6228C299.452 71.3654 303.647 78.1828 306.508 85.6859C309.37 93.189 310.842 101.231 310.842 109.352H253.902L294.165 65.6228Z" fill="#FDEF59"/>
<path d="M277.189 52.9178C283.133 55.8112 288.576 59.791 293.282 64.6839L253.902 109.352L277.189 52.9178Z" fill="#FDD835"/>
<path d="M246.007 41C237.287 41 230.217 48.6942 230.217 58.1856V121.981H246.007V41Z" fill="#F9A824"/>
<path d="M277.827 58.1856C277.827 48.6942 270.757 41 262.037 41V121.981H277.827V58.1856Z" fill="#F9A824"/>
<path d="M246.007 47.5097H262.037V121.981H246.007V47.5097Z" fill="#FDD835"/>
<path d="M298.88 76.6731C298.88 68.3321 292.668 61.5706 285.004 61.5706H277.827V108.961H298.88V76.6731Z" fill="#FDD835"/>
<path d="M285.004 109.482H311.56V121.981H285.004V109.482Z" fill="#FDEF59"/>
<path d="M298.88 115.731C298.88 114.437 297.916 113.388 296.727 113.388H277.827V121.981H298.88V115.731Z" fill="#FDD835"/>
<path d="M277.827 109.482H285.004V121.199H277.827V109.482Z" fill="#FDD835"/>
<path d="M311.56 109.731C311.56 109.162 311.136 108.701 310.614 108.701H277.827V111.305H310.114C310.913 111.305 311.56 110.6 311.56 109.731Z" fill="#F9A824"/>
<path d="M253.902 117.814C237.518 117.814 224.236 103.359 224.236 85.5263C224.236 67.6941 237.518 53.2383 253.902 53.2383C270.286 53.2383 283.568 67.6941 283.568 85.5263C283.568 103.359 270.286 117.814 253.902 117.814Z" fill="#FDEF59"/>
<path d="M253.902 102.972C245.182 102.972 238.112 95.278 238.112 85.7867C238.112 76.2954 245.182 68.6011 253.902 68.6011C262.623 68.6011 269.692 76.2954 269.692 85.7867C269.692 95.278 262.623 102.972 253.902 102.972Z" fill="#E2F4FF"/>
<path d="M257.371 99.3268C247.924 99.3268 240.265 90.9914 240.265 80.7091C240.265 70.4268 247.924 62.0914 257.371 62.0914C266.819 62.0914 274.477 70.4268 274.477 80.7091C274.477 90.9914 266.819 99.3268 257.371 99.3268Z" fill="white"/>
<path d="M228.303 86.1772C228.303 101.78 239.925 114.429 254.261 114.429C268.597 114.429 280.219 101.78 280.219 86.1772C280.219 70.574 268.597 57.9252 254.261 57.9252C239.925 57.9252 228.303 70.574 228.303 86.1772ZM273.161 86.1772C273.161 97.538 264.699 106.748 254.261 106.748C243.823 106.748 235.361 97.538 235.361 86.1772C235.361 74.8165 243.823 65.6066 254.261 65.6066C264.699 65.6066 273.161 74.8165 273.161 86.1772Z" fill="#F9A824"/>
<path d="M234.045 85.7867C234.045 97.5789 242.828 107.138 253.663 107.138C264.498 107.138 273.281 97.5789 273.281 85.7867C273.281 73.9945 264.498 64.4349 253.663 64.4349C242.828 64.4349 234.045 73.9945 234.045 85.7867ZM269.214 85.7867C269.214 95.1343 262.252 102.712 253.663 102.712C245.074 102.712 238.112 95.1343 238.112 85.7867C238.112 76.439 245.074 68.8615 253.663 68.8615C262.252 68.8615 269.214 76.439 269.214 85.7867Z" fill="#F17F16"/>
<path d="M242.776 41.3814C238.434 42.6073 234.244 44.3991 230.297 46.718L230.818 47.7704C234.688 45.4972 238.796 43.7407 243.052 42.539L242.776 41.3814Z" fill="#F9A824"/>
<path d="M230.217 46.7286H235.48V57.1441H230.217V46.7286Z" fill="#F9A824"/>
<path d="M272.563 46.7286H277.827V57.1441H272.563V46.7286Z" fill="#F9A824"/>
<path d="M237.394 44.385H235.48C233.631 44.385 232.131 46.0172 232.131 48.0305V54.8005H237.394V44.385Z" fill="#F9A824"/>
<path d="M275.913 47.7701C275.913 46.1882 274.734 44.9058 273.281 44.9058C271.828 44.9058 270.649 46.1882 270.649 47.7701V55.3213H275.913V47.7701Z" fill="#F9A824"/>
<path d="M277.886 46.2831C274.393 44.4806 270.765 43.007 267.042 41.8784L266.708 43.1825C270.363 44.2903 273.925 45.7369 277.353 47.5062L277.886 46.2831Z" fill="#F9A824"/>
<path d="M285.243 111.305H301.033C301.562 111.305 301.99 111.771 301.99 112.346C301.99 112.922 301.562 113.388 301.033 113.388H285.243C284.715 113.388 284.286 112.922 284.286 112.346C284.286 111.771 284.715 111.305 285.243 111.305Z" fill="#FDEF59"/>
<path d="M226.393 397.615L209.288 383.763C207.491 382.308 207.319 379.542 208.902 377.587C210.486 375.631 213.227 375.225 215.024 376.68L232.129 390.532C233.926 391.988 234.099 394.753 232.515 396.708C230.931 398.664 228.19 399.07 226.393 397.615Z" fill="#F9A824"/>
<path d="M228.87 398.174L219.483 398.191L219.744 394.912L229.131 394.895L228.87 398.174Z" fill="#F9A824"/>
<path d="M210.391 381.64L198.12 371.703C197.248 370.996 197.164 369.653 197.933 368.703C198.702 367.753 200.033 367.556 200.906 368.263L213.177 378.2C214.05 378.907 214.134 380.25 213.365 381.2C212.595 382.15 211.264 382.347 210.391 381.64Z" fill="#FDD835"/>
<path d="M160.824 346.86L206.375 383.749C206.888 384.165 207.672 384.049 208.124 383.49L214.187 376.003L167.706 338.362L160.824 346.86Z" fill="#FDD835"/>
<path d="M145.568 337.187L126.232 321.528L134.426 311.41L153.762 327.069L145.568 337.187Z" fill="#FDEF59"/>
<path d="M213.921 378.803L192.725 361.638C192.263 361.264 192.219 360.553 192.626 360.05C193.033 359.547 193.738 359.443 194.2 359.817L215.396 376.981C215.858 377.356 215.902 378.067 215.495 378.57C215.088 379.072 214.383 379.177 213.921 378.803Z" fill="#F9A824"/>
<path d="M222.736 396.999L206.561 383.899L208.364 381.673L224.539 394.773L222.736 396.999Z" fill="#F9A824"/>
<path d="M211.745 382.279L207.634 383.906C207.07 384.129 206.473 383.858 206.3 383.301C206.126 382.744 206.443 382.111 207.007 381.888L211.118 380.261C211.682 380.038 212.279 380.309 212.452 380.866C212.626 381.423 212.309 382.056 211.745 382.279Z" fill="#FDD835"/>
<path d="M162.59 348.291L128.38 320.587C127.918 320.213 127.873 319.502 128.28 318.999C128.688 318.496 129.392 318.391 129.855 318.766L164.065 346.47C164.527 346.844 164.571 347.555 164.164 348.058C163.757 348.561 163.052 348.665 162.59 348.291Z" fill="#FDEF59"/>
<path d="M143.933 325.141C142.575 326.817 142.723 329.187 144.264 330.435L170.107 351.363L175.515 344.685L146.883 321.498L143.933 325.141Z" fill="#FDD835"/>
<path d="M125.493 332.82C123.958 334.447 121.516 334.606 120.038 333.173C118.561 331.741 118.607 329.26 120.142 327.632L128.534 318.734C130.069 317.106 132.511 316.948 133.988 318.381C135.465 319.813 135.419 322.294 133.884 323.922L125.493 332.82Z" fill="#FDEF59"/>
<path d="M134.131 322.229L125.95 315.604C124.256 314.232 124.093 311.625 125.586 309.781C127.08 307.937 129.664 307.554 131.358 308.926L139.539 315.551C141.233 316.923 141.396 319.53 139.902 321.374C138.409 323.218 135.825 323.601 134.131 322.229Z" fill="#FDEF59"/>
<path d="M131.555 320.272L126.177 321.634L124.772 313.214L130.15 311.851L131.555 320.272Z" fill="#FDEF59"/>
<path d="M213.059 391.842L126.976 322.13C126.565 321.798 126.526 321.166 126.888 320.719C127.25 320.272 127.876 320.179 128.287 320.512L214.37 390.223C214.78 390.556 214.82 391.188 214.458 391.635C214.096 392.082 213.469 392.175 213.059 391.842Z" fill="#F9A824"/>
<path d="M216.147 405.183C214.874 407.022 212.457 407.583 210.749 406.436C209.041 405.288 208.688 402.867 209.961 401.027L216.921 390.97C218.194 389.13 220.611 388.569 222.319 389.716C224.027 390.864 224.38 393.285 223.107 395.125L216.147 405.183Z" fill="#F9A824"/>
<path d="M209.945 405.571C204.834 411.882 198.629 417.205 191.683 421.235C184.737 425.265 177.187 427.923 169.464 429.058L165.695 369.736L209.945 405.571Z" fill="#F9A824"/>
<path d="M169.464 429.059C162.437 430.092 155.385 429.846 148.644 428.332L165.695 369.737L169.464 429.059Z" fill="#FDD835"/>
<path d="M151.245 425.215C160.692 432.865 175.1 430.732 183.427 420.45L200.961 398.798L183.856 384.946L151.245 425.215Z" fill="#FDD835"/>
<path d="M209.699 405.874L181.439 382.989L190.943 371.252L219.204 394.138L209.699 405.874Z" fill="#F9A824"/>
<path d="M185.331 383.125L202.436 396.977L205.058 393.739C207.32 390.945 207.073 386.995 204.506 384.916L192.049 374.828L185.331 383.125Z" fill="#FDD835"/>
<path d="M106.885 378.381C106.39 370.591 107.421 362.653 109.92 355.021C112.418 347.39 116.334 340.213 121.445 333.902L165.695 369.737L106.885 378.381Z" fill="#FDEF59"/>
<path d="M112.082 398.938C109.284 392.949 107.558 386.43 106.981 379.667L165.695 369.737L112.082 398.938Z" fill="#FDD835"/>
<path d="M128.814 427.824C135.591 433.312 145.928 431.781 151.901 424.405L192.049 374.828L179.778 364.891L128.814 427.824Z" fill="#F9A824"/>
<path d="M114.902 394.443C108.929 401.819 109.58 412.248 116.357 417.736L167.321 354.803L155.05 344.866L114.902 394.443Z" fill="#F9A824"/>
<path d="M132.911 422.765L120.454 412.677L167.321 354.803L179.778 364.891L132.911 422.765Z" fill="#FDD835"/>
<path d="M110.175 366.826C104.926 373.308 105.499 382.472 111.454 387.295L117.032 391.812L146.857 354.984L130.495 341.734L110.175 366.826Z" fill="#FDD835"/>
<path d="M141.607 350.062L120.969 333.349L128.835 323.636L149.473 340.349L141.607 350.062Z" fill="#FDEF59"/>
<path d="M134.756 336.473C133.941 337.479 134.03 338.9 134.955 339.649L149.643 351.544L155.05 344.866L138.689 331.616L134.756 336.473Z" fill="#FDD835"/>
<path d="M147.185 354.579L141.607 350.062L148.981 340.956L154.559 345.473L147.185 354.579Z" fill="#FDD835"/>
<path d="M121.126 333.156C120.768 333.598 120.807 334.223 121.213 334.552L146.693 355.186L148.332 353.162L123.24 332.843C122.619 332.34 121.673 332.48 121.126 333.156Z" fill="#F9A824"/>
<path d="M171.021 363.16C183.754 373.471 184.978 393.064 173.755 406.922C162.533 420.78 143.113 423.655 130.381 413.344C117.648 403.033 116.424 383.44 127.646 369.582C138.869 355.724 158.288 352.849 171.021 363.16Z" fill="#FDEF59"/>
<path d="M161.68 374.694C168.457 380.182 169.109 390.611 163.136 397.987C157.162 405.363 146.826 406.893 140.049 401.405C133.272 395.917 132.62 385.489 138.594 378.112C144.567 370.736 154.903 369.206 161.68 374.694Z" fill="#E2F4FF"/>
<path d="M156.69 375.344C164.032 381.29 164.738 392.587 158.267 400.578C151.796 408.569 140.598 410.227 133.256 404.281C125.915 398.335 125.209 387.038 131.68 379.047C138.151 371.056 149.348 369.398 156.69 375.344Z" fill="white"/>
<path d="M171.004 403.857C180.824 391.731 179.753 374.587 168.612 365.565C157.47 356.542 140.478 359.058 130.659 371.184C120.839 383.31 121.91 400.454 133.051 409.476C144.193 418.498 161.185 415.982 171.004 403.857ZM136.144 375.626C143.293 366.797 155.666 364.965 163.777 371.534C171.889 378.103 172.669 390.586 165.52 399.415C158.37 408.244 145.998 410.076 137.886 403.506C129.774 396.937 128.994 384.454 136.144 375.626Z" fill="#F9A824"/>
<path d="M166.296 400.547C173.718 391.383 172.908 378.426 164.488 371.607C156.068 364.789 143.226 366.69 135.805 375.854C128.384 385.018 129.193 397.975 137.613 404.794C146.033 411.612 158.875 409.711 166.296 400.547ZM138.965 378.414C144.848 371.149 155.028 369.642 161.702 375.047C168.377 380.452 169.018 390.723 163.136 397.987C157.253 405.251 147.073 406.759 140.399 401.353C133.724 395.948 133.083 385.678 138.965 378.414Z" fill="#F17F16"/>
<path d="M131.565 429.561C135.711 431.34 140.095 432.585 144.622 433.267L144.879 432.121C140.441 431.452 136.143 430.232 132.079 428.487L131.565 429.561Z" fill="#F9A824"/>
<path d="M144.69 433.309L140.6 429.997L147.155 421.902L151.245 425.215L144.69 433.309Z" fill="#F9A824"/>
<path d="M111.782 406.659L107.691 403.347L114.246 395.252L118.337 398.565L111.782 406.659Z" fill="#F9A824"/>
<path d="M137.638 430.613L139.125 431.818C140.563 432.982 142.755 432.657 144.022 431.093L148.283 425.831L144.193 422.519L137.638 430.613Z" fill="#F9A824"/>
<path d="M109.834 403.742C108.839 404.971 108.948 406.709 110.077 407.624C111.206 408.539 112.929 408.284 113.925 407.054L118.677 401.186L114.587 397.873L109.834 403.742Z" fill="#F9A824"/>
<path d="M107.365 403.655C108.945 407.254 110.837 410.683 113.021 413.903L114.101 413.1C111.957 409.938 110.1 406.573 108.549 403.04L107.365 403.655Z" fill="#F9A824"/>
<path d="M142.568 348.495L130.297 338.558C129.886 338.225 129.847 337.593 130.209 337.146C130.571 336.699 131.197 336.606 131.608 336.939L143.879 346.876C144.29 347.209 144.329 347.841 143.967 348.288C143.605 348.735 142.979 348.827 142.568 348.495Z" fill="#FDEF59"/>
<path d="M101.84 277.659L108.512 256.684C109.213 254.481 111.726 253.313 114.124 254.076C116.522 254.839 117.898 257.243 117.197 259.447L110.525 280.422C109.824 282.625 107.312 283.793 104.914 283.03C102.516 282.268 101.14 279.863 101.84 277.659Z" fill="#F9A824"/>
<path d="M102.222 280.17L98.7875 271.433L101.936 270.482L105.37 279.218L102.222 280.17Z" fill="#F9A824"/>
<path d="M110.891 256.939L115.677 241.892C116.017 240.821 117.238 240.254 118.403 240.625C119.567 240.995 120.236 242.163 119.895 243.233L115.109 258.281C114.769 259.351 113.548 259.918 112.383 259.548C111.219 259.177 110.55 258.009 110.891 256.939Z" fill="#FDD835"/>
<path d="M125.232 198.109L107.464 253.966C107.264 254.596 107.657 255.283 108.342 255.501L117.524 258.421L135.654 201.424L125.232 198.109Z" fill="#FDD835"/>
<path d="M128.686 180.379L136.228 156.668L148.635 160.614L141.093 184.325L128.686 180.379Z" fill="#FDEF59"/>
<path d="M114.819 259.193L123.086 233.202C123.266 232.635 123.912 232.335 124.529 232.531C125.146 232.727 125.5 233.346 125.319 233.912L117.052 259.903C116.872 260.47 116.226 260.77 115.609 260.574C114.992 260.378 114.639 259.759 114.819 259.193Z" fill="#F9A824"/>
<path d="M101.083 274.029L107.392 254.194L110.121 255.062L103.812 274.897L101.083 274.029Z" fill="#F9A824"/>
<path d="M110.789 258.432L107.777 255.196C107.363 254.752 107.398 254.097 107.854 253.733C108.31 253.368 109.015 253.433 109.428 253.877L112.44 257.113C112.853 257.557 112.819 258.212 112.363 258.576C111.907 258.941 111.202 258.876 110.789 258.432Z" fill="#FDD835"/>
<path d="M124.543 200.275L137.887 158.325C138.067 157.759 138.713 157.458 139.33 157.654C139.946 157.851 140.3 158.469 140.12 159.036L126.776 200.985C126.596 201.552 125.95 201.852 125.333 201.656C124.717 201.46 124.363 200.842 124.543 200.275Z" fill="#FDEF59"/>
<path d="M139.309 174.469C137.254 173.815 135.1 174.816 134.499 176.705L124.419 208.395L132.608 211L143.776 175.889L139.309 174.469Z" fill="#FDD835"/>
<path d="M125.442 160.091C123.368 159.254 122.331 157.037 123.127 155.14C123.923 153.242 126.25 152.382 128.325 153.219L139.668 157.794C141.743 158.631 142.78 160.847 141.984 162.745C141.187 164.643 138.86 165.503 136.785 164.666L125.442 160.091Z" fill="#FDEF59"/>
<path d="M138.452 164.279L141.643 154.248C142.304 152.17 144.672 151.069 146.934 151.788C149.195 152.508 150.492 154.775 149.831 156.852L146.64 166.884C145.98 168.961 143.611 170.063 141.35 169.343C139.088 168.624 137.791 166.357 138.452 164.279Z" fill="#FDEF59"/>
<path d="M139.336 161.168L136.109 156.655L143.439 152.28L146.667 156.793L139.336 161.168Z" fill="#FDEF59"/>
<path d="M102.361 263.138L135.938 157.58C136.098 157.076 136.672 156.809 137.22 156.984C137.769 157.158 138.083 157.708 137.923 158.211L104.346 263.77C104.186 264.273 103.612 264.54 103.063 264.366C102.515 264.191 102.201 263.642 102.361 263.138Z" fill="#F9A824"/>
<path d="M91.0611 270.873C88.8841 270.357 87.4814 268.31 87.928 266.302C88.3746 264.293 90.5014 263.082 92.6784 263.598L104.58 266.417C106.757 266.933 108.159 268.979 107.713 270.988C107.266 272.997 105.139 274.208 102.962 273.692L91.0611 270.873Z" fill="#F9A824"/>
<path d="M88.4407 265.238C80.7016 262.776 73.4848 258.935 67.2022 253.934C60.9195 248.933 55.6941 242.869 51.8244 236.09L105.701 210.977L88.4407 265.238Z" fill="#F9A824"/>
<path d="M51.8244 236.09C48.3032 229.921 45.9644 223.264 44.919 216.435L105.701 210.977L51.8244 236.09Z" fill="#FDD835"/>
<path d="M48.7696 217.722C45.0849 229.306 52.3185 241.948 64.9264 245.958L91.477 254.404L98.1489 233.429L48.7696 217.722Z" fill="#FDD835"/>
<path d="M88.0686 265.119L99.0916 230.465L113.484 235.043L102.461 269.697L88.0686 265.119Z" fill="#F9A824"/>
<path d="M100.382 234.139L93.7103 255.114L97.6805 256.377C101.106 257.467 104.696 255.799 105.697 252.651L110.556 237.376L100.382 234.139Z" fill="#FDD835"/>
<path d="M76.2334 159.353C83.3086 156.055 91.0767 154.125 99.0941 153.672C107.112 153.22 115.221 154.254 122.96 156.715L105.701 210.977L76.2334 159.353Z" fill="#FDEF59"/>
<path d="M58.9803 171.679C63.5395 166.892 68.982 162.911 75.071 159.91L105.701 210.977L58.9803 171.679Z" fill="#FDD835"/>
<path d="M38.1715 197.781C35.528 206.092 40.7174 215.161 49.7622 218.038L110.556 237.375L115.342 222.328L38.1715 197.781Z" fill="#F9A824"/>
<path d="M64.1937 172.668C55.1489 169.791 45.6737 174.196 43.0303 182.506L120.201 207.053L124.987 192.006L64.1937 172.668Z" fill="#F9A824"/>
<path d="M44.3749 199.754L49.2337 184.479L120.201 207.053L115.342 222.328L44.3749 199.754Z" fill="#FDD835"/>
<path d="M88.1932 158.209C80.2446 155.681 71.9181 159.552 69.5951 166.855L67.4195 173.694L112.58 188.059L118.962 167.996L88.1932 158.209Z" fill="#FDD835"/>
<path d="M115.252 181.378L123.302 156.071L135.213 159.86L127.163 185.166L115.252 181.378Z" fill="#FDEF59"/>
<path d="M125.414 170.049C124.18 169.656 122.888 170.257 122.528 171.39L116.799 189.401L124.987 192.006L131.369 171.943L125.414 170.049Z" fill="#FDD835"/>
<path d="M113.077 188.217L115.252 181.378L126.418 184.929L124.243 191.769L113.077 188.217Z" fill="#FDD835"/>
<path d="M123.539 156.146C122.997 155.974 122.429 156.238 122.271 156.736L112.332 187.98L114.814 188.77L124.601 158.001C124.843 157.24 124.368 156.41 123.539 156.146Z" fill="#F9A824"/>
<path d="M113.765 213.542C108.799 229.155 90.9968 237.43 74.0035 232.025C57.0103 226.62 47.2606 209.581 52.2271 193.967C57.1935 178.354 74.9953 170.079 91.9885 175.484C108.982 180.889 118.731 197.928 113.765 213.542Z" fill="#FDEF59"/>
<path d="M99.6212 209.043C96.9778 217.353 87.5026 221.758 78.4578 218.881C69.413 216.004 64.2237 206.935 66.8671 198.624C69.5105 190.314 78.9857 185.909 88.0305 188.786C97.0753 191.663 102.265 200.733 99.6212 209.043Z" fill="#E2F4FF"/>
<path d="M97.1988 204.632C94.3351 213.635 84.0703 218.407 74.2718 215.29C64.4733 212.173 58.8515 202.348 61.7152 193.345C64.5789 184.342 74.8437 179.571 84.6422 182.687C94.4407 185.804 100.063 195.629 97.1988 204.632Z" fill="white"/>
<path d="M75.8567 228.347C90.7258 233.076 106.302 225.835 110.648 212.174C114.994 198.512 106.463 183.603 91.5936 178.873C76.7245 174.144 61.1479 181.384 56.8023 195.046C52.4567 208.708 60.9876 223.617 75.8567 228.347ZM89.4542 185.599C100.28 189.043 106.492 199.898 103.328 209.845C100.164 219.792 88.8223 225.065 77.996 221.621C67.1698 218.177 60.9583 207.322 64.1223 197.374C67.2864 187.427 78.628 182.155 89.4542 185.599Z" fill="#F9A824"/>
<path d="M77.225 222.757C88.4624 226.331 100.235 220.859 103.519 210.534C106.803 200.209 100.356 188.941 89.1183 185.366C77.8809 181.792 66.1086 187.264 62.8244 197.589C59.5402 207.914 65.9876 219.182 77.225 222.757ZM87.8854 189.242C96.7933 192.076 101.904 201.007 99.3005 209.192C96.6971 217.376 87.3657 221.714 78.4578 218.881C69.55 216.047 64.4393 207.116 67.0427 198.931C69.6461 190.747 78.9776 186.409 87.8854 189.242Z" fill="#F17F16"/>
<path d="M37.5556 200.976C37.4076 205.485 37.845 210.021 38.8582 214.486L40.0192 214.308C39.026 209.931 38.5973 205.484 38.7423 201.064L37.5556 200.976Z" fill="#F9A824"/>
<path d="M38.8442 214.565L40.4396 209.549L50.3651 212.706L48.7696 217.722L38.8442 214.565Z" fill="#F9A824"/>
<path d="M51.6803 174.211L53.2757 169.195L63.2012 172.352L61.6057 177.368L51.6803 174.211Z" fill="#F9A824"/>
<path d="M38.7865 207.015L38.2064 208.839C37.6456 210.602 38.7464 212.525 40.665 213.136L47.1165 215.188L48.712 210.172L38.7865 207.015Z" fill="#F9A824"/>
<path d="M53.688 171.335C52.1806 170.855 50.6014 171.59 50.1608 172.975C49.7203 174.36 50.5851 175.871 52.0926 176.351L59.2886 178.64L60.884 173.624L53.688 171.335Z" fill="#F9A824"/>
<path d="M52.8692 169.004C50.0928 171.786 47.5888 174.797 45.3845 178.003L46.5261 178.716C48.6898 175.569 51.1479 172.613 53.8732 169.882L52.8692 169.004Z" fill="#F9A824"/>
<path d="M117.062 181.702L121.848 166.655C122.008 166.151 122.583 165.884 123.131 166.059C123.679 166.233 123.993 166.783 123.833 167.286L119.047 182.334C118.887 182.837 118.312 183.104 117.764 182.93C117.216 182.756 116.902 182.206 117.062 181.702Z" fill="#FDEF59"/>
<path d="M384.785 324.756L367.462 338.334C365.642 339.76 362.908 339.311 361.356 337.33C359.803 335.349 360.02 332.587 361.84 331.161L379.163 317.583C380.983 316.156 383.717 316.606 385.269 318.586C386.822 320.567 386.605 323.329 384.785 324.756Z" fill="#F9A824"/>
<path d="M385.883 322.466L383.803 331.62L380.665 330.633L382.745 321.48L385.883 322.466Z" fill="#F9A824"/>
<path d="M365.639 336.785L353.212 346.525C352.328 347.218 351 347 350.246 346.038C349.492 345.076 349.597 343.734 350.481 343.041L362.909 333.301C363.793 332.608 365.12 332.826 365.875 333.788C366.629 334.75 366.523 336.092 365.639 336.785Z" fill="#FDD835"/>
<path d="M320.665 377.33L366.797 341.17C367.317 340.763 367.379 339.974 366.936 339.408L360.992 331.825L313.918 368.722L320.665 377.33Z" fill="#FDD835"/>
<path d="M307.828 390.038L288.245 405.388L280.213 395.141L299.796 379.791L307.828 390.038Z" fill="#FDEF59"/>
<path d="M363.662 332.71L342.196 349.535C341.728 349.902 341.025 349.787 340.626 349.277C340.227 348.768 340.283 348.058 340.75 347.691L362.216 330.866C362.684 330.499 363.387 330.615 363.786 331.124C364.186 331.633 364.13 332.343 363.662 332.71Z" fill="#F9A824"/>
<path d="M383.367 328.183L366.986 341.023L365.219 338.768L381.6 325.928L383.367 328.183Z" fill="#F9A824"/>
<path d="M366.564 335.608L367.232 339.978C367.323 340.577 366.926 341.099 366.344 341.144C365.762 341.188 365.216 340.738 365.124 340.139L364.457 335.768C364.365 335.169 364.763 334.647 365.345 334.602C365.927 334.558 366.473 335.008 366.564 335.608Z" fill="#FDD835"/>
<path d="M322.454 375.928L287.807 403.084C287.339 403.451 286.636 403.335 286.237 402.826C285.838 402.317 285.894 401.606 286.362 401.239L321.008 374.083C321.476 373.716 322.179 373.832 322.578 374.341C322.977 374.85 322.922 375.561 322.454 375.928Z" fill="#FDEF59"/>
<path d="M295.721 388.941C297.051 390.639 299.395 391.024 300.955 389.801L327.128 369.287L321.827 362.524L292.829 385.252L295.721 388.941Z" fill="#FDD835"/>
<path d="M299.086 408.631C300.33 410.491 299.938 412.906 298.212 414.026C296.486 415.146 294.078 414.547 292.834 412.687L286.036 402.52C284.792 400.66 285.184 398.245 286.91 397.125C288.636 396.004 291.044 396.604 292.288 398.464L299.086 408.631Z" fill="#FDEF59"/>
<path d="M290.692 397.845L282.407 404.339C280.692 405.684 278.114 405.26 276.65 403.393C275.186 401.525 275.391 398.921 277.107 397.576L285.392 391.082C287.107 389.737 289.685 390.161 291.149 392.028C292.613 393.896 292.408 396.5 290.692 397.845Z" fill="#FDEF59"/>
<path d="M288.21 399.919L288.336 405.465L279.815 404.953L279.688 399.407L288.21 399.919Z" fill="#FDEF59"/>
<path d="M376.179 336.464L288.998 404.797C288.582 405.123 287.957 405.021 287.603 404.568C287.248 404.115 287.297 403.484 287.713 403.158L374.894 334.824C375.31 334.498 375.935 334.601 376.29 335.053C376.645 335.506 376.595 336.137 376.179 336.464Z" fill="#F9A824"/>
<path d="M389.872 336.433C391.381 338.085 391.388 340.566 389.888 341.975C388.388 343.384 385.949 343.187 384.44 341.535L376.191 332.504C374.683 330.852 374.676 328.371 376.176 326.963C377.676 325.554 380.115 325.751 381.624 327.403L389.872 336.433Z" fill="#F9A824"/>
<path d="M388.865 342.566C393.875 348.957 397.677 356.195 400.054 363.866C402.43 371.536 403.335 379.489 402.716 387.271L344.051 377.692L388.865 342.566Z" fill="#F9A824"/>
<path d="M402.716 387.271C402.153 394.351 400.338 401.17 397.357 407.402L344.051 377.692L402.716 387.271Z" fill="#FDD835"/>
<path d="M394.899 404.17C404.466 396.671 405.606 382.151 397.444 371.738L380.256 349.81L362.933 363.388L394.899 404.17Z" fill="#FDD835"/>
<path d="M389.106 342.873L360.485 365.307L351.169 353.42L379.79 330.987L389.106 342.873Z" fill="#F9A824"/>
<path d="M361.488 361.543L378.811 347.965L376.241 344.686C374.023 341.857 370.117 341.215 367.517 343.253L354.902 353.141L361.488 361.543Z" fill="#FDD835"/>
<path d="M339.339 436.946C331.635 435.689 324.128 432.91 317.248 428.77C310.367 424.63 304.247 419.21 299.237 412.818L344.051 377.692L339.339 436.946Z" fill="#FDEF59"/>
<path d="M360.538 436.473C354.074 437.863 347.335 438.089 340.613 437.14L344.051 377.692L360.538 436.473Z" fill="#FDD835"/>
<path d="M392.431 426.617C399.294 421.237 400.112 410.821 394.257 403.351L354.902 353.141L342.474 362.882L392.431 426.617Z" fill="#F9A824"/>
<path d="M356.786 432.721C362.641 440.191 372.952 441.885 379.815 436.506L329.858 372.77L317.431 382.511L356.786 432.721Z" fill="#F9A824"/>
<path d="M388.415 421.494L375.799 431.382L329.858 372.77L342.474 362.882L388.415 421.494Z" fill="#FDD835"/>
<path d="M328.811 431.158C333.956 437.723 343.017 439.212 349.049 434.484L354.698 430.057L325.462 392.758L308.892 405.746L328.811 431.158Z" fill="#FDD835"/>
<path d="M319.492 396.776L298.592 413.158L290.881 403.321L311.782 386.939L319.492 396.776Z" fill="#FDEF59"/>
<path d="M304.716 400.418C305.515 401.436 306.92 401.667 307.856 400.934L322.732 389.274L317.431 382.511L300.861 395.499L304.716 400.418Z" fill="#FDD835"/>
<path d="M325.141 392.348L319.492 396.776L312.264 387.554L317.913 383.126L325.141 392.348Z" fill="#FDD835"/>
<path d="M298.438 412.962C298.789 413.41 299.407 413.512 299.818 413.189L325.623 392.963L324.017 390.914L298.605 410.832C297.977 411.324 297.902 412.278 298.438 412.962Z" fill="#F9A824"/>
<path d="M338.831 371.031C351.726 360.924 371.097 364.108 382.098 378.143C393.098 392.177 391.562 411.748 378.667 421.856C365.772 431.963 346.401 428.779 335.4 414.745C324.4 400.71 325.935 381.139 338.831 371.031Z" fill="#FDEF59"/>
<path d="M347.987 382.713C354.85 377.333 365.161 379.028 371.016 386.498C376.871 393.968 376.054 404.385 369.19 409.764C362.327 415.144 352.016 413.45 346.161 405.979C340.306 398.509 341.123 388.093 347.987 382.713Z" fill="#E2F4FF"/>
<path d="M347.505 387.722C354.941 381.894 366.11 383.73 372.454 391.822C378.797 399.915 377.911 411.2 370.476 417.028C363.04 422.856 351.87 421.02 345.527 412.927C339.184 404.835 340.07 393.55 347.505 387.722Z" fill="white"/>
<path d="M378.495 380.139C368.869 367.859 351.92 365.073 340.636 373.917C329.353 382.761 328.009 399.886 337.635 412.166C347.26 424.446 364.21 427.232 375.494 418.388C386.777 409.544 388.121 392.42 378.495 380.139ZM343.19 407.812C336.181 398.871 337.16 386.402 345.375 379.963C353.59 373.523 365.932 375.552 372.94 384.493C379.949 393.434 378.97 405.903 370.755 412.343C362.54 418.782 350.198 416.754 343.19 407.812Z" fill="#F9A824"/>
<path d="M374.217 383.989C366.942 374.708 354.132 372.602 345.605 379.286C337.077 385.97 336.062 398.912 343.336 408.193C350.611 417.474 363.421 419.58 371.949 412.896C380.476 406.212 381.491 393.27 374.217 383.989ZM346.537 405.684C340.771 398.327 341.576 388.068 348.336 382.77C355.095 377.472 365.249 379.141 371.016 386.498C376.782 393.855 375.977 404.114 369.218 409.412C362.458 414.71 352.304 413.041 346.537 405.684Z" fill="#F17F16"/>
<path d="M394.739 424.324C397.4 420.68 399.592 416.685 401.268 412.425L400.209 411.919C398.565 416.095 396.416 420.011 393.807 423.583L394.739 424.324Z" fill="#F9A824"/>
<path d="M401.324 412.368L397.182 415.615L390.757 407.417L394.899 404.17L401.324 412.368Z" fill="#F9A824"/>
<path d="M367.996 438.491L363.854 441.738L357.428 433.54L361.571 430.293L367.996 438.491Z" fill="#F9A824"/>
<path d="M397.121 418.64L398.628 417.459C400.084 416.318 400.257 414.108 399.015 412.524L394.839 407.195L390.696 410.442L397.121 418.64Z" fill="#F9A824"/>
<path d="M364.718 439.737C365.693 440.982 367.412 441.265 368.556 440.368C369.7 439.472 369.836 437.736 368.86 436.491L364.202 430.547L360.059 433.794L364.718 439.737Z" fill="#F9A824"/>
<path d="M364.082 442.125C367.943 441.389 371.707 440.311 375.334 438.902L374.792 437.67C371.232 439.053 367.537 440.111 363.747 440.834L364.082 442.125Z" fill="#F9A824"/>
<path d="M318.18 395.489L305.752 405.23C305.336 405.556 304.711 405.453 304.357 405C304.002 404.548 304.051 403.916 304.467 403.59L316.895 393.849C317.311 393.523 317.936 393.626 318.29 394.079C318.645 394.531 318.596 395.163 318.18 395.489Z" fill="#FDEF59"/>
<path d="M358.021 154.161L366.393 174.517C367.273 176.655 366.099 179.165 363.772 180.122C361.444 181.079 358.844 180.122 357.965 177.983L349.593 157.627C348.713 155.489 349.887 152.979 352.214 152.022C354.542 151.065 357.142 152.022 358.021 154.161Z" fill="#F9A824"/>
<path d="M356.116 152.483L364.362 156.967L362.562 159.72L354.315 155.236L356.116 152.483Z" fill="#F9A824"/>
<path d="M364.408 175.851L370.414 190.454C370.841 191.493 370.271 192.711 369.141 193.176C368.01 193.641 366.748 193.176 366.32 192.138L360.314 177.534C359.887 176.496 360.457 175.277 361.588 174.812C362.718 174.347 363.981 174.812 364.408 175.851Z" fill="#FDD835"/>
<path d="M391.239 230.134L368.944 175.925C368.692 175.314 367.949 175.041 367.284 175.314L358.374 178.979L381.125 234.294L391.239 230.134Z" fill="#FDD835"/>
<path d="M399.991 245.936L409.455 268.948L397.414 273.9L387.95 250.889L399.991 245.936Z" fill="#FDEF59"/>
<path d="M359.95 176.649L370.324 201.873C370.551 202.423 370.249 203.068 369.65 203.314C369.052 203.561 368.383 203.314 368.157 202.764L357.783 177.541C357.557 176.991 357.858 176.346 358.457 176.099C359.055 175.853 359.724 176.099 359.95 176.649Z" fill="#F9A824"/>
<path d="M360.935 156.454L368.853 175.704L366.204 176.794L358.286 157.544L360.935 156.454Z" fill="#F9A824"/>
<path d="M363.526 174.641L367.914 175.184C368.515 175.258 368.91 175.782 368.795 176.355C368.68 176.927 368.099 177.33 367.497 177.256L363.109 176.713C362.507 176.639 362.113 176.115 362.228 175.542C362.343 174.97 362.924 174.567 363.526 174.641Z" fill="#FDD835"/>
<path d="M390.375 228.032L407.119 268.744C407.345 269.294 407.043 269.939 406.445 270.186C405.846 270.432 405.178 270.185 404.952 269.636L388.207 228.924C387.981 228.374 388.283 227.728 388.881 227.482C389.48 227.236 390.148 227.482 390.375 228.032Z" fill="#FDEF59"/>
<path d="M395.652 257.292C397.647 256.472 398.653 254.321 397.899 252.488L385.25 221.733L377.303 225.001L391.317 259.075L395.652 257.292Z" fill="#FDD835"/>
<path d="M415.517 259.392C417.644 258.699 419.863 259.731 420.473 261.697C421.083 263.662 419.853 265.817 417.726 266.509L406.096 270.296C403.969 270.989 401.75 269.957 401.14 267.992C400.53 266.027 401.76 263.872 403.887 263.179L415.517 259.392Z" fill="#FDEF59"/>
<path d="M402.859 264.547L406.863 274.282C407.692 276.298 406.585 278.665 404.391 279.567C402.196 280.47 399.745 279.567 398.916 277.551L394.912 267.815C394.082 265.799 395.189 263.433 397.384 262.53C399.578 261.627 402.029 262.53 402.859 264.547Z" fill="#FDEF59"/>
<path d="M404.181 267.499L409.554 268.881L406.751 276.944L401.378 275.562L404.181 267.499Z" fill="#FDEF59"/>
<path d="M366.957 165.619L409.091 268.062C409.292 268.551 409.024 269.125 408.492 269.344C407.96 269.562 407.366 269.344 407.165 268.855L365.03 166.411C364.829 165.922 365.098 165.349 365.63 165.13C366.162 164.911 366.756 165.13 366.957 165.619Z" fill="#F9A824"/>
<path d="M370.641 152.43C372.64 151.426 375.03 152.092 375.979 153.918C376.929 155.744 376.078 158.038 374.078 159.043L363.149 164.533C361.15 165.538 358.76 164.872 357.811 163.046C356.862 161.22 357.713 158.926 359.712 157.921L370.641 152.43Z" fill="#F9A824"/>
<path d="M376.27 155.062C383.781 151.973 391.779 150.277 399.806 150.069C407.834 149.861 415.734 151.147 423.056 153.853L397.929 207.722L376.27 155.062Z" fill="#F9A824"/>
<path d="M423.056 153.853C429.719 156.315 435.79 159.911 440.98 164.47L397.929 207.722L423.056 153.853Z" fill="#FDD835"/>
<path d="M437.203 165.959C432.579 154.717 418.912 149.683 406.676 154.715L380.909 165.313L389.281 185.669L437.203 165.959Z" fill="#FDD835"/>
<path d="M376.632 154.914L390.464 188.545L376.497 194.29L362.664 160.658L376.632 154.914Z" fill="#F9A824"/>
<path d="M387.114 186.56L378.741 166.204L374.888 167.789C371.563 169.157 369.887 172.742 371.143 175.797L377.24 190.621L387.114 186.56Z" fill="#FDD835"/>
<path d="M453.686 228.325C450.386 235.4 445.677 241.872 439.826 247.372C433.975 252.872 427.098 257.293 419.588 260.382L397.929 207.722L453.686 228.325Z" fill="#FDEF59"/>
<path d="M458.979 207.792C458.564 214.39 456.954 220.938 454.218 227.151L397.929 207.722L458.979 207.792Z" fill="#FDD835"/>
<path d="M458.14 174.421C454.823 166.356 445.018 162.745 436.24 166.355L377.24 190.621L383.246 205.224L458.14 174.421Z" fill="#F9A824"/>
<path d="M454.349 210.386C463.127 206.776 467.554 197.311 464.237 189.246L389.344 220.049L395.35 234.652L454.349 210.386Z" fill="#F9A824"/>
<path d="M452.119 176.898L458.217 191.722L389.344 220.049L383.246 205.224L452.119 176.898Z" fill="#FDD835"/>
<path d="M445.26 236.889C452.974 233.716 456.864 225.399 453.949 218.311L451.219 211.674L407.39 229.7L415.399 249.171L445.26 236.889Z" fill="#FDD835"/>
<path d="M409.639 236.536L419.74 261.096L408.181 265.85L398.08 241.29L409.639 236.536Z" fill="#FDEF59"/>
<path d="M409.138 251.746C410.335 251.254 410.938 249.963 410.486 248.863L403.297 231.384L395.35 234.652L403.358 254.123L409.138 251.746Z" fill="#FDD835"/>
<path d="M406.909 229.898L409.639 236.536L398.802 240.993L396.072 234.355L406.909 229.898Z" fill="#FDD835"/>
<path d="M419.51 261.19C420.036 260.974 420.301 260.407 420.103 259.923L407.631 229.601L405.223 230.591L417.504 260.452C417.808 261.19 418.706 261.521 419.51 261.19Z" fill="#F9A824"/>
<path d="M390.103 210.941C383.87 195.789 392.187 178.006 408.679 171.223C425.171 164.441 443.592 171.226 449.825 186.378C456.057 201.531 447.74 219.313 431.248 226.096C414.756 232.879 396.335 226.094 390.103 210.941Z" fill="#FDEF59"/>
<path d="M403.829 205.296C400.512 197.231 404.939 187.766 413.717 184.156C422.495 180.545 432.299 184.157 435.617 192.222C438.934 200.287 434.507 209.752 425.729 213.362C416.951 216.972 407.146 213.361 403.829 205.296Z" fill="#E2F4FF"/>
<path d="M408.52 207.117C404.926 198.38 409.722 188.127 419.232 184.216C428.741 180.304 439.363 184.217 442.956 192.954C446.55 201.691 441.754 211.945 432.245 215.856C422.735 219.767 412.113 215.855 408.52 207.117Z" fill="white"/>
<path d="M409.624 175.232C395.194 181.168 387.917 196.727 393.37 209.986C398.823 223.244 414.941 229.181 429.372 223.246C443.802 217.311 451.08 201.751 445.627 188.493C440.173 175.234 424.055 169.297 409.624 175.232ZM426.687 216.719C416.181 221.04 404.444 216.717 400.474 207.064C396.503 197.41 401.802 186.081 412.309 181.76C422.816 177.438 434.552 181.761 438.522 191.415C442.493 201.068 437.194 212.397 426.687 216.719Z" fill="#F9A824"/>
<path d="M412.17 180.394C401.264 184.88 395.764 196.639 399.885 206.659C404.006 216.679 416.188 221.166 427.094 216.681C438 212.195 443.5 200.436 439.379 190.416C435.257 180.396 423.075 175.909 412.17 180.394ZM425.547 212.919C416.902 216.475 407.246 212.918 403.979 204.975C400.712 197.032 405.072 187.711 413.717 184.156C422.362 180.6 432.018 184.157 435.285 192.1C438.552 200.043 434.192 209.364 425.547 212.919Z" fill="#F17F16"/>
<path d="M456.558 171.578C453.773 168.029 450.522 164.835 446.876 162.067L446.101 162.95C449.675 165.664 452.862 168.794 455.592 172.274L456.558 171.578Z" fill="#F9A824"/>
<path d="M446.836 161.997L448.838 166.865L439.205 170.827L437.203 165.959L446.836 161.997Z" fill="#F9A824"/>
<path d="M462.943 201.16L464.945 206.028L455.313 209.99L453.311 205.122L462.943 201.16Z" fill="#F9A824"/>
<path d="M451.733 167.744L451.005 165.974C450.302 164.263 448.222 163.497 446.36 164.263L440.099 166.838L442.101 171.705L451.733 167.744Z" fill="#F9A824"/>
<path d="M463.254 204.654C464.717 204.052 465.455 202.475 464.902 201.131C464.349 199.787 462.715 199.185 461.252 199.786L454.268 202.659L456.27 207.526L463.254 204.654Z" fill="#F9A824"/>
<path d="M465.38 205.914C465.718 201.998 465.701 198.082 465.328 194.209L463.995 194.396C464.361 198.198 464.378 202.042 464.046 205.886L465.38 205.914Z" fill="#F9A824"/>
<path d="M408.044 237.45L414.05 252.054C414.251 252.542 413.983 253.116 413.451 253.335C412.919 253.554 412.325 253.335 412.124 252.846L406.118 238.243C405.917 237.754 406.185 237.18 406.717 236.961C407.249 236.743 407.843 236.962 408.044 237.45Z" fill="#FDEF59"/>
</g>
<defs>
<clipPath id="clip0_2_2294">
<rect width="512" height="512" fill="white"/>
</clipPath>
</defs>
</svg>
