<svg width="512" height="512" viewBox="0 0 512 512" fill="none" xmlns="http://www.w3.org/2000/svg">
<path d="M256 512C397.385 512 512 397.385 512 256C512 114.615 397.385 0 256 0C114.615 0 0 114.615 0 256C0 397.385 114.615 512 256 512Z" fill="#6C53A2"/>
<path d="M135.339 107.75C139.339 119.3 147.079 128.29 155.569 135.12C172.129 148.48 191.519 153.62 191.519 153.62L235.999 111.29C222.399 79.97 207.269 60.63 193.949 49.04C176.489 33.81 162.129 31.89 158.369 33.67C147.919 38.64 123.508 73.63 135.339 107.75Z" fill="#3E4E60"/>
<path d="M135.339 107.75C139.339 119.3 147.079 128.29 155.569 135.12C179.419 123.12 195.939 97.08 195.939 66.89C195.939 60.74 195.249 54.76 193.949 49.04C176.489 33.81 162.129 31.89 158.369 33.67C147.919 38.64 123.508 73.63 135.339 107.75Z" fill="#3F5D77"/>
<path d="M152.439 119.87C166.849 133.09 183.629 143.84 198.019 137.25C200.439 136.15 202.779 134.56 205.039 132.41C219.779 118.39 208.339 83.02 191.559 60.77H191.549C182.409 48.64 171.679 40.41 162.739 41.67C137.399 45.23 135.619 104.43 152.439 119.87Z" fill="#C2AACF"/>
<path d="M175.732 86.613C170.856 88.112 165.844 89.992 161.998 92.221C159.726 93.538 159.317 96.671 161.177 98.525C164.84 102.176 171.43 107.743 179.569 110.235C182.821 111.231 183.541 115.486 180.739 117.413C179.352 118.367 177.958 119.403 176.65 120.496C174.848 122.002 174.714 124.726 176.361 126.4C180.475 130.58 188.743 137.53 198.018 137.25C200.438 136.15 202.778 134.56 205.038 132.41C219.778 118.39 208.338 83.02 191.558 60.77H191.548C176.982 55.515 167.042 54.182 161.444 53.953C158.571 53.835 156.533 56.692 157.531 59.388C159.637 65.078 164.125 73.843 172.599 77.62C173.777 78.144 174.91 78.612 175.995 79.031C179.544 80.398 179.367 85.495 175.732 86.613Z" fill="#DECEE5"/>
<path d="M376.75 107.75C372.75 119.3 365.01 128.29 356.52 135.12C339.96 148.48 320.57 153.62 320.57 153.62L276.09 111.29C289.69 79.97 304.82 60.63 318.14 49.04C335.6 33.81 349.96 31.89 353.72 33.67C364.17 38.64 388.58 73.63 376.75 107.75Z" fill="#3F5D77"/>
<path d="M376.75 107.75C372.75 119.3 365.01 128.29 356.52 135.12C332.67 123.12 316.15 97.08 316.15 66.89C316.15 60.74 316.84 54.76 318.14 49.04C335.6 33.81 349.96 31.89 353.72 33.67C364.17 38.64 388.58 73.63 376.75 107.75Z" fill="#3F6C8E"/>
<path d="M359.65 119.87C345.24 133.09 328.46 143.84 314.07 137.25C311.65 136.15 309.31 134.56 307.05 132.41C292.31 118.39 303.75 83.02 320.53 60.77H320.54C329.68 48.64 340.41 40.41 349.35 41.67C374.69 45.23 376.47 104.43 359.65 119.87Z" fill="#F4E6F4"/>
<path d="M336.357 86.613C341.233 88.112 346.245 89.992 350.091 92.221C352.363 93.538 352.772 96.671 350.912 98.525C347.249 102.176 340.659 107.743 332.52 110.235C329.268 111.231 328.548 115.486 331.35 117.413C332.737 118.367 334.131 119.403 335.439 120.496C337.241 122.002 337.375 124.726 335.728 126.4C331.614 130.58 323.346 137.53 314.071 137.25C311.651 136.15 309.311 134.56 307.051 132.41C292.311 118.39 303.751 83.02 320.531 60.77H320.541C335.107 55.515 345.047 54.182 350.645 53.953C353.518 53.835 355.556 56.692 354.558 59.388C352.452 65.078 347.964 73.843 339.49 77.62C338.312 78.144 337.179 78.612 336.094 79.031C332.544 80.398 332.721 85.495 336.357 86.613Z" fill="white"/>
<path d="M340.76 278.433V320.964C340.76 340.344 332.833 359.155 318.287 374.283L280.8 413.272H231.597L194.11 374.283C179.564 359.155 171.637 340.344 171.637 320.964V278.433C171.637 239.744 209.148 208.349 255.545 208.069C255.761 208.059 255.977 208.059 256.193 208.059C279.553 208.059 300.684 215.933 315.997 228.666C331.298 241.41 340.76 258.993 340.76 278.433Z" fill="#C2AACF"/>
<path d="M340.76 278.433V320.964C340.76 340.344 332.833 359.155 318.287 374.283L280.8 413.272H255.545V208.069C255.761 208.059 255.977 208.059 256.193 208.059C279.553 208.059 300.684 215.933 315.997 228.666C331.298 241.41 340.76 258.993 340.76 278.433Z" fill="#DECEE5"/>
<path d="M331.54 231.63L327.31 237.6C315.65 254.07 307.84 272.23 304.32 291.12L295.21 339.86L288.93 373.44C286.64 385.7 288.83 398.25 295.24 409.46L301.47 420.37C306.1 428.47 308.09 437.44 307.25 446.39L304.64 473.96C303.75 483.43 294.26 490.73 282.84 490.73H229.51C218.11 490.73 208.61 483.43 207.71 473.97L205.05 446.02C204.21 437.31 206.08 428.56 210.45 420.62L217.57 407.7C223.63 396.7 225.67 384.44 223.43 372.47L217.47 340.57L207.95 289.63C204.42 270.78 196.64 252.65 185.02 236.2L180.85 230.3C172.27 218.19 170.55 203.55 176.12 190.28L200.44 132.38C205.75 119.75 220.07 111.29 236.14 111.29H276.09C292.23 111.29 306.58 119.82 311.84 132.52L336.36 191.79C341.83 205.02 340.06 219.58 331.54 231.63Z" fill="#DECEE5"/>
<path d="M331.539 231.63L327.306 237.598C315.65 254.074 307.843 272.226 304.317 291.117L288.931 373.446C286.64 385.7 288.835 398.254 295.239 409.461L301.475 420.368C306.104 428.471 308.095 437.443 307.255 446.394L304.641 473.957C303.754 483.427 294.256 490.732 282.84 490.732H256.206V111.292H276.089C292.231 111.292 306.585 119.824 311.837 132.518L336.361 191.795C341.827 205.016 340.065 219.575 331.539 231.63Z" fill="#F4E6F4"/>
<path d="M307.25 446.39L304.64 473.96C303.75 483.43 294.26 490.73 282.84 490.73H229.51C218.11 490.73 208.61 483.43 207.71 473.97L205.05 446.02C204.21 437.31 206.08 428.56 210.45 420.62L217.57 407.7C223.63 396.7 225.67 384.44 223.43 372.47L217.47 340.57C229.19 345.68 242.05 348.5 255.54 348.5C269.65 348.5 283.07 345.42 295.21 339.86L288.93 373.44C286.64 385.7 288.83 398.25 295.24 409.46L301.47 420.37C306.1 428.47 308.09 437.44 307.25 446.39Z" fill="#3E4E60"/>
<path d="M307.25 446.39L304.64 473.96C303.75 483.43 294.26 490.73 282.84 490.73H255.54V348.5C269.65 348.5 283.07 345.42 295.21 339.86L288.93 373.44C286.64 385.7 288.83 398.25 295.24 409.46L301.47 420.37C306.1 428.47 308.09 437.44 307.25 446.39Z" fill="#3F5D77"/>
<path d="M256.19 348.49V378.25C251.44 378.25 247.07 376.78 243.74 374.32C240.42 371.86 238.13 368.42 237.56 364.5L234.92 346.25C241.57 347.73 248.47 348.5 255.54 348.5C255.76 348.5 255.97 348.5 256.19 348.49Z" fill="#3F5D77"/>
<path d="M277.52 345.93L274.84 364.5C274.27 368.42 271.98 371.86 268.66 374.32C265.32 376.78 260.95 378.25 256.2 378.25V348.49C263.53 348.45 270.66 347.57 277.52 345.93Z" fill="#3F6C8E"/>
<path d="M234.919 346.244C241.571 347.718 248.468 348.5 255.54 348.5C255.757 348.5 255.973 348.493 256.19 348.491V270.32H245.12C233.86 270.32 225.14 278.5 226.48 287.8L234.919 346.244Z" fill="#F4E6F4"/>
<path d="M277.519 345.935L277.52 345.93L285.91 287.8C287.26 278.5 278.53 270.32 267.28 270.32H256.2V348.491C263.523 348.441 270.657 347.56 277.519 345.935Z" fill="white"/>
<path d="M278.18 71.16L272.27 114.54C271.61 119.34 267.51 122.93 262.66 122.93H248.43C243.58 122.93 239.48 119.34 238.82 114.54L232.91 71.16C231.35 59.73 240.24 49.54 251.78 49.54H259.31C270.85 49.54 279.74 59.73 278.18 71.16Z" fill="#3E4E60"/>
<path d="M278.18 71.16L272.27 114.54C271.61 119.34 267.51 122.93 262.66 122.93H255.54V49.54H259.31C270.85 49.54 279.74 59.73 278.18 71.16Z" fill="#3F5D77"/>
<path d="M256.204 130.702H266.649C278.287 130.702 288.673 138.009 292.604 148.963L305.107 183.805C309.006 194.671 303.308 206.594 292.434 210.467C282.967 213.839 270.488 216.868 256.205 216.868V130.702H256.204Z" fill="white"/>
<path d="M256.204 130.702H245.76C234.122 130.702 223.736 138.009 219.805 148.963L207.302 183.805C203.403 194.671 209.101 206.594 219.975 210.467C229.442 213.839 241.921 216.868 256.204 216.868V130.702Z" fill="#F4E6F4"/>
<path d="M332.959 227.2C340.361 231.474 342.936 240.886 338.768 248.321C338.742 248.389 338.706 248.452 338.67 248.514L333.242 257.915C331.09 261.642 327.627 264.154 323.768 265.188C319.903 266.232 315.658 265.795 311.921 263.637C304.977 259.628 302.275 251.086 305.403 243.911C305.635 243.365 305.904 242.826 306.205 242.306L311.633 232.905C313.791 229.168 317.258 226.672 321.117 225.638C324.977 224.604 329.222 225.042 332.959 227.2Z" fill="#3E4E60"/>
<path d="M332.959 227.2C340.361 231.474 342.936 240.886 338.768 248.321C330.424 252.748 319.563 252.71 310.204 247.307C308.465 246.303 306.859 245.167 305.405 243.911C305.637 243.365 305.906 242.826 306.207 242.306L311.635 232.905C313.793 229.168 317.26 226.672 321.119 225.638C324.977 224.604 329.222 225.042 332.959 227.2Z" fill="#2E3140"/>
<path d="M319.403 233.537L316.137 239.193C314.731 241.629 315.565 244.743 318.001 246.149C320.437 247.555 323.551 246.721 324.957 244.285L328.223 238.629C329.629 236.193 328.795 233.079 326.359 231.673C323.924 230.267 320.81 231.102 319.403 233.537Z" fill="white"/>
<path d="M178.13 227.2C170.728 231.474 168.153 240.886 172.321 248.321C172.347 248.389 172.383 248.452 172.419 248.514L177.847 257.915C179.999 261.642 183.462 264.154 187.321 265.188C191.186 266.232 195.431 265.795 199.168 263.637C206.112 259.628 208.814 251.086 205.686 243.911C205.454 243.365 205.185 242.826 204.884 242.306L199.456 232.905C197.298 229.168 193.831 226.672 189.972 225.638C186.112 224.604 181.868 225.042 178.13 227.2Z" fill="#3E4E60"/>
<path d="M178.13 227.2C170.728 231.474 168.153 240.886 172.321 248.321C180.665 252.748 191.526 252.71 200.885 247.307C202.624 246.303 204.23 245.167 205.685 243.911C205.453 243.365 205.184 242.826 204.883 242.306L199.455 232.905C197.297 229.168 193.83 226.672 189.971 225.638C186.112 224.604 181.868 225.042 178.13 227.2Z" fill="#2E3140"/>
<path d="M191.686 233.537L194.952 239.193C196.358 241.629 195.524 244.743 193.088 246.149C190.652 247.555 187.538 246.721 186.132 244.285L182.866 238.629C181.46 236.193 182.294 233.079 184.73 231.673C187.166 230.267 190.28 231.102 191.686 233.537Z" fill="white"/>
<path d="M244.98 459.835C244.98 465.413 239.859 470.173 233.06 470.662C225.877 471.181 219.545 466.76 218.921 460.783L217.89 450.943L216.643 439.138C216.007 433.16 221.332 427.891 228.515 427.363C235.698 426.844 242.03 431.265 242.654 437.242L243.481 445.096L244.932 458.887C244.968 459.206 244.98 459.526 244.98 459.835Z" fill="#151516"/>
<path d="M244.98 459.835C244.98 465.413 239.859 470.173 233.06 470.662C225.877 471.181 219.545 466.76 218.921 460.783L217.89 450.943C225.925 448.069 234.511 446.073 243.481 445.095L244.932 458.886C244.968 459.206 244.98 459.526 244.98 459.835Z" fill="#2E3140"/>
<path d="M295.394 439.138L294.171 450.814L293.116 460.783C292.516 466.441 286.808 470.702 280.105 470.702C279.733 470.702 279.35 470.692 278.966 470.662C271.783 470.143 266.47 464.864 267.094 458.887L268.545 445.056L269.372 437.242C270.008 431.264 276.339 426.844 283.523 427.363C290.706 427.892 296.018 433.161 295.394 439.138Z" fill="#2E3140"/>
<path d="M294.171 450.814L293.116 460.783C292.516 466.441 286.808 470.702 280.105 470.702C279.733 470.702 279.35 470.692 278.966 470.662C271.783 470.143 266.47 464.864 267.094 458.887L268.545 445.056C277.526 446.004 286.125 447.97 294.171 450.814Z" fill="#334353"/>
<path d="M326.57 215.3C326.76 217.22 325.35 218.93 323.43 219.13C323.31 219.14 323.2 219.14 323.08 219.14C321.3 219.14 319.78 217.8 319.6 215.99C317.93 199.22 310.46 198.1 301.82 196.81C296.45 196 290.89 195.17 287.07 190.51C282.08 184.43 280.15 177.25 278.44 170.92C275.29 159.24 273.21 151.52 256.2 151.52C256.15 151.52 256.1 151.5 256.05 151.5C256 151.5 255.95 151.52 255.89 151.52H255.54C238.85 151.63 236.78 159.32 233.66 170.92C231.95 177.25 230.02 184.43 225.03 190.51C221.21 195.17 215.65 196 210.28 196.81C201.63 198.1 194.17 199.22 192.5 215.99C192.32 217.8 190.79 219.14 189.02 219.14C188.9 219.14 188.79 219.14 188.67 219.13C186.74 218.93 185.34 217.22 185.53 215.3C187.75 193.1 200.17 191.24 209.24 189.88C213.67 189.22 217.5 188.65 219.62 186.07C223.65 181.15 225.3 175.03 226.9 169.1C229.98 157.64 233.48 144.66 255.54 144.52H255.89C255.95 144.52 256 144.53 256.05 144.53C256.1 144.53 256.15 144.52 256.2 144.52C278.58 144.52 282.1 157.58 285.2 169.1C286.8 175.03 288.45 181.15 292.48 186.07C294.59 188.65 298.42 189.22 302.86 189.88C311.93 191.24 324.35 193.1 326.57 215.3ZM307.48 224.16C304.29 212.72 297.86 211.63 292.2 210.67C289.75 210.26 287.22 209.83 284.68 208.57C276.69 204.6 275.66 204.09 259.36 169.94C258.74 168.64 257.42 167.9 256.06 167.96H256.05C256.04 167.96 256.04 167.96 256.04 167.96C255.87 167.95 255.7 167.96 255.54 167.98C254.36 168.09 253.29 168.8 252.74 169.94C236.43 204.09 235.41 204.6 227.42 208.57C224.88 209.83 222.35 210.26 219.9 210.67C214.23 211.63 207.81 212.72 204.61 224.16C204.09 226.02 205.18 227.95 207.04 228.47C207.36 228.56 207.67 228.6 207.99 228.6C209.52 228.6 210.92 227.59 211.36 226.05C213.36 218.88 215.94 218.44 221.07 217.57C223.88 217.1 227.07 216.56 230.54 214.83C239.86 210.21 241.98 208.38 255.54 180.28C255.71 179.93 255.88 179.58 256.05 179.23C270.07 208.34 272.13 210.15 281.56 214.83C285.03 216.56 288.22 217.1 291.03 217.57C296.16 218.44 298.74 218.88 300.74 226.05C301.17 227.59 302.58 228.6 304.11 228.6C304.42 228.6 304.74 228.56 305.05 228.47C306.92 227.95 308 226.02 307.48 224.16ZM283.97 234.94C279.1 231.88 273.57 228.41 268.52 220.06C267.52 218.4 265.37 217.87 263.72 218.87C262.06 219.87 261.53 222.02 262.53 223.68C268.44 233.45 275.26 237.74 280.25 240.87C285.97 244.47 288.34 245.95 287.59 252.63C287.01 257.83 286.59 262.6 286.18 267.21C284.8 282.98 283.8 294.36 278.06 300.48C268.68 310.46 265.08 317.68 263.55 338.33C263.41 340.26 264.86 341.93 266.78 342.08C266.87 342.08 266.96 342.09 267.05 342.09C268.86 342.09 270.4 340.69 270.53 338.85C272 319.06 275.51 313.42 283.16 305.27C290.56 297.39 291.65 284.99 293.16 267.83C293.56 263.25 293.98 258.52 294.55 253.41C295.79 242.36 290.05 238.76 283.97 234.94ZM267.95 242.89C266.55 241.55 264.33 241.6 263 243C261.66 244.4 261.71 246.61 263.11 247.95C269.8 254.33 272.55 260.26 270.12 276.64C268.14 289.99 264.02 294.19 263.48 294.69L263.51 294.67L267.54 300.4C268.24 299.91 274.47 295.08 277.05 277.66C279.55 260.79 277.17 251.69 267.95 242.89ZM256 252.5C255.84 252.5 255.69 252.51 255.54 252.53C253.83 252.76 252.5 254.23 252.5 256V285.59C252.5 287.36 253.83 288.83 255.54 289.06C255.69 289.08 255.84 289.09 256 289.09C257.93 289.09 259.5 287.52 259.5 285.59V256C259.5 254.07 257.93 252.5 256 252.5ZM337.43 276.75C336.76 274.94 334.75 274.01 332.93 274.67L312.21 282.31C310.4 282.97 309.47 284.99 310.14 286.8C310.66 288.21 312 289.09 313.42 289.09C313.83 289.09 314.23 289.02 314.63 288.87L335.35 281.24C337.17 280.57 338.09 278.56 337.43 276.75ZM333.22 301.06L311.24 301.58C309.31 301.63 307.78 303.23 307.82 305.16C307.87 307.07 309.43 308.58 311.32 308.58H311.41L333.38 308.06C335.32 308.01 336.85 306.41 336.8 304.47C336.76 302.54 335.13 301.05 333.22 301.06ZM332.25 327.78L307.64 321.13C305.77 320.63 303.85 321.73 303.35 323.6C302.84 325.47 303.95 327.39 305.81 327.89L330.43 334.54C330.74 334.62 331.04 334.66 331.34 334.66C332.89 334.66 334.3 333.63 334.72 332.07C335.22 330.2 334.12 328.28 332.25 327.78ZM322.2 353.62L304 342.91C302.33 341.93 300.19 342.49 299.21 344.16C298.23 345.82 298.78 347.97 300.45 348.95L318.65 359.65C319.21 359.98 319.82 360.14 320.42 360.14C321.62 360.14 322.79 359.52 323.44 358.41C324.42 356.74 323.86 354.6 322.2 353.62ZM329.34 184.66C329.21 184.11 325.97 171.28 308.18 170.29C301.52 169.92 299.87 164.45 297.72 155.56C296.45 150.29 295.13 144.83 291.71 141.29C283.15 132.43 276.51 130.4 256.2 130.4C256.15 130.4 256.1 130.41 256.05 130.41C256 130.41 255.95 130.4 255.89 130.4H255.54C235.5 130.42 228.9 132.48 220.39 141.29C216.97 144.83 215.65 150.29 214.38 155.56C212.23 164.45 210.58 169.92 203.91 170.29C186.12 171.28 182.88 184.11 182.75 184.66C182.31 186.54 183.47 188.42 185.35 188.87C185.62 188.93 185.89 188.96 186.16 188.96C187.75 188.96 189.18 187.88 189.56 186.27C189.58 186.19 191.67 177.98 204.3 177.28C216.5 176.6 219.1 165.85 221.18 157.2C222.24 152.84 223.33 148.33 225.42 146.16C231.65 139.71 235.64 137.43 255.54 137.4H255.89C255.95 137.4 256 137.39 256.05 137.38C256.1 137.39 256.15 137.4 256.2 137.4C276.41 137.4 280.41 139.67 286.68 146.16C288.77 148.33 289.86 152.84 290.92 157.2C293 165.85 295.6 176.6 307.8 177.28C320.19 177.97 322.45 185.97 322.53 186.27C322.91 187.88 324.35 188.96 325.94 188.96C326.2 188.96 326.47 188.93 326.75 188.87C328.63 188.42 329.79 186.54 329.34 184.66ZM225.914 267.22C225.508 262.603 225.088 257.829 224.505 252.633C223.755 245.953 226.124 244.466 231.848 240.871C236.833 237.741 243.661 233.453 249.567 223.677C250.566 222.023 250.035 219.871 248.38 218.872C246.727 217.873 244.575 218.402 243.574 220.058C238.529 228.41 233.002 231.881 228.125 234.943C222.048 238.759 216.309 242.363 217.548 253.413C218.122 258.526 218.538 263.257 218.941 267.833C220.451 284.992 221.541 297.389 228.939 305.269C236.592 313.418 240.099 319.058 241.565 338.845C241.701 340.684 243.236 342.086 245.051 342.086C245.138 342.086 245.226 342.083 245.314 342.076C247.242 341.933 248.688 340.255 248.545 338.327C247.016 317.678 243.415 310.459 234.042 300.477C228.301 294.363 227.3 282.978 225.914 267.22ZM244.152 242.886C234.933 251.692 232.551 260.793 235.05 277.664C237.63 295.077 243.855 299.906 244.556 300.4L248.583 294.674L248.678 294.744C248.632 294.707 244.084 290.877 241.974 276.638C239.548 260.255 242.302 254.333 248.988 247.947C250.385 246.612 250.436 244.396 249.101 242.999C247.766 241.603 245.553 241.551 244.152 242.886ZM176.746 281.243L197.465 288.875C197.864 289.022 198.273 289.092 198.675 289.092C200.099 289.092 201.438 288.216 201.959 286.801C202.627 284.987 201.698 282.975 199.885 282.307L179.166 274.675C177.354 274.008 175.341 274.935 174.672 276.749C174.004 278.562 174.933 280.575 176.746 281.243ZM200.692 308.58C200.72 308.58 200.749 308.581 200.777 308.581C202.671 308.581 204.229 307.068 204.274 305.164C204.32 303.231 202.791 301.627 200.858 301.581L178.879 301.058C176.928 301.023 175.343 302.541 175.297 304.474C175.251 306.407 176.78 308.011 178.713 308.057L200.692 308.58ZM208.753 323.601C208.25 321.735 206.332 320.632 204.462 321.134L179.844 327.778C177.978 328.281 176.873 330.203 177.377 332.069C177.798 333.63 179.211 334.658 180.754 334.658C181.056 334.658 181.362 334.618 181.668 334.536L206.286 327.892C208.152 327.388 209.257 325.467 208.753 323.601ZM208.101 342.913L189.902 353.619C188.236 354.599 187.679 356.744 188.66 358.41C189.312 359.519 190.48 360.136 191.68 360.136C192.284 360.136 192.895 359.98 193.451 359.652L211.65 348.946C213.316 347.966 213.873 345.821 212.892 344.155C211.911 342.488 209.763 341.933 208.101 342.913Z" fill="#3E4E60"/>
<path d="M256.2 130.4C276.51 130.4 283.15 132.43 291.71 141.29C295.13 144.83 296.45 150.29 297.72 155.56C299.87 164.45 301.52 169.92 308.18 170.29C325.97 171.28 329.21 184.11 329.34 184.66C329.79 186.54 328.63 188.42 326.75 188.87C326.47 188.93 326.2 188.96 325.94 188.96C324.35 188.96 322.91 187.88 322.53 186.27C322.45 185.97 320.19 177.97 307.8 177.28C295.6 176.6 293 165.85 290.92 157.2C289.86 152.84 288.77 148.33 286.68 146.16C280.41 139.67 276.41 137.4 256.2 137.4V130.4V130.4ZM256.2 252.52V289.07C258.035 288.964 259.5 287.452 259.5 285.59V256C259.5 254.139 258.035 252.626 256.2 252.52ZM310.14 286.8C310.66 288.21 312 289.09 313.42 289.09C313.83 289.09 314.23 289.02 314.63 288.87L335.35 281.24C337.17 280.57 338.09 278.56 337.43 276.75C336.76 274.94 334.75 274.01 332.93 274.67L312.21 282.31C310.4 282.97 309.47 284.99 310.14 286.8ZM278.44 170.92C280.15 177.25 282.08 184.43 287.07 190.51C290.89 195.17 296.45 196 301.82 196.81C310.46 198.1 317.93 199.22 319.6 215.99C319.78 217.8 321.3 219.14 323.08 219.14C323.2 219.14 323.31 219.14 323.43 219.13C325.35 218.93 326.76 217.22 326.57 215.3C324.35 193.1 311.93 191.24 302.86 189.88C298.42 189.22 294.59 188.65 292.48 186.07C288.45 181.15 286.8 175.03 285.2 169.1C282.1 157.58 278.58 144.52 256.2 144.52V151.52C273.21 151.52 275.29 159.24 278.44 170.92ZM277.05 277.66C279.55 260.79 277.17 251.69 267.95 242.89C266.55 241.55 264.33 241.6 263 243C261.66 244.4 261.71 246.61 263.11 247.95C269.8 254.33 272.55 260.26 270.12 276.64C268.14 289.99 264.02 294.19 263.48 294.69L263.51 294.67L267.54 300.4C268.24 299.91 274.47 295.08 277.05 277.66ZM322.2 353.62L304 342.91C302.33 341.93 300.19 342.49 299.21 344.16C298.23 345.82 298.78 347.97 300.45 348.95L318.65 359.65C319.21 359.98 319.82 360.14 320.42 360.14C321.62 360.14 322.79 359.52 323.44 358.41C324.42 356.74 323.86 354.6 322.2 353.62ZM332.25 327.78L307.64 321.13C305.77 320.63 303.85 321.73 303.35 323.6C302.84 325.47 303.95 327.39 305.81 327.89L330.43 334.54C330.74 334.62 331.04 334.66 331.34 334.66C332.89 334.66 334.3 333.63 334.72 332.07C335.22 330.2 334.12 328.28 332.25 327.78ZM333.22 301.06L311.24 301.58C309.31 301.63 307.78 303.23 307.82 305.16C307.87 307.07 309.43 308.58 311.32 308.58H311.41L333.38 308.06C335.32 308.01 336.85 306.41 336.8 304.47C336.76 302.54 335.13 301.05 333.22 301.06ZM304.11 228.6C304.42 228.6 304.74 228.56 305.05 228.47C306.92 227.95 308 226.02 307.48 224.16C304.29 212.72 297.86 211.63 292.2 210.67C289.75 210.26 287.22 209.83 284.68 208.57C276.69 204.6 275.66 204.09 259.36 169.94C258.761 168.685 257.51 167.959 256.2 167.964V179.54C270.082 208.345 272.164 210.167 281.56 214.83C285.03 216.56 288.22 217.1 291.03 217.57C296.16 218.44 298.74 218.88 300.74 226.05C301.17 227.59 302.58 228.6 304.11 228.6ZM283.97 234.94C279.1 231.88 273.57 228.41 268.52 220.06C267.52 218.4 265.37 217.87 263.72 218.87C262.06 219.87 261.53 222.02 262.53 223.68C268.44 233.45 275.26 237.74 280.25 240.87C285.97 244.47 288.34 245.95 287.59 252.63C287.01 257.83 286.59 262.6 286.18 267.21C284.8 282.98 283.8 294.36 278.06 300.48C268.68 310.46 265.08 317.68 263.55 338.33C263.41 340.26 264.86 341.93 266.78 342.08C266.87 342.08 266.96 342.09 267.05 342.09C268.86 342.09 270.4 340.69 270.53 338.85C272 319.06 275.51 313.42 283.16 305.27C290.56 297.39 291.65 284.99 293.16 267.83C293.56 263.25 293.98 258.52 294.55 253.41C295.79 242.36 290.05 238.76 283.97 234.94Z" fill="#3F5D77"/>
<path d="M163.198 187.59H195.781C199.204 187.59 201.979 190.368 201.979 193.795C201.979 197.222 199.204 200 195.781 200H163.198C159.775 200 157 197.222 157 193.795C157 190.368 159.775 187.59 163.198 187.59Z" fill="#F9A824"/>
<path d="M159.828 189.121L170.611 181.059L173.366 184.752L162.583 192.814L159.828 189.121Z" fill="#F9A824"/>
<path d="M196.49 190.781H219.865C221.527 190.781 222.875 192.131 222.875 193.795C222.875 195.46 221.527 196.809 219.865 196.809H196.49C194.827 196.809 193.479 195.46 193.479 193.795C193.479 192.131 194.827 190.781 196.49 190.781Z" fill="#FDD835"/>
<path d="M285.917 185.108H199.146C198.168 185.108 197.375 185.902 197.375 186.881V200H285.917V185.108Z" fill="#FDD835"/>
<path d="M312.479 182.271H349.313V200H312.479V182.271Z" fill="#FDEF59"/>
<path d="M195.073 196.809H235.448C236.328 196.809 237.042 197.523 237.042 198.404C237.042 199.286 236.328 200 235.448 200H195.073C194.193 200 193.479 199.286 193.479 198.404C193.479 197.523 194.193 196.809 195.073 196.809Z" fill="#F9A824"/>
<path d="M167.979 185.108H198.792V189.008H167.979V185.108Z" fill="#F9A824"/>
<path d="M194.337 191.265L197.551 186.021C197.991 185.302 198.931 185.076 199.65 185.517C200.368 185.959 200.594 186.9 200.153 187.619L196.939 192.864C196.499 193.583 195.559 193.808 194.84 193.367C194.121 192.926 193.896 191.985 194.337 191.265Z" fill="#FDD835"/>
<path d="M282.552 185.108H347.719C348.599 185.108 349.313 185.822 349.313 186.704C349.313 187.585 348.599 188.299 347.719 188.299H282.552C281.672 188.299 280.958 187.585 280.958 186.704C280.958 185.822 281.672 185.108 282.552 185.108Z" fill="#FDEF59"/>
<path d="M325.583 193.618C325.583 190.68 323.205 188.299 320.271 188.299H271.042V200H325.583V193.618Z" fill="#FDD835"/>
<path d="M339.644 169.689C339.893 166.651 342.555 164.391 345.589 164.641C348.624 164.89 350.881 167.555 350.632 170.593L349.268 187.201C349.018 190.238 346.356 192.498 343.322 192.249C340.288 191.999 338.03 189.334 338.28 186.296L339.644 169.689Z" fill="#FDEF59"/>
<path d="M339.573 188.299H355.156C358.384 188.299 361 190.919 361 194.15C361 197.381 358.384 200 355.156 200H339.573C336.345 200 333.729 197.381 333.729 194.15C333.729 190.919 336.345 188.299 339.573 188.299Z" fill="#FDEF59"/>
<path d="M344.36 188.163L349.277 182.112L358.738 189.819L353.82 195.869L344.36 188.163Z" fill="#FDEF59"/>
<path d="M183.917 182.271H347.896C348.678 182.271 349.313 182.906 349.313 183.69C349.313 184.473 348.678 185.108 347.896 185.108H183.917C183.134 185.108 182.5 184.473 182.5 183.69C182.5 182.906 183.134 182.271 183.917 182.271Z" fill="#F9A824"/>
<path d="M167.935 170.801C167.686 167.763 169.943 165.098 172.978 164.849C176.012 164.599 178.674 166.859 178.923 169.897L180.287 186.504C180.536 189.542 178.278 192.207 175.244 192.457C172.21 192.706 169.548 190.446 169.298 187.408L167.935 170.801Z" fill="#F9A824"/>
<path d="M174.708 165.075C174.708 154.016 176.889 143.066 181.125 132.849C185.361 122.632 191.569 113.349 199.397 105.529L259 165.075H174.708Z" fill="#F9A824"/>
<path d="M199.397 105.529C206.519 98.4133 214.861 92.6307 224.025 88.4554L259 165.075L199.397 105.529Z" fill="#FDD835"/>
<path d="M223.937 93.9834C205.942 93.9834 191.354 108.588 191.354 126.604V164.543H223.937V93.9834Z" fill="#FDD835"/>
<path d="M174.708 164.543H228.542V185.108H174.708V164.543Z" fill="#F9A824"/>
<path d="M223.937 167.734H191.354V173.407C191.354 178.303 195.318 182.272 200.208 182.272H223.937V167.734Z" fill="#FDD835"/>
<path d="M318.603 105.529C326.43 113.349 332.639 122.632 336.875 132.849C341.111 143.066 343.292 154.016 343.292 165.075H259L318.603 105.529Z" fill="#FDEF59"/>
<path d="M293.472 88.2284C302.272 92.1684 310.33 97.5877 317.295 104.25L259 165.075L293.472 88.2284Z" fill="#FDD835"/>
<path d="M247.312 72C234.403 72 223.938 82.4773 223.938 95.4017V182.271H247.312V72Z" fill="#F9A824"/>
<path d="M294.417 95.4017C294.417 82.4773 283.951 72 271.042 72V182.271H294.417V95.4017Z" fill="#F9A824"/>
<path d="M247.312 80.8643H271.042V182.272H247.312V80.8643Z" fill="#FDD835"/>
<path d="M325.583 120.576C325.583 109.218 316.387 100.011 305.042 100.011H294.417V164.543H325.583V120.576Z" fill="#FDD835"/>
<path d="M305.042 165.252H344.354V182.271H305.042V165.252Z" fill="#FDEF59"/>
<path d="M325.583 173.762C325.583 171.999 324.156 170.571 322.396 170.571H294.417V182.271H325.583V173.762Z" fill="#FDD835"/>
<path d="M294.417 165.252H305.042V181.208H294.417V165.252Z" fill="#FDD835"/>
<path d="M344.354 165.591C344.354 164.816 343.727 164.188 342.953 164.188H294.417V167.734H342.214C343.396 167.734 344.354 166.775 344.354 165.591Z" fill="#F9A824"/>
<path d="M259 176.598C234.745 176.598 215.083 156.914 215.083 132.632C215.083 108.349 234.745 88.6648 259 88.6648C283.254 88.6648 302.917 108.349 302.917 132.632C302.917 156.914 283.254 176.598 259 176.598Z" fill="#FDEF59"/>
<path d="M259 156.388C246.09 156.388 235.625 145.91 235.625 132.986C235.625 120.062 246.09 109.584 259 109.584C271.91 109.584 282.375 120.062 282.375 132.986C282.375 145.91 271.91 156.388 259 156.388Z" fill="#E2F4FF"/>
<path d="M264.135 151.424C250.15 151.424 238.812 140.073 238.812 126.072C238.812 112.071 250.15 100.72 264.135 100.72C278.121 100.72 289.458 112.071 289.458 126.072C289.458 140.073 278.121 151.424 264.135 151.424Z" fill="white"/>
<path d="M221.104 133.518C221.104 154.765 238.309 171.989 259.531 171.989C280.754 171.989 297.958 154.765 297.958 133.518C297.958 112.271 280.754 95.0471 259.531 95.0471C238.309 95.0471 221.104 112.271 221.104 133.518ZM287.51 133.518C287.51 148.988 274.984 161.529 259.531 161.529C244.079 161.529 231.552 148.988 231.552 133.518C231.552 118.048 244.079 105.507 259.531 105.507C274.984 105.507 287.51 118.048 287.51 133.518Z" fill="#F9A824"/>
<path d="M229.604 132.986C229.604 149.044 242.607 162.061 258.646 162.061C274.685 162.061 287.688 149.044 287.688 132.986C287.688 116.929 274.685 103.911 258.646 103.911C242.607 103.911 229.604 116.929 229.604 132.986ZM281.667 132.986C281.667 145.715 271.36 156.033 258.646 156.033C245.932 156.033 235.625 145.715 235.625 132.986C235.625 120.257 245.932 109.939 258.646 109.939C271.36 109.939 281.667 120.257 281.667 132.986Z" fill="#F17F16"/>
<path d="M242.529 72.5194C236.102 74.1887 229.899 76.6286 224.055 79.7863L224.828 81.2192C230.556 78.1239 236.637 75.7321 242.938 74.0956L242.529 72.5194Z" fill="#F9A824"/>
<path d="M223.938 79.8006H231.729V93.9834H223.938V79.8006Z" fill="#F9A824"/>
<path d="M286.625 79.8006H294.417V93.9834H286.625V79.8006Z" fill="#F9A824"/>
<path d="M234.562 76.6094H231.729C228.991 76.6094 226.771 78.8319 226.771 81.5734V90.7922H234.562V76.6094Z" fill="#F9A824"/>
<path d="M291.583 81.2189C291.583 79.0648 289.839 77.3186 287.687 77.3186C285.536 77.3186 283.792 79.0648 283.792 81.2189V91.5014H291.583V81.2189Z" fill="#F9A824"/>
<path d="M294.505 79.194C289.334 76.7396 283.963 74.733 278.451 73.1961L277.957 74.9719C283.368 76.4805 288.64 78.4502 293.716 80.8595L294.505 79.194Z" fill="#F9A824"/>
<path d="M305.396 167.734H328.771C329.553 167.734 330.187 168.369 330.187 169.152C330.187 169.936 329.553 170.571 328.771 170.571H305.396C304.613 170.571 303.979 169.936 303.979 169.152C303.979 168.369 304.613 167.734 305.396 167.734Z" fill="#FDEF59"/>
</svg>
