<svg width="44" height="44" viewBox="0 0 44 44" fill="none" xmlns="http://www.w3.org/2000/svg">
<path d="M28.0885 28.6291C26.8014 29.8109 25.1979 30.5925 23.4738 30.8786C21.7497 31.1646 19.9795 30.9427 18.3794 30.24C16.7794 29.5372 15.4186 28.384 14.4634 26.9211C13.5081 25.4582 12.9996 23.749 13 22.0021H14.5C14.4999 23.512 14.956 24.9868 15.8085 26.2334C16.6611 27.4799 17.8703 28.44 19.278 28.988C20.6856 29.5361 22.226 29.6464 23.6975 29.3047C25.1689 28.9629 26.5028 28.185 27.5245 27.0728H25.345C25.1461 27.0728 24.9553 26.9938 24.8147 26.8532C24.674 26.7126 24.595 26.5219 24.595 26.3231C24.595 26.1243 24.674 25.9336 24.8147 25.793C24.9553 25.6524 25.1461 25.5734 25.345 25.5734H28.8385C29.0374 25.5734 29.2282 25.6524 29.3688 25.793C29.5095 25.9336 29.5885 26.1243 29.5885 26.3231V29.812C29.5885 30.0108 29.5095 30.2015 29.3688 30.3421C29.2282 30.4827 29.0374 30.5617 28.8385 30.5617C28.6396 30.5617 28.4488 30.4827 28.3082 30.3421C28.1675 30.2015 28.0885 30.0108 28.0885 29.812V28.6276V28.6291ZM16.4755 16.9329H18.655C18.8539 16.9329 19.0447 17.0119 19.1853 17.1524C19.326 17.293 19.405 17.4837 19.405 17.6825C19.405 17.8814 19.326 18.072 19.1853 18.2126C19.0447 18.3532 18.8539 18.4322 18.655 18.4322H15.16C14.9611 18.4322 14.7703 18.3532 14.6297 18.2126C14.489 18.072 14.41 17.8814 14.41 17.6825V14.1906C14.41 13.9918 14.489 13.8011 14.6297 13.6605C14.7703 13.5199 14.9611 13.441 15.16 13.441C15.3589 13.441 15.5497 13.5199 15.6903 13.6605C15.831 13.8011 15.91 13.9918 15.91 14.1906V15.3751C17.1969 14.1918 18.8008 13.4089 20.5257 13.122C22.2506 12.8351 24.0217 13.0567 25.6227 13.7596C27.2236 14.4626 28.585 15.6164 29.5405 17.0802C30.496 18.544 31.0042 20.2543 31.003 22.0021H29.503C29.5031 20.4919 29.047 19.0169 28.1942 17.7703C27.3415 16.5236 26.132 15.5635 24.7241 15.0156C23.3162 14.4677 21.7755 14.3576 20.304 14.6997C18.8324 15.0418 17.497 15.8202 16.4755 16.9329Z" fill="#FA6F15"/>
</svg>
