<svg width="45" height="44" viewBox="0 0 45 44" fill="none" xmlns="http://www.w3.org/2000/svg">
<path d="M14.7188 19.3255C14.6615 19.3255 14.6042 19.3333 14.5469 19.3489C14.401 19.3906 14.2812 19.4712 14.1875 19.5909C14.099 19.7106 14.0547 19.8459 14.0547 19.9969C14.0547 20.0593 14.0625 20.1166 14.0781 20.1686C14.3854 21.2979 14.9297 22.3024 15.7109 23.1819C16.4974 24.0666 17.4401 24.7562 18.5391 25.2506C19.6432 25.745 20.8151 25.9922 22.0547 25.9922C23.2943 25.9922 24.4635 25.745 25.5625 25.2506C26.6667 24.7614 27.6094 24.0744 28.3906 23.1897C29.1771 22.3102 29.724 21.3083 30.0312 20.1842C30.0469 20.1218 30.0547 20.0619 30.0547 20.0047C30.0547 19.8225 29.9922 19.6664 29.8672 19.5363C29.7422 19.4062 29.5833 19.3411 29.3906 19.3411C29.2396 19.3411 29.1042 19.3854 28.9844 19.4738C28.8646 19.5623 28.7839 19.6794 28.7422 19.8251C28.487 20.7619 28.0312 21.5972 27.375 22.331C26.724 23.0648 25.9349 23.6347 25.0078 24.0406C24.0807 24.4517 23.0964 24.6573 22.0547 24.6573C21.013 24.6573 20.0286 24.4517 19.1016 24.0406C18.1745 23.6295 17.3828 23.057 16.7266 22.3232C16.0755 21.5894 15.6224 20.7541 15.3672 19.8173C15.3255 19.6716 15.2448 19.5519 15.125 19.4582C15.0052 19.3698 14.8698 19.3255 14.7188 19.3255Z" fill="#8C8C8C"/>
</svg>
