<svg width="44" height="44" viewBox="0 0 44 44" fill="none" xmlns="http://www.w3.org/2000/svg">
<g clip-path="url(#clip0_2791_65778)">
<path d="M21.9996 0C34.1492 0 43.9991 9.8499 43.9991 21.9996C43.9991 34.1492 34.1484 43.9991 21.9996 43.9991C9.85076 43.9991 0 34.1518 0 21.9996C0 9.8473 9.84903 0 21.9996 0Z" fill="#6BAB94"/>
<path d="M24.7158 19.0683V15.7953H32.1993V10.8086H11.8211V15.7953H19.3055V19.0657C13.2229 19.3448 8.64844 20.5496 8.64844 21.9929C8.64844 23.4362 13.2247 24.641 19.3055 24.9219V35.4044H24.7175V24.921C30.7897 24.641 35.3539 23.4371 35.3539 21.9946C35.3539 20.5522 30.7897 19.3491 24.7175 19.0683M24.7175 24.0325V24.0299C24.5645 24.0394 23.7806 24.087 22.0331 24.087C20.6365 24.087 19.6538 24.0472 19.3081 24.0291V24.0334C13.9342 23.7957 9.92235 22.8597 9.92235 21.7397C9.92235 20.6196 13.9342 19.6853 19.3081 19.4468V23.1009C19.6599 23.1251 20.6667 23.1847 22.0565 23.1847C23.7253 23.1847 24.5645 23.1156 24.7184 23.1009V19.4468C30.0819 19.6853 34.0843 20.6222 34.0843 21.7379C34.0843 22.8537 30.0802 23.7905 24.7184 24.0299" fill="white"/>
</g>
<defs>
<clipPath id="clip0_2791_65778">
<rect width="44" height="44" fill="white"/>
</clipPath>
</defs>
</svg>
