<svg width="225" height="286" viewBox="0 0 225 286" fill="none" xmlns="http://www.w3.org/2000/svg">
<path d="M56.25 190.667H168.75V202.583H56.25V190.667ZM56.25 178.75H168.75V166.833H56.25V178.75ZM225 23.8333V286H0V23.8333H33.75C47.5762 23.8333 58.275 10.9157 67.5 0H157.5C166.725 10.9157 177.424 23.8333 191.25 23.8333H225ZM101.25 35.75C101.25 42.328 106.29 47.6667 112.5 47.6667C118.71 47.6667 123.75 42.328 123.75 35.75C123.75 29.172 118.71 23.8333 112.5 23.8333C106.29 23.8333 101.25 29.172 101.25 35.75ZM202.5 47.6667H157.5L135 71.5H91.1475L67.5 47.6667H22.5V262.167H202.5V47.6667ZM56.25 154.917H168.75V143H56.25V154.917ZM56.25 131.083H168.75V119.167H56.25V131.083Z" fill="#91CBF7"/>
</svg>
