<svg width="261" height="311" viewBox="0 0 261 311" fill="none" xmlns="http://www.w3.org/2000/svg">
<path d="M65.7083 207.333H195.292V220.292H65.7083V207.333ZM65.7083 194.375H195.292V181.417H65.7083V194.375ZM260.083 25.9167V311H0.916626V25.9167H39.7916C55.7174 25.9167 68.0408 11.8698 78.6666 0H182.333C192.959 11.8698 205.283 25.9167 221.208 25.9167H260.083ZM117.542 38.875C117.542 46.028 123.347 51.8333 130.5 51.8333C137.653 51.8333 143.458 46.028 143.458 38.875C143.458 31.722 137.653 25.9167 130.5 25.9167C123.347 25.9167 117.542 31.722 117.542 38.875ZM234.167 51.8333H182.333L156.417 77.75H105.905L78.6666 51.8333H26.8333V285.083H234.167V51.8333ZM65.7083 168.458H195.292V155.5H65.7083V168.458ZM65.7083 142.542H195.292V129.583H65.7083V142.542Z" fill="white"/>
</svg>
