<svg width="32" height="32" viewBox="0 0 32 32" fill="none" xmlns="http://www.w3.org/2000/svg">
<rect width="32" height="32" fill="#080A0F"/>
<path d="M19.1765 12.0599L16.0004 15.2363L12.8053 12.0409L12.8054 12.0408L12.8013 12.0371C12.6986 11.9431 12.5636 11.8923 12.4244 11.8954C12.2852 11.8985 12.1525 11.9552 12.0541 12.0537C11.9556 12.1521 11.8989 12.2848 11.8959 12.424C11.8928 12.5632 11.9435 12.6983 12.0375 12.801L12.0374 12.8011L12.0413 12.805L15.2348 16.0004L12.0415 19.194C11.9899 19.2435 11.9486 19.3028 11.92 19.3683C11.8912 19.4344 11.8759 19.5056 11.875 19.5776C11.8741 19.6497 11.8877 19.7212 11.9148 19.7879C11.9419 19.8547 11.9822 19.9154 12.0331 19.9664C12.084 20.0174 12.1446 20.0577 12.2113 20.0849C12.278 20.1121 12.3495 20.1258 12.4216 20.125C12.4936 20.1242 12.5648 20.109 12.6309 20.0803C12.6965 20.0518 12.7559 20.0106 12.8054 19.959L16.0004 16.7653L19.1955 19.9607L19.1954 19.9608L19.1995 19.9646C19.3022 20.0586 19.4372 20.1093 19.5765 20.1062C19.7157 20.1032 19.8483 20.0465 19.9468 19.948C20.0452 19.8495 20.1019 19.7169 20.105 19.5777C20.1081 19.4385 20.0573 19.3034 19.9633 19.2007L19.9634 19.2006L19.9595 19.1967L16.7644 16.0012L19.9585 12.806C20.0101 12.7565 20.0514 12.6972 20.08 12.6317C20.1088 12.5656 20.1241 12.4944 20.125 12.4224C20.1259 12.3503 20.1123 12.2788 20.0852 12.2121C20.0581 12.1453 20.0178 12.0846 19.9669 12.0336C19.916 11.9826 19.8554 11.9423 19.7887 11.9151L19.7414 12.0308L19.7887 11.9151C19.722 11.8879 19.6505 11.8742 19.5784 11.875C19.5064 11.8758 19.4352 11.891 19.3691 11.9197C19.303 11.9484 19.2433 11.99 19.1935 12.0421L19.1765 12.0599Z" fill="#EAEAEA" stroke="#EAEAEA" stroke-width="0.25"/>
</svg>
