<svg width="32" height="32" viewBox="0 0 32 32" fill="none" xmlns="http://www.w3.org/2000/svg">
<rect x="6" y="6" width="20" height="20" rx="3" fill="#FA6F15"/>
<path d="M20.1673 12.207C20.2316 12.1415 20.3083 12.0894 20.3929 12.0539C20.4776 12.0183 20.5685 12 20.6603 12C20.7521 12 20.843 12.0183 20.9276 12.0539C21.0123 12.0894 21.089 12.1415 21.1532 12.207C21.4225 12.479 21.4263 12.9186 21.1626 13.1953L15.5947 19.7746C15.5315 19.844 15.4548 19.8998 15.3693 19.9385C15.2838 19.9772 15.1912 19.9981 15.0974 19.9999C15.0035 20.0016 14.9102 19.9842 14.8233 19.9487C14.7364 19.9132 14.6577 19.8604 14.5919 19.7934L11.2039 16.3617C11.0732 16.2285 11 16.0493 11 15.8628C11 15.6762 11.0732 15.4971 11.2039 15.3639C11.2681 15.2984 11.3448 15.2463 11.4295 15.2108C11.5141 15.1752 11.605 15.1569 11.6968 15.1569C11.7886 15.1569 11.8795 15.1752 11.9641 15.2108C12.0488 15.2463 12.1255 15.2984 12.1898 15.3639L15.0636 18.2752L20.1485 12.2277C20.1543 12.2204 20.1606 12.2135 20.1673 12.207Z" fill="#0F141F"/>
</svg>
