<svg width="44" height="44" viewBox="0 0 44 44" fill="none" xmlns="http://www.w3.org/2000/svg">
<rect width="44" height="44" fill="#0F141F"/>
<path d="M16.562 19.7656L21.9996 14.3287L27.4404 19.7687L30.6048 16.6043L21.9996 8L13.3984 16.602L16.562 19.7656Z" fill="#EAEAEA"/>
<path d="M11.1638 18.8362L8 22L11.1638 25.1638L14.3277 22L11.1638 18.8362Z" fill="#EAEAEA"/>
<path d="M16.5628 24.2336L22.0004 29.6704L27.4412 24.2305L30.6071 27.3925L30.6056 27.3948L22.0004 35.9992L13.3992 27.3972L13.3945 27.3933L16.5628 24.2336Z" fill="#EAEAEA"/>
<path d="M32.8357 18.8362L29.6719 22L32.8357 25.1638L35.9996 22L32.8357 18.8362Z" fill="#EAEAEA"/>
<path d="M25.2092 21.9978H25.21L21.9993 18.7871L19.6272 21.16H19.6264L19.3542 21.433L18.7918 21.9954L18.7871 21.9993L18.7918 22.004L21.9993 25.2115L25.21 22.0009L25.2115 21.9993L25.2092 21.9978Z" fill="#EAEAEA"/>
</svg>
