<svg width="44" height="44" viewBox="0 0 44 44" fill="none" xmlns="http://www.w3.org/2000/svg">
<rect width="44" height="44" fill="#0F141F"/>
<g clip-path="url(#clip0_2623_79011)">
<path fill-rule="evenodd" clip-rule="evenodd" d="M18.612 35.5796C26.1134 37.4506 33.7109 32.8864 35.5811 25.386V25.3871C37.4512 17.8866 32.8864 10.2889 25.385 8.419C17.8859 6.54909 10.2884 11.1133 8.41945 18.6149C6.54815 26.1142 11.1141 33.7108 18.612 35.5796ZM25.0947 16.473C27.0343 17.1411 28.4529 18.1426 28.1738 20.0056H28.1726C27.9711 21.3695 27.215 22.0295 26.211 22.261C27.589 22.9778 28.2907 24.0789 27.6226 25.9858C26.7935 28.3547 24.8237 28.5551 22.2044 28.0595L21.5687 30.6067L20.032 30.2235L20.6596 27.7098C20.2613 27.6114 19.8548 27.5061 19.4357 27.3926L18.8057 29.9178L17.2714 29.5346L17.9071 26.9827C17.7575 26.9446 17.6068 26.9052 17.455 26.8656C17.2428 26.8102 17.0284 26.7542 16.8117 26.7002L14.813 26.2023L15.5761 24.4436C15.5761 24.4436 16.7074 24.7446 16.6924 24.7226C17.1278 24.8303 17.32 24.5466 17.3964 24.3579L18.4016 20.3309C18.4398 20.3403 18.4769 20.3496 18.5126 20.3586C18.53 20.363 18.547 20.3673 18.5637 20.3715C18.5023 20.3471 18.4467 20.3309 18.4039 20.3205L19.1207 17.4456C19.1392 17.1191 19.0269 16.7069 18.405 16.5518C18.4282 16.5355 17.2888 16.2739 17.2888 16.2739L17.6975 14.6332L19.8166 15.1623L19.8143 15.1704C20.1328 15.2492 20.4605 15.3244 20.7951 15.4009L21.4251 12.8779L22.9605 13.2612L22.3433 15.7343C22.7556 15.8281 23.1701 15.923 23.5743 16.0238L24.1869 13.5668L25.7235 13.9501L25.0947 16.473ZM20.2355 25.6224C21.4888 25.9531 24.2284 26.6759 24.6639 24.9264V24.9275C25.11 23.1374 22.4498 22.541 21.1543 22.2505C21.0102 22.2183 20.8831 22.1897 20.7789 22.1638L19.9359 25.5447C20.0219 25.566 20.1227 25.5926 20.2355 25.6224ZM21.4196 20.6824C22.4662 20.9611 24.7421 21.5673 25.1387 19.9778H25.1376C25.5433 18.3518 23.3298 17.8615 22.2471 17.6216C22.1247 17.5945 22.0168 17.5706 21.9288 17.5486L21.1645 20.6158C21.2375 20.6339 21.3234 20.6567 21.4196 20.6824Z" fill="#EAEAEA"/>
</g>
<defs>
<clipPath id="clip0_2623_79011">
<rect width="28.0001" height="27.999" fill="white" transform="translate(8 8)"/>
</clipPath>
</defs>
</svg>
