<svg width="44" height="44" viewBox="0 0 44 44" fill="none" xmlns="http://www.w3.org/2000/svg">
<rect width="44" height="44" fill="#0F141F"/>
<path fill-rule="evenodd" clip-rule="evenodd" d="M35.9995 21.9997C35.9995 14.2681 29.7313 8 21.9997 8C14.2676 8 8 14.2665 8 21.9997C8 29.733 14.2687 35.9995 21.9997 35.9995C29.7308 35.9995 35.9995 29.7313 35.9995 21.9997ZM23.7276 18.0523V20.1351H23.7287C27.5928 20.3138 30.4973 21.0794 30.4973 21.9973C30.4973 22.9152 27.5928 23.6813 23.7287 23.8595V30.5308H20.2847V23.8601C16.4151 23.6813 13.5029 22.9147 13.5029 21.9962C13.5029 21.0777 16.414 20.3111 20.2847 20.1334V18.0523H15.5219V14.8789H28.4899V18.0523H23.7276ZM23.7287 23.2925V23.2941L23.7292 23.2925C27.1413 23.1401 29.6894 22.544 29.6894 21.8339C29.6894 21.1239 27.1424 20.5277 23.7292 20.376V22.7013C23.6313 22.7106 23.0973 22.7546 22.0353 22.7546C21.1509 22.7546 20.5102 22.7167 20.2864 22.7013V20.376C16.8666 20.5277 14.3136 21.1223 14.3136 21.835C14.3136 22.5478 16.8666 23.1434 20.2864 23.2947V23.2919C20.5064 23.3035 21.1317 23.3288 22.0205 23.3288C23.1325 23.3288 23.6313 23.2985 23.7287 23.2925Z" fill="#EAEAEA"/>
</svg>
