<svg width="45" height="44" viewBox="0 0 45 44" fill="none" xmlns="http://www.w3.org/2000/svg">
<rect width="44" height="44" transform="translate(0.574219)" fill="#080A0F"/>
<path d="M36.5742 25.8194V28.0082C36.5388 28.3785 36.516 28.7501 36.4604 29.118C36.4414 29.2402 36.368 29.3908 36.2694 29.4612C34.3455 30.8377 32.2522 31.8944 29.9906 32.6364C29.3543 32.845 29.3404 32.8512 28.9749 32.2957C28.5828 31.7006 28.2172 31.0883 27.8213 30.4538C28.2653 30.2636 28.6599 30.1081 29.0419 29.9279C29.4277 29.7464 29.8021 29.5402 30.1929 29.3402C29.7819 28.8662 29.7085 28.8501 29.2215 29.0526C24.7806 30.8932 20.3396 30.8686 15.8999 29.0452C15.4445 28.8575 15.2915 28.897 14.9386 29.3624C15.7178 29.7303 16.4868 30.0933 17.3203 30.4871C16.8233 31.2488 16.3439 31.9907 15.848 32.7228C15.8126 32.7746 15.6532 32.787 15.5698 32.7611C13.1412 32.0216 10.9037 30.9105 8.85077 29.4452C8.77361 29.3908 8.69772 29.2834 8.68886 29.1958C8.4713 26.9959 8.55985 24.8083 8.98484 22.6356C9.60589 19.4641 10.9112 16.5729 12.7339 13.8927C12.8035 13.7903 12.9211 13.6977 13.0362 13.6458C14.7577 12.8767 16.5576 12.3484 18.417 12.0101C18.565 11.9829 18.6548 12.0064 18.7231 12.1471C18.8951 12.5002 19.0988 12.8397 19.2518 13.1989C19.3454 13.4187 19.4643 13.4446 19.6857 13.4211C20.4547 13.3409 21.2275 13.2298 21.9978 13.2384C23.1704 13.252 24.3416 13.352 25.5129 13.4273C25.6976 13.4397 25.8026 13.4174 25.8835 13.2298C26.0416 12.8619 26.2415 12.5113 26.4173 12.1496C26.4831 12.0138 26.5704 11.9817 26.7209 12.0089C28.5726 12.3422 30.3624 12.8718 32.0776 13.6335C32.2091 13.6915 32.3458 13.7952 32.4204 13.9125C32.9124 14.6915 33.4209 15.463 33.8623 16.2692C35.2347 18.7802 36.1024 21.4517 36.4186 24.2861C36.4756 24.796 36.5224 25.3083 36.5742 25.8194ZM29.7907 23.4257C29.7199 23.0886 29.6832 22.7405 29.5706 22.4171C28.9711 20.6912 26.9245 20.132 25.6204 21.327C24.4264 22.422 24.4213 24.4404 25.6103 25.5404C26.5754 26.4329 27.987 26.4132 28.9192 25.4885C29.4922 24.9207 29.7376 24.2219 29.7907 23.4257ZM20.4888 23.4232C20.418 23.0862 20.3813 22.7368 20.2688 22.4134C19.6793 20.7221 17.691 20.1456 16.378 21.2739C15.1195 22.3566 15.0954 24.4478 16.3287 25.5589C17.3014 26.4342 18.6851 26.4058 19.6161 25.4848C20.1891 24.917 20.4332 24.2182 20.4901 23.4232H20.4888Z" fill="#EAEAEA"/>
</svg>
