<svg width="45" height="44" viewBox="0 0 45 44" fill="none" xmlns="http://www.w3.org/2000/svg">
<rect width="44" height="44" transform="translate(0.574219)" fill="#080A0F"/>
<path d="M11.4927 18.8938C12.1734 19.2377 12.8626 19.4608 13.6848 19.4803C12.4479 18.5805 11.7391 17.427 11.555 15.9834C11.4171 14.9055 11.633 13.8813 12.1905 12.9132C14.8595 16.0553 18.231 17.7879 22.3199 18.0635C22.3028 17.566 22.2601 17.0978 22.2735 16.6308C22.3321 14.619 23.8874 12.6839 25.8415 12.1853C27.6725 11.7183 29.279 12.1353 30.6635 13.4241C30.7318 13.4887 30.8721 13.5253 30.9648 13.507C31.9223 13.3119 32.8287 12.9717 33.6813 12.495C33.7423 12.4608 33.8045 12.4328 33.9119 12.3779C33.5374 13.5301 32.836 14.3751 31.8845 15.0396C32.8067 14.9518 33.6752 14.6897 34.5218 14.3422L34.5742 14.4007C34.1778 14.8653 33.7996 15.3493 33.3764 15.7883C33.0409 16.137 32.6445 16.4248 32.2871 16.7527C32.2078 16.8259 32.137 16.9552 32.137 17.0588C32.1309 22.1445 30.128 26.2304 25.9879 29.2079C24.2411 30.4638 22.2455 31.1441 20.1132 31.4234C18.0969 31.688 16.111 31.5599 14.1556 30.9978C12.9224 30.643 11.7623 30.1199 10.6742 29.4383C10.6498 29.4225 10.6303 29.4005 10.5742 29.3542C13.2468 29.5932 15.6304 28.9458 17.8065 27.3107C16.333 27.2241 15.1461 26.6681 14.2044 25.6122C13.7628 25.1159 13.4347 24.5526 13.2164 23.882C13.9446 23.9698 14.6423 23.9869 15.3645 23.7869C12.6674 23.109 11.422 20.7545 11.494 18.8914L11.4927 18.8938Z" fill="#EAEAEA"/>
</svg>
