<svg width="44" height="44" viewBox="0 0 44 44" fill="none" xmlns="http://www.w3.org/2000/svg">
<g clip-path="url(#clip0_2791_65777)">
<path d="M13.4538 18.4888L21.9986 9.94515L30.5484 18.4937L35.5209 13.5211L21.9986 0L8.48242 13.5174L13.4538 18.4888Z" fill="#E9BB4E"/>
<path d="M4.97176 17.0282L0 22L4.97176 26.9718L9.94351 22L4.97176 17.0282Z" fill="#E9BB4E"/>
<path d="M13.4553 25.5108L22.0001 34.0544L30.5499 25.5059L35.5249 30.4747L35.5225 30.4784L22.0001 43.9995L8.48396 30.4821L8.47656 30.476L13.4553 25.5108Z" fill="#E9BB4E"/>
<path d="M39.0284 17.0302L34.0566 22.002L39.0284 26.9737L44.0002 22.002L39.0284 17.0302Z" fill="#E9BB4E"/>
<path d="M27.043 21.9965H27.0442L21.9989 16.9512L18.2714 20.68H18.2701L17.8424 21.109L16.9586 21.9928L16.9512 21.9989L16.9586 22.0063L21.9989 27.0467L27.0442 22.0014L27.0467 21.9989L27.043 21.9965Z" fill="#E9BB4E"/>
</g>
<defs>
<clipPath id="clip0_2791_65777">
<rect width="44" height="44" fill="white"/>
</clipPath>
</defs>
</svg>
