<svg width="44" height="44" viewBox="0 0 44 44" fill="none" xmlns="http://www.w3.org/2000/svg">
<g clip-path="url(#clip0_2791_65776)">
<path d="M43.3417 27.3208C40.4029 39.1073 28.4639 46.2796 16.676 43.3393C4.89354 40.4027 -2.28148 28.4652 0.659132 16.6806C3.5961 4.89231 15.5351 -2.28 27.3193 0.65843C39.1073 3.59686 46.2805 15.5362 43.3417 27.3226V27.3208Z" fill="#E8973D"/>
<path d="M31.7006 18.8666C32.1392 15.9391 29.91 14.3653 26.8621 13.3154L27.8502 9.35084L25.4354 8.74859L24.4728 12.6095C23.8377 12.4512 23.1863 12.302 22.5385 12.1546L23.5084 8.26826L21.0955 7.66602L20.1056 11.6306C19.5797 11.5105 19.0647 11.3923 18.5643 11.2685L18.5679 11.2558L15.2379 10.4243L14.5956 13.0025C14.5956 13.0025 16.3861 13.4137 16.3497 13.4392C17.3269 13.683 17.5034 14.3307 17.4743 14.8438L16.3479 19.3615C16.4153 19.3779 16.5026 19.4034 16.599 19.4416C16.519 19.4215 16.4334 19.3997 16.3443 19.3779L14.7648 25.706C14.6447 26.0025 14.3426 26.4483 13.6584 26.2791C13.6821 26.3137 11.9043 25.8406 11.9043 25.8406L10.7051 28.6044L13.8459 29.3867C14.43 29.5323 15.0032 29.6869 15.5673 29.8307L14.5683 33.8408L16.9794 34.443L17.9693 30.4748C18.628 30.6531 19.2667 30.8186 19.8927 30.9733L18.9064 34.9233L21.3211 35.5256L22.3201 31.5228C26.4363 32.3015 29.5315 31.9867 30.8344 28.2641C31.8844 25.2675 30.7817 23.5372 28.6162 22.4109C30.1939 22.047 31.3822 21.0099 31.6988 18.8666H31.7006ZM26.1851 26.5993C25.4391 29.596 20.3913 27.9766 18.7554 27.5709L20.0801 22.2581C21.716 22.6656 26.964 23.4753 26.1851 26.6011V26.5993ZM26.9312 18.8229C26.2507 21.5503 22.049 20.1639 20.6861 19.8255L21.887 15.0057C23.25 15.346 27.6391 15.9791 26.9294 18.8229H26.9312Z" fill="white"/>
</g>
<defs>
<clipPath id="clip0_2791_65776">
<rect width="44" height="44" fill="white"/>
</clipPath>
</defs>
</svg>
