<?xml version="1.0" encoding="UTF-8"?>
<svg version="1.1" xmlns="http://www.w3.org/2000/svg" width="32" height="32">
<path d="M0 0 C8.43548027 2.51584499 16.06669757 6.21202677 24 10 C24 15.28 24 20.56 24 26 C23.01 25.34 22.02 24.68 21 24 C20.70703125 21.3984375 20.70703125 21.3984375 20.8125 18.375 C20.83957031 17.37210938 20.86664062 16.36921875 20.89453125 15.3359375 C20.92933594 14.56507812 20.96414062 13.79421875 21 13 C20.16082031 12.73960938 19.32164063 12.47921875 18.45703125 12.2109375 C14.74161934 10.90949378 11.21991343 9.34849089 7.6875 7.625 C7.05521484 7.33367188 6.42292969 7.04234375 5.77148438 6.7421875 C1.21176511 4.51364304 1.21176511 4.51364304 0.08203125 1.7734375 C0.05496094 1.18820313 0.02789063 0.60296875 0 0 Z " fill="#B97C7C" transform="translate(4,3)"/>
<path d="M0 0 C4.85963179 0.60745397 8.7405518 2.72758967 13 5 C13 6.32 13 7.64 13 9 C2.8069846 5.92902741 2.8069846 5.92902741 0 3 C0 2.01 0 1.02 0 0 Z " fill="#B97C7C" transform="translate(10,12)"/>
</svg>
