<?xml version="1.0" encoding="UTF-8"?>
<svg version="1.1" xmlns="http://www.w3.org/2000/svg" width="32" height="32">
<path d="M0 0 C-0.59011199 2.80794957 -1.30782005 4.5339139 -3.7265625 6.16259766 C-5.9551705 7.29489088 -8.20582431 8.31986405 -10.5 9.3125 C-11.28503906 9.67150391 -12.07007813 10.03050781 -12.87890625 10.40039062 C-18.65251488 13 -18.65251488 13 -21 13 C-20.96519531 13.68707031 -20.93039063 14.37414063 -20.89453125 15.08203125 C-20.86746094 15.98308594 -20.84039062 16.88414063 -20.8125 17.8125 C-20.76029297 19.15248047 -20.76029297 19.15248047 -20.70703125 20.51953125 C-21 23 -21 23 -24 26 C-24 20.72 -24 15.44 -24 10 C-20.37703586 8.32878096 -16.75180409 6.66284698 -13.125 5 C-11.57619141 4.28457031 -11.57619141 4.28457031 -9.99609375 3.5546875 C-9.00996094 3.10351562 -8.02382813 2.65234375 -7.0078125 2.1875 C-6.09660645 1.76855469 -5.18540039 1.34960938 -4.24658203 0.91796875 C-2 0 -2 0 0 0 Z " fill="#B97C7C" transform="translate(28,3)"/>
<path d="M0 0 C-0.19140625 1.828125 -0.19140625 1.828125 -1 4 C-3.21484375 5.484375 -3.21484375 5.484375 -5.9375 6.75 C-6.83339844 7.17796875 -7.72929687 7.6059375 -8.65234375 8.046875 C-11 9 -11 9 -13 9 C-13 7.68 -13 6.36 -13 5 C-11.39967863 4.15930585 -9.79458829 3.32768495 -8.1875 2.5 C-6.84751953 1.80390625 -6.84751953 1.80390625 -5.48046875 1.09375 C-3 0 -3 0 0 0 Z " fill="#B87C7C" transform="translate(22,12)"/>
</svg>
