<?xml version="1.0" encoding="UTF-8"?>
<svg version="1.1" xmlns="http://www.w3.org/2000/svg" width="176" height="176">
<path d="M0 0 C1.46751239 0.00399142 2.93502584 0.01874717 4.40234375 0.04296875 C5.14806641 0.04361328 5.89378906 0.04425781 6.66210938 0.04492188 C12.19956216 0.09018716 12.19956216 0.09018716 13.33984375 1.23046875 C13.44023986 3.81147631 13.47601644 6.36574772 13.46923828 8.94726562 C13.4709906 9.75535172 13.47274292 10.56343781 13.47454834 11.39601135 C13.47896751 14.08043535 13.47602864 16.76479403 13.47265625 19.44921875 C13.47332927 21.30627454 13.47429928 23.16333025 13.47555542 25.02038574 C13.47703248 28.91773312 13.47487757 32.81505762 13.47021484 36.71240234 C13.46451755 41.71981375 13.46779651 46.72717156 13.47378731 51.73458099 C13.4773927 55.57086596 13.47625444 59.40713812 13.47365952 63.24342346 C13.47299019 65.09029649 13.47381888 66.93717067 13.47613907 68.78404236 C13.47866524 71.36061707 13.47482552 73.93710376 13.46923828 76.51367188 C13.47126251 77.28461685 13.47328674 78.05556183 13.47537231 78.84986877 C13.4541063 84.1162062 13.4541063 84.1162062 12.33984375 85.23046875 C9.68161718 85.35705097 7.06096951 85.41567089 4.40234375 85.41796875 C3.66048828 85.43021484 2.91863281 85.44246094 2.15429688 85.45507812 C0.21470746 85.46035353 -1.72439335 85.35235777 -3.66015625 85.23046875 C-6.15268461 82.73794039 -5.90306089 81.26497894 -5.93121338 77.86347961 C-5.92716492 77.11640244 -5.92311646 76.36932526 -5.91894531 75.59960938 C-5.92244995 74.81249069 -5.92595459 74.02537201 -5.92956543 73.21440125 C-5.93838868 70.60508479 -5.93253157 67.9960381 -5.92578125 65.38671875 C-5.92712773 63.57832792 -5.92906812 61.76993744 -5.93157959 59.96154785 C-5.93453165 56.16850341 -5.93023058 52.37555305 -5.92089844 48.58251953 C-5.90950385 43.71306113 -5.91606288 38.84382317 -5.92804337 33.97437286 C-5.93525975 30.23926117 -5.93297506 26.504202 -5.92778778 22.76908875 C-5.92645067 20.9732816 -5.92810114 19.17746973 -5.93274689 17.38166809 C-5.93780851 14.87475901 -5.93010718 12.36821027 -5.91894531 9.86132812 C-5.92299377 9.11425095 -5.92704224 8.36717377 -5.93121338 7.59745789 C-5.88724121 2.28456029 -5.77658683 0.36373386 0 0 Z " fill="#8C8C8C" transform="translate(130.66015625,43.76953125)"/>
<path d="M0 0 C2.75541841 -0.27613568 5.25091102 -0.37257625 8 -0.3125 C9.10601562 -0.31733398 9.10601562 -0.31733398 10.234375 -0.32226562 C15.73292051 -0.26707949 15.73292051 -0.26707949 18 2 C18.25396729 4.83982849 18.25396729 4.83982849 18.25878906 8.51342773 C18.2622937 9.18189728 18.26579834 9.85036682 18.26940918 10.53909302 C18.27822852 12.75403152 18.27237615 14.96865186 18.265625 17.18359375 C18.26697176 18.72054608 18.26891238 20.25749799 18.27142334 21.79444885 C18.274375 25.01836191 18.27007626 28.24216425 18.26074219 31.46606445 C18.24935713 35.60006002 18.25590074 39.73379565 18.26788712 43.86778164 C18.27511279 47.04276997 18.27281438 50.21769666 18.26763153 53.39268684 C18.26629649 54.9169321 18.26793766 56.44118294 18.27259064 57.96542168 C18.27766649 60.09615788 18.26993067 62.22647292 18.25878906 64.35717773 C18.25640228 66.17680275 18.25640228 66.17680275 18.25396729 68.03318787 C18 71 18 71 16 74 C13.24458159 74.27613568 10.74908898 74.37257625 8 74.3125 C7.26265625 74.31572266 6.5253125 74.31894531 5.765625 74.32226562 C0.26707949 74.26707949 0.26707949 74.26707949 -2 72 C-2.25396729 69.16017151 -2.25396729 69.16017151 -2.25878906 65.48657227 C-2.2622937 64.81810272 -2.26579834 64.14963318 -2.26940918 63.46090698 C-2.27822852 61.24596848 -2.27237615 59.03134814 -2.265625 56.81640625 C-2.26697176 55.27945392 -2.26891238 53.74250201 -2.27142334 52.20555115 C-2.274375 48.98163809 -2.27007626 45.75783575 -2.26074219 42.53393555 C-2.24935713 38.39993998 -2.25590074 34.26620435 -2.26788712 30.13221836 C-2.27511279 26.95723003 -2.27281438 23.78230334 -2.26763153 20.60731316 C-2.26629649 19.0830679 -2.26793766 17.55881706 -2.27259064 16.03457832 C-2.27766649 13.90384212 -2.26993067 11.77352708 -2.25878906 9.64282227 C-2.25719788 8.42973892 -2.25560669 7.21665558 -2.25396729 5.96681213 C-2 3 -2 3 0 0 Z " fill="#8C8C8C" transform="translate(80,55)"/>
<path d="M0 0 C1.03447266 0.01160156 1.03447266 0.01160156 2.08984375 0.0234375 C2.77949219 0.01570313 3.46914062 0.00796875 4.1796875 0 C9.33651082 0.02010457 9.33651082 0.02010457 11.58984375 2.2734375 C11.83708191 4.81628418 11.83708191 4.81628418 11.83276367 8.06835938 C11.8358403 9.2830188 11.83891693 10.49767822 11.84208679 11.74914551 C11.83490128 13.06684937 11.82771576 14.38455322 11.8203125 15.7421875 C11.81912064 17.10217241 11.81866755 18.46215815 11.81892395 19.82214355 C11.8173588 22.67363634 11.80906699 25.52500363 11.7956543 28.37646484 C11.77866438 32.03519827 11.77483995 35.6937937 11.77559948 39.35256195 C11.7753278 42.1612073 11.76984693 44.96982236 11.76259804 47.77845764 C11.75785929 49.78487784 11.75613477 51.79130441 11.75444031 53.79772949 C11.74806046 55.01238892 11.7416806 56.22704834 11.73510742 57.47851562 C11.72938972 59.08829285 11.72938972 59.08829285 11.72355652 60.73059082 C11.58984375 63.2734375 11.58984375 63.2734375 10.58984375 65.2734375 C7.77728094 65.30028062 4.96497134 65.32019938 2.15234375 65.3359375 C1.34990234 65.34431641 0.54746094 65.35269531 -0.27929688 65.36132812 C-2.32310846 65.3699518 -4.36699527 65.325719 -6.41015625 65.2734375 C-8.1870327 63.49656105 -7.54703597 60.90464496 -7.55541992 58.50024414 C-7.56179977 57.26548843 -7.56817963 56.03073273 -7.57475281 54.75856018 C-7.57628137 53.40023843 -7.57739539 52.04191616 -7.578125 50.68359375 C-7.58133595 49.29975855 -7.5846999 47.9159237 -7.58821106 46.53208923 C-7.59420849 43.62758599 -7.59605034 40.72311252 -7.59545898 37.81860352 C-7.59535734 34.09141604 -7.60900897 30.36441897 -7.62623119 26.63727665 C-7.63733405 23.77802142 -7.63937872 20.91881247 -7.63884926 18.05953789 C-7.64003199 16.68517844 -7.64447013 15.31081789 -7.65218163 13.93647957 C-7.66194623 12.01635298 -7.6578484 10.09617088 -7.65307617 8.17602539 C-7.65450119 7.08205948 -7.65592621 5.98809357 -7.65739441 4.86097717 C-7.17700293 -0.1666934 -4.429673 0.01726968 0 0 Z " fill="#8C8C8C" transform="translate(109.41015625,63.7265625)"/>
<path d="M0 0 C1.36465267 0.00399021 2.7293066 0.01874032 4.09375 0.04296875 C4.78339844 0.04361328 5.47304687 0.04425781 6.18359375 0.04492188 C11.31263951 0.0899135 11.31263951 0.0899135 13.59375 1.23046875 C13.61901787 8.33291874 13.63658201 15.43535723 13.64868164 22.5378418 C13.65372349 24.95614047 13.66055678 27.37443608 13.66918945 29.79272461 C13.68126157 33.26026158 13.68697963 36.72775841 13.69140625 40.1953125 C13.69656754 41.28384018 13.70172882 42.37236786 13.70704651 43.49388123 C13.70715981 44.99532433 13.70715981 44.99532433 13.70727539 46.52709961 C13.709496 47.41312363 13.71171661 48.29914764 13.71400452 49.21202087 C13.59375 51.23046875 13.59375 51.23046875 12.59375 52.23046875 C9.93552343 52.35705097 7.31487576 52.41567089 4.65625 52.41796875 C3.91439453 52.43021484 3.17253906 52.44246094 2.40820312 52.45507812 C0.46861371 52.46035353 -1.4704871 52.35235777 -3.40625 52.23046875 C-5.88190035 49.7548184 -5.65859962 49.03741142 -5.66503906 45.62890625 C-5.67134338 44.6745166 -5.67764771 43.72012695 -5.68414307 42.73681641 C-5.6800946 41.70347168 -5.67604614 40.67012695 -5.671875 39.60546875 C-5.67378845 38.54763184 -5.6757019 37.48979492 -5.67767334 36.39990234 C-5.67903602 34.16047936 -5.67533382 31.92104849 -5.66699219 29.68164062 C-5.65629402 26.24461198 -5.66688488 22.80810605 -5.6796875 19.37109375 C-5.67836592 17.19921759 -5.67580356 15.02734176 -5.671875 12.85546875 C-5.67794769 11.30545166 -5.67794769 11.30545166 -5.68414307 9.72412109 C-5.67783875 8.76973145 -5.67153442 7.8153418 -5.66503906 6.83203125 C-5.66344788 5.98979004 -5.66185669 5.14754883 -5.66021729 4.27978516 C-5.18671839 0.45902118 -3.62680283 0.24539148 0 0 Z " fill="#8B8B8B" transform="translate(60.40625,76.76953125)"/>
<path d="M0 0 C1.24910156 0.00515625 2.49820313 0.0103125 3.78515625 0.015625 C5.03167969 0.01046875 6.27820313 0.0053125 7.5625 0 C10.84765625 0.265625 10.84765625 0.265625 13.84765625 2.265625 C14.22187805 4.2010498 14.22187805 4.2010498 14.2199707 6.59179688 C14.22931389 7.93328796 14.22931389 7.93328796 14.23884583 9.30187988 C14.22963608 10.26960327 14.22042633 11.23732666 14.2109375 12.234375 C14.211436 13.22562378 14.21193451 14.21687256 14.21244812 15.23815918 C14.21010499 17.33636477 14.20036248 19.43457302 14.18383789 21.53271484 C14.16025215 24.75253312 14.16327431 27.97152362 14.16992188 31.19140625 C14.16434519 33.22656746 14.15723536 35.26172517 14.1484375 37.296875 C14.14980461 38.74846008 14.14980461 38.74846008 14.15119934 40.22937012 C14.14166733 41.12369751 14.13213531 42.0180249 14.12231445 42.93945312 C14.11770706 43.72839966 14.11309967 44.51734619 14.10835266 45.3302002 C13.84765625 47.265625 13.84765625 47.265625 11.84765625 49.265625 C9.30536466 49.43763785 6.88615629 49.49820117 4.34765625 49.453125 C3.65800781 49.45248047 2.96835937 49.45183594 2.2578125 49.45117188 C-2.87123326 49.40618025 -2.87123326 49.40618025 -5.15234375 48.265625 C-5.20293765 41.75117295 -5.23803231 35.23677132 -5.26220703 28.72216797 C-5.272282 26.50470079 -5.28594234 24.28724695 -5.30322266 22.06982422 C-5.32740538 18.88766188 -5.33881172 15.70567476 -5.34765625 12.5234375 C-5.35797882 11.52756622 -5.36830139 10.53169495 -5.37893677 9.50564575 C-5.37908783 8.58484222 -5.37923889 7.6640387 -5.37939453 6.71533203 C-5.38383575 5.9025882 -5.38827698 5.08984436 -5.39285278 4.25247192 C-4.95329701 0.62129838 -3.43808145 0.28970203 0 0 Z " fill="#8C8C8C" transform="translate(37.15234375,79.734375)"/>
</svg>
