<?xml version="1.0" encoding="UTF-8"?>
<svg version="1.1" xmlns="http://www.w3.org/2000/svg" width="176" height="176">
<path d="M0 0 C0.66 1.65 1.32 3.3 2 5 C10.58 5 19.16 5 28 5 C28.66 3.35 29.32 1.7 30 0 C38.72641196 0.22117634 49.4688027 1.70590024 56.015625 7.91015625 C57.59496976 10.20020615 58.80217248 12.48990283 60 15 C60.50789063 15.91007812 61.01578125 16.82015625 61.5390625 17.7578125 C69.79622282 33.01118748 74.27298311 52.69340699 71 70 C68.0434465 74.23083364 64.80449195 75.41636325 60 77 C58.0779739 77.92646265 56.1610493 78.86360173 54.25 79.8125 C50.22048337 81.56999362 46.26787757 82.95674104 42 84 C40.99126984 82.73608512 39.99328178 81.46359117 39 80.1875 C38.443125 79.47980469 37.88625 78.77210937 37.3125 78.04296875 C36 76 36 76 36 73 C41.75 70 41.75 70 44 70 C44 69.34 44 68.68 44 68 C43.39414063 68.26554687 42.78828125 68.53109375 42.1640625 68.8046875 C25.04193035 76.02232474 7.52855693 75.75878249 -10 70 C-11.3526192 69.37338727 -12.69811953 68.72617454 -14 68 C-14 68.66 -14 69.32 -14 70 C-12.576875 70.4640625 -12.576875 70.4640625 -11.125 70.9375 C-8 72 -8 72 -6 73 C-6.60694155 76.15330554 -7.6416665 78.18888867 -9.5625 80.75 C-10.01753906 81.36359375 -10.47257812 81.9771875 -10.94140625 82.609375 C-11.29074219 83.06828125 -11.64007813 83.5271875 -12 84 C-21.99478544 81.10061179 -33.20253549 77.16202445 -41 70 C-41.51757812 67.71020508 -41.51757812 67.71020508 -41.53125 65.01953125 C-41.53962891 64.02832275 -41.54800781 63.03711426 -41.55664062 62.01586914 C-41.53794922 60.95875732 -41.51925781 59.90164551 -41.5 58.8125 C-41.48646484 57.72767334 -41.47292969 56.64284668 -41.45898438 55.52514648 C-41.02353052 38.46269718 -35.6567663 19.09565189 -24 6 C-21.60546875 4.51171875 -21.60546875 4.51171875 -19.1875 3.6875 C-17.88619141 3.23697266 -17.88619141 3.23697266 -16.55859375 2.77734375 C-15.71425781 2.52082031 -14.86992188 2.26429687 -14 2 C-13.26910156 1.77441406 -12.53820312 1.54882812 -11.78515625 1.31640625 C-7.79229055 0.20514804 -4.13308644 -0.20665432 0 0 Z M-12 40 C-13.53214888 43.06429776 -13.22938548 45.6165642 -13 49 C-11.34860695 52.5386994 -10.28394771 53.81070153 -7 56 C-3.58461856 56.58369443 -3.58461856 56.58369443 0 56 C3.84554163 52.82324822 5.80224739 50.71385593 6.375 45.75 C5.89252077 40.92520765 4.59141416 39.20934883 1 36 C-5.33345274 33.81207996 -7.64477117 35.54107524 -12 40 Z M27 38 C24.87261862 40.71424521 24.07090439 42.5239277 23.5625 45.9375 C24.11606323 49.8124426 25.59173531 51.95425348 28 55 C31.10048928 56.55024464 33.57894218 56.28992015 37 56 C39.75329021 54.20437595 41.52627461 52.94745078 43 50 C43.34708476 44.70695745 43.51351894 41.26641586 40 37 C35.26555915 33.79279814 31.40269088 34.72620422 27 38 Z " fill="#8B8B8B" transform="translate(73,48)"/>
</svg>
