<?xml version="1.0" encoding="UTF-8"?>
<svg version="1.1" xmlns="http://www.w3.org/2000/svg" width="176" height="176">
<path d="M0 0 C5.52933687 3.36516631 9.5901862 8.09035277 12 14.0625 C13.27754862 21.86974154 12.24717833 27.53089593 8.5625 34.5 C7.00893313 36.4716656 5.50256063 37.88328281 3.5625 39.5 C4.34753906 39.92410156 5.13257813 40.34820312 5.94140625 40.78515625 C18.32958181 47.70125426 24.99525667 54.79827002 29.5625 68.5 C29.5625 72.13 29.5625 75.76 29.5625 79.5 C2.5025 79.5 -24.5575 79.5 -52.4375 79.5 C-52.4375 66.93366842 -50.20741465 58.61383287 -41.4375 49.5 C-36.83574165 45.37926168 -32.10452102 41.97023993 -26.4375 39.5 C-26.83582031 39.0875 -27.23414062 38.675 -27.64453125 38.25 C-32.48739479 32.97116091 -34.95176763 28.24707829 -35.875 21.125 C-34.8742216 12.83283611 -31.97046414 7.19724271 -25.53515625 1.875 C-18.35291068 -2.83291516 -7.89427978 -3.49824947 0 0 Z " fill="#8C8C8C" transform="translate(88.4375,49.5)"/>
<path d="M0 0 C6.09731046 -0.63513651 10.14608967 -0.05579129 15.20703125 3.5 C19.28926 6.91519791 22.57769487 10.49002128 23.23828125 15.98046875 C23.49591168 23.64158426 20.87984054 29.14419135 16 35 C16.88558594 35.24878906 17.77117187 35.49757812 18.68359375 35.75390625 C26.05900392 38.52511455 31.64378463 44.45523327 35.125 51.4375 C37.2825977 56.79742692 37.41489748 61.27441477 37 67 C31.06 67 25.12 67 19 67 C18.608125 64.56625 18.21625 62.1325 17.8125 59.625 C15.66112878 47.69236647 10.75992483 37.65800311 0.70703125 30.328125 C-1.16641638 29.1476872 -3.04342968 28.03552525 -5 27 C-4.731875 26.34 -4.46375 25.68 -4.1875 25 C-3.795625 24.01 -3.40375 23.02 -3 22 C-2.46375 20.865625 -1.9275 19.73125 -1.375 18.5625 C0.89867777 12.63265697 0.23670261 6.24193543 0 0 Z " fill="#8C8C8C" transform="translate(103,62)"/>
</svg>
