<?xml version="1.0" encoding="UTF-8"?>
<svg version="1.1" xmlns="http://www.w3.org/2000/svg" width="176" height="176">
<path d="M0 0 C1.29349365 0.00523682 2.5869873 0.01047363 3.91967773 0.01586914 C4.9496714 0.01799156 4.9496714 0.01799156 6.00047302 0.02015686 C8.20144949 0.0257706 10.40232557 0.03832532 12.60327148 0.05102539 C14.09220231 0.05603863 15.58113473 0.06060184 17.07006836 0.06469727 C20.72700223 0.07574446 24.38387707 0.09301826 28.04077148 0.11352539 C25.35100437 11.7647584 22.49777362 23.36744119 19.52148438 34.94873047 C18.84071627 37.59992054 18.16427796 40.25219298 17.48803711 42.90454102 C17.05404857 44.59796608 16.61981354 46.291328 16.18530273 47.98461914 C15.98427444 48.77404404 15.78324615 49.56346893 15.5761261 50.3768158 C14.15549465 55.88407907 14.15549465 55.88407907 13.04077148 58.11352539 C12.38077148 58.11352539 11.72077148 58.11352539 11.04077148 58.11352539 C7.67576008 46.15801942 4.43368287 34.17562648 1.33618164 22.14794922 C0.65065462 19.49246818 -0.04303459 16.8391897 -0.73657227 14.18579102 C-1.17327039 12.49386275 -1.60948794 10.80181036 -2.04516602 9.10961914 C-2.25337982 8.31817001 -2.46159363 7.52672089 -2.67611694 6.71128845 C-3.14882282 4.85625719 -3.56084548 2.98592567 -3.95922852 1.11352539 C-2.95922852 0.11352539 -2.95922852 0.11352539 0 0 Z " fill="#8C8C8C" transform="translate(75.959228515625,82.886474609375)"/>
<path d="M0 0 C0.66 0 1.32 0 2 0 C12.67138672 32.01416016 12.67138672 32.01416016 13.35540771 34.08575439 C13.9345268 35.80556426 14.55297355 37.51201196 15.17626953 39.21630859 C16 42 16 42 16 47 C6.1 47 -3.8 47 -14 47 C-12.87491604 39.12441225 -12.87491604 39.12441225 -11.80078125 35.7487793 C-11.44536255 34.61807259 -11.44536255 34.61807259 -11.08276367 33.46452332 C-10.82857666 32.67572281 -10.57438965 31.8869223 -10.3125 31.07421875 C-10.04993408 30.24541702 -9.78736816 29.4166153 -9.5168457 28.56269836 C-8.96465509 26.82312357 -8.40984331 25.08437884 -7.85253906 23.34643555 C-6.99759259 20.67999168 -6.15045677 18.01116427 -5.3046875 15.34179688 C-4.76607372 13.64829472 -4.22702656 11.95493033 -3.6875 10.26171875 C-3.30621948 9.06333626 -3.30621948 9.06333626 -2.91723633 7.84074402 C-1.11760032 2.23520064 -1.11760032 2.23520064 0 0 Z " fill="#8C8C8C" transform="translate(87,32)"/>
<path d="M0 0 C6.1103452 0.35511024 11.93417817 1.12056843 17.89453125 2.54296875 C19.0441333 2.81520264 20.19373535 3.08743652 21.37817383 3.36791992 C22.24337646 3.57650635 23.1085791 3.78509277 24 4 C25.88322306 10.90149411 27.75140556 17.80693116 29.60913086 24.71533203 C30.2430318 27.06555425 30.88038458 29.41484825 31.52124023 31.76318359 C32.44120382 35.13662095 33.3487476 38.51318942 34.25390625 41.890625 C34.54342667 42.94179504 34.83294708 43.99296509 35.13124084 45.07598877 C35.39158615 46.05670349 35.65193146 47.03741821 35.92016602 48.04785156 C36.15333023 48.90944885 36.38649445 49.77104614 36.62672424 50.65875244 C37.01994171 53.12507773 36.78800816 54.65260821 36 57 C30.93209159 50.31828835 26.33183168 43.4693427 21.9309082 36.33911133 C18.787192 31.24680576 15.57289365 26.20586114 12.3125 21.1875 C11.85278809 20.47827393 11.39307617 19.76904785 10.91943359 19.03833008 C9.22805047 16.42943704 7.53617569 13.82090657 5.8359375 11.21777344 C4.82431395 9.66849744 3.81818636 8.1156366 2.8125 6.5625 C2.26207031 5.71816406 1.71164063 4.87382813 1.14453125 4.00390625 C0 2 0 2 0 0 Z " fill="#8B8B8B" transform="translate(44,79)"/>
<path d="M0 0 C-1.3059874 3.51112827 -2.84703955 6.55409497 -4.87109375 9.703125 C-5.44005371 10.59273926 -6.00901367 11.48235352 -6.59521484 12.39892578 C-7.20316895 13.33978027 -7.81112305 14.28063477 -8.4375 15.25 C-9.06350098 16.22565918 -9.68950195 17.20131836 -10.33447266 18.20654297 C-12.21869307 21.1404817 -14.10883311 24.0705355 -16 27 C-17.03012816 28.60144657 -18.0600906 30.20299976 -19.08984375 31.8046875 C-21.30844565 35.2504226 -23.53745428 38.68918124 -25.77587891 42.12207031 C-26.58960411 43.37040981 -27.40178885 44.61975485 -28.21240234 45.87011719 C-29.3241636 47.58329274 -30.44312129 49.29179192 -31.5625 51 C-32.18253906 51.94875 -32.80257812 52.8975 -33.44140625 53.875 C-35 56 -35 56 -37 57 C-36.36534195 50.58107508 -34.97350332 44.59101011 -33.27734375 38.375 C-33.01240616 37.38749756 -32.74746857 36.39999512 -32.47450256 35.38256836 C-31.63382806 32.25367591 -30.7857862 29.12683639 -29.9375 26 C-29.36344305 23.86862129 -28.7898703 21.73711211 -28.21679688 19.60546875 C-26.81679626 14.40212322 -25.41075448 9.20043956 -24 4 C-21.93771534 3.51990738 -19.87516299 3.04096456 -17.8125 2.5625 C-16.66394531 2.29566406 -15.51539062 2.02882813 -14.33203125 1.75390625 C-9.40063226 0.63812664 -5.07529653 -0.11803015 0 0 Z " fill="#8B8B8B" transform="translate(132,79)"/>
<path d="M0 0 C3 0 3 0 4.5078125 1.43359375 C5.30832031 2.42552734 5.30832031 2.42552734 6.125 3.4375 C8.78633056 6.62099036 11.53789925 9.59350183 14.5 12.5 C17.88065822 15.83505069 21.02353867 19.27792097 24.1015625 22.890625 C27.1768911 26.30765678 30.52815517 29.44399395 33.86328125 32.60546875 C36.01586705 35.01778154 37.01807258 36.94571746 38 40 C34.93929066 40.67507066 31.8761791 41.33854922 28.8125 42 C27.94818359 42.19078125 27.08386719 42.3815625 26.19335938 42.578125 C25.35224609 42.75859375 24.51113281 42.9390625 23.64453125 43.125 C22.48981323 43.37636719 22.48981323 43.37636719 21.31176758 43.6328125 C18.83939753 44.02550915 16.49924191 44.06185285 14 44 C11.96166838 38.65540702 10.06069365 33.2935963 8.30078125 27.8515625 C8.0608696 27.1129599 7.82095795 26.3743573 7.57377625 25.6133728 C7.07289578 24.06921542 6.57297103 22.52474771 6.07397461 20.97998047 C5.30738964 18.60919542 4.53567064 16.24012066 3.76367188 13.87109375 C3.27573108 12.3646839 2.7880899 10.85817696 2.30078125 9.3515625 C2.06958084 8.64327301 1.83838043 7.93498352 1.60017395 7.20523071 C0 2.22916542 0 2.22916542 0 0 Z " fill="#8C8C8C" transform="translate(94,34)"/>
<path d="M0 0 C0.99 0 1.98 0 3 0 C0.76299715 8.56026425 -1.80100163 17.00536256 -4.44384766 25.44677734 C-5.1343085 27.65476719 -5.81921814 29.86443288 -6.50390625 32.07421875 C-6.94237663 33.47927022 -7.38116647 34.88422205 -7.8203125 36.2890625 C-8.02447784 36.94935455 -8.22864319 37.60964661 -8.43899536 38.28994751 C-9.88540661 42.88540661 -9.88540661 42.88540661 -11 44 C-19.11784819 43.92925622 -27.13533521 41.80184683 -35 40 C-33.7251997 36.3136727 -32.35345041 33.99508385 -29.55078125 31.29296875 C-28.86693359 30.62330078 -28.18308594 29.95363281 -27.47851562 29.26367188 C-26.76373047 28.57853516 -26.04894531 27.89339844 -25.3125 27.1875 C-20.52107275 22.54705378 -15.92170148 17.86210451 -11.57397461 12.80102539 C-9.53040437 10.46266373 -7.3508617 8.28924615 -5.125 6.125 C-2.1723451 3.34607083 -2.1723451 3.34607083 0 0 Z " fill="#8C8C8C" transform="translate(79,34)"/>
</svg>
