<svg width="102" height="68" viewBox="0 0 102 68" fill="none" xmlns="http://www.w3.org/2000/svg">
<g clip-path="url(#clip0_2734_73980)">
<path d="M36.0956 20.9703C38.4029 19.227 40.8571 17.7249 43.6677 17.0011C44.6031 16.7599 45.6008 16.6962 46.5718 16.6825C47.2444 16.6734 47.5161 17.0512 47.6542 17.734C48.0684 19.7596 48.7454 21.6895 49.6763 23.5239C49.8144 23.7925 49.9792 23.8926 50.2777 23.8881C50.6741 23.879 92.0576 23.879 101.999 23.879V4.83406C101.999 2.17123 99.8791 0 97.2689 0H32.2695V23.9882C32.5279 23.8335 32.7239 23.7515 32.8842 23.6195C33.9577 22.741 34.991 21.8033 36.0956 20.9703Z" fill="#101F45"/>
<path d="M10.7345 23.4875C11.1086 22.2813 11.2645 20.5152 11.6877 19.3317C12.1999 17.907 12.6854 17.6338 14.182 17.7158C14.4537 17.7294 14.7343 17.7567 15.0016 17.8205C18.5604 18.699 22.1683 19.6048 25.2016 21.8033C25.7227 22.1811 26.2394 22.5635 26.7872 22.8958C27.059 23.0596 27.393 23.1188 27.7583 23.2463V0H4.73031C2.12463 0 0 2.17123 0 4.83406V23.8835C3.29607 23.8835 9.64323 23.879 10.3782 23.8653C10.5029 23.8653 10.6855 23.6423 10.7345 23.4875Z" fill="#101F45"/>
<path d="M22.3465 36.4748C19.9145 38.9646 17.3979 41.368 14.9615 43.8488C14.2488 44.5725 13.6831 45.4464 13.0417 46.243C12.966 46.3386 12.8279 46.375 12.6542 46.4752C12.6854 45.7287 12.7344 45.1005 12.7389 44.4724C12.77 40.9765 12.9348 36.9482 12.4449 33.4979C12.3781 33.0017 12.4003 32.5693 12.7834 32.1869C13.8836 31.099 14.4136 30.571 15.5004 29.4649C15.7989 29.16 16.075 28.8368 16.4314 28.4453H0V63.1622C0 65.8251 2.12017 67.9917 4.73031 67.9917H27.7583V30.6165C27.6113 30.7759 27.5311 30.8623 27.4509 30.9488C25.7539 32.7923 24.0925 34.6813 22.3465 36.4702V36.4748Z" fill="#101F45"/>
<path d="M43.8155 28.4629C44.0204 28.6404 44.1541 28.7497 44.2743 28.868C45.4903 30.0606 47.6773 32.3547 48.8888 33.5519C49.1739 33.8386 49.2541 34.1846 49.2229 34.6079C48.9022 38.6909 48.5993 42.7784 48.292 46.866C48.2831 47.0071 48.243 47.1482 48.2029 47.3758C48.047 47.1937 47.9624 47.0936 47.8733 46.9889C46.301 45.1454 43.7933 42.1685 42.1764 40.3705C40.5774 38.5998 38.8358 36.9612 37.2501 35.1814C35.5575 33.2878 33.963 31.2987 32.2793 29.2913V68.0002H97.2742C99.8799 68.0002 102.005 65.8335 102.005 63.1662V28.4629H43.8155Z" fill="#101F45"/>
<path d="M0.000238469 28.449H16.4271C16.0708 28.8405 15.7946 29.1637 15.4962 29.4686C14.4094 30.5747 13.8794 31.1028 12.7792 32.1906C12.3961 32.5684 12.3739 33.0054 12.4407 33.5016C12.9306 36.9519 12.7703 40.9803 12.7346 44.4761C12.7257 45.1042 12.6812 45.7369 12.65 46.4789C12.8237 46.3787 12.9618 46.3378 13.0375 46.2467C13.6789 45.4502 14.2446 44.5762 14.9573 43.8525C17.3937 41.3717 19.9147 38.9683 22.3422 36.4785C24.0927 34.6851 25.7497 32.8006 27.4467 30.9571C27.5269 30.8706 27.6071 30.7841 27.754 30.6248V68H32.2705V29.2957C33.9587 31.303 35.5488 33.2922 37.2414 35.1858C38.8315 36.9655 40.5686 38.6042 42.1677 40.3749C43.789 42.1728 46.2967 45.1497 47.8645 46.9932C47.9536 47.0979 48.0427 47.1981 48.1941 47.3801C48.2342 47.1526 48.2743 47.0114 48.2832 46.8703C48.5905 42.7828 48.8934 38.6952 49.2141 34.6122C49.2453 34.1889 49.1696 33.843 48.8801 33.5562C47.673 32.3591 45.4815 30.0649 44.2656 28.8723C44.1453 28.754 44.0117 28.6448 43.8068 28.4672H101.987V23.8835C92.0497 23.8835 50.6617 23.8835 50.2653 23.8926C49.9669 23.8972 49.8021 23.8016 49.664 23.5285C48.7286 21.6895 48.056 19.7596 47.6418 17.7385C47.5037 17.0558 47.232 16.678 46.5595 16.6871C45.5929 16.7007 44.5907 16.7644 43.6553 17.0057C40.8448 17.7294 38.3905 19.2315 36.0833 20.9749C34.9787 21.8079 33.9453 22.7456 32.8719 23.6241C32.7115 23.7515 32.52 23.838 32.2572 23.9928V0H27.7407V23.2508C27.3754 23.1234 27.0414 23.0642 26.7697 22.9003C26.2218 22.568 25.7051 22.1811 25.184 21.8079C22.1507 19.6093 18.5429 18.7035 14.984 17.825C14.7167 17.7613 14.4406 17.734 14.1644 17.7203C12.6678 17.6384 12.1779 17.907 11.6701 19.3362C11.247 20.5243 11.0911 22.2858 10.7169 23.4921C10.6679 23.6468 10.4853 23.8699 10.3606 23.8699C9.62565 23.879 3.27849 23.8835 -0.0175781 23.8881V28.4581L0.000238469 28.449Z" fill="url(#paint0_linear_2734_73980)"/>
</g>
<defs>
<linearGradient id="paint0_linear_2734_73980" x1="50.9846" y1="-0.0746282" x2="16.6505" y2="32.3335" gradientUnits="userSpaceOnUse">
<stop stop-color="#F24114"/>
<stop offset="1" stop-color="#FF8B40"/>
</linearGradient>
<clipPath id="clip0_2734_73980">
<rect width="102" height="68" fill="white"/>
</clipPath>
</defs>
</svg>
