<?xml version="1.0" encoding="UTF-8"?>
<svg version="1.1" xmlns="http://www.w3.org/2000/svg" width="176" height="176">
<path d="M0 0 C21.12 0 42.24 0 64 0 C64.061875 6.703125 64.12375 13.40625 64.1875 20.3125 C64.22846802 23.4822644 64.22846802 23.4822644 64.27026367 26.71606445 C64.27902511 28.3901309 64.28666986 30.06420373 64.29296875 31.73828125 C64.3159906 33.04315491 64.3159906 33.04315491 64.33947754 34.37438965 C64.34002136 35.62246399 64.34002136 35.62246399 64.34057617 36.89575195 C64.35056892 37.97830009 64.35056892 37.97830009 64.36076355 39.0827179 C64 41 64 41 62.92456055 42.73522949 C59.95397598 44.68741944 57.38994712 44.35852265 53.86645508 44.34057617 C52.78315163 44.34123329 52.78315163 44.34123329 51.67796326 44.34190369 C49.29154395 44.33981414 46.90582777 44.31647613 44.51953125 44.29296875 C42.86472457 44.28737336 41.20991292 44.283103 39.55509949 44.28010559 C35.20006586 44.26865224 30.84533249 44.23918098 26.49041748 44.20599365 C21.26501927 44.16990714 16.03952066 44.15613394 10.81403351 44.13863373 C2.87581353 44.10954375 -5.06174768 44.05206044 -13 44 C-13 29.81 -13 15.62 -13 1 C-11.35 2.65 -9.7 4.3 -8 6 C-6.71029297 7.27230469 -6.71029297 7.27230469 -5.39453125 8.5703125 C-4.11642578 9.83488281 -4.11642578 9.83488281 -2.8125 11.125 C-1.95269531 11.97320312 -1.09289062 12.82140625 -0.20703125 13.6953125 C2 16 2 16 4 19 C4.64756853 14.97994584 5.14880244 11.07612398 5 7 C2.77009471 3.84777425 2.77009471 3.84777425 0 2 C0 1.34 0 0.68 0 0 Z " fill="#8C8C8C" transform="translate(80,82)"/>
<path d="M0 0 C9.74424037 -0.0451283 19.48841169 -0.08184534 29.23273277 -0.10362434 C33.7570826 -0.11407551 38.28135741 -0.1282589 42.80566406 -0.15087891 C47.16931524 -0.17255993 51.53289413 -0.18455858 55.896595 -0.18975449 C57.56402347 -0.19345879 59.23144785 -0.20069207 60.89884567 -0.21146011 C63.22871295 -0.2259122 65.55827894 -0.22798061 67.88818359 -0.22705078 C68.58229843 -0.23424133 69.27641327 -0.24143188 69.99156189 -0.24884033 C74.77189568 -0.22810432 74.77189568 -0.22810432 77 2 C77 9.92 77 17.84 77 26 C57.86 26 38.72 26 19 26 C17.515 22.535 17.515 22.535 16 19 C10.48096171 20.58717441 6.38406384 22.14733784 2 26 C1.34 26 0.68 26 0 26 C0 17.42 0 8.84 0 0 Z " fill="#8C8C8C" transform="translate(67,52)"/>
<path d="M0 0 C5.94 0 11.88 0 18 0 C16 4 16 4 15 5 C14.92741054 7.18639453 14.91626217 9.37500389 14.9375 11.5625 C14.94652344 12.76003906 14.95554687 13.95757812 14.96484375 15.19140625 C14.97644531 16.11824219 14.98804688 17.04507813 15 18 C19.25457841 13.88266606 23.12953173 9.48112734 27.01171875 5.01171875 C27.99591797 4.01591797 27.99591797 4.01591797 29 3 C29.66 3 30.32 3 31 3 C31 16.53 31 30.06 31 44 C24.1628125 44.0928125 24.1628125 44.0928125 17.1875 44.1875 C15.03577271 44.22846802 15.03577271 44.22846802 12.84057617 44.27026367 C11.1463855 44.28150269 11.1463855 44.28150269 9.41796875 44.29296875 C8.26063232 44.3086792 7.1032959 44.32438965 5.91088867 44.34057617 C3 44 3 44 1.33935547 42.73522949 C-0.30455033 40.60543356 -0.36518238 39.56142424 -0.34057617 36.89575195 C-0.34034958 36.07512772 -0.34012299 35.25450348 -0.33988953 34.40901184 C-0.32440567 33.52767075 -0.30892181 32.64632965 -0.29296875 31.73828125 C-0.28872391 30.83248825 -0.28447906 29.92669525 -0.28010559 28.99345398 C-0.26330848 26.09950067 -0.2256545 23.20624294 -0.1875 20.3125 C-0.17245449 18.35092151 -0.15876585 16.38933211 -0.14648438 14.42773438 C-0.11595288 9.61800581 -0.05723407 4.80978175 0 0 Z " fill="#8C8C8C" transform="translate(32,82)"/>
<path d="M0 0 C1.20446777 0.01047363 2.40893555 0.02094727 3.64990234 0.03173828 C5.60283203 0.04140625 5.60283203 0.04140625 7.59521484 0.05126953 C8.9754258 0.06798149 10.35563413 0.08491139 11.73583984 0.10205078 C13.12385436 0.11208072 14.51187574 0.12120655 15.89990234 0.12939453 C19.30362176 0.15303147 22.70725212 0.18890347 26.11083984 0.22705078 C26.11083984 8.47705078 26.11083984 16.72705078 26.11083984 25.22705078 C22.11083984 24.22705078 22.11083984 24.22705078 18.73583984 22.66455078 C15.1718185 21.25123197 12.88844226 20.95064085 9.11083984 21.22705078 C8.12083984 23.70205078 8.12083984 23.70205078 7.11083984 26.22705078 C3.15083984 26.22705078 -0.80916016 26.22705078 -4.88916016 26.22705078 C-4.94289562 22.26853826 -4.98270626 18.31074823 -5.01416016 14.35205078 C-5.03091797 13.22412109 -5.04767578 12.09619141 -5.06494141 10.93408203 C-5.07138672 9.85771484 -5.07783203 8.78134766 -5.08447266 7.67236328 C-5.09494629 6.67736816 -5.10541992 5.68237305 -5.11621094 4.65722656 C-4.7676141 0.92611595 -3.65776773 0.28745344 0 0 Z " fill="#8C8C8C" transform="translate(36.88916015625,51.77294921875)"/>
</svg>
