<?xml version="1.0" encoding="UTF-8"?>
<svg version="1.1" xmlns="http://www.w3.org/2000/svg" width="176" height="176">
<path d="M0 0 C29.7 0 59.4 0 90 0 C88.16276432 3.67447136 86.76243632 5.48165013 83.91748047 8.30957031 C83.07675995 9.15013977 82.23603943 9.99070923 81.36984253 10.85675049 C80.00727829 12.20383087 80.00727829 12.20383087 78.6171875 13.578125 C77.68778351 14.5046991 76.75837952 15.43127319 75.80081177 16.38592529 C73.3359615 18.84315789 70.86516334 21.29432361 68.39306641 23.7442627 C65.86909235 26.24773809 63.35080612 28.75692063 60.83203125 31.265625 C55.89356403 36.18267525 50.948788 41.09333788 46 46 C42.56699701 44.51856023 40.32828517 42.58138096 37.69042969 39.94921875 C36.84986023 39.11495361 36.00929077 38.28068848 35.14324951 37.42114258 C34.24519592 36.51904053 33.34714233 35.61693848 32.421875 34.6875 C31.03201385 33.30050903 31.03201385 33.30050903 29.61407471 31.88549805 C27.6574163 29.93178301 25.70440857 27.97450889 23.75390625 26.01464844 C21.24984146 23.49915795 18.73686276 20.99279451 16.2211113 18.48899841 C13.82484056 16.1016736 11.4361985 13.70677812 9.046875 11.3125 C8.14072449 10.41039795 7.23457397 9.5082959 6.30096436 8.57885742 C5.47300354 7.74459229 4.64504272 6.91032715 3.79199219 6.05078125 C3.05793152 5.31512939 2.32387085 4.57947754 1.56756592 3.8215332 C0 2 0 2 0 0 Z " fill="#8B8B8B" transform="translate(43,52)"/>
<path d="M0 0 C4.06652629 1.7568107 6.33202078 4.36290539 9.21875 7.63671875 C10.88064739 9.2023145 10.88064739 9.2023145 12.921875 8.9609375 C15.65895403 7.69529569 17.54087758 5.98418695 19.75 3.9375 C20.94882813 2.83728516 20.94882813 2.83728516 22.171875 1.71484375 C22.77515625 1.14894531 23.3784375 0.58304687 24 0 C26.86456253 1.28774617 28.79489211 2.58166763 30.890625 4.9140625 C31.42800293 5.5030835 31.96538086 6.09210449 32.51904297 6.69897461 C33.09025879 7.33456299 33.66147461 7.97015137 34.25 8.625 C41.91462146 17.00695406 49.91877932 25.02165425 58 33 C57.505 33.99 57.505 33.99 57 35 C27.96 35 -1.08 35 -31 35 C-31 32 -31 32 -28.58496094 29.26025391 C-27.47556645 28.15812212 -26.35809554 27.06408388 -25.234375 25.9765625 C-24.34966522 25.1017775 -24.34966522 25.1017775 -23.44708252 24.20932007 C-21.55499315 22.34067809 -19.65308264 20.48243941 -17.75 18.625 C-15.86290027 16.7730696 -13.97797895 14.91899831 -12.09576416 13.06210327 C-10.92364926 11.90683058 -9.74845838 10.75466784 -8.56976318 9.60610962 C-5.46890834 6.56126507 -2.64201652 3.46513717 0 0 Z " fill="#8C8C8C" transform="translate(75,91)"/>
<path d="M0 0 C0 22.44 0 44.88 0 68 C-4.73003732 63.9456823 -9.22300104 59.91530449 -13.58984375 55.5078125 C-14.47392662 54.62160721 -14.47392662 54.62160721 -15.37586975 53.71749878 C-17.23213727 51.85569596 -19.08487085 49.99042255 -20.9375 48.125 C-22.20614672 46.85132989 -23.4750249 45.57789029 -24.74414062 44.3046875 C-27.83210554 41.20577957 -30.91690929 38.10375699 -34 35 C-32.67185252 32.05495226 -31.2264428 29.97753345 -28.94311523 27.70019531 C-28.32585068 27.07985413 -27.70858612 26.45951294 -27.07261658 25.82037354 C-26.40798904 25.16293152 -25.74336151 24.5054895 -25.05859375 23.828125 C-24.37571793 23.1457074 -23.6928421 22.46328979 -22.98927307 21.76019287 C-21.54835568 20.32229178 -20.10501339 18.88681713 -18.65942383 17.45361328 C-16.43706221 15.24956582 -14.2228644 13.03756307 -12.00976562 10.82421875 C-10.60984722 9.42921346 -9.20947237 8.03466603 -7.80859375 6.640625 C-7.14194199 5.97508606 -6.47529022 5.30954712 -5.78843689 4.62384033 C-4.8672683 3.71224152 -4.8672683 3.71224152 -3.92749023 2.78222656 C-3.38503159 2.24357971 -2.84257294 1.70493286 -2.28367615 1.14996338 C-1 0 -1 0 0 0 Z " fill="#8B8B8B" transform="translate(136,55)"/>
<path d="M0 0 C4.73003732 4.0543177 9.22300104 8.08469551 13.58984375 12.4921875 C14.17923233 13.08299103 14.76862091 13.67379456 15.37586975 14.28250122 C17.23213727 16.14430404 19.08487085 18.00957745 20.9375 19.875 C22.20614672 21.14867011 23.4750249 22.42210971 24.74414062 23.6953125 C27.83210554 26.79422043 30.91690929 29.89624301 34 33 C32.68995776 35.89015081 31.28755525 37.96442174 29.05078125 40.20800781 C28.45676514 40.80832825 27.86274902 41.40864868 27.25073242 42.02716064 C26.61111572 42.66272888 25.97149902 43.29829712 25.3125 43.953125 C24.65419189 44.61334656 23.99588379 45.27356812 23.31762695 45.95379639 C21.92807708 47.34470501 20.53600726 48.73310008 19.14160156 50.11914062 C17.00090714 52.24909741 14.8711209 54.38954496 12.7421875 56.53125 C11.39126613 57.88085039 10.03972482 59.22983059 8.6875 60.578125 C8.0478833 61.22179016 7.4082666 61.86545532 6.74926758 62.52862549 C2.22992911 67 2.22992911 67 0 67 C0 44.89 0 22.78 0 0 Z " fill="#8B8B8B" transform="translate(40,55)"/>
</svg>
