<svg width="68" height="68" viewBox="0 0 68 68" fill="none" xmlns="http://www.w3.org/2000/svg">
<g clip-path="url(#clip0_2734_73981)">
<g clip-path="url(#clip1_2734_73981)">
<path d="M68 33.996C68 52.7711 52.7779 67.9929 33.9993 67.9929C15.2207 67.9929 0 52.7711 0 33.996C0 15.2209 15.2211 0 33.9993 0C52.7774 0 68 15.2199 68 33.996Z" fill="#F2F3F5"/>
<path d="M33.9994 0C15.2275 0 -0.0198364 15.2432 0.00393401 33.9955C0.0091635 37.7475 0.606752 41.3564 1.73014 44.7323H11.902V16.1331L33.9999 38.2276L56.0969 16.1331V44.7323H66.2701C67.3954 41.3564 67.9906 37.7475 67.9963 33.9955C68.0291 15.2232 52.7728 0.00475355 33.9994 0.00475355V0Z" fill="#F16822"/>
<path d="M28.9187 43.3076L19.2755 33.6645V51.661H11.9024L4.94531 51.662C10.9131 61.4509 21.6982 67.9999 34.0008 67.9999C46.3034 67.9999 57.089 61.4495 63.0573 51.6601H56.0973L49.5025 51.6605H48.7237V33.6641L39.0791 43.3071L33.9994 48.3868L28.9192 43.3071H28.9187V43.3076Z" fill="#4D4D4D"/>
</g>
</g>
<defs>
<clipPath id="clip0_2734_73981">
<rect width="68" height="68" fill="white"/>
</clipPath>
<clipPath id="clip1_2734_73981">
<rect width="68" height="68" fill="white"/>
</clipPath>
</defs>
</svg>
