<?xml version="1.0" encoding="UTF-8"?>
<svg version="1.1" xmlns="http://www.w3.org/2000/svg" width="44" height="44">
<path d="M0 0 C4.40608743 2.16298837 7.1987497 4.39680479 9 9 C9.23155529 12.34983315 9.17570423 15.64860453 9 19 C7.35 19 5.7 19 4 19 C3.505 14.05 3.505 14.05 3 9 C0.69 11.31 -1.62 13.62 -4 16 C-7.90432869 14.04783565 -10.03839944 12.12613393 -13 9 C-13.33 12.3 -13.66 15.6 -14 19 C-15.65 19 -17.3 19 -19 19 C-19.35666988 13.98680673 -19.56305357 10.14696097 -17.3125 5.5625 C-12.196007 -0.10712738 -7.44966762 -1.07447129 0 0 Z " fill="#E9E9E9" transform="translate(27,8)"/>
<path d="M0 0 C2.66666667 1.33333333 5.33333333 2.66666667 8 4 C9.65 2.68 11.3 1.36 13 0 C13 2.31 13 4.62 13 7 C14.98 7 16.96 7 19 7 C18.03441599 9.54563057 17.06131195 10.94635204 15 12.75 C10.63357148 14.56934522 6.66318437 14.68532422 2 14 C-3.61971831 11.14084507 -3.61971831 11.14084507 -5 7 C-3.35 7 -1.7 7 0 7 C0 4.69 0 2.38 0 0 Z " fill="#E9E9E9" transform="translate(15,22)"/>
</svg>
