<?xml version="1.0" encoding="UTF-8"?>
<svg version="1.1" xmlns="http://www.w3.org/2000/svg" width="176" height="176">
<path d="M0 0 C2.74991849 1.37495924 2.86373624 2.75349331 3.93945312 5.6081543 C4.31324097 6.58975021 4.68702881 7.57134613 5.07214355 8.58268738 C5.67065125 10.18724541 5.67065125 10.18724541 6.28125 11.82421875 C6.69540161 12.91837601 7.10955322 14.01253326 7.53625488 15.1398468 C8.86412389 18.65327372 10.18200204 22.17035984 11.5 25.6875 C12.38870203 28.04125014 13.27801728 30.39476886 14.16796875 32.74804688 C21.17793781 51.32306157 21.17793781 51.32306157 23 57 C22.41992188 56.86722656 21.83984375 56.73445313 21.2421875 56.59765625 C10.50641067 54.17059119 0.92852804 53.38095881 -10 55 C-12.97283857 48.47139365 -15.71647964 41.87450675 -18.3125 35.1875 C-18.68439453 34.26001953 -19.05628906 33.33253906 -19.43945312 32.37695312 C-19.78556641 31.48298828 -20.13167969 30.58902344 -20.48828125 29.66796875 C-20.80321533 28.86641357 -21.11814941 28.0648584 -21.44262695 27.23901367 C-22.07204423 24.71059237 -21.95042658 23.40846365 -21 21 C-19.109375 19.4375 -19.109375 19.4375 -16.75 18 C-10.92768619 14.40501429 -6.78283768 11.17173265 -3.1875 5.25 C-2.58292969 4.26515625 -1.97835937 3.2803125 -1.35546875 2.265625 C-0.68451172 1.14414062 -0.68451172 1.14414062 0 0 Z " fill="#8C8C8C" transform="translate(89,49)"/>
<path d="M0 0 C3.5625 0.3125 3.5625 0.3125 5.09960938 1.38525391 C7.20320436 4.1565788 8.31683548 7.233588 9.53125 10.4609375 C9.8083078 11.17781738 10.0853656 11.89469727 10.37081909 12.63330078 C11.27608003 14.98170438 12.16965911 17.33434922 13.0625 19.6875 C13.6838724 21.31091457 14.30578461 22.93412262 14.92822266 24.55712891 C16.19487747 27.86335221 17.45668665 31.17137456 18.71582031 34.48046875 C20.16625618 38.28584814 21.6375444 42.08252694 23.12237549 45.87460327 C24.1586219 48.52248823 25.18687638 51.17343131 26.21362305 53.82501221 C26.9236109 55.65176426 27.64238483 57.47509373 28.36132812 59.29833984 C28.78607422 60.40387207 29.21082031 61.5094043 29.6484375 62.6484375 C30.2060376 64.08002197 30.2060376 64.08002197 30.77490234 65.54052734 C31.64699866 68.60989548 31.78082596 71.13639048 31.5625 74.3125 C30.4375 76.1875 30.4375 76.1875 28.5625 77.3125 C25.625 77.8125 25.625 77.8125 22.5625 77.3125 C18.21792241 73.05950843 16.52001331 67.68118664 14.4453125 62.10546875 C14.06567352 61.10727615 13.68603455 60.10908356 13.29489136 59.0806427 C12.08383407 55.89027192 10.88552108 52.69528577 9.6875 49.5 C8.89015528 47.39356495 8.09198597 45.28744183 7.29296875 43.18164062 C5.74605696 39.10163583 4.20962629 35.01791472 2.68066406 30.93115234 C1.36993131 27.43401556 0.03320376 23.95019201 -1.34472656 20.47900391 C-1.62881378 19.75368973 -1.912901 19.02837555 -2.20559692 18.28108215 C-2.94448602 16.39953888 -3.69462234 14.52242271 -4.44580078 12.64575195 C-5.53079578 8.9989187 -5.76572563 6.09693576 -5.4375 2.3125 C-3.4375 0.3125 -3.4375 0.3125 0 0 Z " fill="#8C8C8C" transform="translate(97.4375,35.6875)"/>
<path d="M0 0 C1.36621094 2.72802734 1.36621094 2.72802734 2.734375 6.3359375 C2.97665833 6.97109283 3.21894165 7.60624817 3.46856689 8.26065063 C3.97826084 9.60526492 4.48224899 10.95205379 4.98095703 12.30078125 C5.74651773 14.36560782 6.53385392 16.42112151 7.32421875 18.4765625 C7.81643133 19.78335505 8.30736017 21.090632 8.796875 22.3984375 C9.46734863 24.18773682 9.46734863 24.18773682 10.15136719 26.01318359 C11 29 11 29 10 32 C7.30555914 33.2236632 4.72677507 34.23741051 1.9375 35.1875 C1.19822266 35.46013672 0.45894531 35.73277344 -0.30273438 36.01367188 C-5.38982308 37.78947974 -9.61338758 38.62131297 -15 38 C-19.51462299 35.11998189 -20.93501812 29.94677589 -22.75 25.125 C-23.06582031 24.33480469 -23.38164063 23.54460937 -23.70703125 22.73046875 C-25.36966162 18.40475078 -26.68478531 14.69762722 -26 10 C-23.94118446 6.6023054 -22.15996739 5.33470377 -18.4375 4.04296875 C-17.55835938 3.73552734 -16.67921875 3.42808594 -15.7734375 3.11132812 C-14.85820313 2.80646484 -13.94296875 2.50160156 -13 2.1875 C-12.08476563 1.86330078 -11.16953125 1.53910156 -10.2265625 1.20507812 C-3.39827645 -1.13275882 -3.39827645 -1.13275882 0 0 Z " fill="#8C8C8C" transform="translate(64,74)"/>
<path d="M0 0 C1.80167926 3.24044194 2.95926595 6.77884735 4.25 10.25 C4.62640625 11.20519531 5.0028125 12.16039063 5.390625 13.14453125 C5.74125 14.07136719 6.091875 14.99820313 6.453125 15.953125 C6.77442383 16.80036133 7.09572266 17.64759766 7.42675781 18.52050781 C8.0922937 21.39920562 7.85748073 23.18903744 7 26 C4.73018516 28.52201649 3.44152619 28.95302913 0.0625 29.3125 C-4.9562716 27.16159789 -6.01924206 22.86754081 -8 18 C-8.48082031 16.86175781 -8.96164063 15.72351563 -9.45703125 14.55078125 C-13.15290742 5.45872225 -13.15290742 5.45872225 -12 2 C-10.0390625 1.015625 -10.0390625 1.015625 -7.625 0.25 C-6.83351563 -0.01296875 -6.04203125 -0.2759375 -5.2265625 -0.546875 C-3 -1 -3 -1 0 0 Z " fill="#8C8C8C" transform="translate(70,112)"/>
<path d="M0 0 C0.66 1.65 1.32 3.3 2 5 C-1.49886895 9.41161738 -5.70724059 10.70516422 -11 12 C-13.9375 12.3125 -13.9375 12.3125 -16 12 C-18 10 -18 10 -18.1875 7.625 C-16.4759812 3.84164265 -13.87533867 3.26417758 -10.12890625 1.796875 C-9.42636719 1.53390625 -8.72382813 1.2709375 -8 1 C-5.29120665 -0.35439668 -2.99066732 -0.06501451 0 0 Z " fill="#8B8B8B" transform="translate(142,60)"/>
<path d="M0 0 C0.33 0.33 0.66 0.66 1 1 C0.73738839 7.30267874 -1.73652267 11.68932286 -5 17 C-6.99954746 17.04254356 -9.00041636 17.04080783 -11 17 C-11.33 16.67 -11.66 16.34 -12 16 C-11.68255432 9.96853214 -10.35804841 5.0814242 -7 0 C-4.31633121 -1.3418344 -2.84719317 -0.73004953 0 0 Z " fill="#8C8C8C" transform="translate(127,42)"/>
<path d="M0 0 C5.93090313 0.14827258 10.8910431 3.26378 16 6 C16.04254356 7.99954746 16.04080783 10.00041636 16 12 C15.67 12.33 15.34 12.66 15 13 C8.21862253 12.75780795 3.69965711 10.57547934 -2 7 C-2.125 4.625 -2.125 4.625 -2 2 C-1.34 1.34 -0.68 0.68 0 0 Z " fill="#8B8B8B" transform="translate(128,79)"/>
<path d="M0 0 C0.99 0 1.98 0 3 0 C4.32 3.96 5.64 7.92 7 12 C1 12 1 12 -0.875 10.9375 C-2.61973477 7.93267901 -2.30835443 5.39189869 -2 2 C-1.34 1.34 -0.68 0.68 0 0 Z " fill="#8C8C8C" transform="translate(34,94)"/>
</svg>
