<?xml version="1.0" encoding="UTF-8"?>
<svg version="1.1" xmlns="http://www.w3.org/2000/svg" width="18" height="18">
<path d="M0 0 C0.66 0 1.32 0 2 0 C2.391875 0.78375 2.78375 1.5675 3.1875 2.375 C5.62451318 5.90446737 7.90626822 6.15035756 12 7 C11.67 5.68 11.34 4.36 11 3 C12.98 3 14.96 3 17 3 C17 4.98 17 6.96 17 9 C6.12716763 9.78034682 6.12716763 9.78034682 1.75 6.75 C0 4 0 4 0 0 Z " fill="#E9E9E9" transform="translate(0,9)"/>
<path d="M0 0 C10.87283237 -0.78034682 10.87283237 -0.78034682 15.25 2.25 C17 5 17 5 17 9 C16.34 9 15.68 9 15 9 C14.608125 8.21625 14.21625 7.4325 13.8125 6.625 C11.37548682 3.09553263 9.09373178 2.84964244 5 2 C5.33 3.32 5.66 4.64 6 6 C4.02 6 2.04 6 0 6 C0 4.02 0 2.04 0 0 Z " fill="#E9E9E9" transform="translate(1,0)"/>
</svg>
