<?xml version="1.0" encoding="UTF-8"?>
<svg version="1.1" xmlns="http://www.w3.org/2000/svg" width="176" height="176">
<path d="M0 0 C7.33293484 0.05085253 12.8082993 4.01106929 18.9375 7.6875 C20.67194771 8.70899939 22.40640041 9.7304905 24.14122009 10.75135803 C25.92355686 11.80247421 27.70276749 12.85872168 29.48144531 13.91601562 C33.88288046 16.52869541 38.31336438 19.0908437 42.7421875 21.65673828 C68.72881958 36.72881958 68.72881958 36.72881958 71 39 C71.29345703 41.38427734 71.29345703 41.38427734 71 44 C69.48388672 45.54150391 69.48388672 45.54150391 67.3046875 46.8515625 C66.47807617 47.35719727 65.65146484 47.86283203 64.79980469 48.38378906 C63.87586914 48.91713867 62.95193359 49.45048828 62 50 C61.03223633 50.56686523 60.06447266 51.13373047 59.06738281 51.71777344 C55.76627836 53.62698274 52.44798167 55.50428651 49.125 57.375 C41.49739161 61.68197682 33.90064118 66.02414535 26.41015625 70.56640625 C25.79940247 70.93523926 25.18864868 71.30407227 24.55938721 71.68408203 C21.62925764 73.45410507 18.70720195 75.23444546 15.79541016 77.03466797 C5.9230392 83.00826086 5.9230392 83.00826086 0 83 C-1.72880189 81.27119811 -1.12599234 79.05097384 -1.13552856 76.74632263 C-1.13350433 75.99407913 -1.1314801 75.24183563 -1.12939453 74.46679688 C-1.13114685 73.67821793 -1.13289917 72.88963898 -1.13470459 72.0771637 C-1.13912358 69.4576704 -1.13618496 66.83824404 -1.1328125 64.21875 C-1.13348553 62.4065347 -1.13445554 60.59431948 -1.13571167 58.78210449 C-1.13718871 54.97891381 -1.1350339 51.17574656 -1.13037109 47.37255859 C-1.1246738 42.48621505 -1.12795278 37.59992643 -1.13394356 32.7135849 C-1.13754901 28.96994611 -1.13641066 25.22632045 -1.13381577 21.48268127 C-1.13314645 19.68046563 -1.13397507 17.87824882 -1.13629532 16.07603455 C-1.13882159 13.56172509 -1.13498162 11.04750583 -1.12939453 8.53320312 C-1.13141876 7.78095963 -1.13344299 7.02871613 -1.13552856 6.25367737 C-1.1142626 1.1142626 -1.1142626 1.1142626 0 0 Z " fill="#8B8B8B" transform="translate(53,48)"/>
</svg>
