<?xml version="1.0" encoding="UTF-8"?>
<svg version="1.1" xmlns="http://www.w3.org/2000/svg" width="176" height="176">
<path d="M0 0 C18.48 0 36.96 0 56 0 C56.061875 8.476875 56.12375 16.95375 56.1875 25.6875 C56.22846802 29.69136841 56.22846802 29.69136841 56.27026367 33.77612305 C56.27902709 35.89631701 56.28667137 38.01651603 56.29296875 40.13671875 C56.30831665 41.23391235 56.32366455 42.33110596 56.33947754 43.46154785 C56.33984009 44.51668579 56.34020264 45.57182373 56.34057617 46.65893555 C56.34723801 47.5716069 56.35389984 48.48427826 56.36076355 49.42460632 C55.91917633 52.57697838 54.85379933 54.43176103 53 57 C48.17992105 60.25147471 43.95953774 60.45476162 38.34765625 60.43359375 C37.52929794 60.4388356 36.71093964 60.44407745 35.86778259 60.44947815 C34.14404429 60.45587617 32.4202622 60.45459021 30.6965332 60.44604492 C28.07358287 60.43753595 25.45281369 60.46632321 22.83007812 60.49804688 C21.14843815 60.49965928 19.46679435 60.4990806 17.78515625 60.49609375 C16.62077782 60.51294472 16.62077782 60.51294472 15.43287659 60.53013611 C9.86385759 60.45962303 6.54306479 59.27739629 2 56 C-0.01897134 52.89462046 -0.24483016 50.4350131 -0.22705078 46.77246094 C-0.22680908 45.71720215 -0.22656738 44.66194336 -0.22631836 43.57470703 C-0.21608643 42.47239746 -0.20585449 41.37008789 -0.1953125 40.234375 C-0.19329834 39.21617676 -0.19128418 38.19797852 -0.18920898 37.14892578 C-0.1787532 33.34923796 -0.15083061 29.54961441 -0.125 25.75 C-0.08375 17.2525 -0.0425 8.755 0 0 Z M26 18 C25.67 23.28 25.34 28.56 25 34 C23.68 32.68 22.36 31.36 21 30 C18.78141747 30.13641377 18.78141747 30.13641377 17 31 C20.20760251 34.80635497 23.40746109 38.54563567 27 42 C30.45201639 40.52278578 32.64961936 38.56205999 35.25 35.875 C36.30960938 34.78832031 36.30960938 34.78832031 37.390625 33.6796875 C37.92171875 33.12539062 38.4528125 32.57109375 39 32 C38.67 31.34 38.34 30.68 38 30 C36.05000871 30.19471111 36.05000871 30.19471111 34 31 C32.71563266 32.9837767 32.71563266 32.9837767 32 35 C31.34 35 30.68 35 30 35 C30 29.72 30 24.44 30 19 C28.68 18.67 27.36 18.34 26 18 Z " fill="#8C8C8C" transform="translate(60,72)"/>
<path d="M0 0 C1.20292946 -0.0076664 1.20292946 -0.0076664 2.43016052 -0.01548767 C5.08453815 -0.02940178 7.73865661 -0.02842536 10.39306641 -0.02612305 C12.23768206 -0.03000938 14.08229681 -0.03434392 15.9269104 -0.03910828 C19.79554137 -0.04657469 23.66408109 -0.04627646 27.53271484 -0.04101562 C32.48823523 -0.03522469 37.44338142 -0.05214083 42.39883995 -0.0753603 C46.20956605 -0.09010009 50.02020213 -0.09096893 53.83095169 -0.08785057 C55.6577796 -0.0883638 57.48461254 -0.09360185 59.31141281 -0.10366249 C61.86801111 -0.11601246 64.42388191 -0.10924375 66.98046875 -0.09765625 C67.73389053 -0.10529999 68.48731232 -0.11294373 69.26356506 -0.12081909 C73.72711669 -0.07615055 76.5568755 0.54550455 80.11962891 3.2746582 C83.55406697 7.97920752 82.53007269 14.50855291 82.54516602 20.06420898 C82.55705553 22.1368664 82.60625505 24.20653549 82.65673828 26.27856445 C82.71699977 37.46528724 82.71699977 37.46528724 79.77978516 41.1574707 C75.20909536 44.79522969 73.3967686 44.2746582 67.11962891 44.2746582 C67.11962891 37.6746582 67.11962891 31.0746582 67.11962891 24.2746582 C68.10962891 23.7796582 68.10962891 23.7796582 69.11962891 23.2746582 C69.61462891 21.7896582 69.61462891 21.7896582 70.11962891 20.2746582 C46.35962891 20.2746582 22.59962891 20.2746582 -1.88037109 20.2746582 C-1.55037109 21.2646582 -1.22037109 22.2546582 -0.88037109 23.2746582 C-0.22037109 23.6046582 0.43962891 23.9346582 1.11962891 24.2746582 C1.11962891 30.8746582 1.11962891 37.4746582 1.11962891 44.2746582 C-6.96608538 44.2746582 -6.96608538 44.2746582 -11.88037109 40.2746582 C-15.05676058 35.51007397 -14.21365049 30.07549438 -14.19604492 24.50561523 C-14.19289237 22.413773 -14.21632329 20.32335611 -14.24169922 18.23168945 C-14.24397319 16.89445164 -14.24467525 15.55721005 -14.24365234 14.2199707 C-14.2466333 13.00841309 -14.24961426 11.79685547 -14.25268555 10.54858398 C-13.84531166 6.9663651 -13.04754218 5.12671764 -10.88037109 2.2746582 C-7.1633673 -0.20334433 -4.30171249 -0.01406938 0 0 Z " fill="#8C8C8C" transform="translate(53.88037109375,47.725341796875)"/>
</svg>
