<?xml version="1.0" encoding="UTF-8"?>
<svg version="1.1" xmlns="http://www.w3.org/2000/svg" width="176" height="176">
<path d="M0 0 C3.41059403 1.60535287 5.61792484 3.40518901 8.25 6.125 C8.95640625 6.84945312 9.6628125 7.57390625 10.390625 8.3203125 C11.18726562 9.15175781 11.18726562 9.15175781 12 10 C10.40443948 13.87461359 7.91315107 16.3594792 4.98706055 19.31933594 C4.2232608 20.09562096 4.2232608 20.09562096 3.44403076 20.8875885 C1.76368338 22.59197944 0.07582054 24.28866221 -1.61328125 25.984375 C-2.78679403 27.16685544 -3.96022941 28.34941269 -5.1335907 29.53204346 C-7.59209857 32.00702643 -10.05495368 34.47759439 -12.52026367 36.94580078 C-15.67971871 40.11065085 -18.82268692 43.29135246 -21.96194172 46.47622299 C-24.37872544 48.92272556 -26.80666175 51.35792123 -29.23784447 53.79010773 C-30.40175822 54.9582308 -31.56154542 56.1304806 -32.71709633 57.30687714 C-34.33278474 58.94938315 -35.96348628 60.5753849 -37.59887695 62.19824219 C-38.52328079 63.12771667 -39.44768463 64.05719116 -40.40010071 65.01483154 C-43 67 -43 67 -45.71134949 67.38482666 C-48.63053535 66.89397821 -49.75486016 65.91496859 -51.8125 63.8125 C-52.41707031 63.22082031 -53.02164063 62.62914062 -53.64453125 62.01953125 C-55.43222715 59.35601892 -55.46634863 58.17464448 -55 55 C-53.37676886 52.90933665 -51.83858541 51.2049863 -49.95117188 49.38354492 C-49.1465023 48.57778015 -49.1465023 48.57778015 -48.32557678 47.7557373 C-46.55156281 45.9852035 -44.76050593 44.23303071 -42.96875 42.48046875 C-41.73454988 41.25559516 -40.50144994 40.02961209 -39.26940918 38.80256653 C-36.02521752 35.57745691 -32.7662917 32.36764359 -29.50408936 29.1607666 C-26.17730617 25.88514911 -22.86464898 22.59531472 -19.55078125 19.30664062 C-13.04761634 12.85708473 -6.52880024 6.42359705 0 0 Z " fill="#8C8C8C" transform="translate(87,77)"/>
<path d="M0 0 C5.3664405 1.89857549 8.42149619 4.90532644 12.375 8.875 C13.02855469 9.50019531 13.68210938 10.12539063 14.35546875 10.76953125 C14.96777344 11.37925781 15.58007812 11.98898438 16.2109375 12.6171875 C16.77087402 13.17003418 17.33081055 13.72288086 17.90771484 14.29248047 C19 16 19 16 18.91552734 17.9387207 C16.88645976 22.50709873 12.73269554 25.82166732 9.25 29.3125 C8.43789062 30.16134766 7.62578125 31.01019531 6.7890625 31.88476562 C5.60183594 33.08069336 5.60183594 33.08069336 4.390625 34.30078125 C3.66907227 35.03466064 2.94751953 35.76854004 2.20410156 36.5246582 C0 38 0 38 -2.55029297 37.91772461 C-6.7148414 36.35757536 -9.29235627 33.3641636 -12.375 30.25 C-13.02855469 29.62867187 -13.68210937 29.00734375 -14.35546875 28.3671875 C-15.27392578 27.45066406 -15.27392578 27.45066406 -16.2109375 26.515625 C-16.77087402 25.96165039 -17.33081055 25.40767578 -17.90771484 24.83691406 C-19 23 -19 23 -18.92651367 20.55688477 C-17.79422162 17.43211675 -16.34417529 15.88699556 -13.96484375 13.57421875 C-13.15595703 12.77822266 -12.34707031 11.98222656 -11.51367188 11.16210938 C-10.66353516 10.34548828 -9.81339844 9.52886719 -8.9375 8.6875 C-8.08349609 7.85154297 -7.22949219 7.01558594 -6.34960938 6.15429688 C-4.24178688 4.09357656 -2.12520151 2.04276791 0 0 Z " fill="#8C8C8C" transform="translate(108,49)"/>
<path d="M0 0 C8.85678016 3.59685832 13.29969999 15.84195601 17 24 C18.1577506 27.47325181 18.06866652 30.36067448 18 34 C16.35253906 34.82202148 16.35253906 34.82202148 14 35 C11.89915736 33.34793163 10.1866762 31.76846078 8.359375 29.84765625 C7.83232971 29.31353622 7.30528442 28.7794162 6.76226807 28.22911072 C5.07944065 26.51826532 3.41480282 24.79087238 1.75 23.0625 C0.61313442 21.90056126 -0.52487322 20.73973875 -1.6640625 19.58007812 C-4.45613169 16.7328415 -7.23200677 13.87064017 -10 11 C-9.05052441 9.88322508 -8.09975103 8.76755346 -7.1484375 7.65234375 C-6.35445557 6.72023071 -6.35445557 6.72023071 -5.54443359 5.76928711 C-3.78334607 3.7518035 -1.93011408 1.85587892 0 0 Z " fill="#8C8C8C" transform="translate(126,74)"/>
<path d="M0 0 C13.31651856 -0.21478256 24.38881187 7.47394601 34 16 C32.52278578 19.45201639 30.56205999 21.64961936 27.875 24.25 C27.15054688 24.95640625 26.42609375 25.6628125 25.6796875 26.390625 C25.12539062 26.92171875 24.57109375 27.4528125 24 28 C18.25487231 23.1969497 12.84121132 18.12205536 7.5 12.875 C6.6646875 12.07707031 5.829375 11.27914062 4.96875 10.45703125 C4.185 9.68488281 3.40125 8.91273437 2.59375 8.1171875 C1.87896484 7.42222168 1.16417969 6.72725586 0.42773438 6.01123047 C-1 4 -1 4 -0.72460938 1.74267578 C-0.48548828 1.16759277 -0.24636719 0.59250977 0 0 Z " fill="#8C8C8C" transform="translate(68,32)"/>
<path d="M0 0 C3.23185376 0.17009757 4.79125338 0.84069337 7.375 2.8125 C9 5 9 5 8.75 7.25 C8.5025 7.8275 8.255 8.405 8 9 C4 9 4 9 2.296875 7.46875 C1.78640625 6.8190625 1.2759375 6.169375 0.75 5.5 C0.22921875 4.8503125 -0.2915625 4.200625 -0.828125 3.53125 C-1.21484375 3.0259375 -1.6015625 2.520625 -2 2 C-1.34 1.34 -0.68 0.68 0 0 Z " fill="#8C8C8C" transform="translate(120,48)"/>
</svg>
