<svg width="44" height="44" viewBox="0 0 44 44" fill="none" xmlns="http://www.w3.org/2000/svg">
<path d="M31.8885 14.0571C32.1437 13.776 32.1561 13.4475 31.9035 13.1676C31.6123 12.8454 31.3086 12.5331 30.9938 12.2333C30.7412 11.9932 30.4313 11.9882 30.1637 12.2071C29.9945 12.3452 29.8452 12.5082 29.6685 12.6787C30.2633 13.2933 30.8333 13.8817 31.4331 14.5C31.6036 14.3358 31.7554 14.2052 31.8885 14.0584V14.0571Z" fill="#FA6F15"/>
<path d="M21.9117 19.4168C17.357 23.9702 12.8011 28.5249 8.24766 33.0809C7.91415 33.4143 7.91913 33.749 8.25264 34.0861C8.75788 34.5975 9.26935 35.1038 9.77708 35.6126C10.2923 36.1277 10.5486 36.1302 11.0576 35.6201C15.5227 31.1562 19.9865 26.6924 24.4516 22.2272C24.5262 22.1526 24.5972 22.073 24.6544 22.012C23.7646 21.1225 22.8885 20.2466 21.9913 19.3496C21.9714 19.367 21.939 19.3894 21.9117 19.4155V19.4168Z" fill="#FA6F15"/>
<path d="M31.5957 16.656C31.5957 16.4433 31.4252 16.289 31.302 16.1646C30.1534 15.0013 28.9973 13.8468 27.8387 12.6947C27.5226 12.38 27.1642 12.3812 26.8519 12.6935C25.3946 14.1454 23.9399 15.601 22.4876 17.0578C22.1715 17.3751 22.1728 17.7222 22.4913 18.0419C23.6437 19.2002 24.7998 20.356 25.9584 21.508C26.2757 21.824 26.6279 21.8278 26.944 21.513C28.4024 20.0611 29.8584 18.6068 31.3057 17.1462C31.4289 17.0218 31.5969 16.8663 31.5969 16.6548L31.5957 16.656Z" fill="#FA6F15"/>
<path d="M17.255 9.24244C19.0582 11.0452 20.8614 12.8479 22.6646 14.6506C22.7331 14.719 22.8052 14.7837 22.8413 14.8173C23.7299 13.9315 24.591 13.0718 25.4621 12.2034C23.7796 10.7453 21.9354 9.4838 19.8248 8.65522C19.1515 8.39147 18.4397 8.21853 17.7391 8.02943C17.3969 7.93612 17.1231 8.07173 16.9825 8.33672C16.8406 8.60297 16.8966 8.87045 17.1517 9.13793C17.1853 9.17401 17.2214 9.2076 17.2563 9.24244H17.255Z" fill="#FA6F15"/>
<path d="M35.9801 26.2895C35.8768 25.8305 35.7785 25.3664 35.6267 24.921C34.8116 22.5298 33.4514 20.4609 31.8137 18.5611C31.7975 18.5424 31.7652 18.5362 31.7552 18.5312C30.8916 19.3947 30.0354 20.2494 29.1655 21.119C29.1742 21.1377 29.1792 21.1588 29.1917 21.1713C31.0969 23.0785 33.0021 24.987 34.9111 26.8917C35.1389 27.1194 35.4189 27.153 35.669 27.0173C35.9241 26.8792 36.0535 26.6105 35.9814 26.2883L35.9801 26.2895Z" fill="#FA6F15"/>
</svg>
