<svg width="1134" height="1134" viewBox="0 0 1134 1134" fill="none" xmlns="http://www.w3.org/2000/svg">
<path d="M425.25 567L214.373 801.785L0 567H141.75C141.75 332.168 332.168 141.75 567 141.75C680.164 141.75 782.696 186.259 858.958 258.363L764.269 363.778C713.191 314.165 643.639 283.5 567 283.5C410.65 283.5 283.5 410.65 283.5 567H425.25ZM919.627 332.215L708.75 567H850.5C850.5 723.35 723.35 850.5 567 850.5C490.313 850.5 420.808 819.788 369.731 770.222L275.042 875.637C351.257 947.74 453.836 992.25 567 992.25C801.832 992.25 992.25 801.832 992.25 567H1134L919.627 332.215V332.215Z" fill="white"/>
</svg>
