<svg width="45" height="44" viewBox="0 0 45 44" fill="none" xmlns="http://www.w3.org/2000/svg">
<rect width="44" height="44" transform="translate(0.574219)" fill="#080A0F"/>
<path d="M12.2218 20.1562H9.55017C9.01117 20.1562 8.57422 20.5897 8.57422 21.1244V31.1938C8.57422 31.7285 9.01117 32.1619 9.55017 32.1619H12.2218C12.7608 32.1619 13.1978 31.7285 13.1978 31.1938V21.1244C13.1978 20.5897 12.7608 20.1562 12.2218 20.1562Z" fill="#EAEAEA"/>
<path d="M18.0656 19.3105H15.3939C14.8549 19.3105 14.418 19.744 14.418 20.2786V31.2715C14.418 31.8061 14.8549 32.2396 15.3939 32.2396H18.0656C18.6046 32.2396 19.0415 31.8061 19.0415 31.2715V20.2786C19.0415 19.744 18.6046 19.3105 18.0656 19.3105Z" fill="#EAEAEA"/>
<path d="M23.9093 13.7695H21.2377C20.6987 13.7695 20.2617 14.203 20.2617 14.7376V31.2716C20.2617 31.8063 20.6987 32.2397 21.2377 32.2397H23.9093C24.4483 32.2397 24.8853 31.8063 24.8853 31.2716V14.7376C24.8853 14.203 24.4483 13.7695 23.9093 13.7695Z" fill="#EAEAEA"/>
<path d="M29.7531 16.0781H27.0814C26.5424 16.0781 26.1055 16.5116 26.1055 17.0462V31.2713C26.1055 31.806 26.5424 32.2394 27.0814 32.2394H29.7531C30.2921 32.2394 30.729 31.806 30.729 31.2713V17.0462C30.729 16.5116 30.2921 16.0781 29.7531 16.0781Z" fill="#EAEAEA"/>
<path d="M35.5968 11H32.9252C32.3862 11 31.9492 11.4334 31.9492 11.9681V31.2733C31.9492 31.8079 32.3862 32.2414 32.9252 32.2414H35.5968C36.1358 32.2414 36.5728 31.8079 36.5728 31.2733V11.9681C36.5728 11.4334 36.1358 11 35.5968 11Z" fill="#EAEAEA"/>
</svg>
