<svg width="32" height="32" viewBox="0 0 32 32" fill="none" xmlns="http://www.w3.org/2000/svg">
<g clip-path="url(#clip0_2909_84507)">
<path d="M6.42098 5.65445L5.31978 0C6.66156 1.7171 7.98374 3.01207 11 5C14.0534 7.01267 21.4308 9.52941 21.4308 9.52941V14.6551L25.9241 16.2828C25.9241 19.262 25.7839 21.7338 26.0189 24.4256C26.1963 26.4562 26.6293 28.9088 28 31.9993C28 31.9993 24.3329 29.3891 22.9994 27.5854V23.6307L21.4308 22.8993V25.6731L19 23.9117V21.8454L10.2731 17.6986L9.19665 14.0741L18.9986 18.7241V16.728L8.17519 11.6036L7.09874 7.9792L19 13.6026V11.6036L6.42098 5.65308V5.65445ZM21.4308 19.7781L22.9994 20.5094V18.43L21.4308 17.6986V19.7767V19.7781Z" fill="#B8D0E7"/>
</g>
<defs>
<clipPath id="clip0_2909_84507">
<rect width="32" height="32" fill="white" transform="matrix(-1 0 0 1 32 0)"/>
</clipPath>
</defs>
</svg>
