<svg width="32" height="32" viewBox="0 0 32 32" fill="none" xmlns="http://www.w3.org/2000/svg">
<path d="M23.3333 8H12.6667C12.4899 8 12.3203 8.07024 12.1953 8.19526C12.0702 8.32029 12 8.48986 12 8.66667V12H8.66667C8.48986 12 8.32029 12.0702 8.19526 12.1953C8.07024 12.3203 8 12.4899 8 12.6667V23.3333C8 23.5101 8.07024 23.6797 8.19526 23.8047C8.32029 23.9298 8.48986 24 8.66667 24H19.3333C19.5101 24 19.6797 23.9298 19.8047 23.8047C19.9298 23.6797 20 23.5101 20 23.3333V20H23.3333C23.5101 20 23.6797 19.9298 23.8047 19.8047C23.9298 19.6797 24 19.5101 24 19.3333V8.66667C24 8.48986 23.9298 8.32029 23.8047 8.19526C23.6797 8.07024 23.5101 8 23.3333 8ZM18.6667 22.6667H9.33333V13.3333H18.6667V22.6667ZM22.6667 18.6667H20V12.6667C20 12.4899 19.9298 12.3203 19.8047 12.1953C19.6797 12.0702 19.5101 12 19.3333 12H13.3333V9.33333H22.6667V18.6667Z" fill="#6C81F5"/>
</svg>
